G04*
G04 #@! TF.GenerationSoftware,Altium Limited,Altium Designer,23.0.1 (38)*
G04*
G04 Layer_Physical_Order=3*
G04 Layer_Color=16440176*
%FSLAX44Y44*%
%MOMM*%
G71*
G04*
G04 #@! TF.SameCoordinates,7681B053-B415-4EDE-A76C-09C314C6D952*
G04*
G04*
G04 #@! TF.FilePolarity,Positive*
G04*
G01*
G75*
%ADD231C,2.2000*%
%ADD232C,3.0000*%
%ADD233C,2.3000*%
%ADD234R,2.3000X2.3000*%
%ADD235C,1.0000*%
%ADD236C,1.8000*%
%ADD237C,2.0000*%
%ADD238R,2.0000X2.0000*%
%ADD239O,0.6500X1.6500*%
%ADD240C,0.8000*%
%ADD241C,2.5000*%
%ADD242C,4.0000*%
%ADD243C,0.7000*%
%ADD244C,0.5000*%
%ADD245C,2.0000*%
%ADD246C,2.8000*%
G36*
X1738000Y935500D02*
X1719657D01*
X1719266Y935891D01*
X1717796Y936500D01*
X1716204D01*
X1714734Y935891D01*
X1714343Y935500D01*
X1707250D01*
X1705173Y933423D01*
X1703780Y933826D01*
X1703391Y934766D01*
X1702266Y935891D01*
X1700796Y936500D01*
X1699204D01*
X1697734Y935891D01*
X1696609Y934766D01*
X1696000Y933296D01*
Y931704D01*
X1696609Y930234D01*
X1697734Y929109D01*
X1698674Y928720D01*
X1699077Y927327D01*
X1672500Y900750D01*
X1672500Y876250D01*
X1568250Y772000D01*
Y747500D01*
X1565613Y744863D01*
X1564440Y745349D01*
Y753330D01*
X1550400D01*
X1536360D01*
Y744049D01*
X1535187Y743563D01*
X1532000Y746750D01*
Y816250D01*
X1573750Y858000D01*
X1584750D01*
X1658750Y932000D01*
X1706000Y979250D01*
Y979750D01*
X1738000D01*
Y935500D01*
D02*
G37*
G36*
X1806250Y848250D02*
X1884250D01*
Y821105D01*
X1883734Y820891D01*
X1883330Y820487D01*
X1882500Y819849D01*
X1881670Y820487D01*
X1881266Y820891D01*
X1879796Y821500D01*
X1878204D01*
X1876734Y820891D01*
X1876330Y820487D01*
X1875500Y819849D01*
X1874670Y820487D01*
X1874266Y820891D01*
X1872796Y821500D01*
X1871204D01*
X1869734Y820891D01*
X1869330Y820487D01*
X1868500Y819849D01*
X1867670Y820487D01*
X1867266Y820891D01*
X1865796Y821500D01*
X1864204D01*
X1862734Y820891D01*
X1861609Y819766D01*
X1861000Y818296D01*
Y816704D01*
X1861609Y815234D01*
X1862734Y814109D01*
X1864204Y813500D01*
X1865796D01*
X1867266Y814109D01*
X1867670Y814513D01*
X1868500Y815151D01*
X1869330Y814513D01*
X1869734Y814109D01*
X1871204Y813500D01*
X1872796D01*
X1874266Y814109D01*
X1874670Y814513D01*
X1875500Y815151D01*
X1876330Y814513D01*
X1876734Y814109D01*
X1878204Y813500D01*
X1879796D01*
X1881266Y814109D01*
X1881670Y814513D01*
X1882500Y815151D01*
X1883330Y814513D01*
X1883734Y814109D01*
X1884250Y813895D01*
Y778750D01*
X1870105D01*
X1869891Y779266D01*
X1868766Y780391D01*
X1867296Y781000D01*
X1865704D01*
X1864234Y780391D01*
X1863830Y779986D01*
X1863000Y779350D01*
X1862170Y779986D01*
X1861766Y780391D01*
X1860296Y781000D01*
X1858704D01*
X1857234Y780391D01*
X1856830Y779986D01*
X1856000Y779350D01*
X1855170Y779986D01*
X1854766Y780391D01*
X1853296Y781000D01*
X1851704D01*
X1850234Y780391D01*
X1849109Y779266D01*
X1848895Y778750D01*
X1687750D01*
Y780296D01*
X1687141Y781766D01*
X1686016Y782891D01*
X1684546Y783500D01*
X1682954D01*
X1681484Y782891D01*
X1680359Y781766D01*
X1679750Y780296D01*
Y778750D01*
X1677672D01*
X1677000Y779755D01*
Y781745D01*
X1676239Y783582D01*
X1674832Y784989D01*
X1672995Y785750D01*
X1671005D01*
X1669941Y785309D01*
X1653000Y802250D01*
X1652750Y802750D01*
Y839500D01*
X1675250Y862000D01*
X1717000D01*
Y861454D01*
X1717609Y859984D01*
X1718734Y858859D01*
X1720204Y858250D01*
X1721796D01*
X1723266Y858859D01*
X1724391Y859984D01*
X1725000Y861454D01*
Y862000D01*
X1792500D01*
X1806250Y848250D01*
D02*
G37*
G36*
X845782Y399258D02*
X845969Y398730D01*
X845250Y396995D01*
Y395005D01*
X846011Y393168D01*
X847418Y391761D01*
X849255Y391000D01*
X851245D01*
X853082Y391761D01*
X854161Y392839D01*
X890000Y357000D01*
X989166D01*
X989511Y356168D01*
X990918Y354761D01*
X992755Y354000D01*
X994745D01*
X996582Y354761D01*
X997989Y356168D01*
X998334Y357000D01*
X1072000D01*
X1110980Y318020D01*
X1110952Y316750D01*
X1110505D01*
X1108668Y315989D01*
X1107261Y314582D01*
X1106500Y312745D01*
Y310755D01*
X1107261Y308918D01*
X1108668Y307511D01*
X1110505Y306750D01*
X1111000D01*
Y289098D01*
X1110750Y288495D01*
Y286505D01*
X1111000Y285902D01*
X1111000Y20000D01*
X1082000D01*
X1071000Y31000D01*
Y267000D01*
X1015000Y323000D01*
X854000D01*
X811000Y366000D01*
X659000D01*
Y400000D01*
X827633D01*
X828159Y398730D01*
X827761Y398332D01*
X827000Y396495D01*
Y394505D01*
X827761Y392668D01*
X829168Y391261D01*
X831005Y390500D01*
X832995D01*
X834832Y391261D01*
X836239Y392668D01*
X837000Y394505D01*
Y396495D01*
X836239Y398332D01*
X835841Y398730D01*
X836367Y400000D01*
X845383D01*
X845782Y399258D01*
D02*
G37*
G36*
X1059000Y269000D02*
Y195000D01*
X1029000D01*
X1028000Y196000D01*
Y262000D01*
X1001000Y289000D01*
X797000D01*
X776000Y268000D01*
Y229000D01*
X772000Y225000D01*
X722000D01*
X717000Y230000D01*
Y267000D01*
X765000Y315000D01*
X1013000D01*
X1059000Y269000D01*
D02*
G37*
G36*
X879487Y739487D02*
X881847Y737550D01*
X884540Y736111D01*
X887461Y735224D01*
X890500Y734925D01*
X1314075D01*
X1574618Y474382D01*
X1574250Y473495D01*
Y471505D01*
X1575011Y469668D01*
X1576418Y468261D01*
X1578255Y467500D01*
X1580245D01*
X1581132Y467868D01*
X1650000Y399000D01*
Y238000D01*
X1658465Y229536D01*
X1657761Y228832D01*
X1657000Y226995D01*
Y225005D01*
X1657761Y223168D01*
X1659168Y221761D01*
X1661005Y221000D01*
X1662995D01*
X1664832Y221761D01*
X1665536Y222465D01*
X1667234Y220766D01*
X1666500Y218995D01*
Y217005D01*
X1667261Y215168D01*
X1668668Y213761D01*
X1670505Y213000D01*
X1672495D01*
X1674266Y213734D01*
X1676000Y212000D01*
X1783000D01*
X1800000Y195000D01*
Y61000D01*
X1762000Y23000D01*
X1511867D01*
X1511341Y24270D01*
X1511989Y24918D01*
X1512750Y26755D01*
Y28745D01*
X1511989Y30582D01*
X1510582Y31989D01*
X1508745Y32750D01*
X1506756D01*
X1504918Y31989D01*
X1503511Y30582D01*
X1502750Y28745D01*
Y26755D01*
X1503511Y24918D01*
X1504159Y24270D01*
X1503633Y23000D01*
X1140000D01*
X1114000Y49000D01*
Y74323D01*
X1115270Y74490D01*
X1115346Y74205D01*
X1116866Y71574D01*
X1119014Y69425D01*
X1121646Y67906D01*
X1124581Y67120D01*
X1124830D01*
Y78660D01*
Y90200D01*
X1124581D01*
X1121646Y89413D01*
X1119014Y87894D01*
X1116866Y85745D01*
X1115346Y83114D01*
X1115270Y82829D01*
X1114000Y82996D01*
Y281995D01*
X1114755Y282500D01*
X1116745D01*
X1118582Y283261D01*
X1119989Y284668D01*
X1120750Y286505D01*
Y288495D01*
X1119989Y290332D01*
X1118582Y291739D01*
X1116745Y292500D01*
X1114755D01*
X1114000Y293005D01*
Y307374D01*
X1114332Y307511D01*
X1115739Y308918D01*
X1116500Y310755D01*
Y312745D01*
X1115739Y314582D01*
X1114332Y315989D01*
X1114000Y316126D01*
Y324000D01*
X1075000Y363000D01*
X996821D01*
X996582Y363239D01*
X994745Y364000D01*
X992755D01*
X990918Y363239D01*
X990679Y363000D01*
X895000D01*
X869617Y388383D01*
X869915Y389881D01*
X870832Y390261D01*
X872239Y391668D01*
X873000Y393505D01*
Y395495D01*
X872239Y397332D01*
X870832Y398739D01*
X868995Y399500D01*
X867005D01*
X865168Y398739D01*
X863761Y397332D01*
X863381Y396415D01*
X861883Y396117D01*
X839000Y419000D01*
X722453D01*
X721932Y420258D01*
X721986Y420330D01*
X722391Y420734D01*
X723000Y422204D01*
Y423796D01*
X722391Y425266D01*
X721986Y425670D01*
X721349Y426500D01*
X721986Y427330D01*
X722391Y427734D01*
X723000Y429204D01*
Y430796D01*
X722391Y432266D01*
X721986Y432670D01*
X721349Y433500D01*
X721986Y434330D01*
X722391Y434734D01*
X723000Y436204D01*
Y437796D01*
X722391Y439266D01*
X721986Y439670D01*
X721349Y440500D01*
X721986Y441330D01*
X722391Y441734D01*
X723000Y443204D01*
Y444796D01*
X722391Y446266D01*
X721266Y447391D01*
X719796Y448000D01*
X718204D01*
X716734Y447391D01*
X716330Y446987D01*
X715500Y446349D01*
X714670Y446987D01*
X714266Y447391D01*
X712796Y448000D01*
X711204D01*
X709734Y447391D01*
X709330Y446987D01*
X708500Y446349D01*
X707670Y446987D01*
X707266Y447391D01*
X705796Y448000D01*
X704204D01*
X702734Y447391D01*
X702330Y446987D01*
X701500Y446349D01*
X700670Y446987D01*
X700266Y447391D01*
X698796Y448000D01*
X697204D01*
X695734Y447391D01*
X695330Y446987D01*
X694500Y446349D01*
X693670Y446987D01*
X693266Y447391D01*
X691796Y448000D01*
X690204D01*
X688734Y447391D01*
X687609Y446266D01*
X687000Y444796D01*
Y443204D01*
X687609Y441734D01*
X688014Y441330D01*
X688651Y440500D01*
X688014Y439670D01*
X687609Y439266D01*
X687000Y437796D01*
Y436204D01*
X687609Y434734D01*
X688014Y434330D01*
X688651Y433500D01*
X688014Y432670D01*
X687609Y432266D01*
X687000Y430796D01*
Y429204D01*
X687609Y427734D01*
X688014Y427330D01*
X688651Y426500D01*
X688014Y425670D01*
X687609Y425266D01*
X687000Y423796D01*
Y422204D01*
X687609Y420734D01*
X688014Y420330D01*
X688068Y420258D01*
X687547Y419000D01*
X649000D01*
X633200Y434800D01*
Y436843D01*
X632246Y440404D01*
X630403Y443596D01*
X627796Y446203D01*
X624604Y448046D01*
X621043Y449000D01*
X619000D01*
X514000Y554000D01*
Y741474D01*
X526526Y754000D01*
X864974D01*
X879487Y739487D01*
D02*
G37*
%LPC*%
G36*
X1685296Y936500D02*
X1683704D01*
X1682234Y935891D01*
X1681109Y934766D01*
X1680500Y933296D01*
Y931704D01*
X1681109Y930234D01*
X1682234Y929109D01*
X1683704Y928500D01*
X1685296D01*
X1686766Y929109D01*
X1687891Y930234D01*
X1688500Y931704D01*
Y933296D01*
X1687891Y934766D01*
X1686766Y935891D01*
X1685296Y936500D01*
D02*
G37*
G36*
X1628311Y869200D02*
X1624888D01*
X1621582Y868314D01*
X1618618Y866603D01*
X1616197Y864182D01*
X1614486Y861218D01*
X1613600Y857912D01*
Y854489D01*
X1614486Y851182D01*
X1616197Y848218D01*
X1618618Y845797D01*
X1621582Y844086D01*
X1624888Y843200D01*
X1628311D01*
X1631618Y844086D01*
X1634582Y845797D01*
X1637003Y848218D01*
X1638714Y851182D01*
X1639600Y854489D01*
Y857912D01*
X1638714Y861218D01*
X1637003Y864182D01*
X1634582Y866603D01*
X1631618Y868314D01*
X1628311Y869200D01*
D02*
G37*
G36*
X1564440Y768640D02*
X1551670D01*
Y755870D01*
X1564440D01*
Y768640D01*
D02*
G37*
G36*
X1549130D02*
X1536360D01*
Y755870D01*
X1549130D01*
Y768640D01*
D02*
G37*
G36*
X1699046Y849250D02*
X1697454D01*
X1695984Y848641D01*
X1694859Y847516D01*
X1694250Y846046D01*
Y844454D01*
X1694859Y842984D01*
X1695984Y841859D01*
X1697454Y841250D01*
X1699046D01*
X1700516Y841859D01*
X1701641Y842984D01*
X1702250Y844454D01*
Y846046D01*
X1701641Y847516D01*
X1700516Y848641D01*
X1699046Y849250D01*
D02*
G37*
G36*
X1690546Y829500D02*
X1688954D01*
X1687484Y828891D01*
X1686359Y827766D01*
X1685750Y826296D01*
Y824704D01*
X1686359Y823234D01*
X1687484Y822109D01*
X1688954Y821500D01*
X1690546D01*
X1692016Y822109D01*
X1693141Y823234D01*
X1693750Y824704D01*
Y826296D01*
X1693141Y827766D01*
X1692016Y828891D01*
X1690546Y829500D01*
D02*
G37*
G36*
X1849796Y818000D02*
X1848204D01*
X1846734Y817391D01*
X1846330Y816986D01*
X1845500Y816349D01*
X1844670Y816986D01*
X1844266Y817391D01*
X1842796Y818000D01*
X1841204D01*
X1839734Y817391D01*
X1839330Y816986D01*
X1838500Y816349D01*
X1837670Y816986D01*
X1837266Y817391D01*
X1835796Y818000D01*
X1834204D01*
X1832734Y817391D01*
X1832330Y816986D01*
X1831500Y816349D01*
X1830670Y816986D01*
X1830266Y817391D01*
X1828796Y818000D01*
X1827204D01*
X1825734Y817391D01*
X1825330Y816986D01*
X1824500Y816349D01*
X1823670Y816986D01*
X1823266Y817391D01*
X1821796Y818000D01*
X1820204D01*
X1818734Y817391D01*
X1818330Y816986D01*
X1817500Y816349D01*
X1816670Y816986D01*
X1816266Y817391D01*
X1814796Y818000D01*
X1813204D01*
X1811734Y817391D01*
X1810609Y816266D01*
X1810000Y814796D01*
Y813204D01*
X1810609Y811734D01*
X1811013Y811330D01*
X1811651Y810500D01*
X1811013Y809670D01*
X1810609Y809266D01*
X1810000Y807796D01*
Y806204D01*
X1810609Y804734D01*
X1811013Y804330D01*
X1811651Y803500D01*
X1811013Y802670D01*
X1810609Y802266D01*
X1810000Y800796D01*
Y799204D01*
X1810609Y797734D01*
X1811013Y797330D01*
X1811651Y796500D01*
X1811013Y795670D01*
X1810609Y795266D01*
X1810000Y793796D01*
Y792204D01*
X1810609Y790734D01*
X1811013Y790330D01*
X1811651Y789500D01*
X1811013Y788670D01*
X1810609Y788266D01*
X1810000Y786796D01*
Y785204D01*
X1810609Y783734D01*
X1811734Y782609D01*
X1813204Y782000D01*
X1814796D01*
X1816266Y782609D01*
X1816670Y783013D01*
X1817500Y783651D01*
X1818330Y783013D01*
X1818734Y782609D01*
X1820204Y782000D01*
X1821796D01*
X1823266Y782609D01*
X1823670Y783013D01*
X1824500Y783651D01*
X1825330Y783013D01*
X1825734Y782609D01*
X1827204Y782000D01*
X1828796D01*
X1830266Y782609D01*
X1830670Y783013D01*
X1831500Y783651D01*
X1832330Y783013D01*
X1832734Y782609D01*
X1834204Y782000D01*
X1835796D01*
X1837266Y782609D01*
X1837670Y783013D01*
X1838500Y783651D01*
X1839330Y783013D01*
X1839734Y782609D01*
X1841204Y782000D01*
X1842796D01*
X1844266Y782609D01*
X1844670Y783013D01*
X1845500Y783651D01*
X1846330Y783013D01*
X1846734Y782609D01*
X1848204Y782000D01*
X1849796D01*
X1851266Y782609D01*
X1852391Y783734D01*
X1853000Y785204D01*
Y786796D01*
X1852391Y788266D01*
X1851987Y788670D01*
X1851350Y789500D01*
X1851987Y790330D01*
X1852391Y790734D01*
X1853000Y792204D01*
Y793796D01*
X1852391Y795266D01*
X1851987Y795670D01*
X1851350Y796500D01*
X1851987Y797330D01*
X1852391Y797734D01*
X1853000Y799204D01*
Y800796D01*
X1852391Y802266D01*
X1851987Y802670D01*
X1851350Y803500D01*
X1851987Y804330D01*
X1852391Y804734D01*
X1853000Y806204D01*
Y807796D01*
X1852391Y809266D01*
X1851987Y809670D01*
X1851350Y810500D01*
X1851987Y811330D01*
X1852391Y811734D01*
X1853000Y813204D01*
Y814796D01*
X1852391Y816266D01*
X1851266Y817391D01*
X1849796Y818000D01*
D02*
G37*
G36*
X1690296Y810500D02*
X1688704D01*
X1687234Y809891D01*
X1686109Y808766D01*
X1685500Y807296D01*
Y805704D01*
X1686109Y804234D01*
X1687234Y803109D01*
X1688704Y802500D01*
X1690296D01*
X1691766Y803109D01*
X1692891Y804234D01*
X1693500Y805704D01*
Y807296D01*
X1692891Y808766D01*
X1691766Y809891D01*
X1690296Y810500D01*
D02*
G37*
G36*
X1056796Y294000D02*
X1055204D01*
X1053734Y293391D01*
X1052609Y292266D01*
X1052000Y290796D01*
Y289204D01*
X1052609Y287734D01*
X1053734Y286609D01*
X1055204Y286000D01*
X1056796D01*
X1058266Y286609D01*
X1059391Y287734D01*
X1060000Y289204D01*
Y290796D01*
X1059391Y292266D01*
X1058266Y293391D01*
X1056796Y294000D01*
D02*
G37*
G36*
X1097995Y82750D02*
X1096005D01*
X1094168Y81989D01*
X1092761Y80582D01*
X1092000Y78745D01*
Y76755D01*
X1092761Y74918D01*
X1094168Y73511D01*
X1096005Y72750D01*
X1097995D01*
X1099832Y73511D01*
X1101239Y74918D01*
X1102000Y76755D01*
Y78745D01*
X1101239Y80582D01*
X1099832Y81989D01*
X1097995Y82750D01*
D02*
G37*
G36*
X546745Y744750D02*
X544755D01*
X542918Y743989D01*
X541511Y742582D01*
X540750Y740745D01*
Y738755D01*
X541254Y737539D01*
X541378Y737239D01*
X540302Y736520D01*
X540101Y736720D01*
X539332Y737489D01*
X537495Y738250D01*
X535505D01*
X533668Y737489D01*
X532261Y736082D01*
X531500Y734245D01*
Y732255D01*
X532261Y730418D01*
X533668Y729011D01*
X535505Y728250D01*
X537495D01*
X539332Y729011D01*
X540739Y730418D01*
X541500Y732255D01*
Y734245D01*
X540996Y735461D01*
X540872Y735761D01*
X541949Y736480D01*
X542149Y736280D01*
X542918Y735511D01*
X544755Y734750D01*
X546745D01*
X548582Y735511D01*
X549989Y736918D01*
X550750Y738755D01*
Y740745D01*
X549989Y742582D01*
X548582Y743989D01*
X546745Y744750D01*
D02*
G37*
G36*
X638995Y745000D02*
X637005D01*
X635168Y744239D01*
X633761Y742832D01*
X633000Y740995D01*
Y739005D01*
X633761Y737168D01*
X635168Y735761D01*
X637005Y735000D01*
X638995D01*
X640832Y735761D01*
X642239Y737168D01*
X643000Y739005D01*
Y740995D01*
X642239Y742832D01*
X640832Y744239D01*
X638995Y745000D01*
D02*
G37*
G36*
X725245Y740250D02*
X723255D01*
X721418Y739489D01*
X720011Y738082D01*
X719250Y736245D01*
Y734255D01*
X720011Y732418D01*
X721418Y731011D01*
X723255Y730250D01*
X725245D01*
X727082Y731011D01*
X728489Y732418D01*
X729250Y734255D01*
Y736245D01*
X728489Y738082D01*
X727082Y739489D01*
X725245Y740250D01*
D02*
G37*
G36*
X629995Y737750D02*
X628005D01*
X626168Y736989D01*
X624761Y735582D01*
X624000Y733745D01*
Y731755D01*
X624761Y729918D01*
X626168Y728511D01*
X628005Y727750D01*
X629995D01*
X631832Y728511D01*
X633239Y729918D01*
X634000Y731755D01*
Y733745D01*
X633239Y735582D01*
X631832Y736989D01*
X629995Y737750D01*
D02*
G37*
G36*
X1306245Y707250D02*
X1304255D01*
X1302418Y706489D01*
X1301011Y705082D01*
X1300250Y703245D01*
Y701255D01*
X1301011Y699418D01*
X1302418Y698011D01*
X1304255Y697250D01*
X1306245D01*
X1308082Y698011D01*
X1309489Y699418D01*
X1310250Y701255D01*
Y703245D01*
X1309489Y705082D01*
X1308082Y706489D01*
X1306245Y707250D01*
D02*
G37*
G36*
X1273995Y701750D02*
X1272005D01*
X1270168Y700989D01*
X1268761Y699582D01*
X1268000Y697745D01*
Y695755D01*
X1268761Y693918D01*
X1270168Y692511D01*
X1272005Y691750D01*
X1273995D01*
X1275832Y692511D01*
X1277239Y693918D01*
X1278000Y695755D01*
Y697745D01*
X1277239Y699582D01*
X1275832Y700989D01*
X1273995Y701750D01*
D02*
G37*
G36*
X1257995D02*
X1256005D01*
X1254168Y700989D01*
X1252761Y699582D01*
X1252000Y697745D01*
Y695755D01*
X1252761Y693918D01*
X1254168Y692511D01*
X1256005Y691750D01*
X1257995D01*
X1259832Y692511D01*
X1261239Y693918D01*
X1262000Y695755D01*
Y697745D01*
X1261239Y699582D01*
X1259832Y700989D01*
X1257995Y701750D01*
D02*
G37*
G36*
X1122995Y701000D02*
X1121005D01*
X1119168Y700239D01*
X1117761Y698832D01*
X1117000Y696995D01*
Y695005D01*
X1117761Y693168D01*
X1119168Y691761D01*
X1121005Y691000D01*
X1122995D01*
X1124832Y691761D01*
X1126239Y693168D01*
X1127000Y695005D01*
Y696995D01*
X1126239Y698832D01*
X1124832Y700239D01*
X1122995Y701000D01*
D02*
G37*
G36*
X934946Y708150D02*
X931654D01*
X928475Y707298D01*
X925625Y705652D01*
X923298Y703325D01*
X921652Y700475D01*
X920800Y697296D01*
Y694004D01*
X921652Y690825D01*
X923298Y687975D01*
X925625Y685648D01*
X928135Y684198D01*
X928087Y682960D01*
X928047Y682852D01*
X924986Y681085D01*
X922465Y678564D01*
X920683Y675476D01*
X919760Y672033D01*
Y671520D01*
X933300D01*
X946840D01*
Y672033D01*
X945917Y675476D01*
X944135Y678564D01*
X941614Y681085D01*
X938553Y682852D01*
X938513Y682960D01*
X938465Y684198D01*
X940975Y685648D01*
X943303Y687975D01*
X944948Y690825D01*
X945800Y694004D01*
Y697296D01*
X944948Y700475D01*
X943303Y703325D01*
X940975Y705652D01*
X938125Y707298D01*
X934946Y708150D01*
D02*
G37*
G36*
X884146D02*
X880854D01*
X877675Y707298D01*
X874825Y705652D01*
X872497Y703325D01*
X870852Y700475D01*
X870000Y697296D01*
Y694004D01*
X870852Y690825D01*
X872497Y687975D01*
X874825Y685648D01*
X877335Y684198D01*
X877287Y682960D01*
X877247Y682852D01*
X874186Y681085D01*
X871665Y678564D01*
X869883Y675476D01*
X868960Y672033D01*
Y671520D01*
X882500D01*
X896040D01*
Y672033D01*
X895117Y675476D01*
X893335Y678564D01*
X890814Y681085D01*
X887753Y682852D01*
X887713Y682960D01*
X887665Y684198D01*
X890175Y685648D01*
X892503Y687975D01*
X894148Y690825D01*
X895000Y694004D01*
Y697296D01*
X894148Y700475D01*
X892503Y703325D01*
X890175Y705652D01*
X887325Y707298D01*
X884146Y708150D01*
D02*
G37*
G36*
X1124168Y682000D02*
X1122577D01*
X1121107Y681391D01*
X1119982Y680266D01*
X1119373Y678796D01*
Y677204D01*
X1119982Y675734D01*
X1121107Y674609D01*
X1122577Y674000D01*
X1124168D01*
X1124267Y674041D01*
X1124613Y673894D01*
X1125436Y673151D01*
Y671954D01*
X1126045Y670484D01*
X1127170Y669359D01*
X1128641Y668750D01*
X1130232D01*
X1131702Y669359D01*
X1132827Y670484D01*
X1133436Y671954D01*
Y673546D01*
X1132827Y675016D01*
X1131702Y676141D01*
X1130232Y676750D01*
X1128641D01*
X1128542Y676709D01*
X1128195Y676856D01*
X1127373Y677599D01*
Y678796D01*
X1126764Y680266D01*
X1125638Y681391D01*
X1124168Y682000D01*
D02*
G37*
G36*
X1309745Y673000D02*
X1307755D01*
X1305918Y672239D01*
X1304511Y670832D01*
X1303750Y668995D01*
Y667005D01*
X1304511Y665168D01*
X1305918Y663761D01*
X1307755Y663000D01*
X1309745D01*
X1311582Y663761D01*
X1312989Y665168D01*
X1313750Y667005D01*
Y668995D01*
X1312989Y670832D01*
X1311582Y672239D01*
X1309745Y673000D01*
D02*
G37*
G36*
X1231995Y670000D02*
X1230005D01*
X1228168Y669239D01*
X1226761Y667832D01*
X1226000Y665995D01*
Y664005D01*
X1226761Y662168D01*
X1228168Y660761D01*
X1230005Y660000D01*
X1231995D01*
X1233832Y660761D01*
X1235239Y662168D01*
X1236000Y664005D01*
Y665995D01*
X1235239Y667832D01*
X1233832Y669239D01*
X1231995Y670000D01*
D02*
G37*
G36*
X1125296Y664000D02*
X1123704D01*
X1122234Y663391D01*
X1121109Y662266D01*
X1120500Y660796D01*
Y659204D01*
X1121109Y657734D01*
X1122234Y656609D01*
X1123704Y656000D01*
X1125296D01*
X1126766Y656609D01*
X1127891Y657734D01*
X1128500Y659204D01*
Y660796D01*
X1127891Y662266D01*
X1126766Y663391D01*
X1125296Y664000D01*
D02*
G37*
G36*
X1164546Y673000D02*
X1162954D01*
X1161484Y672391D01*
X1160359Y671266D01*
X1159750Y669796D01*
Y668204D01*
X1160359Y666734D01*
X1160823Y666270D01*
X1160297Y665000D01*
X1160005D01*
X1158168Y664239D01*
X1156761Y662832D01*
X1156000Y660995D01*
Y659005D01*
X1156761Y657168D01*
X1158168Y655761D01*
X1160005Y655000D01*
X1161995D01*
X1163832Y655761D01*
X1165239Y657168D01*
X1166000Y659005D01*
Y660995D01*
X1165239Y662832D01*
X1164341Y663730D01*
X1164427Y664265D01*
X1164773Y665094D01*
X1166016Y665609D01*
X1167141Y666734D01*
X1167750Y668204D01*
Y669796D01*
X1167141Y671266D01*
X1166016Y672391D01*
X1164546Y673000D01*
D02*
G37*
G36*
X1222219Y650890D02*
X1221970D01*
Y640620D01*
X1232240D01*
Y640869D01*
X1231453Y643804D01*
X1229934Y646436D01*
X1227786Y648584D01*
X1225154Y650104D01*
X1222219Y650890D01*
D02*
G37*
G36*
X1196819D02*
X1196570D01*
Y640620D01*
X1206840D01*
Y640869D01*
X1206053Y643804D01*
X1204534Y646436D01*
X1202386Y648584D01*
X1199754Y650104D01*
X1196819Y650890D01*
D02*
G37*
G36*
X1194030D02*
X1193781D01*
X1190846Y650104D01*
X1188214Y648584D01*
X1186066Y646436D01*
X1184546Y643804D01*
X1183760Y640869D01*
Y640620D01*
X1194030D01*
Y650890D01*
D02*
G37*
G36*
X1219430D02*
X1219181D01*
X1216246Y650104D01*
X1213614Y648584D01*
X1211466Y646436D01*
X1209946Y643804D01*
X1209160Y640869D01*
Y640620D01*
X1219430D01*
Y650890D01*
D02*
G37*
G36*
X1232240Y638080D02*
X1221970D01*
Y627810D01*
X1222219D01*
X1225154Y628596D01*
X1227786Y630116D01*
X1229934Y632264D01*
X1231453Y634896D01*
X1232240Y637831D01*
Y638080D01*
D02*
G37*
G36*
X1219430D02*
X1209160D01*
Y637831D01*
X1209946Y634896D01*
X1211466Y632264D01*
X1213614Y630116D01*
X1216246Y628596D01*
X1219181Y627810D01*
X1219430D01*
Y638080D01*
D02*
G37*
G36*
X1206840D02*
X1196570D01*
Y627810D01*
X1196819D01*
X1199754Y628596D01*
X1202386Y630116D01*
X1204534Y632264D01*
X1206053Y634896D01*
X1206840Y637831D01*
Y638080D01*
D02*
G37*
G36*
X1194030D02*
X1183760D01*
Y637831D01*
X1184546Y634896D01*
X1186066Y632264D01*
X1188214Y630116D01*
X1190846Y628596D01*
X1193781Y627810D01*
X1194030D01*
Y638080D01*
D02*
G37*
G36*
X1115796Y635250D02*
X1114204D01*
X1112734Y634641D01*
X1111609Y633516D01*
X1111000Y632046D01*
Y630454D01*
X1111609Y628984D01*
X1112734Y627859D01*
X1114204Y627250D01*
X1115796D01*
X1117266Y627859D01*
X1118391Y628984D01*
X1119000Y630454D01*
Y632046D01*
X1118391Y633516D01*
X1117266Y634641D01*
X1115796Y635250D01*
D02*
G37*
G36*
X1138995Y631000D02*
X1137005D01*
X1135168Y630239D01*
X1133761Y628832D01*
X1133000Y626995D01*
Y625005D01*
X1133761Y623168D01*
X1135168Y621761D01*
X1137005Y621000D01*
X1138995D01*
X1140832Y621761D01*
X1142239Y623168D01*
X1143000Y625005D01*
Y626995D01*
X1142239Y628832D01*
X1140832Y630239D01*
X1138995Y631000D01*
D02*
G37*
G36*
X1130546Y621064D02*
X1128954D01*
X1127484Y620455D01*
X1126359Y619329D01*
X1125750Y617859D01*
Y616268D01*
X1126359Y614798D01*
X1127484Y613673D01*
X1128954Y613064D01*
X1130546D01*
X1132016Y613673D01*
X1133141Y614798D01*
X1133750Y616268D01*
Y617859D01*
X1133141Y619329D01*
X1132016Y620455D01*
X1130546Y621064D01*
D02*
G37*
G36*
X1140796Y618250D02*
X1139204D01*
X1137734Y617641D01*
X1136609Y616516D01*
X1136000Y615046D01*
Y613454D01*
X1136609Y611984D01*
X1137734Y610859D01*
X1139204Y610250D01*
X1140796D01*
X1142266Y610859D01*
X1143391Y611984D01*
X1144000Y613454D01*
Y615046D01*
X1143391Y616516D01*
X1142266Y617641D01*
X1140796Y618250D01*
D02*
G37*
G36*
X1045796Y618000D02*
X1044204D01*
X1042734Y617391D01*
X1041609Y616266D01*
X1041000Y614796D01*
Y613204D01*
X1041609Y611734D01*
X1042734Y610609D01*
X1044204Y610000D01*
X1045796D01*
X1047266Y610609D01*
X1048391Y611734D01*
X1049000Y613204D01*
Y614796D01*
X1048391Y616266D01*
X1047266Y617391D01*
X1045796Y618000D01*
D02*
G37*
G36*
X1155496Y617950D02*
X1153904D01*
X1152434Y617341D01*
X1151309Y616216D01*
X1150700Y614746D01*
Y613154D01*
X1151309Y611684D01*
X1152434Y610559D01*
X1153904Y609950D01*
X1155496D01*
X1156966Y610559D01*
X1158091Y611684D01*
X1158700Y613154D01*
Y614746D01*
X1158091Y616216D01*
X1156966Y617341D01*
X1155496Y617950D01*
D02*
G37*
G36*
X1125796Y612000D02*
X1124204D01*
X1122734Y611391D01*
X1121609Y610266D01*
X1121000Y608796D01*
Y607204D01*
X1121609Y605734D01*
X1122734Y604609D01*
X1124204Y604000D01*
X1125796D01*
X1127266Y604609D01*
X1128391Y605734D01*
X1129000Y607204D01*
Y608796D01*
X1128391Y610266D01*
X1127266Y611391D01*
X1125796Y612000D01*
D02*
G37*
G36*
X1222082Y624450D02*
X1219318D01*
X1216647Y623734D01*
X1214253Y622352D01*
X1212298Y620397D01*
X1210916Y618003D01*
X1210200Y615332D01*
Y612568D01*
X1210916Y609897D01*
X1212298Y607503D01*
X1214253Y605548D01*
X1216647Y604166D01*
X1219318Y603450D01*
X1222082D01*
X1224753Y604166D01*
X1227147Y605548D01*
X1229102Y607503D01*
X1230484Y609897D01*
X1231200Y612568D01*
Y615332D01*
X1230484Y618003D01*
X1229102Y620397D01*
X1227147Y622352D01*
X1224753Y623734D01*
X1222082Y624450D01*
D02*
G37*
G36*
X1196682D02*
X1193918D01*
X1191247Y623734D01*
X1188853Y622352D01*
X1186898Y620397D01*
X1185516Y618003D01*
X1184800Y615332D01*
Y612568D01*
X1185516Y609897D01*
X1186898Y607503D01*
X1188853Y605548D01*
X1191247Y604166D01*
X1193918Y603450D01*
X1196682D01*
X1199353Y604166D01*
X1201747Y605548D01*
X1203702Y607503D01*
X1205084Y609897D01*
X1205800Y612568D01*
Y615332D01*
X1205084Y618003D01*
X1203702Y620397D01*
X1201747Y622352D01*
X1199353Y623734D01*
X1196682Y624450D01*
D02*
G37*
G36*
X1026245Y609250D02*
X1024255D01*
X1022418Y608489D01*
X1021011Y607082D01*
X1020250Y605245D01*
Y603255D01*
X1021011Y601418D01*
X1022418Y600011D01*
X1024255Y599250D01*
X1026245D01*
X1028082Y600011D01*
X1029489Y601418D01*
X1030250Y603255D01*
Y605245D01*
X1029489Y607082D01*
X1028082Y608489D01*
X1026245Y609250D01*
D02*
G37*
G36*
X946840Y668980D02*
X933300D01*
X919760D01*
Y668467D01*
X920683Y665024D01*
X922465Y661936D01*
X924986Y659415D01*
X928047Y657648D01*
X928087Y657540D01*
X928135Y656302D01*
X925625Y654853D01*
X923298Y652525D01*
X921652Y649675D01*
X920800Y646496D01*
Y643204D01*
X921652Y640025D01*
X923298Y637175D01*
X925625Y634847D01*
X928475Y633202D01*
X929947Y632807D01*
Y631493D01*
X928475Y631098D01*
X925625Y629453D01*
X923298Y627125D01*
X921652Y624275D01*
X920800Y621096D01*
Y617804D01*
X921652Y614625D01*
X923298Y611775D01*
X925625Y609448D01*
X928475Y607802D01*
X929947Y607407D01*
Y606093D01*
X928475Y605698D01*
X925625Y604053D01*
X923298Y601725D01*
X921652Y598875D01*
X920800Y595696D01*
Y592404D01*
X921652Y589225D01*
X923298Y586375D01*
X925625Y584048D01*
X928475Y582402D01*
X931654Y581550D01*
X934946D01*
X938125Y582402D01*
X940975Y584048D01*
X943303Y586375D01*
X944948Y589225D01*
X945800Y592404D01*
Y595696D01*
X944948Y598875D01*
X943303Y601725D01*
X940975Y604053D01*
X938125Y605698D01*
X936653Y606093D01*
Y607407D01*
X938125Y607802D01*
X940975Y609448D01*
X943303Y611775D01*
X944948Y614625D01*
X945800Y617804D01*
Y621096D01*
X944948Y624275D01*
X943303Y627125D01*
X940975Y629453D01*
X938125Y631098D01*
X936653Y631493D01*
Y632807D01*
X938125Y633202D01*
X940975Y634847D01*
X943303Y637175D01*
X944948Y640025D01*
X945800Y643204D01*
Y646496D01*
X944948Y649675D01*
X943303Y652525D01*
X940975Y654853D01*
X938465Y656302D01*
X938513Y657540D01*
X938553Y657648D01*
X941614Y659415D01*
X944135Y661936D01*
X945917Y665024D01*
X946840Y668467D01*
Y668980D01*
D02*
G37*
G36*
X896040D02*
X882500D01*
X868960D01*
Y668467D01*
X869883Y665024D01*
X871665Y661936D01*
X874186Y659415D01*
X877247Y657648D01*
X877287Y657540D01*
X877335Y656302D01*
X874825Y654853D01*
X872497Y652525D01*
X870852Y649675D01*
X870000Y646496D01*
Y643204D01*
X870852Y640025D01*
X872497Y637175D01*
X874825Y634847D01*
X877675Y633202D01*
X879147Y632807D01*
Y631493D01*
X877675Y631098D01*
X874825Y629453D01*
X872497Y627125D01*
X870852Y624275D01*
X870000Y621096D01*
Y617804D01*
X870852Y614625D01*
X872497Y611775D01*
X874825Y609448D01*
X877675Y607802D01*
X879147Y607407D01*
Y606093D01*
X877675Y605698D01*
X874825Y604053D01*
X872497Y601725D01*
X870852Y598875D01*
X870000Y595696D01*
Y592404D01*
X870852Y589225D01*
X872497Y586375D01*
X874825Y584048D01*
X877675Y582402D01*
X880854Y581550D01*
X884146D01*
X887325Y582402D01*
X890175Y584048D01*
X892503Y586375D01*
X894148Y589225D01*
X895000Y592404D01*
Y595696D01*
X894148Y598875D01*
X892503Y601725D01*
X890175Y604053D01*
X887325Y605698D01*
X885853Y606093D01*
Y607407D01*
X887325Y607802D01*
X890175Y609448D01*
X892503Y611775D01*
X894148Y614625D01*
X895000Y617804D01*
Y621096D01*
X894148Y624275D01*
X892503Y627125D01*
X890175Y629453D01*
X887325Y631098D01*
X885853Y631493D01*
Y632807D01*
X887325Y633202D01*
X890175Y634847D01*
X892503Y637175D01*
X894148Y640025D01*
X895000Y643204D01*
Y646496D01*
X894148Y649675D01*
X892503Y652525D01*
X890175Y654853D01*
X887665Y656302D01*
X887713Y657540D01*
X887753Y657648D01*
X890814Y659415D01*
X893335Y661936D01*
X895117Y665024D01*
X896040Y668467D01*
Y668980D01*
D02*
G37*
G36*
X1222082Y599050D02*
X1219318D01*
X1216647Y598334D01*
X1214253Y596952D01*
X1212298Y594997D01*
X1210916Y592603D01*
X1210200Y589932D01*
Y587168D01*
X1210916Y584497D01*
X1212298Y582103D01*
X1214253Y580148D01*
X1216647Y578766D01*
X1219318Y578050D01*
X1222082D01*
X1224753Y578766D01*
X1227147Y580148D01*
X1229102Y582103D01*
X1230484Y584497D01*
X1231200Y587168D01*
Y589932D01*
X1230484Y592603D01*
X1229102Y594997D01*
X1227147Y596952D01*
X1224753Y598334D01*
X1222082Y599050D01*
D02*
G37*
G36*
X1196682D02*
X1193918D01*
X1191247Y598334D01*
X1188853Y596952D01*
X1186898Y594997D01*
X1185516Y592603D01*
X1184800Y589932D01*
Y587168D01*
X1185516Y584497D01*
X1186898Y582103D01*
X1188853Y580148D01*
X1191247Y578766D01*
X1193918Y578050D01*
X1196682D01*
X1199353Y578766D01*
X1201747Y580148D01*
X1203702Y582103D01*
X1205084Y584497D01*
X1205800Y587168D01*
Y589932D01*
X1205084Y592603D01*
X1203702Y594997D01*
X1201747Y596952D01*
X1199353Y598334D01*
X1196682Y599050D01*
D02*
G37*
G36*
X1075546Y578750D02*
X1073954D01*
X1072484Y578141D01*
X1071359Y577016D01*
X1070750Y575546D01*
Y573954D01*
X1071359Y572484D01*
X1072484Y571359D01*
X1073954Y570750D01*
X1075546D01*
X1077016Y571359D01*
X1078141Y572484D01*
X1078750Y573954D01*
Y575546D01*
X1078141Y577016D01*
X1077016Y578141D01*
X1075546Y578750D01*
D02*
G37*
G36*
X1122995Y578000D02*
X1121005D01*
X1119168Y577239D01*
X1117761Y575832D01*
X1117000Y573995D01*
Y572005D01*
X1117761Y570168D01*
X1119168Y568761D01*
X1121005Y568000D01*
X1122995D01*
X1124832Y568761D01*
X1126239Y570168D01*
X1127000Y572005D01*
Y573995D01*
X1126239Y575832D01*
X1124832Y577239D01*
X1122995Y578000D01*
D02*
G37*
G36*
X717245Y573500D02*
X715255D01*
X713418Y572739D01*
X712011Y571332D01*
X711250Y569495D01*
Y567505D01*
X712011Y565668D01*
X713418Y564261D01*
X715255Y563500D01*
X717245D01*
X719082Y564261D01*
X720489Y565668D01*
X721250Y567505D01*
Y569495D01*
X720489Y571332D01*
X719082Y572739D01*
X717245Y573500D01*
D02*
G37*
G36*
X1177745Y580750D02*
X1175755D01*
X1173918Y579989D01*
X1172511Y578582D01*
X1171750Y576745D01*
Y574755D01*
X1172511Y572918D01*
X1173918Y571511D01*
X1174581Y571236D01*
X1174761Y570332D01*
X1174000Y568495D01*
Y566505D01*
X1174761Y564668D01*
X1176168Y563261D01*
X1178005Y562500D01*
X1179995D01*
X1181832Y563261D01*
X1183239Y564668D01*
X1184000Y566505D01*
Y568495D01*
X1183239Y570332D01*
X1181832Y571739D01*
X1181169Y572014D01*
X1180989Y572918D01*
X1181750Y574755D01*
Y576745D01*
X1180989Y578582D01*
X1179582Y579989D01*
X1177745Y580750D01*
D02*
G37*
G36*
X1072995Y568000D02*
X1071005D01*
X1069168Y567239D01*
X1067761Y565832D01*
X1067000Y563995D01*
Y562005D01*
X1067761Y560168D01*
X1069168Y558761D01*
X1071005Y558000D01*
X1072995D01*
X1074832Y558761D01*
X1076239Y560168D01*
X1077000Y562005D01*
Y563995D01*
X1076239Y565832D01*
X1074832Y567239D01*
X1072995Y568000D01*
D02*
G37*
G36*
X1122995Y564000D02*
X1121005D01*
X1119168Y563239D01*
X1117761Y561832D01*
X1117000Y559995D01*
Y558005D01*
X1117761Y556168D01*
X1119168Y554761D01*
X1121005Y554000D01*
X1122995D01*
X1124832Y554761D01*
X1126239Y556168D01*
X1127000Y558005D01*
Y559995D01*
X1126239Y561832D01*
X1124832Y563239D01*
X1122995Y564000D01*
D02*
G37*
G36*
X1222082Y573650D02*
X1219318D01*
X1216647Y572934D01*
X1214253Y571552D01*
X1212298Y569597D01*
X1210916Y567203D01*
X1210200Y564532D01*
Y561768D01*
X1210916Y559097D01*
X1212298Y556703D01*
X1214253Y554748D01*
X1216647Y553366D01*
X1219318Y552650D01*
X1222082D01*
X1224753Y553366D01*
X1227147Y554748D01*
X1229102Y556703D01*
X1230484Y559097D01*
X1231200Y561768D01*
Y564532D01*
X1230484Y567203D01*
X1229102Y569597D01*
X1227147Y571552D01*
X1224753Y572934D01*
X1222082Y573650D01*
D02*
G37*
G36*
X1196682D02*
X1193918D01*
X1191247Y572934D01*
X1188853Y571552D01*
X1186898Y569597D01*
X1185516Y567203D01*
X1184800Y564532D01*
Y561768D01*
X1185516Y559097D01*
X1186898Y556703D01*
X1188853Y554748D01*
X1191247Y553366D01*
X1193918Y552650D01*
X1196682D01*
X1199353Y553366D01*
X1201747Y554748D01*
X1203702Y556703D01*
X1205084Y559097D01*
X1205800Y561768D01*
Y564532D01*
X1205084Y567203D01*
X1203702Y569597D01*
X1201747Y571552D01*
X1199353Y572934D01*
X1196682Y573650D01*
D02*
G37*
G36*
X1065796Y557250D02*
X1064204D01*
X1062734Y556641D01*
X1061609Y555516D01*
X1061000Y554046D01*
Y552454D01*
X1061609Y550984D01*
X1062734Y549859D01*
X1064204Y549250D01*
X1065796D01*
X1067266Y549859D01*
X1068391Y550984D01*
X1069000Y552454D01*
Y554046D01*
X1068391Y555516D01*
X1067266Y556641D01*
X1065796Y557250D01*
D02*
G37*
G36*
X1055796Y556250D02*
X1054204D01*
X1052734Y555641D01*
X1051609Y554516D01*
X1051000Y553046D01*
Y551454D01*
X1051609Y549984D01*
X1052734Y548859D01*
X1054204Y548250D01*
X1055796D01*
X1057266Y548859D01*
X1058391Y549984D01*
X1059000Y551454D01*
Y553046D01*
X1058391Y554516D01*
X1057266Y555641D01*
X1055796Y556250D01*
D02*
G37*
G36*
X717245Y556250D02*
X715255D01*
X713418Y555489D01*
X712011Y554082D01*
X711250Y552245D01*
Y550255D01*
X712011Y548418D01*
X713418Y547011D01*
X715255Y546250D01*
X717245D01*
X719082Y547011D01*
X720489Y548418D01*
X721250Y550255D01*
Y552245D01*
X720489Y554082D01*
X719082Y555489D01*
X717245Y556250D01*
D02*
G37*
G36*
X1078546Y547000D02*
X1076954D01*
X1075484Y546391D01*
X1074359Y545266D01*
X1073750Y543796D01*
Y542204D01*
X1074359Y540734D01*
X1075484Y539609D01*
X1076954Y539000D01*
X1078546D01*
X1080016Y539609D01*
X1081141Y540734D01*
X1081750Y542204D01*
Y543796D01*
X1081141Y545266D01*
X1080016Y546391D01*
X1078546Y547000D01*
D02*
G37*
G36*
X1140046Y542500D02*
X1138454D01*
X1136984Y541891D01*
X1135859Y540766D01*
X1135250Y539296D01*
Y537704D01*
X1135859Y536234D01*
X1136984Y535109D01*
X1138454Y534500D01*
X1140046D01*
X1141516Y535109D01*
X1142641Y536234D01*
X1143250Y537704D01*
Y539296D01*
X1142641Y540766D01*
X1141516Y541891D01*
X1140046Y542500D01*
D02*
G37*
G36*
X1053995Y539000D02*
X1052005D01*
X1050168Y538239D01*
X1048761Y536832D01*
X1048000Y534995D01*
Y533005D01*
X1048761Y531168D01*
X1050168Y529761D01*
X1052005Y529000D01*
X1053995D01*
X1055832Y529761D01*
X1057239Y531168D01*
X1058000Y533005D01*
Y534995D01*
X1057239Y536832D01*
X1055832Y538239D01*
X1053995Y539000D01*
D02*
G37*
G36*
X717245Y537750D02*
X715255D01*
X713418Y536989D01*
X712011Y535582D01*
X711250Y533745D01*
Y531755D01*
X712011Y529918D01*
X713418Y528511D01*
X715255Y527750D01*
X717245D01*
X719082Y528511D01*
X720489Y529918D01*
X721250Y531755D01*
Y533745D01*
X720489Y535582D01*
X719082Y536989D01*
X717245Y537750D01*
D02*
G37*
G36*
X1038995Y533000D02*
X1037005D01*
X1035168Y532239D01*
X1033761Y530832D01*
X1033000Y528995D01*
Y527005D01*
X1033761Y525168D01*
X1035168Y523761D01*
X1037005Y523000D01*
X1038995D01*
X1040832Y523761D01*
X1042239Y525168D01*
X1043000Y527005D01*
Y528995D01*
X1042239Y530832D01*
X1040832Y532239D01*
X1038995Y533000D01*
D02*
G37*
G36*
X901495Y529500D02*
X899505D01*
X897668Y528739D01*
X896261Y527332D01*
X895500Y525495D01*
Y523505D01*
X896261Y521668D01*
X897668Y520261D01*
X899505Y519500D01*
X901495D01*
X903332Y520261D01*
X904739Y521668D01*
X905500Y523505D01*
Y525495D01*
X904739Y527332D01*
X903332Y528739D01*
X901495Y529500D01*
D02*
G37*
G36*
X1059995Y524000D02*
X1058005D01*
X1056168Y523239D01*
X1054761Y521832D01*
X1054000Y519995D01*
Y518005D01*
X1054761Y516168D01*
X1056168Y514761D01*
X1058005Y514000D01*
X1059995D01*
X1061832Y514761D01*
X1063239Y516168D01*
X1064000Y518005D01*
Y519995D01*
X1063239Y521832D01*
X1061832Y523239D01*
X1059995Y524000D01*
D02*
G37*
G36*
X1041995Y522000D02*
X1040005D01*
X1038168Y521239D01*
X1036761Y519832D01*
X1036000Y517995D01*
Y516005D01*
X1036761Y514168D01*
X1038168Y512761D01*
X1040005Y512000D01*
X1041995D01*
X1043832Y512761D01*
X1045239Y514168D01*
X1046000Y516005D01*
Y517995D01*
X1045239Y519832D01*
X1043832Y521239D01*
X1041995Y522000D01*
D02*
G37*
G36*
X1288495Y515250D02*
X1286505D01*
X1284668Y514489D01*
X1283261Y513082D01*
X1282500Y511245D01*
Y509255D01*
X1283261Y507418D01*
X1284668Y506011D01*
X1286505Y505250D01*
X1288495D01*
X1290332Y506011D01*
X1291739Y507418D01*
X1292500Y509255D01*
Y511245D01*
X1291739Y513082D01*
X1290332Y514489D01*
X1288495Y515250D01*
D02*
G37*
G36*
X901745Y513750D02*
X899755D01*
X897918Y512989D01*
X896511Y511582D01*
X895750Y509745D01*
Y507755D01*
X896511Y505918D01*
X897918Y504511D01*
X899755Y503750D01*
X901745D01*
X903582Y504511D01*
X904989Y505918D01*
X905750Y507755D01*
Y509745D01*
X904989Y511582D01*
X903582Y512989D01*
X901745Y513750D01*
D02*
G37*
G36*
X983546Y511500D02*
X981954D01*
X980484Y510891D01*
X979359Y509766D01*
X978750Y508296D01*
Y506704D01*
X979359Y505234D01*
X980484Y504109D01*
X981954Y503500D01*
X983546D01*
X985016Y504109D01*
X986141Y505234D01*
X986750Y506704D01*
Y508296D01*
X986141Y509766D01*
X985016Y510891D01*
X983546Y511500D01*
D02*
G37*
G36*
X1522495Y508000D02*
X1520505D01*
X1518668Y507239D01*
X1517261Y505832D01*
X1516500Y503995D01*
Y502005D01*
X1517261Y500168D01*
X1518668Y498761D01*
X1520505Y498000D01*
X1522495D01*
X1524332Y498761D01*
X1525739Y500168D01*
X1526500Y502005D01*
Y503995D01*
X1525739Y505832D01*
X1524332Y507239D01*
X1522495Y508000D01*
D02*
G37*
G36*
X1447995Y507750D02*
X1446005D01*
X1444168Y506989D01*
X1442761Y505582D01*
X1442000Y503745D01*
Y501755D01*
X1442761Y499918D01*
X1444168Y498511D01*
X1446005Y497750D01*
X1447995D01*
X1449832Y498511D01*
X1451239Y499918D01*
X1452000Y501755D01*
Y503745D01*
X1451239Y505582D01*
X1449832Y506989D01*
X1447995Y507750D01*
D02*
G37*
G36*
X1039995Y504000D02*
X1038005D01*
X1036168Y503239D01*
X1034761Y501832D01*
X1034000Y499995D01*
Y498005D01*
X1034761Y496168D01*
X1036168Y494761D01*
X1038005Y494000D01*
X1039995D01*
X1041832Y494761D01*
X1043239Y496168D01*
X1044000Y498005D01*
Y499995D01*
X1043239Y501832D01*
X1041832Y503239D01*
X1039995Y504000D01*
D02*
G37*
G36*
X1287245Y503250D02*
X1285255D01*
X1283418Y502489D01*
X1282011Y501082D01*
X1281250Y499245D01*
Y497255D01*
X1282011Y495418D01*
X1283418Y494011D01*
X1285255Y493250D01*
X1287245D01*
X1289082Y494011D01*
X1290489Y495418D01*
X1291250Y497255D01*
Y499245D01*
X1290489Y501082D01*
X1289082Y502489D01*
X1287245Y503250D01*
D02*
G37*
G36*
X631382Y508500D02*
X628618D01*
X625947Y507784D01*
X623553Y506402D01*
X621598Y504447D01*
X620216Y502053D01*
X619500Y499382D01*
Y496618D01*
X620216Y493947D01*
X621598Y491553D01*
X623553Y489598D01*
X625947Y488216D01*
X628618Y487500D01*
X631382D01*
X634053Y488216D01*
X636447Y489598D01*
X638402Y491553D01*
X639784Y493947D01*
X640500Y496618D01*
Y499382D01*
X639784Y502053D01*
X638402Y504447D01*
X636447Y506402D01*
X634053Y507784D01*
X631382Y508500D01*
D02*
G37*
G36*
X1045995Y492000D02*
X1044005D01*
X1042168Y491239D01*
X1040761Y489832D01*
X1040000Y487995D01*
Y486005D01*
X1040137Y485676D01*
X1039790Y485272D01*
X1039112Y484830D01*
X1037495Y485500D01*
X1035505D01*
X1033668Y484739D01*
X1032261Y483332D01*
X1031500Y481495D01*
Y479505D01*
X1032261Y477668D01*
X1033668Y476261D01*
X1035505Y475500D01*
X1037495D01*
X1039332Y476261D01*
X1040739Y477668D01*
X1041500Y479505D01*
Y481495D01*
X1041363Y481824D01*
X1041710Y482228D01*
X1042388Y482670D01*
X1044005Y482000D01*
X1045995D01*
X1047832Y482761D01*
X1049239Y484168D01*
X1050000Y486005D01*
Y487995D01*
X1049239Y489832D01*
X1047832Y491239D01*
X1045995Y492000D01*
D02*
G37*
G36*
X1123995D02*
X1122005D01*
X1120168Y491239D01*
X1118761Y489832D01*
X1118000Y487995D01*
Y486005D01*
X1118761Y484168D01*
X1120168Y482761D01*
X1122005Y482000D01*
X1123995D01*
X1125832Y482761D01*
X1127239Y484168D01*
X1128000Y486005D01*
Y487995D01*
X1127239Y489832D01*
X1125832Y491239D01*
X1123995Y492000D01*
D02*
G37*
G36*
X1192046Y489500D02*
X1190454D01*
X1188984Y488891D01*
X1187859Y487766D01*
X1187250Y486296D01*
Y484704D01*
X1187859Y483234D01*
X1188984Y482109D01*
X1190454Y481500D01*
X1192046D01*
X1193516Y482109D01*
X1194641Y483234D01*
X1195250Y484704D01*
Y486296D01*
X1194641Y487766D01*
X1193516Y488891D01*
X1192046Y489500D01*
D02*
G37*
G36*
X953995Y486250D02*
X952005D01*
X950168Y485489D01*
X948761Y484082D01*
X948000Y482245D01*
Y480255D01*
X948761Y478418D01*
X950168Y477011D01*
X952005Y476250D01*
X953995D01*
X955832Y477011D01*
X957239Y478418D01*
X958000Y480255D01*
Y482245D01*
X957239Y484082D01*
X955832Y485489D01*
X953995Y486250D01*
D02*
G37*
G36*
X1211796Y482000D02*
X1210204D01*
X1208734Y481391D01*
X1207609Y480266D01*
X1207000Y478796D01*
Y477204D01*
X1207609Y475734D01*
X1208734Y474609D01*
X1210204Y474000D01*
X1211796D01*
X1213266Y474609D01*
X1214391Y475734D01*
X1215000Y477204D01*
Y478796D01*
X1214391Y480266D01*
X1213266Y481391D01*
X1211796Y482000D01*
D02*
G37*
G36*
X1053995Y473000D02*
X1052005D01*
X1050168Y472239D01*
X1048761Y470832D01*
X1048000Y468995D01*
Y467005D01*
X1048761Y465168D01*
X1050168Y463761D01*
X1052005Y463000D01*
X1053995D01*
X1055832Y463761D01*
X1057239Y465168D01*
X1058000Y467005D01*
Y468995D01*
X1057239Y470832D01*
X1055832Y472239D01*
X1053995Y473000D01*
D02*
G37*
G36*
X1250546Y466500D02*
X1248954D01*
X1247484Y465891D01*
X1246359Y464766D01*
X1245750Y463296D01*
Y461704D01*
X1246359Y460234D01*
X1247484Y459109D01*
X1248954Y458500D01*
X1250546D01*
X1252016Y459109D01*
X1253141Y460234D01*
X1253750Y461704D01*
Y463296D01*
X1253141Y464766D01*
X1252016Y465891D01*
X1250546Y466500D01*
D02*
G37*
G36*
X1276546Y466500D02*
X1274954D01*
X1273484Y465891D01*
X1272359Y464766D01*
X1271750Y463296D01*
Y461704D01*
X1272359Y460234D01*
X1273484Y459109D01*
X1274954Y458500D01*
X1276546D01*
X1278016Y459109D01*
X1279141Y460234D01*
X1279750Y461704D01*
Y463296D01*
X1279141Y464766D01*
X1278016Y465891D01*
X1276546Y466500D01*
D02*
G37*
G36*
X808293Y463443D02*
X806702D01*
X805231Y462834D01*
X804106Y461709D01*
X803497Y460239D01*
Y458648D01*
X804106Y457178D01*
X805231Y456052D01*
X806702Y455443D01*
X808293D01*
X809763Y456052D01*
X810888Y457178D01*
X811497Y458648D01*
Y460239D01*
X810888Y461709D01*
X809763Y462834D01*
X808293Y463443D01*
D02*
G37*
G36*
X832046Y475250D02*
X830454D01*
X828984Y474641D01*
X827859Y473516D01*
X827250Y472046D01*
Y470454D01*
X827859Y468984D01*
X828984Y467859D01*
X829466Y467660D01*
Y466285D01*
X828981Y466084D01*
X827856Y464959D01*
X827247Y463489D01*
Y461898D01*
X827856Y460428D01*
X828981Y459302D01*
X829631Y459033D01*
Y457659D01*
X828984Y457391D01*
X827859Y456266D01*
X827250Y454796D01*
Y453204D01*
X827859Y451734D01*
X828984Y450609D01*
X830454Y450000D01*
X832046D01*
X833516Y450609D01*
X834641Y451734D01*
X835250Y453204D01*
Y454796D01*
X834641Y456266D01*
X833516Y457391D01*
X832867Y457660D01*
Y459035D01*
X833513Y459302D01*
X834638Y460428D01*
X835247Y461898D01*
Y463489D01*
X834638Y464959D01*
X833513Y466084D01*
X833032Y466284D01*
Y467658D01*
X833516Y467859D01*
X834641Y468984D01*
X835250Y470454D01*
Y472046D01*
X834641Y473516D01*
X833516Y474641D01*
X832046Y475250D01*
D02*
G37*
G36*
X856043Y469693D02*
X854452D01*
X852981Y469084D01*
X851856Y467959D01*
X851247Y466489D01*
Y464898D01*
X851260Y464867D01*
X850599Y463340D01*
X849981Y463084D01*
X848856Y461959D01*
X848247Y460489D01*
Y458898D01*
X848856Y457427D01*
X849981Y456302D01*
X850018Y456120D01*
X849106Y455209D01*
X848497Y453739D01*
Y452148D01*
X849106Y450677D01*
X850231Y449552D01*
X851702Y448943D01*
X853293D01*
X854763Y449552D01*
X855888Y450677D01*
X856497Y452148D01*
Y453739D01*
X855888Y455209D01*
X854763Y456334D01*
X854727Y456516D01*
X855638Y457427D01*
X856247Y458898D01*
Y460489D01*
X856234Y460520D01*
X856895Y462046D01*
X857513Y462302D01*
X858638Y463428D01*
X859247Y464898D01*
Y466489D01*
X858638Y467959D01*
X857513Y469084D01*
X856043Y469693D01*
D02*
G37*
G36*
X1135796Y456250D02*
X1134204D01*
X1132734Y455641D01*
X1131609Y454516D01*
X1131000Y453046D01*
Y451454D01*
X1131609Y449984D01*
X1132734Y448859D01*
X1134204Y448250D01*
X1135796D01*
X1137266Y448859D01*
X1138391Y449984D01*
X1139000Y451454D01*
Y453046D01*
X1138391Y454516D01*
X1137266Y455641D01*
X1135796Y456250D01*
D02*
G37*
G36*
X1484745Y456750D02*
X1482755D01*
X1480918Y455989D01*
X1479511Y454582D01*
X1478750Y452745D01*
Y450755D01*
X1479511Y448918D01*
X1480918Y447511D01*
X1482755Y446750D01*
X1484745D01*
X1486582Y447511D01*
X1487989Y448918D01*
X1488750Y450755D01*
Y452745D01*
X1487989Y454582D01*
X1486582Y455989D01*
X1484745Y456750D01*
D02*
G37*
G36*
X1025995Y456500D02*
X1024005D01*
X1022168Y455739D01*
X1020761Y454332D01*
X1020000Y452495D01*
Y450505D01*
X1020761Y448668D01*
X1022168Y447261D01*
X1024005Y446500D01*
X1025995D01*
X1027832Y447261D01*
X1029239Y448668D01*
X1030000Y450505D01*
Y452495D01*
X1029239Y454332D01*
X1027832Y455739D01*
X1025995Y456500D01*
D02*
G37*
G36*
X1525745Y453250D02*
X1523755D01*
X1521918Y452489D01*
X1520511Y451082D01*
X1519750Y449245D01*
Y447255D01*
X1520511Y445418D01*
X1521918Y444011D01*
X1523755Y443250D01*
X1525745D01*
X1527582Y444011D01*
X1528989Y445418D01*
X1529750Y447255D01*
Y449245D01*
X1528989Y451082D01*
X1527582Y452489D01*
X1525745Y453250D01*
D02*
G37*
G36*
X824296Y447250D02*
X822704D01*
X821234Y446641D01*
X820109Y445516D01*
X819500Y444046D01*
Y442454D01*
X820109Y440984D01*
X821234Y439859D01*
X822704Y439250D01*
X824296D01*
X825766Y439859D01*
X826891Y440984D01*
X827500Y442454D01*
Y444046D01*
X826891Y445516D01*
X825766Y446641D01*
X824296Y447250D01*
D02*
G37*
G36*
X1012995Y438000D02*
X1011005D01*
X1009168Y437239D01*
X1007761Y435832D01*
X1007000Y433995D01*
Y432005D01*
X1007761Y430168D01*
X1009168Y428761D01*
X1011005Y428000D01*
X1012995D01*
X1014832Y428761D01*
X1016239Y430168D01*
X1017000Y432005D01*
Y433995D01*
X1016239Y435832D01*
X1014832Y437239D01*
X1012995Y438000D01*
D02*
G37*
G36*
X1495995Y428000D02*
X1494005D01*
X1492168Y427239D01*
X1490761Y425832D01*
X1490000Y423995D01*
Y422005D01*
X1490761Y420168D01*
X1492168Y418761D01*
X1494005Y418000D01*
X1495995D01*
X1497832Y418761D01*
X1499239Y420168D01*
X1500000Y422005D01*
Y423995D01*
X1499239Y425832D01*
X1497832Y427239D01*
X1495995Y428000D01*
D02*
G37*
G36*
X1580995Y424500D02*
X1579005D01*
X1577168Y423739D01*
X1575761Y422332D01*
X1575000Y420495D01*
Y418505D01*
X1575761Y416668D01*
X1577168Y415261D01*
X1579005Y414500D01*
X1580995D01*
X1582832Y415261D01*
X1584239Y416668D01*
X1585000Y418505D01*
Y420495D01*
X1584239Y422332D01*
X1582832Y423739D01*
X1580995Y424500D01*
D02*
G37*
G36*
X1076546Y418500D02*
X1074954D01*
X1073484Y417891D01*
X1072359Y416766D01*
X1071750Y415296D01*
Y413704D01*
X1072359Y412234D01*
X1073484Y411109D01*
X1074954Y410500D01*
X1076546D01*
X1078016Y411109D01*
X1079141Y412234D01*
X1079750Y413704D01*
Y415296D01*
X1079141Y416766D01*
X1078016Y417891D01*
X1076546Y418500D01*
D02*
G37*
G36*
X1032046Y417250D02*
X1030454D01*
X1028984Y416641D01*
X1027859Y415516D01*
X1027250Y414046D01*
Y412454D01*
X1027859Y410984D01*
X1028984Y409859D01*
X1030454Y409250D01*
X1032046D01*
X1033516Y409859D01*
X1034641Y410984D01*
X1035250Y412454D01*
Y414046D01*
X1034641Y415516D01*
X1033516Y416641D01*
X1032046Y417250D01*
D02*
G37*
G36*
X1041046Y419750D02*
X1039454D01*
X1037984Y419141D01*
X1036859Y418016D01*
X1036250Y416546D01*
Y414954D01*
X1036859Y413484D01*
X1037984Y412359D01*
X1039454Y411750D01*
X1041046D01*
X1041480Y411930D01*
X1042750Y411081D01*
Y410454D01*
X1043359Y408984D01*
X1044484Y407859D01*
X1045954Y407250D01*
X1047546D01*
X1049016Y407859D01*
X1050141Y408984D01*
X1050750Y410454D01*
Y412046D01*
X1050141Y413516D01*
X1049016Y414641D01*
X1047546Y415250D01*
X1045954D01*
X1045520Y415070D01*
X1044250Y415919D01*
Y416546D01*
X1043641Y418016D01*
X1042516Y419141D01*
X1041046Y419750D01*
D02*
G37*
G36*
X1498745Y416500D02*
X1496755D01*
X1494918Y415739D01*
X1493511Y414332D01*
X1492750Y412495D01*
Y410505D01*
X1493511Y408668D01*
X1494918Y407261D01*
X1496755Y406500D01*
X1498745D01*
X1500582Y407261D01*
X1501989Y408668D01*
X1502750Y410505D01*
Y412495D01*
X1501989Y414332D01*
X1500582Y415739D01*
X1498745Y416500D01*
D02*
G37*
G36*
X1056296Y410250D02*
X1054704D01*
X1053234Y409641D01*
X1052109Y408516D01*
X1051500Y407046D01*
Y405454D01*
X1052109Y403984D01*
X1053234Y402859D01*
X1054704Y402250D01*
X1056296D01*
X1057766Y402859D01*
X1058891Y403984D01*
X1059500Y405454D01*
Y407046D01*
X1058891Y408516D01*
X1057766Y409641D01*
X1056296Y410250D01*
D02*
G37*
G36*
X1045840Y388581D02*
X1044249D01*
X1042779Y387972D01*
X1041653Y386847D01*
X1041044Y385376D01*
Y383785D01*
X1041653Y382315D01*
X1042779Y381190D01*
X1044249Y380581D01*
X1045840D01*
X1047310Y381190D01*
X1048435Y382315D01*
X1049044Y383785D01*
Y385376D01*
X1048435Y386847D01*
X1047310Y387972D01*
X1045840Y388581D01*
D02*
G37*
G36*
X1031796Y387750D02*
X1030204D01*
X1028734Y387141D01*
X1027609Y386016D01*
X1027000Y384546D01*
Y382954D01*
X1027609Y381484D01*
X1028734Y380359D01*
X1030204Y379750D01*
X1031796D01*
X1033266Y380359D01*
X1034391Y381484D01*
X1035000Y382954D01*
Y384546D01*
X1034391Y386016D01*
X1033266Y387141D01*
X1031796Y387750D01*
D02*
G37*
G36*
X1020296Y383750D02*
X1018704D01*
X1017234Y383141D01*
X1016109Y382016D01*
X1015500Y380546D01*
Y378954D01*
X1016109Y377484D01*
X1017234Y376359D01*
X1018704Y375750D01*
X1020296D01*
X1021766Y376359D01*
X1022891Y377484D01*
X1023500Y378954D01*
Y380546D01*
X1022891Y382016D01*
X1021766Y383141D01*
X1020296Y383750D01*
D02*
G37*
G36*
X1452245Y379750D02*
X1450255D01*
X1448418Y378989D01*
X1447011Y377582D01*
X1446250Y375745D01*
Y373755D01*
X1447011Y371918D01*
X1448418Y370511D01*
X1450255Y369750D01*
X1452245D01*
X1454082Y370511D01*
X1455489Y371918D01*
X1456250Y373755D01*
Y375745D01*
X1455489Y377582D01*
X1454082Y378989D01*
X1452245Y379750D01*
D02*
G37*
G36*
X943495Y378250D02*
X941505D01*
X939668Y377489D01*
X938261Y376082D01*
X937500Y374245D01*
Y372255D01*
X938261Y370418D01*
X939668Y369011D01*
X941505Y368250D01*
X943495D01*
X945332Y369011D01*
X946739Y370418D01*
X947500Y372255D01*
Y374245D01*
X946739Y376082D01*
X945332Y377489D01*
X943495Y378250D01*
D02*
G37*
G36*
X1451745Y359500D02*
X1449755D01*
X1447918Y358739D01*
X1446511Y357332D01*
X1445750Y355495D01*
Y353505D01*
X1446511Y351668D01*
X1447918Y350261D01*
X1449755Y349500D01*
X1451745D01*
X1453582Y350261D01*
X1454989Y351668D01*
X1455750Y353505D01*
Y355495D01*
X1454989Y357332D01*
X1453582Y358739D01*
X1451745Y359500D01*
D02*
G37*
G36*
X1223245Y348000D02*
X1221255D01*
X1219418Y347239D01*
X1218011Y345832D01*
X1217250Y343995D01*
Y342005D01*
X1218011Y340168D01*
X1219418Y338761D01*
X1221255Y338000D01*
X1223245D01*
X1225082Y338761D01*
X1226489Y340168D01*
X1227250Y342005D01*
Y343995D01*
X1226489Y345832D01*
X1225082Y347239D01*
X1223245Y348000D01*
D02*
G37*
G36*
X1185245D02*
X1183255D01*
X1181418Y347239D01*
X1180011Y345832D01*
X1179250Y343995D01*
Y342005D01*
X1180011Y340168D01*
X1181418Y338761D01*
X1183255Y338000D01*
X1185245D01*
X1187082Y338761D01*
X1188489Y340168D01*
X1189250Y342005D01*
Y343995D01*
X1188489Y345832D01*
X1187082Y347239D01*
X1185245Y348000D01*
D02*
G37*
G36*
X1630995Y338500D02*
X1629005D01*
X1627168Y337739D01*
X1625761Y336332D01*
X1625000Y334495D01*
Y332505D01*
X1625761Y330668D01*
X1627168Y329261D01*
X1629005Y328500D01*
X1630995D01*
X1632832Y329261D01*
X1634239Y330668D01*
X1635000Y332505D01*
Y334495D01*
X1634239Y336332D01*
X1632832Y337739D01*
X1630995Y338500D01*
D02*
G37*
G36*
X1540245Y328250D02*
X1538255D01*
X1536418Y327489D01*
X1535011Y326082D01*
X1534250Y324245D01*
Y322255D01*
X1535011Y320418D01*
X1536418Y319011D01*
X1538255Y318250D01*
X1540245D01*
X1542082Y319011D01*
X1543489Y320418D01*
X1544250Y322255D01*
Y324245D01*
X1543489Y326082D01*
X1542082Y327489D01*
X1540245Y328250D01*
D02*
G37*
G36*
X1502245Y309250D02*
X1500255D01*
X1498418Y308489D01*
X1497011Y307082D01*
X1496250Y305245D01*
Y303255D01*
X1497011Y301418D01*
X1498418Y300011D01*
X1500255Y299250D01*
X1502245D01*
X1504082Y300011D01*
X1505489Y301418D01*
X1506250Y303255D01*
Y305245D01*
X1505489Y307082D01*
X1504082Y308489D01*
X1502245Y309250D01*
D02*
G37*
G36*
X1641995Y291000D02*
X1640005D01*
X1638168Y290239D01*
X1636761Y288832D01*
X1636173Y287413D01*
X1634827D01*
X1634239Y288832D01*
X1632832Y290239D01*
X1630995Y291000D01*
X1629005D01*
X1627168Y290239D01*
X1625761Y288832D01*
X1625000Y286995D01*
Y285005D01*
X1625761Y283168D01*
X1627168Y281761D01*
X1629005Y281000D01*
X1630995D01*
X1632832Y281761D01*
X1634239Y283168D01*
X1634827Y284587D01*
X1636173D01*
X1636761Y283168D01*
X1638168Y281761D01*
X1640005Y281000D01*
X1641995D01*
X1643832Y281761D01*
X1645239Y283168D01*
X1646000Y285005D01*
Y286995D01*
X1645239Y288832D01*
X1643832Y290239D01*
X1641995Y291000D01*
D02*
G37*
G36*
X1161796Y282000D02*
X1160204D01*
X1158734Y281391D01*
X1157609Y280266D01*
X1157000Y278796D01*
Y277204D01*
X1157609Y275734D01*
X1158734Y274609D01*
X1160204Y274000D01*
X1161796D01*
X1163266Y274609D01*
X1164391Y275734D01*
X1165000Y277204D01*
Y278796D01*
X1164391Y280266D01*
X1163266Y281391D01*
X1161796Y282000D01*
D02*
G37*
G36*
X1143796Y281000D02*
X1142204D01*
X1140734Y280391D01*
X1139609Y279266D01*
X1139000Y277796D01*
Y276204D01*
X1139609Y274734D01*
X1140734Y273609D01*
X1142204Y273000D01*
X1143796D01*
X1145266Y273609D01*
X1146391Y274734D01*
X1147000Y276204D01*
Y277796D01*
X1146391Y279266D01*
X1145266Y280391D01*
X1143796Y281000D01*
D02*
G37*
G36*
X1122796Y277000D02*
X1121204D01*
X1119734Y276391D01*
X1118609Y275266D01*
X1118000Y273796D01*
Y272204D01*
X1118609Y270734D01*
X1119734Y269609D01*
X1121204Y269000D01*
X1122796D01*
X1124266Y269609D01*
X1125391Y270734D01*
X1126000Y272204D01*
Y273796D01*
X1125391Y275266D01*
X1124266Y276391D01*
X1122796Y277000D01*
D02*
G37*
G36*
X1583995Y274000D02*
X1582005D01*
X1580168Y273239D01*
X1578761Y271832D01*
X1578000Y269995D01*
Y268005D01*
X1578761Y266168D01*
X1580168Y264761D01*
X1582005Y264000D01*
X1583995D01*
X1585832Y264761D01*
X1587239Y266168D01*
X1588000Y268005D01*
Y269995D01*
X1587239Y271832D01*
X1585832Y273239D01*
X1583995Y274000D01*
D02*
G37*
G36*
X1630995Y262000D02*
X1629005D01*
X1627168Y261239D01*
X1625761Y259832D01*
X1625000Y257995D01*
Y256005D01*
X1625761Y254168D01*
X1627168Y252761D01*
X1629005Y252000D01*
X1630995D01*
X1632832Y252761D01*
X1634239Y254168D01*
X1635000Y256005D01*
Y257995D01*
X1634239Y259832D01*
X1632832Y261239D01*
X1630995Y262000D01*
D02*
G37*
G36*
X1608495D02*
X1606505D01*
X1604668Y261239D01*
X1603261Y259832D01*
X1602500Y257995D01*
Y256005D01*
X1603261Y254168D01*
X1604668Y252761D01*
X1606505Y252000D01*
X1608495D01*
X1610332Y252761D01*
X1611739Y254168D01*
X1612500Y256005D01*
Y257995D01*
X1611739Y259832D01*
X1610332Y261239D01*
X1608495Y262000D01*
D02*
G37*
G36*
X1551995Y257000D02*
X1550005D01*
X1548168Y256239D01*
X1546761Y254832D01*
X1546000Y252995D01*
Y251005D01*
X1546761Y249168D01*
X1548168Y247761D01*
X1550005Y247000D01*
X1551995D01*
X1553832Y247761D01*
X1555239Y249168D01*
X1556000Y251005D01*
Y252995D01*
X1555239Y254832D01*
X1553832Y256239D01*
X1551995Y257000D01*
D02*
G37*
G36*
X1612995Y240000D02*
X1611005D01*
X1609168Y239239D01*
X1607761Y237832D01*
X1607000Y235995D01*
Y234006D01*
X1607761Y232168D01*
X1609168Y230761D01*
X1611005Y230000D01*
X1612995D01*
X1614832Y230761D01*
X1616239Y232168D01*
X1617000Y234006D01*
Y235995D01*
X1616239Y237832D01*
X1614832Y239239D01*
X1612995Y240000D01*
D02*
G37*
G36*
X1550995D02*
X1549005D01*
X1547168Y239239D01*
X1545761Y237832D01*
X1545000Y235995D01*
Y234006D01*
X1545761Y232168D01*
X1547168Y230761D01*
X1549005Y230000D01*
X1550995D01*
X1552832Y230761D01*
X1554239Y232168D01*
X1555000Y234006D01*
Y235995D01*
X1554239Y237832D01*
X1552832Y239239D01*
X1550995Y240000D01*
D02*
G37*
G36*
Y224250D02*
X1549005D01*
X1547168Y223489D01*
X1545761Y222082D01*
X1545000Y220245D01*
Y218255D01*
X1545761Y216418D01*
X1547168Y215011D01*
X1549005Y214250D01*
X1550995D01*
X1552832Y215011D01*
X1554239Y216418D01*
X1555000Y218255D01*
Y220245D01*
X1554239Y222082D01*
X1552832Y223489D01*
X1550995Y224250D01*
D02*
G37*
G36*
X1612995Y223000D02*
X1611005D01*
X1609168Y222239D01*
X1607761Y220832D01*
X1607000Y218995D01*
Y217005D01*
X1607761Y215168D01*
X1609168Y213761D01*
X1611005Y213000D01*
X1612995D01*
X1614832Y213761D01*
X1616239Y215168D01*
X1617000Y217005D01*
Y218995D01*
X1616239Y220832D01*
X1614832Y222239D01*
X1612995Y223000D01*
D02*
G37*
G36*
X1257995D02*
X1256005D01*
X1254168Y222239D01*
X1252761Y220832D01*
X1252000Y218995D01*
Y217005D01*
X1252761Y215168D01*
X1254168Y213761D01*
X1256005Y213000D01*
X1257995D01*
X1259832Y213761D01*
X1261239Y215168D01*
X1262000Y217005D01*
Y218995D01*
X1261239Y220832D01*
X1259832Y222239D01*
X1257995Y223000D01*
D02*
G37*
G36*
X1288995Y222000D02*
X1287005D01*
X1285168Y221239D01*
X1283761Y219832D01*
X1283000Y217995D01*
Y216005D01*
X1283761Y214168D01*
X1285168Y212761D01*
X1287005Y212000D01*
X1288995D01*
X1290832Y212761D01*
X1292239Y214168D01*
X1293000Y216005D01*
Y217995D01*
X1292239Y219832D01*
X1290832Y221239D01*
X1288995Y222000D01*
D02*
G37*
G36*
X1338995Y217000D02*
X1337005D01*
X1335168Y216239D01*
X1333761Y214832D01*
X1333000Y212995D01*
Y211005D01*
X1333761Y209168D01*
X1335168Y207761D01*
X1337005Y207000D01*
X1338995D01*
X1340832Y207761D01*
X1342239Y209168D01*
X1343000Y211005D01*
Y212995D01*
X1342239Y214832D01*
X1340832Y216239D01*
X1338995Y217000D01*
D02*
G37*
G36*
X1662245Y214750D02*
X1660255D01*
X1658418Y213989D01*
X1657011Y212582D01*
X1656250Y210745D01*
Y208755D01*
X1657011Y206918D01*
X1658418Y205511D01*
X1660255Y204750D01*
X1662245D01*
X1664082Y205511D01*
X1665489Y206918D01*
X1666250Y208755D01*
Y210745D01*
X1665489Y212582D01*
X1664082Y213989D01*
X1662245Y214750D01*
D02*
G37*
G36*
X1582495Y210750D02*
X1580505D01*
X1578668Y209989D01*
X1577261Y208582D01*
X1576500Y206745D01*
Y204755D01*
X1577261Y202918D01*
X1578668Y201511D01*
X1580505Y200750D01*
X1582495D01*
X1584332Y201511D01*
X1585739Y202918D01*
X1586500Y204755D01*
Y206745D01*
X1585739Y208582D01*
X1584332Y209989D01*
X1582495Y210750D01*
D02*
G37*
G36*
X1672995Y206500D02*
X1671005D01*
X1669168Y205739D01*
X1667761Y204332D01*
X1667000Y202495D01*
Y200505D01*
X1667761Y198668D01*
X1668618Y197811D01*
X1668491Y196271D01*
X1667939Y195952D01*
X1667270Y195284D01*
X1666000Y195809D01*
Y196495D01*
X1665239Y198332D01*
X1663832Y199739D01*
X1661995Y200500D01*
X1660005D01*
X1658168Y199739D01*
X1656761Y198332D01*
X1656000Y196495D01*
Y194505D01*
X1656761Y192668D01*
X1658053Y191376D01*
X1658076Y190660D01*
X1657971Y189968D01*
X1657418Y189739D01*
X1656011Y188332D01*
X1655250Y186495D01*
Y184505D01*
X1656011Y182668D01*
X1657418Y181261D01*
X1658148Y180959D01*
Y179584D01*
X1657918Y179489D01*
X1656511Y178082D01*
X1655750Y176245D01*
Y174255D01*
X1656511Y172418D01*
X1657918Y171011D01*
X1659755Y170250D01*
X1661745D01*
X1662444Y170540D01*
X1663500Y169834D01*
Y149850D01*
X1686500D01*
Y172850D01*
X1666311D01*
X1665605Y173906D01*
X1665750Y174255D01*
Y176245D01*
X1664989Y178082D01*
X1663663Y179408D01*
X1663577Y179560D01*
X1663475Y180908D01*
X1663722Y181117D01*
X1665102Y180894D01*
X1665798Y179689D01*
X1667939Y177548D01*
X1670561Y176034D01*
X1673486Y175250D01*
X1676514D01*
X1679439Y176034D01*
X1682061Y177548D01*
X1684202Y179689D01*
X1685716Y182311D01*
X1686500Y185236D01*
Y188264D01*
X1685716Y191189D01*
X1684202Y193811D01*
X1682061Y195952D01*
X1679439Y197466D01*
X1677276Y198046D01*
X1676576Y199406D01*
X1676580Y199492D01*
X1677000Y200505D01*
Y202495D01*
X1676239Y204332D01*
X1674832Y205739D01*
X1672995Y206500D01*
D02*
G37*
G36*
X1501296Y203000D02*
X1499704D01*
X1498234Y202391D01*
X1497109Y201266D01*
X1496500Y199796D01*
Y198204D01*
X1497109Y196734D01*
X1498234Y195609D01*
X1499704Y195000D01*
X1501296D01*
X1502766Y195609D01*
X1503891Y196734D01*
X1504500Y198204D01*
Y199796D01*
X1503891Y201266D01*
X1502766Y202391D01*
X1501296Y203000D01*
D02*
G37*
G36*
X1736655Y199290D02*
X1736274D01*
Y188020D01*
X1747544D01*
Y188401D01*
X1746689Y191590D01*
X1745038Y194450D01*
X1742704Y196784D01*
X1739844Y198435D01*
X1736655Y199290D01*
D02*
G37*
G36*
X1733734D02*
X1733353D01*
X1730164Y198435D01*
X1727304Y196784D01*
X1724969Y194450D01*
X1723318Y191590D01*
X1722464Y188401D01*
Y188020D01*
X1733734D01*
Y199290D01*
D02*
G37*
G36*
X1702051D02*
X1701670D01*
Y188020D01*
X1712940D01*
Y188401D01*
X1712085Y191590D01*
X1710435Y194450D01*
X1708100Y196784D01*
X1705240Y198435D01*
X1702051Y199290D01*
D02*
G37*
G36*
X1699130D02*
X1698749D01*
X1695560Y198435D01*
X1692700Y196784D01*
X1690365Y194450D01*
X1688715Y191590D01*
X1687860Y188401D01*
Y188020D01*
X1699130D01*
Y199290D01*
D02*
G37*
G36*
X1465096Y194745D02*
X1462908D01*
X1460887Y193907D01*
X1459339Y192360D01*
X1458502Y190339D01*
Y188151D01*
X1459339Y186129D01*
X1459882Y185587D01*
X1459163Y184510D01*
X1458596Y184745D01*
X1456408D01*
X1455842Y184510D01*
X1455122Y185587D01*
X1455665Y186129D01*
X1456502Y188151D01*
Y190339D01*
X1455665Y192360D01*
X1454118Y193907D01*
X1452096Y194745D01*
X1449908D01*
X1447887Y193907D01*
X1446339Y192360D01*
X1445502Y190339D01*
Y188151D01*
X1446339Y186129D01*
X1446882Y185587D01*
X1446163Y184510D01*
X1445596Y184745D01*
X1443408D01*
X1441387Y183907D01*
X1439839Y182360D01*
X1439002Y180339D01*
Y178151D01*
X1439839Y176129D01*
X1441387Y174582D01*
X1443408Y173745D01*
X1445596D01*
X1447618Y174582D01*
X1449165Y176129D01*
X1450002Y178151D01*
Y180339D01*
X1449165Y182360D01*
X1448622Y182903D01*
X1449342Y183979D01*
X1449908Y183745D01*
X1452096D01*
X1452663Y183979D01*
X1453382Y182903D01*
X1452839Y182360D01*
X1452002Y180339D01*
Y178151D01*
X1452839Y176129D01*
X1454387Y174582D01*
X1456408Y173745D01*
X1458596D01*
X1460618Y174582D01*
X1462165Y176129D01*
X1463002Y178151D01*
Y180339D01*
X1462165Y182360D01*
X1461622Y182903D01*
X1462342Y183979D01*
X1462908Y183745D01*
X1465096D01*
X1465663Y183979D01*
X1466382Y182903D01*
X1465840Y182360D01*
X1465002Y180339D01*
Y178151D01*
X1465840Y176129D01*
X1467387Y174582D01*
X1469408Y173745D01*
X1471596D01*
X1473618Y174582D01*
X1475165Y176129D01*
X1476002Y178151D01*
Y180339D01*
X1475165Y182360D01*
X1473618Y183907D01*
X1471596Y184745D01*
X1469408D01*
X1468842Y184510D01*
X1468122Y185587D01*
X1468665Y186129D01*
X1469502Y188151D01*
Y190339D01*
X1468665Y192360D01*
X1467118Y193907D01*
X1465096Y194745D01*
D02*
G37*
G36*
X1640046Y188250D02*
X1638454D01*
X1636984Y187641D01*
X1635859Y186516D01*
X1635250Y185046D01*
Y183454D01*
X1635859Y181984D01*
X1636984Y180859D01*
X1638454Y180250D01*
X1640046D01*
X1641516Y180859D01*
X1642641Y181984D01*
X1643250Y183454D01*
Y185046D01*
X1642641Y186516D01*
X1641516Y187641D01*
X1640046Y188250D01*
D02*
G37*
G36*
X1361514Y199260D02*
X1358486D01*
X1355561Y198476D01*
X1352939Y196962D01*
X1350798Y194821D01*
X1349284Y192198D01*
X1348500Y189274D01*
Y186246D01*
X1349284Y183321D01*
X1350798Y180698D01*
X1352939Y178557D01*
X1355561Y177043D01*
X1358486Y176260D01*
X1361514D01*
X1364439Y177043D01*
X1367061Y178557D01*
X1369202Y180698D01*
X1370716Y183321D01*
X1371500Y186246D01*
Y189274D01*
X1370716Y192198D01*
X1369202Y194821D01*
X1367061Y196962D01*
X1364439Y198476D01*
X1361514Y199260D01*
D02*
G37*
G36*
X1761914Y198250D02*
X1758886D01*
X1755961Y197466D01*
X1753339Y195952D01*
X1751198Y193811D01*
X1749684Y191189D01*
X1748900Y188264D01*
Y185236D01*
X1749684Y182311D01*
X1751198Y179689D01*
X1753339Y177548D01*
X1755961Y176034D01*
X1758886Y175250D01*
X1761914D01*
X1764839Y176034D01*
X1767461Y177548D01*
X1769602Y179689D01*
X1771116Y182311D01*
X1771900Y185236D01*
Y188264D01*
X1771116Y191189D01*
X1769602Y193811D01*
X1767461Y195952D01*
X1764839Y197466D01*
X1761914Y198250D01*
D02*
G37*
G36*
X1522546Y182750D02*
X1520954D01*
X1519484Y182141D01*
X1518359Y181016D01*
X1517750Y179546D01*
Y177954D01*
X1518359Y176484D01*
X1519484Y175359D01*
X1520954Y174750D01*
X1522546D01*
X1524016Y175359D01*
X1525141Y176484D01*
X1525750Y177954D01*
Y179546D01*
X1525141Y181016D01*
X1524016Y182141D01*
X1522546Y182750D01*
D02*
G37*
G36*
X1747544Y185480D02*
X1736274D01*
Y174210D01*
X1736655D01*
X1739844Y175065D01*
X1742704Y176716D01*
X1745038Y179050D01*
X1746689Y181910D01*
X1747544Y185099D01*
Y185480D01*
D02*
G37*
G36*
X1733734D02*
X1722464D01*
Y185099D01*
X1723318Y181910D01*
X1724969Y179050D01*
X1727304Y176716D01*
X1730164Y175065D01*
X1733353Y174210D01*
X1733734D01*
Y185480D01*
D02*
G37*
G36*
X1712940Y185480D02*
X1701670D01*
Y174210D01*
X1702051D01*
X1705240Y175065D01*
X1708100Y176716D01*
X1710435Y179050D01*
X1712085Y181910D01*
X1712940Y185099D01*
Y185480D01*
D02*
G37*
G36*
X1699130D02*
X1687860D01*
Y185099D01*
X1688715Y181910D01*
X1690365Y179050D01*
X1692700Y176716D01*
X1695560Y175065D01*
X1698749Y174210D01*
X1699130D01*
Y185480D01*
D02*
G37*
G36*
X1263245Y184000D02*
X1261255D01*
X1259418Y183239D01*
X1258011Y181832D01*
X1257250Y179995D01*
Y178005D01*
X1258011Y176168D01*
X1259418Y174761D01*
X1261255Y174000D01*
X1263245D01*
X1265082Y174761D01*
X1266489Y176168D01*
X1267250Y178005D01*
Y179995D01*
X1266489Y181832D01*
X1265082Y183239D01*
X1263245Y184000D01*
D02*
G37*
G36*
X1493252Y191288D02*
X1491399Y190919D01*
X1489828Y189869D01*
X1488778Y188298D01*
X1488409Y186445D01*
Y176445D01*
X1488778Y174591D01*
X1489828Y173020D01*
X1491399Y171970D01*
X1493252Y171602D01*
X1495105Y171970D01*
X1496677Y173020D01*
X1497726Y174591D01*
X1498095Y176445D01*
Y186445D01*
X1497726Y188298D01*
X1496677Y189869D01*
X1495105Y190919D01*
X1493252Y191288D01*
D02*
G37*
G36*
X1421752D02*
X1419899Y190919D01*
X1418327Y189869D01*
X1417278Y188298D01*
X1416909Y186445D01*
Y176445D01*
X1417278Y174591D01*
X1418327Y173020D01*
X1419899Y171970D01*
X1421752Y171602D01*
X1423605Y171970D01*
X1425177Y173020D01*
X1426227Y174591D01*
X1426595Y176445D01*
Y186445D01*
X1426227Y188298D01*
X1425177Y189869D01*
X1423605Y190919D01*
X1421752Y191288D01*
D02*
G37*
G36*
X1372540Y174900D02*
X1361270D01*
Y163630D01*
X1372540D01*
Y174900D01*
D02*
G37*
G36*
X1358730D02*
X1347460D01*
Y163630D01*
X1358730D01*
Y174900D01*
D02*
G37*
G36*
X1312245Y171500D02*
X1310255D01*
X1308418Y170739D01*
X1307011Y169332D01*
X1306250Y167495D01*
Y165505D01*
X1307011Y163668D01*
X1308418Y162261D01*
X1310255Y161500D01*
X1312245D01*
X1314082Y162261D01*
X1315489Y163668D01*
X1316250Y165505D01*
Y167495D01*
X1315489Y169332D01*
X1314082Y170739D01*
X1312245Y171500D01*
D02*
G37*
G36*
X1285995Y170000D02*
X1284005D01*
X1282168Y169239D01*
X1280761Y167832D01*
X1280000Y165995D01*
Y164005D01*
X1280761Y162168D01*
X1282168Y160761D01*
X1284005Y160000D01*
X1285995D01*
X1287832Y160761D01*
X1289239Y162168D01*
X1290000Y164005D01*
Y165995D01*
X1289239Y167832D01*
X1287832Y169239D01*
X1285995Y170000D01*
D02*
G37*
G36*
X1499995Y168000D02*
X1498005D01*
X1496168Y167239D01*
X1494761Y165832D01*
X1494000Y163995D01*
Y162005D01*
X1494761Y160168D01*
X1496168Y158761D01*
X1498005Y158000D01*
X1499995D01*
X1501832Y158761D01*
X1503239Y160168D01*
X1504000Y162005D01*
Y163995D01*
X1503239Y165832D01*
X1501832Y167239D01*
X1499995Y168000D01*
D02*
G37*
G36*
X1202546Y160000D02*
X1200954D01*
X1199484Y159391D01*
X1198359Y158266D01*
X1197750Y156796D01*
Y155204D01*
X1198359Y153734D01*
X1199484Y152609D01*
X1200954Y152000D01*
X1202546D01*
X1204016Y152609D01*
X1205141Y153734D01*
X1205750Y155204D01*
Y156796D01*
X1205141Y158266D01*
X1204016Y159391D01*
X1202546Y160000D01*
D02*
G37*
G36*
X1406750Y173900D02*
X1383750D01*
Y150900D01*
X1406750D01*
Y173900D01*
D02*
G37*
G36*
X1657995Y160000D02*
X1656005D01*
X1654168Y159239D01*
X1652761Y157832D01*
X1652000Y155995D01*
Y154005D01*
X1652761Y152168D01*
X1654168Y150761D01*
X1656005Y150000D01*
X1657995D01*
X1659832Y150761D01*
X1661239Y152168D01*
X1662000Y154005D01*
Y155995D01*
X1661239Y157832D01*
X1659832Y159239D01*
X1657995Y160000D01*
D02*
G37*
G36*
X1771900Y172850D02*
X1748900D01*
Y149850D01*
X1771900D01*
Y172850D01*
D02*
G37*
G36*
X1746504D02*
X1723504D01*
Y149850D01*
X1746504D01*
Y172850D01*
D02*
G37*
G36*
X1711900D02*
X1688900D01*
Y149850D01*
X1711900D01*
Y172850D01*
D02*
G37*
G36*
X1372540Y161090D02*
X1361270D01*
Y149820D01*
X1372540D01*
Y161090D01*
D02*
G37*
G36*
X1358730D02*
X1347460D01*
Y149820D01*
X1358730D01*
Y161090D01*
D02*
G37*
G36*
X1511995Y156000D02*
X1510005D01*
X1508168Y155239D01*
X1506761Y153832D01*
X1506000Y151995D01*
Y150005D01*
X1506761Y148168D01*
X1508168Y146761D01*
X1510005Y146000D01*
X1511995D01*
X1513832Y146761D01*
X1515239Y148168D01*
X1516000Y150005D01*
Y151995D01*
X1515239Y153832D01*
X1513832Y155239D01*
X1511995Y156000D01*
D02*
G37*
G36*
X1444245Y154500D02*
X1442255D01*
X1440418Y153739D01*
X1439011Y152332D01*
X1438250Y150495D01*
Y148505D01*
X1439011Y146668D01*
X1440418Y145261D01*
X1442255Y144500D01*
X1444245D01*
X1446082Y145261D01*
X1447489Y146668D01*
X1448250Y148505D01*
Y150495D01*
X1447489Y152332D01*
X1446082Y153739D01*
X1444245Y154500D01*
D02*
G37*
G36*
X1152882Y165360D02*
X1150118D01*
X1147447Y164644D01*
X1145053Y163262D01*
X1143098Y161307D01*
X1141716Y158912D01*
X1141000Y156242D01*
Y153477D01*
X1141716Y150807D01*
X1143098Y148413D01*
X1145053Y146458D01*
X1147447Y145075D01*
X1150118Y144360D01*
X1152882D01*
X1155553Y145075D01*
X1157947Y146458D01*
X1159902Y148413D01*
X1161284Y150807D01*
X1162000Y153477D01*
Y156242D01*
X1161284Y158912D01*
X1159902Y161307D01*
X1157947Y163262D01*
X1155553Y164644D01*
X1152882Y165360D01*
D02*
G37*
G36*
X1127482D02*
X1124718D01*
X1122047Y164644D01*
X1119653Y163262D01*
X1117698Y161307D01*
X1116316Y158912D01*
X1115600Y156242D01*
Y153477D01*
X1116316Y150807D01*
X1117698Y148413D01*
X1119653Y146458D01*
X1122047Y145075D01*
X1124718Y144360D01*
X1127482D01*
X1130153Y145075D01*
X1132547Y146458D01*
X1134502Y148413D01*
X1135884Y150807D01*
X1136600Y153477D01*
Y156242D01*
X1135884Y158912D01*
X1134502Y161307D01*
X1132547Y163262D01*
X1130153Y164644D01*
X1127482Y165360D01*
D02*
G37*
G36*
X1492995Y152500D02*
X1491005D01*
X1489168Y151739D01*
X1487761Y150332D01*
X1487000Y148495D01*
Y146505D01*
X1487761Y144668D01*
X1489168Y143261D01*
X1491005Y142500D01*
X1492995D01*
X1494832Y143261D01*
X1496239Y144668D01*
X1497000Y146505D01*
Y148495D01*
X1496239Y150332D01*
X1494832Y151739D01*
X1492995Y152500D01*
D02*
G37*
G36*
X1312495D02*
X1310505D01*
X1308668Y151739D01*
X1307261Y150332D01*
X1306500Y148495D01*
Y146505D01*
X1307261Y144668D01*
X1308668Y143261D01*
X1310505Y142500D01*
X1312495D01*
X1314332Y143261D01*
X1315739Y144668D01*
X1316500Y146505D01*
Y148495D01*
X1315739Y150332D01*
X1314332Y151739D01*
X1312495Y152500D01*
D02*
G37*
G36*
X1574995Y145000D02*
X1573005D01*
X1571168Y144239D01*
X1569761Y142832D01*
X1569000Y140995D01*
Y139005D01*
X1569761Y137168D01*
X1571168Y135761D01*
X1573005Y135000D01*
X1574995D01*
X1576832Y135761D01*
X1578239Y137168D01*
X1579000Y139005D01*
Y140995D01*
X1578239Y142832D01*
X1576832Y144239D01*
X1574995Y145000D01*
D02*
G37*
G36*
X1616495Y160750D02*
X1614505D01*
X1612668Y159989D01*
X1611261Y158582D01*
X1610500Y156745D01*
Y154755D01*
X1611261Y152918D01*
X1612668Y151511D01*
X1614505Y150750D01*
X1616495D01*
X1617686Y151243D01*
X1618218Y150869D01*
X1618750Y150310D01*
Y148505D01*
X1619511Y146668D01*
X1620918Y145261D01*
X1622755Y144500D01*
X1622894D01*
X1623158Y143282D01*
X1623159Y143230D01*
X1621761Y141832D01*
X1621000Y139995D01*
Y138005D01*
X1621761Y136168D01*
X1623168Y134761D01*
X1625005Y134000D01*
X1626995D01*
X1628832Y134761D01*
X1630239Y136168D01*
X1631000Y138005D01*
Y139995D01*
X1630239Y141832D01*
X1628832Y143239D01*
X1626995Y144000D01*
X1626856D01*
X1626592Y145218D01*
X1626591Y145270D01*
X1627989Y146668D01*
X1628750Y148505D01*
Y150495D01*
X1627989Y152332D01*
X1626582Y153739D01*
X1624745Y154500D01*
X1622755D01*
X1621564Y154007D01*
X1621032Y154381D01*
X1620500Y154940D01*
Y156745D01*
X1619739Y158582D01*
X1618332Y159989D01*
X1616495Y160750D01*
D02*
G37*
G36*
X1493745Y136750D02*
X1491756D01*
X1489918Y135989D01*
X1488511Y134582D01*
X1487750Y132745D01*
Y130755D01*
X1488511Y128918D01*
X1489918Y127511D01*
X1491756Y126750D01*
X1493745D01*
X1495582Y127511D01*
X1496989Y128918D01*
X1497750Y130755D01*
Y132745D01*
X1496989Y134582D01*
X1495582Y135989D01*
X1493745Y136750D01*
D02*
G37*
G36*
X1396764Y148500D02*
X1393736D01*
X1390811Y147716D01*
X1388189Y146202D01*
X1386048Y144061D01*
X1384534Y141439D01*
X1383750Y138514D01*
Y135486D01*
X1384534Y132561D01*
X1386048Y129939D01*
X1388189Y127798D01*
X1390811Y126284D01*
X1393736Y125500D01*
X1396764D01*
X1399689Y126284D01*
X1402311Y127798D01*
X1404452Y129939D01*
X1405966Y132561D01*
X1406750Y135486D01*
Y138514D01*
X1405966Y141439D01*
X1404452Y144061D01*
X1402311Y146202D01*
X1399689Y147716D01*
X1396764Y148500D01*
D02*
G37*
G36*
X1511245Y133250D02*
X1509256D01*
X1507418Y132489D01*
X1506011Y131082D01*
X1505250Y129244D01*
Y127255D01*
X1506011Y125418D01*
X1507418Y124011D01*
X1509256Y123250D01*
X1511245D01*
X1513082Y124011D01*
X1514489Y125418D01*
X1515250Y127255D01*
Y129244D01*
X1514489Y131082D01*
X1513082Y132489D01*
X1511245Y133250D01*
D02*
G37*
G36*
X1152882Y139960D02*
X1150118D01*
X1147447Y139244D01*
X1145053Y137862D01*
X1143098Y135907D01*
X1141716Y133512D01*
X1141000Y130842D01*
Y128077D01*
X1141716Y125407D01*
X1143098Y123013D01*
X1145053Y121058D01*
X1147447Y119675D01*
X1150118Y118960D01*
X1152882D01*
X1155553Y119675D01*
X1157947Y121058D01*
X1159902Y123013D01*
X1161284Y125407D01*
X1162000Y128077D01*
Y130842D01*
X1161284Y133512D01*
X1159902Y135907D01*
X1157947Y137862D01*
X1155553Y139244D01*
X1152882Y139960D01*
D02*
G37*
G36*
X1127482D02*
X1124718D01*
X1122047Y139244D01*
X1119653Y137862D01*
X1117698Y135907D01*
X1116316Y133512D01*
X1115600Y130842D01*
Y128077D01*
X1116316Y125407D01*
X1117698Y123013D01*
X1119653Y121058D01*
X1122047Y119675D01*
X1124718Y118960D01*
X1127482D01*
X1130153Y119675D01*
X1132547Y121058D01*
X1134502Y123013D01*
X1135884Y125407D01*
X1136600Y128077D01*
Y130842D01*
X1135884Y133512D01*
X1134502Y135907D01*
X1132547Y137862D01*
X1130153Y139244D01*
X1127482Y139960D01*
D02*
G37*
G36*
X1371500Y139660D02*
X1348500D01*
Y116660D01*
X1371500D01*
Y139660D01*
D02*
G37*
G36*
X1658796Y109000D02*
X1657204D01*
X1655734Y108391D01*
X1654609Y107266D01*
X1654000Y105796D01*
Y104204D01*
X1654609Y102734D01*
X1655734Y101609D01*
X1657204Y101000D01*
X1658796D01*
X1660266Y101609D01*
X1661391Y102734D01*
X1662000Y104204D01*
Y105796D01*
X1661391Y107266D01*
X1660266Y108391D01*
X1658796Y109000D01*
D02*
G37*
G36*
X1152882Y114560D02*
X1150118D01*
X1147447Y113844D01*
X1145053Y112462D01*
X1143098Y110507D01*
X1141716Y108112D01*
X1141000Y105442D01*
Y102677D01*
X1141716Y100007D01*
X1143098Y97612D01*
X1145053Y95658D01*
X1147447Y94275D01*
X1150118Y93560D01*
X1152882D01*
X1155553Y94275D01*
X1157947Y95658D01*
X1159902Y97612D01*
X1161284Y100007D01*
X1162000Y102677D01*
Y105442D01*
X1161284Y108112D01*
X1159902Y110507D01*
X1157947Y112462D01*
X1155553Y113844D01*
X1152882Y114560D01*
D02*
G37*
G36*
X1127482D02*
X1124718D01*
X1122047Y113844D01*
X1119653Y112462D01*
X1117698Y110507D01*
X1116316Y108112D01*
X1115600Y105442D01*
Y102677D01*
X1116316Y100007D01*
X1117698Y97612D01*
X1119653Y95658D01*
X1122047Y94275D01*
X1124718Y93560D01*
X1127482D01*
X1130153Y94275D01*
X1132547Y95658D01*
X1134502Y97612D01*
X1135884Y100007D01*
X1136600Y102677D01*
Y105442D01*
X1135884Y108112D01*
X1134502Y110507D01*
X1132547Y112462D01*
X1130153Y113844D01*
X1127482Y114560D01*
D02*
G37*
G36*
X1361514Y114260D02*
X1358486D01*
X1355561Y113476D01*
X1352939Y111962D01*
X1350798Y109821D01*
X1349284Y107198D01*
X1348500Y104274D01*
Y101246D01*
X1349284Y98321D01*
X1350798Y95698D01*
X1352939Y93557D01*
X1355561Y92043D01*
X1358486Y91260D01*
X1361514D01*
X1364439Y92043D01*
X1367061Y93557D01*
X1369202Y95698D01*
X1370716Y98321D01*
X1371500Y101246D01*
Y104274D01*
X1370716Y107198D01*
X1369202Y109821D01*
X1367061Y111962D01*
X1364439Y113476D01*
X1361514Y114260D01*
D02*
G37*
G36*
X1621995Y99000D02*
X1620005D01*
X1618168Y98239D01*
X1616761Y96832D01*
X1616000Y94995D01*
Y93005D01*
X1616761Y91168D01*
X1618168Y89761D01*
X1620005Y89000D01*
X1621995D01*
X1623832Y89761D01*
X1625239Y91168D01*
X1626000Y93005D01*
Y94995D01*
X1625239Y96832D01*
X1623832Y98239D01*
X1621995Y99000D01*
D02*
G37*
G36*
X1764118Y125500D02*
X1759882D01*
X1755729Y124674D01*
X1751816Y123053D01*
X1748295Y120700D01*
X1745300Y117705D01*
X1742947Y114184D01*
X1741326Y110271D01*
X1740500Y106118D01*
Y101882D01*
X1741326Y97729D01*
X1742947Y93816D01*
X1745300Y90295D01*
X1748295Y87300D01*
X1751816Y84947D01*
X1755729Y83326D01*
X1759882Y82500D01*
X1764118D01*
X1768271Y83326D01*
X1772184Y84947D01*
X1775705Y87300D01*
X1778700Y90295D01*
X1781053Y93816D01*
X1782674Y97729D01*
X1783500Y101882D01*
Y106118D01*
X1782674Y110271D01*
X1781053Y114184D01*
X1778700Y117705D01*
X1775705Y120700D01*
X1772184Y123053D01*
X1768271Y124674D01*
X1764118Y125500D01*
D02*
G37*
G36*
X1153019Y90200D02*
X1152770D01*
Y79930D01*
X1163040D01*
Y80179D01*
X1162253Y83114D01*
X1160734Y85745D01*
X1158586Y87894D01*
X1155954Y89413D01*
X1153019Y90200D01*
D02*
G37*
G36*
X1127619D02*
X1127370D01*
Y79930D01*
X1137640D01*
Y80179D01*
X1136853Y83114D01*
X1135334Y85745D01*
X1133186Y87894D01*
X1130554Y89413D01*
X1127619Y90200D01*
D02*
G37*
G36*
X1150230D02*
X1149981D01*
X1147046Y89413D01*
X1144414Y87894D01*
X1142266Y85745D01*
X1140746Y83114D01*
X1139960Y80179D01*
Y79930D01*
X1150230D01*
Y90200D01*
D02*
G37*
G36*
X1702995Y81000D02*
X1701005D01*
X1699168Y80239D01*
X1697761Y78832D01*
X1697000Y76995D01*
Y75005D01*
X1697761Y73168D01*
X1699168Y71761D01*
X1701005Y71000D01*
X1702995D01*
X1704832Y71761D01*
X1706239Y73168D01*
X1707000Y75005D01*
Y76995D01*
X1706239Y78832D01*
X1704832Y80239D01*
X1702995Y81000D01*
D02*
G37*
G36*
X1202245Y80750D02*
X1200255D01*
X1198418Y79989D01*
X1197011Y78582D01*
X1196250Y76745D01*
Y74755D01*
X1197011Y72918D01*
X1198418Y71511D01*
X1200255Y70750D01*
X1202245D01*
X1204082Y71511D01*
X1205489Y72918D01*
X1206250Y74755D01*
Y76745D01*
X1205489Y78582D01*
X1204082Y79989D01*
X1202245Y80750D01*
D02*
G37*
G36*
X1354995Y80250D02*
X1353005D01*
X1351168Y79489D01*
X1349761Y78082D01*
X1349000Y76245D01*
Y74255D01*
X1349761Y72418D01*
X1351168Y71011D01*
X1353005Y70250D01*
X1354995D01*
X1356832Y71011D01*
X1358239Y72418D01*
X1359000Y74255D01*
Y76245D01*
X1358239Y78082D01*
X1356832Y79489D01*
X1354995Y80250D01*
D02*
G37*
G36*
X1163040Y77390D02*
X1152770D01*
Y67120D01*
X1153019D01*
X1155954Y67906D01*
X1158586Y69425D01*
X1160734Y71574D01*
X1162253Y74205D01*
X1163040Y77140D01*
Y77390D01*
D02*
G37*
G36*
X1150230D02*
X1139960D01*
Y77140D01*
X1140746Y74205D01*
X1142266Y71574D01*
X1144414Y69425D01*
X1147046Y67906D01*
X1149981Y67120D01*
X1150230D01*
Y77390D01*
D02*
G37*
G36*
X1137640D02*
X1127370D01*
Y67120D01*
X1127619D01*
X1130554Y67906D01*
X1133186Y69425D01*
X1135334Y71574D01*
X1136853Y74205D01*
X1137640Y77140D01*
Y77390D01*
D02*
G37*
G36*
X1570745Y71750D02*
X1568755D01*
X1566918Y70989D01*
X1565511Y69582D01*
X1564750Y67745D01*
Y65755D01*
X1565511Y63918D01*
X1566918Y62511D01*
X1568755Y61750D01*
X1570745D01*
X1572582Y62511D01*
X1573989Y63918D01*
X1574750Y65755D01*
Y67745D01*
X1573989Y69582D01*
X1572582Y70989D01*
X1570745Y71750D01*
D02*
G37*
G36*
X1362745Y70750D02*
X1360755D01*
X1358918Y69989D01*
X1357511Y68582D01*
X1356750Y66745D01*
Y64755D01*
X1357511Y62918D01*
X1358918Y61511D01*
X1360755Y60750D01*
X1362745D01*
X1364582Y61511D01*
X1365989Y62918D01*
X1366750Y64755D01*
Y66745D01*
X1365989Y68582D01*
X1364582Y69989D01*
X1362745Y70750D01*
D02*
G37*
G36*
X1549495Y70000D02*
X1547505D01*
X1545668Y69239D01*
X1544261Y67832D01*
X1543500Y65995D01*
Y64005D01*
X1544261Y62168D01*
X1545668Y60761D01*
X1547505Y60000D01*
X1549495D01*
X1551332Y60761D01*
X1552739Y62168D01*
X1553500Y64005D01*
Y65995D01*
X1552739Y67832D01*
X1551332Y69239D01*
X1549495Y70000D01*
D02*
G37*
G36*
X1639995Y63000D02*
X1638005D01*
X1636168Y62239D01*
X1634761Y60832D01*
X1634000Y58995D01*
Y57005D01*
X1634761Y55168D01*
X1636168Y53761D01*
X1638005Y53000D01*
X1639995D01*
X1641832Y53761D01*
X1643239Y55168D01*
X1644000Y57005D01*
Y58995D01*
X1643239Y60832D01*
X1641832Y62239D01*
X1639995Y63000D01*
D02*
G37*
%LPD*%
D231*
X933300Y619450D02*
D03*
X882500D02*
D03*
X933300Y594050D02*
D03*
X882500D02*
D03*
X933300Y644850D02*
D03*
X882500D02*
D03*
X933300Y670250D02*
D03*
X882500D02*
D03*
X933300Y695650D02*
D03*
X882500D02*
D03*
X1736700Y512200D02*
D03*
X1787500D02*
D03*
X1736700Y537600D02*
D03*
X1787500D02*
D03*
X1736700Y486800D02*
D03*
X1787500D02*
D03*
X1736700Y461400D02*
D03*
X1787500D02*
D03*
X1736700Y436000D02*
D03*
X1787500D02*
D03*
X1787550Y253850D02*
D03*
X1736750D02*
D03*
X1787550Y380850D02*
D03*
Y355450D02*
D03*
Y330050D02*
D03*
Y304650D02*
D03*
Y279250D02*
D03*
X1736750D02*
D03*
Y304650D02*
D03*
Y330050D02*
D03*
Y380850D02*
D03*
Y355450D02*
D03*
X179000Y926000D02*
D03*
X281000Y912000D02*
D03*
D232*
X1193250Y1048000D02*
D03*
X1244050D02*
D03*
X1294850D02*
D03*
X1345650D02*
D03*
X1396450D02*
D03*
X1447250D02*
D03*
X1498050D02*
D03*
X1548850D02*
D03*
X1193250Y971800D02*
D03*
X1244050D02*
D03*
X1294850D02*
D03*
X1345650D02*
D03*
X1396450D02*
D03*
X1447250D02*
D03*
X1498050D02*
D03*
X1548850D02*
D03*
X728250Y1048000D02*
D03*
X779050D02*
D03*
X829850D02*
D03*
X880650D02*
D03*
X931450D02*
D03*
X982250D02*
D03*
X1033050D02*
D03*
X1083850D02*
D03*
X728250Y971800D02*
D03*
X779050D02*
D03*
X829850D02*
D03*
X880650D02*
D03*
X931450D02*
D03*
X982250D02*
D03*
X1033050D02*
D03*
X1083850D02*
D03*
X250050Y1048200D02*
D03*
X300850D02*
D03*
X351650D02*
D03*
X402450D02*
D03*
X453250D02*
D03*
X504050D02*
D03*
X554850D02*
D03*
X605650D02*
D03*
X250050Y972000D02*
D03*
X300850D02*
D03*
X351650D02*
D03*
X402450D02*
D03*
X453250D02*
D03*
X504050D02*
D03*
X554850D02*
D03*
X605650D02*
D03*
X166000Y874000D02*
D03*
X266000Y854000D02*
D03*
D233*
X1626600Y932400D02*
D03*
X1550400Y907000D02*
D03*
X1626600Y856200D02*
D03*
Y754600D02*
D03*
X1514200Y932400D02*
D03*
X1438000Y907000D02*
D03*
X1514200Y856200D02*
D03*
Y754600D02*
D03*
D234*
X1550400D02*
D03*
X1438000D02*
D03*
D235*
X1924000Y899250D02*
D03*
Y881250D02*
D03*
Y863250D02*
D03*
Y845250D02*
D03*
Y827250D02*
D03*
Y809250D02*
D03*
Y791250D02*
D03*
Y773250D02*
D03*
Y755250D02*
D03*
D236*
X1220700Y563150D02*
D03*
X1195300D02*
D03*
X1220700Y588550D02*
D03*
X1195300D02*
D03*
X1220700Y613950D02*
D03*
X1195300D02*
D03*
X1220700Y639350D02*
D03*
X1195300D02*
D03*
X1126100Y154860D02*
D03*
X1151500D02*
D03*
X1126100Y129460D02*
D03*
X1151500D02*
D03*
X1126100Y104060D02*
D03*
X1151500D02*
D03*
X1126100Y78660D02*
D03*
X1151500D02*
D03*
X420500Y855000D02*
D03*
X345500D02*
D03*
X428000Y176000D02*
D03*
X578000D02*
D03*
X480000Y498000D02*
D03*
X630000D02*
D03*
X84000Y307000D02*
D03*
Y257000D02*
D03*
X318500Y511000D02*
D03*
Y611000D02*
D03*
X77000Y607000D02*
D03*
Y507000D02*
D03*
X155000Y715000D02*
D03*
X105000D02*
D03*
X699000Y184000D02*
D03*
Y234000D02*
D03*
D237*
X1360000Y187760D02*
D03*
Y102760D02*
D03*
X1395250Y137000D02*
D03*
X1675000Y186750D02*
D03*
X1700400D02*
D03*
X1735004D02*
D03*
X1760400D02*
D03*
D238*
X1360000Y162360D02*
D03*
Y128160D02*
D03*
X1395250Y162400D02*
D03*
X1675000Y161350D02*
D03*
X1700400D02*
D03*
X1735004D02*
D03*
X1760400D02*
D03*
D239*
X1421752Y181445D02*
D03*
X1493252D02*
D03*
D240*
X1444502Y179245D02*
D03*
X1451002Y189245D02*
D03*
X1457502Y179245D02*
D03*
X1464002Y189245D02*
D03*
X1470502Y179245D02*
D03*
D241*
X162000Y409600D02*
D03*
Y308000D02*
D03*
X619200Y231800D02*
D03*
X162000Y257200D02*
D03*
X619200Y333400D02*
D03*
Y435000D02*
D03*
X270000Y607750D02*
D03*
Y507750D02*
D03*
X120000Y607750D02*
D03*
Y507750D02*
D03*
D242*
X2124000Y894000D02*
D03*
Y754000D02*
D03*
X1984000D02*
D03*
X1986250Y894500D02*
D03*
X1762000Y1010000D02*
D03*
Y104000D02*
D03*
X152000D02*
D03*
Y1010000D02*
D03*
D243*
X1574000Y140000D02*
D03*
X1596750Y93500D02*
D03*
X1585750Y103000D02*
D03*
X1548500Y65000D02*
D03*
X1569750Y66750D02*
D03*
X1521500Y503000D02*
D03*
X1587500Y637250D02*
D03*
X1524000Y625250D02*
D03*
X1446500Y624750D02*
D03*
X1447000Y502750D02*
D03*
X1120500Y705000D02*
D03*
X1660000Y781500D02*
D03*
X1171000Y584250D02*
D03*
X1179000Y567500D02*
D03*
X1176750Y575750D02*
D03*
X993250Y224750D02*
D03*
X1794750Y807250D02*
D03*
X1025000Y451500D02*
D03*
X1026000Y29000D02*
D03*
X456000Y705000D02*
D03*
X1161000Y660000D02*
D03*
X1122000Y696000D02*
D03*
X953000Y481250D02*
D03*
X1051250Y71750D02*
D03*
X1621000Y94000D02*
D03*
X1626000Y139000D02*
D03*
X1657000Y155000D02*
D03*
X1583000Y269000D02*
D03*
X1630000Y257000D02*
D03*
X1746000Y767000D02*
D03*
X1759000Y768000D02*
D03*
X1635000Y738000D02*
D03*
X1672000Y780750D02*
D03*
X1681250Y737000D02*
D03*
X1698250Y692750D02*
D03*
X1691500Y721500D02*
D03*
X1790500Y702750D02*
D03*
X1769250Y716000D02*
D03*
X1768750Y735500D02*
D03*
X1769000Y725500D02*
D03*
X1054750Y450750D02*
D03*
X1072000Y476000D02*
D03*
X1123000Y487000D02*
D03*
X1053000Y534000D02*
D03*
X1041000Y517000D02*
D03*
X1059000Y519000D02*
D03*
X1039000Y499000D02*
D03*
X1012000Y433000D02*
D03*
X1045000Y487000D02*
D03*
X1053000Y468000D02*
D03*
X990000Y439000D02*
D03*
X1038000Y539000D02*
D03*
X1004000Y581000D02*
D03*
X1072000Y563000D02*
D03*
X1122000Y573000D02*
D03*
Y559000D02*
D03*
X1138000Y626000D02*
D03*
X1257000Y696750D02*
D03*
X1273000D02*
D03*
X1129000Y247000D02*
D03*
X1499000Y163000D02*
D03*
X1511000Y151000D02*
D03*
X1510250Y128250D02*
D03*
X1492750Y131750D02*
D03*
X1507750Y27750D02*
D03*
X1639000Y58000D02*
D03*
X1702000Y76000D02*
D03*
X1713000Y384000D02*
D03*
Y352750D02*
D03*
X1714000Y334000D02*
D03*
X1716750Y251500D02*
D03*
X1714000Y283000D02*
D03*
X1686000Y301000D02*
D03*
X1093000Y45750D02*
D03*
X1097000Y77750D02*
D03*
X1285000Y165000D02*
D03*
X1288000Y217000D02*
D03*
X1257000Y218000D02*
D03*
X1338000Y212000D02*
D03*
X1551000Y252000D02*
D03*
X1550000Y235000D02*
D03*
X1581500Y205750D02*
D03*
X1612000Y218000D02*
D03*
Y235000D02*
D03*
X1671000Y332000D02*
D03*
X1630000Y333500D02*
D03*
Y286000D02*
D03*
X1641000D02*
D03*
X1663000Y277000D02*
D03*
X1671000Y269000D02*
D03*
X1662000Y260000D02*
D03*
X1671000Y253000D02*
D03*
X1662000Y243000D02*
D03*
X1671000Y235000D02*
D03*
X1662000Y226000D02*
D03*
X1671500Y218000D02*
D03*
X1661250Y209750D02*
D03*
X1672000Y201500D02*
D03*
X1661000Y195500D02*
D03*
X1660250Y185500D02*
D03*
X1660750Y175250D02*
D03*
X1619000Y322750D02*
D03*
X1321750Y216750D02*
D03*
X1297000Y171000D02*
D03*
X1311500Y147500D02*
D03*
X1607500Y257000D02*
D03*
X1550000Y219250D02*
D03*
X1501250Y304250D02*
D03*
X1539250Y323250D02*
D03*
X1859000Y682750D02*
D03*
X1793750Y692500D02*
D03*
X1579250Y472500D02*
D03*
X1580000Y419500D02*
D03*
X1524750Y448250D02*
D03*
X1483750Y451750D02*
D03*
X1484000Y438500D02*
D03*
X1495000Y423000D02*
D03*
X1497750Y411500D02*
D03*
X1450750Y354500D02*
D03*
X1451250Y374750D02*
D03*
X1446750Y425750D02*
D03*
X900750Y508750D02*
D03*
X900500Y524500D02*
D03*
X1286250Y498250D02*
D03*
X1287500Y510250D02*
D03*
X1627750Y706500D02*
D03*
X1642000Y680500D02*
D03*
X1638250Y666500D02*
D03*
X1603500Y636500D02*
D03*
X1607250Y528750D02*
D03*
X1633500Y521000D02*
D03*
X1628250Y570000D02*
D03*
X1691500Y594250D02*
D03*
X1728250Y588250D02*
D03*
X1786500Y587250D02*
D03*
X1759500Y630000D02*
D03*
X1793750Y609500D02*
D03*
X1769250Y806500D02*
D03*
X1780750D02*
D03*
X1547250Y708500D02*
D03*
X1516000Y708250D02*
D03*
X1450750Y721750D02*
D03*
X1231000Y665000D02*
D03*
X1306000Y723750D02*
D03*
X1305250Y702250D02*
D03*
X1308750Y668000D02*
D03*
X1289000Y818000D02*
D03*
X1305500Y780500D02*
D03*
X1207750Y769750D02*
D03*
X1119250Y819000D02*
D03*
X1134500Y777750D02*
D03*
X1089750Y788500D02*
D03*
X1054250Y790250D02*
D03*
X1019250Y789000D02*
D03*
X984250Y790500D02*
D03*
X949750Y790250D02*
D03*
X943350Y819750D02*
D03*
X772250Y817000D02*
D03*
X716250Y532750D02*
D03*
Y551250D02*
D03*
Y568500D02*
D03*
X1492000Y147500D02*
D03*
X1443250Y149500D02*
D03*
X1623750D02*
D03*
X1615500Y155750D02*
D03*
X1201250Y75750D02*
D03*
X1361750Y65750D02*
D03*
X1354000Y75250D02*
D03*
X1262250Y179000D02*
D03*
X1311250Y166500D02*
D03*
X860750Y18500D02*
D03*
X881500Y20250D02*
D03*
X902000Y20500D02*
D03*
X924500Y19750D02*
D03*
X944000Y22000D02*
D03*
X987250Y21500D02*
D03*
X1069750Y350500D02*
D03*
X994000Y337250D02*
D03*
X868750Y350250D02*
D03*
X322750Y706500D02*
D03*
X463250Y752250D02*
D03*
X527000Y745750D02*
D03*
X536500Y733250D02*
D03*
X545750Y739750D02*
D03*
X621750Y746000D02*
D03*
X724250Y735250D02*
D03*
X714500Y745250D02*
D03*
X629000Y732750D02*
D03*
X638000Y740000D02*
D03*
X1222250Y343000D02*
D03*
X1184250D02*
D03*
X1105250Y371000D02*
D03*
X1042250Y369500D02*
D03*
X993750Y359000D02*
D03*
X942500Y373250D02*
D03*
X904000Y372250D02*
D03*
X1148000Y434750D02*
D03*
X1025250Y604250D02*
D03*
X1010250Y591250D02*
D03*
X980750Y546500D02*
D03*
X1038000Y528000D02*
D03*
X981750Y524500D02*
D03*
X985250Y485750D02*
D03*
X1036500Y480500D02*
D03*
X976750Y469500D02*
D03*
X984500Y476500D02*
D03*
X1027750Y421250D02*
D03*
X1168750Y301000D02*
D03*
X1150750Y300250D02*
D03*
X1133250Y300000D02*
D03*
X1115750Y287500D02*
D03*
X1111500Y311750D02*
D03*
X868000Y394500D02*
D03*
X850250Y396000D02*
D03*
X832000Y395500D02*
D03*
X868000Y473750D02*
D03*
X842500Y353500D02*
D03*
X842250Y272500D02*
D03*
X823750Y272250D02*
D03*
X805500Y272000D02*
D03*
D244*
X1211000Y478000D02*
D03*
X1191250Y485500D02*
D03*
X1046750Y411250D02*
D03*
X1055500Y406250D02*
D03*
X1031000Y383750D02*
D03*
X1056000Y290000D02*
D03*
X1163750Y669000D02*
D03*
X1275750Y462500D02*
D03*
X1831750Y714750D02*
D03*
X1838750D02*
D03*
X1845750D02*
D03*
X1852750D02*
D03*
Y721750D02*
D03*
Y728750D02*
D03*
X1901750Y749750D02*
D03*
X1894750D02*
D03*
X1852750Y735750D02*
D03*
X1859750D02*
D03*
X1866750D02*
D03*
X1873750D02*
D03*
X1880750D02*
D03*
X1887750D02*
D03*
X1852500Y777000D02*
D03*
X1859500D02*
D03*
X1866500D02*
D03*
Y770000D02*
D03*
Y763000D02*
D03*
X1859500D02*
D03*
X1852500D02*
D03*
X1845500D02*
D03*
X1838500D02*
D03*
X1831500D02*
D03*
X1900000Y817500D02*
D03*
X1893000D02*
D03*
X1886000D02*
D03*
X1879000D02*
D03*
X1872000D02*
D03*
X1865000D02*
D03*
X1077750Y543000D02*
D03*
X2058500Y821250D02*
D03*
X2030900Y832200D02*
D03*
X2074750Y802000D02*
D03*
X1994000Y824750D02*
D03*
X1735500Y946750D02*
D03*
Y939750D02*
D03*
Y953750D02*
D03*
Y960750D02*
D03*
Y967750D02*
D03*
Y974750D02*
D03*
X1728500Y946750D02*
D03*
Y939750D02*
D03*
Y953750D02*
D03*
Y960750D02*
D03*
Y967750D02*
D03*
Y974750D02*
D03*
X1721500Y946750D02*
D03*
Y939750D02*
D03*
Y953750D02*
D03*
Y960750D02*
D03*
Y967750D02*
D03*
Y974750D02*
D03*
X1707500D02*
D03*
X1714500D02*
D03*
X1707500Y967750D02*
D03*
X1714500D02*
D03*
X1707500Y960750D02*
D03*
X1714500D02*
D03*
X1707500Y953750D02*
D03*
X1714500D02*
D03*
Y939750D02*
D03*
Y946750D02*
D03*
X1707500D02*
D03*
Y939750D02*
D03*
X1854250Y835500D02*
D03*
Y842500D02*
D03*
X1861250Y835500D02*
D03*
Y842500D02*
D03*
X1868250Y835500D02*
D03*
Y842500D02*
D03*
X1875250Y835500D02*
D03*
Y842500D02*
D03*
Y828500D02*
D03*
X1868250D02*
D03*
X1861250D02*
D03*
X1854250D02*
D03*
X1819250D02*
D03*
X1812250D02*
D03*
X1826250D02*
D03*
X1833250D02*
D03*
X1840250D02*
D03*
X1847250D02*
D03*
Y842500D02*
D03*
Y835500D02*
D03*
X1840250Y842500D02*
D03*
Y835500D02*
D03*
X1833250Y842500D02*
D03*
Y835500D02*
D03*
X1826250Y842500D02*
D03*
Y835500D02*
D03*
X1812250D02*
D03*
X1819250D02*
D03*
Y842500D02*
D03*
X1812250D02*
D03*
X739000Y504000D02*
D03*
X732000D02*
D03*
X725000D02*
D03*
X739000Y497000D02*
D03*
X732000D02*
D03*
X725000D02*
D03*
X739000Y490000D02*
D03*
X732000D02*
D03*
X725000D02*
D03*
X697000D02*
D03*
X690000D02*
D03*
X704000D02*
D03*
X711000D02*
D03*
X718000D02*
D03*
X697000Y497000D02*
D03*
X690000D02*
D03*
X704000D02*
D03*
X711000D02*
D03*
X718000D02*
D03*
X697000Y504000D02*
D03*
X690000D02*
D03*
X704000D02*
D03*
X711000D02*
D03*
X718000D02*
D03*
X1045000Y614000D02*
D03*
X1658000Y105000D02*
D03*
X741000Y343000D02*
D03*
X748000D02*
D03*
X733000Y343000D02*
D03*
X719000Y343000D02*
D03*
X726000D02*
D03*
X711000Y343000D02*
D03*
X696000Y343000D02*
D03*
X703000D02*
D03*
X688000Y343000D02*
D03*
X716000Y321000D02*
D03*
Y328000D02*
D03*
Y335000D02*
D03*
X731000Y335000D02*
D03*
Y328000D02*
D03*
Y321000D02*
D03*
X724000D02*
D03*
Y328000D02*
D03*
Y335000D02*
D03*
X731000Y314000D02*
D03*
Y307000D02*
D03*
Y300000D02*
D03*
X724000D02*
D03*
Y307000D02*
D03*
Y314000D02*
D03*
X674000Y322000D02*
D03*
X667000D02*
D03*
X660000D02*
D03*
Y329000D02*
D03*
X667000D02*
D03*
X674000D02*
D03*
X787000Y415000D02*
D03*
X794000D02*
D03*
X780000D02*
D03*
X787000Y408000D02*
D03*
X794000D02*
D03*
X780000D02*
D03*
X742000Y237000D02*
D03*
Y230000D02*
D03*
Y244000D02*
D03*
Y251000D02*
D03*
Y258000D02*
D03*
Y265000D02*
D03*
X735000Y237000D02*
D03*
Y230000D02*
D03*
Y244000D02*
D03*
Y251000D02*
D03*
Y258000D02*
D03*
Y265000D02*
D03*
X728000Y237000D02*
D03*
Y230000D02*
D03*
Y244000D02*
D03*
Y251000D02*
D03*
Y258000D02*
D03*
Y265000D02*
D03*
X721000D02*
D03*
Y258000D02*
D03*
Y251000D02*
D03*
Y244000D02*
D03*
Y230000D02*
D03*
Y237000D02*
D03*
X770000D02*
D03*
Y230000D02*
D03*
Y244000D02*
D03*
Y251000D02*
D03*
Y258000D02*
D03*
Y265000D02*
D03*
X763000Y237000D02*
D03*
Y230000D02*
D03*
Y244000D02*
D03*
Y251000D02*
D03*
Y258000D02*
D03*
Y265000D02*
D03*
X756000Y237000D02*
D03*
Y230000D02*
D03*
Y244000D02*
D03*
Y251000D02*
D03*
Y258000D02*
D03*
Y265000D02*
D03*
X749000D02*
D03*
Y258000D02*
D03*
Y251000D02*
D03*
Y244000D02*
D03*
Y230000D02*
D03*
Y237000D02*
D03*
X668000Y393000D02*
D03*
X661000D02*
D03*
X675000D02*
D03*
X682000D02*
D03*
X689000D02*
D03*
X696000D02*
D03*
Y386000D02*
D03*
X689000D02*
D03*
X682000D02*
D03*
X675000D02*
D03*
X661000D02*
D03*
X668000D02*
D03*
X696000Y379000D02*
D03*
X689000D02*
D03*
X682000D02*
D03*
X675000D02*
D03*
X661000D02*
D03*
X668000D02*
D03*
X696000Y372000D02*
D03*
X689000D02*
D03*
X682000D02*
D03*
X675000D02*
D03*
X661000D02*
D03*
X668000D02*
D03*
X691000Y409000D02*
D03*
Y416000D02*
D03*
X698000D02*
D03*
Y409000D02*
D03*
Y423000D02*
D03*
X691000D02*
D03*
X698000Y430000D02*
D03*
X691000D02*
D03*
X698000Y437000D02*
D03*
X691000D02*
D03*
X698000Y444000D02*
D03*
X691000D02*
D03*
X705000D02*
D03*
Y437000D02*
D03*
Y430000D02*
D03*
Y423000D02*
D03*
Y409000D02*
D03*
Y416000D02*
D03*
X712000Y444000D02*
D03*
Y437000D02*
D03*
Y430000D02*
D03*
Y423000D02*
D03*
Y409000D02*
D03*
Y416000D02*
D03*
X719000Y444000D02*
D03*
Y437000D02*
D03*
Y430000D02*
D03*
Y423000D02*
D03*
Y409000D02*
D03*
Y416000D02*
D03*
X1798000Y941000D02*
D03*
Y948000D02*
D03*
Y934000D02*
D03*
Y927000D02*
D03*
Y969000D02*
D03*
Y976000D02*
D03*
Y962000D02*
D03*
Y955000D02*
D03*
X1782000Y976000D02*
D03*
X1789000D02*
D03*
X1775000D02*
D03*
X1768000D02*
D03*
X1782000Y970000D02*
D03*
X1789000D02*
D03*
X1775000D02*
D03*
X1768000D02*
D03*
X1782000Y964000D02*
D03*
X1789000D02*
D03*
X1775000D02*
D03*
X1768000D02*
D03*
X1768000Y944000D02*
D03*
Y937000D02*
D03*
Y951000D02*
D03*
Y958000D02*
D03*
Y916000D02*
D03*
Y909000D02*
D03*
Y923000D02*
D03*
Y930000D02*
D03*
X1843000Y870000D02*
D03*
X1836000D02*
D03*
X1850000D02*
D03*
X1816000D02*
D03*
X1809000D02*
D03*
X1823000D02*
D03*
X1830000D02*
D03*
X1862000Y887000D02*
D03*
X1869000D02*
D03*
X1876000D02*
D03*
X1862000Y893000D02*
D03*
X1869000D02*
D03*
X1876000D02*
D03*
X1876000Y900000D02*
D03*
X1869000D02*
D03*
X1862000D02*
D03*
X1848000D02*
D03*
X1855000D02*
D03*
X1841000D02*
D03*
X1834000D02*
D03*
X1827000D02*
D03*
X1813000D02*
D03*
X1820000D02*
D03*
X1782000Y898000D02*
D03*
X1789000D02*
D03*
Y891000D02*
D03*
X1782000D02*
D03*
X1796000D02*
D03*
Y898000D02*
D03*
X1803000Y891000D02*
D03*
Y898000D02*
D03*
Y884000D02*
D03*
X1796000D02*
D03*
X1782000D02*
D03*
X1789000D02*
D03*
X1803000Y877000D02*
D03*
X1796000D02*
D03*
X1782000D02*
D03*
X1789000D02*
D03*
X1803000Y870000D02*
D03*
X1796000D02*
D03*
X1782000D02*
D03*
X1789000D02*
D03*
X1814000Y814000D02*
D03*
X1821000D02*
D03*
Y807000D02*
D03*
X1814000D02*
D03*
X1828000D02*
D03*
Y814000D02*
D03*
X1835000Y807000D02*
D03*
Y814000D02*
D03*
X1842000Y807000D02*
D03*
Y814000D02*
D03*
X1849000Y807000D02*
D03*
Y814000D02*
D03*
Y800000D02*
D03*
X1842000D02*
D03*
X1835000D02*
D03*
X1828000D02*
D03*
X1814000D02*
D03*
X1821000D02*
D03*
X1849000Y793000D02*
D03*
X1842000D02*
D03*
X1835000D02*
D03*
X1828000D02*
D03*
X1814000D02*
D03*
X1821000D02*
D03*
X1849000Y786000D02*
D03*
X1842000D02*
D03*
X1835000D02*
D03*
X1828000D02*
D03*
X1814000D02*
D03*
X1821000D02*
D03*
X695000Y314000D02*
D03*
X688000D02*
D03*
X681000D02*
D03*
X674000D02*
D03*
X667000D02*
D03*
X660000D02*
D03*
X702000D02*
D03*
X709000D02*
D03*
X716000D02*
D03*
Y279000D02*
D03*
Y286000D02*
D03*
Y293000D02*
D03*
Y307000D02*
D03*
Y300000D02*
D03*
X709000Y279000D02*
D03*
Y286000D02*
D03*
Y293000D02*
D03*
Y307000D02*
D03*
Y300000D02*
D03*
X702000Y279000D02*
D03*
Y286000D02*
D03*
Y293000D02*
D03*
Y307000D02*
D03*
Y300000D02*
D03*
X660000Y307000D02*
D03*
X667000D02*
D03*
Y300000D02*
D03*
X660000D02*
D03*
X674000D02*
D03*
Y307000D02*
D03*
X681000Y300000D02*
D03*
Y307000D02*
D03*
X688000Y300000D02*
D03*
Y307000D02*
D03*
X695000Y300000D02*
D03*
Y307000D02*
D03*
Y293000D02*
D03*
X688000D02*
D03*
X681000D02*
D03*
X674000D02*
D03*
X660000D02*
D03*
X667000D02*
D03*
X695000Y286000D02*
D03*
X688000D02*
D03*
X681000D02*
D03*
X674000D02*
D03*
X660000D02*
D03*
X667000D02*
D03*
X695000Y279000D02*
D03*
X688000D02*
D03*
X681000D02*
D03*
X674000D02*
D03*
X660000D02*
D03*
X667000D02*
D03*
X1721000Y862250D02*
D03*
Y878750D02*
D03*
X1721000Y870750D02*
D03*
X1757000Y751000D02*
D03*
X1740250Y750000D02*
D03*
X1700000Y932500D02*
D03*
X1684500D02*
D03*
X1717000D02*
D03*
X1684000Y853500D02*
D03*
X1750750Y867000D02*
D03*
X1735000Y888500D02*
D03*
X1698250Y845250D02*
D03*
X1697750Y874250D02*
D03*
X1706750Y888750D02*
D03*
X1043000Y199000D02*
D03*
X1033000Y209000D02*
D03*
X1043000D02*
D03*
X1033000Y219000D02*
D03*
X1043000D02*
D03*
X1053000Y209000D02*
D03*
Y219000D02*
D03*
Y199000D02*
D03*
X1033000D02*
D03*
X831250Y454000D02*
D03*
X831247Y462693D02*
D03*
X831250Y471250D02*
D03*
X823500Y443250D02*
D03*
X804000Y323000D02*
D03*
Y332750D02*
D03*
Y342500D02*
D03*
X1161000Y278000D02*
D03*
X1143000Y277000D02*
D03*
X1122000Y273000D02*
D03*
X1699000Y741000D02*
D03*
X1707000Y690000D02*
D03*
X321000Y834000D02*
D03*
Y734000D02*
D03*
X616000Y913000D02*
D03*
X427000D02*
D03*
X520000D02*
D03*
X1043000Y836000D02*
D03*
X1044000Y867000D02*
D03*
X1214000D02*
D03*
X1227000Y835000D02*
D03*
X1385000Y867000D02*
D03*
X1398000Y835000D02*
D03*
X871250Y865000D02*
D03*
X875500Y824250D02*
D03*
X1249750Y462500D02*
D03*
X1135000Y452250D02*
D03*
X1075750Y414500D02*
D03*
X1201750Y156000D02*
D03*
X1653250Y769000D02*
D03*
X1683750Y779500D02*
D03*
X1726000Y746250D02*
D03*
X1644750Y825750D02*
D03*
X1643250Y806750D02*
D03*
X1689500Y806500D02*
D03*
X1689750Y825500D02*
D03*
X1045044Y384581D02*
D03*
X1115000Y631250D02*
D03*
X1129436Y672750D02*
D03*
X1139250Y538500D02*
D03*
X1074750Y574750D02*
D03*
X1140000Y614250D02*
D03*
X1154700Y613950D02*
D03*
X1521750Y178750D02*
D03*
X1500500Y199000D02*
D03*
X1639250Y184250D02*
D03*
X1019500Y379750D02*
D03*
X1031250Y413250D02*
D03*
X1040250Y415750D02*
D03*
X982750Y507500D02*
D03*
X1065000Y553250D02*
D03*
X1055000Y552250D02*
D03*
X1124500Y660000D02*
D03*
X1125000Y608000D02*
D03*
X1129750Y617064D02*
D03*
X1123373Y678000D02*
D03*
X852247Y459693D02*
D03*
X855247Y465693D02*
D03*
X852497Y452943D02*
D03*
X807497Y459443D02*
D03*
X828500Y336000D02*
D03*
X828000Y323000D02*
D03*
X781750D02*
D03*
Y329500D02*
D03*
X828250D02*
D03*
D245*
X1572500Y538000D02*
Y708250D01*
X1550988Y729762D02*
Y754012D01*
X1548900Y756100D02*
X1550988Y754012D01*
Y729762D02*
X1572500Y708250D01*
Y538000D02*
X1623700Y486800D01*
X1787500D01*
X1351100Y754600D02*
X1438000D01*
X1347000Y750500D02*
X1351100Y754600D01*
X1438000D02*
X1439500Y756100D01*
X1459600D01*
X1485250Y781750D01*
X1538684D01*
X1548900Y771534D01*
Y756100D02*
Y771534D01*
D246*
X482750Y732250D02*
X524000Y773500D01*
X867500D01*
X482750Y538000D02*
Y732250D01*
X890500Y750500D02*
X1347000D01*
X867500Y773500D02*
X890500Y750500D01*
X587250Y260750D02*
X732500D01*
X482750Y538000D02*
X535500Y485250D01*
Y312500D02*
Y485250D01*
Y312500D02*
X587250Y260750D01*
M02*
