M48
;Layer_Color=9474304
;FILE_FORMAT=4:2
METRIC,LZ
;TYPE=PLATED
T1F00S00C0.20
T2F00S00C0.30
T4F00S00C0.40
T5F00S00C1.00
T6F00S00C1.10
T7F00S00C1.20
T8F00S00C1.30
T9F00S00C1.50
T10F00S00C1.80
T11F00S00C3.30
;TYPE=NON_PLATED
T12F00S00C1.00
%
T01
X01658Y00105
X016393Y001842
X015218Y001788
X015005Y00199
X012018Y00156
X01161Y00278
X01143Y00277
X01122Y00273
X01056Y0029
X01053Y00219
X01043
Y00209
Y00199
X01053
Y00209
X01033
Y00219
Y00199
X01031Y003838
X01045Y003846
X010468Y004112
X010403Y004158
X010312Y004133
X010555Y004062
X010757Y004145
X010195Y003797
X009828Y005075
X01135Y004522
X011912Y004855
X01211Y00478
X012497Y004625
X012757Y004625
X008552Y004657
X008522Y004597
X008525Y004529
X008312Y00454
X008312Y004627
X008312Y004712
X008075Y004594
X008235Y004433
X00794Y00415
X00787
X0078
Y00408
X00787
X00794
X00804Y003425
Y003328
Y00323
X007818
Y003295
X008282
X008285Y00336
X00828Y00323
X00731Y00321
Y00314
Y00307
Y003
X00724
Y00307
Y00314
Y00321
Y00328
X00731
Y00335
X00724
X00716Y00335
Y00328
Y00321
Y00314
X00709
X00702
X00695
X00688
X00681
X00674
X00667
X0066
Y00307
X00667
Y003
X0066
Y00293
X00667
X00674
Y003
Y00307
X00681
Y003
X00688
Y00307
X00695
X00702
X00709
X00716
Y003
Y00293
Y00286
Y00279
X00709
Y00286
Y00293
Y003
X00702
Y00293
Y00286
Y00279
X00695
Y00286
Y00293
Y003
X00688Y00293
X00681
Y00286
X00688
Y00279
X00681
X00674
Y00286
X00667
X0066
Y00279
X00667
X00667Y00322
X00674
Y00329
X00667
X0066
Y00322
X00688Y00343
X00696Y00343
X00703
X00711Y00343
X00719Y00343
X00726
X00733Y00343
X00741Y00343
X00748
X00749Y00265
X00742
Y00258
X00749
X00756
X00763
X0077
Y00251
Y00244
Y00237
Y0023
X00763
Y00237
Y00244
Y00251
X00756
Y00244
Y00237
Y0023
X00749
X00742
Y00237
X00749
Y00244
X00742
Y00251
X00749
X00735
Y00244
Y00237
Y0023
X00728
Y00237
Y00244
Y00251
Y00258
X00735
Y00265
X00728
X00721
Y00258
Y00251
Y00244
Y00237
Y0023
X00756Y00265
X00763
X0077
X00696Y00372
Y00379
Y00386
Y00393
X00689
X00682
X00675
X00668
X00661
Y00386
X00668
X00675
X00682
X00689
Y00379
X00682
X00675
X00668
X00661
Y00372
X00668
X00675
X00682
X00689
X00691Y00409
Y00416
X00698
Y00409
X00705
Y00416
Y00423
X00698
X00691
Y0043
X00698
Y00437
X00691
Y00444
X00698
X00705
Y00437
Y0043
X00712
Y00437
Y00444
X00719
Y00437
Y0043
Y00423
X00712
Y00416
Y00409
X00719
Y00416
X00718Y0049
X00725
Y00497
Y00504
X00732
X00739
Y00497
X00732
Y0049
X00739
X00711
X00704
X00697
X0069
Y00497
X00697
X00704
X00711
X00718
Y00504
X00711
X00704
X00697
X0069
X0052Y00913
X00427
X00321Y00834
Y00734
X00616Y00913
X008712Y00865
X008755Y008243
X01043Y00836
X01044Y00867
X01214
X01227Y00835
X011638Y00669
X011294Y006728
X011234Y00678
X011245Y0066
X01115Y006312
X011297Y006171
X0114Y006142
X011547Y00614
X01125Y00608
X010747Y005747
X01065Y005533
X01055Y005522
X010778Y00543
X011393Y005385
X01045Y00614
X01398Y00835
X01385Y00867
X016448Y008257
X016432Y008068
X016895Y008065
X016898Y008255
X016982Y008453
X01684Y008535
X016977Y008743
X017068Y008888
X01721Y008788
X01721Y008707
X01721Y008622
X016838Y007795
X016532Y00769
X01699Y00741
X01707Y0069
X01726Y007462
X017402Y0075
X01757Y00751
X018315Y00763
X018385
X018455
X018525
X018595
X018665
Y0077
Y00777
X018595
X018525
X01849Y00786
Y00793
Y008
Y00807
X01842
X01835
X01828
X01821
Y00814
X01814
Y00807
Y008
X01821
X01828
X01835
X01842
Y00793
X01835
X01828
X01821
X01814
Y00786
X01821
X01828
X01835
X01842
Y00814
X01835
X01828
X018262Y008285
X018193
X018123
Y008355
X018193
X018262
X018332
Y008285
X018402
X018473
X018543
Y008355
Y008425
X018613
Y008355
X018683
Y008425
X018753
Y008355
Y008285
X018683
X018613
X01865Y008175
X01872
X01879
X01886
X01893
X019
X01849Y00814
X018473Y008355
Y008425
X018402
Y008355
X018332Y008425
X018262
X018193
X018123
X01809Y0087
X01803Y0087
Y00877
Y00884
Y00891
X01796
X01789
Y00898
X01782
Y00891
Y00884
X01789
X01796
Y00877
X01789
X01782
Y0087
X01789
X01796
X01816Y0087
X01823
X0183
X01836
X01843
X0185
X01862Y00887
Y00893
X01869
Y00887
X01876
Y00893
X01876Y009
X01869
X01862
X01855
X01848
X01841
X01834
X01827
X0182
X01813
X01803Y00898
X01796
X01798Y00927
X01768Y0093
Y00923
Y00916
Y00909
X01735Y008885
X017507Y00867
X018318Y007147
X018388
X018457
X018527
Y007218
Y007288
Y007357
X018598
X018668
X018738
X018807
X018877
X018948Y007497
X019018
X01994Y008247
X020309Y008322
X020585Y008212
X020748Y00802
X01798Y00934
Y00941
Y00948
Y00955
Y00962
Y00969
Y00976
X01789
Y0097
Y00964
X01782
Y0097
Y00976
X01775
Y0097
Y00964
X01768
Y0097
Y00976
X01768Y00958
Y00951
Y00944
Y00937
X017355Y009397
Y009468
Y009538
Y009607
Y009678
Y009747
X017285
Y009678
Y009607
Y009538
Y009468
Y009397
X017215
Y009468
Y009538
Y009607
Y009678
Y009747
X017145
X017075
Y009678
X017145
Y009607
X017075
Y009538
X017145
Y009468
Y009397
X017075
Y009468
X017Y009325
X016845
X01717
T02
X008607Y000185
X008815Y000203
X00902Y000205
X009245Y000198
X00944Y00022
X009872Y000215
X01026Y00029
X010512Y000718
X01097Y000778
X01093Y000457
X012012Y000757
X01354Y000753
X013618Y000657
X015077Y000278
X015485Y00065
X015698Y000668
X015857Y00103
X015968Y000935
X01621Y00094
X01639Y00058
X01702Y00076
X015102Y001282
X014928Y001318
X01492Y001475
X01499Y00163
X01511Y00151
X014432Y001495
X01574Y0014
X01626Y00139
X016238Y001495
X016155Y001557
X01657Y00155
X016607Y001752
X016602Y001855
X01661Y001955
X016612Y002098
X01662Y00226
Y00243
Y0026
X01671Y00253
Y00269
X01663Y00277
X01641Y00286
X0163
Y00257
X016075
X01612Y00235
Y00218
X015815Y002058
X0155Y002192
Y00235
X01551Y00252
X01583Y00269
X01619Y003228
X0163Y003335
X01671Y00332
X01714Y00334
X01713Y003528
Y00384
X01714Y00283
X017168Y002515
X01671Y00235
X016715Y00218
X01672Y002015
X01686Y00301
X015393Y003233
X015012Y003042
X014507Y003545
X014512Y003747
X014468Y004258
X01484Y004385
X014838Y004517
X01495Y00423
X014977Y004115
X015248Y004483
X015215Y00503
X01447Y005028
X015793Y004725
X0158Y004195
X016073Y005288
X016335Y00521
X01338Y00212
X013218Y002167
X01288Y00217
X01257Y00218
X012622Y00179
X01285Y00165
X01297Y00171
X013112Y001665
X013115Y001475
X01129Y00247
X011157Y002875
X011115Y003117
X011332Y003
X011507Y003002
X011688Y00301
X011843Y00343
X012222
X011053Y00371
X010697Y003505
X010422Y003695
X009938Y00359
X00994Y003372
X009425Y003733
X0099Y00439
X01012Y00433
X010278Y004212
X01025Y004515
X010547Y004508
X01053Y00468
X01072Y00476
X01045Y00487
X010365Y004805
X01039Y00499
X01041Y00517
X01038Y00528
X01059Y00519
X009818Y005245
X009853Y004858
X009845Y004765
X009768Y004695
X00953Y004812
X01123Y00487
X01148Y004347
X012862Y004983
X012875Y005103
X009932Y002248
X008422Y002725
X008238Y002723
X008055Y00272
X008425Y003535
X008688Y003503
X00868Y003945
X008503Y00396
X00832Y003955
X00904Y003722
X00868Y004738
X009007Y005088
X009005Y005245
X007162Y005328
X00527Y007457
X004633Y007522
X00456Y00705
X003228Y007065
X005365Y007332
X005458Y007397
X006217Y00746
X00629Y007328
X00638Y0074
X007145Y007453
X007243Y007353
X007722Y00817
X007162Y005685
Y005512
X009807Y005465
X01004Y00581
X010103Y005912
X010253Y006042
X01038Y00539
X01053Y00534
X01072Y00563
X01122Y00559
Y00573
X011768Y005758
X01179Y005675
X01171Y005842
X01138Y00626
X01161Y0066
X01122Y00696
X011205Y00705
X011345Y007778
X010897Y007885
X010543Y007903
X010193Y00789
X009843Y007905
X009497Y007903
X009434Y008197
X011193Y00819
X012078Y007697
X013055Y007805
X01289Y00818
X01306Y007238
X013052Y007022
X01273Y006968
X01257
X01231Y00665
X013088Y00668
X014465Y006247
X01524Y006253
X015875Y006372
X016035Y006365
X016382Y006665
X01642Y006805
X016277Y007065
X01635Y00738
X016812Y00737
X016915Y007215
X016982Y006928
X016915Y005942
X016282Y0057
X015473Y007085
X01516Y007082
X014507Y007218
X0166Y007815
X01672Y007807
X01746Y00767
X01759Y00768
X017688Y007355
X01769Y007255
X017693Y00716
X017905Y007028
X017938Y006925
X01859Y006828
X017938Y006095
X017865Y005872
X017282Y005883
X017595Y0063
X017693Y008065
X017807
X017948Y008072
T04
X014445Y001792
X014575
X014705
X01464Y001892
X01451
T05
X0136Y001028
Y001282
X01735Y001614
X017604
Y001867
X01735
X017004
X01675
Y001614
X017004
X013952Y001624
Y00137
X0136Y001624
Y001878
X00699Y00184
Y00234
X00578Y00176
X0063Y00498
X0048
X003185Y00511
X00428Y00176
X00084Y00257
Y00307
X00077Y00507
Y00607
X00105Y00715
X00155
X003185Y00611
X003455Y00855
X004205
T06
X011261Y000787
Y001041
Y001295
X011515
Y001041
Y000787
Y001549
X011261
X011953Y005631
X012207
Y005885
X011953
Y00614
X012207
Y006394
X011953
T07
X017368Y002539
Y002792
Y003047
Y003301
Y003554
Y003808
X017876
Y003554
Y003301
Y003047
Y002792
Y002539
X017875Y00436
Y004614
Y004868
Y005122
X017367
Y004868
Y004614
Y00436
X00281Y00912
X00179Y00926
X008825Y006957
Y006703
Y006449
Y006194
Y00594
X009333
Y006194
Y006449
Y006703
Y006957
X017367Y005376
X017875
T08
X0027Y005078
X0012
Y006078
X0027
X01438Y007546
X015142
X015504
X016266
Y008562
X015142
X015504Y00907
X01438
X015142Y009324
X016266
T09
X006192Y002318
Y003334
Y00435
X00162Y004096
Y00308
Y002572
X013457Y009718
X013965
X014473
X01498
X015488
Y01048
X01498
X014473
X013965
X013457
X012949
X01244
X011932
Y009718
X01244
X012949
X010839Y009718
X010331
X009822
X009314
Y01048
X009822
X010331
X010839
X008807
X008299
X00779
X007282
Y009718
X00779
X008299
X008807
X006056Y00972
X005549
Y010482
X006056
X00504
X004533
X004024
X003517
X003008
X0025
Y00972
X003008
X003517
X004024
X004533
X00504
T10
X00166Y00874
X00266Y00854
T11
X00152Y00104
X01762
X01984Y00754
X019863Y008945
X02124Y00894
Y00754
X01762Y0101
X00152
T12
X01924Y007553
Y007732
Y007912
Y008093
Y008272
Y008452
Y008632
Y008812
Y008992
M30
