G04*
G04 #@! TF.GenerationSoftware,Altium Limited,Altium Designer,23.0.1 (38)*
G04*
G04 Layer_Physical_Order=1*
G04 Layer_Color=255*
%FSLAX44Y44*%
%MOMM*%
G71*
G04*
G04 #@! TF.SameCoordinates,7681B053-B415-4EDE-A76C-09C314C6D952*
G04*
G04*
G04 #@! TF.FilePolarity,Positive*
G04*
G01*
G75*
%ADD10C,0.2500*%
%ADD12C,0.5000*%
%ADD13C,0.2000*%
%ADD14C,0.3000*%
%ADD15C,1.0000*%
%ADD17C,0.1500*%
%ADD161R,1.6500X0.3500*%
%ADD162R,0.3500X1.6500*%
%ADD163R,0.4500X1.8000*%
%ADD164R,1.1500X1.1000*%
%ADD165R,2.3000X0.7000*%
%ADD166R,0.7000X2.3000*%
%ADD167R,0.8000X1.8000*%
%ADD168R,1.8000X0.8000*%
%ADD169C,1.2000*%
%ADD170R,1.5500X1.0000*%
%ADD171R,1.0000X1.5500*%
%ADD172R,1.5000X0.8000*%
%ADD173R,1.5000X1.3000*%
%ADD174R,1.7500X0.7000*%
%ADD175R,1.4000X0.8000*%
%ADD176R,1.6000X2.0000*%
%ADD177R,2.0000X1.3500*%
%ADD178R,0.5000X1.8900*%
%ADD179R,0.9500X0.6700*%
%ADD180R,3.0000X1.0000*%
%ADD181R,3.0000X4.0000*%
%ADD182R,0.9100X1.2200*%
%ADD183R,0.6000X1.0000*%
G04:AMPARAMS|DCode=184|XSize=0.2mm|YSize=0.45mm|CornerRadius=0mm|HoleSize=0mm|Usage=FLASHONLY|Rotation=315.000|XOffset=0mm|YOffset=0mm|HoleType=Round|Shape=Rectangle|*
%AMROTATEDRECTD184*
4,1,4,-0.2298,-0.0884,0.0884,0.2298,0.2298,0.0884,-0.0884,-0.2298,-0.2298,-0.0884,0.0*
%
%ADD184ROTATEDRECTD184*%

G04:AMPARAMS|DCode=185|XSize=2.8mm|YSize=0.3mm|CornerRadius=0mm|HoleSize=0mm|Usage=FLASHONLY|Rotation=315.000|XOffset=0mm|YOffset=0mm|HoleType=Round|Shape=Rectangle|*
%AMROTATEDRECTD185*
4,1,4,-1.0960,0.8839,-0.8839,1.0960,1.0960,-0.8839,0.8839,-1.0960,-1.0960,0.8839,0.0*
%
%ADD185ROTATEDRECTD185*%

G04:AMPARAMS|DCode=186|XSize=0.3mm|YSize=0.45mm|CornerRadius=0mm|HoleSize=0mm|Usage=FLASHONLY|Rotation=315.000|XOffset=0mm|YOffset=0mm|HoleType=Round|Shape=Rectangle|*
%AMROTATEDRECTD186*
4,1,4,-0.2652,-0.0530,0.0530,0.2652,0.2652,0.0530,-0.0530,-0.2652,-0.2652,-0.0530,0.0*
%
%ADD186ROTATEDRECTD186*%

%ADD187R,0.8000X1.2000*%
%ADD188R,1.1000X1.1500*%
%ADD189R,2.4000X1.9000*%
%ADD190R,1.8000X1.3500*%
%ADD191R,1.8000X3.4000*%
%ADD192R,1.2500X2.7000*%
%ADD193R,0.5000X0.4000*%
%ADD194R,2.0000X4.2000*%
%ADD195R,1.3500X1.8000*%
%ADD196R,1.5000X2.5000*%
%ADD197R,1.0000X0.6000*%
%ADD198R,1.5500X1.2000*%
%ADD199R,1.0000X0.5800*%
%ADD200R,0.8000X0.4000*%
%ADD201R,0.4000X0.8000*%
%ADD202R,0.8000X0.8000*%
%ADD203R,0.8000X0.8000*%
%ADD204R,1.2000X1.2000*%
%ADD205R,1.2000X1.2000*%
%AMCUSTOMSHAPE206*
4,1,5,-0.6000,0.6000,-0.6000,-0.6000,0.6000,-0.6000,0.6000,0.0000,0.0000,0.6000,-0.6000,0.6000,0.0*%
%ADD206CUSTOMSHAPE206*%

%ADD207R,1.5000X0.4500*%
%ADD208R,0.6000X1.1000*%
%ADD209R,1.2000X1.5500*%
%ADD210R,0.6700X0.3000*%
%ADD211R,1.0000X1.0500*%
%ADD212R,1.0500X2.4000*%
%ADD213R,1.2000X0.8000*%
%ADD214R,2.0000X4.0000*%
%ADD215R,1.8000X2.1000*%
%ADD216R,0.7000X0.4000*%
%AMCUSTOMSHAPE217*
4,1,8,-0.8250,-0.7750,-1.3750,-0.7750,-1.3750,-1.1750,-0.8250,-1.1750,-0.8250,-1.4000,1.3750,-1.4000,1.3750,1.4000,-0.8250,1.4000,-0.8250,-0.7750,0.0*%
%ADD217CUSTOMSHAPE217*%

%ADD218R,2.5000X5.1000*%
%ADD219R,3.5000X1.4500*%
%ADD220R,0.8000X1.7000*%
%ADD221R,1.2200X0.9100*%
%ADD222R,2.8000X1.5000*%
%ADD223R,6.6000X6.3000*%
%ADD224R,2.1000X1.8000*%
%ADD225C,0.3810*%
%ADD226C,0.8000*%
%ADD227C,1.8000*%
%ADD228C,2.2000*%
%ADD229C,0.7000*%
%ADD230C,0.4000*%
%ADD231C,2.2000*%
%ADD232C,3.0000*%
%ADD233C,2.3000*%
%ADD234R,2.3000X2.3000*%
%ADD235C,1.0000*%
%ADD236C,1.8000*%
%ADD237C,2.0000*%
%ADD238R,2.0000X2.0000*%
%ADD239O,0.6500X1.6500*%
%ADD240C,0.8000*%
%ADD241C,2.5000*%
%ADD242C,4.0000*%
%ADD243C,0.7000*%
%ADD244C,0.5000*%
G36*
X325000Y955000D02*
X305000Y935000D01*
X280000D01*
X200000Y855000D01*
X165000D01*
Y845000D01*
X150000Y830000D01*
Y823000D01*
X129000D01*
X126000Y820000D01*
Y729071D01*
Y690000D01*
X175000Y641000D01*
Y613000D01*
X183000Y605000D01*
Y594000D01*
X114000D01*
X113000Y593000D01*
X102000Y604000D01*
Y624000D01*
X80000Y646000D01*
Y704000D01*
Y727000D01*
Y845000D01*
X135000Y900000D01*
X205000D01*
X280000Y975000D01*
Y1065000D01*
X292320D01*
X292567Y1063754D01*
X292542Y1063744D01*
X289669Y1061824D01*
X287226Y1059381D01*
X285306Y1056508D01*
X283984Y1053316D01*
X283310Y1049928D01*
Y1049470D01*
X318390D01*
Y1049928D01*
X317716Y1053316D01*
X316394Y1056508D01*
X314474Y1059381D01*
X312031Y1061824D01*
X309158Y1063744D01*
X309133Y1063754D01*
X309380Y1065000D01*
X325000D01*
Y955000D01*
D02*
G37*
G36*
X1525000Y947500D02*
X1532500D01*
Y925000D01*
X1475000D01*
Y1067500D01*
X1525000D01*
Y947500D01*
D02*
G37*
G36*
X275000Y975000D02*
X205000Y905000D01*
X145000D01*
Y940000D01*
X225000Y1020000D01*
Y1065000D01*
X275000D01*
Y975000D01*
D02*
G37*
G36*
X1647500Y897500D02*
X1600000D01*
Y927500D01*
X1540000D01*
Y950000D01*
Y1067500D01*
X1647500D01*
Y897500D01*
D02*
G37*
G36*
X1802000Y905000D02*
X1887000D01*
Y880290D01*
X1880270D01*
Y872000D01*
X1877730D01*
Y880290D01*
X1864270D01*
Y872000D01*
X1863000D01*
Y870730D01*
X1854960D01*
Y865000D01*
X1776000D01*
Y869960D01*
X1777290D01*
Y876730D01*
X1769000D01*
Y879270D01*
X1777290D01*
Y885960D01*
Y892730D01*
X1769000D01*
Y894000D01*
X1767730D01*
Y902040D01*
X1763000D01*
Y980000D01*
X1802000D01*
Y905000D01*
D02*
G37*
G36*
X1467500Y915000D02*
X1567500D01*
Y880000D01*
X1422500D01*
Y1067500D01*
X1467500D01*
Y915000D01*
D02*
G37*
G36*
X1760000Y872625D02*
X1733000D01*
Y876000D01*
X1739000D01*
Y931000D01*
X1721471D01*
X1721000Y931704D01*
Y933296D01*
X1720391Y934766D01*
X1719266Y935891D01*
X1717796Y936500D01*
X1716204D01*
X1714734Y935891D01*
X1713609Y934766D01*
X1713000Y933296D01*
Y931704D01*
X1712529Y931000D01*
X1704471D01*
X1704000Y931704D01*
Y933296D01*
X1703391Y934766D01*
X1702266Y935891D01*
X1700796Y936500D01*
X1700750D01*
Y980000D01*
X1760000D01*
Y872625D01*
D02*
G37*
G36*
X1412000Y881000D02*
Y841000D01*
X1373750D01*
Y863500D01*
X1382000D01*
X1382000Y863500D01*
X1383230Y863404D01*
X1384204Y863000D01*
X1385796D01*
X1387266Y863609D01*
X1388391Y864734D01*
X1389000Y866204D01*
Y867796D01*
X1388391Y869266D01*
X1387266Y870391D01*
X1385796Y871000D01*
X1384204D01*
X1383230Y870596D01*
X1382000Y870500D01*
X1382000Y870500D01*
X1382000Y870500D01*
X1373750D01*
Y1065000D01*
X1412000D01*
Y881000D01*
D02*
G37*
G36*
X1263000Y948000D02*
X1251000D01*
Y840000D01*
X1203000D01*
Y863500D01*
X1211750D01*
Y863500D01*
X1211845Y863563D01*
X1213204Y863000D01*
X1214796D01*
X1216266Y863609D01*
X1217391Y864734D01*
X1218000Y866204D01*
Y867796D01*
X1217391Y869266D01*
X1216266Y870391D01*
X1214796Y871000D01*
X1213204D01*
X1211845Y870437D01*
X1211750Y870500D01*
Y870500D01*
X1203000D01*
Y899000D01*
Y945000D01*
X1223000D01*
Y1066000D01*
X1263000D01*
Y948000D01*
D02*
G37*
G36*
X1058000Y951000D02*
X1078000D01*
Y842000D01*
X1031000D01*
Y863250D01*
X1040750D01*
X1040750Y863250D01*
X1042020Y863491D01*
X1043204Y863000D01*
X1044796D01*
X1046266Y863609D01*
X1047391Y864734D01*
X1048000Y866204D01*
Y867796D01*
X1047391Y869266D01*
X1046266Y870391D01*
X1044796Y871000D01*
X1043204D01*
X1041928Y870471D01*
X1040750Y870250D01*
X1040750Y870250D01*
X1040750Y870250D01*
X1031000D01*
Y882000D01*
X1011000D01*
Y1062000D01*
X1058000D01*
Y951000D01*
D02*
G37*
G36*
X904000Y838000D02*
X860000D01*
Y861250D01*
X867750D01*
Y861250D01*
X868984Y861609D01*
X870454Y861000D01*
X872046D01*
X873516Y861609D01*
X874641Y862734D01*
X875250Y864204D01*
Y865796D01*
X874641Y867266D01*
X873516Y868391D01*
X872046Y869000D01*
X870454D01*
X868984Y868391D01*
X868968Y868375D01*
X867750Y868250D01*
Y868250D01*
X860000D01*
Y1063000D01*
X904000D01*
Y838000D01*
D02*
G37*
G36*
X1007000Y873000D02*
X1028000D01*
Y840000D01*
X971000D01*
Y880000D01*
X960000D01*
Y1062000D01*
X1007000D01*
Y873000D01*
D02*
G37*
G36*
X856000Y838000D02*
X807000D01*
Y873000D01*
X788000D01*
Y944000D01*
X807000D01*
Y1063000D01*
X856000D01*
Y838000D01*
D02*
G37*
G36*
X1370000Y840000D02*
Y834000D01*
X1319000D01*
Y865000D01*
X1305000D01*
Y945000D01*
X1326000D01*
Y1065000D01*
X1370000D01*
Y840000D01*
D02*
G37*
G36*
X1218000Y950000D02*
X1200000D01*
Y841000D01*
Y834000D01*
X1149000D01*
Y870000D01*
X1135000D01*
Y1066000D01*
X1218000D01*
Y950000D01*
D02*
G37*
G36*
X2036792Y830963D02*
X2036306Y829790D01*
X2030976D01*
X2030000Y830500D01*
X2030000Y830500D01*
X2030000Y830500D01*
X2016000D01*
Y827328D01*
X2012750D01*
X2011189Y827018D01*
X2009866Y826134D01*
X2009866Y826134D01*
X1997561Y813828D01*
X1987750D01*
Y816250D01*
X1988498Y817210D01*
X1988790D01*
Y823480D01*
X1971250D01*
Y826020D01*
X1988790D01*
Y832290D01*
X1988498D01*
X1987750Y833250D01*
Y835672D01*
X2026000D01*
X2027561Y835982D01*
X2028884Y836866D01*
X2029125Y837227D01*
X2030445Y837310D01*
X2036792Y830963D01*
D02*
G37*
G36*
X2074916Y828250D02*
X2075392Y827102D01*
X2076540Y826626D01*
X2078127D01*
Y793624D01*
X2074067D01*
X2073040Y794210D01*
X2073040Y794894D01*
Y800980D01*
X2064750D01*
Y803520D01*
X2073040D01*
Y809980D01*
X2073040Y810290D01*
X2073788Y811250D01*
X2075500D01*
Y825750D01*
X2061500D01*
Y818299D01*
X2057290D01*
Y819480D01*
X2051400D01*
Y822020D01*
X2057290D01*
Y824790D01*
X2056250D01*
Y826295D01*
X2057520Y826929D01*
X2058250Y826626D01*
X2060460D01*
X2061608Y827102D01*
X2062084Y828250D01*
Y829250D01*
X2074916D01*
Y828250D01*
D02*
G37*
G36*
X1885000Y826000D02*
X1785000D01*
Y862000D01*
X1885000D01*
Y826000D01*
D02*
G37*
G36*
X2089500Y773500D02*
X2019500D01*
Y789750D01*
X1988790D01*
Y793480D01*
X1971250D01*
Y796020D01*
X1988790D01*
Y799750D01*
X2013000D01*
Y811250D01*
X2014960D01*
Y806520D01*
X2023000D01*
Y805250D01*
D01*
Y806520D01*
X2031040D01*
Y811250D01*
X2037712D01*
X2038460Y810290D01*
Y803520D01*
X2046750D01*
Y802250D01*
X2048020D01*
Y794210D01*
X2053000D01*
Y792000D01*
X2079750D01*
Y828250D01*
X2076540D01*
Y835230D01*
X2068500D01*
X2060460D01*
Y828250D01*
X2058250D01*
Y849000D01*
X2057326D01*
Y854194D01*
X2049286D01*
X2041246D01*
Y849000D01*
X2038000D01*
Y865500D01*
X2089500D01*
Y773500D01*
D02*
G37*
G36*
X1913000Y731019D02*
X1912645Y730556D01*
X1911335Y727394D01*
X1910888Y724000D01*
X1910941D01*
X1910941Y724000D01*
Y712000D01*
X1826250D01*
Y718960D01*
X1827290D01*
Y724230D01*
X1815750D01*
Y726770D01*
X1827290D01*
Y729960D01*
Y735230D01*
X1815750D01*
Y737770D01*
X1827290D01*
Y740500D01*
X1892750D01*
Y756210D01*
X1897230D01*
Y764250D01*
Y772290D01*
X1892750D01*
Y781460D01*
X1896230D01*
Y794730D01*
X1889710D01*
Y787750D01*
X1875790D01*
Y794730D01*
X1869270D01*
Y781460D01*
X1873250D01*
Y771250D01*
Y757250D01*
Y755000D01*
X1866750D01*
Y754500D01*
X1863250D01*
Y755000D01*
X1848750D01*
Y754500D01*
X1846750D01*
Y755250D01*
X1832750D01*
Y754500D01*
X1827290D01*
Y757230D01*
X1815750D01*
Y758500D01*
X1814480D01*
Y765040D01*
X1806750D01*
Y823000D01*
X1913000D01*
Y731019D01*
D02*
G37*
G36*
X367270Y676960D02*
X381040D01*
X382011Y676239D01*
X398250Y660000D01*
X502000D01*
X581000Y581000D01*
X599750D01*
X671250Y509500D01*
Y397000D01*
X732000D01*
Y351000D01*
X654000D01*
Y383000D01*
Y498000D01*
X592250Y559750D01*
X566250D01*
X494000Y632000D01*
X375250D01*
X331560Y675690D01*
X332086Y676960D01*
X336730D01*
Y685500D01*
Y694040D01*
X330500D01*
Y695500D01*
X332000Y697000D01*
X346000D01*
X349787Y700787D01*
X350960Y700301D01*
Y676960D01*
X364730D01*
Y705000D01*
X367270D01*
Y676960D01*
D02*
G37*
G36*
X304000Y912000D02*
Y694000D01*
Y635000D01*
X278447D01*
X221000Y694000D01*
Y824000D01*
X207000Y838000D01*
Y855000D01*
X277000Y925000D01*
X291000D01*
X304000Y912000D01*
D02*
G37*
G36*
X215000Y771000D02*
Y693000D01*
X285000Y623000D01*
Y594000D01*
X198000D01*
X178000Y614000D01*
Y645000D01*
X130000Y693000D01*
Y789000D01*
X133000Y792000D01*
X194000D01*
X215000Y771000D01*
D02*
G37*
G36*
X767000Y469000D02*
X686000D01*
Y512000D01*
X767000D01*
Y469000D01*
D02*
G37*
G36*
X830000Y485000D02*
X815000D01*
X813000Y483000D01*
Y469000D01*
X813247D01*
Y468943D01*
X820000D01*
Y464000D01*
X782000D01*
Y512000D01*
X830000D01*
Y485000D01*
D02*
G37*
G36*
X703207Y460963D02*
X711247D01*
Y459693D01*
X712517D01*
Y451403D01*
X719287D01*
Y457862D01*
X720500Y458000D01*
Y458000D01*
X744750D01*
Y454483D01*
X734517D01*
Y445193D01*
Y435903D01*
X744750D01*
Y434500D01*
X772207D01*
Y428963D01*
X780247D01*
X788287D01*
Y434500D01*
X790207D01*
Y428963D01*
X798247D01*
Y427693D01*
X799517D01*
Y419403D01*
X804750D01*
Y404000D01*
X770723D01*
X769540Y404210D01*
X769540Y405270D01*
Y412230D01*
X758000D01*
X746460D01*
X746460Y404210D01*
X745277Y404000D01*
X687750D01*
Y451403D01*
X691977D01*
Y459693D01*
X693247D01*
Y460963D01*
X701287D01*
Y466000D01*
X703207D01*
Y460963D01*
D02*
G37*
G36*
X800000Y357000D02*
X790000Y347000D01*
X786000D01*
Y341000D01*
Y339000D01*
X788000D01*
X789000Y338000D01*
X792000D01*
Y334000D01*
X754000D01*
Y355000D01*
X744000D01*
Y395000D01*
X800000D01*
Y357000D01*
D02*
G37*
G36*
X751000Y333540D02*
X746270D01*
Y325500D01*
Y317460D01*
X751000D01*
Y315540D01*
X746270D01*
Y307500D01*
Y299460D01*
X751000D01*
Y275000D01*
X739790D01*
Y283230D01*
X730500D01*
X721210D01*
Y275000D01*
X655000D01*
Y333710D01*
X658730D01*
Y342000D01*
X661270D01*
Y333710D01*
X674730D01*
Y342000D01*
X676000D01*
Y343270D01*
X684040D01*
Y348000D01*
X751000D01*
Y333540D01*
D02*
G37*
G36*
X812207Y460713D02*
X817247D01*
Y458173D01*
X812207D01*
Y454903D01*
X813247D01*
Y449443D01*
X814370D01*
Y448908D01*
X814635Y447579D01*
X815387Y446453D01*
X817840Y444000D01*
X819581Y442260D01*
X820109Y440984D01*
X821234Y439859D01*
X822704Y439250D01*
X824296D01*
X825766Y439859D01*
X826891Y440984D01*
X827500Y442454D01*
Y444000D01*
X851000D01*
Y401000D01*
X849255D01*
X847418Y400239D01*
X846011Y398832D01*
X845250Y396995D01*
Y395005D01*
X846011Y393168D01*
X847418Y391761D01*
X849255Y391000D01*
X851000D01*
Y288000D01*
X811000D01*
Y276000D01*
X808571D01*
X808332Y276239D01*
X806495Y277000D01*
X804505D01*
X802668Y276239D01*
X801261Y274832D01*
X800500Y272995D01*
Y271005D01*
X801261Y269168D01*
X802668Y267761D01*
X803252Y267519D01*
X803250Y267500D01*
X803298D01*
X804505Y267000D01*
X806495D01*
X807702Y267500D01*
X811000D01*
Y223000D01*
X692000D01*
Y271000D01*
X755000D01*
Y296040D01*
Y299460D01*
Y332000D01*
X793000D01*
Y327000D01*
X775000D01*
Y309000D01*
X834000D01*
Y377000D01*
X806000D01*
Y403098D01*
X806374Y404000D01*
Y419403D01*
X806000Y420305D01*
Y437403D01*
X806287D01*
Y438000D01*
Y444423D01*
X798247D01*
X790207D01*
Y438000D01*
X788287D01*
Y444423D01*
X780247D01*
X772207D01*
Y438000D01*
X769540D01*
Y443230D01*
X758000D01*
Y444500D01*
X756730D01*
Y453790D01*
X749000D01*
Y462000D01*
X812207D01*
Y460713D01*
D02*
G37*
G36*
X186000Y441000D02*
X123000D01*
Y328000D01*
X180000D01*
Y282000D01*
X17000D01*
Y525000D01*
X186000D01*
Y441000D01*
D02*
G37*
G36*
X339000Y491000D02*
X289000D01*
Y220000D01*
X17000D01*
Y274000D01*
X186000D01*
Y335000D01*
X134000D01*
Y433000D01*
X195000D01*
Y526000D01*
X339000D01*
Y491000D01*
D02*
G37*
G36*
X1612441Y262250D02*
X1612441Y262250D01*
X1612674Y261079D01*
X1613337Y260087D01*
X1619250Y254174D01*
Y202250D01*
X1544000D01*
Y270250D01*
X1612441D01*
Y262250D01*
D02*
G37*
%LPC*%
G36*
X318390Y1046930D02*
X302120D01*
Y1030660D01*
X302577D01*
X305966Y1031334D01*
X309158Y1032656D01*
X312031Y1034576D01*
X314474Y1037019D01*
X316394Y1039892D01*
X317716Y1043084D01*
X318390Y1046472D01*
Y1046930D01*
D02*
G37*
G36*
X299580D02*
X283310D01*
Y1046472D01*
X283984Y1043084D01*
X285306Y1039892D01*
X287226Y1037019D01*
X289669Y1034576D01*
X292542Y1032656D01*
X295734Y1031334D01*
X299123Y1030660D01*
X299580D01*
Y1046930D01*
D02*
G37*
G36*
X302577Y989540D02*
X302120D01*
Y973270D01*
X318390D01*
Y973727D01*
X317716Y977116D01*
X316394Y980308D01*
X314474Y983181D01*
X312031Y985624D01*
X309158Y987544D01*
X305966Y988866D01*
X302577Y989540D01*
D02*
G37*
G36*
X299580D02*
X299123D01*
X295734Y988866D01*
X292542Y987544D01*
X289669Y985624D01*
X287226Y983181D01*
X285306Y980308D01*
X283984Y977116D01*
X283310Y973727D01*
Y973270D01*
X299580D01*
Y989540D01*
D02*
G37*
G36*
X318390Y970730D02*
X302120D01*
Y954460D01*
X302577D01*
X305966Y955134D01*
X309158Y956456D01*
X312031Y958376D01*
X314474Y960819D01*
X316394Y963692D01*
X317716Y966884D01*
X318390Y970273D01*
Y970730D01*
D02*
G37*
G36*
X299580D02*
X283310D01*
Y970273D01*
X283984Y966884D01*
X285306Y963692D01*
X287226Y960819D01*
X289669Y958376D01*
X292542Y956456D01*
X295734Y955134D01*
X299123Y954460D01*
X299580D01*
Y970730D01*
D02*
G37*
G36*
X167728Y891540D02*
X167270D01*
Y875270D01*
X183540D01*
Y875727D01*
X182866Y879116D01*
X181544Y882308D01*
X179624Y885181D01*
X177181Y887624D01*
X174308Y889544D01*
X171116Y890866D01*
X167728Y891540D01*
D02*
G37*
G36*
X183540Y872730D02*
X167270D01*
Y856460D01*
X167728D01*
X171116Y857134D01*
X174308Y858456D01*
X177181Y860376D01*
X179624Y862819D01*
X181544Y865692D01*
X182866Y868884D01*
X183540Y872272D01*
Y872730D01*
D02*
G37*
G36*
X1792790Y949540D02*
X1784770D01*
Y939270D01*
X1792790D01*
Y949540D01*
D02*
G37*
G36*
X1782230D02*
X1774210D01*
Y939270D01*
X1782230D01*
Y949540D01*
D02*
G37*
G36*
X1792790Y936730D02*
X1774210D01*
Y926810D01*
X1774210Y926460D01*
Y925540D01*
X1774210Y925190D01*
Y915270D01*
X1792790D01*
Y925190D01*
X1792790Y925540D01*
Y926460D01*
X1792790Y926810D01*
Y936730D01*
D02*
G37*
G36*
Y912730D02*
X1784770D01*
Y902460D01*
X1792790D01*
Y912730D01*
D02*
G37*
G36*
X1782230D02*
X1774210D01*
Y903310D01*
X1774210Y902460D01*
X1773114Y902040D01*
X1770270D01*
Y895270D01*
X1777290D01*
Y901190D01*
X1777290Y902040D01*
X1778386Y902460D01*
X1782230D01*
Y912730D01*
D02*
G37*
G36*
X1844270Y895790D02*
Y887770D01*
X1854540D01*
Y895790D01*
X1844270D01*
D02*
G37*
G36*
X1817730D02*
X1807460D01*
Y887770D01*
X1817730D01*
Y895790D01*
D02*
G37*
G36*
Y885230D02*
X1807460D01*
Y877210D01*
X1817730D01*
Y885230D01*
D02*
G37*
G36*
X1831460Y895790D02*
X1830540D01*
X1830190Y895790D01*
X1820270D01*
Y886500D01*
Y877210D01*
X1830190D01*
X1830540Y877210D01*
X1831460D01*
X1831810Y877210D01*
X1841730D01*
Y886500D01*
Y895790D01*
X1831810D01*
X1831460Y895790D01*
D02*
G37*
G36*
X1854540Y885230D02*
X1844270D01*
Y877210D01*
X1853690D01*
X1854540Y877210D01*
X1854960Y876114D01*
Y873270D01*
X1861730D01*
Y880290D01*
X1855810D01*
X1854960Y880290D01*
X1854540Y881386D01*
Y885230D01*
D02*
G37*
G36*
X2057326Y863754D02*
X2050556D01*
Y856734D01*
X2057326D01*
Y863754D01*
D02*
G37*
G36*
X2048016D02*
X2041246D01*
Y856734D01*
X2048016D01*
Y863754D01*
D02*
G37*
G36*
X2076540Y844790D02*
X2069770D01*
Y837770D01*
X2076540D01*
Y844790D01*
D02*
G37*
G36*
X2067230D02*
X2060460D01*
Y837770D01*
X2067230D01*
Y844790D01*
D02*
G37*
G36*
X2031040Y803980D02*
X2024270D01*
Y796960D01*
X2031040D01*
Y803980D01*
D02*
G37*
G36*
X2021730D02*
X2014960D01*
Y796960D01*
X2021730D01*
Y803980D01*
D02*
G37*
G36*
X2045480Y800980D02*
X2038460D01*
Y794210D01*
X2045480D01*
Y800980D01*
D02*
G37*
G36*
X1875790Y810540D02*
X1869270D01*
Y797270D01*
X1875790D01*
Y810540D01*
D02*
G37*
G36*
X1866730D02*
X1860210D01*
Y797270D01*
X1866730D01*
Y810540D01*
D02*
G37*
G36*
X1905290D02*
X1898770D01*
Y797270D01*
X1905290D01*
Y810540D01*
D02*
G37*
G36*
X1896230D02*
X1889710D01*
Y797270D01*
X1896230D01*
Y810540D01*
D02*
G37*
G36*
X1905290Y794730D02*
X1898770D01*
Y781460D01*
X1905290D01*
Y794730D01*
D02*
G37*
G36*
X1866730Y794730D02*
X1860210D01*
Y781460D01*
X1866730D01*
Y794730D01*
D02*
G37*
G36*
X1906790Y772290D02*
X1899770D01*
Y765520D01*
X1906790D01*
Y772290D01*
D02*
G37*
G36*
X1827290Y765040D02*
X1817020D01*
Y759770D01*
X1827290D01*
Y765040D01*
D02*
G37*
G36*
X1906790Y762980D02*
X1899770D01*
Y756210D01*
X1906790D01*
Y762980D01*
D02*
G37*
G36*
X1847790Y738290D02*
X1841020D01*
Y731270D01*
X1847790D01*
Y738290D01*
D02*
G37*
G36*
X1838480D02*
X1831710D01*
Y731270D01*
X1838480D01*
Y738290D01*
D02*
G37*
G36*
X1847790Y728730D02*
X1841020D01*
Y721710D01*
X1847790D01*
Y728730D01*
D02*
G37*
G36*
X1838480D02*
X1831710D01*
Y721710D01*
X1838480D01*
Y728730D01*
D02*
G37*
G36*
X348290Y694040D02*
X339270D01*
Y686770D01*
X348290D01*
Y694040D01*
D02*
G37*
G36*
Y684230D02*
X339270D01*
Y676960D01*
X348290D01*
Y684230D01*
D02*
G37*
G36*
X709977Y458423D02*
X703207D01*
Y451403D01*
X709977D01*
Y458423D01*
D02*
G37*
G36*
X701287Y458423D02*
X694517D01*
Y451403D01*
X701287D01*
Y458423D01*
D02*
G37*
G36*
X731977Y454483D02*
X721707D01*
Y446463D01*
X731977D01*
Y454483D01*
D02*
G37*
G36*
Y443923D02*
X721707D01*
Y435903D01*
X731977D01*
Y443923D01*
D02*
G37*
G36*
X796977Y426423D02*
X790207D01*
Y419403D01*
X796977D01*
Y426423D01*
D02*
G37*
G36*
X788287Y426423D02*
X781517D01*
Y419403D01*
X788287D01*
Y426423D01*
D02*
G37*
G36*
X778977D02*
X772207D01*
Y419403D01*
X778977D01*
Y426423D01*
D02*
G37*
G36*
X769540Y422790D02*
X759270D01*
Y414770D01*
X769540D01*
Y422790D01*
D02*
G37*
G36*
X756730D02*
X746460D01*
Y414770D01*
X756730D01*
Y422790D01*
D02*
G37*
G36*
X697270Y336790D02*
Y328770D01*
X707540D01*
Y336790D01*
X697270D01*
D02*
G37*
G36*
X684040Y340730D02*
X677270D01*
Y333710D01*
X683190D01*
X684040Y333710D01*
X684460Y332614D01*
Y328770D01*
X694730D01*
Y336790D01*
X685310D01*
X684460Y336790D01*
X684040Y337886D01*
Y340730D01*
D02*
G37*
G36*
X743730Y333540D02*
X736710D01*
Y326770D01*
X743730D01*
Y333540D01*
D02*
G37*
G36*
X707540Y326230D02*
X697270D01*
Y318210D01*
X707540D01*
Y326230D01*
D02*
G37*
G36*
X694730D02*
X684460D01*
Y318210D01*
X694730D01*
Y326230D01*
D02*
G37*
G36*
X743730Y324230D02*
X736710D01*
Y317460D01*
X743730D01*
Y324230D01*
D02*
G37*
G36*
Y315540D02*
X736710D01*
Y308770D01*
X743730D01*
Y315540D01*
D02*
G37*
G36*
Y306230D02*
X736710D01*
Y299460D01*
X743730D01*
Y306230D01*
D02*
G37*
G36*
X739790Y296040D02*
X731770D01*
Y285770D01*
X739790D01*
Y296040D01*
D02*
G37*
G36*
X729230D02*
X721210D01*
Y285770D01*
X729230D01*
Y296040D01*
D02*
G37*
G36*
X788287Y453983D02*
X781517D01*
Y446963D01*
X788287D01*
Y453983D01*
D02*
G37*
G36*
X778977D02*
X772207D01*
Y446963D01*
X778977D01*
Y453983D01*
D02*
G37*
G36*
X806287D02*
X799517D01*
Y446963D01*
X806287D01*
Y453983D01*
D02*
G37*
G36*
X796977D02*
X790207D01*
Y446963D01*
X796977D01*
Y453983D01*
D02*
G37*
G36*
X769540Y453790D02*
X759270D01*
Y445770D01*
X769540D01*
Y453790D01*
D02*
G37*
G36*
X832995Y400500D02*
X831005D01*
X829168Y399739D01*
X827761Y398332D01*
X827000Y396495D01*
Y394505D01*
X827761Y392668D01*
X829168Y391261D01*
X831005Y390500D01*
X832995D01*
X834832Y391261D01*
X836239Y392668D01*
X837000Y394505D01*
Y396495D01*
X836239Y398332D01*
X834832Y399739D01*
X832995Y400500D01*
D02*
G37*
G36*
X843495Y358500D02*
X841505D01*
X839668Y357739D01*
X838261Y356332D01*
X837500Y354495D01*
Y352505D01*
X838261Y350668D01*
X839668Y349261D01*
X841505Y348500D01*
X843495D01*
X845332Y349261D01*
X846739Y350668D01*
X847500Y352505D01*
Y354495D01*
X846739Y356332D01*
X845332Y357739D01*
X843495Y358500D01*
D02*
G37*
G36*
X1596730Y260090D02*
X1592000D01*
X1591009Y259893D01*
X1590169Y259331D01*
X1590040Y259139D01*
Y260040D01*
X1582770D01*
Y251500D01*
X1580230D01*
Y260040D01*
X1566270D01*
Y251500D01*
X1565000D01*
Y250230D01*
X1556460D01*
Y242960D01*
Y236270D01*
X1565000D01*
Y233730D01*
X1556460D01*
Y226460D01*
Y219770D01*
X1565000D01*
Y218500D01*
X1566270D01*
Y209960D01*
X1580230D01*
Y218500D01*
X1582770D01*
Y209960D01*
X1596730D01*
Y218500D01*
X1598000D01*
Y219770D01*
X1606540D01*
Y226460D01*
Y233730D01*
X1598000D01*
Y236270D01*
X1606540D01*
Y243540D01*
X1605638D01*
X1605831Y243669D01*
X1606393Y244509D01*
X1606590Y245500D01*
Y250230D01*
X1598000D01*
Y251500D01*
X1596730D01*
Y260090D01*
D02*
G37*
G36*
X1599270Y259706D02*
Y252770D01*
X1606206D01*
X1605831Y253331D01*
X1599831Y259331D01*
X1599270Y259706D01*
D02*
G37*
G36*
X1563730Y260040D02*
X1556460D01*
Y252770D01*
X1563730D01*
Y260040D01*
D02*
G37*
G36*
X1606540Y217230D02*
X1599270D01*
Y209960D01*
X1606540D01*
Y217230D01*
D02*
G37*
G36*
X1563730Y217230D02*
X1556460D01*
Y209960D01*
X1563730D01*
Y217230D01*
D02*
G37*
%LPD*%
D10*
X1753965Y589535D02*
X1756250Y587250D01*
X1748250Y610000D02*
X1750277Y607973D01*
X1753965Y589535D02*
Y595036D01*
X1750277Y598723D02*
Y607973D01*
Y598723D02*
X1753965Y595036D01*
X1574000Y138782D02*
Y140000D01*
X1575750Y122750D02*
Y137032D01*
X1574000Y138782D02*
X1575750Y137032D01*
X1595250Y96218D02*
Y122750D01*
Y96218D02*
X1596750Y94718D01*
Y93500D02*
Y94718D01*
X1610375Y143907D02*
Y146875D01*
X1614750Y122750D02*
Y139532D01*
X1610375Y143907D02*
X1614750Y139532D01*
X1598500Y155000D02*
Y165000D01*
Y155000D02*
X1608500Y145000D01*
X1589500Y145500D02*
Y164500D01*
Y145500D02*
X1589750Y145250D01*
X1589500Y164500D02*
X1590000Y165000D01*
X1588750Y144250D02*
X1589750Y145250D01*
X1588750Y122750D02*
Y144250D01*
X1581500Y235000D02*
X1612000D01*
X1539250Y323000D02*
X1551250D01*
X1501250Y305000D02*
X1511500D01*
X1581500Y205750D02*
Y235000D01*
X1550000Y235000D02*
X1581500D01*
X1550000Y218500D02*
X1565000D01*
X1262250Y179000D02*
Y198500D01*
X1311250Y166500D02*
X1333052D01*
Y76000D02*
X1354000D01*
X1333052Y66000D02*
X1361750D01*
X1182052Y76000D02*
X1201250D01*
X944000Y22000D02*
Y43733D01*
X987250Y21500D02*
Y43733D01*
X924500Y19750D02*
Y43733D01*
X902913Y20500D02*
Y43733D01*
X881913Y20250D02*
Y43733D01*
X860913Y18500D02*
Y43733D01*
X1205429Y475000D02*
X1208429Y478000D01*
X1176000Y475000D02*
X1205429D01*
X1173000Y478000D02*
X1176000Y475000D01*
X1208429Y478000D02*
X1211000D01*
X1158250D02*
X1173000D01*
X1190750Y486000D02*
X1191250Y485500D01*
X1175750Y486000D02*
X1190750D01*
X1172750Y483000D02*
X1175750Y486000D01*
X1642500Y598000D02*
X1658250D01*
X1703875Y561375D02*
X1711214Y568714D01*
Y574964D01*
X1700250Y557750D02*
X1703875Y561375D01*
X1726350Y551350D02*
X1751350D01*
X1755250Y555250D01*
Y586000D01*
X1728250Y579000D02*
X1730750Y576500D01*
X1728250Y579000D02*
Y588250D01*
X1683500Y529500D02*
X1704500D01*
X1726350Y551350D01*
X1645000Y529500D02*
X1683500D01*
X1643250Y531250D02*
Y532000D01*
Y531250D02*
X1645000Y529500D01*
X1647750Y147250D02*
X1670215Y124785D01*
Y120786D02*
Y124785D01*
Y120786D02*
X1671500Y119500D01*
Y113000D02*
Y119500D01*
X1646750Y146250D02*
Y146468D01*
X1641000Y152218D02*
X1646750Y146468D01*
X1641000Y152218D02*
Y162905D01*
X1045000Y418425D02*
X1046750Y416675D01*
X1045000Y418425D02*
Y434750D01*
X1046750Y411250D02*
Y416675D01*
X1055214Y406535D02*
Y414535D01*
X1050000Y419750D02*
X1055214Y414535D01*
Y406535D02*
X1055500Y406250D01*
X1030403Y376903D02*
Y382477D01*
X1031000Y383074D02*
Y383750D01*
X1030403Y382477D02*
X1031000Y383074D01*
X1027750Y374250D02*
X1030403Y376903D01*
X1028500Y373250D02*
Y373500D01*
X1023500Y343000D02*
Y368250D01*
X1028500Y373500D02*
X1029000Y374000D01*
X1023500Y368250D02*
X1028500Y373250D01*
X1568500Y601250D02*
X1574850Y607600D01*
X1568500Y539750D02*
Y601250D01*
X1574850Y607600D02*
X1619650D01*
X1629250Y598000D01*
X1572750Y535500D02*
X1581250D01*
X1568500Y539750D02*
X1572750Y535500D01*
X1581750Y514000D02*
X1636750D01*
X1581250Y513500D02*
X1581750Y514000D01*
X1161500Y580782D02*
X1164968Y584250D01*
X1171000D01*
X1161500Y573500D02*
Y580782D01*
X1158250Y568000D02*
X1158750Y568500D01*
X1167639D02*
X1169250Y570111D01*
Y574286D01*
X1170714Y575750D02*
X1176750D01*
X1158750Y568500D02*
X1167639D01*
X1169250Y574286D02*
X1170714Y575750D01*
X1158250Y573000D02*
X1161000D01*
X1161500Y573500D01*
X2058500Y820750D02*
Y821250D01*
X2051400Y820750D02*
X2058500D01*
X2031378Y830972D02*
Y831722D01*
X2030900Y832200D02*
X2031378Y831722D01*
Y830972D02*
X2034500Y827850D01*
Y826000D02*
Y827850D01*
Y826000D02*
X2034750Y825750D01*
X2036600D01*
X2074553Y802197D02*
X2074750Y802000D01*
X2064750Y802250D02*
X2064803Y802197D01*
X2074553D01*
X1025000Y434750D02*
Y451500D01*
X1025000Y451500D01*
X440000Y703500D02*
X453282D01*
X454782Y705000D01*
X456000D01*
X1158271Y660861D02*
X1160139D01*
X1154526Y664606D02*
X1158271Y660861D01*
X1160139D02*
X1161000Y660000D01*
X1123132Y696000D02*
X1129777Y689354D01*
X1122000Y696000D02*
X1123132D01*
X1129777Y689354D02*
X1142152Y676980D01*
X1154526Y664606D01*
X817247Y472443D02*
X830057D01*
X831250Y471250D01*
X1651500Y165000D02*
X1653518Y162982D01*
Y158715D02*
Y162982D01*
Y158715D02*
X1657000Y155232D01*
Y155000D02*
Y155232D01*
X1551500Y251500D02*
X1565000D01*
X1551000Y252000D02*
X1551500Y251500D01*
X1598000Y218500D02*
X1611500D01*
X1612000Y218000D01*
X1632500Y305000D02*
Y329500D01*
X1630861Y331139D02*
X1632500Y329500D01*
X1630861Y331139D02*
Y332639D01*
X1630000Y333500D02*
X1630861Y332639D01*
X1641000Y305000D02*
X1651500D01*
X1632500D02*
X1641000D01*
X1638500Y294500D02*
X1651500D01*
X1630000Y286000D02*
X1638500Y294500D01*
X1641000Y286000D02*
X1651500D01*
X1641000Y286000D02*
X1641000Y286000D01*
X1651500Y277500D02*
X1662500D01*
X1663000Y277000D01*
X1671000Y269000D02*
X1671000Y269000D01*
X1651500Y269000D02*
X1671000D01*
X1661500Y260500D02*
X1662000Y260000D01*
X1651500Y260500D02*
X1661500D01*
X1669782Y253000D02*
X1671000D01*
X1668782Y252000D02*
X1669782Y253000D01*
X1651500Y252000D02*
X1668782D01*
X1661500Y243500D02*
X1662000Y243000D01*
X1651500Y243500D02*
X1661500D01*
X1651500Y235000D02*
X1671000D01*
X1661500Y226500D02*
X1662000Y226000D01*
X1651500Y226500D02*
X1661500D01*
X1651500Y218000D02*
X1671500D01*
X1661000Y209500D02*
X1661250Y209750D01*
X1651500Y209500D02*
X1661000D01*
X1651500Y201000D02*
X1671500D01*
X1672000Y201500D01*
X1660457Y195500D02*
X1661000D01*
X1651500Y192500D02*
X1657457D01*
X1660457Y195500D01*
X1651500Y184000D02*
X1652250Y184750D01*
X1659500D01*
X1660250Y185500D01*
X1651625Y175375D02*
X1660625D01*
X1660750Y175250D01*
X1651500Y175500D02*
X1651625Y175375D01*
X1624000Y305000D02*
Y317750D01*
X1619000Y322750D02*
X1624000Y317750D01*
X1302000Y176000D02*
X1333052D01*
X1297000Y171000D02*
X1302000Y176000D01*
X1395250Y137000D02*
X1399986D01*
X1404583Y141598D02*
X1405098D01*
X1409750Y146250D02*
Y181750D01*
X1399986Y137000D02*
X1404583Y141598D01*
X1405098D02*
X1409750Y146250D01*
X1395050Y162400D02*
Y178700D01*
X1382764Y158935D02*
X1395250D01*
Y162400D01*
X1360000Y162360D02*
X1362300D01*
X1350408Y176000D02*
X1351873Y174536D01*
Y170487D02*
X1360000Y162360D01*
X1333052Y176000D02*
X1350408D01*
X1351873Y170487D02*
Y174536D01*
X1581500Y235000D02*
Y251500D01*
X1581500D01*
X1606873Y256374D02*
X1607500Y257000D01*
X1598000Y251500D02*
X1602874Y256374D01*
X1606873D01*
X1550000Y218500D02*
Y219250D01*
X1501250Y304250D02*
Y305000D01*
X1539250Y323000D02*
Y323250D01*
X1858750Y683000D02*
Y700000D01*
Y683000D02*
X1859000Y682750D01*
X1793750Y692500D02*
X1793750Y692500D01*
X1815750D01*
X1579250Y472500D02*
X1579750Y472000D01*
Y462350D02*
Y472000D01*
Y419750D02*
Y428900D01*
Y419750D02*
X1580000Y419500D01*
X1524750Y435250D02*
X1525500Y434500D01*
X1524750Y435250D02*
Y448250D01*
X1483750Y451750D02*
X1484968D01*
X1485968Y452750D02*
X1500750D01*
X1484968Y451750D02*
X1485968Y452750D01*
X1484000Y438500D02*
X1497000D01*
X1500750Y434750D01*
X1501000Y434500D02*
X1516000D01*
X1500750Y434750D02*
X1501000Y434500D01*
X1482750Y426250D02*
X1491457D01*
X1494707Y423000D01*
X1495000D01*
X1497250Y412000D02*
X1497750Y411500D01*
X1482750Y412000D02*
X1497250D01*
X1451000Y354750D02*
X1466500D01*
X1450750Y354500D02*
X1451000Y354750D01*
X1451250Y374750D02*
X1451750Y374250D01*
X1466500D01*
X1480464Y384715D02*
Y398786D01*
X1476500Y380750D02*
X1480464Y384715D01*
X1466500Y380750D02*
X1476500D01*
X1479000Y400250D02*
X1480464Y398786D01*
X1466500Y400250D02*
X1479000D01*
X1464750Y412000D02*
X1466500Y410250D01*
Y400250D02*
Y410250D01*
X1464750Y412000D02*
Y426250D01*
X1447250D02*
X1464750D01*
X1446750Y425750D02*
X1447250Y426250D01*
X900750Y508750D02*
X901250Y508250D01*
X917250D01*
X900500Y524500D02*
X901000Y524000D01*
X917250D01*
X1282782Y496000D02*
X1285032Y498250D01*
X1286250D01*
X1272750Y496000D02*
X1282782D01*
X1285213Y511319D02*
X1286282Y510250D01*
X1272756Y511319D02*
X1285213D01*
X1286282Y510250D02*
X1287500D01*
X1627250Y707000D02*
X1627750Y706500D01*
X1617750Y707000D02*
X1627250D01*
X1643218Y680500D02*
X1644218Y681500D01*
X1642000Y680500D02*
X1643218D01*
X1644218Y681500D02*
X1658750D01*
X1626500Y666000D02*
X1637750D01*
X1638250Y666500D01*
X1607500Y640500D02*
X1622750D01*
X1603500Y636500D02*
X1607500Y640500D01*
X1633500Y521000D02*
X1633750Y521250D01*
Y532000D01*
X1643250Y520500D02*
Y532000D01*
X1636750Y514000D02*
X1643250Y520500D01*
X1628250Y570000D02*
X1632464Y565785D01*
Y560785D02*
X1633750Y559500D01*
X1632464Y560785D02*
Y565785D01*
X1691500Y595468D02*
X1693250Y597218D01*
Y610000D01*
X1691500Y594250D02*
Y595468D01*
X1774500Y587250D02*
X1786500D01*
X1786500Y587250D01*
X1759250Y629750D02*
X1759500Y630000D01*
X1759250Y610000D02*
Y629750D01*
X1781250Y610000D02*
X1781750Y609500D01*
X1793750D01*
X1547500Y708250D02*
X1564250D01*
X1547250Y708500D02*
X1547500Y708250D01*
X1504500D02*
X1516000D01*
X1503750Y707500D02*
X1504500Y708250D01*
X1450500Y708000D02*
Y721500D01*
X1450750Y721750D01*
X1230500Y665500D02*
X1231000Y665000D01*
X1214000Y665500D02*
X1230500D01*
X1291250Y724000D02*
X1305750D01*
X1306000Y723750D01*
X1305125Y702125D02*
X1305250Y702250D01*
X1291375Y702125D02*
X1305125D01*
X1291250Y702000D02*
X1291375Y702125D01*
X1290000Y668000D02*
X1308750D01*
X1289200Y818200D02*
Y839000D01*
X1289000Y818000D02*
X1289200Y818200D01*
X1290000Y780500D02*
X1305500D01*
X1305750Y780750D01*
X1207500Y770000D02*
Y783000D01*
Y770000D02*
X1207750Y769750D01*
X1119200Y819050D02*
Y839000D01*
Y819050D02*
X1119250Y819000D01*
X1134250Y777500D02*
X1134500Y777750D01*
X1123500Y777500D02*
X1134250D01*
X1089750Y778250D02*
Y788500D01*
X1088750Y777250D02*
X1089750Y778250D01*
X1054000Y790000D02*
X1054250Y790250D01*
X1054000Y777250D02*
Y790000D01*
X1019250Y777250D02*
Y789000D01*
X1019250Y789000D02*
X1019250Y789000D01*
X984250Y790500D02*
X984500Y790250D01*
Y777250D02*
Y790250D01*
X949750Y790250D02*
X949750Y790250D01*
Y777250D02*
Y790250D01*
X942700Y820400D02*
X943350Y819750D01*
X943000D02*
X943350D01*
X942700Y820400D02*
Y840000D01*
X771950Y817300D02*
Y839000D01*
Y817300D02*
X772250Y817000D01*
X717000Y533500D02*
X730750D01*
X716250Y532750D02*
X717000Y533500D01*
X717468Y551250D02*
X718468Y550250D01*
X730750D01*
X716250Y551250D02*
X717468D01*
X716500Y568250D02*
X730750D01*
X716250Y568500D02*
X716500Y568250D01*
X1492000Y147500D02*
X1492000Y147500D01*
X1480500Y147500D02*
X1492000D01*
X1451861Y148639D02*
X1453000Y147500D01*
X1444111Y148639D02*
X1451861D01*
X1443250Y149500D02*
X1444111Y148639D01*
X1624000Y149750D02*
Y165000D01*
X1623750Y149500D02*
X1624000Y149750D01*
X1615500Y165000D02*
X1615500Y165000D01*
X1615500Y155750D02*
Y165000D01*
X1615500Y155750D02*
X1615500Y155750D01*
X1201250Y75750D02*
Y76000D01*
X1361750Y65750D02*
Y66000D01*
X1354000Y75250D02*
Y76000D01*
X1262250Y198500D02*
X1262552D01*
X1333052Y166000D02*
Y166500D01*
X860750Y18500D02*
X860913D01*
X881500Y20250D02*
X881913D01*
X902000Y20500D02*
X902913D01*
X923913Y43733D02*
X924500D01*
X944000D02*
X944913D01*
X986913D02*
X987250D01*
X322750Y706500D02*
X322750Y706500D01*
X338000D01*
X463250Y740850D02*
X464100Y740000D01*
X463250Y740850D02*
Y752250D01*
X512700Y746000D02*
X512950Y745750D01*
X527000D01*
X536217Y732968D02*
X536500Y733250D01*
X536100Y722000D02*
X536217Y722117D01*
Y732968D01*
X546000Y740000D02*
X557100D01*
X545750Y739750D02*
X546000Y740000D01*
X605700Y746000D02*
X621750D01*
X621750Y746000D01*
X724250Y723450D02*
Y735250D01*
X722800Y722000D02*
X724250Y723450D01*
X713750Y746000D02*
X714500Y745250D01*
X699400Y746000D02*
X713750D01*
X629000Y722100D02*
Y732750D01*
Y722100D02*
X629100Y722000D01*
X638000Y740000D02*
X650800D01*
X638000Y740000D02*
X638000Y740000D01*
X1222502Y343252D02*
Y354453D01*
X1222768Y354720D01*
X1222250Y343000D02*
X1222502Y343252D01*
X1184000Y343250D02*
X1184250Y343000D01*
X1184000Y343250D02*
Y354750D01*
X1105000Y370750D02*
X1105250Y371000D01*
X1105000Y358000D02*
Y370750D01*
Y358000D02*
X1105500Y357500D01*
Y343000D02*
Y357500D01*
X1042000Y359000D02*
X1042250Y359250D01*
Y369500D01*
X1042000Y343500D02*
Y359000D01*
Y343500D02*
X1042500Y343000D01*
X983000Y359000D02*
X993750D01*
X983000Y359000D02*
X983000Y359000D01*
X942000D02*
Y372750D01*
X942500Y373250D01*
X904000Y359000D02*
Y372250D01*
Y343500D02*
Y359000D01*
Y343500D02*
X904500Y343000D01*
X1140000Y434750D02*
X1148000D01*
X1025125Y591375D02*
Y604125D01*
X1025250Y604250D01*
X1025000Y591250D02*
X1025125Y591375D01*
X1010250Y591250D02*
X1020000D01*
X983468Y548000D02*
X1001750D01*
Y528000D02*
X1038000D01*
X981750Y524500D02*
X982968D01*
X984468Y523000D02*
X1001750D01*
X982968Y524500D02*
X984468Y523000D01*
X988964Y483000D02*
X1001750D01*
X986215Y485750D02*
X988964Y483000D01*
X985250Y485750D02*
X986215D01*
X1035285Y480500D02*
X1036500D01*
X1001750Y478000D02*
X1032785D01*
X1035285Y480500D01*
X979468Y468000D02*
X1001750D01*
X976750Y469500D02*
X977968D01*
X979468Y468000D01*
X988214Y473000D02*
X1001750D01*
X984500Y476500D02*
X984715D01*
X988214Y473000D01*
X1027750Y421250D02*
Y421750D01*
X1030000Y424000D02*
Y434750D01*
X1027750Y421750D02*
X1030000Y424000D01*
X536000Y836000D02*
X537814Y834186D01*
X548914D02*
X549100Y834000D01*
X536000Y836000D02*
Y855000D01*
X537814Y834186D02*
X548914D01*
X455914Y834185D02*
X456100Y834000D01*
X444814Y834185D02*
X455914D01*
X441000Y838000D02*
Y855000D01*
Y838000D02*
X444814Y834185D01*
X741000Y818250D02*
X743000Y820250D01*
Y835450D02*
X746550Y839000D01*
X743000Y820250D02*
Y835450D01*
X543500Y863500D02*
X547000Y860000D01*
Y857000D02*
Y860000D01*
Y857000D02*
X549314Y854686D01*
X537464Y863500D02*
X543500D01*
X556786Y854686D02*
X557100Y855000D01*
X549314Y854686D02*
X556786D01*
X574000Y855000D02*
X580714Y848286D01*
X557100Y855000D02*
X574000D01*
X580300Y836000D02*
X580714Y836414D01*
Y848286D01*
X536000Y864965D02*
Y873000D01*
Y864965D02*
X537464Y863500D01*
X573965Y882500D02*
X574000D01*
X572215Y877215D02*
Y880750D01*
X573965Y882500D01*
X568000Y873000D02*
X572215Y877215D01*
X557100Y873000D02*
X568000D01*
X667000Y874464D02*
Y881500D01*
X650800Y873000D02*
X665536D01*
X667000Y874464D01*
X667586Y851414D02*
X670715Y848285D01*
Y839285D02*
X674000Y836000D01*
X670715Y839285D02*
Y848285D01*
X654386Y851414D02*
X667586D01*
X630250Y865889D02*
Y868750D01*
Y865889D02*
X636639Y859500D01*
X646300D01*
X626000Y873000D02*
X630250Y868750D01*
X646300Y859500D02*
X646300Y859500D01*
X646550D01*
X650800Y855250D01*
Y855000D02*
Y855250D01*
Y855000D02*
X654386Y851414D01*
X479000Y855000D02*
X485714Y848286D01*
X456139Y855000D02*
X479000D01*
X485714Y837585D02*
X487300Y836000D01*
X485714Y837585D02*
Y848286D01*
X447639Y863500D02*
X456139Y855000D01*
X445000Y863500D02*
X447639D01*
X443535Y864965D02*
Y870464D01*
X441000Y873000D02*
X443535Y870464D01*
Y864965D02*
X445000Y863500D01*
X629677Y847123D02*
Y851323D01*
Y847123D02*
X633550Y843250D01*
X635050D02*
X642800Y835500D01*
Y834000D02*
Y835500D01*
X626000Y855000D02*
X629677Y851323D01*
X633550Y843250D02*
X635050D01*
X636000Y913000D02*
X636000Y913000D01*
X616000Y913000D02*
X636000D01*
X427000D02*
X451000D01*
X520000D02*
X543000D01*
X451000Y868000D02*
X454500Y864500D01*
X480000D01*
X451000Y868000D02*
Y913000D01*
X550961Y864000D02*
X573500D01*
X547000Y867961D02*
X550961Y864000D01*
X573500D02*
X574000Y863500D01*
X547000Y867961D02*
Y909000D01*
X543000Y913000D02*
X547000Y909000D01*
X666000Y863500D02*
X667000Y862500D01*
X642500Y863500D02*
X666000D01*
X636000Y870000D02*
X642500Y863500D01*
X636000Y870000D02*
Y913000D01*
X1398000Y825000D02*
Y835000D01*
X1227000Y825000D02*
Y835000D01*
X1034622Y867000D02*
X1044000D01*
X866450Y824500D02*
X875250D01*
X860000D02*
X866450D01*
X1083850Y971800D02*
Y1048000D01*
X931450Y971800D02*
Y1048000D01*
X1042700Y825000D02*
Y835700D01*
X1043000Y836000D01*
X1041200Y823500D02*
X1042700Y825000D01*
X1035965Y842964D02*
Y846964D01*
X1018000Y825000D02*
X1035965Y842964D01*
Y846964D02*
X1036793Y847793D01*
X1010000Y825000D02*
X1018000D01*
X1009500Y824500D02*
X1010000Y825000D01*
X1214000Y867000D02*
Y867000D01*
X1206750Y867000D02*
X1214000D01*
X1226350Y825000D02*
X1227000D01*
X1209250Y835250D02*
Y847815D01*
X1200486Y826486D02*
X1209250Y835250D01*
X1195135Y826486D02*
X1200486D01*
X1193400Y824750D02*
X1195135Y826486D01*
X1385000Y867000D02*
Y867000D01*
X1377000D02*
X1385000D01*
X1384750Y825000D02*
X1398000D01*
X1398350D01*
X1374000D02*
X1376000Y827000D01*
Y847206D01*
X1291000Y864250D02*
Y927200D01*
X1302250Y853000D02*
X1310000D01*
X1291000Y864250D02*
X1302250Y853000D01*
X782000Y859000D02*
X795000D01*
X771950Y869050D02*
X782000Y859000D01*
X771950Y869050D02*
Y929000D01*
X1132215Y853536D02*
X1139464D01*
X1140000Y853000D01*
X1119200Y866550D02*
X1132215Y853536D01*
X1119200Y866550D02*
Y929000D01*
X1289200Y929000D02*
X1291000Y927200D01*
X1258250Y818250D02*
X1260750Y820750D01*
Y835950D01*
X1263800Y839000D01*
X1088250Y818250D02*
Y833450D01*
X1093800Y839000D01*
X1365650Y825000D02*
X1374000D01*
X848000Y824500D02*
X862750Y839250D01*
Y845250D01*
X833750Y824500D02*
X848000D01*
X808250Y811750D02*
X847250D01*
X860000Y824500D01*
X871000Y864750D02*
X871250Y865000D01*
X862750Y864750D02*
X871000D01*
X875250Y824500D02*
X875500Y824250D01*
X1335750Y814250D02*
X1374000D01*
X1384750Y825000D01*
X1333286Y816714D02*
X1335750Y814250D01*
X1332250Y824500D02*
X1333286Y823464D01*
Y816714D02*
Y823464D01*
X1350250Y824500D02*
X1365150D01*
X1365650Y825000D01*
X1310000Y827250D02*
X1312750Y824500D01*
X1332250D01*
X1310000Y827250D02*
Y835000D01*
X803785Y816215D02*
X808250Y811750D01*
X801500Y824000D02*
X803785Y821714D01*
Y816215D02*
Y821714D01*
X798000Y827500D02*
X801500Y824000D01*
X798000Y827500D02*
Y838000D01*
X795000Y841000D02*
X798000Y838000D01*
X820000Y824500D02*
X833750D01*
X819500Y824000D02*
X820000Y824500D01*
X1022250Y814250D02*
X1031500Y823500D01*
X1041200D01*
X982250Y814250D02*
X1022250D01*
X978500Y824500D02*
X979786Y823214D01*
Y816714D02*
Y823214D01*
Y816714D02*
X982250Y814250D01*
X996500Y824500D02*
X1009500D01*
X965750D02*
X978500D01*
X963000Y827250D02*
X965750Y824500D01*
X963000Y827250D02*
Y836000D01*
X1142036Y826964D02*
Y832964D01*
X1144250Y824750D02*
X1161500D01*
X1140000Y835000D02*
X1142036Y832964D01*
Y826964D02*
X1144250Y824750D01*
X1218750Y825000D02*
X1226350D01*
X1207750Y814000D02*
X1218750Y825000D01*
X1163750Y814000D02*
X1207750D01*
X1161500Y816250D02*
X1163750Y814000D01*
X1161500Y816250D02*
Y824750D01*
X1179500D02*
X1193400D01*
X1686750Y557750D02*
X1700250D01*
X1711214Y574964D02*
X1712750Y576500D01*
X1726250Y597500D02*
Y610000D01*
X1715250Y586500D02*
X1726250Y597500D01*
X1715250Y579000D02*
Y586500D01*
Y598500D02*
Y610000D01*
X1688535Y575321D02*
X1691250Y578036D01*
X1694785D01*
X1715250Y598500D01*
X1688535Y575036D02*
Y575321D01*
X1704250Y596500D02*
Y610000D01*
X1693750Y586000D02*
X1704250Y596500D01*
X1662500Y586000D02*
X1693750D01*
X1658250Y590250D02*
Y598000D01*
Y590250D02*
X1662500Y586000D01*
X1629250Y598000D02*
X1642500D01*
X965000Y338000D02*
Y359000D01*
X1690500Y782714D02*
X1693250Y785464D01*
X1686965Y782714D02*
X1690500D01*
X1683750Y779500D02*
X1686965Y782714D01*
X1693250Y785464D02*
Y786000D01*
X1087000Y358000D02*
Y365750D01*
X1050750Y374500D02*
X1078250D01*
X1087000Y365750D01*
X1045044Y380206D02*
X1050750Y374500D01*
X1045044Y380206D02*
Y384581D01*
X1107500Y407500D02*
X1281500Y233500D01*
X1055000Y423250D02*
X1070750Y407500D01*
X1107500D01*
X1071000Y319000D02*
X1073250D01*
X1096000D01*
X1671500Y113000D02*
X1673750Y110750D01*
X1687500D01*
X1158250Y483000D02*
X1172750D01*
X1369830Y146000D02*
X1377000Y138829D01*
Y118960D02*
Y138829D01*
X1360800Y102760D02*
X1377000Y118960D01*
X1385990Y187760D02*
X1395050Y178700D01*
X1362300Y187760D02*
X1385990D01*
X1369830Y146000D02*
X1382764Y158935D01*
X1333052Y146000D02*
X1369830D01*
X1358000Y233500D02*
X1409750Y181750D01*
X1281500Y233500D02*
X1358000D01*
X1055000Y423250D02*
Y434750D01*
X970383Y375117D02*
X1014867D01*
X965000Y359000D02*
Y369735D01*
X1014867Y375117D02*
X1019500Y379750D01*
X965000Y369735D02*
X970383Y375117D01*
X1050000Y419750D02*
Y434750D01*
X1070000Y320000D02*
X1071000Y319000D01*
X1086500Y357500D02*
X1087000Y358000D01*
X1086500Y343000D02*
Y357500D01*
X1031250Y413250D02*
X1035000Y417000D01*
Y434750D01*
X1040250Y415500D02*
Y415750D01*
X1040000Y416000D02*
X1040250Y415750D01*
X1040000Y416000D02*
Y434750D01*
D12*
X1070000Y304750D02*
Y320000D01*
Y300250D02*
Y304750D01*
X1971250Y824750D02*
X1994000D01*
X1971250Y824750D02*
X1971250Y824750D01*
X1971250Y809750D02*
X1999250D01*
X1971250Y854750D02*
X2023250D01*
X2039215Y838785D02*
X2047965D01*
X2049286Y837464D01*
X2023250Y854750D02*
X2039215Y838785D01*
X1029000Y14000D02*
X1059250Y44250D01*
Y81501D01*
X1070000Y92251D01*
X1971250Y839750D02*
X2026000D01*
X1999250Y809750D02*
X2012750Y823250D01*
X2023000D01*
X1012913Y36016D02*
X1019984D01*
X1025617Y30383D01*
Y29924D02*
Y30383D01*
Y29924D02*
X1025723D01*
X1007913Y41016D02*
Y43733D01*
Y41016D02*
X1012913Y36016D01*
X1069750Y338000D02*
Y350500D01*
X994000Y338000D02*
X1007000D01*
X869000D02*
Y350250D01*
X965913Y23087D02*
Y43733D01*
Y23087D02*
X975000Y14000D01*
X1029000D01*
X1070000Y92251D02*
Y300250D01*
X363679Y560179D02*
X367000Y563500D01*
X363679Y551679D02*
Y560179D01*
X44750Y539500D02*
X351500D01*
X363679Y551679D01*
X1436900Y727250D02*
Y753500D01*
X1438000Y754600D01*
X1550300Y727500D02*
Y754500D01*
X1550400Y754600D01*
X1069750Y338000D02*
X1070000D01*
X994000Y337250D02*
Y338000D01*
X868750Y350250D02*
X869000D01*
X482100Y722000D02*
Y740800D01*
Y701000D02*
Y722000D01*
X464100D02*
Y722000D01*
Y722000D02*
X482100D01*
Y740800D02*
X487300Y746000D01*
X480750Y701000D02*
X482100D01*
X165000Y811000D02*
X200860D01*
X145000D02*
X165000D01*
X165000Y811000D01*
Y820350D01*
X200860Y811000D02*
X202000Y809860D01*
X687071Y910929D02*
X702000Y896000D01*
Y838600D02*
Y896000D01*
X674071Y910929D02*
X687071D01*
X668429Y916571D02*
X674071Y910929D01*
X579000Y913000D02*
X581071Y910929D01*
X607000Y837300D02*
Y898000D01*
X581071Y910929D02*
X594071D01*
X607000Y898000D01*
X578947Y913000D02*
X579000D01*
X321000Y823000D02*
Y834000D01*
X319000Y821000D02*
X321000Y823000D01*
X402450Y972000D02*
Y1048200D01*
X453250Y972000D02*
Y1048200D01*
X504050Y972000D02*
Y1048200D01*
X343900Y811875D02*
X345500Y813475D01*
X343900Y807375D02*
Y811875D01*
X345500Y813475D02*
Y855000D01*
X343900Y807375D02*
X356600D01*
X326250D02*
X343900D01*
X323321Y810304D02*
Y816750D01*
Y810304D02*
X326250Y807375D01*
X319071Y821000D02*
X323321Y816750D01*
X319000Y821000D02*
X319071D01*
X321000Y734000D02*
Y747500D01*
X512700Y836000D02*
X515000Y838300D01*
Y901000D01*
X503000Y913000D02*
X515000Y901000D01*
X487000Y913000D02*
X503000D01*
X699400Y836000D02*
X702000Y838600D01*
X605700Y836000D02*
X607000Y837300D01*
X432000Y931000D02*
X482000D01*
X487000Y926000D01*
X407234Y955767D02*
X432000Y931000D01*
X668429Y916571D02*
Y926571D01*
X646000Y949000D02*
X668429Y926571D01*
X527050Y949000D02*
X646000D01*
X504050Y972000D02*
X527050Y949000D01*
X572447Y919500D02*
X578947Y913000D01*
X561000Y938000D02*
X572447Y926553D01*
X487250Y938000D02*
X561000D01*
X572447Y919500D02*
Y926553D01*
X453250Y972000D02*
X487250Y938000D01*
X487000Y913000D02*
Y926000D01*
X407234Y955767D02*
Y967216D01*
X402450Y972000D02*
X407234Y967216D01*
X554850Y972000D02*
Y1048200D01*
X605650Y972000D02*
Y1048200D01*
X749750Y533500D02*
X764250D01*
X749750Y533500D02*
X749750Y533500D01*
X764250D02*
X764250Y533500D01*
X749750Y550250D02*
X764250D01*
X764250Y550250D01*
X749750Y550250D02*
X749750Y550250D01*
X764250Y568250D02*
X764250Y568250D01*
X749750Y568250D02*
X764250D01*
X749750Y568250D02*
X749750Y568250D01*
X1070000Y319750D02*
Y320000D01*
Y319750D02*
X1073000Y316750D01*
D13*
X1123220Y704043D02*
X1136318Y690945D01*
X1121457Y704043D02*
X1123220D01*
X1120500Y705000D02*
X1121457Y704043D01*
X1136318Y690945D02*
X1139146Y688117D01*
X1139146D01*
X1136318Y690945D02*
Y690945D01*
X2065750Y815750D02*
X2067125Y817125D01*
X2051400Y815750D02*
X2065750D01*
X2037100Y820250D02*
X2040829D01*
X2036600Y820750D02*
X2037100Y820250D01*
X2040829D02*
X2042450Y818628D01*
Y813214D02*
Y818628D01*
X2042450Y813214D02*
X2042450Y813214D01*
X2042450Y806550D02*
Y813214D01*
Y806550D02*
X2046750Y802250D01*
X1750750Y867000D02*
X1751000Y867250D01*
Y878000D01*
X1735000Y874000D02*
X1747000D01*
X1751000Y878000D01*
X1454754Y158755D02*
Y161828D01*
X1464002Y171076D01*
Y189245D01*
X1453000Y157000D02*
X1454754Y158755D01*
D14*
X1880500Y764250D02*
G03*
X1882750Y766500I0J2250D01*
G01*
X1877653Y751653D02*
Y761403D01*
X1874000Y748000D02*
X1877653Y751653D01*
Y761403D02*
X1880500Y764250D01*
X1737250Y596185D02*
X1740500Y592935D01*
Y590500D02*
Y592935D01*
X1737250Y596185D02*
Y610000D01*
X1737315Y591250D02*
X1743325Y585239D01*
Y561925D02*
Y585239D01*
Y561925D02*
X1743750Y561500D01*
X1679250Y598000D02*
Y633750D01*
X1715250Y669750D01*
X1627250Y108250D02*
X1631250Y112250D01*
X1611500Y108250D02*
X1627250D01*
X1608432Y111318D02*
X1611500Y108250D01*
X1631250Y112250D02*
Y123000D01*
X1608250Y122750D02*
X1608432Y122568D01*
Y111318D02*
Y122568D01*
X1601750Y97692D02*
Y122750D01*
X1632315Y86000D02*
X1633500D01*
X1613442D02*
X1632315D01*
X1601750Y97692D02*
X1613442Y86000D01*
X1631875Y122375D02*
X1638500Y129000D01*
X1632315Y87250D02*
X1633532Y86032D01*
X1635175Y84390D01*
X1635222Y90157D02*
Y105000D01*
X1639500Y109757D02*
X1647257D01*
X1635222Y105479D02*
X1639500Y109757D01*
X1635222Y105000D02*
Y105479D01*
X1647257Y109757D02*
X1647500Y110000D01*
X1549265Y61477D02*
Y64235D01*
X1549500Y56000D02*
Y61243D01*
X1548500Y65000D02*
X1549265Y64235D01*
Y61477D02*
X1549500Y61243D01*
X1569000Y56000D02*
Y66000D01*
X1569750Y66750D01*
X1686000Y301000D02*
X1699500D01*
X790000Y342500D02*
X804000D01*
X1186722Y200028D02*
X1196552Y190198D01*
Y170379D02*
Y190198D01*
X1186722Y200028D02*
Y210028D01*
X1185000Y211750D02*
X1186722Y210028D01*
X1184500Y213750D02*
X1186104Y212146D01*
X1184052Y168000D02*
X1194173D01*
X1196552Y170379D01*
X1184500Y213750D02*
Y323493D01*
X1111743Y396250D02*
X1184500Y323493D01*
X1177072Y176000D02*
X1182052D01*
X1175072Y178000D02*
Y223572D01*
Y178000D02*
X1177072Y176000D01*
X1175072Y223572D02*
X1178000Y226500D01*
Y321500D01*
X1108750Y390750D02*
X1178000Y321500D01*
X1256250Y543000D02*
X1378750Y665500D01*
X1533750D01*
X1534500Y666250D01*
X1594250D01*
X1639250Y74750D02*
X1669500D01*
X1635175Y78825D02*
Y84390D01*
Y78825D02*
X1639250Y74750D01*
X1632315Y87250D02*
X1635222Y90157D01*
X1653250Y769000D02*
X1698493D01*
X1703750Y774257D01*
Y785500D02*
X1704250Y786000D01*
X1703750Y774257D02*
Y785500D01*
X1656733Y576000D02*
X1668750D01*
X1654483Y573750D02*
X1656733Y576000D01*
X1654483Y571250D02*
Y573750D01*
X1643250Y561493D02*
Y568250D01*
X1653575Y566075D02*
Y570342D01*
X1654483Y571250D01*
X1643250Y560743D02*
Y561493D01*
Y559500D02*
Y559993D01*
X1644750Y561493D01*
X1643250Y559500D02*
Y560743D01*
X1644750Y561493D02*
X1648993D01*
X1653575Y566075D01*
X1721500Y558193D02*
X1723000Y559693D01*
X1717443Y558193D02*
X1721500D01*
X1626007Y540750D02*
X1700000D01*
X1717443Y558193D01*
X1723000Y559693D02*
Y561500D01*
X1638500Y129000D02*
X1647500D01*
X1456000Y256000D02*
X1475000D01*
X1397750Y252000D02*
X1452000D01*
X1456000Y256000D01*
X1242500Y407250D02*
X1397750Y252000D01*
X1399500Y243500D02*
X1452250D01*
X1456000Y239750D01*
X1475000D01*
X1240750Y402250D02*
X1399500Y243500D01*
X1475000Y239750D02*
X1494250D01*
X1146500Y402250D02*
X1240750D01*
X1475000Y256000D02*
X1494250D01*
X1498250Y252000D02*
X1511500D01*
X1494250Y256000D02*
X1498250Y252000D01*
X1494250Y239750D02*
X1498000Y243500D01*
X1511500D01*
X1237750Y397000D02*
X1409250Y225500D01*
X1474000D02*
X1500500Y199000D01*
X1409250Y225500D02*
X1474000D01*
X1703500Y95750D02*
Y111000D01*
Y95750D02*
X1703750Y95500D01*
X1702200Y93950D02*
X1703750Y95500D01*
X1702200Y88200D02*
Y93950D01*
X1649000Y85750D02*
X1699750D01*
X1702200Y88200D01*
X1031750Y396250D02*
X1111743D01*
X1020000Y408000D02*
Y434750D01*
Y408000D02*
X1031750Y396250D01*
X1001750Y415500D02*
X1026500Y390750D01*
X1108750D01*
X1001750Y415500D02*
Y453000D01*
X1291250Y713000D02*
Y713000D01*
X1284312D02*
X1291250D01*
X1435250Y462500D02*
X1514500D01*
X1275500Y462500D02*
X1435250Y462500D01*
X1400250Y367750D02*
X1419750D01*
X1158250Y453000D02*
X1239000D01*
X1324250Y367750D02*
X1400250D01*
X1239000Y453000D02*
X1324250Y367750D01*
X1419750D02*
X1466500D01*
X1419250Y383000D02*
X1447750D01*
X1319250D02*
X1419250D01*
X1451250Y386500D02*
X1465750D01*
X1447750Y383000D02*
X1451250Y386500D01*
X1465750D02*
X1466500Y387250D01*
X1244250Y458000D02*
X1319250Y383000D01*
X1038250Y629750D02*
X1055000Y613000D01*
X947057Y629750D02*
X1038250D01*
X1038500Y612000D02*
X1045000Y605500D01*
X937050Y594050D02*
X955000Y612000D01*
X1038500D01*
X936757Y619450D02*
X947057Y629750D01*
X933300Y619450D02*
X936757D01*
X932874Y645276D02*
X1031724D01*
X1059750Y617250D01*
X950375Y738625D02*
X1070000Y619000D01*
X797250Y788250D02*
X936000D01*
X730500Y691750D02*
X842200Y580050D01*
X726125Y696125D02*
X730500Y691750D01*
X721250Y701000D02*
X726125Y696125D01*
X700150Y701000D02*
X721250D01*
X700150D02*
X702000Y702850D01*
Y719200D02*
X704800Y722000D01*
X702000Y702850D02*
Y719200D01*
X700150Y722000D02*
Y722000D01*
X686800Y722000D02*
X700150D01*
Y722000D02*
X704800D01*
X842200Y580050D02*
X976700D01*
X983750Y573000D01*
X1001750D01*
X608000Y718900D02*
X611100Y722000D01*
X606450Y701000D02*
X608000Y702550D01*
Y718900D01*
X606450Y722000D02*
Y722000D01*
X593100Y722000D02*
X606450D01*
Y722000D02*
X611100D01*
X981000Y568000D02*
X1001750D01*
X840250Y574500D02*
X974500D01*
X981000Y568000D01*
X742750Y672000D02*
X840250Y574500D01*
X606450Y701000D02*
X615250D01*
X644250Y672000D01*
X742750D01*
X500100Y722000D02*
X515000D01*
Y701000D02*
X525500D01*
X515000D02*
Y722000D01*
X513450Y701000D02*
X515000D01*
X838000Y569500D02*
X972250D01*
X978750Y563000D02*
X1001750D01*
X972250Y569500D02*
X978750Y563000D01*
X757250Y650250D02*
X838000Y569500D01*
X576250Y650250D02*
X757250D01*
X525500Y701000D02*
X576250Y650250D01*
X1582200Y580450D02*
X1631050D01*
X1581250Y579500D02*
X1582200Y580450D01*
X1582000Y567750D02*
X1604500D01*
X1581250Y568500D02*
X1582000Y567750D01*
X1581250Y546500D02*
X1603500D01*
X1618000Y532000D01*
X1114500Y761250D02*
Y784250D01*
X1120500Y790250D02*
X1338500D01*
X1114500Y784250D02*
X1120500Y790250D01*
X1467007Y699757D02*
Y706507D01*
X1464250Y697000D02*
X1467007Y699757D01*
X1442250Y697000D02*
X1464250D01*
X1467007Y706507D02*
X1468500Y708000D01*
X1484250D01*
X1343750Y795500D02*
X1442250Y697000D01*
X1438250Y690500D02*
X1571000D01*
X1338500Y790250D02*
X1438250Y690500D01*
X1571000D02*
X1580507Y700007D01*
X1051750Y546000D02*
X1074750D01*
X1077750Y543000D01*
X933300Y594050D02*
X937050D01*
X1055000Y591250D02*
Y613000D01*
X1059750Y591500D02*
Y617250D01*
X1070000Y591250D02*
Y619000D01*
X944500Y744500D02*
Y761250D01*
Y744500D02*
X950375Y738625D01*
X1647500Y129000D02*
X1648743Y127757D01*
Y123257D02*
X1669000Y103000D01*
Y95250D02*
Y103000D01*
X1648743Y123257D02*
Y127757D01*
X1670500Y93750D02*
X1671500D01*
X1669000Y95250D02*
X1670500Y93750D01*
X1647500Y90750D02*
X1657925Y101175D01*
Y104925D02*
X1658000Y105000D01*
X1647500Y84250D02*
Y85750D01*
X1657925Y101175D02*
Y104925D01*
X1647500Y85750D02*
Y90750D01*
X1746000Y767000D02*
X1748250Y769250D01*
Y786000D01*
X1759000Y768000D02*
X1759250Y768250D01*
Y786000D01*
X1618000Y532000D02*
X1624250D01*
X1721000Y862250D02*
X1722250Y861000D01*
X1735000D01*
X407400Y807375D02*
X420100D01*
X420500Y807775D02*
Y855000D01*
X420100Y807375D02*
X420500Y807775D01*
X1741250Y846063D02*
Y865500D01*
X1730000Y844000D02*
X1739187D01*
X1741250Y846063D01*
X1739187Y844000D02*
X1753000D01*
X1755000Y842000D01*
X1735000Y880500D02*
Y888500D01*
X1735000Y888500D01*
X1735000Y867500D02*
X1735307Y867193D01*
X1739557D01*
X1741250Y865500D01*
X1698250Y845250D02*
Y865000D01*
X1700750Y867500D01*
X1707000D01*
X1712500Y844500D02*
Y851000D01*
X1712000Y844000D02*
X1712500Y844500D01*
X1707000Y856500D02*
Y861000D01*
Y856500D02*
X1712500Y851000D01*
X1697750Y874250D02*
X1698000Y874000D01*
X1707000D01*
X1706750Y880750D02*
X1707000Y880500D01*
X1706750Y880750D02*
Y888750D01*
X1499000Y163000D02*
Y171000D01*
X1503500Y175500D01*
X1511500D01*
X1511000Y151000D02*
Y164500D01*
X1511500Y165000D01*
X1511250Y111500D02*
Y126168D01*
X1510250Y127168D02*
X1511250Y126168D01*
X1510250Y127168D02*
Y128250D01*
X1493500Y115000D02*
Y131000D01*
X1492750Y131750D02*
X1493500Y131000D01*
X1522000Y27750D02*
X1523000Y26750D01*
X1507750Y27750D02*
X1522000D01*
X1639250Y58250D02*
X1652250D01*
X1639000Y58000D02*
X1639250Y58250D01*
X1701250Y76750D02*
X1702000Y76000D01*
X1687250Y76750D02*
X1701250D01*
X1700000Y384100D02*
X1712900D01*
X1713000Y384000D01*
X1712600Y353150D02*
X1713000Y352750D01*
X1700000Y353150D02*
X1712600D01*
X1711768Y332850D02*
X1712918Y334000D01*
X1714000D01*
X1700000Y332850D02*
X1711768D01*
X1699500Y251150D02*
X1716400D01*
X1716750Y251500D01*
X1713450Y282450D02*
X1714000Y283000D01*
X1699500Y282450D02*
X1713450D01*
X1699500Y301000D02*
X1700000Y301500D01*
X1310500Y156000D02*
X1333052D01*
X1201750D02*
X1310500D01*
X1311500Y155000D01*
Y147500D02*
Y155000D01*
X1639250Y184250D02*
Y238500D01*
X1615500Y262250D02*
Y305000D01*
Y262250D02*
X1639250Y238500D01*
X1770250Y786000D02*
Y804418D01*
X1769250Y805418D02*
Y806500D01*
Y805418D02*
X1770250Y804418D01*
X1781250Y786000D02*
Y806000D01*
X1780750Y806500D02*
X1781250Y806000D01*
X1080500Y761250D02*
Y789250D01*
X1086750Y795500D02*
X1343750D01*
X1080500Y789250D02*
X1086750Y795500D01*
X1046500Y791750D02*
X1056000Y801250D01*
X1265250D01*
X1046500Y761250D02*
Y791750D01*
X1010000Y790750D02*
X1025750Y806500D01*
X1010000Y763750D02*
X1012500Y761250D01*
X1010000Y763750D02*
Y790750D01*
X1025750Y806500D02*
X1100500D01*
X937000Y804007D02*
X938757Y802250D01*
X937000Y804007D02*
Y813850D01*
X938757Y802250D02*
X959750D01*
X975500Y786500D01*
Y764250D02*
Y786500D01*
Y764250D02*
X978500Y761250D01*
X932850Y818250D02*
X936850Y814250D01*
Y814000D02*
X937000Y813850D01*
X932600Y818250D02*
X932850D01*
X936850Y814000D02*
Y814250D01*
X988750Y542750D02*
X1001500D01*
X983250Y537250D02*
X988750Y542750D01*
X974250Y537250D02*
X983250D01*
X1001500Y542750D02*
X1001750Y543000D01*
X956500Y555000D02*
X974250Y537250D01*
X812500Y555000D02*
X956500D01*
X804000Y332750D02*
Y342500D01*
X667450Y701000D02*
Y722000D01*
X668800D02*
Y746000D01*
X650800Y722000D02*
X667450D01*
X668800D01*
Y746000D02*
X674000D01*
X573750Y701000D02*
Y722000D01*
X575100D02*
Y746000D01*
X580300D01*
X557100Y722000D02*
X573750D01*
X575100D01*
X478243Y873000D02*
X480000Y874757D01*
Y883500D01*
X464100Y873000D02*
X478243D01*
X1158250Y458000D02*
X1244250D01*
X1514500Y462500D02*
X1516000Y461000D01*
Y460500D02*
Y461000D01*
X1248709Y463000D02*
X1249209Y462500D01*
X1158250Y463000D02*
X1248709D01*
X1249209Y462500D02*
X1249750D01*
X1253250Y468000D02*
X1327500Y393750D01*
X1466500D01*
X1158250Y468000D02*
X1253250D01*
X1649500Y548750D02*
X1658500Y557750D01*
X1668750D01*
X1626750Y548750D02*
X1649500D01*
X1624250Y551250D02*
X1626750Y548750D01*
X1624250Y551250D02*
Y559500D01*
X1604500Y567750D02*
X1612750Y559500D01*
X1624250D01*
X1631050Y580450D02*
X1643250Y568250D01*
X1624250Y532000D02*
Y538993D01*
X1626007Y540750D01*
X1262250Y538000D02*
X1380250Y656000D01*
X1603750D02*
X1606068Y658318D01*
X1380250Y656000D02*
X1603750D01*
X1606068Y662068D02*
X1610000Y666000D01*
X1606068Y658318D02*
Y662068D01*
X1507750Y731500D02*
X1514200Y737950D01*
Y754600D01*
X1494250Y731500D02*
X1507750D01*
X1469600Y727250D02*
Y728450D01*
X1472650Y731500D01*
X1494250D01*
X1619250Y731000D02*
X1626600Y738350D01*
Y754600D01*
X1608250Y731000D02*
X1619250D01*
X1606750Y727500D02*
X1608250Y729000D01*
X1583000Y727500D02*
X1606750D01*
X1608250Y729000D02*
Y731000D01*
X1135000Y434750D02*
X1135000Y434750D01*
Y452250D01*
X886000Y343500D02*
Y359000D01*
X885500Y343000D02*
X886000Y343500D01*
X924000Y338000D02*
Y359000D01*
Y338000D02*
X924000Y338000D01*
X965000Y294646D02*
X965913Y293733D01*
X965000Y294646D02*
Y320000D01*
X923913Y293733D02*
X924000Y293820D01*
Y320000D01*
X903000Y293820D02*
Y315743D01*
X901243Y317500D02*
X903000Y315743D01*
X896500Y317500D02*
X901243D01*
X902913Y293733D02*
X903000Y293820D01*
X895000Y319000D02*
X896500Y317500D01*
X894000Y320000D02*
X895000Y319000D01*
X869000Y320000D02*
X894000D01*
X1070000Y420250D02*
X1075750Y414500D01*
X1070000Y420250D02*
Y434750D01*
X1201750Y156000D02*
X1201750Y156000D01*
X1151500Y154860D02*
X1163750Y142610D01*
Y121138D02*
Y142610D01*
Y121138D02*
X1167809Y117079D01*
X1180973D02*
X1182052Y116000D01*
X1167809Y117079D02*
X1180973D01*
X1153440Y106000D02*
X1182052D01*
X1151500Y104060D02*
X1153440Y106000D01*
X1815750Y703500D02*
X1834250D01*
X1837750Y700000D01*
X1882750Y766500D02*
Y780000D01*
X1815750Y747500D02*
X1855500D01*
X1856000Y748000D01*
X1715250Y669750D02*
Y786000D01*
X1726000Y746250D02*
X1726250Y746500D01*
Y786000D01*
X1644750Y825750D02*
X1655750D01*
X1643250Y806750D02*
X1655750D01*
X1678250Y806500D02*
X1689500D01*
X1678250Y825500D02*
X1689750D01*
X1130250Y425000D02*
Y434500D01*
Y425000D02*
X1147750Y407500D01*
X1241614D01*
X1115000Y415864D02*
Y434750D01*
X1145864Y385000D02*
X1215500D01*
X1115000Y415864D02*
X1145864Y385000D01*
X1154500Y370000D02*
X1183500D01*
X1089125Y414875D02*
X1109625D01*
X1154500Y370000D01*
X1239250Y496000D02*
X1253750D01*
X1253750Y496000D01*
X1239250Y511500D02*
X1239431Y511319D01*
X1253756D01*
X1187250Y511500D02*
X1221250D01*
X1168750Y493000D02*
X1187250Y511500D01*
X1158250Y493000D02*
X1168750D01*
X1171740Y488000D02*
X1179740Y496000D01*
X1221250D01*
X1158250Y488000D02*
X1171740D01*
X1240451Y356037D02*
X1241768Y354720D01*
X1240451Y356037D02*
Y370000D01*
X1222451D02*
Y378049D01*
X1215500Y385000D02*
X1222451Y378049D01*
X1144500Y397000D02*
X1237750D01*
X1120000Y421500D02*
Y434750D01*
Y421500D02*
X1144500Y397000D01*
X1125000Y423750D02*
Y434750D01*
Y423750D02*
X1146500Y402250D01*
X1130000Y434750D02*
X1130250Y434500D01*
X1201500Y370000D02*
X1203000Y368500D01*
Y354750D02*
Y368500D01*
X1080000Y424000D02*
Y434750D01*
Y424000D02*
X1089125Y414875D01*
X807750Y568250D02*
X811000Y565000D01*
X969250D01*
X782250Y568250D02*
X807750D01*
X969250Y565000D02*
X976250Y558000D01*
X782250Y533500D02*
X791000D01*
X812500Y555000D01*
X810500Y560500D02*
X966000D01*
X782250Y550250D02*
X800250D01*
X810500Y560500D01*
X973500Y553000D02*
X1001750D01*
X966000Y560500D02*
X973500Y553000D01*
X976250Y558000D02*
X1001750D01*
X1045000Y552750D02*
Y591250D01*
Y552750D02*
X1051750Y546000D01*
X1045000Y591250D02*
Y605500D01*
X1059750Y591500D02*
X1060000Y591250D01*
X882500Y644850D02*
X882926Y645276D01*
X1182052Y166000D02*
X1184052Y168000D01*
X889121Y382871D02*
X969250Y463000D01*
X1001750D01*
X889121Y362121D02*
Y382871D01*
X1158500Y558250D02*
X1186341D01*
X1191241Y563150D01*
X1195300D01*
X1158250Y558000D02*
X1158500Y558250D01*
X1597500Y708250D02*
X1598750Y707000D01*
X1582250Y708250D02*
X1597500D01*
X1580507Y706507D02*
X1582250Y708250D01*
X1580507Y700007D02*
Y706507D01*
X1265250Y801250D02*
X1275379Y811379D01*
X930750Y765250D02*
Y777250D01*
X926750Y761250D02*
X930750Y765250D01*
X926500Y761250D02*
X926750D01*
X1594250Y684250D02*
X1595993Y685993D01*
X1599250Y696000D02*
X1632000D01*
X1595993Y692743D02*
X1599250Y696000D01*
X1595993Y685993D02*
Y692743D01*
X1632000Y696000D02*
X1641500Y705500D01*
Y756243D01*
X1634743Y686743D02*
X1646000Y698000D01*
X1626500Y684000D02*
X1629243Y686743D01*
X1634743D01*
X1646000Y698000D02*
Y743371D01*
X1641500Y756243D02*
X1643757Y758500D01*
X1658750D01*
X1656379Y745129D02*
X1658750Y747500D01*
X1646000Y743371D02*
X1647757Y745129D01*
X1656379D01*
X1241864Y407250D02*
X1242500D01*
X1241614Y407500D02*
X1241864Y407250D01*
X978500Y731250D02*
X1080000Y629750D01*
X978500Y731250D02*
Y761250D01*
X1080000Y591250D02*
Y629750D01*
X1012682Y732068D02*
Y761250D01*
X1085250Y591500D02*
Y659500D01*
X1012682Y732068D02*
X1085250Y659500D01*
X1046500Y727250D02*
Y761250D01*
X1089750Y591500D02*
Y684000D01*
X1046500Y727250D02*
X1089750Y684000D01*
X1080500Y741500D02*
X1095000Y727000D01*
X1080500Y741500D02*
Y761250D01*
X1095000Y591250D02*
Y727000D01*
X1100000Y733000D02*
X1114250Y747250D01*
Y761250D01*
X1100000Y591250D02*
Y733000D01*
X1108750Y508000D02*
X1139250Y538500D01*
X983791Y508000D02*
X1108750D01*
X1074750Y574750D02*
X1075000Y575000D01*
Y591250D01*
X1140000D02*
Y614250D01*
X1154700Y613950D02*
X1195300D01*
X1089750Y591500D02*
X1090000Y591250D01*
X1085000D02*
X1085250Y591500D01*
X1484250Y708000D02*
X1484750Y707500D01*
X1670250Y58250D02*
Y73500D01*
X1671500Y74750D01*
X1570750Y322500D02*
X1586500D01*
X1570250Y323000D02*
X1570750Y322500D01*
X1604500D02*
X1607000Y320000D01*
Y305000D02*
Y320000D01*
X1647500Y84250D02*
X1649000Y85750D01*
X1671500Y93750D02*
X1672500Y94750D01*
X1687250D01*
X1679393Y148607D02*
X1687500Y140500D01*
Y128750D02*
Y140500D01*
X1679393Y148607D02*
Y158457D01*
X1676500Y161350D02*
X1679393Y158457D01*
X1676500Y161350D02*
X1705752D01*
X1735004D02*
X1764256D01*
X1727250Y129000D02*
X1735004Y136754D01*
Y161350D01*
X1703500Y129000D02*
X1727250D01*
X759000Y809500D02*
Y818250D01*
Y809500D02*
X780250Y788250D01*
X797250D01*
X936000D02*
X940500Y783750D01*
Y765250D02*
Y783750D01*
Y765250D02*
X944500Y761250D01*
X1105379Y811379D02*
Y817379D01*
X1106250Y818250D01*
X1100500Y806500D02*
X1105379Y811379D01*
X1275379Y811379D02*
Y817379D01*
X1276250Y818250D01*
X886000Y359000D02*
X889121Y362121D01*
X982750Y507500D02*
X983291D01*
X983791Y508000D01*
X954500Y520500D02*
Y528750D01*
X957000Y518000D02*
X1001750D01*
X954500Y520500D02*
X957000Y518000D01*
X951250Y532000D02*
X954500Y528750D01*
X942442Y532000D02*
X951250D01*
X954743Y502743D02*
Y511243D01*
X946750Y494750D02*
X954743Y502743D01*
X956500Y513000D02*
X1001750D01*
X954743Y511243D02*
X956500Y513000D01*
X917250Y542000D02*
X941500D01*
X946750Y536750D01*
X941250Y490250D02*
X946750Y495750D01*
X917250Y490250D02*
X941250D01*
X924000Y406000D02*
X976000Y458000D01*
X924000Y359000D02*
Y406000D01*
X976000Y458000D02*
X1001750D01*
X1158250Y538000D02*
X1262250D01*
X1158250Y543000D02*
X1256250D01*
X1610000Y684000D02*
X1626500D01*
D15*
X366000Y693000D02*
Y705000D01*
X338000Y685500D02*
X358500D01*
X366000Y693000D01*
X412000Y705000D02*
Y717000D01*
X419500Y724500D01*
X440000D01*
X882500Y594050D02*
X933300D01*
X318500Y500500D02*
X367000D01*
X318500D02*
Y511000D01*
X319000Y769500D02*
Y790000D01*
Y769500D02*
X320000Y768500D01*
X321000D01*
X454100Y790000D02*
X456100Y792000D01*
Y792000D02*
X642800D01*
X319000Y790000D02*
X454100D01*
X642800Y792000D02*
X694000D01*
X720000Y818000D01*
Y908000D01*
X656000Y972000D02*
X720000Y908000D01*
X605650Y972000D02*
X656000D01*
X882500Y619450D02*
X933300D01*
X882926Y645276D02*
X932874D01*
D17*
X1521500Y503000D02*
X1522000Y502500D01*
X1542476D01*
X1603000Y524500D02*
X1607250Y528750D01*
X1581250Y524500D02*
X1603000D01*
X1586389Y637250D02*
X1587500D01*
X1583500Y634361D02*
X1586389Y637250D01*
X1583500Y619950D02*
Y634361D01*
X1524150Y625100D02*
X1542480D01*
X1524000Y625250D02*
X1524150Y625100D01*
X1446850D02*
X1465976D01*
X1446500Y624750D02*
X1446850Y625100D01*
X1447000Y502750D02*
X1447250Y502500D01*
X1465976D01*
X1021000Y320000D02*
X1032000D01*
X1147101Y662131D02*
X1147985Y663015D01*
X1147750Y575682D02*
X1147985Y575917D01*
Y660893D01*
X1147101Y661777D02*
X1147985Y660893D01*
X1147101Y661777D02*
Y662131D01*
X1147750Y530318D02*
Y575682D01*
Y530318D02*
X1149068Y529000D01*
X1163750Y669000D02*
X1164275D01*
X1166750Y666525D01*
Y656500D02*
Y666525D01*
Y656500D02*
X1169741Y653509D01*
X1173491D01*
X1175500Y651500D01*
X1198879Y669129D02*
X1199000Y669250D01*
X1190250Y651500D02*
X1198879Y660129D01*
X1175500Y651500D02*
X1190250D01*
X1198879Y660129D02*
Y669129D01*
X1181000Y735000D02*
X1291250D01*
X1170741Y726009D02*
X1172009D01*
X1181000Y735000D01*
X1180250Y702500D02*
X1204000D01*
X1171459Y706541D02*
X1176209D01*
X1180250Y702500D01*
X1169500Y708500D02*
X1171459Y706541D01*
X1204000Y702500D02*
X1213750Y712250D01*
X1284312D01*
X1290500D01*
X1164750Y708500D02*
X1168500Y712250D01*
X1158500Y699250D02*
X1165820Y706570D01*
X1158500Y684843D02*
Y699250D01*
X1165820Y706570D02*
Y707430D01*
X1164750Y708500D02*
X1165820Y707430D01*
X1162167Y722666D02*
X1164917D01*
X1169500Y727250D01*
X1154000Y686000D02*
Y714500D01*
X1162167Y722666D01*
X1163950Y753291D02*
X1166909Y756250D01*
X1163541Y753291D02*
X1163950D01*
X1166909Y756250D02*
X1169000D01*
X1144250Y734000D02*
X1163541Y753291D01*
X1144250Y687715D02*
Y734000D01*
X1169500Y740000D02*
Y741575D01*
X1173925Y746000D02*
X1291250D01*
X1169500Y741575D02*
X1173925Y746000D01*
X1162129Y740129D02*
X1168879D01*
X1170500Y757000D02*
X1291250D01*
X1169500Y756000D02*
X1170500Y757000D01*
X1167750Y752750D02*
Y756000D01*
X1149000Y686657D02*
Y727000D01*
X1162129Y740129D01*
X1169500Y727250D02*
X1170741Y726009D01*
X1171000Y680000D02*
X1291250D01*
X1169500Y678500D02*
X1171000Y680000D01*
X1175629Y691000D02*
X1291250D01*
X1169500Y693250D02*
X1171509Y691241D01*
X1175388D01*
X1175629Y691000D01*
X1167174Y691924D02*
Y696174D01*
X1162750Y687500D02*
X1167174Y691924D01*
X1162750Y683436D02*
Y687500D01*
X1150460Y676803D02*
X1158500Y684843D01*
X1290500Y712250D02*
X1291250Y713000D01*
X1171010Y710740D02*
X1174119D01*
X1169500Y712250D02*
X1171010Y710740D01*
X1168500Y712250D02*
X1169500D01*
X1153289Y673975D02*
X1162750Y683436D01*
X1168181Y677181D02*
X1169500Y678500D01*
X1156117Y671146D02*
X1162152Y677181D01*
X1168181D01*
X1147632Y679632D02*
Y679632D01*
X1154000Y686000D01*
X1144803Y682460D02*
X1149000Y686657D01*
X1141975Y685289D02*
Y685440D01*
X1144250Y687715D01*
X2051400Y825750D02*
Y835350D01*
X2049286Y837464D02*
X2051400Y835350D01*
X1158250Y563000D02*
X1174500D01*
X1179000Y567500D01*
X2046829Y816211D02*
X2050939D01*
X2051400Y815750D01*
X2045700Y817339D02*
X2046829Y816211D01*
X2027750Y816629D02*
Y818500D01*
Y816629D02*
X2028629Y815750D01*
X2023000Y823250D02*
X2027750Y818500D01*
X2028629Y815750D02*
X2036600D01*
X2031250Y839750D02*
X2045700Y825300D01*
Y817339D02*
Y825300D01*
X2026000Y839750D02*
X2031250D01*
X1045000Y614000D02*
X1049000Y610000D01*
Y592250D02*
Y610000D01*
Y592250D02*
X1050000Y591250D01*
X1007000Y320000D02*
X1021000D01*
X1032000D02*
X1033000Y319000D01*
X1007000Y320000D02*
X1007913Y319087D01*
Y293733D02*
Y319087D01*
X1134090Y669590D02*
Y671393D01*
X1136672Y673975D01*
X1124500Y660000D02*
X1134090Y669590D01*
X1136672Y673975D02*
Y674328D01*
X1115000Y591250D02*
Y631250D01*
X1129436Y672750D02*
X1133843Y677157D01*
X1028500Y761250D02*
Y770750D01*
X1035000Y775409D02*
Y777250D01*
X1031750Y772159D02*
X1035000Y775409D01*
X1029909Y772159D02*
X1031750D01*
X1028500Y770750D02*
X1029909Y772159D01*
X999500Y766000D02*
Y776500D01*
X1000250Y777250D01*
X994750Y761250D02*
X999500Y766000D01*
X994500Y761250D02*
X994750D01*
X963500Y764250D02*
Y775250D01*
X960500Y761250D02*
X963500Y764250D01*
Y775250D02*
X965500Y777250D01*
X1064659Y772159D02*
X1066500D01*
X1069750Y775409D01*
Y777250D01*
X1062500Y761250D02*
Y770000D01*
X1064659Y772159D01*
X1096500Y761250D02*
Y769500D01*
X1099409Y772409D01*
X1101250D01*
X1104500Y775659D01*
Y777500D01*
X1055000Y552250D02*
Y591250D01*
X1065000Y553250D02*
Y591250D01*
X1105000D02*
Y630000D01*
X1137090Y662090D01*
Y669090D01*
X1140090Y658090D02*
Y666245D01*
X1120000Y591250D02*
Y638000D01*
X1140090Y658090D01*
X1130000Y591250D02*
Y616814D01*
X1129750Y617064D02*
X1130000Y616814D01*
X1125000Y591250D02*
Y608000D01*
X1125000Y608000D01*
X1137090Y669090D02*
X1139500Y671500D01*
Y671500D01*
X1142328Y668484D02*
Y668672D01*
X1140090Y666245D02*
X1142328Y668484D01*
X1144750Y576925D02*
Y655000D01*
X1143090Y656660D02*
Y663422D01*
Y656660D02*
X1144750Y655000D01*
X1143090Y663422D02*
X1145157Y665490D01*
Y665843D01*
X1144750Y528318D02*
X1149068Y524000D01*
X1144750Y528318D02*
Y576925D01*
X1157250Y524000D02*
X1158250Y523000D01*
X1149068Y524000D02*
X1157250D01*
X1144750Y576925D02*
X1144750Y576925D01*
X1157250Y529000D02*
X1158250Y528000D01*
X1149068Y529000D02*
X1157250D01*
X1123373Y678000D02*
X1128186Y682814D01*
D161*
X1001750Y573000D02*
D03*
Y568000D02*
D03*
Y563000D02*
D03*
Y558000D02*
D03*
Y553000D02*
D03*
Y548000D02*
D03*
Y543000D02*
D03*
Y538000D02*
D03*
Y533000D02*
D03*
Y528000D02*
D03*
Y523000D02*
D03*
Y518000D02*
D03*
Y513000D02*
D03*
Y508000D02*
D03*
Y503000D02*
D03*
Y498000D02*
D03*
Y493000D02*
D03*
Y488000D02*
D03*
Y483000D02*
D03*
Y478000D02*
D03*
Y473000D02*
D03*
Y468000D02*
D03*
Y463000D02*
D03*
Y458000D02*
D03*
Y453000D02*
D03*
X1158250D02*
D03*
Y458000D02*
D03*
Y463000D02*
D03*
Y468000D02*
D03*
Y473000D02*
D03*
Y478000D02*
D03*
Y483000D02*
D03*
Y488000D02*
D03*
Y493000D02*
D03*
Y498000D02*
D03*
Y503000D02*
D03*
Y508000D02*
D03*
Y513000D02*
D03*
Y518000D02*
D03*
Y523000D02*
D03*
Y528000D02*
D03*
Y533000D02*
D03*
Y538000D02*
D03*
Y543000D02*
D03*
Y548000D02*
D03*
Y553000D02*
D03*
Y558000D02*
D03*
Y563000D02*
D03*
Y568000D02*
D03*
Y573000D02*
D03*
D162*
X1020000Y434750D02*
D03*
X1025000D02*
D03*
X1030000D02*
D03*
X1035000D02*
D03*
X1040000D02*
D03*
X1045000D02*
D03*
X1050000D02*
D03*
X1055000D02*
D03*
X1060000D02*
D03*
X1065000D02*
D03*
X1070000D02*
D03*
X1075000D02*
D03*
X1080000D02*
D03*
X1085000D02*
D03*
X1090000D02*
D03*
X1095000D02*
D03*
X1100000D02*
D03*
X1105000D02*
D03*
X1110000D02*
D03*
X1115000D02*
D03*
X1120000D02*
D03*
X1125000D02*
D03*
X1130000D02*
D03*
X1135000D02*
D03*
X1140000D02*
D03*
Y591250D02*
D03*
X1135000D02*
D03*
X1130000D02*
D03*
X1125000D02*
D03*
X1120000D02*
D03*
X1115000D02*
D03*
X1110000D02*
D03*
X1105000D02*
D03*
X1100000D02*
D03*
X1095000D02*
D03*
X1090000D02*
D03*
X1085000D02*
D03*
X1080000D02*
D03*
X1075000D02*
D03*
X1070000D02*
D03*
X1065000D02*
D03*
X1060000D02*
D03*
X1055000D02*
D03*
X1050000D02*
D03*
X1045000D02*
D03*
X1040000D02*
D03*
X1035000D02*
D03*
X1030000D02*
D03*
X1025000D02*
D03*
X1020000D02*
D03*
D163*
X1530250Y46750D02*
D03*
X1536750D02*
D03*
X1543250D02*
D03*
X1549750D02*
D03*
X1556250D02*
D03*
X1562750D02*
D03*
X1569250D02*
D03*
X1575750D02*
D03*
X1582250D02*
D03*
X1588750D02*
D03*
X1595250D02*
D03*
X1601750D02*
D03*
X1608250D02*
D03*
X1614750D02*
D03*
X1530250Y122750D02*
D03*
X1536750D02*
D03*
X1543250D02*
D03*
X1549750D02*
D03*
X1556250D02*
D03*
X1562750D02*
D03*
X1569250D02*
D03*
X1575750D02*
D03*
X1582250D02*
D03*
X1588750D02*
D03*
X1595250D02*
D03*
X1601750D02*
D03*
X1608250D02*
D03*
X1614750D02*
D03*
D164*
X1222451Y370000D02*
D03*
X1240451D02*
D03*
X1725750Y561500D02*
D03*
X1743750D02*
D03*
X1239250Y511500D02*
D03*
X1221250D02*
D03*
X1239250Y496000D02*
D03*
X1221250D02*
D03*
X782250Y568250D02*
D03*
X764250D02*
D03*
X782250Y550250D02*
D03*
X764250D02*
D03*
Y533500D02*
D03*
X782250D02*
D03*
X824247Y490693D02*
D03*
X842247D02*
D03*
X763000Y307500D02*
D03*
X745000D02*
D03*
X763000Y325500D02*
D03*
X745000D02*
D03*
X811000Y364500D02*
D03*
X793000D02*
D03*
X886000Y359000D02*
D03*
X904000D02*
D03*
X942000D02*
D03*
X924000D02*
D03*
X983000Y359000D02*
D03*
X965000D02*
D03*
X1201500Y370000D02*
D03*
X1183500D02*
D03*
X1541000Y26750D02*
D03*
X1523000D02*
D03*
X1652250Y58250D02*
D03*
X1670250D02*
D03*
X1604500Y322500D02*
D03*
X1586500D02*
D03*
X1482750Y412000D02*
D03*
X1464750D02*
D03*
X1482750Y426250D02*
D03*
X1464750D02*
D03*
X1730750Y576500D02*
D03*
X1712750D02*
D03*
X1774500Y587250D02*
D03*
X1756500D02*
D03*
X1856000Y748000D02*
D03*
X1874000D02*
D03*
X1898500Y764250D02*
D03*
X1880500D02*
D03*
X2046750Y802250D02*
D03*
X2064750D02*
D03*
X1730000Y844000D02*
D03*
X1712000D02*
D03*
X1769000Y878000D02*
D03*
X1751000D02*
D03*
X1769000Y894000D02*
D03*
X1751000D02*
D03*
X1668750Y557750D02*
D03*
X1686750D02*
D03*
X1668750Y576000D02*
D03*
X1686750D02*
D03*
X1661250Y598000D02*
D03*
X1679250D02*
D03*
X1582250Y708250D02*
D03*
X1564250D02*
D03*
X1468500Y708000D02*
D03*
X1450500D02*
D03*
X1350250Y824500D02*
D03*
X1332250D02*
D03*
X1276250Y818250D02*
D03*
X1258250D02*
D03*
X1179500Y824750D02*
D03*
X1161500D02*
D03*
X996500Y824500D02*
D03*
X978500D02*
D03*
X1106250Y818250D02*
D03*
X1088250D02*
D03*
X1114500Y761250D02*
D03*
X1096500D02*
D03*
X1080500Y761250D02*
D03*
X1062500D02*
D03*
X1046500D02*
D03*
X1028500D02*
D03*
X1012500D02*
D03*
X994500D02*
D03*
X978500D02*
D03*
X960500D02*
D03*
X944500D02*
D03*
X926500D02*
D03*
X932600Y818250D02*
D03*
X914600D02*
D03*
X801500Y824000D02*
D03*
X819500D02*
D03*
X741000Y818250D02*
D03*
X759000D02*
D03*
X518100Y722000D02*
D03*
X536100D02*
D03*
X482100Y722000D02*
D03*
X500100D02*
D03*
X575100Y722000D02*
D03*
X593100D02*
D03*
X668800Y722000D02*
D03*
X686800D02*
D03*
X611100Y722000D02*
D03*
X629100D02*
D03*
X704800Y722000D02*
D03*
X722800D02*
D03*
X1087000Y358000D02*
D03*
X1105000D02*
D03*
X1024000Y359000D02*
D03*
X1042000D02*
D03*
D165*
X1333052Y166000D02*
D03*
Y156000D02*
D03*
Y146000D02*
D03*
Y176000D02*
D03*
Y86000D02*
D03*
Y76000D02*
D03*
Y66000D02*
D03*
Y136000D02*
D03*
X1182052Y176000D02*
D03*
Y166000D02*
D03*
Y156000D02*
D03*
Y146000D02*
D03*
Y136000D02*
D03*
Y126000D02*
D03*
Y116000D02*
D03*
Y106000D02*
D03*
Y96000D02*
D03*
Y86000D02*
D03*
Y76000D02*
D03*
Y66000D02*
D03*
D166*
X1292552Y40500D02*
D03*
X1282552D02*
D03*
X1272552D02*
D03*
X1262552D02*
D03*
X1272552Y198500D02*
D03*
X1262552D02*
D03*
X1252552D02*
D03*
X1242552D02*
D03*
X1232552D02*
D03*
X1222552D02*
D03*
X1282552D02*
D03*
X1292552D02*
D03*
D167*
X1726250Y786000D02*
D03*
X1715250D02*
D03*
X1704250D02*
D03*
X1693250D02*
D03*
X1770250D02*
D03*
X1759250D02*
D03*
X1748250D02*
D03*
X1737250D02*
D03*
X1781250D02*
D03*
X1726250Y610000D02*
D03*
X1715250D02*
D03*
X1704250D02*
D03*
X1693250D02*
D03*
X1770250D02*
D03*
X1759250D02*
D03*
X1748250D02*
D03*
X1737250D02*
D03*
X1781250D02*
D03*
D168*
X1815750Y758500D02*
D03*
Y747500D02*
D03*
Y736500D02*
D03*
Y725500D02*
D03*
Y714500D02*
D03*
Y703500D02*
D03*
Y692500D02*
D03*
Y681500D02*
D03*
Y670500D02*
D03*
Y659500D02*
D03*
Y648500D02*
D03*
Y637500D02*
D03*
X1658750Y758500D02*
D03*
Y747500D02*
D03*
Y736500D02*
D03*
Y725500D02*
D03*
Y714500D02*
D03*
Y703500D02*
D03*
Y692500D02*
D03*
Y681500D02*
D03*
Y670500D02*
D03*
Y659500D02*
D03*
Y648500D02*
D03*
Y637500D02*
D03*
D169*
X1055500Y406250D02*
D03*
X1172500Y651750D02*
D03*
X1169500Y740000D02*
D03*
Y678500D02*
D03*
Y756000D02*
D03*
X987750Y644850D02*
D03*
X667750Y672250D02*
D03*
X729500Y692750D02*
D03*
X667750Y650250D02*
D03*
X1111373Y743750D02*
D03*
X1081000Y743750D02*
D03*
X1046500Y743750D02*
D03*
X1012500Y743750D02*
D03*
X978750Y743750D02*
D03*
X982250Y706500D02*
D03*
X1143000Y277000D02*
D03*
X988000Y629750D02*
D03*
X1169500Y724000D02*
D03*
X987750Y612250D02*
D03*
X1169500Y708500D02*
D03*
Y693250D02*
D03*
X1400250Y367750D02*
D03*
X1419500Y383250D02*
D03*
X1435250Y462500D02*
D03*
X1402000Y394250D02*
D03*
X1633500Y86000D02*
D03*
X1646750Y146250D02*
D03*
X1631250Y123000D02*
D03*
X1475000Y239750D02*
D03*
X1529250Y94500D02*
D03*
X1475000Y256000D02*
D03*
X1502750Y78000D02*
D03*
X1502750Y62250D02*
D03*
X1702250Y93250D02*
D03*
X1608500Y145000D02*
D03*
X1589750Y145250D02*
D03*
X1174750Y226500D02*
D03*
X1185000Y211750D02*
D03*
X897500Y391500D02*
D03*
X924000Y391500D02*
D03*
X1070250Y303500D02*
D03*
X985000Y375000D02*
D03*
X1064750Y374500D02*
D03*
X1029000Y374000D02*
D03*
X1513750Y656000D02*
D03*
X1533750Y665500D02*
D03*
X1211000Y478000D02*
D03*
X1191250Y485500D02*
D03*
X1645500Y598500D02*
D03*
X1653000Y574750D02*
D03*
X1705250Y562500D02*
D03*
X1740500Y590500D02*
D03*
X1658500Y529500D02*
D03*
D170*
X1183250Y779000D02*
D03*
D171*
X1199000Y669250D02*
D03*
D172*
X1214000Y665500D02*
D03*
D173*
X1290000Y780500D02*
D03*
Y668000D02*
D03*
D174*
X1291250Y757000D02*
D03*
Y746000D02*
D03*
Y735000D02*
D03*
Y724000D02*
D03*
Y713000D02*
D03*
Y702000D02*
D03*
Y691000D02*
D03*
Y680000D02*
D03*
D175*
X1207500Y783000D02*
D03*
D176*
X487300Y746000D02*
D03*
X512700D02*
D03*
X487300Y836000D02*
D03*
X512700D02*
D03*
X580300Y746000D02*
D03*
X605700D02*
D03*
X580300Y836000D02*
D03*
X605700D02*
D03*
X1289200Y929000D02*
D03*
X1263800D02*
D03*
X1289200Y839000D02*
D03*
X1263800D02*
D03*
X1119200Y929000D02*
D03*
X1093800D02*
D03*
X1119200Y839000D02*
D03*
X1093800D02*
D03*
X942700Y930000D02*
D03*
X917300D02*
D03*
X942700Y840000D02*
D03*
X917300D02*
D03*
X746550Y839000D02*
D03*
X771950D02*
D03*
X746550Y929000D02*
D03*
X771950D02*
D03*
X699400Y836000D02*
D03*
X674000D02*
D03*
X699400Y746000D02*
D03*
X674000D02*
D03*
D177*
X1542480Y625100D02*
D03*
X1542476Y502500D02*
D03*
X1465976Y625100D02*
D03*
Y502500D02*
D03*
D178*
X1583500Y619950D02*
D03*
D179*
X1581250Y524500D02*
D03*
Y513500D02*
D03*
Y535500D02*
D03*
Y546500D02*
D03*
Y557500D02*
D03*
Y568500D02*
D03*
Y579500D02*
D03*
Y590500D02*
D03*
Y601500D02*
D03*
D180*
X1971250Y794750D02*
D03*
X1971250Y824750D02*
D03*
Y809750D02*
D03*
Y854750D02*
D03*
Y839750D02*
D03*
D181*
X1053850Y909250D02*
D03*
X983850D02*
D03*
X1397500D02*
D03*
X1327500D02*
D03*
X1227500Y909250D02*
D03*
X1157500D02*
D03*
X810250D02*
D03*
X880250D02*
D03*
D182*
X1583000Y727500D02*
D03*
X1550300D02*
D03*
X1469600Y727250D02*
D03*
X1436900D02*
D03*
X1365650Y825000D02*
D03*
X1398350D02*
D03*
X1193650D02*
D03*
X1226350D02*
D03*
X1010000D02*
D03*
X1042700D02*
D03*
X866450Y824500D02*
D03*
X833750D02*
D03*
X667450Y701000D02*
D03*
X700150D02*
D03*
X573750Y701000D02*
D03*
X606450D02*
D03*
X480750D02*
D03*
X513450D02*
D03*
D183*
X1598750Y707000D02*
D03*
X1617750D02*
D03*
X1608250Y731000D02*
D03*
X895000Y319000D02*
D03*
X885500Y343000D02*
D03*
X904500D02*
D03*
X1105500D02*
D03*
X1086500D02*
D03*
X1096000Y319000D02*
D03*
X1042500Y343000D02*
D03*
X1023500D02*
D03*
X1033000Y319000D02*
D03*
X1624250Y559500D02*
D03*
X1633750Y559500D02*
D03*
X1643250D02*
D03*
Y532000D02*
D03*
X1633750D02*
D03*
X1624250D02*
D03*
X1494250Y731500D02*
D03*
X1503750Y707500D02*
D03*
X1484750D02*
D03*
D184*
X1136318Y690945D02*
D03*
X1139146Y688117D02*
D03*
X1141975Y685289D02*
D03*
X1144803Y682460D02*
D03*
X1147632Y679632D02*
D03*
X1150460Y676803D02*
D03*
X1153289Y673975D02*
D03*
X1156117Y671146D02*
D03*
X1128186Y682814D02*
D03*
X1131015Y679985D02*
D03*
X1133843Y677157D02*
D03*
X1136672Y674328D02*
D03*
X1139500Y671500D02*
D03*
X1142328Y668672D02*
D03*
X1145157Y665843D02*
D03*
X1147985Y663015D02*
D03*
D185*
X1142152Y676980D02*
D03*
D186*
X1129777Y689354D02*
D03*
X1154526Y664606D02*
D03*
D187*
X1253756Y511319D02*
D03*
X1272756D02*
D03*
X1253750Y496000D02*
D03*
X1272750D02*
D03*
X730750Y533500D02*
D03*
X749750D02*
D03*
X730750Y550250D02*
D03*
X749750D02*
D03*
X730750Y568250D02*
D03*
X749750D02*
D03*
X1241768Y354720D02*
D03*
X1222768D02*
D03*
X1203000Y354750D02*
D03*
X1184000D02*
D03*
X1570250Y323000D02*
D03*
X1551250D02*
D03*
X1019250Y777250D02*
D03*
X1000250D02*
D03*
X1054000Y777250D02*
D03*
X1035000D02*
D03*
X1088750Y777250D02*
D03*
X1069750D02*
D03*
X1123500Y777500D02*
D03*
X1104500D02*
D03*
X984500Y777250D02*
D03*
X965500D02*
D03*
X949750Y777250D02*
D03*
X930750D02*
D03*
D188*
X917250Y508250D02*
D03*
Y490250D02*
D03*
X917250Y542000D02*
D03*
Y524000D02*
D03*
X711247Y459693D02*
D03*
Y477693D02*
D03*
X693247Y459693D02*
D03*
Y477693D02*
D03*
X798247Y427693D02*
D03*
Y445693D02*
D03*
X780247Y427693D02*
D03*
Y445693D02*
D03*
X676000Y360000D02*
D03*
Y342000D02*
D03*
X660000Y360000D02*
D03*
Y342000D02*
D03*
X869000Y320000D02*
D03*
Y338000D02*
D03*
X924000D02*
D03*
Y320000D02*
D03*
X965000Y338000D02*
D03*
Y320000D02*
D03*
X1511250Y111500D02*
D03*
Y93500D02*
D03*
X1687250Y94750D02*
D03*
Y76750D02*
D03*
X1687500Y110750D02*
D03*
Y128750D02*
D03*
X1703500Y129000D02*
D03*
Y111000D02*
D03*
X1500750Y452750D02*
D03*
Y434750D02*
D03*
X1555500Y457500D02*
D03*
Y439500D02*
D03*
X1839750Y730000D02*
D03*
Y748000D02*
D03*
X2023000Y805250D02*
D03*
Y823250D02*
D03*
X2068500Y836500D02*
D03*
Y818500D02*
D03*
X2049286Y855464D02*
D03*
Y837464D02*
D03*
X1863000Y872000D02*
D03*
Y854000D02*
D03*
X1879000Y872000D02*
D03*
Y854000D02*
D03*
X1626500Y666000D02*
D03*
Y684000D02*
D03*
X1610000D02*
D03*
Y666000D02*
D03*
X1594250Y684250D02*
D03*
Y666250D02*
D03*
X1310000Y835000D02*
D03*
Y853000D02*
D03*
X1140000Y835000D02*
D03*
Y853000D02*
D03*
X963000Y836000D02*
D03*
Y854000D02*
D03*
X795000Y859000D02*
D03*
Y841000D02*
D03*
X441000Y855000D02*
D03*
Y873000D02*
D03*
X464100Y855000D02*
D03*
Y873000D02*
D03*
X557100Y855000D02*
D03*
Y873000D02*
D03*
X536000Y855000D02*
D03*
Y873000D02*
D03*
X626000Y855000D02*
D03*
Y873000D02*
D03*
X650800Y855000D02*
D03*
Y873000D02*
D03*
X464100Y722000D02*
D03*
Y740000D02*
D03*
X650800Y722000D02*
D03*
Y740000D02*
D03*
X557100Y722000D02*
D03*
Y740000D02*
D03*
X145000Y829000D02*
D03*
Y811000D02*
D03*
X1070000Y320000D02*
D03*
Y338000D02*
D03*
X1007000Y320000D02*
D03*
Y338000D02*
D03*
D189*
X946750Y495750D02*
D03*
Y536750D02*
D03*
D190*
X733247Y476193D02*
D03*
Y445193D02*
D03*
X758000Y413500D02*
D03*
Y444500D02*
D03*
X696000Y327500D02*
D03*
Y358500D02*
D03*
X1843000Y855500D02*
D03*
Y886500D02*
D03*
X1819000Y855500D02*
D03*
Y886500D02*
D03*
X319000Y821000D02*
D03*
Y790000D02*
D03*
D191*
X790997Y485943D02*
D03*
X757997D02*
D03*
D192*
X831247Y462693D02*
D03*
X804000Y332750D02*
D03*
X1721000Y870750D02*
D03*
D193*
X817247Y452943D02*
D03*
Y459443D02*
D03*
Y465943D02*
D03*
Y472443D02*
D03*
X845247Y452943D02*
D03*
Y459443D02*
D03*
Y465943D02*
D03*
Y472443D02*
D03*
X818000Y342500D02*
D03*
Y336000D02*
D03*
Y329500D02*
D03*
Y323000D02*
D03*
X790000Y342500D02*
D03*
Y336000D02*
D03*
Y329500D02*
D03*
Y323000D02*
D03*
X1735000Y880500D02*
D03*
Y874000D02*
D03*
Y867500D02*
D03*
Y861000D02*
D03*
X1707000Y880500D02*
D03*
Y874000D02*
D03*
Y867500D02*
D03*
Y861000D02*
D03*
D194*
X764000Y373500D02*
D03*
X722000D02*
D03*
D195*
X730500Y284500D02*
D03*
X761500D02*
D03*
X1752500Y914000D02*
D03*
X1783500D02*
D03*
X1752500Y938000D02*
D03*
X1783500D02*
D03*
D196*
X860913Y293733D02*
D03*
X881913D02*
D03*
X902913D02*
D03*
X923913D02*
D03*
X944913D02*
D03*
X965913D02*
D03*
X986913D02*
D03*
X1007913D02*
D03*
Y43733D02*
D03*
X986913D02*
D03*
X965913D02*
D03*
X944913D02*
D03*
X923913D02*
D03*
X902913D02*
D03*
X881913D02*
D03*
X860913D02*
D03*
D197*
X1480500Y157000D02*
D03*
X1480500Y147500D02*
D03*
Y138000D02*
D03*
X1453000D02*
D03*
Y147500D02*
D03*
Y157000D02*
D03*
X1647500Y84250D02*
D03*
X1671500Y93750D02*
D03*
Y74750D02*
D03*
Y119500D02*
D03*
X1647500Y110000D02*
D03*
Y129000D02*
D03*
X480000Y883500D02*
D03*
Y864500D02*
D03*
X504000Y874000D02*
D03*
X574000Y882500D02*
D03*
Y863500D02*
D03*
X598000Y873000D02*
D03*
X667000Y881500D02*
D03*
Y862500D02*
D03*
X691000Y872000D02*
D03*
D198*
X1493500Y94000D02*
D03*
Y115000D02*
D03*
X338000Y706500D02*
D03*
Y685500D02*
D03*
X440000Y703500D02*
D03*
Y724500D02*
D03*
X321000Y768500D02*
D03*
Y747500D02*
D03*
D199*
X1695750Y262350D02*
D03*
Y251150D02*
D03*
Y271250D02*
D03*
Y282450D02*
D03*
X1696250Y364350D02*
D03*
Y353150D02*
D03*
Y372900D02*
D03*
Y384100D02*
D03*
Y312700D02*
D03*
Y301500D02*
D03*
Y321650D02*
D03*
Y332850D02*
D03*
X1579750Y451150D02*
D03*
Y462350D02*
D03*
Y440100D02*
D03*
Y428900D02*
D03*
D200*
X1651500Y277500D02*
D03*
Y269000D02*
D03*
Y260500D02*
D03*
Y252000D02*
D03*
Y243500D02*
D03*
Y235000D02*
D03*
Y226500D02*
D03*
Y218000D02*
D03*
Y209500D02*
D03*
Y201000D02*
D03*
Y192500D02*
D03*
Y184000D02*
D03*
Y286000D02*
D03*
Y175500D02*
D03*
Y294500D02*
D03*
X1511500Y192500D02*
D03*
Y201000D02*
D03*
Y209500D02*
D03*
Y218000D02*
D03*
Y226500D02*
D03*
Y235000D02*
D03*
Y243500D02*
D03*
Y252000D02*
D03*
Y260500D02*
D03*
Y269000D02*
D03*
Y277500D02*
D03*
Y286000D02*
D03*
Y184000D02*
D03*
Y294500D02*
D03*
Y175500D02*
D03*
D201*
X1624000Y165000D02*
D03*
X1615500D02*
D03*
X1607000D02*
D03*
X1598500D02*
D03*
X1590000D02*
D03*
X1581500D02*
D03*
X1573000D02*
D03*
X1564500D02*
D03*
X1556000D02*
D03*
X1547500D02*
D03*
X1539000D02*
D03*
X1530500D02*
D03*
X1632500D02*
D03*
X1522000D02*
D03*
X1641000D02*
D03*
X1624000Y305000D02*
D03*
X1615500D02*
D03*
X1607000D02*
D03*
X1598500D02*
D03*
X1590000D02*
D03*
X1581500D02*
D03*
X1573000D02*
D03*
X1564500D02*
D03*
X1556000D02*
D03*
X1547500D02*
D03*
X1539000D02*
D03*
X1530500D02*
D03*
X1632500D02*
D03*
X1522000D02*
D03*
X1641000D02*
D03*
D202*
X1511500Y165000D02*
D03*
X1651500Y305000D02*
D03*
D203*
Y165000D02*
D03*
X1511500Y305000D02*
D03*
D204*
X1598000Y218500D02*
D03*
X1565000Y235000D02*
D03*
Y251500D02*
D03*
X1598000Y235000D02*
D03*
X1581500D02*
D03*
D205*
X1565000Y218500D02*
D03*
X1581500D02*
D03*
Y251500D02*
D03*
D206*
X1598000Y251500D02*
D03*
D207*
X1524500Y380750D02*
D03*
Y387250D02*
D03*
Y393750D02*
D03*
Y400250D02*
D03*
Y354750D02*
D03*
Y361250D02*
D03*
Y367750D02*
D03*
Y374250D02*
D03*
X1466500Y354750D02*
D03*
Y361250D02*
D03*
Y367750D02*
D03*
Y374250D02*
D03*
Y380750D02*
D03*
Y387250D02*
D03*
Y393750D02*
D03*
Y400250D02*
D03*
D208*
X1535000Y460500D02*
D03*
X1516000D02*
D03*
X1535000Y434500D02*
D03*
X1525500D02*
D03*
X1516000D02*
D03*
D209*
X1837750Y700000D02*
D03*
X1858750D02*
D03*
X200500Y480000D02*
D03*
X179500D02*
D03*
D210*
X2051400Y815750D02*
D03*
Y820750D02*
D03*
Y825750D02*
D03*
X2036600Y815750D02*
D03*
Y820750D02*
D03*
Y825750D02*
D03*
D211*
X1882750Y780000D02*
D03*
D212*
X1868000Y796000D02*
D03*
X1897500D02*
D03*
D213*
X1655750Y825750D02*
D03*
Y806750D02*
D03*
X1678250Y825500D02*
D03*
Y806500D02*
D03*
X44750Y539500D02*
D03*
Y520500D02*
D03*
D214*
X1755000Y842000D02*
D03*
X1795000D02*
D03*
D215*
X1622750Y604500D02*
D03*
Y640500D02*
D03*
X642800Y792000D02*
D03*
Y834000D02*
D03*
X549100Y792000D02*
D03*
Y834000D02*
D03*
X456100Y792000D02*
D03*
Y834000D02*
D03*
D216*
X1377000Y867000D02*
D03*
Y860500D02*
D03*
Y854000D02*
D03*
Y847500D02*
D03*
X1345250Y867000D02*
D03*
Y860500D02*
D03*
Y854000D02*
D03*
X1206750Y867000D02*
D03*
Y860500D02*
D03*
Y854000D02*
D03*
Y847500D02*
D03*
X1175000Y867000D02*
D03*
Y860500D02*
D03*
Y854000D02*
D03*
X1035750Y866750D02*
D03*
Y860250D02*
D03*
Y853750D02*
D03*
Y847250D02*
D03*
X1004000Y866750D02*
D03*
Y860250D02*
D03*
Y853750D02*
D03*
X831000Y851750D02*
D03*
Y858250D02*
D03*
Y864750D02*
D03*
X862750Y845250D02*
D03*
Y851750D02*
D03*
Y858250D02*
D03*
Y864750D02*
D03*
D217*
X1355500Y857250D02*
D03*
X1185250Y857250D02*
D03*
X1014250Y857000D02*
D03*
X841250Y855000D02*
D03*
D218*
X366000Y705000D02*
D03*
X412000D02*
D03*
D219*
X367000Y563500D02*
D03*
Y500500D02*
D03*
D220*
X420100Y807375D02*
D03*
X407400D02*
D03*
X343900Y750625D02*
D03*
Y807375D02*
D03*
X356600D02*
D03*
X420100Y750625D02*
D03*
X407400D02*
D03*
D221*
X165000Y787650D02*
D03*
Y820350D02*
D03*
D222*
X202000Y809860D02*
D03*
Y764140D02*
D03*
D223*
X264000Y787000D02*
D03*
D224*
X451000Y913000D02*
D03*
X487000D02*
D03*
X579000D02*
D03*
X543000D02*
D03*
X672000Y913000D02*
D03*
X636000D02*
D03*
D225*
X1513000Y94250D02*
X1529250D01*
X1529599Y93901D01*
X1562500Y56000D02*
Y69000D01*
X1529599Y93901D02*
X1537599D01*
X1562500Y69000D01*
X1541000Y26750D02*
X1543250Y29000D01*
Y46750D01*
X1502750Y78000D02*
X1516750D01*
X1536405Y47095D02*
Y58345D01*
X1516750Y78000D02*
X1536405Y58345D01*
Y47095D02*
X1536750Y46750D01*
X1487250Y78000D02*
X1502750D01*
X1518250Y46750D02*
X1530595D01*
X1502750Y62250D02*
X1518250Y46750D01*
X1463345Y101905D02*
X1487250Y78000D01*
X1689350Y321650D02*
X1728350D01*
X1685250Y325750D02*
Y340480D01*
Y325750D02*
X1689350Y321650D01*
X1695479Y263121D02*
X1695750Y262850D01*
X1688159Y263121D02*
X1695479D01*
X1665900Y285379D02*
X1688159Y263121D01*
X1695750Y262850D02*
X1727750D01*
X1672250Y289000D02*
Y319230D01*
Y289000D02*
X1690431Y270819D01*
X1699069D01*
X1665900Y285379D02*
Y316600D01*
X1699069Y270819D02*
X1699500Y271250D01*
X1463345Y101905D02*
Y153673D01*
X1453000Y99250D02*
X1490500Y61750D01*
X1502500D01*
X1453000Y99250D02*
Y138000D01*
X1441840Y171840D02*
X1454324D01*
X1456700Y178443D02*
X1457502Y179245D01*
X1454324Y171840D02*
X1456700Y174216D01*
Y178443D01*
X1436250Y166250D02*
X1441840Y171840D01*
X1436250Y145750D02*
Y166250D01*
Y145750D02*
X1444000Y138000D01*
X817747Y452943D02*
X817842Y452848D01*
Y448908D02*
X823500Y443250D01*
X817247Y452943D02*
X817747D01*
X817842Y448908D02*
Y452848D01*
X766595Y329095D02*
X768672D01*
X769077Y329500D01*
X763000Y325500D02*
X766595Y329095D01*
X769077Y329500D02*
X781750D01*
X1736700Y436000D02*
X1787500D01*
X1736700Y461400D02*
X1787500D01*
X1579750Y451150D02*
X1725250D01*
X1569255D02*
X1579750D01*
X1725250D02*
X1735500Y461400D01*
X1555500Y457500D02*
X1562905D01*
X1569255Y451150D01*
X1579750Y440100D02*
X1731400D01*
X1563505D02*
X1579750D01*
X1731400D02*
X1735500Y436000D01*
X1562905Y439500D02*
X1563505Y440100D01*
X1555500Y439500D02*
X1562905D01*
X1535000Y460500D02*
X1539905D01*
X1542905Y457500D01*
X1555500D01*
X1535000Y434500D02*
X1539905D01*
X1544905Y439500D01*
X1555500D01*
X1699500Y271250D02*
X1728750D01*
X1736750Y279250D01*
X1561250Y374250D02*
X1585400Y350100D01*
X1641380D01*
X1524500Y374250D02*
X1561250D01*
X1641380Y350100D02*
X1672250Y319230D01*
X1727750Y262850D02*
X1736750Y253850D01*
X1558770Y367750D02*
X1582770Y343750D01*
X1638750D01*
X1524500Y367750D02*
X1558770D01*
X1638750Y343750D02*
X1665900Y316600D01*
X1736750Y279250D02*
X1787550D01*
X1736750Y253850D02*
X1787550D01*
X1728350Y321650D02*
X1736750Y330050D01*
X1575500Y387250D02*
X1588400Y374350D01*
X1651380D01*
X1524500Y387250D02*
X1575500D01*
X1651380Y374350D02*
X1685250Y340480D01*
X1700000Y312700D02*
X1728700D01*
X1686820D02*
X1700000D01*
X1728700D02*
X1736750Y304650D01*
X1573020Y380750D02*
X1585770Y368000D01*
X1648750D01*
X1524500Y380750D02*
X1573020D01*
X1678900Y320620D02*
Y337850D01*
Y320620D02*
X1686820Y312700D01*
X1648750Y368000D02*
X1678900Y337850D01*
X1736750Y330050D02*
X1787550D01*
X1736750Y304650D02*
X1787550D01*
X1728800Y372900D02*
X1736750Y380850D01*
X1700000Y372900D02*
X1728800D01*
X1524500Y400250D02*
X1652730D01*
X1693095Y372900D02*
X1700000D01*
X1692435Y372240D02*
X1693095Y372900D01*
X1680740Y372240D02*
X1692435D01*
X1652730Y400250D02*
X1680740Y372240D01*
X1700000Y364600D02*
X1727600D01*
X1736750Y355450D01*
X1524500Y393750D02*
X1650250D01*
X1679400Y364600D01*
X1700000D01*
X1736750Y380850D02*
X1787550D01*
X1736750Y355450D02*
X1787550D01*
X842247Y490693D02*
X845247Y487693D01*
Y472443D02*
Y487693D01*
X782750Y347000D02*
X791267Y355517D01*
Y362767D01*
X793000Y364500D01*
X782750Y340435D02*
Y347000D01*
X1444000Y138000D02*
X1453000D01*
X1471304Y174446D02*
X1480500Y165250D01*
Y157000D02*
Y165250D01*
X1470502Y179245D02*
X1471304Y178443D01*
Y174446D02*
Y178443D01*
X1485517Y95983D02*
X1495017D01*
X1470500Y111000D02*
Y152250D01*
X1495017Y95983D02*
X1496750Y94250D01*
X1470500Y111000D02*
X1485517Y95983D01*
X1496750Y94250D02*
X1513000D01*
X1470500Y152250D02*
X1474155Y155905D01*
X1479405D01*
X1480500Y157000D01*
X1454095Y155905D02*
X1461113D01*
X1463345Y153673D01*
X1521750Y178750D02*
X1522250Y178250D01*
X1637250D01*
X1641000Y174500D01*
Y165000D02*
Y174500D01*
Y163000D02*
Y165000D01*
X812229Y466038D02*
X817152D01*
X809997Y468270D02*
Y483943D01*
Y468270D02*
X812229Y466038D01*
X809997Y483943D02*
X815014Y488960D01*
X822514D02*
X824247Y490693D01*
X815014Y488960D02*
X822514D01*
X817152Y466038D02*
X817247Y465943D01*
X851925Y459693D02*
X852247D01*
X845247Y459443D02*
X851675D01*
X851925Y459693D01*
X854925Y465693D02*
X855247D01*
X854675Y465943D02*
X854925Y465693D01*
X845247Y465943D02*
X854675D01*
X845247Y452943D02*
X852497D01*
X807247Y459693D02*
X807497Y459443D01*
X817247D01*
X818000Y342500D02*
Y351250D01*
X811000Y364500D02*
X813731Y361769D01*
Y355519D02*
Y361769D01*
Y355519D02*
X818000Y351250D01*
X781750Y323000D02*
X790000D01*
X787090Y336095D02*
X789905D01*
X790000Y336000D01*
X781750Y329500D02*
X790000D01*
X782750Y340435D02*
X787090Y336095D01*
X818000Y336000D02*
X828500D01*
X818000Y329500D02*
X828250D01*
X818000Y323000D02*
X828000D01*
D226*
X407400Y750625D02*
X420100D01*
X440000Y724500D02*
Y745939D01*
X420100Y750625D02*
X435314D01*
X440000Y745939D01*
D227*
X626350Y234000D02*
X699000D01*
X620539Y233139D02*
X625489D01*
X626350Y234000D01*
X578500Y191100D02*
X620539Y233139D01*
X585000Y470000D02*
X613000Y498000D01*
X585000Y356000D02*
Y470000D01*
X613000Y498000D02*
X630000D01*
X617861Y334739D02*
X619200Y333400D01*
X585000Y356000D02*
X606261Y334739D01*
X617861D01*
X578500Y177000D02*
Y191100D01*
X376500Y229000D02*
X428500Y177000D01*
X268000Y229000D02*
X376500D01*
D228*
X120000Y506938D02*
Y507750D01*
D229*
X343900Y750625D02*
Y764399D01*
X321000Y768500D02*
X339799D01*
X343900Y764399D01*
D230*
X1294850Y971800D02*
Y1048000D01*
Y968850D02*
Y971800D01*
X1268643Y942643D02*
X1294850Y968850D01*
X1268643Y933843D02*
Y942643D01*
X1263800Y929000D02*
X1268643Y933843D01*
X779050Y971800D02*
Y1048000D01*
X942700Y864300D02*
Y930000D01*
Y864300D02*
X953000Y854000D01*
X963000D01*
X914600Y837300D02*
X917300Y840000D01*
X914600Y818250D02*
Y837300D01*
X1093800Y929000D02*
Y956457D01*
X1083850Y966407D02*
X1093800Y956457D01*
X1083850Y966407D02*
Y971800D01*
X917300Y930000D02*
Y945300D01*
X926776Y967126D02*
X931450Y971800D01*
X917300Y945300D02*
X926776Y954776D01*
Y967126D01*
X750907Y942657D02*
X779050Y970800D01*
Y971800D01*
X746550Y929000D02*
X750907Y933357D01*
Y942657D01*
D231*
X933300Y619450D02*
D03*
X882500D02*
D03*
X933300Y594050D02*
D03*
X882500D02*
D03*
X933300Y644850D02*
D03*
X882500D02*
D03*
X933300Y670250D02*
D03*
X882500D02*
D03*
X933300Y695650D02*
D03*
X882500D02*
D03*
X1736700Y512200D02*
D03*
X1787500D02*
D03*
X1736700Y537600D02*
D03*
X1787500D02*
D03*
X1736700Y486800D02*
D03*
X1787500D02*
D03*
X1736700Y461400D02*
D03*
X1787500D02*
D03*
X1736700Y436000D02*
D03*
X1787500D02*
D03*
X1787550Y253850D02*
D03*
X1736750D02*
D03*
X1787550Y380850D02*
D03*
Y355450D02*
D03*
Y330050D02*
D03*
Y304650D02*
D03*
Y279250D02*
D03*
X1736750D02*
D03*
Y304650D02*
D03*
Y330050D02*
D03*
Y380850D02*
D03*
Y355450D02*
D03*
X179000Y926000D02*
D03*
X281000Y912000D02*
D03*
D232*
X1193250Y1048000D02*
D03*
X1244050D02*
D03*
X1294850D02*
D03*
X1345650D02*
D03*
X1396450D02*
D03*
X1447250D02*
D03*
X1498050D02*
D03*
X1548850D02*
D03*
X1193250Y971800D02*
D03*
X1244050D02*
D03*
X1294850D02*
D03*
X1345650D02*
D03*
X1396450D02*
D03*
X1447250D02*
D03*
X1498050D02*
D03*
X1548850D02*
D03*
X728250Y1048000D02*
D03*
X779050D02*
D03*
X829850D02*
D03*
X880650D02*
D03*
X931450D02*
D03*
X982250D02*
D03*
X1033050D02*
D03*
X1083850D02*
D03*
X728250Y971800D02*
D03*
X779050D02*
D03*
X829850D02*
D03*
X880650D02*
D03*
X931450D02*
D03*
X982250D02*
D03*
X1033050D02*
D03*
X1083850D02*
D03*
X250050Y1048200D02*
D03*
X300850D02*
D03*
X351650D02*
D03*
X402450D02*
D03*
X453250D02*
D03*
X504050D02*
D03*
X554850D02*
D03*
X605650D02*
D03*
X250050Y972000D02*
D03*
X300850D02*
D03*
X351650D02*
D03*
X402450D02*
D03*
X453250D02*
D03*
X504050D02*
D03*
X554850D02*
D03*
X605650D02*
D03*
X166000Y874000D02*
D03*
X266000Y854000D02*
D03*
D233*
X1626600Y932400D02*
D03*
X1550400Y907000D02*
D03*
X1626600Y856200D02*
D03*
Y754600D02*
D03*
X1514200Y932400D02*
D03*
X1438000Y907000D02*
D03*
X1514200Y856200D02*
D03*
Y754600D02*
D03*
D234*
X1550400D02*
D03*
X1438000D02*
D03*
D235*
X1924000Y899250D02*
D03*
Y881250D02*
D03*
Y863250D02*
D03*
Y845250D02*
D03*
Y827250D02*
D03*
Y809250D02*
D03*
Y791250D02*
D03*
Y773250D02*
D03*
Y755250D02*
D03*
D236*
X1220700Y563150D02*
D03*
X1195300D02*
D03*
X1220700Y588550D02*
D03*
X1195300D02*
D03*
X1220700Y613950D02*
D03*
X1195300D02*
D03*
X1220700Y639350D02*
D03*
X1195300D02*
D03*
X1126100Y154860D02*
D03*
X1151500D02*
D03*
X1126100Y129460D02*
D03*
X1151500D02*
D03*
X1126100Y104060D02*
D03*
X1151500D02*
D03*
X1126100Y78660D02*
D03*
X1151500D02*
D03*
X420500Y855000D02*
D03*
X345500D02*
D03*
X428000Y176000D02*
D03*
X578000D02*
D03*
X480000Y498000D02*
D03*
X630000D02*
D03*
X84000Y307000D02*
D03*
Y257000D02*
D03*
X318500Y511000D02*
D03*
Y611000D02*
D03*
X77000Y607000D02*
D03*
Y507000D02*
D03*
X155000Y715000D02*
D03*
X105000D02*
D03*
X699000Y184000D02*
D03*
Y234000D02*
D03*
D237*
X1360000Y187760D02*
D03*
Y102760D02*
D03*
X1395250Y137000D02*
D03*
X1675000Y186750D02*
D03*
X1700400D02*
D03*
X1735004D02*
D03*
X1760400D02*
D03*
D238*
X1360000Y162360D02*
D03*
Y128160D02*
D03*
X1395250Y162400D02*
D03*
X1675000Y161350D02*
D03*
X1700400D02*
D03*
X1735004D02*
D03*
X1760400D02*
D03*
D239*
X1421752Y181445D02*
D03*
X1493252D02*
D03*
D240*
X1444502Y179245D02*
D03*
X1451002Y189245D02*
D03*
X1457502Y179245D02*
D03*
X1464002Y189245D02*
D03*
X1470502Y179245D02*
D03*
D241*
X162000Y409600D02*
D03*
Y308000D02*
D03*
X619200Y231800D02*
D03*
X162000Y257200D02*
D03*
X619200Y333400D02*
D03*
Y435000D02*
D03*
X270000Y607750D02*
D03*
Y507750D02*
D03*
X120000Y607750D02*
D03*
Y507750D02*
D03*
D242*
X2124000Y894000D02*
D03*
Y754000D02*
D03*
X1984000D02*
D03*
X1986250Y894500D02*
D03*
X1762000Y1010000D02*
D03*
Y104000D02*
D03*
X152000D02*
D03*
Y1010000D02*
D03*
D243*
X1574000Y140000D02*
D03*
X1596750Y93500D02*
D03*
X1585750Y103000D02*
D03*
X1548500Y65000D02*
D03*
X1569750Y66750D02*
D03*
X1521500Y503000D02*
D03*
X1587500Y637250D02*
D03*
X1524000Y625250D02*
D03*
X1446500Y624750D02*
D03*
X1447000Y502750D02*
D03*
X1120500Y705000D02*
D03*
X1660000Y781500D02*
D03*
X1171000Y584250D02*
D03*
X1179000Y567500D02*
D03*
X1176750Y575750D02*
D03*
X993250Y224750D02*
D03*
X1794750Y807250D02*
D03*
X1025000Y451500D02*
D03*
X1026000Y29000D02*
D03*
X456000Y705000D02*
D03*
X1161000Y660000D02*
D03*
X1122000Y696000D02*
D03*
X953000Y481250D02*
D03*
X1051250Y71750D02*
D03*
X1621000Y94000D02*
D03*
X1626000Y139000D02*
D03*
X1657000Y155000D02*
D03*
X1583000Y269000D02*
D03*
X1630000Y257000D02*
D03*
X1746000Y767000D02*
D03*
X1759000Y768000D02*
D03*
X1635000Y738000D02*
D03*
X1672000Y780750D02*
D03*
X1681250Y737000D02*
D03*
X1698250Y692750D02*
D03*
X1691500Y721500D02*
D03*
X1790500Y702750D02*
D03*
X1769250Y716000D02*
D03*
X1768750Y735500D02*
D03*
X1769000Y725500D02*
D03*
X1054750Y450750D02*
D03*
X1072000Y476000D02*
D03*
X1123000Y487000D02*
D03*
X1053000Y534000D02*
D03*
X1041000Y517000D02*
D03*
X1059000Y519000D02*
D03*
X1039000Y499000D02*
D03*
X1012000Y433000D02*
D03*
X1045000Y487000D02*
D03*
X1053000Y468000D02*
D03*
X990000Y439000D02*
D03*
X1038000Y539000D02*
D03*
X1004000Y581000D02*
D03*
X1072000Y563000D02*
D03*
X1122000Y573000D02*
D03*
Y559000D02*
D03*
X1138000Y626000D02*
D03*
X1257000Y696750D02*
D03*
X1273000D02*
D03*
X1129000Y247000D02*
D03*
X1499000Y163000D02*
D03*
X1511000Y151000D02*
D03*
X1510250Y128250D02*
D03*
X1492750Y131750D02*
D03*
X1507750Y27750D02*
D03*
X1639000Y58000D02*
D03*
X1702000Y76000D02*
D03*
X1713000Y384000D02*
D03*
Y352750D02*
D03*
X1714000Y334000D02*
D03*
X1716750Y251500D02*
D03*
X1714000Y283000D02*
D03*
X1686000Y301000D02*
D03*
X1093000Y45750D02*
D03*
X1097000Y77750D02*
D03*
X1285000Y165000D02*
D03*
X1288000Y217000D02*
D03*
X1257000Y218000D02*
D03*
X1338000Y212000D02*
D03*
X1551000Y252000D02*
D03*
X1550000Y235000D02*
D03*
X1581500Y205750D02*
D03*
X1612000Y218000D02*
D03*
Y235000D02*
D03*
X1671000Y332000D02*
D03*
X1630000Y333500D02*
D03*
Y286000D02*
D03*
X1641000D02*
D03*
X1663000Y277000D02*
D03*
X1671000Y269000D02*
D03*
X1662000Y260000D02*
D03*
X1671000Y253000D02*
D03*
X1662000Y243000D02*
D03*
X1671000Y235000D02*
D03*
X1662000Y226000D02*
D03*
X1671500Y218000D02*
D03*
X1661250Y209750D02*
D03*
X1672000Y201500D02*
D03*
X1661000Y195500D02*
D03*
X1660250Y185500D02*
D03*
X1660750Y175250D02*
D03*
X1619000Y322750D02*
D03*
X1321750Y216750D02*
D03*
X1297000Y171000D02*
D03*
X1311500Y147500D02*
D03*
X1607500Y257000D02*
D03*
X1550000Y219250D02*
D03*
X1501250Y304250D02*
D03*
X1539250Y323250D02*
D03*
X1859000Y682750D02*
D03*
X1793750Y692500D02*
D03*
X1579250Y472500D02*
D03*
X1580000Y419500D02*
D03*
X1524750Y448250D02*
D03*
X1483750Y451750D02*
D03*
X1484000Y438500D02*
D03*
X1495000Y423000D02*
D03*
X1497750Y411500D02*
D03*
X1450750Y354500D02*
D03*
X1451250Y374750D02*
D03*
X1446750Y425750D02*
D03*
X900750Y508750D02*
D03*
X900500Y524500D02*
D03*
X1286250Y498250D02*
D03*
X1287500Y510250D02*
D03*
X1627750Y706500D02*
D03*
X1642000Y680500D02*
D03*
X1638250Y666500D02*
D03*
X1603500Y636500D02*
D03*
X1607250Y528750D02*
D03*
X1633500Y521000D02*
D03*
X1628250Y570000D02*
D03*
X1691500Y594250D02*
D03*
X1728250Y588250D02*
D03*
X1786500Y587250D02*
D03*
X1759500Y630000D02*
D03*
X1793750Y609500D02*
D03*
X1769250Y806500D02*
D03*
X1780750D02*
D03*
X1547250Y708500D02*
D03*
X1516000Y708250D02*
D03*
X1450750Y721750D02*
D03*
X1231000Y665000D02*
D03*
X1306000Y723750D02*
D03*
X1305250Y702250D02*
D03*
X1308750Y668000D02*
D03*
X1289000Y818000D02*
D03*
X1305500Y780500D02*
D03*
X1207750Y769750D02*
D03*
X1119250Y819000D02*
D03*
X1134500Y777750D02*
D03*
X1089750Y788500D02*
D03*
X1054250Y790250D02*
D03*
X1019250Y789000D02*
D03*
X984250Y790500D02*
D03*
X949750Y790250D02*
D03*
X943350Y819750D02*
D03*
X772250Y817000D02*
D03*
X716250Y532750D02*
D03*
Y551250D02*
D03*
Y568500D02*
D03*
X1492000Y147500D02*
D03*
X1443250Y149500D02*
D03*
X1623750D02*
D03*
X1615500Y155750D02*
D03*
X1201250Y75750D02*
D03*
X1361750Y65750D02*
D03*
X1354000Y75250D02*
D03*
X1262250Y179000D02*
D03*
X1311250Y166500D02*
D03*
X860750Y18500D02*
D03*
X881500Y20250D02*
D03*
X902000Y20500D02*
D03*
X924500Y19750D02*
D03*
X944000Y22000D02*
D03*
X987250Y21500D02*
D03*
X1069750Y350500D02*
D03*
X994000Y337250D02*
D03*
X868750Y350250D02*
D03*
X322750Y706500D02*
D03*
X463250Y752250D02*
D03*
X527000Y745750D02*
D03*
X536500Y733250D02*
D03*
X545750Y739750D02*
D03*
X621750Y746000D02*
D03*
X724250Y735250D02*
D03*
X714500Y745250D02*
D03*
X629000Y732750D02*
D03*
X638000Y740000D02*
D03*
X1222250Y343000D02*
D03*
X1184250D02*
D03*
X1105250Y371000D02*
D03*
X1042250Y369500D02*
D03*
X993750Y359000D02*
D03*
X942500Y373250D02*
D03*
X904000Y372250D02*
D03*
X1148000Y434750D02*
D03*
X1025250Y604250D02*
D03*
X1010250Y591250D02*
D03*
X980750Y546500D02*
D03*
X1038000Y528000D02*
D03*
X981750Y524500D02*
D03*
X985250Y485750D02*
D03*
X1036500Y480500D02*
D03*
X976750Y469500D02*
D03*
X984500Y476500D02*
D03*
X1027750Y421250D02*
D03*
X1168750Y301000D02*
D03*
X1150750Y300250D02*
D03*
X1133250Y300000D02*
D03*
X1115750Y287500D02*
D03*
X1111500Y311750D02*
D03*
X868000Y394500D02*
D03*
X850250Y396000D02*
D03*
X832000Y395500D02*
D03*
X868000Y473750D02*
D03*
X842500Y353500D02*
D03*
X842250Y272500D02*
D03*
X823750Y272250D02*
D03*
X805500Y272000D02*
D03*
D244*
X1211000Y478000D02*
D03*
X1191250Y485500D02*
D03*
X1046750Y411250D02*
D03*
X1055500Y406250D02*
D03*
X1031000Y383750D02*
D03*
X1056000Y290000D02*
D03*
X1163750Y669000D02*
D03*
X1275750Y462500D02*
D03*
X1831750Y714750D02*
D03*
X1838750D02*
D03*
X1845750D02*
D03*
X1852750D02*
D03*
Y721750D02*
D03*
Y728750D02*
D03*
X1901750Y749750D02*
D03*
X1894750D02*
D03*
X1852750Y735750D02*
D03*
X1859750D02*
D03*
X1866750D02*
D03*
X1873750D02*
D03*
X1880750D02*
D03*
X1887750D02*
D03*
X1852500Y777000D02*
D03*
X1859500D02*
D03*
X1866500D02*
D03*
Y770000D02*
D03*
Y763000D02*
D03*
X1859500D02*
D03*
X1852500D02*
D03*
X1845500D02*
D03*
X1838500D02*
D03*
X1831500D02*
D03*
X1900000Y817500D02*
D03*
X1893000D02*
D03*
X1886000D02*
D03*
X1879000D02*
D03*
X1872000D02*
D03*
X1865000D02*
D03*
X1077750Y543000D02*
D03*
X2058500Y821250D02*
D03*
X2030900Y832200D02*
D03*
X2074750Y802000D02*
D03*
X1994000Y824750D02*
D03*
X1735500Y946750D02*
D03*
Y939750D02*
D03*
Y953750D02*
D03*
Y960750D02*
D03*
Y967750D02*
D03*
Y974750D02*
D03*
X1728500Y946750D02*
D03*
Y939750D02*
D03*
Y953750D02*
D03*
Y960750D02*
D03*
Y967750D02*
D03*
Y974750D02*
D03*
X1721500Y946750D02*
D03*
Y939750D02*
D03*
Y953750D02*
D03*
Y960750D02*
D03*
Y967750D02*
D03*
Y974750D02*
D03*
X1707500D02*
D03*
X1714500D02*
D03*
X1707500Y967750D02*
D03*
X1714500D02*
D03*
X1707500Y960750D02*
D03*
X1714500D02*
D03*
X1707500Y953750D02*
D03*
X1714500D02*
D03*
Y939750D02*
D03*
Y946750D02*
D03*
X1707500D02*
D03*
Y939750D02*
D03*
X1854250Y835500D02*
D03*
Y842500D02*
D03*
X1861250Y835500D02*
D03*
Y842500D02*
D03*
X1868250Y835500D02*
D03*
Y842500D02*
D03*
X1875250Y835500D02*
D03*
Y842500D02*
D03*
Y828500D02*
D03*
X1868250D02*
D03*
X1861250D02*
D03*
X1854250D02*
D03*
X1819250D02*
D03*
X1812250D02*
D03*
X1826250D02*
D03*
X1833250D02*
D03*
X1840250D02*
D03*
X1847250D02*
D03*
Y842500D02*
D03*
Y835500D02*
D03*
X1840250Y842500D02*
D03*
Y835500D02*
D03*
X1833250Y842500D02*
D03*
Y835500D02*
D03*
X1826250Y842500D02*
D03*
Y835500D02*
D03*
X1812250D02*
D03*
X1819250D02*
D03*
Y842500D02*
D03*
X1812250D02*
D03*
X739000Y504000D02*
D03*
X732000D02*
D03*
X725000D02*
D03*
X739000Y497000D02*
D03*
X732000D02*
D03*
X725000D02*
D03*
X739000Y490000D02*
D03*
X732000D02*
D03*
X725000D02*
D03*
X697000D02*
D03*
X690000D02*
D03*
X704000D02*
D03*
X711000D02*
D03*
X718000D02*
D03*
X697000Y497000D02*
D03*
X690000D02*
D03*
X704000D02*
D03*
X711000D02*
D03*
X718000D02*
D03*
X697000Y504000D02*
D03*
X690000D02*
D03*
X704000D02*
D03*
X711000D02*
D03*
X718000D02*
D03*
X1045000Y614000D02*
D03*
X1658000Y105000D02*
D03*
X741000Y343000D02*
D03*
X748000D02*
D03*
X733000Y343000D02*
D03*
X719000Y343000D02*
D03*
X726000D02*
D03*
X711000Y343000D02*
D03*
X696000Y343000D02*
D03*
X703000D02*
D03*
X688000Y343000D02*
D03*
X716000Y321000D02*
D03*
Y328000D02*
D03*
Y335000D02*
D03*
X731000Y335000D02*
D03*
Y328000D02*
D03*
Y321000D02*
D03*
X724000D02*
D03*
Y328000D02*
D03*
Y335000D02*
D03*
X731000Y314000D02*
D03*
Y307000D02*
D03*
Y300000D02*
D03*
X724000D02*
D03*
Y307000D02*
D03*
Y314000D02*
D03*
X674000Y322000D02*
D03*
X667000D02*
D03*
X660000D02*
D03*
Y329000D02*
D03*
X667000D02*
D03*
X674000D02*
D03*
X787000Y415000D02*
D03*
X794000D02*
D03*
X780000D02*
D03*
X787000Y408000D02*
D03*
X794000D02*
D03*
X780000D02*
D03*
X742000Y237000D02*
D03*
Y230000D02*
D03*
Y244000D02*
D03*
Y251000D02*
D03*
Y258000D02*
D03*
Y265000D02*
D03*
X735000Y237000D02*
D03*
Y230000D02*
D03*
Y244000D02*
D03*
Y251000D02*
D03*
Y258000D02*
D03*
Y265000D02*
D03*
X728000Y237000D02*
D03*
Y230000D02*
D03*
Y244000D02*
D03*
Y251000D02*
D03*
Y258000D02*
D03*
Y265000D02*
D03*
X721000D02*
D03*
Y258000D02*
D03*
Y251000D02*
D03*
Y244000D02*
D03*
Y230000D02*
D03*
Y237000D02*
D03*
X770000D02*
D03*
Y230000D02*
D03*
Y244000D02*
D03*
Y251000D02*
D03*
Y258000D02*
D03*
Y265000D02*
D03*
X763000Y237000D02*
D03*
Y230000D02*
D03*
Y244000D02*
D03*
Y251000D02*
D03*
Y258000D02*
D03*
Y265000D02*
D03*
X756000Y237000D02*
D03*
Y230000D02*
D03*
Y244000D02*
D03*
Y251000D02*
D03*
Y258000D02*
D03*
Y265000D02*
D03*
X749000D02*
D03*
Y258000D02*
D03*
Y251000D02*
D03*
Y244000D02*
D03*
Y230000D02*
D03*
Y237000D02*
D03*
X668000Y393000D02*
D03*
X661000D02*
D03*
X675000D02*
D03*
X682000D02*
D03*
X689000D02*
D03*
X696000D02*
D03*
Y386000D02*
D03*
X689000D02*
D03*
X682000D02*
D03*
X675000D02*
D03*
X661000D02*
D03*
X668000D02*
D03*
X696000Y379000D02*
D03*
X689000D02*
D03*
X682000D02*
D03*
X675000D02*
D03*
X661000D02*
D03*
X668000D02*
D03*
X696000Y372000D02*
D03*
X689000D02*
D03*
X682000D02*
D03*
X675000D02*
D03*
X661000D02*
D03*
X668000D02*
D03*
X691000Y409000D02*
D03*
Y416000D02*
D03*
X698000D02*
D03*
Y409000D02*
D03*
Y423000D02*
D03*
X691000D02*
D03*
X698000Y430000D02*
D03*
X691000D02*
D03*
X698000Y437000D02*
D03*
X691000D02*
D03*
X698000Y444000D02*
D03*
X691000D02*
D03*
X705000D02*
D03*
Y437000D02*
D03*
Y430000D02*
D03*
Y423000D02*
D03*
Y409000D02*
D03*
Y416000D02*
D03*
X712000Y444000D02*
D03*
Y437000D02*
D03*
Y430000D02*
D03*
Y423000D02*
D03*
Y409000D02*
D03*
Y416000D02*
D03*
X719000Y444000D02*
D03*
Y437000D02*
D03*
Y430000D02*
D03*
Y423000D02*
D03*
Y409000D02*
D03*
Y416000D02*
D03*
X1798000Y941000D02*
D03*
Y948000D02*
D03*
Y934000D02*
D03*
Y927000D02*
D03*
Y969000D02*
D03*
Y976000D02*
D03*
Y962000D02*
D03*
Y955000D02*
D03*
X1782000Y976000D02*
D03*
X1789000D02*
D03*
X1775000D02*
D03*
X1768000D02*
D03*
X1782000Y970000D02*
D03*
X1789000D02*
D03*
X1775000D02*
D03*
X1768000D02*
D03*
X1782000Y964000D02*
D03*
X1789000D02*
D03*
X1775000D02*
D03*
X1768000D02*
D03*
X1768000Y944000D02*
D03*
Y937000D02*
D03*
Y951000D02*
D03*
Y958000D02*
D03*
Y916000D02*
D03*
Y909000D02*
D03*
Y923000D02*
D03*
Y930000D02*
D03*
X1843000Y870000D02*
D03*
X1836000D02*
D03*
X1850000D02*
D03*
X1816000D02*
D03*
X1809000D02*
D03*
X1823000D02*
D03*
X1830000D02*
D03*
X1862000Y887000D02*
D03*
X1869000D02*
D03*
X1876000D02*
D03*
X1862000Y893000D02*
D03*
X1869000D02*
D03*
X1876000D02*
D03*
X1876000Y900000D02*
D03*
X1869000D02*
D03*
X1862000D02*
D03*
X1848000D02*
D03*
X1855000D02*
D03*
X1841000D02*
D03*
X1834000D02*
D03*
X1827000D02*
D03*
X1813000D02*
D03*
X1820000D02*
D03*
X1782000Y898000D02*
D03*
X1789000D02*
D03*
Y891000D02*
D03*
X1782000D02*
D03*
X1796000D02*
D03*
Y898000D02*
D03*
X1803000Y891000D02*
D03*
Y898000D02*
D03*
Y884000D02*
D03*
X1796000D02*
D03*
X1782000D02*
D03*
X1789000D02*
D03*
X1803000Y877000D02*
D03*
X1796000D02*
D03*
X1782000D02*
D03*
X1789000D02*
D03*
X1803000Y870000D02*
D03*
X1796000D02*
D03*
X1782000D02*
D03*
X1789000D02*
D03*
X1814000Y814000D02*
D03*
X1821000D02*
D03*
Y807000D02*
D03*
X1814000D02*
D03*
X1828000D02*
D03*
Y814000D02*
D03*
X1835000Y807000D02*
D03*
Y814000D02*
D03*
X1842000Y807000D02*
D03*
Y814000D02*
D03*
X1849000Y807000D02*
D03*
Y814000D02*
D03*
Y800000D02*
D03*
X1842000D02*
D03*
X1835000D02*
D03*
X1828000D02*
D03*
X1814000D02*
D03*
X1821000D02*
D03*
X1849000Y793000D02*
D03*
X1842000D02*
D03*
X1835000D02*
D03*
X1828000D02*
D03*
X1814000D02*
D03*
X1821000D02*
D03*
X1849000Y786000D02*
D03*
X1842000D02*
D03*
X1835000D02*
D03*
X1828000D02*
D03*
X1814000D02*
D03*
X1821000D02*
D03*
X695000Y314000D02*
D03*
X688000D02*
D03*
X681000D02*
D03*
X674000D02*
D03*
X667000D02*
D03*
X660000D02*
D03*
X702000D02*
D03*
X709000D02*
D03*
X716000D02*
D03*
Y279000D02*
D03*
Y286000D02*
D03*
Y293000D02*
D03*
Y307000D02*
D03*
Y300000D02*
D03*
X709000Y279000D02*
D03*
Y286000D02*
D03*
Y293000D02*
D03*
Y307000D02*
D03*
Y300000D02*
D03*
X702000Y279000D02*
D03*
Y286000D02*
D03*
Y293000D02*
D03*
Y307000D02*
D03*
Y300000D02*
D03*
X660000Y307000D02*
D03*
X667000D02*
D03*
Y300000D02*
D03*
X660000D02*
D03*
X674000D02*
D03*
Y307000D02*
D03*
X681000Y300000D02*
D03*
Y307000D02*
D03*
X688000Y300000D02*
D03*
Y307000D02*
D03*
X695000Y300000D02*
D03*
Y307000D02*
D03*
Y293000D02*
D03*
X688000D02*
D03*
X681000D02*
D03*
X674000D02*
D03*
X660000D02*
D03*
X667000D02*
D03*
X695000Y286000D02*
D03*
X688000D02*
D03*
X681000D02*
D03*
X674000D02*
D03*
X660000D02*
D03*
X667000D02*
D03*
X695000Y279000D02*
D03*
X688000D02*
D03*
X681000D02*
D03*
X674000D02*
D03*
X660000D02*
D03*
X667000D02*
D03*
X1721000Y862250D02*
D03*
Y878750D02*
D03*
X1721000Y870750D02*
D03*
X1757000Y751000D02*
D03*
X1740250Y750000D02*
D03*
X1700000Y932500D02*
D03*
X1684500D02*
D03*
X1717000D02*
D03*
X1684000Y853500D02*
D03*
X1750750Y867000D02*
D03*
X1735000Y888500D02*
D03*
X1698250Y845250D02*
D03*
X1697750Y874250D02*
D03*
X1706750Y888750D02*
D03*
X1043000Y199000D02*
D03*
X1033000Y209000D02*
D03*
X1043000D02*
D03*
X1033000Y219000D02*
D03*
X1043000D02*
D03*
X1053000Y209000D02*
D03*
Y219000D02*
D03*
Y199000D02*
D03*
X1033000D02*
D03*
X831250Y454000D02*
D03*
X831247Y462693D02*
D03*
X831250Y471250D02*
D03*
X823500Y443250D02*
D03*
X804000Y323000D02*
D03*
Y332750D02*
D03*
Y342500D02*
D03*
X1161000Y278000D02*
D03*
X1143000Y277000D02*
D03*
X1122000Y273000D02*
D03*
X1699000Y741000D02*
D03*
X1707000Y690000D02*
D03*
X321000Y834000D02*
D03*
Y734000D02*
D03*
X616000Y913000D02*
D03*
X427000D02*
D03*
X520000D02*
D03*
X1043000Y836000D02*
D03*
X1044000Y867000D02*
D03*
X1214000D02*
D03*
X1227000Y835000D02*
D03*
X1385000Y867000D02*
D03*
X1398000Y835000D02*
D03*
X871250Y865000D02*
D03*
X875500Y824250D02*
D03*
X1249750Y462500D02*
D03*
X1135000Y452250D02*
D03*
X1075750Y414500D02*
D03*
X1201750Y156000D02*
D03*
X1653250Y769000D02*
D03*
X1683750Y779500D02*
D03*
X1726000Y746250D02*
D03*
X1644750Y825750D02*
D03*
X1643250Y806750D02*
D03*
X1689500Y806500D02*
D03*
X1689750Y825500D02*
D03*
X1045044Y384581D02*
D03*
X1115000Y631250D02*
D03*
X1129436Y672750D02*
D03*
X1139250Y538500D02*
D03*
X1074750Y574750D02*
D03*
X1140000Y614250D02*
D03*
X1154700Y613950D02*
D03*
X1521750Y178750D02*
D03*
X1500500Y199000D02*
D03*
X1639250Y184250D02*
D03*
X1019500Y379750D02*
D03*
X1031250Y413250D02*
D03*
X1040250Y415750D02*
D03*
X982750Y507500D02*
D03*
X1065000Y553250D02*
D03*
X1055000Y552250D02*
D03*
X1124500Y660000D02*
D03*
X1125000Y608000D02*
D03*
X1129750Y617064D02*
D03*
X1123373Y678000D02*
D03*
X852247Y459693D02*
D03*
X855247Y465693D02*
D03*
X852497Y452943D02*
D03*
X807497Y459443D02*
D03*
X828500Y336000D02*
D03*
X828000Y323000D02*
D03*
X781750D02*
D03*
Y329500D02*
D03*
X828250D02*
D03*
M02*
