G04*
G04 #@! TF.GenerationSoftware,Altium Limited,Altium Designer,23.0.1 (38)*
G04*
G04 Layer_Color=16711935*
%FSLAX44Y44*%
%MOMM*%
G71*
G04*
G04 #@! TF.SameCoordinates,7681B053-B415-4EDE-A76C-09C314C6D952*
G04*
G04*
G04 #@! TF.FilePolarity,Negative*
G04*
G01*
G75*
%ADD90R,1.3532X1.3032*%
%ADD109R,0.8032X1.2032*%
%ADD114R,1.3032X1.3532*%
%ADD116R,2.0032X1.5532*%
%ADD121R,1.5532X2.0032*%
%ADD124R,1.7532X1.4032*%
%ADD134R,1.4032X1.7532*%
%ADD145R,1.4232X1.1132*%
%ADD149C,2.4032*%
%ADD150C,3.2032*%
%ADD151C,2.5032*%
%ADD152R,2.5032X2.5032*%
%ADD153C,1.2032*%
%ADD154C,2.0032*%
%ADD155C,2.2032*%
%ADD156R,2.2032X2.2032*%
%ADD157O,0.8532X1.8532*%
%ADD158C,1.0032*%
%ADD159C,2.7032*%
%ADD160C,4.2032*%
%ADD252R,3.2032X1.7032*%
%ADD253R,1.7032X3.2032*%
%ADD254R,0.5032X0.8732*%
%ADD255R,3.2032X3.2032*%
D90*
X1108000Y298000D02*
D03*
X1090000D02*
D03*
X1073500Y279500D02*
D03*
X1055500D02*
D03*
X1725250Y707250D02*
D03*
X1707250D02*
D03*
X1647500Y753750D02*
D03*
X1665500D02*
D03*
X1681250D02*
D03*
X1699250D02*
D03*
X824500Y358750D02*
D03*
X806500D02*
D03*
X824247Y490693D02*
D03*
X842247D02*
D03*
X1712000Y844000D02*
D03*
X1730000D02*
D03*
X1140250Y595500D02*
D03*
X1158250D02*
D03*
X1024000Y530250D02*
D03*
X1006000D02*
D03*
X1024000Y514250D02*
D03*
X1006000D02*
D03*
X1140250Y579500D02*
D03*
X1158250D02*
D03*
X1024000Y498500D02*
D03*
X1006000D02*
D03*
X1024000Y466500D02*
D03*
X1006000D02*
D03*
X1024000Y482500D02*
D03*
X1006000D02*
D03*
X1024000Y450500D02*
D03*
X1006000D02*
D03*
X1158250Y563250D02*
D03*
X1140250D02*
D03*
X1616500Y126250D02*
D03*
X1598500D02*
D03*
X1649750Y323000D02*
D03*
X1631750D02*
D03*
X1287800Y181010D02*
D03*
X1305800D02*
D03*
X1287800Y197010D02*
D03*
X1305800D02*
D03*
D109*
X1089000Y281000D02*
D03*
X1108000D02*
D03*
X1098500Y257000D02*
D03*
X1718500Y746250D02*
D03*
X1709000Y722250D02*
D03*
X1728000D02*
D03*
X1651000Y793500D02*
D03*
X1641500Y769500D02*
D03*
X1660500D02*
D03*
X1683500Y793250D02*
D03*
X1674000Y769250D02*
D03*
X1693000D02*
D03*
D114*
X1133000Y286250D02*
D03*
Y268250D02*
D03*
X1169750Y268500D02*
D03*
Y286500D02*
D03*
X1151500Y268500D02*
D03*
Y286500D02*
D03*
X842250Y286000D02*
D03*
Y304000D02*
D03*
X787250Y286250D02*
D03*
Y304250D02*
D03*
X842250Y322500D02*
D03*
Y340500D02*
D03*
X1655750Y825250D02*
D03*
Y807250D02*
D03*
X868247Y409693D02*
D03*
Y427693D02*
D03*
X1678250Y807000D02*
D03*
Y825000D02*
D03*
X1684000Y919000D02*
D03*
Y901000D02*
D03*
X814247Y409693D02*
D03*
Y427693D02*
D03*
X1734000Y919000D02*
D03*
Y901000D02*
D03*
X1321800Y181010D02*
D03*
Y199010D02*
D03*
X868247Y445693D02*
D03*
Y463693D02*
D03*
X1684000Y866000D02*
D03*
Y884000D02*
D03*
X1056500Y592000D02*
D03*
Y574000D02*
D03*
X823750Y286000D02*
D03*
Y304000D02*
D03*
X805500D02*
D03*
Y286000D02*
D03*
X850247Y409693D02*
D03*
Y427693D02*
D03*
X1700000Y919000D02*
D03*
Y901000D02*
D03*
X1717000Y919000D02*
D03*
Y901000D02*
D03*
X832247Y427693D02*
D03*
Y409693D02*
D03*
X1258250Y708500D02*
D03*
Y726500D02*
D03*
X1272750Y726750D02*
D03*
Y708750D02*
D03*
X1006250Y552250D02*
D03*
Y570250D02*
D03*
X1039750Y468750D02*
D03*
Y450750D02*
D03*
X1039750Y570250D02*
D03*
Y552250D02*
D03*
X1072500Y510000D02*
D03*
Y492000D02*
D03*
X1135000Y486750D02*
D03*
Y468750D02*
D03*
X918500Y161500D02*
D03*
Y179500D02*
D03*
X1337800Y199010D02*
D03*
Y181010D02*
D03*
X1756250Y783750D02*
D03*
Y765750D02*
D03*
X1740250Y783750D02*
D03*
Y765750D02*
D03*
X969500Y501500D02*
D03*
Y483500D02*
D03*
X1041000Y58000D02*
D03*
Y40000D02*
D03*
D116*
X1599000Y301000D02*
D03*
Y270000D02*
D03*
X1623000Y301000D02*
D03*
Y270000D02*
D03*
X1076000Y45500D02*
D03*
Y76500D02*
D03*
D121*
X1304300Y217010D02*
D03*
X1273300D02*
D03*
D124*
X1023250Y549000D02*
D03*
Y570000D02*
D03*
X1722250Y762250D02*
D03*
Y783250D02*
D03*
D134*
X1599000Y108250D02*
D03*
X1620000D02*
D03*
D145*
X1790250Y854350D02*
D03*
Y821650D02*
D03*
D149*
X933300Y619450D02*
D03*
X882500D02*
D03*
X933300Y594050D02*
D03*
X882500D02*
D03*
X933300Y644850D02*
D03*
X882500D02*
D03*
X933300Y670250D02*
D03*
X882500D02*
D03*
X933300Y695650D02*
D03*
X882500D02*
D03*
X1736700Y512200D02*
D03*
X1787500D02*
D03*
X1736700Y537600D02*
D03*
X1787500D02*
D03*
X1736700Y486800D02*
D03*
X1787500D02*
D03*
X1736700Y461400D02*
D03*
X1787500D02*
D03*
X1736700Y436000D02*
D03*
X1787500D02*
D03*
X1787550Y253850D02*
D03*
X1736750D02*
D03*
X1787550Y380850D02*
D03*
Y355450D02*
D03*
Y330050D02*
D03*
Y304650D02*
D03*
Y279250D02*
D03*
X1736750D02*
D03*
Y304650D02*
D03*
Y330050D02*
D03*
Y380850D02*
D03*
Y355450D02*
D03*
X179000Y926000D02*
D03*
X281000Y912000D02*
D03*
D150*
X1193250Y1048000D02*
D03*
X1244050D02*
D03*
X1294850D02*
D03*
X1345650D02*
D03*
X1396450D02*
D03*
X1447250D02*
D03*
X1498050D02*
D03*
X1548850D02*
D03*
X1193250Y971800D02*
D03*
X1244050D02*
D03*
X1294850D02*
D03*
X1345650D02*
D03*
X1396450D02*
D03*
X1447250D02*
D03*
X1498050D02*
D03*
X1548850D02*
D03*
X728250Y1048000D02*
D03*
X779050D02*
D03*
X829850D02*
D03*
X880650D02*
D03*
X931450D02*
D03*
X982250D02*
D03*
X1033050D02*
D03*
X1083850D02*
D03*
X728250Y971800D02*
D03*
X779050D02*
D03*
X829850D02*
D03*
X880650D02*
D03*
X931450D02*
D03*
X982250D02*
D03*
X1033050D02*
D03*
X1083850D02*
D03*
X250050Y1048200D02*
D03*
X300850D02*
D03*
X351650D02*
D03*
X402450D02*
D03*
X453250D02*
D03*
X504050D02*
D03*
X554850D02*
D03*
X605650D02*
D03*
X250050Y972000D02*
D03*
X300850D02*
D03*
X351650D02*
D03*
X402450D02*
D03*
X453250D02*
D03*
X504050D02*
D03*
X554850D02*
D03*
X605650D02*
D03*
X166000Y874000D02*
D03*
X266000Y854000D02*
D03*
D151*
X1626600Y932400D02*
D03*
X1550400Y907000D02*
D03*
X1626600Y856200D02*
D03*
Y754600D02*
D03*
X1514200Y932400D02*
D03*
X1438000Y907000D02*
D03*
X1514200Y856200D02*
D03*
Y754600D02*
D03*
D152*
X1550400D02*
D03*
X1438000D02*
D03*
D153*
X1924000Y899250D02*
D03*
Y881250D02*
D03*
Y863250D02*
D03*
Y845250D02*
D03*
Y827250D02*
D03*
Y809250D02*
D03*
Y791250D02*
D03*
Y773250D02*
D03*
Y755250D02*
D03*
D154*
X1220700Y563150D02*
D03*
X1195300D02*
D03*
X1220700Y588550D02*
D03*
X1195300D02*
D03*
X1220700Y613950D02*
D03*
X1195300D02*
D03*
X1220700Y639350D02*
D03*
X1195300D02*
D03*
X1126100Y154860D02*
D03*
X1151500D02*
D03*
X1126100Y129460D02*
D03*
X1151500D02*
D03*
X1126100Y104060D02*
D03*
X1151500D02*
D03*
X1126100Y78660D02*
D03*
X1151500D02*
D03*
X420500Y855000D02*
D03*
X345500D02*
D03*
X428000Y176000D02*
D03*
X578000D02*
D03*
X480000Y498000D02*
D03*
X630000D02*
D03*
X84000Y307000D02*
D03*
Y257000D02*
D03*
X318500Y511000D02*
D03*
Y611000D02*
D03*
X77000Y607000D02*
D03*
Y507000D02*
D03*
X155000Y715000D02*
D03*
X105000D02*
D03*
X699000Y184000D02*
D03*
Y234000D02*
D03*
D155*
X1360000Y187760D02*
D03*
Y102760D02*
D03*
X1395250Y137000D02*
D03*
X1675000Y186750D02*
D03*
X1700400D02*
D03*
X1735004D02*
D03*
X1760400D02*
D03*
D156*
X1360000Y162360D02*
D03*
Y128160D02*
D03*
X1395250Y162400D02*
D03*
X1675000Y161350D02*
D03*
X1700400D02*
D03*
X1735004D02*
D03*
X1760400D02*
D03*
D157*
X1421752Y181445D02*
D03*
X1493252D02*
D03*
D158*
X1444502Y179245D02*
D03*
X1451002Y189245D02*
D03*
X1457502Y179245D02*
D03*
X1464002Y189245D02*
D03*
X1470502Y179245D02*
D03*
D159*
X162000Y409600D02*
D03*
Y308000D02*
D03*
X619200Y231800D02*
D03*
X162000Y257200D02*
D03*
X619200Y333400D02*
D03*
Y435000D02*
D03*
X270000Y607750D02*
D03*
Y507750D02*
D03*
X120000Y607750D02*
D03*
Y507750D02*
D03*
D160*
X2124000Y894000D02*
D03*
Y754000D02*
D03*
X1984000D02*
D03*
X1986250Y894500D02*
D03*
X1762000Y1010000D02*
D03*
Y104000D02*
D03*
X152000D02*
D03*
Y1010000D02*
D03*
D252*
X1032000Y185000D02*
D03*
Y156000D02*
D03*
X837000Y155000D02*
D03*
Y184000D02*
D03*
D253*
X938000Y85000D02*
D03*
X909000D02*
D03*
Y266000D02*
D03*
X938000D02*
D03*
D254*
X940043Y162350D02*
D03*
X935043D02*
D03*
X930043D02*
D03*
X940043Y177150D02*
D03*
X935043D02*
D03*
X930043D02*
D03*
D255*
X1790500Y725500D02*
D03*
Y785500D02*
D03*
M02*
