G04*
G04 #@! TF.GenerationSoftware,Altium Limited,Altium Designer,23.0.1 (38)*
G04*
G04 Layer_Color=8421504*
%FSLAX44Y44*%
%MOMM*%
G71*
G04*
G04 #@! TF.SameCoordinates,7681B053-B415-4EDE-A76C-09C314C6D952*
G04*
G04*
G04 #@! TF.FilePolarity,Positive*
G04*
G01*
G75*
%ADD25R,1.8540X0.5540*%
%ADD26R,0.5540X1.8540*%
%ADD27R,0.6540X2.0040*%
%ADD28R,1.3540X1.3040*%
%ADD29R,2.5040X0.9040*%
%ADD30R,0.9040X2.5040*%
%ADD31R,1.0040X2.0040*%
%ADD32R,2.0040X1.0040*%
%ADD33C,1.4040*%
%ADD34R,1.7540X1.2040*%
%ADD35R,1.2040X1.7540*%
%ADD36R,1.7040X1.0040*%
%ADD37R,1.7040X1.5040*%
%ADD38R,1.9540X0.9040*%
%ADD39R,1.6040X1.0040*%
%ADD40R,1.8040X2.2040*%
%ADD41R,2.2040X1.5540*%
%ADD42R,0.7040X2.0940*%
%ADD43R,1.1540X0.8740*%
%ADD44R,3.2040X1.2040*%
%ADD45R,3.2040X4.2040*%
%ADD46R,1.1140X1.4240*%
%ADD47R,0.8040X1.2040*%
G04:AMPARAMS|DCode=48|XSize=0.404mm|YSize=0.654mm|CornerRadius=0mm|HoleSize=0mm|Usage=FLASHONLY|Rotation=315.000|XOffset=0mm|YOffset=0mm|HoleType=Round|Shape=Rectangle|*
%AMROTATEDRECTD48*
4,1,4,-0.3741,-0.0884,0.0884,0.3741,0.3741,0.0884,-0.0884,-0.3741,-0.3741,-0.0884,0.0*
%
%ADD48ROTATEDRECTD48*%

G04:AMPARAMS|DCode=49|XSize=3.004mm|YSize=0.504mm|CornerRadius=0mm|HoleSize=0mm|Usage=FLASHONLY|Rotation=315.000|XOffset=0mm|YOffset=0mm|HoleType=Round|Shape=Rectangle|*
%AMROTATEDRECTD49*
4,1,4,-1.2403,0.8839,-0.8839,1.2403,1.2403,-0.8839,0.8839,-1.2403,-1.2403,0.8839,0.0*
%
%ADD49ROTATEDRECTD49*%

G04:AMPARAMS|DCode=50|XSize=0.504mm|YSize=0.654mm|CornerRadius=0mm|HoleSize=0mm|Usage=FLASHONLY|Rotation=315.000|XOffset=0mm|YOffset=0mm|HoleType=Round|Shape=Rectangle|*
%AMROTATEDRECTD50*
4,1,4,-0.4094,-0.0530,0.0530,0.4094,0.4094,0.0530,-0.0530,-0.4094,-0.4094,-0.0530,0.0*
%
%ADD50ROTATEDRECTD50*%

%ADD51R,1.0040X1.4040*%
%ADD52R,1.3040X1.3540*%
%ADD53R,2.6040X2.1040*%
%ADD54R,2.0040X1.5540*%
%ADD55R,2.0040X3.6040*%
%ADD56R,1.4540X2.9040*%
%ADD57R,0.7040X0.6040*%
%ADD58R,2.2040X4.4040*%
%ADD59R,1.5540X2.0040*%
%ADD60R,1.7040X2.7040*%
%ADD61R,1.2040X0.8040*%
%ADD62R,1.7540X1.4040*%
%ADD63R,1.2040X0.7840*%
%ADD64R,1.0040X0.6040*%
%ADD65R,0.6040X1.0040*%
%ADD66R,1.0040X1.0040*%
%ADD67R,1.0040X1.0040*%
%ADD68R,1.4040X1.4040*%
%ADD69R,1.4040X1.4040*%
%ADD70R,1.7040X0.6540*%
%ADD71R,0.8040X1.3040*%
%ADD72R,1.4040X1.7540*%
%ADD73R,0.8740X0.5040*%
%ADD74R,1.2040X1.2540*%
%ADD75R,1.2540X2.6040*%
%ADD76R,1.4040X1.0040*%
%ADD77R,2.2040X4.2040*%
%ADD78R,2.0040X2.3040*%
%ADD79R,0.9040X0.6040*%
%ADD80R,2.7040X5.3040*%
%ADD81R,3.7040X1.6540*%
%ADD82R,1.0040X1.9040*%
%ADD83R,1.4240X1.1140*%
%ADD84R,3.0040X1.7040*%
%ADD85R,6.8040X6.5040*%
%ADD86R,2.3040X2.0040*%
G36*
X855133Y870013D02*
X855265Y869987D01*
X855391Y869944D01*
X855511Y869885D01*
X855622Y869811D01*
X855723Y869723D01*
X855811Y869622D01*
X855885Y869511D01*
X855944Y869391D01*
X855987Y869265D01*
X856013Y869133D01*
X856022Y869000D01*
Y841000D01*
X856013Y840867D01*
X855987Y840735D01*
X855944Y840609D01*
X855885Y840489D01*
X855811Y840378D01*
X855723Y840277D01*
X855622Y840189D01*
X855511Y840115D01*
X855391Y840056D01*
X855265Y840013D01*
X855133Y839987D01*
X855000Y839978D01*
X833000D01*
X832867Y839987D01*
X832735Y840013D01*
X832609Y840056D01*
X832489Y840115D01*
X832378Y840189D01*
X832277Y840277D01*
X832189Y840378D01*
X832115Y840489D01*
X832056Y840609D01*
X832013Y840735D01*
X831987Y840867D01*
X831978Y841000D01*
Y842228D01*
X827500D01*
X827367Y842237D01*
X827235Y842263D01*
X827109Y842306D01*
X826989Y842365D01*
X826878Y842439D01*
X826777Y842527D01*
X826689Y842628D01*
X826615Y842739D01*
X826556Y842859D01*
X826513Y842985D01*
X826487Y843117D01*
X826478Y843250D01*
Y847250D01*
X826487Y847383D01*
X826513Y847515D01*
X826556Y847641D01*
X826615Y847761D01*
X826689Y847872D01*
X826777Y847973D01*
X826878Y848061D01*
X826989Y848135D01*
X827109Y848194D01*
X827235Y848237D01*
X827367Y848263D01*
X827500Y848272D01*
X831978D01*
Y869000D01*
X831987Y869133D01*
X832013Y869265D01*
X832056Y869391D01*
X832115Y869511D01*
X832189Y869622D01*
X832277Y869723D01*
X832378Y869811D01*
X832489Y869885D01*
X832609Y869944D01*
X832735Y869987D01*
X832867Y870013D01*
X833000Y870022D01*
X855000D01*
X855133Y870013D01*
D02*
G37*
G36*
X1028133Y872013D02*
X1028265Y871987D01*
X1028391Y871944D01*
X1028511Y871885D01*
X1028622Y871811D01*
X1028723Y871723D01*
X1028811Y871622D01*
X1028885Y871511D01*
X1028944Y871391D01*
X1028987Y871265D01*
X1029013Y871133D01*
X1029022Y871000D01*
Y843000D01*
X1029013Y842867D01*
X1028987Y842735D01*
X1028944Y842609D01*
X1028885Y842489D01*
X1028811Y842378D01*
X1028723Y842277D01*
X1028622Y842189D01*
X1028511Y842115D01*
X1028391Y842056D01*
X1028265Y842013D01*
X1028133Y841987D01*
X1028000Y841978D01*
X1006000D01*
X1005867Y841987D01*
X1005735Y842013D01*
X1005609Y842056D01*
X1005489Y842115D01*
X1005378Y842189D01*
X1005277Y842277D01*
X1005189Y842378D01*
X1005115Y842489D01*
X1005056Y842609D01*
X1005013Y842735D01*
X1004987Y842867D01*
X1004978Y843000D01*
Y844228D01*
X1000500D01*
X1000367Y844237D01*
X1000235Y844263D01*
X1000109Y844306D01*
X999989Y844365D01*
X999878Y844439D01*
X999777Y844527D01*
X999689Y844628D01*
X999615Y844739D01*
X999556Y844859D01*
X999513Y844985D01*
X999487Y845117D01*
X999478Y845250D01*
Y849250D01*
X999487Y849383D01*
X999513Y849515D01*
X999556Y849641D01*
X999615Y849761D01*
X999689Y849872D01*
X999777Y849973D01*
X999878Y850061D01*
X999989Y850135D01*
X1000109Y850194D01*
X1000235Y850237D01*
X1000367Y850263D01*
X1000500Y850272D01*
X1004978D01*
Y871000D01*
X1004987Y871133D01*
X1005013Y871265D01*
X1005056Y871391D01*
X1005115Y871511D01*
X1005189Y871622D01*
X1005277Y871723D01*
X1005378Y871811D01*
X1005489Y871885D01*
X1005609Y871944D01*
X1005735Y871987D01*
X1005867Y872013D01*
X1006000Y872022D01*
X1028000D01*
X1028133Y872013D01*
D02*
G37*
G36*
X1369383Y872263D02*
X1369515Y872237D01*
X1369641Y872194D01*
X1369761Y872135D01*
X1369872Y872061D01*
X1369973Y871973D01*
X1370061Y871872D01*
X1370135Y871761D01*
X1370194Y871641D01*
X1370237Y871515D01*
X1370264Y871383D01*
X1370272Y871250D01*
Y843250D01*
X1370264Y843117D01*
X1370237Y842985D01*
X1370194Y842859D01*
X1370135Y842739D01*
X1370061Y842628D01*
X1369973Y842527D01*
X1369872Y842439D01*
X1369761Y842365D01*
X1369641Y842306D01*
X1369515Y842263D01*
X1369383Y842237D01*
X1369250Y842228D01*
X1347250D01*
X1347117Y842237D01*
X1346985Y842263D01*
X1346859Y842306D01*
X1346739Y842365D01*
X1346628Y842439D01*
X1346527Y842527D01*
X1346439Y842628D01*
X1346365Y842739D01*
X1346306Y842859D01*
X1346263Y842985D01*
X1346237Y843117D01*
X1346228Y843250D01*
Y844478D01*
X1341750D01*
X1341617Y844487D01*
X1341485Y844513D01*
X1341359Y844556D01*
X1341239Y844615D01*
X1341128Y844689D01*
X1341027Y844777D01*
X1340939Y844878D01*
X1340865Y844989D01*
X1340806Y845109D01*
X1340763Y845235D01*
X1340737Y845367D01*
X1340728Y845500D01*
Y849500D01*
X1340737Y849633D01*
X1340763Y849765D01*
X1340806Y849891D01*
X1340865Y850011D01*
X1340939Y850122D01*
X1341027Y850223D01*
X1341128Y850311D01*
X1341239Y850385D01*
X1341359Y850444D01*
X1341485Y850487D01*
X1341617Y850513D01*
X1341750Y850522D01*
X1346228D01*
Y871250D01*
X1346237Y871383D01*
X1346263Y871515D01*
X1346306Y871641D01*
X1346365Y871761D01*
X1346439Y871872D01*
X1346527Y871973D01*
X1346628Y872061D01*
X1346739Y872135D01*
X1346859Y872194D01*
X1346985Y872237D01*
X1347117Y872263D01*
X1347250Y872272D01*
X1369250D01*
X1369383Y872263D01*
D02*
G37*
G36*
X1199133Y872263D02*
X1199265Y872237D01*
X1199391Y872194D01*
X1199511Y872135D01*
X1199622Y872061D01*
X1199723Y871973D01*
X1199811Y871872D01*
X1199885Y871761D01*
X1199944Y871641D01*
X1199987Y871515D01*
X1200013Y871383D01*
X1200022Y871250D01*
Y843250D01*
X1200013Y843117D01*
X1199987Y842985D01*
X1199944Y842859D01*
X1199885Y842739D01*
X1199811Y842628D01*
X1199723Y842527D01*
X1199622Y842439D01*
X1199511Y842365D01*
X1199391Y842306D01*
X1199265Y842263D01*
X1199133Y842236D01*
X1199000Y842228D01*
X1177000D01*
X1176867Y842236D01*
X1176735Y842263D01*
X1176609Y842306D01*
X1176489Y842365D01*
X1176378Y842439D01*
X1176277Y842527D01*
X1176189Y842628D01*
X1176115Y842739D01*
X1176056Y842859D01*
X1176013Y842985D01*
X1175986Y843117D01*
X1175978Y843250D01*
Y844478D01*
X1171500D01*
X1171367Y844486D01*
X1171235Y844513D01*
X1171109Y844556D01*
X1170989Y844615D01*
X1170878Y844689D01*
X1170777Y844777D01*
X1170689Y844878D01*
X1170615Y844989D01*
X1170556Y845109D01*
X1170513Y845235D01*
X1170487Y845367D01*
X1170478Y845500D01*
Y849500D01*
X1170487Y849633D01*
X1170513Y849764D01*
X1170556Y849891D01*
X1170615Y850011D01*
X1170689Y850122D01*
X1170777Y850223D01*
X1170878Y850311D01*
X1170989Y850385D01*
X1171109Y850444D01*
X1171235Y850487D01*
X1171367Y850513D01*
X1171500Y850522D01*
X1175978D01*
Y871250D01*
X1175986Y871383D01*
X1176013Y871515D01*
X1176056Y871641D01*
X1176115Y871761D01*
X1176189Y871872D01*
X1176277Y871973D01*
X1176378Y872061D01*
X1176489Y872135D01*
X1176609Y872194D01*
X1176735Y872237D01*
X1176867Y872263D01*
X1177000Y872272D01*
X1199000D01*
X1199133Y872263D01*
D02*
G37*
G36*
X1598134Y258513D02*
X1598265Y258487D01*
X1598359Y258455D01*
X1598391Y258444D01*
X1598511Y258385D01*
X1598622Y258311D01*
X1598723Y258223D01*
X1604723Y252223D01*
X1604811Y252122D01*
X1604885Y252011D01*
X1604944Y251891D01*
X1604966Y251828D01*
X1604987Y251765D01*
X1605013Y251633D01*
X1605022Y251500D01*
Y245500D01*
X1605013Y245366D01*
X1604987Y245235D01*
X1604944Y245109D01*
X1604885Y244989D01*
X1604811Y244878D01*
X1604723Y244777D01*
X1604622Y244689D01*
X1604511Y244615D01*
X1604391Y244556D01*
X1604265Y244513D01*
X1604133Y244487D01*
X1604000Y244478D01*
X1592000D01*
X1591867Y244487D01*
X1591736Y244513D01*
X1591609Y244556D01*
X1591489Y244615D01*
X1591378Y244689D01*
X1591277Y244777D01*
X1591189Y244878D01*
X1591115Y244989D01*
X1591056Y245109D01*
X1591013Y245235D01*
X1590987Y245366D01*
X1590978Y245500D01*
Y257500D01*
X1590987Y257633D01*
X1591013Y257764D01*
X1591056Y257891D01*
X1591115Y258011D01*
X1591189Y258122D01*
X1591277Y258223D01*
X1591378Y258311D01*
X1591489Y258385D01*
X1591609Y258444D01*
X1591736Y258487D01*
X1591867Y258513D01*
X1592000Y258522D01*
X1598000D01*
X1598134Y258513D01*
D02*
G37*
D25*
X1001750Y573000D02*
D03*
Y568000D02*
D03*
Y563000D02*
D03*
Y558000D02*
D03*
Y553000D02*
D03*
Y548000D02*
D03*
Y543000D02*
D03*
Y538000D02*
D03*
Y533000D02*
D03*
Y528000D02*
D03*
Y523000D02*
D03*
Y518000D02*
D03*
Y513000D02*
D03*
Y508000D02*
D03*
Y503000D02*
D03*
Y498000D02*
D03*
Y493000D02*
D03*
Y488000D02*
D03*
Y483000D02*
D03*
Y478000D02*
D03*
Y473000D02*
D03*
Y468000D02*
D03*
Y463000D02*
D03*
Y458000D02*
D03*
Y453000D02*
D03*
X1158250D02*
D03*
Y458000D02*
D03*
Y463000D02*
D03*
Y468000D02*
D03*
Y473000D02*
D03*
Y478000D02*
D03*
Y483000D02*
D03*
Y488000D02*
D03*
Y493000D02*
D03*
Y498000D02*
D03*
Y503000D02*
D03*
Y508000D02*
D03*
Y513000D02*
D03*
Y518000D02*
D03*
Y523000D02*
D03*
Y528000D02*
D03*
Y533000D02*
D03*
Y538000D02*
D03*
Y543000D02*
D03*
Y548000D02*
D03*
Y553000D02*
D03*
Y558000D02*
D03*
Y563000D02*
D03*
Y568000D02*
D03*
Y573000D02*
D03*
D26*
X1020000Y434750D02*
D03*
X1025000D02*
D03*
X1030000D02*
D03*
X1035000D02*
D03*
X1040000D02*
D03*
X1045000D02*
D03*
X1050000D02*
D03*
X1055000D02*
D03*
X1060000D02*
D03*
X1065000D02*
D03*
X1070000D02*
D03*
X1075000D02*
D03*
X1080000D02*
D03*
X1085000D02*
D03*
X1090000D02*
D03*
X1095000D02*
D03*
X1100000D02*
D03*
X1105000D02*
D03*
X1110000D02*
D03*
X1115000D02*
D03*
X1120000D02*
D03*
X1125000D02*
D03*
X1130000D02*
D03*
X1135000D02*
D03*
X1140000D02*
D03*
Y591250D02*
D03*
X1135000D02*
D03*
X1130000D02*
D03*
X1125000D02*
D03*
X1120000D02*
D03*
X1115000D02*
D03*
X1110000D02*
D03*
X1105000D02*
D03*
X1100000D02*
D03*
X1095000D02*
D03*
X1090000D02*
D03*
X1085000D02*
D03*
X1080000D02*
D03*
X1075000D02*
D03*
X1070000D02*
D03*
X1065000D02*
D03*
X1060000D02*
D03*
X1055000D02*
D03*
X1050000D02*
D03*
X1045000D02*
D03*
X1040000D02*
D03*
X1035000D02*
D03*
X1030000D02*
D03*
X1025000D02*
D03*
X1020000D02*
D03*
D27*
X1530250Y46750D02*
D03*
X1536750D02*
D03*
X1543250D02*
D03*
X1549750D02*
D03*
X1556250D02*
D03*
X1562750D02*
D03*
X1569250D02*
D03*
X1575750D02*
D03*
X1582250D02*
D03*
X1588750D02*
D03*
X1595250D02*
D03*
X1601750D02*
D03*
X1608250D02*
D03*
X1614750D02*
D03*
X1530250Y122750D02*
D03*
X1536750D02*
D03*
X1543250D02*
D03*
X1549750D02*
D03*
X1556250D02*
D03*
X1562750D02*
D03*
X1569250D02*
D03*
X1575750D02*
D03*
X1582250D02*
D03*
X1588750D02*
D03*
X1595250D02*
D03*
X1601750D02*
D03*
X1608250D02*
D03*
X1614750D02*
D03*
D28*
X1222451Y370000D02*
D03*
X1240451D02*
D03*
X1725750Y561500D02*
D03*
X1743750D02*
D03*
X1239250Y511500D02*
D03*
X1221250D02*
D03*
X1239250Y496000D02*
D03*
X1221250D02*
D03*
X782250Y568250D02*
D03*
X764250D02*
D03*
X782250Y550250D02*
D03*
X764250D02*
D03*
Y533500D02*
D03*
X782250D02*
D03*
X824247Y490693D02*
D03*
X842247D02*
D03*
X763000Y307500D02*
D03*
X745000D02*
D03*
X763000Y325500D02*
D03*
X745000D02*
D03*
X811000Y364500D02*
D03*
X793000D02*
D03*
X886000Y359000D02*
D03*
X904000D02*
D03*
X942000D02*
D03*
X924000D02*
D03*
X983000Y359000D02*
D03*
X965000D02*
D03*
X1201500Y370000D02*
D03*
X1183500D02*
D03*
X1541000Y26750D02*
D03*
X1523000D02*
D03*
X1652250Y58250D02*
D03*
X1670250D02*
D03*
X1604500Y322500D02*
D03*
X1586500D02*
D03*
X1482750Y412000D02*
D03*
X1464750D02*
D03*
X1482750Y426250D02*
D03*
X1464750D02*
D03*
X1730750Y576500D02*
D03*
X1712750D02*
D03*
X1774500Y587250D02*
D03*
X1756500D02*
D03*
X1856000Y748000D02*
D03*
X1874000D02*
D03*
X1898500Y764250D02*
D03*
X1880500D02*
D03*
X2046750Y802250D02*
D03*
X2064750D02*
D03*
X1730000Y844000D02*
D03*
X1712000D02*
D03*
X1769000Y878000D02*
D03*
X1751000D02*
D03*
X1769000Y894000D02*
D03*
X1751000D02*
D03*
X1668750Y557750D02*
D03*
X1686750D02*
D03*
X1668750Y576000D02*
D03*
X1686750D02*
D03*
X1661250Y598000D02*
D03*
X1679250D02*
D03*
X1582250Y708250D02*
D03*
X1564250D02*
D03*
X1468500Y708000D02*
D03*
X1450500D02*
D03*
X1350250Y824500D02*
D03*
X1332250D02*
D03*
X1276250Y818250D02*
D03*
X1258250D02*
D03*
X1179500Y824750D02*
D03*
X1161500D02*
D03*
X996500Y824500D02*
D03*
X978500D02*
D03*
X1106250Y818250D02*
D03*
X1088250D02*
D03*
X1114500Y761250D02*
D03*
X1096500D02*
D03*
X1080500Y761250D02*
D03*
X1062500D02*
D03*
X1046500D02*
D03*
X1028500D02*
D03*
X1012500D02*
D03*
X994500D02*
D03*
X978500D02*
D03*
X960500D02*
D03*
X944500D02*
D03*
X926500D02*
D03*
X932600Y818250D02*
D03*
X914600D02*
D03*
X801500Y824000D02*
D03*
X819500D02*
D03*
X741000Y818250D02*
D03*
X759000D02*
D03*
X518100Y722000D02*
D03*
X536100D02*
D03*
X482100Y722000D02*
D03*
X500100D02*
D03*
X575100Y722000D02*
D03*
X593100D02*
D03*
X668800Y722000D02*
D03*
X686800D02*
D03*
X611100Y722000D02*
D03*
X629100D02*
D03*
X704800Y722000D02*
D03*
X722800D02*
D03*
X1087000Y358000D02*
D03*
X1105000D02*
D03*
X1024000Y359000D02*
D03*
X1042000D02*
D03*
D29*
X1333052Y166000D02*
D03*
Y156000D02*
D03*
Y146000D02*
D03*
Y176000D02*
D03*
Y86000D02*
D03*
Y76000D02*
D03*
Y66000D02*
D03*
Y136000D02*
D03*
X1182052Y176000D02*
D03*
Y166000D02*
D03*
Y156000D02*
D03*
Y146000D02*
D03*
Y136000D02*
D03*
Y126000D02*
D03*
Y116000D02*
D03*
Y106000D02*
D03*
Y96000D02*
D03*
Y86000D02*
D03*
Y76000D02*
D03*
Y66000D02*
D03*
D30*
X1292552Y40500D02*
D03*
X1282552D02*
D03*
X1272552D02*
D03*
X1262552D02*
D03*
X1272552Y198500D02*
D03*
X1262552D02*
D03*
X1252552D02*
D03*
X1242552D02*
D03*
X1232552D02*
D03*
X1222552D02*
D03*
X1282552D02*
D03*
X1292552D02*
D03*
D31*
X1726250Y786000D02*
D03*
X1715250D02*
D03*
X1704250D02*
D03*
X1693250D02*
D03*
X1770250D02*
D03*
X1759250D02*
D03*
X1748250D02*
D03*
X1737250D02*
D03*
X1781250D02*
D03*
X1726250Y610000D02*
D03*
X1715250D02*
D03*
X1704250D02*
D03*
X1693250D02*
D03*
X1770250D02*
D03*
X1759250D02*
D03*
X1748250D02*
D03*
X1737250D02*
D03*
X1781250D02*
D03*
D32*
X1815750Y758500D02*
D03*
Y747500D02*
D03*
Y736500D02*
D03*
Y725500D02*
D03*
Y714500D02*
D03*
Y703500D02*
D03*
Y692500D02*
D03*
Y681500D02*
D03*
Y670500D02*
D03*
Y659500D02*
D03*
Y648500D02*
D03*
Y637500D02*
D03*
X1658750Y758500D02*
D03*
Y747500D02*
D03*
Y736500D02*
D03*
Y725500D02*
D03*
Y714500D02*
D03*
Y703500D02*
D03*
Y692500D02*
D03*
Y681500D02*
D03*
Y670500D02*
D03*
Y659500D02*
D03*
Y648500D02*
D03*
Y637500D02*
D03*
D33*
X1055500Y406250D02*
D03*
X1172500Y651750D02*
D03*
X1169500Y740000D02*
D03*
Y678500D02*
D03*
Y756000D02*
D03*
X987750Y644850D02*
D03*
X667750Y672250D02*
D03*
X729500Y692750D02*
D03*
X667750Y650250D02*
D03*
X1111373Y743750D02*
D03*
X1081000Y743750D02*
D03*
X1046500Y743750D02*
D03*
X1012500Y743750D02*
D03*
X978750Y743750D02*
D03*
X982250Y706500D02*
D03*
X1143000Y277000D02*
D03*
X988000Y629750D02*
D03*
X1169500Y724000D02*
D03*
X987750Y612250D02*
D03*
X1169500Y708500D02*
D03*
Y693250D02*
D03*
X1400250Y367750D02*
D03*
X1419500Y383250D02*
D03*
X1435250Y462500D02*
D03*
X1402000Y394250D02*
D03*
X1633500Y86000D02*
D03*
X1646750Y146250D02*
D03*
X1631250Y123000D02*
D03*
X1475000Y239750D02*
D03*
X1529250Y94500D02*
D03*
X1475000Y256000D02*
D03*
X1502750Y78000D02*
D03*
X1502750Y62250D02*
D03*
X1702250Y93250D02*
D03*
X1608500Y145000D02*
D03*
X1589750Y145250D02*
D03*
X1174750Y226500D02*
D03*
X1185000Y211750D02*
D03*
X897500Y391500D02*
D03*
X924000Y391500D02*
D03*
X1070250Y303500D02*
D03*
X985000Y375000D02*
D03*
X1064750Y374500D02*
D03*
X1029000Y374000D02*
D03*
X1513750Y656000D02*
D03*
X1533750Y665500D02*
D03*
X1211000Y478000D02*
D03*
X1191250Y485500D02*
D03*
X1645500Y598500D02*
D03*
X1653000Y574750D02*
D03*
X1705250Y562500D02*
D03*
X1740500Y590500D02*
D03*
X1658500Y529500D02*
D03*
D34*
X1183250Y779000D02*
D03*
D35*
X1199000Y669250D02*
D03*
D36*
X1214000Y665500D02*
D03*
D37*
X1290000Y780500D02*
D03*
Y668000D02*
D03*
D38*
X1291250Y757000D02*
D03*
Y746000D02*
D03*
Y735000D02*
D03*
Y724000D02*
D03*
Y713000D02*
D03*
Y702000D02*
D03*
Y691000D02*
D03*
Y680000D02*
D03*
D39*
X1207500Y783000D02*
D03*
D40*
X487300Y746000D02*
D03*
X512700D02*
D03*
X487300Y836000D02*
D03*
X512700D02*
D03*
X580300Y746000D02*
D03*
X605700D02*
D03*
X580300Y836000D02*
D03*
X605700D02*
D03*
X1289200Y929000D02*
D03*
X1263800D02*
D03*
X1289200Y839000D02*
D03*
X1263800D02*
D03*
X1119200Y929000D02*
D03*
X1093800D02*
D03*
X1119200Y839000D02*
D03*
X1093800D02*
D03*
X942700Y930000D02*
D03*
X917300D02*
D03*
X942700Y840000D02*
D03*
X917300D02*
D03*
X746550Y839000D02*
D03*
X771950D02*
D03*
X746550Y929000D02*
D03*
X771950D02*
D03*
X699400Y836000D02*
D03*
X674000D02*
D03*
X699400Y746000D02*
D03*
X674000D02*
D03*
D41*
X1542480Y625100D02*
D03*
X1542476Y502500D02*
D03*
X1465976Y625100D02*
D03*
Y502500D02*
D03*
D42*
X1583500Y619950D02*
D03*
D43*
X1581250Y524500D02*
D03*
Y513500D02*
D03*
Y535500D02*
D03*
Y546500D02*
D03*
Y557500D02*
D03*
Y568500D02*
D03*
Y579500D02*
D03*
Y590500D02*
D03*
Y601500D02*
D03*
D44*
X1971250Y794750D02*
D03*
X1971250Y824750D02*
D03*
Y809750D02*
D03*
Y854750D02*
D03*
Y839750D02*
D03*
D45*
X1053850Y909250D02*
D03*
X983850D02*
D03*
X1397500D02*
D03*
X1327500D02*
D03*
X1227500Y909250D02*
D03*
X1157500D02*
D03*
X810250D02*
D03*
X880250D02*
D03*
D46*
X1583000Y727500D02*
D03*
X1550300D02*
D03*
X1469600Y727250D02*
D03*
X1436900D02*
D03*
X1365650Y825000D02*
D03*
X1398350D02*
D03*
X1193650D02*
D03*
X1226350D02*
D03*
X1010000D02*
D03*
X1042700D02*
D03*
X866450Y824500D02*
D03*
X833750D02*
D03*
X667450Y701000D02*
D03*
X700150D02*
D03*
X573750Y701000D02*
D03*
X606450D02*
D03*
X480750D02*
D03*
X513450D02*
D03*
D47*
X1598750Y707000D02*
D03*
X1617750D02*
D03*
X1608250Y731000D02*
D03*
X895000Y319000D02*
D03*
X885500Y343000D02*
D03*
X904500D02*
D03*
X1105500D02*
D03*
X1086500D02*
D03*
X1096000Y319000D02*
D03*
X1042500Y343000D02*
D03*
X1023500D02*
D03*
X1033000Y319000D02*
D03*
X1624250Y559500D02*
D03*
X1633750Y559500D02*
D03*
X1643250D02*
D03*
Y532000D02*
D03*
X1633750D02*
D03*
X1624250D02*
D03*
X1494250Y731500D02*
D03*
X1503750Y707500D02*
D03*
X1484750D02*
D03*
D48*
X1136318Y690945D02*
D03*
X1139146Y688117D02*
D03*
X1141975Y685289D02*
D03*
X1144803Y682460D02*
D03*
X1147632Y679632D02*
D03*
X1150460Y676803D02*
D03*
X1153289Y673975D02*
D03*
X1156117Y671146D02*
D03*
X1128186Y682814D02*
D03*
X1131015Y679985D02*
D03*
X1133843Y677157D02*
D03*
X1136672Y674328D02*
D03*
X1139500Y671500D02*
D03*
X1142328Y668672D02*
D03*
X1145157Y665843D02*
D03*
X1147985Y663015D02*
D03*
D49*
X1142152Y676980D02*
D03*
D50*
X1129777Y689354D02*
D03*
X1154526Y664606D02*
D03*
D51*
X1253756Y511319D02*
D03*
X1272756D02*
D03*
X1253750Y496000D02*
D03*
X1272750D02*
D03*
X730750Y533500D02*
D03*
X749750D02*
D03*
X730750Y550250D02*
D03*
X749750D02*
D03*
X730750Y568250D02*
D03*
X749750D02*
D03*
X1241768Y354720D02*
D03*
X1222768D02*
D03*
X1203000Y354750D02*
D03*
X1184000D02*
D03*
X1570250Y323000D02*
D03*
X1551250D02*
D03*
X1019250Y777250D02*
D03*
X1000250D02*
D03*
X1054000Y777250D02*
D03*
X1035000D02*
D03*
X1088750Y777250D02*
D03*
X1069750D02*
D03*
X1123500Y777500D02*
D03*
X1104500D02*
D03*
X984500Y777250D02*
D03*
X965500D02*
D03*
X949750Y777250D02*
D03*
X930750D02*
D03*
D52*
X917250Y508250D02*
D03*
Y490250D02*
D03*
X917250Y542000D02*
D03*
Y524000D02*
D03*
X711247Y459693D02*
D03*
Y477693D02*
D03*
X693247Y459693D02*
D03*
Y477693D02*
D03*
X798247Y427693D02*
D03*
Y445693D02*
D03*
X780247Y427693D02*
D03*
Y445693D02*
D03*
X676000Y360000D02*
D03*
Y342000D02*
D03*
X660000Y360000D02*
D03*
Y342000D02*
D03*
X869000Y320000D02*
D03*
Y338000D02*
D03*
X924000D02*
D03*
Y320000D02*
D03*
X965000Y338000D02*
D03*
Y320000D02*
D03*
X1511250Y111500D02*
D03*
Y93500D02*
D03*
X1687250Y94750D02*
D03*
Y76750D02*
D03*
X1687500Y110750D02*
D03*
Y128750D02*
D03*
X1703500Y129000D02*
D03*
Y111000D02*
D03*
X1500750Y452750D02*
D03*
Y434750D02*
D03*
X1555500Y457500D02*
D03*
Y439500D02*
D03*
X1839750Y730000D02*
D03*
Y748000D02*
D03*
X2023000Y805250D02*
D03*
Y823250D02*
D03*
X2068500Y836500D02*
D03*
Y818500D02*
D03*
X2049286Y855464D02*
D03*
Y837464D02*
D03*
X1863000Y872000D02*
D03*
Y854000D02*
D03*
X1879000Y872000D02*
D03*
Y854000D02*
D03*
X1626500Y666000D02*
D03*
Y684000D02*
D03*
X1610000D02*
D03*
Y666000D02*
D03*
X1594250Y684250D02*
D03*
Y666250D02*
D03*
X1310000Y835000D02*
D03*
Y853000D02*
D03*
X1140000Y835000D02*
D03*
Y853000D02*
D03*
X963000Y836000D02*
D03*
Y854000D02*
D03*
X795000Y859000D02*
D03*
Y841000D02*
D03*
X441000Y855000D02*
D03*
Y873000D02*
D03*
X464100Y855000D02*
D03*
Y873000D02*
D03*
X557100Y855000D02*
D03*
Y873000D02*
D03*
X536000Y855000D02*
D03*
Y873000D02*
D03*
X626000Y855000D02*
D03*
Y873000D02*
D03*
X650800Y855000D02*
D03*
Y873000D02*
D03*
X464100Y722000D02*
D03*
Y740000D02*
D03*
X650800Y722000D02*
D03*
Y740000D02*
D03*
X557100Y722000D02*
D03*
Y740000D02*
D03*
X145000Y829000D02*
D03*
Y811000D02*
D03*
X1070000Y320000D02*
D03*
Y338000D02*
D03*
X1007000Y320000D02*
D03*
Y338000D02*
D03*
D53*
X946750Y495750D02*
D03*
Y536750D02*
D03*
D54*
X733247Y476193D02*
D03*
Y445193D02*
D03*
X758000Y413500D02*
D03*
Y444500D02*
D03*
X696000Y327500D02*
D03*
Y358500D02*
D03*
X1843000Y855500D02*
D03*
Y886500D02*
D03*
X1819000Y855500D02*
D03*
Y886500D02*
D03*
X319000Y821000D02*
D03*
Y790000D02*
D03*
D55*
X790997Y485943D02*
D03*
X757997D02*
D03*
D56*
X831247Y462693D02*
D03*
X804000Y332750D02*
D03*
X1721000Y870750D02*
D03*
D57*
X817247Y452943D02*
D03*
Y459443D02*
D03*
Y465943D02*
D03*
Y472443D02*
D03*
X845247Y452943D02*
D03*
Y459443D02*
D03*
Y465943D02*
D03*
Y472443D02*
D03*
X818000Y342500D02*
D03*
Y336000D02*
D03*
Y329500D02*
D03*
Y323000D02*
D03*
X790000Y342500D02*
D03*
Y336000D02*
D03*
Y329500D02*
D03*
Y323000D02*
D03*
X1735000Y880500D02*
D03*
Y874000D02*
D03*
Y867500D02*
D03*
Y861000D02*
D03*
X1707000Y880500D02*
D03*
Y874000D02*
D03*
Y867500D02*
D03*
Y861000D02*
D03*
D58*
X764000Y373500D02*
D03*
X722000D02*
D03*
D59*
X730500Y284500D02*
D03*
X761500D02*
D03*
X1752500Y914000D02*
D03*
X1783500D02*
D03*
X1752500Y938000D02*
D03*
X1783500D02*
D03*
D60*
X860913Y293733D02*
D03*
X881913D02*
D03*
X902913D02*
D03*
X923913D02*
D03*
X944913D02*
D03*
X965913D02*
D03*
X986913D02*
D03*
X1007913D02*
D03*
Y43733D02*
D03*
X986913D02*
D03*
X965913D02*
D03*
X944913D02*
D03*
X923913D02*
D03*
X902913D02*
D03*
X881913D02*
D03*
X860913D02*
D03*
D61*
X1480500Y157000D02*
D03*
X1480500Y147500D02*
D03*
Y138000D02*
D03*
X1453000D02*
D03*
Y147500D02*
D03*
Y157000D02*
D03*
X1647500Y84250D02*
D03*
X1671500Y93750D02*
D03*
Y74750D02*
D03*
Y119500D02*
D03*
X1647500Y110000D02*
D03*
Y129000D02*
D03*
X480000Y883500D02*
D03*
Y864500D02*
D03*
X504000Y874000D02*
D03*
X574000Y882500D02*
D03*
Y863500D02*
D03*
X598000Y873000D02*
D03*
X667000Y881500D02*
D03*
Y862500D02*
D03*
X691000Y872000D02*
D03*
D62*
X1493500Y94000D02*
D03*
Y115000D02*
D03*
X338000Y706500D02*
D03*
Y685500D02*
D03*
X440000Y703500D02*
D03*
Y724500D02*
D03*
X321000Y768500D02*
D03*
Y747500D02*
D03*
D63*
X1695750Y262350D02*
D03*
Y251150D02*
D03*
Y271250D02*
D03*
Y282450D02*
D03*
X1696250Y364350D02*
D03*
Y353150D02*
D03*
Y372900D02*
D03*
Y384100D02*
D03*
Y312700D02*
D03*
Y301500D02*
D03*
Y321650D02*
D03*
Y332850D02*
D03*
X1579750Y451150D02*
D03*
Y462350D02*
D03*
Y440100D02*
D03*
Y428900D02*
D03*
D64*
X1651500Y277500D02*
D03*
Y269000D02*
D03*
Y260500D02*
D03*
Y252000D02*
D03*
Y243500D02*
D03*
Y235000D02*
D03*
Y226500D02*
D03*
Y218000D02*
D03*
Y209500D02*
D03*
Y201000D02*
D03*
Y192500D02*
D03*
Y184000D02*
D03*
Y286000D02*
D03*
Y175500D02*
D03*
Y294500D02*
D03*
X1511500Y192500D02*
D03*
Y201000D02*
D03*
Y209500D02*
D03*
Y218000D02*
D03*
Y226500D02*
D03*
Y235000D02*
D03*
Y243500D02*
D03*
Y252000D02*
D03*
Y260500D02*
D03*
Y269000D02*
D03*
Y277500D02*
D03*
Y286000D02*
D03*
Y184000D02*
D03*
Y294500D02*
D03*
Y175500D02*
D03*
D65*
X1624000Y165000D02*
D03*
X1615500D02*
D03*
X1607000D02*
D03*
X1598500D02*
D03*
X1590000D02*
D03*
X1581500D02*
D03*
X1573000D02*
D03*
X1564500D02*
D03*
X1556000D02*
D03*
X1547500D02*
D03*
X1539000D02*
D03*
X1530500D02*
D03*
X1632500D02*
D03*
X1522000D02*
D03*
X1641000D02*
D03*
X1624000Y305000D02*
D03*
X1615500D02*
D03*
X1607000D02*
D03*
X1598500D02*
D03*
X1590000D02*
D03*
X1581500D02*
D03*
X1573000D02*
D03*
X1564500D02*
D03*
X1556000D02*
D03*
X1547500D02*
D03*
X1539000D02*
D03*
X1530500D02*
D03*
X1632500D02*
D03*
X1522000D02*
D03*
X1641000D02*
D03*
D66*
X1511500Y165000D02*
D03*
X1651500Y305000D02*
D03*
D67*
Y165000D02*
D03*
X1511500Y305000D02*
D03*
D68*
X1598000Y218500D02*
D03*
X1565000Y235000D02*
D03*
Y251500D02*
D03*
X1598000Y235000D02*
D03*
X1581500D02*
D03*
D69*
X1565000Y218500D02*
D03*
X1581500D02*
D03*
Y251500D02*
D03*
D70*
X1524500Y380750D02*
D03*
Y387250D02*
D03*
Y393750D02*
D03*
Y400250D02*
D03*
Y354750D02*
D03*
Y361250D02*
D03*
Y367750D02*
D03*
Y374250D02*
D03*
X1466500Y354750D02*
D03*
Y361250D02*
D03*
Y367750D02*
D03*
Y374250D02*
D03*
Y380750D02*
D03*
Y387250D02*
D03*
Y393750D02*
D03*
Y400250D02*
D03*
D71*
X1535000Y460500D02*
D03*
X1516000D02*
D03*
X1535000Y434500D02*
D03*
X1525500D02*
D03*
X1516000D02*
D03*
D72*
X1837750Y700000D02*
D03*
X1858750D02*
D03*
X200500Y480000D02*
D03*
X179500D02*
D03*
D73*
X2051400Y815750D02*
D03*
Y820750D02*
D03*
Y825750D02*
D03*
X2036600Y815750D02*
D03*
Y820750D02*
D03*
Y825750D02*
D03*
D74*
X1882750Y780000D02*
D03*
D75*
X1868000Y796000D02*
D03*
X1897500D02*
D03*
D76*
X1655750Y825750D02*
D03*
Y806750D02*
D03*
X1678250Y825500D02*
D03*
Y806500D02*
D03*
X44750Y539500D02*
D03*
Y520500D02*
D03*
D77*
X1755000Y842000D02*
D03*
X1795000D02*
D03*
D78*
X1622750Y604500D02*
D03*
Y640500D02*
D03*
X642800Y792000D02*
D03*
Y834000D02*
D03*
X549100Y792000D02*
D03*
Y834000D02*
D03*
X456100Y792000D02*
D03*
Y834000D02*
D03*
D79*
X1377000Y867000D02*
D03*
Y860500D02*
D03*
Y854000D02*
D03*
Y847500D02*
D03*
X1345250Y867000D02*
D03*
Y860500D02*
D03*
Y854000D02*
D03*
X1206750Y867000D02*
D03*
Y860500D02*
D03*
Y854000D02*
D03*
Y847500D02*
D03*
X1175000Y867000D02*
D03*
Y860500D02*
D03*
Y854000D02*
D03*
X1035750Y866750D02*
D03*
Y860250D02*
D03*
Y853750D02*
D03*
Y847250D02*
D03*
X1004000Y866750D02*
D03*
Y860250D02*
D03*
Y853750D02*
D03*
X831000Y851750D02*
D03*
Y858250D02*
D03*
Y864750D02*
D03*
X862750Y845250D02*
D03*
Y851750D02*
D03*
Y858250D02*
D03*
Y864750D02*
D03*
D80*
X366000Y705000D02*
D03*
X412000D02*
D03*
D81*
X367000Y563500D02*
D03*
Y500500D02*
D03*
D82*
X420100Y807375D02*
D03*
X407400D02*
D03*
X343900Y750625D02*
D03*
Y807375D02*
D03*
X356600D02*
D03*
X420100Y750625D02*
D03*
X407400D02*
D03*
D83*
X165000Y787650D02*
D03*
Y820350D02*
D03*
D84*
X202000Y809860D02*
D03*
Y764140D02*
D03*
D85*
X264000Y787000D02*
D03*
D86*
X451000Y913000D02*
D03*
X487000D02*
D03*
X579000D02*
D03*
X543000D02*
D03*
X672000Y913000D02*
D03*
X636000D02*
D03*
M02*
