G04*
G04 #@! TF.GenerationSoftware,Altium Limited,Altium Designer,23.0.1 (38)*
G04*
G04 Layer_Color=8388736*
%FSLAX44Y44*%
%MOMM*%
G71*
G04*
G04 #@! TF.SameCoordinates,7681B053-B415-4EDE-A76C-09C314C6D952*
G04*
G04*
G04 #@! TF.FilePolarity,Negative*
G04*
G01*
G75*
%ADD87R,1.8532X0.5532*%
%ADD88R,0.5532X1.8532*%
%ADD89R,0.6532X2.0032*%
%ADD90R,1.3532X1.3032*%
%ADD91R,2.5032X0.9032*%
%ADD92R,0.9032X2.5032*%
%ADD93R,1.0032X2.0032*%
%ADD94R,2.0032X1.0032*%
%ADD95C,1.4032*%
%ADD96R,1.7532X1.2032*%
%ADD97R,1.2032X1.7532*%
%ADD98R,1.7032X1.0032*%
%ADD99R,1.7032X1.5032*%
%ADD100R,1.9532X0.9032*%
%ADD101R,1.6032X1.0032*%
%ADD102R,1.8032X2.2032*%
%ADD103R,2.2032X1.5532*%
%ADD104R,0.7032X2.0932*%
%ADD105R,1.1532X0.8732*%
%ADD106R,3.2032X1.2032*%
%ADD107R,3.2032X4.2032*%
%ADD108R,1.1132X1.4232*%
%ADD109R,0.8032X1.2032*%
G04:AMPARAMS|DCode=110|XSize=0.4032mm|YSize=0.6532mm|CornerRadius=0mm|HoleSize=0mm|Usage=FLASHONLY|Rotation=315.000|XOffset=0mm|YOffset=0mm|HoleType=Round|Shape=Rectangle|*
%AMROTATEDRECTD110*
4,1,4,-0.3735,-0.0884,0.0884,0.3735,0.3735,0.0884,-0.0884,-0.3735,-0.3735,-0.0884,0.0*
%
%ADD110ROTATEDRECTD110*%

G04:AMPARAMS|DCode=111|XSize=3.0032mm|YSize=0.5032mm|CornerRadius=0mm|HoleSize=0mm|Usage=FLASHONLY|Rotation=315.000|XOffset=0mm|YOffset=0mm|HoleType=Round|Shape=Rectangle|*
%AMROTATEDRECTD111*
4,1,4,-1.2397,0.8839,-0.8839,1.2397,1.2397,-0.8839,0.8839,-1.2397,-1.2397,0.8839,0.0*
%
%ADD111ROTATEDRECTD111*%

G04:AMPARAMS|DCode=112|XSize=0.5032mm|YSize=0.6532mm|CornerRadius=0mm|HoleSize=0mm|Usage=FLASHONLY|Rotation=315.000|XOffset=0mm|YOffset=0mm|HoleType=Round|Shape=Rectangle|*
%AMROTATEDRECTD112*
4,1,4,-0.4089,-0.0530,0.0530,0.4089,0.4089,0.0530,-0.0530,-0.4089,-0.4089,-0.0530,0.0*
%
%ADD112ROTATEDRECTD112*%

%ADD113R,1.0032X1.4032*%
%ADD114R,1.3032X1.3532*%
%ADD115R,2.6032X2.1032*%
%ADD116R,2.0032X1.5532*%
%ADD117R,2.0032X3.6032*%
%ADD118R,1.4532X2.9032*%
%ADD119R,0.7032X0.6032*%
%ADD120R,2.2032X4.4032*%
%ADD121R,1.5532X2.0032*%
%ADD122R,1.7032X2.7032*%
%ADD123R,1.2032X0.8032*%
%ADD124R,1.7532X1.4032*%
%ADD125R,1.2032X0.7832*%
%ADD126R,1.0032X0.6032*%
%ADD127R,0.6032X1.0032*%
%ADD128R,1.0032X1.0032*%
%ADD129R,1.0032X1.0032*%
%ADD130R,1.4032X1.4032*%
%ADD131R,1.4032X1.4032*%
%ADD132R,1.7032X0.6532*%
%ADD133R,0.8032X1.3032*%
%ADD134R,1.4032X1.7532*%
%ADD135R,0.8732X0.5032*%
%ADD136R,1.2032X1.2532*%
%ADD137R,1.2532X2.6032*%
%ADD138R,1.4032X1.0032*%
%ADD139R,2.2032X4.2032*%
%ADD140R,2.0032X2.3032*%
%ADD141R,0.9032X0.6032*%
%ADD142R,2.7032X5.3032*%
%ADD143R,3.7032X1.6532*%
%ADD144R,1.0032X1.9032*%
%ADD145R,1.4232X1.1132*%
%ADD146R,3.0032X1.7032*%
%ADD147R,6.8032X6.5032*%
%ADD148R,2.3032X2.0032*%
%ADD149C,2.4032*%
%ADD150C,3.2032*%
%ADD151C,2.5032*%
%ADD152R,2.5032X2.5032*%
%ADD153C,1.2032*%
%ADD154C,2.0032*%
%ADD155C,2.2032*%
%ADD156R,2.2032X2.2032*%
%ADD157O,0.8532X1.8532*%
%ADD158C,1.0032*%
%ADD159C,2.7032*%
%ADD160C,4.2032*%
G36*
X855133Y870010D02*
X855264Y869984D01*
X855390Y869941D01*
X855509Y869882D01*
X855620Y869808D01*
X855720Y869720D01*
X855808Y869620D01*
X855882Y869509D01*
X855941Y869390D01*
X855984Y869264D01*
X856010Y869133D01*
X856018Y869000D01*
Y841000D01*
X856010Y840867D01*
X855984Y840736D01*
X855941Y840610D01*
X855882Y840491D01*
X855808Y840380D01*
X855720Y840280D01*
X855620Y840192D01*
X855509Y840118D01*
X855390Y840059D01*
X855264Y840016D01*
X855133Y839990D01*
X855000Y839982D01*
X833000D01*
X832867Y839990D01*
X832737Y840016D01*
X832610Y840059D01*
X832491Y840118D01*
X832380Y840192D01*
X832280Y840280D01*
X832192Y840380D01*
X832118Y840491D01*
X832059Y840610D01*
X832017Y840736D01*
X831991Y840867D01*
X831982Y841000D01*
Y842232D01*
X827500D01*
X827367Y842241D01*
X827236Y842266D01*
X827110Y842309D01*
X826991Y842368D01*
X826880Y842442D01*
X826780Y842530D01*
X826692Y842630D01*
X826618Y842741D01*
X826559Y842860D01*
X826516Y842987D01*
X826490Y843117D01*
X826482Y843250D01*
Y847250D01*
X826490Y847383D01*
X826516Y847514D01*
X826559Y847640D01*
X826618Y847759D01*
X826692Y847870D01*
X826780Y847970D01*
X826880Y848058D01*
X826991Y848132D01*
X827110Y848191D01*
X827236Y848233D01*
X827367Y848260D01*
X827500Y848268D01*
X831982D01*
Y869000D01*
X831991Y869133D01*
X832017Y869264D01*
X832059Y869390D01*
X832118Y869509D01*
X832192Y869620D01*
X832280Y869720D01*
X832380Y869808D01*
X832491Y869882D01*
X832610Y869941D01*
X832737Y869984D01*
X832867Y870010D01*
X833000Y870018D01*
X855000D01*
X855133Y870010D01*
D02*
G37*
G36*
X1028133Y872010D02*
X1028263Y871983D01*
X1028390Y871941D01*
X1028509Y871882D01*
X1028620Y871808D01*
X1028720Y871720D01*
X1028808Y871620D01*
X1028882Y871509D01*
X1028941Y871390D01*
X1028984Y871264D01*
X1029009Y871133D01*
X1029018Y871000D01*
Y843000D01*
X1029009Y842867D01*
X1028984Y842737D01*
X1028941Y842610D01*
X1028882Y842491D01*
X1028808Y842380D01*
X1028720Y842280D01*
X1028620Y842192D01*
X1028509Y842118D01*
X1028390Y842059D01*
X1028263Y842017D01*
X1028133Y841991D01*
X1028000Y841982D01*
X1006000D01*
X1005867Y841991D01*
X1005736Y842017D01*
X1005610Y842059D01*
X1005491Y842118D01*
X1005380Y842192D01*
X1005280Y842280D01*
X1005192Y842380D01*
X1005118Y842491D01*
X1005059Y842610D01*
X1005016Y842737D01*
X1004990Y842867D01*
X1004982Y843000D01*
Y844232D01*
X1000500D01*
X1000367Y844240D01*
X1000237Y844267D01*
X1000110Y844309D01*
X999991Y844368D01*
X999880Y844442D01*
X999780Y844530D01*
X999692Y844630D01*
X999618Y844741D01*
X999559Y844860D01*
X999517Y844986D01*
X999491Y845117D01*
X999482Y845250D01*
Y849250D01*
X999491Y849383D01*
X999517Y849513D01*
X999559Y849640D01*
X999618Y849759D01*
X999692Y849870D01*
X999780Y849970D01*
X999880Y850058D01*
X999991Y850132D01*
X1000110Y850191D01*
X1000237Y850234D01*
X1000367Y850259D01*
X1000500Y850268D01*
X1004982D01*
Y871000D01*
X1004990Y871133D01*
X1005016Y871264D01*
X1005059Y871390D01*
X1005118Y871509D01*
X1005192Y871620D01*
X1005280Y871720D01*
X1005380Y871808D01*
X1005491Y871882D01*
X1005610Y871941D01*
X1005736Y871983D01*
X1005867Y872010D01*
X1006000Y872018D01*
X1028000D01*
X1028133Y872010D01*
D02*
G37*
G36*
X1369383Y872260D02*
X1369514Y872234D01*
X1369640Y872191D01*
X1369759Y872132D01*
X1369870Y872058D01*
X1369970Y871970D01*
X1370058Y871870D01*
X1370132Y871759D01*
X1370191Y871640D01*
X1370233Y871514D01*
X1370260Y871383D01*
X1370268Y871250D01*
Y843250D01*
X1370260Y843117D01*
X1370233Y842987D01*
X1370191Y842860D01*
X1370132Y842741D01*
X1370058Y842630D01*
X1369970Y842530D01*
X1369870Y842442D01*
X1369759Y842368D01*
X1369640Y842309D01*
X1369514Y842266D01*
X1369383Y842241D01*
X1369250Y842232D01*
X1347250D01*
X1347117Y842241D01*
X1346987Y842266D01*
X1346860Y842309D01*
X1346741Y842368D01*
X1346630Y842442D01*
X1346530Y842530D01*
X1346442Y842630D01*
X1346368Y842741D01*
X1346309Y842860D01*
X1346266Y842987D01*
X1346241Y843117D01*
X1346232Y843250D01*
Y844482D01*
X1341750D01*
X1341617Y844491D01*
X1341487Y844517D01*
X1341360Y844559D01*
X1341241Y844618D01*
X1341130Y844692D01*
X1341030Y844780D01*
X1340942Y844880D01*
X1340868Y844991D01*
X1340809Y845110D01*
X1340766Y845237D01*
X1340741Y845367D01*
X1340732Y845500D01*
Y849500D01*
X1340741Y849633D01*
X1340766Y849763D01*
X1340809Y849890D01*
X1340868Y850009D01*
X1340942Y850120D01*
X1341030Y850220D01*
X1341130Y850308D01*
X1341241Y850382D01*
X1341360Y850441D01*
X1341487Y850483D01*
X1341617Y850509D01*
X1341750Y850518D01*
X1346232D01*
Y871250D01*
X1346241Y871383D01*
X1346266Y871514D01*
X1346309Y871640D01*
X1346368Y871759D01*
X1346442Y871870D01*
X1346530Y871970D01*
X1346630Y872058D01*
X1346741Y872132D01*
X1346860Y872191D01*
X1346987Y872234D01*
X1347117Y872260D01*
X1347250Y872268D01*
X1369250D01*
X1369383Y872260D01*
D02*
G37*
G36*
X1199133Y872259D02*
X1199264Y872233D01*
X1199390Y872191D01*
X1199509Y872132D01*
X1199620Y872058D01*
X1199720Y871970D01*
X1199808Y871870D01*
X1199882Y871759D01*
X1199941Y871640D01*
X1199984Y871514D01*
X1200010Y871383D01*
X1200018Y871250D01*
Y843250D01*
X1200010Y843117D01*
X1199984Y842986D01*
X1199941Y842860D01*
X1199882Y842741D01*
X1199808Y842630D01*
X1199720Y842530D01*
X1199620Y842442D01*
X1199509Y842368D01*
X1199390Y842309D01*
X1199264Y842266D01*
X1199133Y842241D01*
X1199000Y842232D01*
X1177000D01*
X1176867Y842241D01*
X1176737Y842266D01*
X1176610Y842309D01*
X1176491Y842368D01*
X1176380Y842442D01*
X1176280Y842530D01*
X1176192Y842630D01*
X1176118Y842741D01*
X1176059Y842860D01*
X1176016Y842986D01*
X1175991Y843117D01*
X1175982Y843250D01*
Y844482D01*
X1171500D01*
X1171367Y844491D01*
X1171236Y844517D01*
X1171110Y844559D01*
X1170991Y844618D01*
X1170880Y844692D01*
X1170780Y844780D01*
X1170692Y844880D01*
X1170618Y844991D01*
X1170559Y845110D01*
X1170517Y845236D01*
X1170490Y845367D01*
X1170482Y845500D01*
Y849500D01*
X1170490Y849633D01*
X1170517Y849763D01*
X1170559Y849890D01*
X1170618Y850009D01*
X1170692Y850120D01*
X1170780Y850220D01*
X1170880Y850308D01*
X1170991Y850382D01*
X1171110Y850441D01*
X1171236Y850483D01*
X1171367Y850509D01*
X1171500Y850518D01*
X1175982D01*
Y871250D01*
X1175991Y871383D01*
X1176016Y871514D01*
X1176059Y871640D01*
X1176118Y871759D01*
X1176192Y871870D01*
X1176280Y871970D01*
X1176380Y872058D01*
X1176491Y872132D01*
X1176610Y872191D01*
X1176737Y872233D01*
X1176867Y872259D01*
X1177000Y872268D01*
X1199000D01*
X1199133Y872259D01*
D02*
G37*
G36*
X1598133Y258509D02*
X1598264Y258484D01*
X1598390Y258441D01*
X1598509Y258382D01*
X1598620Y258308D01*
X1598720Y258220D01*
X1604720Y252220D01*
X1604808Y252120D01*
X1604882Y252009D01*
X1604941Y251890D01*
X1604984Y251763D01*
X1605009Y251633D01*
X1605018Y251500D01*
Y245500D01*
X1605009Y245367D01*
X1604984Y245236D01*
X1604941Y245110D01*
X1604882Y244991D01*
X1604808Y244880D01*
X1604720Y244780D01*
X1604620Y244692D01*
X1604509Y244618D01*
X1604390Y244559D01*
X1604264Y244517D01*
X1604133Y244491D01*
X1604000Y244482D01*
X1592000D01*
X1591867Y244491D01*
X1591736Y244517D01*
X1591610Y244559D01*
X1591491Y244618D01*
X1591380Y244692D01*
X1591280Y244780D01*
X1591192Y244880D01*
X1591118Y244991D01*
X1591059Y245110D01*
X1591017Y245236D01*
X1590991Y245367D01*
X1590982Y245500D01*
Y257500D01*
X1590991Y257633D01*
X1591017Y257764D01*
X1591059Y257890D01*
X1591118Y258009D01*
X1591192Y258120D01*
X1591280Y258220D01*
X1591380Y258308D01*
X1591491Y258382D01*
X1591610Y258441D01*
X1591736Y258484D01*
X1591867Y258509D01*
X1592000Y258518D01*
X1598000D01*
X1598133Y258509D01*
D02*
G37*
D87*
X1001750Y573000D02*
D03*
Y568000D02*
D03*
Y563000D02*
D03*
Y558000D02*
D03*
Y553000D02*
D03*
Y548000D02*
D03*
Y543000D02*
D03*
Y538000D02*
D03*
Y533000D02*
D03*
Y528000D02*
D03*
Y523000D02*
D03*
Y518000D02*
D03*
Y513000D02*
D03*
Y508000D02*
D03*
Y503000D02*
D03*
Y498000D02*
D03*
Y493000D02*
D03*
Y488000D02*
D03*
Y483000D02*
D03*
Y478000D02*
D03*
Y473000D02*
D03*
Y468000D02*
D03*
Y463000D02*
D03*
Y458000D02*
D03*
Y453000D02*
D03*
X1158250D02*
D03*
Y458000D02*
D03*
Y463000D02*
D03*
Y468000D02*
D03*
Y473000D02*
D03*
Y478000D02*
D03*
Y483000D02*
D03*
Y488000D02*
D03*
Y493000D02*
D03*
Y498000D02*
D03*
Y503000D02*
D03*
Y508000D02*
D03*
Y513000D02*
D03*
Y518000D02*
D03*
Y523000D02*
D03*
Y528000D02*
D03*
Y533000D02*
D03*
Y538000D02*
D03*
Y543000D02*
D03*
Y548000D02*
D03*
Y553000D02*
D03*
Y558000D02*
D03*
Y563000D02*
D03*
Y568000D02*
D03*
Y573000D02*
D03*
D88*
X1020000Y434750D02*
D03*
X1025000D02*
D03*
X1030000D02*
D03*
X1035000D02*
D03*
X1040000D02*
D03*
X1045000D02*
D03*
X1050000D02*
D03*
X1055000D02*
D03*
X1060000D02*
D03*
X1065000D02*
D03*
X1070000D02*
D03*
X1075000D02*
D03*
X1080000D02*
D03*
X1085000D02*
D03*
X1090000D02*
D03*
X1095000D02*
D03*
X1100000D02*
D03*
X1105000D02*
D03*
X1110000D02*
D03*
X1115000D02*
D03*
X1120000D02*
D03*
X1125000D02*
D03*
X1130000D02*
D03*
X1135000D02*
D03*
X1140000D02*
D03*
Y591250D02*
D03*
X1135000D02*
D03*
X1130000D02*
D03*
X1125000D02*
D03*
X1120000D02*
D03*
X1115000D02*
D03*
X1110000D02*
D03*
X1105000D02*
D03*
X1100000D02*
D03*
X1095000D02*
D03*
X1090000D02*
D03*
X1085000D02*
D03*
X1080000D02*
D03*
X1075000D02*
D03*
X1070000D02*
D03*
X1065000D02*
D03*
X1060000D02*
D03*
X1055000D02*
D03*
X1050000D02*
D03*
X1045000D02*
D03*
X1040000D02*
D03*
X1035000D02*
D03*
X1030000D02*
D03*
X1025000D02*
D03*
X1020000D02*
D03*
D89*
X1530250Y46750D02*
D03*
X1536750D02*
D03*
X1543250D02*
D03*
X1549750D02*
D03*
X1556250D02*
D03*
X1562750D02*
D03*
X1569250D02*
D03*
X1575750D02*
D03*
X1582250D02*
D03*
X1588750D02*
D03*
X1595250D02*
D03*
X1601750D02*
D03*
X1608250D02*
D03*
X1614750D02*
D03*
X1530250Y122750D02*
D03*
X1536750D02*
D03*
X1543250D02*
D03*
X1549750D02*
D03*
X1556250D02*
D03*
X1562750D02*
D03*
X1569250D02*
D03*
X1575750D02*
D03*
X1582250D02*
D03*
X1588750D02*
D03*
X1595250D02*
D03*
X1601750D02*
D03*
X1608250D02*
D03*
X1614750D02*
D03*
D90*
X1222451Y370000D02*
D03*
X1240451D02*
D03*
X1725750Y561500D02*
D03*
X1743750D02*
D03*
X1239250Y511500D02*
D03*
X1221250D02*
D03*
X1239250Y496000D02*
D03*
X1221250D02*
D03*
X782250Y568250D02*
D03*
X764250D02*
D03*
X782250Y550250D02*
D03*
X764250D02*
D03*
Y533500D02*
D03*
X782250D02*
D03*
X824247Y490693D02*
D03*
X842247D02*
D03*
X763000Y307500D02*
D03*
X745000D02*
D03*
X763000Y325500D02*
D03*
X745000D02*
D03*
X811000Y364500D02*
D03*
X793000D02*
D03*
X886000Y359000D02*
D03*
X904000D02*
D03*
X942000D02*
D03*
X924000D02*
D03*
X983000Y359000D02*
D03*
X965000D02*
D03*
X1201500Y370000D02*
D03*
X1183500D02*
D03*
X1541000Y26750D02*
D03*
X1523000D02*
D03*
X1652250Y58250D02*
D03*
X1670250D02*
D03*
X1604500Y322500D02*
D03*
X1586500D02*
D03*
X1482750Y412000D02*
D03*
X1464750D02*
D03*
X1482750Y426250D02*
D03*
X1464750D02*
D03*
X1730750Y576500D02*
D03*
X1712750D02*
D03*
X1774500Y587250D02*
D03*
X1756500D02*
D03*
X1856000Y748000D02*
D03*
X1874000D02*
D03*
X1898500Y764250D02*
D03*
X1880500D02*
D03*
X2046750Y802250D02*
D03*
X2064750D02*
D03*
X1730000Y844000D02*
D03*
X1712000D02*
D03*
X1769000Y878000D02*
D03*
X1751000D02*
D03*
X1769000Y894000D02*
D03*
X1751000D02*
D03*
X1668750Y557750D02*
D03*
X1686750D02*
D03*
X1668750Y576000D02*
D03*
X1686750D02*
D03*
X1661250Y598000D02*
D03*
X1679250D02*
D03*
X1582250Y708250D02*
D03*
X1564250D02*
D03*
X1468500Y708000D02*
D03*
X1450500D02*
D03*
X1350250Y824500D02*
D03*
X1332250D02*
D03*
X1276250Y818250D02*
D03*
X1258250D02*
D03*
X1179500Y824750D02*
D03*
X1161500D02*
D03*
X996500Y824500D02*
D03*
X978500D02*
D03*
X1106250Y818250D02*
D03*
X1088250D02*
D03*
X1114500Y761250D02*
D03*
X1096500D02*
D03*
X1080500Y761250D02*
D03*
X1062500D02*
D03*
X1046500D02*
D03*
X1028500D02*
D03*
X1012500D02*
D03*
X994500D02*
D03*
X978500D02*
D03*
X960500D02*
D03*
X944500D02*
D03*
X926500D02*
D03*
X932600Y818250D02*
D03*
X914600D02*
D03*
X801500Y824000D02*
D03*
X819500D02*
D03*
X741000Y818250D02*
D03*
X759000D02*
D03*
X518100Y722000D02*
D03*
X536100D02*
D03*
X482100Y722000D02*
D03*
X500100D02*
D03*
X575100Y722000D02*
D03*
X593100D02*
D03*
X668800Y722000D02*
D03*
X686800D02*
D03*
X611100Y722000D02*
D03*
X629100D02*
D03*
X704800Y722000D02*
D03*
X722800D02*
D03*
X1087000Y358000D02*
D03*
X1105000D02*
D03*
X1024000Y359000D02*
D03*
X1042000D02*
D03*
D91*
X1333052Y166000D02*
D03*
Y156000D02*
D03*
Y146000D02*
D03*
Y176000D02*
D03*
Y86000D02*
D03*
Y76000D02*
D03*
Y66000D02*
D03*
Y136000D02*
D03*
X1182052Y176000D02*
D03*
Y166000D02*
D03*
Y156000D02*
D03*
Y146000D02*
D03*
Y136000D02*
D03*
Y126000D02*
D03*
Y116000D02*
D03*
Y106000D02*
D03*
Y96000D02*
D03*
Y86000D02*
D03*
Y76000D02*
D03*
Y66000D02*
D03*
D92*
X1292552Y40500D02*
D03*
X1282552D02*
D03*
X1272552D02*
D03*
X1262552D02*
D03*
X1272552Y198500D02*
D03*
X1262552D02*
D03*
X1252552D02*
D03*
X1242552D02*
D03*
X1232552D02*
D03*
X1222552D02*
D03*
X1282552D02*
D03*
X1292552D02*
D03*
D93*
X1726250Y786000D02*
D03*
X1715250D02*
D03*
X1704250D02*
D03*
X1693250D02*
D03*
X1770250D02*
D03*
X1759250D02*
D03*
X1748250D02*
D03*
X1737250D02*
D03*
X1781250D02*
D03*
X1726250Y610000D02*
D03*
X1715250D02*
D03*
X1704250D02*
D03*
X1693250D02*
D03*
X1770250D02*
D03*
X1759250D02*
D03*
X1748250D02*
D03*
X1737250D02*
D03*
X1781250D02*
D03*
D94*
X1815750Y758500D02*
D03*
Y747500D02*
D03*
Y736500D02*
D03*
Y725500D02*
D03*
Y714500D02*
D03*
Y703500D02*
D03*
Y692500D02*
D03*
Y681500D02*
D03*
Y670500D02*
D03*
Y659500D02*
D03*
Y648500D02*
D03*
Y637500D02*
D03*
X1658750Y758500D02*
D03*
Y747500D02*
D03*
Y736500D02*
D03*
Y725500D02*
D03*
Y714500D02*
D03*
Y703500D02*
D03*
Y692500D02*
D03*
Y681500D02*
D03*
Y670500D02*
D03*
Y659500D02*
D03*
Y648500D02*
D03*
Y637500D02*
D03*
D95*
X1055500Y406250D02*
D03*
X1172500Y651750D02*
D03*
X1169500Y740000D02*
D03*
Y678500D02*
D03*
Y756000D02*
D03*
X987750Y644850D02*
D03*
X667750Y672250D02*
D03*
X729500Y692750D02*
D03*
X667750Y650250D02*
D03*
X1111373Y743750D02*
D03*
X1081000Y743750D02*
D03*
X1046500Y743750D02*
D03*
X1012500Y743750D02*
D03*
X978750Y743750D02*
D03*
X982250Y706500D02*
D03*
X1143000Y277000D02*
D03*
X988000Y629750D02*
D03*
X1169500Y724000D02*
D03*
X987750Y612250D02*
D03*
X1169500Y708500D02*
D03*
Y693250D02*
D03*
X1400250Y367750D02*
D03*
X1419500Y383250D02*
D03*
X1435250Y462500D02*
D03*
X1402000Y394250D02*
D03*
X1633500Y86000D02*
D03*
X1646750Y146250D02*
D03*
X1631250Y123000D02*
D03*
X1475000Y239750D02*
D03*
X1529250Y94500D02*
D03*
X1475000Y256000D02*
D03*
X1502750Y78000D02*
D03*
X1502750Y62250D02*
D03*
X1702250Y93250D02*
D03*
X1608500Y145000D02*
D03*
X1589750Y145250D02*
D03*
X1174750Y226500D02*
D03*
X1185000Y211750D02*
D03*
X897500Y391500D02*
D03*
X924000Y391500D02*
D03*
X1070250Y303500D02*
D03*
X985000Y375000D02*
D03*
X1064750Y374500D02*
D03*
X1029000Y374000D02*
D03*
X1513750Y656000D02*
D03*
X1533750Y665500D02*
D03*
X1211000Y478000D02*
D03*
X1191250Y485500D02*
D03*
X1645500Y598500D02*
D03*
X1653000Y574750D02*
D03*
X1705250Y562500D02*
D03*
X1740500Y590500D02*
D03*
X1658500Y529500D02*
D03*
D96*
X1183250Y779000D02*
D03*
D97*
X1199000Y669250D02*
D03*
D98*
X1214000Y665500D02*
D03*
D99*
X1290000Y780500D02*
D03*
Y668000D02*
D03*
D100*
X1291250Y757000D02*
D03*
Y746000D02*
D03*
Y735000D02*
D03*
Y724000D02*
D03*
Y713000D02*
D03*
Y702000D02*
D03*
Y691000D02*
D03*
Y680000D02*
D03*
D101*
X1207500Y783000D02*
D03*
D102*
X487300Y746000D02*
D03*
X512700D02*
D03*
X487300Y836000D02*
D03*
X512700D02*
D03*
X580300Y746000D02*
D03*
X605700D02*
D03*
X580300Y836000D02*
D03*
X605700D02*
D03*
X1289200Y929000D02*
D03*
X1263800D02*
D03*
X1289200Y839000D02*
D03*
X1263800D02*
D03*
X1119200Y929000D02*
D03*
X1093800D02*
D03*
X1119200Y839000D02*
D03*
X1093800D02*
D03*
X942700Y930000D02*
D03*
X917300D02*
D03*
X942700Y840000D02*
D03*
X917300D02*
D03*
X746550Y839000D02*
D03*
X771950D02*
D03*
X746550Y929000D02*
D03*
X771950D02*
D03*
X699400Y836000D02*
D03*
X674000D02*
D03*
X699400Y746000D02*
D03*
X674000D02*
D03*
D103*
X1542480Y625100D02*
D03*
X1542476Y502500D02*
D03*
X1465976Y625100D02*
D03*
Y502500D02*
D03*
D104*
X1583500Y619950D02*
D03*
D105*
X1581250Y524500D02*
D03*
Y513500D02*
D03*
Y535500D02*
D03*
Y546500D02*
D03*
Y557500D02*
D03*
Y568500D02*
D03*
Y579500D02*
D03*
Y590500D02*
D03*
Y601500D02*
D03*
D106*
X1971250Y794750D02*
D03*
X1971250Y824750D02*
D03*
Y809750D02*
D03*
Y854750D02*
D03*
Y839750D02*
D03*
D107*
X1053850Y909250D02*
D03*
X983850D02*
D03*
X1397500D02*
D03*
X1327500D02*
D03*
X1227500Y909250D02*
D03*
X1157500D02*
D03*
X810250D02*
D03*
X880250D02*
D03*
D108*
X1583000Y727500D02*
D03*
X1550300D02*
D03*
X1469600Y727250D02*
D03*
X1436900D02*
D03*
X1365650Y825000D02*
D03*
X1398350D02*
D03*
X1193650D02*
D03*
X1226350D02*
D03*
X1010000D02*
D03*
X1042700D02*
D03*
X866450Y824500D02*
D03*
X833750D02*
D03*
X667450Y701000D02*
D03*
X700150D02*
D03*
X573750Y701000D02*
D03*
X606450D02*
D03*
X480750D02*
D03*
X513450D02*
D03*
D109*
X1598750Y707000D02*
D03*
X1617750D02*
D03*
X1608250Y731000D02*
D03*
X895000Y319000D02*
D03*
X885500Y343000D02*
D03*
X904500D02*
D03*
X1105500D02*
D03*
X1086500D02*
D03*
X1096000Y319000D02*
D03*
X1042500Y343000D02*
D03*
X1023500D02*
D03*
X1033000Y319000D02*
D03*
X1624250Y559500D02*
D03*
X1633750Y559500D02*
D03*
X1643250D02*
D03*
Y532000D02*
D03*
X1633750D02*
D03*
X1624250D02*
D03*
X1494250Y731500D02*
D03*
X1503750Y707500D02*
D03*
X1484750D02*
D03*
D110*
X1136318Y690945D02*
D03*
X1139146Y688117D02*
D03*
X1141975Y685289D02*
D03*
X1144803Y682460D02*
D03*
X1147632Y679632D02*
D03*
X1150460Y676803D02*
D03*
X1153289Y673975D02*
D03*
X1156117Y671146D02*
D03*
X1128186Y682814D02*
D03*
X1131015Y679985D02*
D03*
X1133843Y677157D02*
D03*
X1136672Y674328D02*
D03*
X1139500Y671500D02*
D03*
X1142328Y668672D02*
D03*
X1145157Y665843D02*
D03*
X1147985Y663015D02*
D03*
D111*
X1142152Y676980D02*
D03*
D112*
X1129777Y689354D02*
D03*
X1154526Y664606D02*
D03*
D113*
X1253756Y511319D02*
D03*
X1272756D02*
D03*
X1253750Y496000D02*
D03*
X1272750D02*
D03*
X730750Y533500D02*
D03*
X749750D02*
D03*
X730750Y550250D02*
D03*
X749750D02*
D03*
X730750Y568250D02*
D03*
X749750D02*
D03*
X1241768Y354720D02*
D03*
X1222768D02*
D03*
X1203000Y354750D02*
D03*
X1184000D02*
D03*
X1570250Y323000D02*
D03*
X1551250D02*
D03*
X1019250Y777250D02*
D03*
X1000250D02*
D03*
X1054000Y777250D02*
D03*
X1035000D02*
D03*
X1088750Y777250D02*
D03*
X1069750D02*
D03*
X1123500Y777500D02*
D03*
X1104500D02*
D03*
X984500Y777250D02*
D03*
X965500D02*
D03*
X949750Y777250D02*
D03*
X930750D02*
D03*
D114*
X917250Y508250D02*
D03*
Y490250D02*
D03*
X917250Y542000D02*
D03*
Y524000D02*
D03*
X711247Y459693D02*
D03*
Y477693D02*
D03*
X693247Y459693D02*
D03*
Y477693D02*
D03*
X798247Y427693D02*
D03*
Y445693D02*
D03*
X780247Y427693D02*
D03*
Y445693D02*
D03*
X676000Y360000D02*
D03*
Y342000D02*
D03*
X660000Y360000D02*
D03*
Y342000D02*
D03*
X869000Y320000D02*
D03*
Y338000D02*
D03*
X924000D02*
D03*
Y320000D02*
D03*
X965000Y338000D02*
D03*
Y320000D02*
D03*
X1511250Y111500D02*
D03*
Y93500D02*
D03*
X1687250Y94750D02*
D03*
Y76750D02*
D03*
X1687500Y110750D02*
D03*
Y128750D02*
D03*
X1703500Y129000D02*
D03*
Y111000D02*
D03*
X1500750Y452750D02*
D03*
Y434750D02*
D03*
X1555500Y457500D02*
D03*
Y439500D02*
D03*
X1839750Y730000D02*
D03*
Y748000D02*
D03*
X2023000Y805250D02*
D03*
Y823250D02*
D03*
X2068500Y836500D02*
D03*
Y818500D02*
D03*
X2049286Y855464D02*
D03*
Y837464D02*
D03*
X1863000Y872000D02*
D03*
Y854000D02*
D03*
X1879000Y872000D02*
D03*
Y854000D02*
D03*
X1626500Y666000D02*
D03*
Y684000D02*
D03*
X1610000D02*
D03*
Y666000D02*
D03*
X1594250Y684250D02*
D03*
Y666250D02*
D03*
X1310000Y835000D02*
D03*
Y853000D02*
D03*
X1140000Y835000D02*
D03*
Y853000D02*
D03*
X963000Y836000D02*
D03*
Y854000D02*
D03*
X795000Y859000D02*
D03*
Y841000D02*
D03*
X441000Y855000D02*
D03*
Y873000D02*
D03*
X464100Y855000D02*
D03*
Y873000D02*
D03*
X557100Y855000D02*
D03*
Y873000D02*
D03*
X536000Y855000D02*
D03*
Y873000D02*
D03*
X626000Y855000D02*
D03*
Y873000D02*
D03*
X650800Y855000D02*
D03*
Y873000D02*
D03*
X464100Y722000D02*
D03*
Y740000D02*
D03*
X650800Y722000D02*
D03*
Y740000D02*
D03*
X557100Y722000D02*
D03*
Y740000D02*
D03*
X145000Y829000D02*
D03*
Y811000D02*
D03*
X1070000Y320000D02*
D03*
Y338000D02*
D03*
X1007000Y320000D02*
D03*
Y338000D02*
D03*
D115*
X946750Y495750D02*
D03*
Y536750D02*
D03*
D116*
X733247Y476193D02*
D03*
Y445193D02*
D03*
X758000Y413500D02*
D03*
Y444500D02*
D03*
X696000Y327500D02*
D03*
Y358500D02*
D03*
X1843000Y855500D02*
D03*
Y886500D02*
D03*
X1819000Y855500D02*
D03*
Y886500D02*
D03*
X319000Y821000D02*
D03*
Y790000D02*
D03*
D117*
X790997Y485943D02*
D03*
X757997D02*
D03*
D118*
X831247Y462693D02*
D03*
X804000Y332750D02*
D03*
X1721000Y870750D02*
D03*
D119*
X817247Y452943D02*
D03*
Y459443D02*
D03*
Y465943D02*
D03*
Y472443D02*
D03*
X845247Y452943D02*
D03*
Y459443D02*
D03*
Y465943D02*
D03*
Y472443D02*
D03*
X818000Y342500D02*
D03*
Y336000D02*
D03*
Y329500D02*
D03*
Y323000D02*
D03*
X790000Y342500D02*
D03*
Y336000D02*
D03*
Y329500D02*
D03*
Y323000D02*
D03*
X1735000Y880500D02*
D03*
Y874000D02*
D03*
Y867500D02*
D03*
Y861000D02*
D03*
X1707000Y880500D02*
D03*
Y874000D02*
D03*
Y867500D02*
D03*
Y861000D02*
D03*
D120*
X764000Y373500D02*
D03*
X722000D02*
D03*
D121*
X730500Y284500D02*
D03*
X761500D02*
D03*
X1752500Y914000D02*
D03*
X1783500D02*
D03*
X1752500Y938000D02*
D03*
X1783500D02*
D03*
D122*
X860913Y293733D02*
D03*
X881913D02*
D03*
X902913D02*
D03*
X923913D02*
D03*
X944913D02*
D03*
X965913D02*
D03*
X986913D02*
D03*
X1007913D02*
D03*
Y43733D02*
D03*
X986913D02*
D03*
X965913D02*
D03*
X944913D02*
D03*
X923913D02*
D03*
X902913D02*
D03*
X881913D02*
D03*
X860913D02*
D03*
D123*
X1480500Y157000D02*
D03*
X1480500Y147500D02*
D03*
Y138000D02*
D03*
X1453000D02*
D03*
Y147500D02*
D03*
Y157000D02*
D03*
X1647500Y84250D02*
D03*
X1671500Y93750D02*
D03*
Y74750D02*
D03*
Y119500D02*
D03*
X1647500Y110000D02*
D03*
Y129000D02*
D03*
X480000Y883500D02*
D03*
Y864500D02*
D03*
X504000Y874000D02*
D03*
X574000Y882500D02*
D03*
Y863500D02*
D03*
X598000Y873000D02*
D03*
X667000Y881500D02*
D03*
Y862500D02*
D03*
X691000Y872000D02*
D03*
D124*
X1493500Y94000D02*
D03*
Y115000D02*
D03*
X338000Y706500D02*
D03*
Y685500D02*
D03*
X440000Y703500D02*
D03*
Y724500D02*
D03*
X321000Y768500D02*
D03*
Y747500D02*
D03*
D125*
X1695750Y262350D02*
D03*
Y251150D02*
D03*
Y271250D02*
D03*
Y282450D02*
D03*
X1696250Y364350D02*
D03*
Y353150D02*
D03*
Y372900D02*
D03*
Y384100D02*
D03*
Y312700D02*
D03*
Y301500D02*
D03*
Y321650D02*
D03*
Y332850D02*
D03*
X1579750Y451150D02*
D03*
Y462350D02*
D03*
Y440100D02*
D03*
Y428900D02*
D03*
D126*
X1651500Y277500D02*
D03*
Y269000D02*
D03*
Y260500D02*
D03*
Y252000D02*
D03*
Y243500D02*
D03*
Y235000D02*
D03*
Y226500D02*
D03*
Y218000D02*
D03*
Y209500D02*
D03*
Y201000D02*
D03*
Y192500D02*
D03*
Y184000D02*
D03*
Y286000D02*
D03*
Y175500D02*
D03*
Y294500D02*
D03*
X1511500Y192500D02*
D03*
Y201000D02*
D03*
Y209500D02*
D03*
Y218000D02*
D03*
Y226500D02*
D03*
Y235000D02*
D03*
Y243500D02*
D03*
Y252000D02*
D03*
Y260500D02*
D03*
Y269000D02*
D03*
Y277500D02*
D03*
Y286000D02*
D03*
Y184000D02*
D03*
Y294500D02*
D03*
Y175500D02*
D03*
D127*
X1624000Y165000D02*
D03*
X1615500D02*
D03*
X1607000D02*
D03*
X1598500D02*
D03*
X1590000D02*
D03*
X1581500D02*
D03*
X1573000D02*
D03*
X1564500D02*
D03*
X1556000D02*
D03*
X1547500D02*
D03*
X1539000D02*
D03*
X1530500D02*
D03*
X1632500D02*
D03*
X1522000D02*
D03*
X1641000D02*
D03*
X1624000Y305000D02*
D03*
X1615500D02*
D03*
X1607000D02*
D03*
X1598500D02*
D03*
X1590000D02*
D03*
X1581500D02*
D03*
X1573000D02*
D03*
X1564500D02*
D03*
X1556000D02*
D03*
X1547500D02*
D03*
X1539000D02*
D03*
X1530500D02*
D03*
X1632500D02*
D03*
X1522000D02*
D03*
X1641000D02*
D03*
D128*
X1511500Y165000D02*
D03*
X1651500Y305000D02*
D03*
D129*
Y165000D02*
D03*
X1511500Y305000D02*
D03*
D130*
X1598000Y218500D02*
D03*
X1565000Y235000D02*
D03*
Y251500D02*
D03*
X1598000Y235000D02*
D03*
X1581500D02*
D03*
D131*
X1565000Y218500D02*
D03*
X1581500D02*
D03*
Y251500D02*
D03*
D132*
X1524500Y380750D02*
D03*
Y387250D02*
D03*
Y393750D02*
D03*
Y400250D02*
D03*
Y354750D02*
D03*
Y361250D02*
D03*
Y367750D02*
D03*
Y374250D02*
D03*
X1466500Y354750D02*
D03*
Y361250D02*
D03*
Y367750D02*
D03*
Y374250D02*
D03*
Y380750D02*
D03*
Y387250D02*
D03*
Y393750D02*
D03*
Y400250D02*
D03*
D133*
X1535000Y460500D02*
D03*
X1516000D02*
D03*
X1535000Y434500D02*
D03*
X1525500D02*
D03*
X1516000D02*
D03*
D134*
X1837750Y700000D02*
D03*
X1858750D02*
D03*
X200500Y480000D02*
D03*
X179500D02*
D03*
D135*
X2051400Y815750D02*
D03*
Y820750D02*
D03*
Y825750D02*
D03*
X2036600Y815750D02*
D03*
Y820750D02*
D03*
Y825750D02*
D03*
D136*
X1882750Y780000D02*
D03*
D137*
X1868000Y796000D02*
D03*
X1897500D02*
D03*
D138*
X1655750Y825750D02*
D03*
Y806750D02*
D03*
X1678250Y825500D02*
D03*
Y806500D02*
D03*
X44750Y539500D02*
D03*
Y520500D02*
D03*
D139*
X1755000Y842000D02*
D03*
X1795000D02*
D03*
D140*
X1622750Y604500D02*
D03*
Y640500D02*
D03*
X642800Y792000D02*
D03*
Y834000D02*
D03*
X549100Y792000D02*
D03*
Y834000D02*
D03*
X456100Y792000D02*
D03*
Y834000D02*
D03*
D141*
X1377000Y867000D02*
D03*
Y860500D02*
D03*
Y854000D02*
D03*
Y847500D02*
D03*
X1345250Y867000D02*
D03*
Y860500D02*
D03*
Y854000D02*
D03*
X1206750Y867000D02*
D03*
Y860500D02*
D03*
Y854000D02*
D03*
Y847500D02*
D03*
X1175000Y867000D02*
D03*
Y860500D02*
D03*
Y854000D02*
D03*
X1035750Y866750D02*
D03*
Y860250D02*
D03*
Y853750D02*
D03*
Y847250D02*
D03*
X1004000Y866750D02*
D03*
Y860250D02*
D03*
Y853750D02*
D03*
X831000Y851750D02*
D03*
Y858250D02*
D03*
Y864750D02*
D03*
X862750Y845250D02*
D03*
Y851750D02*
D03*
Y858250D02*
D03*
Y864750D02*
D03*
D142*
X366000Y705000D02*
D03*
X412000D02*
D03*
D143*
X367000Y563500D02*
D03*
Y500500D02*
D03*
D144*
X420100Y807375D02*
D03*
X407400D02*
D03*
X343900Y750625D02*
D03*
Y807375D02*
D03*
X356600D02*
D03*
X420100Y750625D02*
D03*
X407400D02*
D03*
D145*
X165000Y787650D02*
D03*
Y820350D02*
D03*
D146*
X202000Y809860D02*
D03*
Y764140D02*
D03*
D147*
X264000Y787000D02*
D03*
D148*
X451000Y913000D02*
D03*
X487000D02*
D03*
X579000D02*
D03*
X543000D02*
D03*
X672000Y913000D02*
D03*
X636000D02*
D03*
D149*
X933300Y619450D02*
D03*
X882500D02*
D03*
X933300Y594050D02*
D03*
X882500D02*
D03*
X933300Y644850D02*
D03*
X882500D02*
D03*
X933300Y670250D02*
D03*
X882500D02*
D03*
X933300Y695650D02*
D03*
X882500D02*
D03*
X1736700Y512200D02*
D03*
X1787500D02*
D03*
X1736700Y537600D02*
D03*
X1787500D02*
D03*
X1736700Y486800D02*
D03*
X1787500D02*
D03*
X1736700Y461400D02*
D03*
X1787500D02*
D03*
X1736700Y436000D02*
D03*
X1787500D02*
D03*
X1787550Y253850D02*
D03*
X1736750D02*
D03*
X1787550Y380850D02*
D03*
Y355450D02*
D03*
Y330050D02*
D03*
Y304650D02*
D03*
Y279250D02*
D03*
X1736750D02*
D03*
Y304650D02*
D03*
Y330050D02*
D03*
Y380850D02*
D03*
Y355450D02*
D03*
X179000Y926000D02*
D03*
X281000Y912000D02*
D03*
D150*
X1193250Y1048000D02*
D03*
X1244050D02*
D03*
X1294850D02*
D03*
X1345650D02*
D03*
X1396450D02*
D03*
X1447250D02*
D03*
X1498050D02*
D03*
X1548850D02*
D03*
X1193250Y971800D02*
D03*
X1244050D02*
D03*
X1294850D02*
D03*
X1345650D02*
D03*
X1396450D02*
D03*
X1447250D02*
D03*
X1498050D02*
D03*
X1548850D02*
D03*
X728250Y1048000D02*
D03*
X779050D02*
D03*
X829850D02*
D03*
X880650D02*
D03*
X931450D02*
D03*
X982250D02*
D03*
X1033050D02*
D03*
X1083850D02*
D03*
X728250Y971800D02*
D03*
X779050D02*
D03*
X829850D02*
D03*
X880650D02*
D03*
X931450D02*
D03*
X982250D02*
D03*
X1033050D02*
D03*
X1083850D02*
D03*
X250050Y1048200D02*
D03*
X300850D02*
D03*
X351650D02*
D03*
X402450D02*
D03*
X453250D02*
D03*
X504050D02*
D03*
X554850D02*
D03*
X605650D02*
D03*
X250050Y972000D02*
D03*
X300850D02*
D03*
X351650D02*
D03*
X402450D02*
D03*
X453250D02*
D03*
X504050D02*
D03*
X554850D02*
D03*
X605650D02*
D03*
X166000Y874000D02*
D03*
X266000Y854000D02*
D03*
D151*
X1626600Y932400D02*
D03*
X1550400Y907000D02*
D03*
X1626600Y856200D02*
D03*
Y754600D02*
D03*
X1514200Y932400D02*
D03*
X1438000Y907000D02*
D03*
X1514200Y856200D02*
D03*
Y754600D02*
D03*
D152*
X1550400D02*
D03*
X1438000D02*
D03*
D153*
X1924000Y899250D02*
D03*
Y881250D02*
D03*
Y863250D02*
D03*
Y845250D02*
D03*
Y827250D02*
D03*
Y809250D02*
D03*
Y791250D02*
D03*
Y773250D02*
D03*
Y755250D02*
D03*
D154*
X1220700Y563150D02*
D03*
X1195300D02*
D03*
X1220700Y588550D02*
D03*
X1195300D02*
D03*
X1220700Y613950D02*
D03*
X1195300D02*
D03*
X1220700Y639350D02*
D03*
X1195300D02*
D03*
X1126100Y154860D02*
D03*
X1151500D02*
D03*
X1126100Y129460D02*
D03*
X1151500D02*
D03*
X1126100Y104060D02*
D03*
X1151500D02*
D03*
X1126100Y78660D02*
D03*
X1151500D02*
D03*
X420500Y855000D02*
D03*
X345500D02*
D03*
X428000Y176000D02*
D03*
X578000D02*
D03*
X480000Y498000D02*
D03*
X630000D02*
D03*
X84000Y307000D02*
D03*
Y257000D02*
D03*
X318500Y511000D02*
D03*
Y611000D02*
D03*
X77000Y607000D02*
D03*
Y507000D02*
D03*
X155000Y715000D02*
D03*
X105000D02*
D03*
X699000Y184000D02*
D03*
Y234000D02*
D03*
D155*
X1360000Y187760D02*
D03*
Y102760D02*
D03*
X1395250Y137000D02*
D03*
X1675000Y186750D02*
D03*
X1700400D02*
D03*
X1735004D02*
D03*
X1760400D02*
D03*
D156*
X1360000Y162360D02*
D03*
Y128160D02*
D03*
X1395250Y162400D02*
D03*
X1675000Y161350D02*
D03*
X1700400D02*
D03*
X1735004D02*
D03*
X1760400D02*
D03*
D157*
X1421752Y181445D02*
D03*
X1493252D02*
D03*
D158*
X1444502Y179245D02*
D03*
X1451002Y189245D02*
D03*
X1457502Y179245D02*
D03*
X1464002Y189245D02*
D03*
X1470502Y179245D02*
D03*
D159*
X162000Y409600D02*
D03*
Y308000D02*
D03*
X619200Y231800D02*
D03*
X162000Y257200D02*
D03*
X619200Y333400D02*
D03*
Y435000D02*
D03*
X270000Y607750D02*
D03*
Y507750D02*
D03*
X120000Y607750D02*
D03*
Y507750D02*
D03*
D160*
X2124000Y894000D02*
D03*
Y754000D02*
D03*
X1984000D02*
D03*
X1986250Y894500D02*
D03*
X1762000Y1010000D02*
D03*
Y104000D02*
D03*
X152000D02*
D03*
Y1010000D02*
D03*
M02*
