G04*
G04 #@! TF.GenerationSoftware,Altium Limited,Altium Designer,20.2.7 (254)*
G04*
G04 Layer_Color=8421504*
%FSLAX25Y25*%
%MOIN*%
G70*
G04*
G04 #@! TF.SameCoordinates,A70D1E75-91AA-4FD3-A19C-EF1787EBCA39*
G04*
G04*
G04 #@! TF.FilePolarity,Positive*
G04*
G01*
G75*
%ADD13R,0.03937X0.04921*%
%ADD14R,0.03937X0.03937*%
%ADD15R,0.03937X0.06299*%
%ADD16R,0.02362X0.03937*%
%ADD17R,0.03937X0.08268*%
%ADD18R,0.03347X0.03347*%
%ADD19R,0.04921X0.03937*%
%ADD20R,0.06299X0.03937*%
D13*
X143307Y166142D02*
D03*
X151181D02*
D03*
X212205D02*
D03*
X220079D02*
D03*
X281102D02*
D03*
X288976D02*
D03*
X350000D02*
D03*
X357874D02*
D03*
X87795Y157087D02*
D03*
X95669D02*
D03*
X87795Y148031D02*
D03*
X95669D02*
D03*
X5906Y119685D02*
D03*
X13780D02*
D03*
D14*
X142520Y138189D02*
D03*
Y131102D02*
D03*
X211680Y138189D02*
D03*
Y131102D02*
D03*
X280840Y138189D02*
D03*
Y131102D02*
D03*
X350000Y138189D02*
D03*
Y131102D02*
D03*
D15*
X87795Y166929D02*
D03*
X99606D02*
D03*
X83465Y120866D02*
D03*
X95276D02*
D03*
D16*
X95079Y129921D02*
D03*
X87598D02*
D03*
Y139370D02*
D03*
X91339D02*
D03*
X95079D02*
D03*
D17*
X40905Y166339D02*
D03*
X70906D02*
D03*
Y126575D02*
D03*
X50906D02*
D03*
X40905D02*
D03*
D18*
X5118Y136615D02*
D03*
Y131103D02*
D03*
D19*
X13386Y136221D02*
D03*
Y128347D02*
D03*
D20*
X23228Y124409D02*
D03*
Y136221D02*
D03*
M02*
