M48
;Layer_Color=9474304
;FILE_FORMAT=4:4
METRIC,LZ
;TYPE=PLATED
T1F00S00C0.3000
T2F00S00C0.9000
T3F00S00C1.0000
T4F00S00C1.0160
T5F00S00C1.2000
T6F00S00C3.2000
%
T01
X0073Y00422
X007475Y0045025
X0082925Y004485
X00814Y00423
X00891
X009085Y0044925
X009915Y004495
X00977Y00423
X0065775Y0035425
Y0029775
X0062475Y003215
X0057425
X0056525Y002795
X0049725Y0026425
X0047125Y0031325
X004615Y003135
X0046325Y0036525
X0047925Y00382
X0049275Y00342
X00521Y0035925
X0054925Y003945
X0055425Y00421
Y0042975
X00563
Y00421
X0058775Y003935
X0053275Y00474
X00402Y004705
X0039325
Y0047925
X00402
Y0046175
X0039325
X0035175Y0042975
X003915Y0038125
X003715Y0029275
X0026875Y0029325
X0018525Y002805
X001645Y00311
X0012Y00307
X00099Y003
X00101Y00359
X00119Y00352
X0012Y00411
X001Y0040075
X00101Y00461
X001815Y0048
X002465Y004015
X002515Y003805
X0028725Y00403
X002225Y00348
X0011925Y0024875
X002325Y00488
X0021825Y00519
X0021925Y0053425
X002675Y00541
X00277
X0028675
X002985Y004855
X00246Y00572
X002485Y0058875
X0023975
Y005975
X00231
Y0060625
X0023975
X002485
Y005975
Y00615
X0025725
X00266
X0027475
Y0062375
X00266
X0025725
X002485
X0023975
Y006325
Y00615
X00231
Y0062375
X00347Y00683
X0042925Y0060575
X00511Y0065175
X00524Y0067525
X0049125Y007105
X00585Y0069575
X0053325Y0049625
T02
X0070675Y0051
Y005354
Y005608
X00788917Y00561
Y005356
Y005102
X0087125
Y005356
Y00561
X0095175
Y005356
Y005102
T03
X0049Y00215
X005154
X0018
X001546
X0005275Y00208
Y002334
X00255Y0045
X002804
X0038335Y0064825
X0040875
X0043415
X0045955
X004996Y0056
X00525
X00615Y00515
X006404
X00493Y00745
X00343
T04
X00788417Y0023815
Y0026355
Y0028895
Y0031435
Y0033975
Y0036515
Y0039055
X00869833Y0039055
Y0036515
Y0033975
Y0031435
Y0028895
Y0026355
Y0023815
X0095125Y002385
Y002639
Y002893
Y003147
Y003401
Y003655
Y003909
X00707Y0039055
Y0036515
Y0033975
Y0031435
Y0028895
Y0026355
Y0023815
X0041775Y0029
Y003154
Y003408
Y003662
Y003916
Y00417
X0005325Y0041915
Y0039375
Y0036835
Y0034295
Y0031755
Y0029215
Y0026675
Y0044455
T05
X0007925Y0050535
Y0053075
X0013005
Y0050535
T06
X0013195Y000519
X0090185
X0013195Y007319
X0090185
M30
