G04*
G04 #@! TF.GenerationSoftware,Altium Limited,Altium Designer,23.0.1 (38)*
G04*
G04 Layer_Physical_Order=1*
G04 Layer_Color=255*
%FSLAX44Y44*%
%MOMM*%
G71*
G04*
G04 #@! TF.SameCoordinates,FF345AFA-0CE5-413A-8FAD-513570D1C1FC*
G04*
G04*
G04 #@! TF.FilePolarity,Positive*
G04*
G01*
G75*
%ADD10C,0.5000*%
%ADD12C,0.3000*%
%ADD13C,0.6000*%
%ADD67R,1.1500X1.1000*%
%ADD68O,2.5000X1.0000*%
%ADD69O,2.4000X1.0000*%
%ADD70R,1.1000X1.1500*%
%ADD71R,1.8000X3.4000*%
%ADD72R,1.0000X0.5800*%
%ADD73R,1.5000X0.4500*%
%ADD74R,0.6000X1.1000*%
%ADD75R,1.3500X1.8000*%
%ADD76R,2.7000X1.2500*%
%ADD77R,0.4000X0.5000*%
%ADD78R,1.8000X1.3500*%
%ADD79R,2.5000X5.1000*%
%ADD80R,2.1000X1.8000*%
%ADD81R,1.8000X2.1000*%
%ADD82R,0.6000X1.0000*%
%ADD83R,3.0000X3.0000*%
%ADD84R,0.4500X1.5000*%
%ADD85R,1.0500X0.6000*%
%ADD86R,1.5500X1.2000*%
%ADD87R,1.2000X0.8000*%
%ADD88C,0.2540*%
%ADD89C,0.4000*%
%ADD90C,1.0000*%
%ADD91C,0.7000*%
%ADD92C,1.8000*%
%ADD93C,0.3810*%
%ADD94R,2.0000X2.0000*%
%ADD95C,2.0000*%
%ADD96C,1.8000*%
%ADD97C,1.7780*%
%ADD98C,2.2000*%
%ADD99R,2.0000X2.0000*%
%ADD100C,6.0000*%
%ADD101C,0.7000*%
G36*
X258000Y645000D02*
X260000Y643000D01*
Y634000D01*
X265000Y629000D01*
X301000D01*
X304000Y626000D01*
Y611000D01*
X300000Y607000D01*
X280000D01*
X275000Y602000D01*
X275000Y589000D01*
X271000Y585000D01*
X232000D01*
X225250Y591750D01*
Y631250D01*
X240000Y646000D01*
X257000D01*
X258000Y645000D01*
D02*
G37*
G36*
X258250Y665750D02*
X258250Y654000D01*
X255250Y651000D01*
X239000D01*
X221000Y633000D01*
X221000Y590000D01*
X230500Y580500D01*
X270500D01*
X273000Y578000D01*
X276000Y575000D01*
Y552000D01*
X271000D01*
X271000Y559000D01*
X269000Y561000D01*
X224000D01*
X221000Y558000D01*
Y546000D01*
X201000Y526000D01*
X172500D01*
Y612750D01*
X228750Y669000D01*
X255000D01*
X258250Y665750D01*
D02*
G37*
G36*
X306000Y601000D02*
Y568000D01*
X315000Y559000D01*
Y548000D01*
X313000Y546000D01*
X301000D01*
X299000Y548000D01*
Y556000D01*
X295000Y560000D01*
X284000D01*
X283000Y559000D01*
Y552000D01*
X278000D01*
Y600000D01*
X281000Y603000D01*
X304000D01*
X306000Y601000D01*
D02*
G37*
G36*
X356000Y606000D02*
Y502000D01*
X293573Y439573D01*
X292400Y440059D01*
Y447500D01*
X282900D01*
Y438000D01*
X290341D01*
X290827Y436827D01*
X277649Y423649D01*
X276500Y423250D01*
Y423250D01*
X276500Y423250D01*
X271250D01*
Y415750D01*
X268750D01*
Y413250D01*
X261000D01*
Y409000D01*
X241000D01*
X228500Y396500D01*
X225000D01*
Y389000D01*
X222500D01*
Y386500D01*
X214750D01*
Y381500D01*
X217000D01*
Y318000D01*
X205000Y306000D01*
X203500D01*
Y308500D01*
X195750D01*
Y313500D01*
X203500D01*
Y318500D01*
X201159D01*
X200673Y319673D01*
X202000Y321000D01*
Y412000D01*
X241836Y451836D01*
X243000Y451204D01*
Y448420D01*
X243818Y445368D01*
X245398Y442632D01*
X247632Y440398D01*
X250368Y438818D01*
X252500Y438246D01*
Y450000D01*
X255000D01*
Y452500D01*
X266753D01*
X266182Y454632D01*
X264602Y457368D01*
X262368Y459602D01*
X259632Y461182D01*
X256580Y462000D01*
X253796D01*
X253164Y463164D01*
X264000Y474000D01*
Y477500D01*
X267000D01*
Y485250D01*
X272000D01*
Y477500D01*
X275000D01*
Y476000D01*
X278000Y473000D01*
X299000D01*
X338000Y512000D01*
Y602000D01*
X332500Y607500D01*
Y614750D01*
X323750D01*
Y619750D01*
X332500D01*
Y626000D01*
X336000D01*
X356000Y606000D01*
D02*
G37*
G36*
X588250Y656250D02*
X593250D01*
X593250Y656250D01*
Y656250D01*
X594293Y655707D01*
X598000Y652000D01*
Y611000D01*
X538173Y551173D01*
X537000Y551659D01*
Y557500D01*
X527500D01*
Y548000D01*
X533341D01*
X533827Y546827D01*
X524000Y537000D01*
Y518048D01*
X522750Y518000D01*
X522730Y518000D01*
X517500D01*
Y510500D01*
X515000D01*
Y508000D01*
X507250D01*
Y503416D01*
X507250Y503000D01*
X507500Y501834D01*
Y497000D01*
X515000D01*
Y492000D01*
X507500D01*
Y489000D01*
X504000D01*
X501173Y486173D01*
X500000Y486659D01*
Y487500D01*
X485500D01*
Y470500D01*
Y453500D01*
X498000D01*
Y442000D01*
X506000Y434000D01*
Y402500D01*
X500750D01*
Y395000D01*
X495750D01*
Y402500D01*
X490500D01*
Y402159D01*
X489327Y401673D01*
X486000Y405000D01*
Y411000D01*
X467000Y430000D01*
X399000D01*
X378520Y409520D01*
X377250Y410046D01*
Y413250D01*
X369500D01*
Y415750D01*
X367000D01*
Y423250D01*
X362046D01*
X361357Y424357D01*
X389000Y452000D01*
X439000Y452000D01*
X453000Y466000D01*
Y535000D01*
X548000Y630000D01*
X572000D01*
X581000Y639000D01*
Y656250D01*
X583250D01*
Y664000D01*
X588250D01*
Y656250D01*
D02*
G37*
G36*
X997000Y566000D02*
X997000Y481000D01*
X986000Y470000D01*
X970250Y470000D01*
Y472500D01*
X962500D01*
Y475000D01*
X960000D01*
Y482500D01*
X959159D01*
X958673Y483673D01*
X964000Y489000D01*
Y541000D01*
X955517Y549483D01*
X955846Y550709D01*
X955996Y550750D01*
X958504Y552198D01*
X960552Y554246D01*
X962000Y556754D01*
X962468Y558500D01*
X951750D01*
X941032D01*
X941500Y556754D01*
X942948Y554246D01*
X944924Y552270D01*
X944884Y551782D01*
X944675Y551000D01*
X940000Y551000D01*
X929000Y540000D01*
Y482000D01*
X917000Y470000D01*
X885750D01*
Y472500D01*
X878000D01*
Y475000D01*
X875500D01*
Y482500D01*
X873296D01*
X872770Y483770D01*
X884000Y495000D01*
Y540000D01*
X874623Y549377D01*
X874952Y550604D01*
X875496Y550750D01*
X878004Y552198D01*
X880052Y554246D01*
X881500Y556754D01*
X881968Y558500D01*
X871250D01*
X860532D01*
X861000Y556754D01*
X862448Y554246D01*
X864424Y552270D01*
X864385Y551782D01*
X864175Y551000D01*
X857000D01*
X852000Y546000D01*
Y480000D01*
X841000Y469000D01*
X806500D01*
Y472250D01*
X798750D01*
Y474750D01*
X796250D01*
Y482250D01*
X794909D01*
X794423Y483423D01*
X801000Y490000D01*
Y541000D01*
X792553Y549448D01*
X792881Y550674D01*
X793163Y550750D01*
X795671Y552198D01*
X797719Y554246D01*
X799167Y556754D01*
X799635Y558500D01*
X788917D01*
X778198D01*
X778666Y556754D01*
X780115Y554246D01*
X782090Y552270D01*
X782051Y551782D01*
X781842Y551000D01*
X775000D01*
X765000Y541000D01*
Y481000D01*
X754000Y470000D01*
X727000D01*
Y472750D01*
X719250D01*
Y475250D01*
X716750D01*
Y482750D01*
X715546D01*
X715020Y484020D01*
X719000Y488000D01*
X719000Y540000D01*
X709886Y549114D01*
X710215Y550340D01*
X710996Y550550D01*
X713504Y551998D01*
X715552Y554046D01*
X717000Y556554D01*
X717468Y558300D01*
X706750D01*
X696032D01*
X696500Y556554D01*
X697948Y554046D01*
X699724Y552270D01*
X699339Y551000D01*
X691000Y551000D01*
X656000Y516000D01*
X655000D01*
Y426000D01*
X634000Y405000D01*
X618000D01*
X610000Y413000D01*
Y442000D01*
X599000Y453000D01*
X574000D01*
X568000Y447000D01*
X560000D01*
X553000Y454000D01*
Y474000D01*
X663000Y584000D01*
X979000D01*
X997000Y566000D01*
D02*
G37*
G36*
X406000Y473000D02*
X423000D01*
Y468000D01*
X406000D01*
Y455500D01*
X392250D01*
X389750Y458000D01*
Y482250D01*
X393000Y485500D01*
X406000D01*
Y473000D01*
D02*
G37*
G36*
X566750Y430000D02*
X583750D01*
Y425000D01*
X566750D01*
Y412500D01*
X552250D01*
X550000Y414750D01*
Y432256D01*
X550117Y432346D01*
X560272Y442500D01*
X566750D01*
Y430000D01*
D02*
G37*
%LPC*%
G36*
X292400Y462000D02*
X282900D01*
Y452500D01*
X292400D01*
Y462000D01*
D02*
G37*
G36*
X277900D02*
X268400D01*
Y452500D01*
X277900D01*
Y462000D01*
D02*
G37*
G36*
X266754Y447500D02*
X257500D01*
Y438246D01*
X259632Y438818D01*
X262368Y440398D01*
X264602Y442632D01*
X266182Y445368D01*
X266754Y447500D01*
D02*
G37*
G36*
X277900D02*
X268400D01*
Y438000D01*
X277900D01*
Y447500D01*
D02*
G37*
G36*
X266250Y423250D02*
X261000D01*
Y418250D01*
X266250D01*
Y423250D01*
D02*
G37*
G36*
X220000Y396500D02*
X214750D01*
Y391500D01*
X220000D01*
Y396500D01*
D02*
G37*
G36*
X537000Y572000D02*
X527500D01*
Y562500D01*
X537000D01*
Y572000D01*
D02*
G37*
G36*
X502100Y571754D02*
Y562500D01*
X511353D01*
X510782Y564632D01*
X509202Y567368D01*
X506968Y569602D01*
X504232Y571182D01*
X502100Y571754D01*
D02*
G37*
G36*
X497100Y571753D02*
X494968Y571182D01*
X492232Y569602D01*
X489998Y567368D01*
X488418Y564632D01*
X487846Y562500D01*
X497100D01*
Y571753D01*
D02*
G37*
G36*
X522500Y572000D02*
X513000D01*
Y562500D01*
X522500D01*
Y572000D01*
D02*
G37*
G36*
X497100Y557500D02*
X487846D01*
X488418Y555368D01*
X489998Y552632D01*
X492232Y550398D01*
X494968Y548818D01*
X497100Y548247D01*
Y557500D01*
D02*
G37*
G36*
X511353D02*
X502100D01*
Y548246D01*
X504232Y548818D01*
X506968Y550398D01*
X509202Y552632D01*
X510782Y555368D01*
X511353Y557500D01*
D02*
G37*
G36*
X522500D02*
X513000D01*
Y548000D01*
X522500D01*
Y557500D01*
D02*
G37*
G36*
X512500Y518000D02*
X507250D01*
Y513000D01*
X512500D01*
Y518000D01*
D02*
G37*
G36*
X480500Y487500D02*
X466000D01*
Y473000D01*
X480500D01*
Y487500D01*
D02*
G37*
G36*
Y468000D02*
X466000D01*
Y453500D01*
X480500D01*
Y468000D01*
D02*
G37*
G36*
X377250Y423250D02*
X372000D01*
Y418250D01*
X377250D01*
Y423250D01*
D02*
G37*
G36*
X954250Y571718D02*
Y563500D01*
X962468D01*
X962000Y565246D01*
X960552Y567754D01*
X958504Y569802D01*
X955996Y571250D01*
X954250Y571718D01*
D02*
G37*
G36*
X791417D02*
Y563500D01*
X799635D01*
X799167Y565246D01*
X797719Y567754D01*
X795671Y569802D01*
X793163Y571250D01*
X791417Y571718D01*
D02*
G37*
G36*
X949250Y571718D02*
X947504Y571250D01*
X944996Y569802D01*
X942948Y567754D01*
X941500Y565246D01*
X941032Y563500D01*
X949250D01*
Y571718D01*
D02*
G37*
G36*
X786417D02*
X784671Y571250D01*
X782162Y569802D01*
X780115Y567754D01*
X778666Y565246D01*
X778198Y563500D01*
X786417D01*
Y571718D01*
D02*
G37*
G36*
X873750Y571718D02*
Y563500D01*
X881968D01*
X881500Y565246D01*
X880052Y567754D01*
X878004Y569802D01*
X875496Y571250D01*
X873750Y571718D01*
D02*
G37*
G36*
X868750Y571718D02*
X867004Y571250D01*
X864496Y569802D01*
X862448Y567754D01*
X861000Y565246D01*
X860532Y563500D01*
X868750D01*
Y571718D01*
D02*
G37*
G36*
X709250Y571518D02*
Y563300D01*
X717468D01*
X717000Y565046D01*
X715552Y567554D01*
X713504Y569602D01*
X710996Y571050D01*
X709250Y571518D01*
D02*
G37*
G36*
X704250Y571518D02*
X702504Y571050D01*
X699996Y569602D01*
X697948Y567554D01*
X696500Y565046D01*
X696032Y563300D01*
X704250D01*
Y571518D01*
D02*
G37*
G36*
X652400Y527000D02*
X642900D01*
Y517500D01*
X652400D01*
Y527000D01*
D02*
G37*
G36*
X617500Y526754D02*
Y517500D01*
X626753D01*
X626182Y519632D01*
X624602Y522368D01*
X622368Y524602D01*
X619632Y526182D01*
X617500Y526754D01*
D02*
G37*
G36*
X612500Y526754D02*
X610368Y526182D01*
X607632Y524602D01*
X605398Y522368D01*
X603818Y519632D01*
X603246Y517500D01*
X612500D01*
Y526754D01*
D02*
G37*
G36*
X637900Y527000D02*
X628400D01*
Y517500D01*
X637900D01*
Y527000D01*
D02*
G37*
G36*
X612500Y512500D02*
X603246D01*
X603818Y510368D01*
X605398Y507632D01*
X607632Y505398D01*
X610368Y503818D01*
X612500Y503247D01*
Y512500D01*
D02*
G37*
G36*
X626754D02*
X617500D01*
Y503246D01*
X619632Y503818D01*
X622368Y505398D01*
X624602Y507632D01*
X626182Y510368D01*
X626754Y512500D01*
D02*
G37*
G36*
X652400D02*
X642900D01*
Y503000D01*
X652400D01*
Y512500D01*
D02*
G37*
G36*
X637900D02*
X628400D01*
Y503000D01*
X637900D01*
Y512500D01*
D02*
G37*
G36*
X727000Y482750D02*
X721750D01*
Y477750D01*
X727000D01*
Y482750D01*
D02*
G37*
G36*
X970250Y482500D02*
X965000D01*
Y477500D01*
X970250D01*
Y482500D01*
D02*
G37*
G36*
X885750D02*
X880500D01*
Y477500D01*
X885750D01*
Y482500D01*
D02*
G37*
G36*
X806500Y482250D02*
X801250D01*
Y477250D01*
X806500D01*
Y482250D01*
D02*
G37*
%LPD*%
D10*
X298250Y485250D02*
X298500Y485500D01*
X285500Y485250D02*
X298250D01*
X549000Y394250D02*
X549250Y394500D01*
X536250Y394250D02*
X549000D01*
X574500Y393250D02*
X587500D01*
X587750Y393500D01*
X497250Y264250D02*
X497500Y264500D01*
Y279500D01*
X551750Y279500D02*
X565250D01*
X565250Y279500D01*
X574000Y321750D02*
X574250Y321500D01*
X574000Y321750D02*
Y335750D01*
X624750Y321500D02*
Y335250D01*
X624250Y335750D02*
X624750Y335250D01*
X658250Y339750D02*
Y353209D01*
X657750Y353709D02*
X658250Y353209D01*
X657750Y353709D02*
Y354250D01*
Y298291D02*
X658250Y298791D01*
Y312250D01*
X657750Y297750D02*
Y298291D01*
X351500Y415750D02*
Y429500D01*
X351750Y429750D01*
X390959Y381250D02*
X391500D01*
X369500Y380250D02*
X389959D01*
X390959Y381250D01*
X371185Y293065D02*
X371500Y292750D01*
X371185Y293065D02*
Y302365D01*
X369500Y304050D02*
X371185Y302365D01*
X491750Y678000D02*
X491750Y678000D01*
Y660750D02*
Y678000D01*
Y642750D02*
X525000D01*
X567250Y660750D02*
X582750D01*
X549071Y642250D02*
X552000Y645179D01*
X541250Y660250D02*
X549071D01*
X552000Y657321D01*
Y645179D02*
Y657321D01*
X541250Y642250D02*
X549071D01*
X540750Y660750D02*
X541250Y660250D01*
X540750Y641750D02*
X541250Y642250D01*
X526000Y641750D02*
X540750D01*
X525000Y642750D02*
X526000Y641750D01*
X704555Y316795D02*
X707000Y314350D01*
X697205Y316795D02*
X704555D01*
X652215Y321250D02*
X692750D01*
X649250Y312750D02*
Y318286D01*
X692750Y321250D02*
X697205Y316795D01*
X649250Y318286D02*
X652215Y321250D01*
X648750Y312250D02*
X649250Y312750D01*
D12*
X515750Y295500D02*
Y302500D01*
X520818Y307568D02*
Y316818D01*
X521250Y317250D01*
X515750Y302500D02*
X520818Y307568D01*
X533500Y295500D02*
Y300000D01*
X527750Y305750D02*
Y317250D01*
Y305750D02*
X533500Y300000D01*
X534250Y363250D02*
Y375250D01*
Y363250D02*
X542000Y355500D01*
X558250D01*
X540750Y374250D02*
X541500Y373500D01*
X558250D01*
X540750Y374250D02*
Y375250D01*
X461500Y313500D02*
Y324250D01*
X461000Y324750D02*
X461500Y324250D01*
X492750Y342000D02*
X501750Y351000D01*
Y375250D01*
X417750Y315400D02*
X441400D01*
X450750Y324750D02*
X461000D01*
X441400Y315400D02*
X450750Y324750D01*
X369500Y329450D02*
X403700D01*
X417750Y315400D01*
D13*
X951750Y510200D02*
Y535600D01*
X942000Y400305D02*
Y423000D01*
Y400305D02*
X951250Y391055D01*
Y390900D02*
Y391055D01*
X942000Y423000D02*
Y444500D01*
X937250Y449250D02*
X942000Y444500D01*
X937250Y449250D02*
X938500D01*
X944500Y455250D02*
Y475000D01*
X938500Y449250D02*
X944500Y455250D01*
Y475000D02*
Y500685D01*
X951750Y507935D02*
Y510200D01*
X944500Y500685D02*
X951750Y507935D01*
X858000Y402383D02*
X869833Y390550D01*
X858000Y402383D02*
Y423000D01*
X860000Y475000D02*
Y488000D01*
Y455250D02*
Y475000D01*
X858000Y423000D02*
Y445000D01*
X853750Y449250D02*
X858000Y445000D01*
X860000Y488000D02*
X869997Y497997D01*
X853750Y449250D02*
X854000D01*
X860000Y455250D01*
X869997Y508947D02*
X871250Y510200D01*
X869997Y497997D02*
Y508947D01*
X871250Y510200D02*
Y535600D01*
X779000Y399967D02*
Y423000D01*
Y399967D02*
X788417Y390550D01*
X779000Y423000D02*
Y443250D01*
X773500Y448750D02*
X779000Y443250D01*
X774750Y448750D02*
X780750Y454750D01*
X773500Y448750D02*
X774750D01*
X780750Y454750D02*
Y474750D01*
X781000Y475000D01*
Y489000D01*
X788830Y496830D01*
Y510114D02*
X788917Y510200D01*
X788830Y496830D02*
Y510114D01*
X788917Y510200D02*
Y535600D01*
X698000Y399955D02*
X707000Y390955D01*
X698000Y399955D02*
Y422000D01*
X707000Y390550D02*
Y390955D01*
X692250Y450000D02*
X698000Y444250D01*
Y422000D02*
Y444250D01*
X692761Y450000D02*
X698761Y456000D01*
X692250Y450000D02*
X692761D01*
X698761Y456000D02*
Y472761D01*
X701250Y475250D01*
X706750Y510000D02*
Y535400D01*
Y495750D02*
Y510000D01*
X701000Y475500D02*
X701250Y475250D01*
X701000Y475500D02*
Y490000D01*
X706750Y495750D01*
X667750Y339750D02*
Y359500D01*
X652000Y375250D02*
X667750Y359500D01*
X624500Y375250D02*
X652000D01*
X653386Y330250D02*
X697500D01*
X707000Y339750D01*
X648750D02*
Y348250D01*
Y334886D02*
Y339750D01*
X667750D02*
X676250D01*
X697675Y361175D01*
X703812Y365150D02*
X707000D01*
X699837Y361175D02*
X703812Y365150D01*
X697675Y361175D02*
X699837D01*
X648750Y334886D02*
X653386Y330250D01*
X677000Y312250D02*
X698046Y291204D01*
X667750Y312250D02*
X677000D01*
X698046Y291204D02*
X704746D01*
X707000Y288950D01*
X560000Y353750D02*
X590000D01*
X558250Y355500D02*
X560000Y353750D01*
X515750Y263500D02*
Y295250D01*
X515500Y295500D02*
X515750Y295250D01*
X533500Y263500D02*
Y295500D01*
X630000Y245500D02*
X667750Y283250D01*
X515750Y245500D02*
X630000D01*
X667750Y283250D02*
Y312250D01*
X551500Y263500D02*
X617000D01*
X648750Y295250D01*
Y312250D01*
X608485Y353265D02*
X643735D01*
X608000Y353750D02*
X608485Y353265D01*
X643735D02*
X648750Y348250D01*
X624500Y375250D02*
X624500Y375250D01*
X608500Y375250D02*
X608500Y375250D01*
X624500D01*
X558250Y373500D02*
X588750D01*
X590500Y375250D01*
D67*
X960000Y423000D02*
D03*
X942000D02*
D03*
X876000D02*
D03*
X858000D02*
D03*
X797000D02*
D03*
X779000D02*
D03*
X716000Y422000D02*
D03*
X698000D02*
D03*
X248500Y281250D02*
D03*
X266500D02*
D03*
X515000Y460500D02*
D03*
X533000D02*
D03*
X363000Y281000D02*
D03*
X381000D02*
D03*
X222500Y389000D02*
D03*
X240500D02*
D03*
X878000Y475000D02*
D03*
X860000D02*
D03*
X533750Y279500D02*
D03*
X551750D02*
D03*
X551500Y263500D02*
D03*
X533500D02*
D03*
X286750Y415750D02*
D03*
X268750D02*
D03*
X369500Y415750D02*
D03*
X351500D02*
D03*
X195750Y311000D02*
D03*
X177750D02*
D03*
X250750Y535750D02*
D03*
X232750D02*
D03*
Y552000D02*
D03*
X250750D02*
D03*
Y519500D02*
D03*
X232750D02*
D03*
Y503500D02*
D03*
X250750D02*
D03*
X962500Y475000D02*
D03*
X944500D02*
D03*
X798750Y474750D02*
D03*
X780750D02*
D03*
X719250Y475250D02*
D03*
X701250D02*
D03*
X515000Y510500D02*
D03*
X533000D02*
D03*
X518250Y394250D02*
D03*
X536250D02*
D03*
X497500Y279500D02*
D03*
X515500D02*
D03*
X515500Y295500D02*
D03*
X533500D02*
D03*
X498250Y395000D02*
D03*
X480250D02*
D03*
X608500Y375250D02*
D03*
X590500D02*
D03*
X608000Y353750D02*
D03*
X590000D02*
D03*
D68*
X369500Y329450D02*
D03*
Y342150D02*
D03*
Y304050D02*
D03*
Y316750D02*
D03*
Y380250D02*
D03*
Y392950D02*
D03*
Y354850D02*
D03*
Y367550D02*
D03*
D69*
X268500Y304050D02*
D03*
Y316750D02*
D03*
Y329450D02*
D03*
Y342150D02*
D03*
Y354850D02*
D03*
Y367550D02*
D03*
Y380250D02*
D03*
Y392950D02*
D03*
D70*
X269500Y485250D02*
D03*
Y503250D02*
D03*
X285500Y485250D02*
D03*
Y503250D02*
D03*
X306500Y535000D02*
D03*
Y553000D02*
D03*
X515000Y494500D02*
D03*
Y476500D02*
D03*
X624500Y375250D02*
D03*
Y393250D02*
D03*
X624250Y353750D02*
D03*
Y335750D02*
D03*
X120000Y441000D02*
D03*
Y423000D02*
D03*
X137500Y371500D02*
D03*
Y389500D02*
D03*
X515750Y245500D02*
D03*
Y263500D02*
D03*
X118750Y338750D02*
D03*
Y320750D02*
D03*
X574500Y393250D02*
D03*
Y375250D02*
D03*
X558250Y373500D02*
D03*
Y355500D02*
D03*
X574000Y353750D02*
D03*
Y335750D02*
D03*
X585750Y664000D02*
D03*
Y682000D02*
D03*
X491750Y660750D02*
D03*
Y642750D02*
D03*
X525000Y642000D02*
D03*
Y660000D02*
D03*
D71*
X321750Y583250D02*
D03*
X288750D02*
D03*
D72*
X100500Y349600D02*
D03*
Y338400D02*
D03*
X119250Y257400D02*
D03*
Y268600D02*
D03*
Y296850D02*
D03*
Y285650D02*
D03*
X100250Y309900D02*
D03*
Y321100D02*
D03*
X119250Y361150D02*
D03*
Y372350D02*
D03*
Y400850D02*
D03*
Y389650D02*
D03*
X100500Y411900D02*
D03*
Y423100D02*
D03*
Y451600D02*
D03*
Y440400D02*
D03*
D73*
X179750Y374500D02*
D03*
Y368000D02*
D03*
Y361500D02*
D03*
Y355000D02*
D03*
Y348500D02*
D03*
Y342000D02*
D03*
Y335500D02*
D03*
Y329000D02*
D03*
X237750Y374500D02*
D03*
Y368000D02*
D03*
Y361500D02*
D03*
Y355000D02*
D03*
Y348500D02*
D03*
Y342000D02*
D03*
Y335500D02*
D03*
Y329000D02*
D03*
D74*
X195000Y294250D02*
D03*
X185500D02*
D03*
X176000D02*
D03*
X195000Y268250D02*
D03*
X176000D02*
D03*
D75*
X292750Y617250D02*
D03*
X323750D02*
D03*
X429750Y623250D02*
D03*
X460750D02*
D03*
D76*
X277000Y541000D02*
D03*
D77*
X267250Y555000D02*
D03*
X273750D02*
D03*
X280250D02*
D03*
X286750D02*
D03*
X267250Y527000D02*
D03*
X273750D02*
D03*
X280250D02*
D03*
X286750D02*
D03*
D78*
X264500Y600750D02*
D03*
Y569750D02*
D03*
D79*
X275750Y662500D02*
D03*
X321750D02*
D03*
D80*
X973250Y449250D02*
D03*
X937250D02*
D03*
X889750Y449250D02*
D03*
X853750D02*
D03*
X809500Y448750D02*
D03*
X773500D02*
D03*
X728250Y450000D02*
D03*
X692250D02*
D03*
D81*
X181500Y536250D02*
D03*
Y500250D02*
D03*
D82*
X667750Y312250D02*
D03*
X658250Y312250D02*
D03*
X648750D02*
D03*
Y339750D02*
D03*
X658250D02*
D03*
X667750D02*
D03*
X461000Y352250D02*
D03*
X470500Y352250D02*
D03*
X480000D02*
D03*
Y324750D02*
D03*
X470500D02*
D03*
X461000D02*
D03*
D83*
X523750Y427500D02*
D03*
X583750D02*
D03*
X483000Y470500D02*
D03*
X423000D02*
D03*
D84*
X495250Y317250D02*
D03*
X501750D02*
D03*
X508250D02*
D03*
X514750D02*
D03*
X521250D02*
D03*
X527750D02*
D03*
X534250D02*
D03*
X540750D02*
D03*
X495250Y375250D02*
D03*
X501750D02*
D03*
X508250D02*
D03*
X514750D02*
D03*
X521250D02*
D03*
X527750D02*
D03*
X534250D02*
D03*
X540750D02*
D03*
D85*
X540750Y660750D02*
D03*
Y651250D02*
D03*
Y641750D02*
D03*
X567250D02*
D03*
Y660750D02*
D03*
D86*
X347000Y664500D02*
D03*
Y643500D02*
D03*
X250500Y638750D02*
D03*
Y659750D02*
D03*
D87*
X491750Y678000D02*
D03*
Y697000D02*
D03*
D88*
X102238Y338400D02*
X103868Y336770D01*
X111758Y327750D02*
X114278Y325230D01*
X103868Y322730D02*
Y326262D01*
X105356Y327750D02*
X111758D01*
X103868Y326262D02*
X105356Y327750D01*
X103868Y334278D02*
X105356Y332790D01*
X112798D01*
X114278Y334270D01*
X103868Y334278D02*
Y336770D01*
X114278Y334270D02*
X114520D01*
X118750Y338500D01*
Y338750D01*
X98400Y338400D02*
X102238D01*
X114278Y325230D02*
X114520D01*
X98814Y321100D02*
X102238D01*
X118750Y320750D02*
Y321000D01*
X102238Y321100D02*
X103868Y322730D01*
X114520Y325230D02*
X118750Y321000D01*
X114815Y279645D02*
X116303Y281133D01*
X63430Y276930D02*
X70605D01*
X116303Y281133D02*
Y284020D01*
X117933Y285650D01*
X72930Y274605D02*
X114815D01*
X70605Y276930D02*
X72930Y274605D01*
X116303Y270230D02*
Y273117D01*
X63430Y281970D02*
X72693D01*
X75018Y279645D02*
X114815D01*
X72693Y281970D02*
X75018Y279645D01*
X117933Y285650D02*
X119250D01*
X114815Y274605D02*
X116303Y273117D01*
X119250Y285650D02*
X120567D01*
X124230Y436008D02*
Y436770D01*
X125718Y429480D02*
X128270D01*
X131850Y418961D02*
X163460Y387351D01*
X131850Y418961D02*
Y425900D01*
X136890Y421049D02*
X168500Y389439D01*
X130358Y434520D02*
X136890Y427988D01*
X120000Y441000D02*
X124230Y436770D01*
X136890Y421049D02*
Y427988D01*
X125718Y434520D02*
X130358D01*
X128270Y429480D02*
X131850Y425900D01*
X124230Y427992D02*
X125718Y429480D01*
X124230Y427230D02*
Y427992D01*
X120000Y423000D02*
X124230Y427230D01*
Y436008D02*
X125718Y434520D01*
X113250Y429750D02*
X115520Y427480D01*
X102212Y440400D02*
X103842Y438770D01*
X115770Y427480D02*
X120000Y423250D01*
X115520Y427480D02*
X115770D01*
X113790Y434790D02*
X115520Y436520D01*
X103842Y436278D02*
Y438770D01*
X120000Y423000D02*
Y423250D01*
X103842Y436278D02*
X105330Y434790D01*
X99308Y440400D02*
X102212D01*
X105330Y434790D02*
X113790D01*
X115770Y436520D02*
X120000Y440750D01*
X99308Y423100D02*
X101692D01*
X103322Y424730D02*
Y428262D01*
X104810Y429750D02*
X113250D01*
X120000Y440750D02*
Y441000D01*
X115520Y436520D02*
X115770D01*
X103322Y428262D02*
X104810Y429750D01*
X204000Y268250D02*
X227500Y291750D01*
Y304000D02*
X252950Y329450D01*
X227500Y291750D02*
Y304000D01*
X252950Y329450D02*
X268500D01*
X195000Y268250D02*
X204000D01*
X195750Y295000D02*
Y311000D01*
X195000Y294250D02*
X195750Y295000D01*
X238200Y367550D02*
X268500D01*
X237750Y368000D02*
X238200Y367550D01*
X254150Y354850D02*
X268500D01*
X238730Y360520D02*
X248480D01*
X254150Y354850D01*
X237750Y361500D02*
X238730Y360520D01*
X237750Y342000D02*
X237900Y342150D01*
X268500D01*
X117933Y268600D02*
X119250D01*
X116303Y270230D02*
X117933Y268600D01*
X53250Y266750D02*
X63430Y276930D01*
X53250Y292150D02*
X63430Y281970D01*
X122197Y281133D02*
X123685Y279645D01*
X160122D01*
X120567Y285650D02*
X122197Y284020D01*
X164247Y283770D02*
X174512D01*
X160122Y279645D02*
X164247Y283770D01*
X174512D02*
X176000Y285258D01*
X166335Y278730D02*
X174512D01*
X162210Y274605D02*
X166335Y278730D01*
X123685Y274605D02*
X162210D01*
X176000Y268250D02*
Y277242D01*
X174512Y278730D02*
X176000Y277242D01*
X122197Y270230D02*
Y273117D01*
X123685Y274605D01*
X120567Y268600D02*
X122197Y270230D01*
X122197Y281133D02*
Y284020D01*
X119250Y268600D02*
X120567D01*
X176000Y285258D02*
Y294250D01*
X151780Y366342D02*
X162392Y355730D01*
X179020D01*
X151780Y366342D02*
Y372387D01*
X156820Y368430D02*
Y374475D01*
X164480Y360770D02*
X179020D01*
X156820Y368430D02*
X164480Y360770D01*
X148275Y383020D02*
X156820Y374475D01*
X146187Y377980D02*
X151780Y372387D01*
X179020Y360770D02*
X179750Y361500D01*
X169392Y368980D02*
X178770D01*
X163460Y374912D02*
X169392Y368980D01*
X178770D02*
X179750Y368000D01*
X168500Y377000D02*
X170718Y374782D01*
X179468D01*
X179750Y374500D01*
X168500Y377000D02*
Y389439D01*
X163460Y374912D02*
Y387351D01*
X153020Y347770D02*
X179020D01*
X124468Y332270D02*
X137520D01*
X153020Y347770D01*
X155108Y342730D02*
X179020D01*
X124468Y327230D02*
X139608D01*
X155108Y342730D01*
X97184Y322730D02*
X98814Y321100D01*
X95696Y327730D02*
X97184Y326242D01*
X63430Y327730D02*
X95696D01*
X97184Y322730D02*
Y326242D01*
X53250Y317550D02*
X63430Y327730D01*
X96770Y336770D02*
X98400Y338400D01*
X96770Y334310D02*
Y336770D01*
X95282Y332822D02*
X96770Y334310D01*
X83428Y332822D02*
X95282D01*
X83377Y332770D02*
X83428Y332822D01*
X53250Y342950D02*
X63430Y332770D01*
X83377D01*
X122980Y333758D02*
Y334520D01*
Y333758D02*
X124468Y332270D01*
X179020Y347770D02*
X179750Y348500D01*
X122980Y325742D02*
X124468Y327230D01*
X179020Y342730D02*
X179750Y342000D01*
X118750Y338750D02*
X122980Y334520D01*
Y324980D02*
Y325742D01*
X118750Y320750D02*
X122980Y324980D01*
X141730Y384508D02*
X143218Y383020D01*
X137500Y389500D02*
X141730Y385270D01*
Y384508D02*
Y385270D01*
X143218Y383020D02*
X148275D01*
X143218Y377980D02*
X146187D01*
X141730Y376492D02*
X143218Y377980D01*
X141730Y375730D02*
Y376492D01*
X137500Y371500D02*
X141730Y375730D01*
X137500Y371500D02*
Y371750D01*
X123560Y383520D02*
X131520D01*
X133020Y385020D02*
X133270D01*
X137500Y389250D02*
Y389500D01*
X131520Y383520D02*
X133020Y385020D01*
X133270D02*
X137500Y389250D01*
X122072Y385008D02*
Y388020D01*
X120442Y389650D02*
X122072Y388020D01*
Y385008D02*
X123560Y383520D01*
X119250Y389650D02*
X120442D01*
X116428Y388020D02*
X118058Y389650D01*
X119250D01*
X116428Y385008D02*
Y388020D01*
X114940Y383520D02*
X116428Y385008D01*
X75018Y383520D02*
X114940D01*
X63430Y383570D02*
X74968D01*
X53250Y393750D02*
X63430Y383570D01*
X74968D02*
X75018Y383520D01*
X133020Y375980D02*
X133270D01*
X130520Y378480D02*
X133020Y375980D01*
X123560Y378480D02*
X130520D01*
X122072Y376992D02*
X123560Y378480D01*
X122072Y373980D02*
Y376992D01*
X133270Y375980D02*
X137500Y371750D01*
X120442Y372350D02*
X122072Y373980D01*
X116428D02*
Y376992D01*
X114940Y378480D02*
X116428Y376992D01*
Y373980D02*
X118058Y372350D01*
X72880Y378530D02*
X72930Y378480D01*
X63430Y378530D02*
X72880D01*
X72930Y378480D02*
X114940D01*
X118058Y372350D02*
X119250D01*
X120442D01*
X53250Y368350D02*
X63430Y378530D01*
X179020Y355730D02*
X179750Y355000D01*
X97678Y438770D02*
X99308Y440400D01*
X97678Y435758D02*
Y438770D01*
X96190Y434270D02*
X97678Y435758D01*
X75018Y434270D02*
X96190D01*
X63430Y434370D02*
X74918D01*
X53250Y444550D02*
X63430Y434370D01*
X74918D02*
X75018Y434270D01*
X97678Y424730D02*
Y427742D01*
X96190Y429230D02*
X97678Y427742D01*
Y424730D02*
X99308Y423100D01*
X72830Y429330D02*
X72930Y429230D01*
X63430Y429330D02*
X72830D01*
X72930Y429230D02*
X96190D01*
X101692Y423100D02*
X103322Y424730D01*
X53250Y419150D02*
X63430Y429330D01*
D89*
X960000Y423000D02*
X977000D01*
X977000Y423000D01*
X891000Y423000D02*
X891000Y423000D01*
X876000Y423000D02*
X891000D01*
X797000D02*
X797000Y423000D01*
X814000D01*
X716000Y422000D02*
X730000D01*
X730000Y422000D01*
X270500Y504250D02*
Y513500D01*
X273750Y516750D02*
Y527000D01*
X270500Y513500D02*
X273750Y516750D01*
X100375Y451725D02*
Y459563D01*
X101000Y460188D01*
Y461000D01*
X100375Y451725D02*
X100500Y451600D01*
X120000Y410188D02*
Y411000D01*
X119375Y400975D02*
Y409563D01*
X120000Y410188D01*
X119250Y400850D02*
X119375Y400975D01*
X119125Y352125D02*
Y361025D01*
X119000Y352000D02*
X119125Y352125D01*
Y361025D02*
X119250Y361150D01*
X100278Y349822D02*
X100500Y349600D01*
X100278Y357466D02*
X101000Y358188D01*
X100278Y349822D02*
Y357466D01*
X101000Y358188D02*
Y359000D01*
X119625Y306625D02*
X120000Y307000D01*
X119625Y297225D02*
Y306625D01*
X119250Y296850D02*
X119625Y297225D01*
X100125Y301937D02*
Y309000D01*
X99000Y300812D02*
X100125Y301937D01*
X100250Y309125D02*
Y309900D01*
X100125Y309000D02*
X100250Y309125D01*
X99000Y300000D02*
Y300812D01*
X277000Y541000D02*
X282500D01*
X286750Y545250D02*
Y555000D01*
X282500Y541000D02*
X286750Y545250D01*
X277000Y541000D02*
X277101D01*
X533000Y496500D02*
X533250Y496250D01*
X533000Y496500D02*
Y510500D01*
X532750Y474000D02*
X533000Y473750D01*
Y460500D02*
Y473750D01*
X585000Y694938D02*
Y695750D01*
X585750Y682000D02*
Y694188D01*
X585000Y694938D02*
X585750Y694188D01*
X511500Y651250D02*
X540750D01*
X511000Y651750D02*
X511500Y651250D01*
X524000Y674438D02*
X525000Y673438D01*
Y660500D02*
Y673438D01*
X524000Y674438D02*
Y675250D01*
X491750Y697000D02*
Y710000D01*
X491250Y710500D02*
X491750Y710000D01*
X429750Y606250D02*
Y623250D01*
X429250Y605750D02*
X429750Y606250D01*
X991250Y449250D02*
X991500Y449500D01*
X973250Y449250D02*
X991250D01*
X889750Y449250D02*
X908500D01*
X829000Y448750D02*
X829250Y448500D01*
X809500Y448750D02*
X829000D01*
X747250Y450000D02*
X747500Y450250D01*
X728250Y450000D02*
X747250D01*
X470500Y314812D02*
X471250Y314062D01*
Y313250D02*
Y314062D01*
X470500Y314812D02*
Y324750D01*
X480250Y383812D02*
Y395000D01*
X479250Y382812D02*
X480250Y383812D01*
X479250Y382000D02*
Y382812D01*
X463250Y365250D02*
X469500Y359000D01*
Y353250D02*
X470500Y352250D01*
X469500Y353250D02*
Y359000D01*
X521000Y359250D02*
X521250Y359500D01*
Y375250D01*
X222500Y348000D02*
X223000Y348500D01*
X237750D01*
X286750Y403500D02*
Y415750D01*
Y403500D02*
X287250Y403000D01*
X251750Y380250D02*
X268500D01*
X251500Y380500D02*
X251750Y380250D01*
X246500Y400688D02*
Y401500D01*
X243578Y392079D02*
Y397767D01*
X246500Y400688D01*
X240500Y389000D02*
X243578Y392079D01*
X268728Y293272D02*
X268750Y293250D01*
X268500Y304050D02*
X268728Y303822D01*
Y293272D02*
Y303822D01*
X100000Y400750D02*
X100500Y401250D01*
Y411900D01*
X119250Y248750D02*
Y257400D01*
X185500Y280750D02*
Y294250D01*
X185250Y280500D02*
X185500Y280750D01*
X164500Y311000D02*
X177750D01*
X302750Y531250D02*
X303000D01*
X306500Y534750D02*
Y535000D01*
X286750Y527000D02*
X298500D01*
X302750Y531250D01*
X303000D02*
X306500Y534750D01*
X280250Y518000D02*
X285500Y512750D01*
Y503250D02*
Y512750D01*
X280250Y518000D02*
Y527000D01*
X251000Y503250D02*
X269500D01*
X250750Y503500D02*
X251000Y503250D01*
X269500D02*
X270500Y504250D01*
X254250Y523000D02*
X257500D01*
X250750Y519500D02*
X254250Y523000D01*
X261500Y527000D02*
X267250D01*
X257500Y523000D02*
X261500Y527000D01*
X253750Y555000D02*
X267250D01*
X250750Y552000D02*
X253750Y555000D01*
X236500Y548250D02*
Y548500D01*
Y548250D02*
X245500Y539250D01*
X247250D01*
X250750Y535750D01*
X232750Y552000D02*
X233000D01*
X236500Y548500D01*
X222500Y360000D02*
Y379000D01*
X227250Y355250D02*
X237500D01*
X222500Y360000D02*
X227250Y355250D01*
X237500D02*
X237750Y355000D01*
X222500Y379000D02*
X227000Y374500D01*
X222500Y379000D02*
Y389000D01*
X227000Y374500D02*
X237750D01*
X499250Y394000D02*
X505907D01*
X508250Y375250D02*
Y391657D01*
X505907Y394000D02*
X508250Y391657D01*
X498250Y395000D02*
X499250Y394000D01*
X514750Y390750D02*
X518250Y394250D01*
X514750Y375250D02*
Y390750D01*
D90*
X369750Y415750D02*
X370250Y416250D01*
Y423250D02*
X388000Y441000D01*
X370250Y416250D02*
Y423250D01*
X369500Y415750D02*
X369750D01*
X388000Y441000D02*
X442000D01*
X269000Y416000D02*
Y439000D01*
Y484750D01*
Y439000D02*
X343000Y513000D01*
Y604000D01*
X333750Y613250D02*
X343000Y604000D01*
X323750Y615000D02*
Y617250D01*
Y615000D02*
X325500Y613250D01*
X333750D01*
X177900Y505350D02*
X180750Y502500D01*
X545482Y436982D02*
X563875Y455375D01*
X533232Y436982D02*
X545482D01*
X523750Y427500D02*
X533232Y436982D01*
X515000Y436250D02*
X523750Y427500D01*
X624500Y393250D02*
Y412000D01*
X208000Y317358D02*
Y382642D01*
X195750Y311000D02*
X196250Y311500D01*
X202142D01*
X208000Y317358D01*
X213858Y388500D02*
X222000D01*
X208000Y382642D02*
X213858Y388500D01*
X222000D02*
X222500Y389000D01*
X322929Y584429D02*
Y616429D01*
X321750Y583250D02*
X322929Y584429D01*
Y616429D02*
X323750Y617250D01*
X459550Y624450D02*
Y648250D01*
Y624450D02*
X460750Y623250D01*
X515000Y494500D02*
Y555000D01*
X585750Y625750D01*
X442000Y441000D02*
X461643Y460643D01*
X473143D01*
X483000Y470500D01*
Y466358D02*
Y470500D01*
Y432500D02*
Y466358D01*
X269000Y484750D02*
X269500Y485250D01*
X268750Y392950D02*
Y415750D01*
X269000Y416000D01*
X240250Y415750D02*
X268750D01*
X223250Y398750D02*
X240250Y415750D01*
X223250Y389500D02*
Y398750D01*
X222500Y389000D02*
X222750D01*
X223250Y389500D01*
X268750Y392950D02*
X279063D01*
X268500D02*
X268750D01*
X362500Y281500D02*
X363000Y281000D01*
X352750Y281500D02*
X362500D01*
X346250Y288000D02*
Y384500D01*
Y288000D02*
X352750Y281500D01*
X346250Y384500D02*
X354700Y392950D01*
X369500D01*
X280250Y281250D02*
X288750Y289750D01*
X266500Y281250D02*
X280250D01*
X288750Y289750D02*
Y383264D01*
X279063Y392950D02*
X288750Y383264D01*
X381000Y281000D02*
X381500Y281500D01*
X393500Y287358D02*
Y310892D01*
X381500Y281500D02*
X387642D01*
X393500Y287358D01*
X369500Y316750D02*
X387642D01*
X393500Y310892D01*
X248500D02*
X254358Y316750D01*
X268500D01*
X248500Y281250D02*
Y310892D01*
X369500Y392950D02*
Y415750D01*
X369500Y415750D02*
X369500Y415750D01*
X518250Y422000D02*
X523750Y427500D01*
X518250Y394250D02*
Y422000D01*
X515000Y436250D02*
Y460500D01*
X495000Y494500D02*
X515000D01*
X515000Y460500D02*
X515000Y460500D01*
Y476500D01*
X483000Y432500D02*
X498250Y417250D01*
Y395000D02*
Y417250D01*
X483000Y470500D02*
X489500Y477000D01*
Y489000D01*
X495000Y494500D01*
X585750Y625750D02*
Y664000D01*
X516000Y623000D02*
X525000Y632000D01*
Y642750D01*
X462500Y623000D02*
X516000D01*
X462340Y623160D02*
X462500Y623000D01*
X349321Y630858D02*
X355179Y625000D01*
X349321Y630858D02*
Y642500D01*
X355179Y625000D02*
X401000D01*
X348321Y643500D02*
X349321Y642500D01*
X329250Y643500D02*
X348321D01*
X401000Y625000D02*
X408750Y632750D01*
Y648250D01*
X250500Y659750D02*
X273000D01*
X275750Y662500D01*
X321750Y651000D02*
Y662500D01*
Y651000D02*
X329250Y643500D01*
X79250Y530750D02*
X177500D01*
X180750Y534000D01*
Y534500D01*
X130050Y505350D02*
X177900D01*
X79250D02*
X130050D01*
X869833Y314700D02*
X951250D01*
X788417D02*
X869833D01*
X707350D02*
X788417D01*
X707350Y365500D02*
X951250D01*
X707000Y365150D02*
X707350Y365500D01*
X788417Y339750D02*
X950900D01*
X707000D02*
X788417D01*
X950900D02*
X951250Y340100D01*
X707000Y314350D02*
X707350Y314700D01*
Y289300D02*
X951250D01*
X707000Y288950D02*
X707350Y289300D01*
D91*
X347000Y664500D02*
Y683000D01*
X347000Y683000D02*
X347000Y683000D01*
X232700Y535700D02*
X232750Y535750D01*
X220700Y535700D02*
X232700D01*
X219250Y534250D02*
X220700Y535700D01*
X218250Y519000D02*
X232250D01*
X232750Y519500D01*
X232500Y488000D02*
Y503250D01*
X232750Y503500D01*
X181500Y480000D02*
Y500250D01*
D92*
X563875Y455375D02*
X570875Y462375D01*
X601625D01*
X624500Y439500D01*
Y412000D02*
Y439500D01*
D93*
X476500Y335250D02*
X479269Y332481D01*
Y325481D02*
X480000Y324750D01*
X479269Y325481D02*
Y332481D01*
X426967Y335250D02*
X476500D01*
X421417Y340800D02*
X426967Y335250D01*
X417750Y340800D02*
X421417D01*
X461000Y352250D02*
X462095Y351155D01*
X464327Y342750D02*
X481250D01*
X462095Y344982D02*
X464327Y342750D01*
X481250D02*
X495250Y328750D01*
X462095Y344982D02*
Y351155D01*
X495250Y317250D02*
Y328750D01*
X508250Y306250D02*
Y317250D01*
X505000Y303000D02*
X508250Y306250D01*
X485750Y303000D02*
X505000D01*
X480000Y308750D02*
Y324750D01*
Y308750D02*
X485750Y303000D01*
X453500Y352250D02*
X461000D01*
X439550Y366200D02*
X453500Y352250D01*
X417750Y366200D02*
X439550D01*
X495250Y363000D02*
Y375250D01*
X486481Y354231D02*
X495250Y363000D01*
X481095Y354231D02*
X486481D01*
X480000Y352250D02*
Y353136D01*
X481095Y354231D01*
X417750Y391600D02*
X433164D01*
X448150Y391600D02*
X479519Y360231D01*
X433164Y391600D02*
X433164Y391600D01*
X448150D01*
X479519Y352731D02*
Y360231D01*
X416400Y342150D02*
X417750Y340800D01*
X369500Y342150D02*
X416400D01*
X369500Y354850D02*
X406400D01*
X417750Y366200D01*
X369500Y367550D02*
X393700D01*
X417750Y391600D01*
D94*
X640400Y515000D02*
D03*
X525000Y560000D02*
D03*
X280400Y450000D02*
D03*
X515400Y215000D02*
D03*
X180000D02*
D03*
D95*
X615000Y515000D02*
D03*
X499600Y560000D02*
D03*
X255000Y450000D02*
D03*
X490000Y215000D02*
D03*
X154600D02*
D03*
X52750Y208000D02*
D03*
D96*
X706750Y560800D02*
D03*
Y535400D02*
D03*
Y510000D02*
D03*
X383350Y648250D02*
D03*
X408750D02*
D03*
X434150D02*
D03*
X459550D02*
D03*
X871250Y510200D02*
D03*
Y535600D02*
D03*
Y561000D02*
D03*
X951750Y510200D02*
D03*
Y535600D02*
D03*
Y561000D02*
D03*
X788917Y510200D02*
D03*
Y535600D02*
D03*
Y561000D02*
D03*
X493000Y745000D02*
D03*
X343000D02*
D03*
D97*
X951250Y238500D02*
D03*
Y365500D02*
D03*
Y390900D02*
D03*
Y340100D02*
D03*
Y314700D02*
D03*
Y289300D02*
D03*
Y263900D02*
D03*
X53250Y317550D02*
D03*
Y342950D02*
D03*
Y368350D02*
D03*
Y393750D02*
D03*
Y444550D02*
D03*
Y419150D02*
D03*
Y292150D02*
D03*
Y266750D02*
D03*
X869833Y238150D02*
D03*
Y365150D02*
D03*
Y390550D02*
D03*
Y339750D02*
D03*
Y314350D02*
D03*
Y288950D02*
D03*
Y263550D02*
D03*
X788417Y238150D02*
D03*
Y365150D02*
D03*
Y390550D02*
D03*
Y339750D02*
D03*
Y314350D02*
D03*
Y288950D02*
D03*
Y263550D02*
D03*
X707000Y238150D02*
D03*
Y365150D02*
D03*
Y390550D02*
D03*
Y339750D02*
D03*
Y314350D02*
D03*
Y288950D02*
D03*
Y263550D02*
D03*
X417750Y391600D02*
D03*
Y417000D02*
D03*
Y366200D02*
D03*
Y340800D02*
D03*
Y315400D02*
D03*
Y290000D02*
D03*
D98*
X79250Y505350D02*
D03*
X130050D02*
D03*
X79250Y530750D02*
D03*
X130050D02*
D03*
D99*
X52750Y233400D02*
D03*
D100*
X131950Y51900D02*
D03*
X901850D02*
D03*
Y731900D02*
D03*
X131950D02*
D03*
D101*
X977000Y423000D02*
D03*
X891000D02*
D03*
X814000D02*
D03*
X730000Y422000D02*
D03*
X101000Y461000D02*
D03*
X120000Y411000D02*
D03*
X119000Y352000D02*
D03*
X101000Y359000D02*
D03*
X120000Y307000D02*
D03*
X99000Y300000D02*
D03*
X246000Y572000D02*
D03*
X347000Y683000D02*
D03*
X239750Y632500D02*
D03*
Y588750D02*
D03*
X248500D02*
D03*
X239750Y597500D02*
D03*
X231000D02*
D03*
X248500D02*
D03*
X239750Y606250D02*
D03*
X231000D02*
D03*
X248500D02*
D03*
X274750Y623750D02*
D03*
Y615000D02*
D03*
X266000Y623750D02*
D03*
Y615000D02*
D03*
X257250Y623750D02*
D03*
Y615000D02*
D03*
X248500Y623750D02*
D03*
Y615000D02*
D03*
X231000D02*
D03*
X239750D02*
D03*
Y623750D02*
D03*
X231000D02*
D03*
X298500Y485500D02*
D03*
X267500Y541000D02*
D03*
X286750D02*
D03*
X277000D02*
D03*
X219250Y534250D02*
D03*
X218250Y519000D02*
D03*
X232500Y488000D02*
D03*
X181500Y480000D02*
D03*
X533250Y496250D02*
D03*
X532750Y474000D02*
D03*
X585000Y695750D02*
D03*
X511000Y651750D02*
D03*
X524000Y675250D02*
D03*
X491250Y710500D02*
D03*
X429250Y605750D02*
D03*
X991500Y449500D02*
D03*
X908500Y449250D02*
D03*
X829250Y448500D02*
D03*
X747500Y450250D02*
D03*
X471250Y313250D02*
D03*
X479250Y382000D02*
D03*
X463250Y365250D02*
D03*
X521000Y359250D02*
D03*
X549250Y394500D02*
D03*
X554250Y429750D02*
D03*
X563000D02*
D03*
Y421000D02*
D03*
X554250D02*
D03*
X587750Y393500D02*
D03*
X497250Y264250D02*
D03*
X565250Y279500D02*
D03*
X574250Y321500D02*
D03*
X624750D02*
D03*
X657750Y354250D02*
D03*
Y297750D02*
D03*
X393250Y479250D02*
D03*
Y470500D02*
D03*
Y461750D02*
D03*
X402000D02*
D03*
Y470500D02*
D03*
Y479250D02*
D03*
X351750Y429750D02*
D03*
X391500Y381250D02*
D03*
X371500Y292750D02*
D03*
X222500Y348000D02*
D03*
X287250Y403000D02*
D03*
X251500Y380500D02*
D03*
X246500Y401500D02*
D03*
X268750Y293250D02*
D03*
X100000Y400750D02*
D03*
X119250Y248750D02*
D03*
X185250Y280500D02*
D03*
X164500Y311000D02*
D03*
X492750Y342000D02*
D03*
X461500Y313500D02*
D03*
M02*
