G04*
G04 #@! TF.GenerationSoftware,Altium Limited,Altium Designer,23.0.1 (38)*
G04*
G04 Layer_Physical_Order=3*
G04 Layer_Color=16440176*
%FSLAX44Y44*%
%MOMM*%
G71*
G04*
G04 #@! TF.SameCoordinates,FF345AFA-0CE5-413A-8FAD-513570D1C1FC*
G04*
G04*
G04 #@! TF.FilePolarity,Positive*
G04*
G01*
G75*
%ADD94R,2.0000X2.0000*%
%ADD95C,2.0000*%
%ADD96C,1.8000*%
%ADD97C,1.7780*%
%ADD98C,2.2000*%
%ADD99R,2.0000X2.0000*%
%ADD100C,6.0000*%
%ADD101C,0.7000*%
G36*
X415000Y705000D02*
Y658036D01*
X413900Y657401D01*
X412803Y658034D01*
X410132Y658750D01*
X407368D01*
X404697Y658034D01*
X402303Y656652D01*
X400348Y654697D01*
X398966Y652303D01*
X398250Y649632D01*
Y646868D01*
X398966Y644197D01*
X400348Y641803D01*
X402303Y639848D01*
X404697Y638466D01*
X407368Y637750D01*
X410132D01*
X412803Y638466D01*
X413900Y639099D01*
X415000Y638464D01*
Y562000D01*
X293170Y440170D01*
X291900Y440410D01*
Y461500D01*
X268900D01*
Y438500D01*
X291730D01*
X291900Y438500D01*
X293000Y438089D01*
Y249000D01*
X244000Y200000D01*
X62656D01*
X62144Y201270D01*
X63466Y203561D01*
X64250Y206486D01*
Y209514D01*
X63466Y212439D01*
X61952Y215061D01*
X59811Y217202D01*
X57189Y218716D01*
X54264Y219500D01*
X51236D01*
X48311Y218716D01*
X45689Y217202D01*
X43548Y215061D01*
X42034Y212439D01*
X41250Y209514D01*
Y206486D01*
X42034Y203561D01*
X43356Y201270D01*
X42844Y200000D01*
X30303D01*
X15000Y215303D01*
X15000Y575000D01*
X35000Y595000D01*
X75000D01*
X90000Y610000D01*
Y755000D01*
X105000Y770000D01*
X350000D01*
X415000Y705000D01*
D02*
G37*
G36*
X945000Y760000D02*
Y620000D01*
X965000Y600000D01*
X1005000D01*
X1025000Y580000D01*
Y220000D01*
X1005000Y200000D01*
X390000D01*
X342000Y248000D01*
Y437000D01*
X425000Y520000D01*
Y640048D01*
X426270Y640574D01*
X427396Y639448D01*
X429904Y638000D01*
X431650Y637532D01*
Y648250D01*
Y658968D01*
X429904Y658500D01*
X427396Y657052D01*
X426270Y655926D01*
X425000Y656452D01*
Y705000D01*
X490000Y770000D01*
X935000D01*
X945000Y760000D01*
D02*
G37*
%LPC*%
G36*
X345500Y755718D02*
Y747500D01*
X353718D01*
X353250Y749246D01*
X351802Y751754D01*
X349754Y753802D01*
X347246Y755250D01*
X345500Y755718D01*
D02*
G37*
G36*
X340500D02*
X338754Y755250D01*
X336246Y753802D01*
X334198Y751754D01*
X332750Y749246D01*
X332282Y747500D01*
X340500D01*
Y755718D01*
D02*
G37*
G36*
X353718Y742500D02*
X345500D01*
Y734282D01*
X347246Y734750D01*
X349754Y736198D01*
X351802Y738246D01*
X353250Y740754D01*
X353718Y742500D01*
D02*
G37*
G36*
X340500D02*
X332282D01*
X332750Y740754D01*
X334198Y738246D01*
X336246Y736198D01*
X338754Y734750D01*
X340500Y734282D01*
Y742500D01*
D02*
G37*
G36*
X134429Y763400D02*
X129471D01*
X124574Y762624D01*
X119858Y761092D01*
X115440Y758841D01*
X111429Y755927D01*
X107923Y752421D01*
X105009Y748410D01*
X102758Y743992D01*
X101226Y739276D01*
X100450Y734379D01*
Y729421D01*
X101226Y724524D01*
X102758Y719808D01*
X105009Y715390D01*
X107923Y711379D01*
X111429Y707873D01*
X115440Y704959D01*
X119858Y702708D01*
X124574Y701176D01*
X129471Y700400D01*
X134429D01*
X139326Y701176D01*
X144042Y702708D01*
X148460Y704959D01*
X152471Y707873D01*
X155977Y711379D01*
X158891Y715390D01*
X161142Y719808D01*
X162674Y724524D01*
X163450Y729421D01*
Y734379D01*
X162674Y739276D01*
X161142Y743992D01*
X158891Y748410D01*
X155977Y752421D01*
X152471Y755927D01*
X148460Y758841D01*
X144042Y761092D01*
X139326Y762624D01*
X134429Y763400D01*
D02*
G37*
G36*
X385850Y658968D02*
Y650750D01*
X394068D01*
X393600Y652496D01*
X392152Y655004D01*
X390104Y657052D01*
X387596Y658500D01*
X385850Y658968D01*
D02*
G37*
G36*
X380850D02*
X379104Y658500D01*
X376596Y657052D01*
X374548Y655004D01*
X373100Y652496D01*
X372632Y650750D01*
X380850D01*
Y658968D01*
D02*
G37*
G36*
X394068Y645750D02*
X385850D01*
Y637532D01*
X387596Y638000D01*
X390104Y639448D01*
X392152Y641496D01*
X393600Y644004D01*
X394068Y645750D01*
D02*
G37*
G36*
X380850D02*
X372632D01*
X373100Y644004D01*
X374548Y641496D01*
X376596Y639448D01*
X379104Y638000D01*
X380850Y637532D01*
Y645750D01*
D02*
G37*
G36*
X246995Y577000D02*
X245005D01*
X243168Y576239D01*
X241761Y574832D01*
X241000Y572995D01*
Y571005D01*
X241761Y569168D01*
X243168Y567761D01*
X245005Y567000D01*
X246995D01*
X248832Y567761D01*
X250239Y569168D01*
X251000Y571005D01*
Y572995D01*
X250239Y574832D01*
X248832Y576239D01*
X246995Y577000D01*
D02*
G37*
G36*
X131696Y543250D02*
X128404D01*
X125225Y542398D01*
X122375Y540752D01*
X120048Y538425D01*
X118402Y535575D01*
X117550Y532396D01*
Y529104D01*
X118402Y525925D01*
X120048Y523075D01*
X122375Y520747D01*
X125225Y519102D01*
X125815Y518944D01*
Y517674D01*
X125032Y517464D01*
X122068Y515753D01*
X119647Y513332D01*
X117936Y510368D01*
X117261Y507850D01*
X130050D01*
X142839D01*
X142164Y510368D01*
X140453Y513332D01*
X138032Y515753D01*
X135068Y517464D01*
X134285Y517674D01*
Y518944D01*
X134875Y519102D01*
X137725Y520747D01*
X140052Y523075D01*
X141698Y525925D01*
X142550Y529104D01*
Y532396D01*
X141698Y535575D01*
X140052Y538425D01*
X137725Y540752D01*
X134875Y542398D01*
X131696Y543250D01*
D02*
G37*
G36*
X80896D02*
X77604D01*
X74425Y542398D01*
X71575Y540752D01*
X69247Y538425D01*
X67602Y535575D01*
X66750Y532396D01*
Y529104D01*
X67602Y525925D01*
X69247Y523075D01*
X71575Y520747D01*
X74425Y519102D01*
X75015Y518944D01*
Y517674D01*
X74232Y517464D01*
X71268Y515753D01*
X68847Y513332D01*
X67136Y510368D01*
X66461Y507850D01*
X79250D01*
X92039D01*
X91364Y510368D01*
X89653Y513332D01*
X87232Y515753D01*
X84268Y517464D01*
X83485Y517674D01*
Y518944D01*
X84075Y519102D01*
X86925Y520747D01*
X89253Y523075D01*
X90898Y525925D01*
X91750Y529104D01*
Y532396D01*
X90898Y535575D01*
X89253Y538425D01*
X86925Y540752D01*
X84075Y542398D01*
X80896Y543250D01*
D02*
G37*
G36*
X127550Y502850D02*
X117261D01*
X117936Y500332D01*
X119647Y497368D01*
X122068Y494947D01*
X125032Y493236D01*
X127550Y492561D01*
Y502850D01*
D02*
G37*
G36*
X76750D02*
X66461D01*
X67136Y500332D01*
X68847Y497368D01*
X71268Y494947D01*
X74232Y493236D01*
X76750Y492561D01*
Y502850D01*
D02*
G37*
G36*
X142839D02*
X132550D01*
Y492561D01*
X135068Y493236D01*
X138032Y494947D01*
X140453Y497368D01*
X142164Y500332D01*
X142839Y502850D01*
D02*
G37*
G36*
X92039D02*
X81750D01*
Y492561D01*
X84268Y493236D01*
X87232Y494947D01*
X89653Y497368D01*
X91364Y500332D01*
X92039Y502850D01*
D02*
G37*
G36*
X299495Y490500D02*
X297505D01*
X295668Y489739D01*
X294261Y488332D01*
X293500Y486495D01*
Y484505D01*
X294261Y482668D01*
X295668Y481261D01*
X297505Y480500D01*
X299495D01*
X301332Y481261D01*
X302739Y482668D01*
X303500Y484505D01*
Y486495D01*
X302739Y488332D01*
X301332Y489739D01*
X299495Y490500D01*
D02*
G37*
G36*
X256514Y461500D02*
X253486D01*
X250561Y460716D01*
X247939Y459202D01*
X245798Y457061D01*
X244284Y454439D01*
X243500Y451514D01*
Y448486D01*
X244284Y445561D01*
X245798Y442939D01*
X247939Y440798D01*
X250561Y439284D01*
X253486Y438500D01*
X256514D01*
X259439Y439284D01*
X262061Y440798D01*
X264202Y442939D01*
X265716Y445561D01*
X266500Y448486D01*
Y451514D01*
X265716Y454439D01*
X264202Y457061D01*
X262061Y459202D01*
X259439Y460716D01*
X256514Y461500D01*
D02*
G37*
G36*
X54618Y454940D02*
X51882D01*
X49240Y454232D01*
X46870Y452864D01*
X44936Y450930D01*
X43568Y448560D01*
X42860Y445918D01*
Y443182D01*
X43568Y440540D01*
X44936Y438170D01*
X46870Y436236D01*
X49240Y434868D01*
X51882Y434160D01*
X54618D01*
X57260Y434868D01*
X59630Y436236D01*
X61564Y438170D01*
X62932Y440540D01*
X63640Y443182D01*
Y445918D01*
X62932Y448560D01*
X61564Y450930D01*
X59630Y452864D01*
X57260Y454232D01*
X54618Y454940D01*
D02*
G37*
G36*
Y429540D02*
X51882D01*
X49240Y428832D01*
X46870Y427464D01*
X44936Y425530D01*
X43568Y423160D01*
X42860Y420518D01*
Y417782D01*
X43568Y415140D01*
X44936Y412770D01*
X46870Y410836D01*
X49240Y409468D01*
X51882Y408760D01*
X54618D01*
X57260Y409468D01*
X59630Y410836D01*
X61564Y412770D01*
X62932Y415140D01*
X63640Y417782D01*
Y420518D01*
X62932Y423160D01*
X61564Y425530D01*
X59630Y427464D01*
X57260Y428832D01*
X54618Y429540D01*
D02*
G37*
G36*
Y404140D02*
X51882D01*
X49240Y403432D01*
X46870Y402064D01*
X44936Y400130D01*
X43568Y397760D01*
X42860Y395118D01*
Y392382D01*
X43568Y389740D01*
X44936Y387370D01*
X46870Y385436D01*
X49240Y384068D01*
X51882Y383360D01*
X54618D01*
X57260Y384068D01*
X59630Y385436D01*
X61564Y387370D01*
X62932Y389740D01*
X63640Y392382D01*
Y395118D01*
X62932Y397760D01*
X61564Y400130D01*
X59630Y402064D01*
X57260Y403432D01*
X54618Y404140D01*
D02*
G37*
G36*
Y378740D02*
X51882D01*
X49240Y378032D01*
X46870Y376664D01*
X44936Y374730D01*
X43568Y372360D01*
X42860Y369718D01*
Y366982D01*
X43568Y364340D01*
X44936Y361970D01*
X46870Y360036D01*
X49240Y358668D01*
X51882Y357960D01*
X54618D01*
X57260Y358668D01*
X59630Y360036D01*
X61564Y361970D01*
X62932Y364340D01*
X63640Y366982D01*
Y369718D01*
X62932Y372360D01*
X61564Y374730D01*
X59630Y376664D01*
X57260Y378032D01*
X54618Y378740D01*
D02*
G37*
G36*
Y353340D02*
X51882D01*
X49240Y352632D01*
X46870Y351264D01*
X44936Y349330D01*
X43568Y346960D01*
X42860Y344318D01*
Y341582D01*
X43568Y338940D01*
X44936Y336570D01*
X46870Y334636D01*
X49240Y333268D01*
X51882Y332560D01*
X54618D01*
X57260Y333268D01*
X59630Y334636D01*
X61564Y336570D01*
X62932Y338940D01*
X63640Y341582D01*
Y344318D01*
X62932Y346960D01*
X61564Y349330D01*
X59630Y351264D01*
X57260Y352632D01*
X54618Y353340D01*
D02*
G37*
G36*
Y327940D02*
X51882D01*
X49240Y327232D01*
X46870Y325864D01*
X44936Y323930D01*
X43568Y321560D01*
X42860Y318918D01*
Y316182D01*
X43568Y313540D01*
X44936Y311170D01*
X46870Y309236D01*
X49240Y307868D01*
X51882Y307160D01*
X54618D01*
X57260Y307868D01*
X59630Y309236D01*
X61564Y311170D01*
X62932Y313540D01*
X63640Y316182D01*
Y318918D01*
X62932Y321560D01*
X61564Y323930D01*
X59630Y325864D01*
X57260Y327232D01*
X54618Y327940D01*
D02*
G37*
G36*
Y302540D02*
X51882D01*
X49240Y301832D01*
X46870Y300464D01*
X44936Y298530D01*
X43568Y296160D01*
X42860Y293518D01*
Y290782D01*
X43568Y288140D01*
X44936Y285770D01*
X46870Y283836D01*
X49240Y282468D01*
X51882Y281760D01*
X54618D01*
X57260Y282468D01*
X59630Y283836D01*
X61564Y285770D01*
X62932Y288140D01*
X63640Y290782D01*
Y293518D01*
X62932Y296160D01*
X61564Y298530D01*
X59630Y300464D01*
X57260Y301832D01*
X54618Y302540D01*
D02*
G37*
G36*
Y277140D02*
X51882D01*
X49240Y276432D01*
X46870Y275064D01*
X44936Y273130D01*
X43568Y270760D01*
X42860Y268118D01*
Y265382D01*
X43568Y262740D01*
X44936Y260370D01*
X46870Y258436D01*
X49240Y257068D01*
X51882Y256360D01*
X54618D01*
X57260Y257068D01*
X59630Y258436D01*
X61564Y260370D01*
X62932Y262740D01*
X63640Y265382D01*
Y268118D01*
X62932Y270760D01*
X61564Y273130D01*
X59630Y275064D01*
X57260Y276432D01*
X54618Y277140D01*
D02*
G37*
G36*
X64250Y244900D02*
X41250D01*
Y221900D01*
X64250D01*
Y244900D01*
D02*
G37*
G36*
X157100Y226754D02*
Y217500D01*
X166353D01*
X165782Y219632D01*
X164202Y222368D01*
X161968Y224602D01*
X159232Y226182D01*
X157100Y226754D01*
D02*
G37*
G36*
X192000Y227000D02*
X182500D01*
Y217500D01*
X192000D01*
Y227000D01*
D02*
G37*
G36*
X152100Y226753D02*
X149968Y226182D01*
X147232Y224602D01*
X144998Y222368D01*
X143418Y219632D01*
X142847Y217500D01*
X152100D01*
Y226753D01*
D02*
G37*
G36*
X177500Y227000D02*
X168000D01*
Y217500D01*
X177500D01*
Y227000D01*
D02*
G37*
G36*
X152100Y212500D02*
X142846D01*
X143418Y210368D01*
X144998Y207632D01*
X147232Y205398D01*
X149968Y203818D01*
X152100Y203247D01*
Y212500D01*
D02*
G37*
G36*
X166353D02*
X157100D01*
Y203246D01*
X159232Y203818D01*
X161968Y205398D01*
X164202Y207632D01*
X165782Y210368D01*
X166353Y212500D01*
D02*
G37*
G36*
X192000D02*
X182500D01*
Y203000D01*
X192000D01*
Y212500D01*
D02*
G37*
G36*
X177500D02*
X168000D01*
Y203000D01*
X177500D01*
Y212500D01*
D02*
G37*
G36*
X495500Y755718D02*
Y747500D01*
X503718D01*
X503250Y749246D01*
X501802Y751754D01*
X499754Y753802D01*
X497246Y755250D01*
X495500Y755718D01*
D02*
G37*
G36*
X490500D02*
X488754Y755250D01*
X486246Y753802D01*
X484198Y751754D01*
X482750Y749246D01*
X482282Y747500D01*
X490500D01*
Y755718D01*
D02*
G37*
G36*
X503718Y742500D02*
X495500D01*
Y734282D01*
X497246Y734750D01*
X499754Y736198D01*
X501802Y738246D01*
X503250Y740754D01*
X503718Y742500D01*
D02*
G37*
G36*
X490500D02*
X482282D01*
X482750Y740754D01*
X484198Y738246D01*
X486246Y736198D01*
X488754Y734750D01*
X490500Y734282D01*
Y742500D01*
D02*
G37*
G36*
X904329Y763400D02*
X899371D01*
X894474Y762624D01*
X889758Y761092D01*
X885340Y758841D01*
X881329Y755927D01*
X877823Y752421D01*
X874909Y748410D01*
X872658Y743992D01*
X871126Y739276D01*
X870350Y734379D01*
Y729421D01*
X871126Y724524D01*
X872658Y719808D01*
X874909Y715390D01*
X877823Y711379D01*
X881329Y707873D01*
X885340Y704959D01*
X889758Y702708D01*
X894474Y701176D01*
X899371Y700400D01*
X904329D01*
X909226Y701176D01*
X913942Y702708D01*
X918360Y704959D01*
X922371Y707873D01*
X925877Y711379D01*
X928791Y715390D01*
X931042Y719808D01*
X932574Y724524D01*
X933350Y729421D01*
Y734379D01*
X932574Y739276D01*
X931042Y743992D01*
X928791Y748410D01*
X925877Y752421D01*
X922371Y755927D01*
X918360Y758841D01*
X913942Y761092D01*
X909226Y762624D01*
X904329Y763400D01*
D02*
G37*
G36*
X436650Y658968D02*
Y650750D01*
X444868D01*
X444400Y652496D01*
X442952Y655004D01*
X440904Y657052D01*
X438396Y658500D01*
X436650Y658968D01*
D02*
G37*
G36*
X460932Y658750D02*
X458168D01*
X455497Y658034D01*
X453103Y656652D01*
X451148Y654697D01*
X449766Y652303D01*
X449050Y649632D01*
Y646868D01*
X449766Y644197D01*
X451148Y641803D01*
X453103Y639848D01*
X455497Y638466D01*
X458168Y637750D01*
X460932D01*
X463603Y638466D01*
X465997Y639848D01*
X467952Y641803D01*
X469334Y644197D01*
X470050Y646868D01*
Y649632D01*
X469334Y652303D01*
X467952Y654697D01*
X465997Y656652D01*
X463603Y658034D01*
X460932Y658750D01*
D02*
G37*
G36*
X444868Y645750D02*
X436650D01*
Y637532D01*
X438396Y638000D01*
X440904Y639448D01*
X442952Y641496D01*
X444400Y644004D01*
X444868Y645750D01*
D02*
G37*
G36*
X953132Y571500D02*
X950368D01*
X947697Y570784D01*
X945303Y569402D01*
X943348Y567447D01*
X941966Y565053D01*
X941250Y562382D01*
Y559618D01*
X941966Y556947D01*
X943348Y554553D01*
X945303Y552598D01*
X947697Y551216D01*
X950368Y550500D01*
X953132D01*
X955803Y551216D01*
X958197Y552598D01*
X960152Y554553D01*
X961534Y556947D01*
X962250Y559618D01*
Y562382D01*
X961534Y565053D01*
X960152Y567447D01*
X958197Y569402D01*
X955803Y570784D01*
X953132Y571500D01*
D02*
G37*
G36*
X872632D02*
X869868D01*
X867197Y570784D01*
X864803Y569402D01*
X862848Y567447D01*
X861466Y565053D01*
X860750Y562382D01*
Y559618D01*
X861466Y556947D01*
X862848Y554553D01*
X864803Y552598D01*
X867197Y551216D01*
X869868Y550500D01*
X872632D01*
X875303Y551216D01*
X877697Y552598D01*
X879652Y554553D01*
X881034Y556947D01*
X881750Y559618D01*
Y562382D01*
X881034Y565053D01*
X879652Y567447D01*
X877697Y569402D01*
X875303Y570784D01*
X872632Y571500D01*
D02*
G37*
G36*
X790299D02*
X787534D01*
X784864Y570784D01*
X782470Y569402D01*
X780515Y567447D01*
X779132Y565053D01*
X778417Y562382D01*
Y559618D01*
X779132Y556947D01*
X780515Y554553D01*
X782470Y552598D01*
X784864Y551216D01*
X787534Y550500D01*
X790299D01*
X792970Y551216D01*
X795364Y552598D01*
X797319Y554553D01*
X798701Y556947D01*
X799417Y559618D01*
Y562382D01*
X798701Y565053D01*
X797319Y567447D01*
X795364Y569402D01*
X792970Y570784D01*
X790299Y571500D01*
D02*
G37*
G36*
X708132Y571300D02*
X705368D01*
X702697Y570584D01*
X700303Y569202D01*
X698348Y567247D01*
X696966Y564853D01*
X696250Y562182D01*
Y559418D01*
X696966Y556747D01*
X698348Y554353D01*
X700303Y552398D01*
X702697Y551016D01*
X705368Y550300D01*
X708132D01*
X710803Y551016D01*
X713197Y552398D01*
X715152Y554353D01*
X716534Y556747D01*
X717250Y559418D01*
Y562182D01*
X716534Y564853D01*
X715152Y567247D01*
X713197Y569202D01*
X710803Y570584D01*
X708132Y571300D01*
D02*
G37*
G36*
X536500Y571500D02*
X513500D01*
Y548500D01*
X536500D01*
Y571500D01*
D02*
G37*
G36*
X501114D02*
X498086D01*
X495161Y570716D01*
X492539Y569202D01*
X490398Y567061D01*
X488884Y564439D01*
X488100Y561514D01*
Y558486D01*
X488884Y555561D01*
X490398Y552939D01*
X492539Y550798D01*
X495161Y549284D01*
X498086Y548500D01*
X501114D01*
X504039Y549284D01*
X506661Y550798D01*
X508802Y552939D01*
X510316Y555561D01*
X511100Y558486D01*
Y561514D01*
X510316Y564439D01*
X508802Y567061D01*
X506661Y569202D01*
X504039Y570716D01*
X501114Y571500D01*
D02*
G37*
G36*
X953132Y546100D02*
X950368D01*
X947697Y545384D01*
X945303Y544002D01*
X943348Y542047D01*
X941966Y539653D01*
X941250Y536982D01*
Y534218D01*
X941966Y531547D01*
X943348Y529153D01*
X945303Y527198D01*
X947697Y525816D01*
X950368Y525100D01*
X953132D01*
X955803Y525816D01*
X958197Y527198D01*
X960152Y529153D01*
X961534Y531547D01*
X962250Y534218D01*
Y536982D01*
X961534Y539653D01*
X960152Y542047D01*
X958197Y544002D01*
X955803Y545384D01*
X953132Y546100D01*
D02*
G37*
G36*
X872632D02*
X869868D01*
X867197Y545384D01*
X864803Y544002D01*
X862848Y542047D01*
X861466Y539653D01*
X860750Y536982D01*
Y534218D01*
X861466Y531547D01*
X862848Y529153D01*
X864803Y527198D01*
X867197Y525816D01*
X869868Y525100D01*
X872632D01*
X875303Y525816D01*
X877697Y527198D01*
X879652Y529153D01*
X881034Y531547D01*
X881750Y534218D01*
Y536982D01*
X881034Y539653D01*
X879652Y542047D01*
X877697Y544002D01*
X875303Y545384D01*
X872632Y546100D01*
D02*
G37*
G36*
X790299D02*
X787534D01*
X784864Y545384D01*
X782470Y544002D01*
X780515Y542047D01*
X779132Y539653D01*
X778417Y536982D01*
Y534218D01*
X779132Y531547D01*
X780515Y529153D01*
X782470Y527198D01*
X784864Y525816D01*
X787534Y525100D01*
X790299D01*
X792970Y525816D01*
X795364Y527198D01*
X797319Y529153D01*
X798701Y531547D01*
X799417Y534218D01*
Y536982D01*
X798701Y539653D01*
X797319Y542047D01*
X795364Y544002D01*
X792970Y545384D01*
X790299Y546100D01*
D02*
G37*
G36*
X708132Y545900D02*
X705368D01*
X702697Y545184D01*
X700303Y543802D01*
X698348Y541847D01*
X696966Y539453D01*
X696250Y536782D01*
Y534018D01*
X696966Y531347D01*
X698348Y528953D01*
X700303Y526998D01*
X702697Y525616D01*
X705368Y524900D01*
X708132D01*
X710803Y525616D01*
X713197Y526998D01*
X715152Y528953D01*
X716534Y531347D01*
X717250Y534018D01*
Y536782D01*
X716534Y539453D01*
X715152Y541847D01*
X713197Y543802D01*
X710803Y545184D01*
X708132Y545900D01*
D02*
G37*
G36*
X651900Y526500D02*
X628900D01*
Y503500D01*
X651900D01*
Y526500D01*
D02*
G37*
G36*
X616514D02*
X613486D01*
X610561Y525716D01*
X607939Y524202D01*
X605798Y522061D01*
X604284Y519439D01*
X603500Y516514D01*
Y513486D01*
X604284Y510561D01*
X605798Y507939D01*
X607939Y505798D01*
X610561Y504284D01*
X613486Y503500D01*
X616514D01*
X619439Y504284D01*
X622061Y505798D01*
X624202Y507939D01*
X625716Y510561D01*
X626500Y513486D01*
Y516514D01*
X625716Y519439D01*
X624202Y522061D01*
X622061Y524202D01*
X619439Y525716D01*
X616514Y526500D01*
D02*
G37*
G36*
X953132Y520700D02*
X950368D01*
X947697Y519984D01*
X945303Y518602D01*
X943348Y516647D01*
X941966Y514253D01*
X941250Y511582D01*
Y508818D01*
X941966Y506147D01*
X943348Y503753D01*
X945303Y501798D01*
X947697Y500416D01*
X950368Y499700D01*
X953132D01*
X955803Y500416D01*
X958197Y501798D01*
X960152Y503753D01*
X961534Y506147D01*
X962250Y508818D01*
Y511582D01*
X961534Y514253D01*
X960152Y516647D01*
X958197Y518602D01*
X955803Y519984D01*
X953132Y520700D01*
D02*
G37*
G36*
X872632D02*
X869868D01*
X867197Y519984D01*
X864803Y518602D01*
X862848Y516647D01*
X861466Y514253D01*
X860750Y511582D01*
Y508818D01*
X861466Y506147D01*
X862848Y503753D01*
X864803Y501798D01*
X867197Y500416D01*
X869868Y499700D01*
X872632D01*
X875303Y500416D01*
X877697Y501798D01*
X879652Y503753D01*
X881034Y506147D01*
X881750Y508818D01*
Y511582D01*
X881034Y514253D01*
X879652Y516647D01*
X877697Y518602D01*
X875303Y519984D01*
X872632Y520700D01*
D02*
G37*
G36*
X790299D02*
X787534D01*
X784864Y519984D01*
X782470Y518602D01*
X780515Y516647D01*
X779132Y514253D01*
X778417Y511582D01*
Y508818D01*
X779132Y506147D01*
X780515Y503753D01*
X782470Y501798D01*
X784864Y500416D01*
X787534Y499700D01*
X790299D01*
X792970Y500416D01*
X795364Y501798D01*
X797319Y503753D01*
X798701Y506147D01*
X799417Y508818D01*
Y511582D01*
X798701Y514253D01*
X797319Y516647D01*
X795364Y518602D01*
X792970Y519984D01*
X790299Y520700D01*
D02*
G37*
G36*
X708132Y520500D02*
X705368D01*
X702697Y519784D01*
X700303Y518402D01*
X698348Y516447D01*
X696966Y514053D01*
X696250Y511382D01*
Y508618D01*
X696966Y505947D01*
X698348Y503553D01*
X700303Y501598D01*
X702697Y500216D01*
X705368Y499500D01*
X708132D01*
X710803Y500216D01*
X713197Y501598D01*
X715152Y503553D01*
X716534Y505947D01*
X717250Y508618D01*
Y511382D01*
X716534Y514053D01*
X715152Y516447D01*
X713197Y518402D01*
X710803Y519784D01*
X708132Y520500D01*
D02*
G37*
G36*
X419118Y427390D02*
X416382D01*
X413740Y426682D01*
X411370Y425314D01*
X409436Y423380D01*
X408068Y421010D01*
X407360Y418368D01*
Y415632D01*
X408068Y412990D01*
X409436Y410620D01*
X411370Y408686D01*
X413740Y407318D01*
X416382Y406610D01*
X419118D01*
X421760Y407318D01*
X424130Y408686D01*
X426064Y410620D01*
X427432Y412990D01*
X428140Y415632D01*
Y418368D01*
X427432Y421010D01*
X426064Y423380D01*
X424130Y425314D01*
X421760Y426682D01*
X419118Y427390D01*
D02*
G37*
G36*
Y401990D02*
X416382D01*
X413740Y401282D01*
X411370Y399914D01*
X409436Y397980D01*
X408068Y395610D01*
X407360Y392968D01*
Y390232D01*
X408068Y387590D01*
X409436Y385220D01*
X411370Y383286D01*
X413740Y381918D01*
X416382Y381210D01*
X419118D01*
X421760Y381918D01*
X424130Y383286D01*
X426064Y385220D01*
X427432Y387590D01*
X428140Y390232D01*
Y392968D01*
X427432Y395610D01*
X426064Y397980D01*
X424130Y399914D01*
X421760Y401282D01*
X419118Y401990D01*
D02*
G37*
G36*
X952618Y401290D02*
X949882D01*
X947240Y400582D01*
X944870Y399214D01*
X942936Y397280D01*
X941568Y394910D01*
X940860Y392268D01*
Y389532D01*
X941568Y386890D01*
X942936Y384520D01*
X944870Y382586D01*
X947240Y381218D01*
X949882Y380510D01*
X952618D01*
X955260Y381218D01*
X957630Y382586D01*
X959564Y384520D01*
X960932Y386890D01*
X961640Y389532D01*
Y392268D01*
X960932Y394910D01*
X959564Y397280D01*
X957630Y399214D01*
X955260Y400582D01*
X952618Y401290D01*
D02*
G37*
G36*
X871201Y400940D02*
X868465D01*
X865823Y400232D01*
X863454Y398864D01*
X861519Y396930D01*
X860151Y394560D01*
X859443Y391918D01*
Y389182D01*
X860151Y386540D01*
X861519Y384170D01*
X863454Y382236D01*
X865823Y380868D01*
X868465Y380160D01*
X871201D01*
X873844Y380868D01*
X876213Y382236D01*
X878147Y384170D01*
X879515Y386540D01*
X880223Y389182D01*
Y391918D01*
X879515Y394560D01*
X878147Y396930D01*
X876213Y398864D01*
X873844Y400232D01*
X871201Y400940D01*
D02*
G37*
G36*
X789784Y400940D02*
X787049D01*
X784406Y400232D01*
X782037Y398864D01*
X780103Y396930D01*
X778735Y394560D01*
X778027Y391918D01*
Y389182D01*
X778735Y386540D01*
X780103Y384170D01*
X782037Y382236D01*
X784406Y380868D01*
X787049Y380160D01*
X789784D01*
X792427Y380868D01*
X794796Y382236D01*
X796731Y384170D01*
X798099Y386540D01*
X798807Y389182D01*
Y391918D01*
X798099Y394560D01*
X796731Y396930D01*
X794796Y398864D01*
X792427Y400232D01*
X789784Y400940D01*
D02*
G37*
G36*
X708368D02*
X705632D01*
X702990Y400232D01*
X700620Y398864D01*
X698686Y396930D01*
X697318Y394560D01*
X696610Y391918D01*
Y389182D01*
X697318Y386540D01*
X698686Y384170D01*
X700620Y382236D01*
X702990Y380868D01*
X705632Y380160D01*
X708368D01*
X711010Y380868D01*
X713380Y382236D01*
X715314Y384170D01*
X716682Y386540D01*
X717390Y389182D01*
Y391918D01*
X716682Y394560D01*
X715314Y396930D01*
X713380Y398864D01*
X711010Y400232D01*
X708368Y400940D01*
D02*
G37*
G36*
X419118Y376590D02*
X416382D01*
X413740Y375882D01*
X411370Y374514D01*
X409436Y372580D01*
X408068Y370210D01*
X407360Y367568D01*
Y364832D01*
X408068Y362190D01*
X409436Y359820D01*
X411370Y357886D01*
X413740Y356518D01*
X416382Y355810D01*
X419118D01*
X421760Y356518D01*
X424130Y357886D01*
X426064Y359820D01*
X427432Y362190D01*
X428140Y364832D01*
Y367568D01*
X427432Y370210D01*
X426064Y372580D01*
X424130Y374514D01*
X421760Y375882D01*
X419118Y376590D01*
D02*
G37*
G36*
X952618Y375890D02*
X949882D01*
X947240Y375182D01*
X944870Y373814D01*
X942936Y371880D01*
X941568Y369510D01*
X940860Y366868D01*
Y364132D01*
X941568Y361490D01*
X942936Y359120D01*
X944870Y357186D01*
X947240Y355818D01*
X949882Y355110D01*
X952618D01*
X955260Y355818D01*
X957630Y357186D01*
X959564Y359120D01*
X960932Y361490D01*
X961640Y364132D01*
Y366868D01*
X960932Y369510D01*
X959564Y371880D01*
X957630Y373814D01*
X955260Y375182D01*
X952618Y375890D01*
D02*
G37*
G36*
X871201Y375540D02*
X868465D01*
X865823Y374832D01*
X863454Y373464D01*
X861519Y371530D01*
X860151Y369160D01*
X859443Y366518D01*
Y363782D01*
X860151Y361140D01*
X861519Y358770D01*
X863454Y356836D01*
X865823Y355468D01*
X868465Y354760D01*
X871201D01*
X873844Y355468D01*
X876213Y356836D01*
X878147Y358770D01*
X879515Y361140D01*
X880223Y363782D01*
Y366518D01*
X879515Y369160D01*
X878147Y371530D01*
X876213Y373464D01*
X873844Y374832D01*
X871201Y375540D01*
D02*
G37*
G36*
X789784Y375540D02*
X787049D01*
X784406Y374832D01*
X782037Y373464D01*
X780103Y371530D01*
X778735Y369160D01*
X778027Y366518D01*
Y363782D01*
X778735Y361140D01*
X780103Y358770D01*
X782037Y356836D01*
X784406Y355468D01*
X787049Y354760D01*
X789784D01*
X792427Y355468D01*
X794796Y356836D01*
X796731Y358770D01*
X798099Y361140D01*
X798807Y363782D01*
Y366518D01*
X798099Y369160D01*
X796731Y371530D01*
X794796Y373464D01*
X792427Y374832D01*
X789784Y375540D01*
D02*
G37*
G36*
X708368D02*
X705632D01*
X702990Y374832D01*
X700620Y373464D01*
X698686Y371530D01*
X697318Y369160D01*
X696610Y366518D01*
Y363782D01*
X697318Y361140D01*
X698686Y358770D01*
X700620Y356836D01*
X702990Y355468D01*
X705632Y354760D01*
X708368D01*
X711010Y355468D01*
X713380Y356836D01*
X715314Y358770D01*
X716682Y361140D01*
X717390Y363782D01*
Y366518D01*
X716682Y369160D01*
X715314Y371530D01*
X713380Y373464D01*
X711010Y374832D01*
X708368Y375540D01*
D02*
G37*
G36*
X493745Y347000D02*
X491755D01*
X489918Y346239D01*
X488511Y344832D01*
X487750Y342995D01*
Y341005D01*
X488511Y339168D01*
X489918Y337761D01*
X491755Y337000D01*
X493745D01*
X495582Y337761D01*
X496989Y339168D01*
X497750Y341005D01*
Y342995D01*
X496989Y344832D01*
X495582Y346239D01*
X493745Y347000D01*
D02*
G37*
G36*
X419118Y351190D02*
X416382D01*
X413740Y350482D01*
X411370Y349114D01*
X409436Y347180D01*
X408068Y344810D01*
X407360Y342168D01*
Y339432D01*
X408068Y336790D01*
X409436Y334420D01*
X411370Y332486D01*
X413740Y331118D01*
X416382Y330410D01*
X419118D01*
X421760Y331118D01*
X424130Y332486D01*
X426064Y334420D01*
X427432Y336790D01*
X428140Y339432D01*
Y342168D01*
X427432Y344810D01*
X426064Y347180D01*
X424130Y349114D01*
X421760Y350482D01*
X419118Y351190D01*
D02*
G37*
G36*
X952618Y350490D02*
X949882D01*
X947240Y349782D01*
X944870Y348414D01*
X942936Y346480D01*
X941568Y344110D01*
X940860Y341468D01*
Y338732D01*
X941568Y336090D01*
X942936Y333720D01*
X944870Y331786D01*
X947240Y330418D01*
X949882Y329710D01*
X952618D01*
X955260Y330418D01*
X957630Y331786D01*
X959564Y333720D01*
X960932Y336090D01*
X961640Y338732D01*
Y341468D01*
X960932Y344110D01*
X959564Y346480D01*
X957630Y348414D01*
X955260Y349782D01*
X952618Y350490D01*
D02*
G37*
G36*
X871201Y350140D02*
X868465D01*
X865823Y349432D01*
X863454Y348064D01*
X861519Y346130D01*
X860151Y343760D01*
X859443Y341118D01*
Y338382D01*
X860151Y335740D01*
X861519Y333370D01*
X863454Y331436D01*
X865823Y330068D01*
X868465Y329360D01*
X871201D01*
X873844Y330068D01*
X876213Y331436D01*
X878147Y333370D01*
X879515Y335740D01*
X880223Y338382D01*
Y341118D01*
X879515Y343760D01*
X878147Y346130D01*
X876213Y348064D01*
X873844Y349432D01*
X871201Y350140D01*
D02*
G37*
G36*
X789784Y350140D02*
X787049D01*
X784406Y349432D01*
X782037Y348064D01*
X780103Y346130D01*
X778735Y343760D01*
X778027Y341118D01*
Y338382D01*
X778735Y335740D01*
X780103Y333370D01*
X782037Y331436D01*
X784406Y330068D01*
X787049Y329360D01*
X789784D01*
X792427Y330068D01*
X794796Y331436D01*
X796731Y333370D01*
X798099Y335740D01*
X798807Y338382D01*
Y341118D01*
X798099Y343760D01*
X796731Y346130D01*
X794796Y348064D01*
X792427Y349432D01*
X789784Y350140D01*
D02*
G37*
G36*
X708368D02*
X705632D01*
X702990Y349432D01*
X700620Y348064D01*
X698686Y346130D01*
X697318Y343760D01*
X696610Y341118D01*
Y338382D01*
X697318Y335740D01*
X698686Y333370D01*
X700620Y331436D01*
X702990Y330068D01*
X705632Y329360D01*
X708368D01*
X711010Y330068D01*
X713380Y331436D01*
X715314Y333370D01*
X716682Y335740D01*
X717390Y338382D01*
Y341118D01*
X716682Y343760D01*
X715314Y346130D01*
X713380Y348064D01*
X711010Y349432D01*
X708368Y350140D01*
D02*
G37*
G36*
X462495Y318500D02*
X460505D01*
X458668Y317739D01*
X457261Y316332D01*
X456500Y314495D01*
Y312505D01*
X457261Y310668D01*
X458668Y309261D01*
X460505Y308500D01*
X462495D01*
X464332Y309261D01*
X465739Y310668D01*
X466500Y312505D01*
Y314495D01*
X465739Y316332D01*
X464332Y317739D01*
X462495Y318500D01*
D02*
G37*
G36*
X419118Y325790D02*
X416382D01*
X413740Y325082D01*
X411370Y323714D01*
X409436Y321780D01*
X408068Y319410D01*
X407360Y316768D01*
Y314032D01*
X408068Y311390D01*
X409436Y309020D01*
X411370Y307086D01*
X413740Y305718D01*
X416382Y305010D01*
X419118D01*
X421760Y305718D01*
X424130Y307086D01*
X426064Y309020D01*
X427432Y311390D01*
X428140Y314032D01*
Y316768D01*
X427432Y319410D01*
X426064Y321780D01*
X424130Y323714D01*
X421760Y325082D01*
X419118Y325790D01*
D02*
G37*
G36*
X952618Y325090D02*
X949882D01*
X947240Y324382D01*
X944870Y323014D01*
X942936Y321080D01*
X941568Y318710D01*
X940860Y316068D01*
Y313332D01*
X941568Y310690D01*
X942936Y308320D01*
X944870Y306386D01*
X947240Y305018D01*
X949882Y304310D01*
X952618D01*
X955260Y305018D01*
X957630Y306386D01*
X959564Y308320D01*
X960932Y310690D01*
X961640Y313332D01*
Y316068D01*
X960932Y318710D01*
X959564Y321080D01*
X957630Y323014D01*
X955260Y324382D01*
X952618Y325090D01*
D02*
G37*
G36*
X871201Y324740D02*
X868465D01*
X865823Y324032D01*
X863454Y322664D01*
X861519Y320730D01*
X860151Y318360D01*
X859443Y315718D01*
Y312982D01*
X860151Y310340D01*
X861519Y307970D01*
X863454Y306036D01*
X865823Y304668D01*
X868465Y303960D01*
X871201D01*
X873844Y304668D01*
X876213Y306036D01*
X878147Y307970D01*
X879515Y310340D01*
X880223Y312982D01*
Y315718D01*
X879515Y318360D01*
X878147Y320730D01*
X876213Y322664D01*
X873844Y324032D01*
X871201Y324740D01*
D02*
G37*
G36*
X789784Y324740D02*
X787049D01*
X784406Y324032D01*
X782037Y322664D01*
X780103Y320730D01*
X778735Y318360D01*
X778027Y315718D01*
Y312982D01*
X778735Y310340D01*
X780103Y307970D01*
X782037Y306036D01*
X784406Y304668D01*
X787049Y303960D01*
X789784D01*
X792427Y304668D01*
X794796Y306036D01*
X796731Y307970D01*
X798099Y310340D01*
X798807Y312982D01*
Y315718D01*
X798099Y318360D01*
X796731Y320730D01*
X794796Y322664D01*
X792427Y324032D01*
X789784Y324740D01*
D02*
G37*
G36*
X708368D02*
X705632D01*
X702990Y324032D01*
X700620Y322664D01*
X698686Y320730D01*
X697318Y318360D01*
X696610Y315718D01*
Y312982D01*
X697318Y310340D01*
X698686Y307970D01*
X700620Y306036D01*
X702990Y304668D01*
X705632Y303960D01*
X708368D01*
X711010Y304668D01*
X713380Y306036D01*
X715314Y307970D01*
X716682Y310340D01*
X717390Y312982D01*
Y315718D01*
X716682Y318360D01*
X715314Y320730D01*
X713380Y322664D01*
X711010Y324032D01*
X708368Y324740D01*
D02*
G37*
G36*
X420250Y300604D02*
Y292500D01*
X428354D01*
X427898Y294203D01*
X426464Y296687D01*
X424437Y298714D01*
X421953Y300148D01*
X420250Y300604D01*
D02*
G37*
G36*
X415250Y300604D02*
X413547Y300148D01*
X411063Y298714D01*
X409036Y296687D01*
X407602Y294203D01*
X407146Y292500D01*
X415250D01*
Y300604D01*
D02*
G37*
G36*
Y287500D02*
X407146D01*
X407602Y285797D01*
X409036Y283313D01*
X411063Y281286D01*
X413547Y279852D01*
X415250Y279396D01*
Y287500D01*
D02*
G37*
G36*
X428354D02*
X420250D01*
Y279396D01*
X421953Y279852D01*
X424437Y281286D01*
X426464Y283313D01*
X427898Y285797D01*
X428354Y287500D01*
D02*
G37*
G36*
X952618Y299690D02*
X949882D01*
X947240Y298982D01*
X944870Y297614D01*
X942936Y295680D01*
X941568Y293310D01*
X940860Y290668D01*
Y287932D01*
X941568Y285290D01*
X942936Y282920D01*
X944870Y280986D01*
X947240Y279618D01*
X949882Y278910D01*
X952618D01*
X955260Y279618D01*
X957630Y280986D01*
X959564Y282920D01*
X960932Y285290D01*
X961640Y287932D01*
Y290668D01*
X960932Y293310D01*
X959564Y295680D01*
X957630Y297614D01*
X955260Y298982D01*
X952618Y299690D01*
D02*
G37*
G36*
X871201Y299340D02*
X868465D01*
X865823Y298632D01*
X863454Y297264D01*
X861519Y295330D01*
X860151Y292960D01*
X859443Y290318D01*
Y287582D01*
X860151Y284940D01*
X861519Y282570D01*
X863454Y280636D01*
X865823Y279268D01*
X868465Y278560D01*
X871201D01*
X873844Y279268D01*
X876213Y280636D01*
X878147Y282570D01*
X879515Y284940D01*
X880223Y287582D01*
Y290318D01*
X879515Y292960D01*
X878147Y295330D01*
X876213Y297264D01*
X873844Y298632D01*
X871201Y299340D01*
D02*
G37*
G36*
X789784Y299340D02*
X787049D01*
X784406Y298632D01*
X782037Y297264D01*
X780103Y295330D01*
X778735Y292960D01*
X778027Y290318D01*
Y287582D01*
X778735Y284940D01*
X780103Y282570D01*
X782037Y280636D01*
X784406Y279268D01*
X787049Y278560D01*
X789784D01*
X792427Y279268D01*
X794796Y280636D01*
X796731Y282570D01*
X798099Y284940D01*
X798807Y287582D01*
Y290318D01*
X798099Y292960D01*
X796731Y295330D01*
X794796Y297264D01*
X792427Y298632D01*
X789784Y299340D01*
D02*
G37*
G36*
X708368D02*
X705632D01*
X702990Y298632D01*
X700620Y297264D01*
X698686Y295330D01*
X697318Y292960D01*
X696610Y290318D01*
Y287582D01*
X697318Y284940D01*
X698686Y282570D01*
X700620Y280636D01*
X702990Y279268D01*
X705632Y278560D01*
X708368D01*
X711010Y279268D01*
X713380Y280636D01*
X715314Y282570D01*
X716682Y284940D01*
X717390Y287582D01*
Y290318D01*
X716682Y292960D01*
X715314Y295330D01*
X713380Y297264D01*
X711010Y298632D01*
X708368Y299340D01*
D02*
G37*
G36*
X953750Y274504D02*
Y266400D01*
X961854D01*
X961398Y268103D01*
X959964Y270587D01*
X957937Y272614D01*
X955453Y274048D01*
X953750Y274504D01*
D02*
G37*
G36*
X948750D02*
X947047Y274048D01*
X944563Y272614D01*
X942536Y270587D01*
X941102Y268103D01*
X940646Y266400D01*
X948750D01*
Y274504D01*
D02*
G37*
G36*
X872333Y274154D02*
Y266050D01*
X880438D01*
X879981Y267753D01*
X878548Y270237D01*
X876520Y272264D01*
X874037Y273698D01*
X872333Y274154D01*
D02*
G37*
G36*
X867333Y274154D02*
X865630Y273698D01*
X863147Y272264D01*
X861119Y270237D01*
X859686Y267753D01*
X859229Y266050D01*
X867333D01*
Y274154D01*
D02*
G37*
G36*
X790917Y274154D02*
Y266050D01*
X799021D01*
X798565Y267753D01*
X797131Y270237D01*
X795103Y272264D01*
X792620Y273698D01*
X790917Y274154D01*
D02*
G37*
G36*
X709500D02*
Y266050D01*
X717604D01*
X717148Y267753D01*
X715714Y270237D01*
X713687Y272264D01*
X711203Y273698D01*
X709500Y274154D01*
D02*
G37*
G36*
X785917D02*
X784213Y273698D01*
X781730Y272264D01*
X779703Y270237D01*
X778269Y267753D01*
X777812Y266050D01*
X785917D01*
Y274154D01*
D02*
G37*
G36*
X704500D02*
X702797Y273698D01*
X700313Y272264D01*
X698286Y270237D01*
X696852Y267753D01*
X696396Y266050D01*
X704500D01*
Y274154D01*
D02*
G37*
G36*
X961854Y261400D02*
X953750D01*
Y253296D01*
X955453Y253752D01*
X957937Y255186D01*
X959964Y257213D01*
X961398Y259697D01*
X961854Y261400D01*
D02*
G37*
G36*
X948750D02*
X940646D01*
X941102Y259697D01*
X942536Y257213D01*
X944563Y255186D01*
X947047Y253752D01*
X948750Y253296D01*
Y261400D01*
D02*
G37*
G36*
X867333Y261050D02*
X859229D01*
X859686Y259347D01*
X861119Y256863D01*
X863147Y254836D01*
X865630Y253402D01*
X867333Y252946D01*
Y261050D01*
D02*
G37*
G36*
X880438D02*
X872333D01*
Y252946D01*
X874037Y253402D01*
X876520Y254836D01*
X878548Y256863D01*
X879981Y259347D01*
X880438Y261050D01*
D02*
G37*
G36*
X799021Y261050D02*
X790917D01*
Y252946D01*
X792620Y253402D01*
X795103Y254836D01*
X797131Y256863D01*
X798565Y259347D01*
X799021Y261050D01*
D02*
G37*
G36*
X717604D02*
X709500D01*
Y252946D01*
X711203Y253402D01*
X713687Y254836D01*
X715714Y256863D01*
X717148Y259347D01*
X717604Y261050D01*
D02*
G37*
G36*
X785917D02*
X777812D01*
X778269Y259347D01*
X779703Y256863D01*
X781730Y254836D01*
X784213Y253402D01*
X785917Y252946D01*
Y261050D01*
D02*
G37*
G36*
X704500D02*
X696396D01*
X696852Y259347D01*
X698286Y256863D01*
X700313Y254836D01*
X702797Y253402D01*
X704500Y252946D01*
Y261050D01*
D02*
G37*
G36*
X952618Y248890D02*
X949882D01*
X947240Y248182D01*
X944870Y246814D01*
X942936Y244880D01*
X941568Y242510D01*
X940860Y239868D01*
Y237132D01*
X941568Y234490D01*
X942936Y232120D01*
X944870Y230186D01*
X947240Y228818D01*
X949882Y228110D01*
X952618D01*
X955260Y228818D01*
X957630Y230186D01*
X959564Y232120D01*
X960932Y234490D01*
X961640Y237132D01*
Y239868D01*
X960932Y242510D01*
X959564Y244880D01*
X957630Y246814D01*
X955260Y248182D01*
X952618Y248890D01*
D02*
G37*
G36*
X871201Y248540D02*
X868465D01*
X865823Y247832D01*
X863454Y246464D01*
X861519Y244530D01*
X860151Y242160D01*
X859443Y239518D01*
Y236782D01*
X860151Y234140D01*
X861519Y231770D01*
X863454Y229836D01*
X865823Y228468D01*
X868465Y227760D01*
X871201D01*
X873844Y228468D01*
X876213Y229836D01*
X878147Y231770D01*
X879515Y234140D01*
X880223Y236782D01*
Y239518D01*
X879515Y242160D01*
X878147Y244530D01*
X876213Y246464D01*
X873844Y247832D01*
X871201Y248540D01*
D02*
G37*
G36*
X789784Y248540D02*
X787049D01*
X784406Y247832D01*
X782037Y246464D01*
X780103Y244530D01*
X778735Y242160D01*
X778027Y239518D01*
Y236782D01*
X778735Y234140D01*
X780103Y231770D01*
X782037Y229836D01*
X784406Y228468D01*
X787049Y227760D01*
X789784D01*
X792427Y228468D01*
X794796Y229836D01*
X796731Y231770D01*
X798099Y234140D01*
X798807Y236782D01*
Y239518D01*
X798099Y242160D01*
X796731Y244530D01*
X794796Y246464D01*
X792427Y247832D01*
X789784Y248540D01*
D02*
G37*
G36*
X708368D02*
X705632D01*
X702990Y247832D01*
X700620Y246464D01*
X698686Y244530D01*
X697318Y242160D01*
X696610Y239518D01*
Y236782D01*
X697318Y234140D01*
X698686Y231770D01*
X700620Y229836D01*
X702990Y228468D01*
X705632Y227760D01*
X708368D01*
X711010Y228468D01*
X713380Y229836D01*
X715314Y231770D01*
X716682Y234140D01*
X717390Y236782D01*
Y239518D01*
X716682Y242160D01*
X715314Y244530D01*
X713380Y246464D01*
X711010Y247832D01*
X708368Y248540D01*
D02*
G37*
G36*
X527400Y227000D02*
X517900D01*
Y217500D01*
X527400D01*
Y227000D01*
D02*
G37*
G36*
X492500Y226754D02*
Y217500D01*
X501754D01*
X501182Y219632D01*
X499602Y222368D01*
X497368Y224602D01*
X494632Y226182D01*
X492500Y226754D01*
D02*
G37*
G36*
X487500Y226753D02*
X485368Y226182D01*
X482632Y224602D01*
X480398Y222368D01*
X478818Y219632D01*
X478247Y217500D01*
X487500D01*
Y226753D01*
D02*
G37*
G36*
X512900Y227000D02*
X503400D01*
Y217500D01*
X512900D01*
Y227000D01*
D02*
G37*
G36*
X487500Y212500D02*
X478246D01*
X478818Y210368D01*
X480398Y207632D01*
X482632Y205398D01*
X485368Y203818D01*
X487500Y203247D01*
Y212500D01*
D02*
G37*
G36*
X501754D02*
X492500D01*
Y203246D01*
X494632Y203818D01*
X497368Y205398D01*
X499602Y207632D01*
X501182Y210368D01*
X501754Y212500D01*
D02*
G37*
G36*
X527400D02*
X517900D01*
Y203000D01*
X527400D01*
Y212500D01*
D02*
G37*
G36*
X512900D02*
X503400D01*
Y203000D01*
X512900D01*
Y212500D01*
D02*
G37*
%LPD*%
D94*
X640400Y515000D02*
D03*
X525000Y560000D02*
D03*
X280400Y450000D02*
D03*
X515400Y215000D02*
D03*
X180000D02*
D03*
D95*
X615000Y515000D02*
D03*
X499600Y560000D02*
D03*
X255000Y450000D02*
D03*
X490000Y215000D02*
D03*
X154600D02*
D03*
X52750Y208000D02*
D03*
D96*
X706750Y560800D02*
D03*
Y535400D02*
D03*
Y510000D02*
D03*
X383350Y648250D02*
D03*
X408750D02*
D03*
X434150D02*
D03*
X459550D02*
D03*
X871250Y510200D02*
D03*
Y535600D02*
D03*
Y561000D02*
D03*
X951750Y510200D02*
D03*
Y535600D02*
D03*
Y561000D02*
D03*
X788917Y510200D02*
D03*
Y535600D02*
D03*
Y561000D02*
D03*
X493000Y745000D02*
D03*
X343000D02*
D03*
D97*
X951250Y238500D02*
D03*
Y365500D02*
D03*
Y390900D02*
D03*
Y340100D02*
D03*
Y314700D02*
D03*
Y289300D02*
D03*
Y263900D02*
D03*
X53250Y317550D02*
D03*
Y342950D02*
D03*
Y368350D02*
D03*
Y393750D02*
D03*
Y444550D02*
D03*
Y419150D02*
D03*
Y292150D02*
D03*
Y266750D02*
D03*
X869833Y238150D02*
D03*
Y365150D02*
D03*
Y390550D02*
D03*
Y339750D02*
D03*
Y314350D02*
D03*
Y288950D02*
D03*
Y263550D02*
D03*
X788417Y238150D02*
D03*
Y365150D02*
D03*
Y390550D02*
D03*
Y339750D02*
D03*
Y314350D02*
D03*
Y288950D02*
D03*
Y263550D02*
D03*
X707000Y238150D02*
D03*
Y365150D02*
D03*
Y390550D02*
D03*
Y339750D02*
D03*
Y314350D02*
D03*
Y288950D02*
D03*
Y263550D02*
D03*
X417750Y391600D02*
D03*
Y417000D02*
D03*
Y366200D02*
D03*
Y340800D02*
D03*
Y315400D02*
D03*
Y290000D02*
D03*
D98*
X79250Y505350D02*
D03*
X130050D02*
D03*
X79250Y530750D02*
D03*
X130050D02*
D03*
D99*
X52750Y233400D02*
D03*
D100*
X131950Y51900D02*
D03*
X901850D02*
D03*
Y731900D02*
D03*
X131950D02*
D03*
D101*
X977000Y423000D02*
D03*
X891000D02*
D03*
X814000D02*
D03*
X730000Y422000D02*
D03*
X101000Y461000D02*
D03*
X120000Y411000D02*
D03*
X119000Y352000D02*
D03*
X101000Y359000D02*
D03*
X120000Y307000D02*
D03*
X99000Y300000D02*
D03*
X246000Y572000D02*
D03*
X347000Y683000D02*
D03*
X239750Y632500D02*
D03*
Y588750D02*
D03*
X248500D02*
D03*
X239750Y597500D02*
D03*
X231000D02*
D03*
X248500D02*
D03*
X239750Y606250D02*
D03*
X231000D02*
D03*
X248500D02*
D03*
X274750Y623750D02*
D03*
Y615000D02*
D03*
X266000Y623750D02*
D03*
Y615000D02*
D03*
X257250Y623750D02*
D03*
Y615000D02*
D03*
X248500Y623750D02*
D03*
Y615000D02*
D03*
X231000D02*
D03*
X239750D02*
D03*
Y623750D02*
D03*
X231000D02*
D03*
X298500Y485500D02*
D03*
X267500Y541000D02*
D03*
X286750D02*
D03*
X277000D02*
D03*
X219250Y534250D02*
D03*
X218250Y519000D02*
D03*
X232500Y488000D02*
D03*
X181500Y480000D02*
D03*
X533250Y496250D02*
D03*
X532750Y474000D02*
D03*
X585000Y695750D02*
D03*
X511000Y651750D02*
D03*
X524000Y675250D02*
D03*
X491250Y710500D02*
D03*
X429250Y605750D02*
D03*
X991500Y449500D02*
D03*
X908500Y449250D02*
D03*
X829250Y448500D02*
D03*
X747500Y450250D02*
D03*
X471250Y313250D02*
D03*
X479250Y382000D02*
D03*
X463250Y365250D02*
D03*
X521000Y359250D02*
D03*
X549250Y394500D02*
D03*
X554250Y429750D02*
D03*
X563000D02*
D03*
Y421000D02*
D03*
X554250D02*
D03*
X587750Y393500D02*
D03*
X497250Y264250D02*
D03*
X565250Y279500D02*
D03*
X574250Y321500D02*
D03*
X624750D02*
D03*
X657750Y354250D02*
D03*
Y297750D02*
D03*
X393250Y479250D02*
D03*
Y470500D02*
D03*
Y461750D02*
D03*
X402000D02*
D03*
Y470500D02*
D03*
Y479250D02*
D03*
X351750Y429750D02*
D03*
X391500Y381250D02*
D03*
X371500Y292750D02*
D03*
X222500Y348000D02*
D03*
X287250Y403000D02*
D03*
X251500Y380500D02*
D03*
X246500Y401500D02*
D03*
X268750Y293250D02*
D03*
X100000Y400750D02*
D03*
X119250Y248750D02*
D03*
X185250Y280500D02*
D03*
X164500Y311000D02*
D03*
X492750Y342000D02*
D03*
X461500Y313500D02*
D03*
M02*
