G04*
G04 #@! TF.GenerationSoftware,Altium Limited,Altium Designer,23.0.1 (38)*
G04*
G04 Layer_Physical_Order=4*
G04 Layer_Color=16711680*
%FSLAX44Y44*%
%MOMM*%
G71*
G04*
G04 #@! TF.SameCoordinates,FF345AFA-0CE5-413A-8FAD-513570D1C1FC*
G04*
G04*
G04 #@! TF.FilePolarity,Positive*
G04*
G01*
G75*
%ADD94R,2.0000X2.0000*%
%ADD95C,2.0000*%
%ADD96C,1.8000*%
%ADD97C,1.7780*%
%ADD98C,2.2000*%
%ADD99R,2.0000X2.0000*%
%ADD100C,6.0000*%
%ADD101C,0.7000*%
G36*
X916584Y763416D02*
X915828Y762376D01*
X914710Y762946D01*
X909695Y764575D01*
X904486Y765400D01*
X899213D01*
X894006Y764575D01*
X888990Y762946D01*
X884292Y760552D01*
X880026Y757452D01*
X876298Y753724D01*
X873198Y749458D01*
X870804Y744760D01*
X869175Y739745D01*
X868350Y734537D01*
Y729264D01*
X869175Y724055D01*
X870804Y719041D01*
X873198Y714342D01*
X876298Y710076D01*
X880026Y706348D01*
X884292Y703248D01*
X888990Y700854D01*
X894006Y699225D01*
X899213Y698400D01*
X904486D01*
X909695Y699225D01*
X914710Y700854D01*
X919408Y703248D01*
X923674Y706348D01*
X927402Y710076D01*
X930502Y714342D01*
X932896Y719041D01*
X934525Y724055D01*
X935350Y729264D01*
Y734537D01*
X934525Y739745D01*
X932896Y744760D01*
X932326Y745878D01*
X933366Y746634D01*
X940000Y740000D01*
Y604000D01*
X944000Y600000D01*
X1015000D01*
X1020000Y595000D01*
Y190000D01*
X1015000Y185000D01*
X945000D01*
X939000Y179000D01*
X940000Y20000D01*
X935000Y15000D01*
X95000D01*
X90000Y20000D01*
Y180000D01*
X85000Y185000D01*
X20000D01*
X15000Y190000D01*
Y595000D01*
X20000Y600000D01*
X90000D01*
X95000Y605000D01*
X95000Y745000D01*
X120000Y770000D01*
X910000D01*
X916584Y763416D01*
D02*
G37*
%LPC*%
G36*
X494646Y757500D02*
X491354D01*
X488175Y756648D01*
X485325Y755003D01*
X482998Y752675D01*
X481352Y749825D01*
X480500Y746646D01*
Y743354D01*
X481352Y740175D01*
X482998Y737325D01*
X485325Y734997D01*
X488175Y733352D01*
X491354Y732500D01*
X494646D01*
X497825Y733352D01*
X500675Y734997D01*
X503003Y737325D01*
X504648Y740175D01*
X505500Y743354D01*
Y746646D01*
X504648Y749825D01*
X503003Y752675D01*
X500675Y755003D01*
X497825Y756648D01*
X494646Y757500D01*
D02*
G37*
G36*
X344646D02*
X341354D01*
X338175Y756648D01*
X335325Y755003D01*
X332998Y752675D01*
X331352Y749825D01*
X330500Y746646D01*
Y743354D01*
X331352Y740175D01*
X332998Y737325D01*
X335325Y734997D01*
X338175Y733352D01*
X341354Y732500D01*
X344646D01*
X347825Y733352D01*
X350675Y734997D01*
X353003Y737325D01*
X354648Y740175D01*
X355500Y743354D01*
Y746646D01*
X354648Y749825D01*
X353003Y752675D01*
X350675Y755003D01*
X347825Y756648D01*
X344646Y757500D01*
D02*
G37*
G36*
X492172Y717500D02*
X490328D01*
X488548Y717023D01*
X486952Y716101D01*
X485649Y714798D01*
X484727Y713202D01*
X484250Y711422D01*
Y709578D01*
X484727Y707798D01*
X485649Y706202D01*
X486952Y704899D01*
X488548Y703977D01*
X490328Y703500D01*
X492172D01*
X493952Y703977D01*
X495548Y704899D01*
X496851Y706202D01*
X497773Y707798D01*
X498250Y709578D01*
Y711422D01*
X497773Y713202D01*
X496851Y714798D01*
X495548Y716101D01*
X493952Y717023D01*
X492172Y717500D01*
D02*
G37*
G36*
X134586Y765400D02*
X129313D01*
X124105Y764575D01*
X119090Y762946D01*
X114392Y760552D01*
X110126Y757452D01*
X106398Y753724D01*
X103298Y749458D01*
X100904Y744760D01*
X99275Y739745D01*
X98450Y734537D01*
Y729264D01*
X99275Y724055D01*
X100904Y719041D01*
X103298Y714342D01*
X106398Y710076D01*
X110126Y706348D01*
X114392Y703248D01*
X119090Y700854D01*
X124105Y699225D01*
X129313Y698400D01*
X134586D01*
X139795Y699225D01*
X144810Y700854D01*
X149508Y703248D01*
X153774Y706348D01*
X157502Y710076D01*
X160602Y714342D01*
X162996Y719041D01*
X164625Y724055D01*
X165450Y729264D01*
Y734537D01*
X164625Y739745D01*
X162996Y744760D01*
X160602Y749458D01*
X157502Y753724D01*
X153774Y757452D01*
X149508Y760552D01*
X144810Y762946D01*
X139795Y764575D01*
X134586Y765400D01*
D02*
G37*
G36*
X585922Y702750D02*
X584078D01*
X582298Y702273D01*
X580702Y701351D01*
X579399Y700048D01*
X578477Y698452D01*
X578000Y696672D01*
Y694828D01*
X578477Y693048D01*
X579399Y691452D01*
X580702Y690149D01*
X582298Y689227D01*
X584078Y688750D01*
X585922D01*
X587702Y689227D01*
X589298Y690149D01*
X590601Y691452D01*
X591523Y693048D01*
X592000Y694828D01*
Y696672D01*
X591523Y698452D01*
X590601Y700048D01*
X589298Y701351D01*
X587702Y702273D01*
X585922Y702750D01*
D02*
G37*
G36*
X347922Y690000D02*
X346078D01*
X344298Y689523D01*
X342702Y688601D01*
X341399Y687298D01*
X340477Y685702D01*
X340000Y683922D01*
Y682078D01*
X340477Y680298D01*
X341399Y678702D01*
X342702Y677399D01*
X344298Y676477D01*
X346078Y676000D01*
X347922D01*
X349702Y676477D01*
X351298Y677399D01*
X352601Y678702D01*
X353523Y680298D01*
X354000Y682078D01*
Y683922D01*
X353523Y685702D01*
X352601Y687298D01*
X351298Y688601D01*
X349702Y689523D01*
X347922Y690000D01*
D02*
G37*
G36*
X524922Y682250D02*
X523078D01*
X521298Y681773D01*
X519702Y680851D01*
X518399Y679548D01*
X517477Y677952D01*
X517000Y676171D01*
Y674328D01*
X517477Y672548D01*
X518399Y670952D01*
X519702Y669649D01*
X521298Y668727D01*
X523078Y668250D01*
X524922D01*
X526702Y668727D01*
X528298Y669649D01*
X529601Y670952D01*
X530523Y672548D01*
X531000Y674328D01*
Y676171D01*
X530523Y677952D01*
X529601Y679548D01*
X528298Y680851D01*
X526702Y681773D01*
X524922Y682250D01*
D02*
G37*
G36*
X461196Y660750D02*
X457904D01*
X454725Y659898D01*
X451875Y658252D01*
X449548Y655925D01*
X447902Y653075D01*
X447507Y651603D01*
X446193D01*
X445798Y653075D01*
X444152Y655925D01*
X441825Y658252D01*
X438975Y659898D01*
X435796Y660750D01*
X432504D01*
X429325Y659898D01*
X426475Y658252D01*
X424147Y655925D01*
X422502Y653075D01*
X422107Y651603D01*
X420793D01*
X420398Y653075D01*
X418753Y655925D01*
X416425Y658252D01*
X413575Y659898D01*
X410396Y660750D01*
X407104D01*
X403925Y659898D01*
X401075Y658252D01*
X398747Y655925D01*
X397102Y653075D01*
X396707Y651603D01*
X395393D01*
X394998Y653075D01*
X393353Y655925D01*
X391025Y658252D01*
X388175Y659898D01*
X384996Y660750D01*
X381704D01*
X378525Y659898D01*
X375675Y658252D01*
X373348Y655925D01*
X371702Y653075D01*
X370850Y649896D01*
Y646604D01*
X371702Y643425D01*
X373348Y640575D01*
X375675Y638247D01*
X378525Y636602D01*
X381704Y635750D01*
X384996D01*
X388175Y636602D01*
X391025Y638247D01*
X393353Y640575D01*
X394998Y643425D01*
X395393Y644897D01*
X396707D01*
X397102Y643425D01*
X398747Y640575D01*
X401075Y638247D01*
X403925Y636602D01*
X407104Y635750D01*
X410396D01*
X413575Y636602D01*
X416425Y638247D01*
X418753Y640575D01*
X420398Y643425D01*
X420793Y644897D01*
X422107D01*
X422502Y643425D01*
X424147Y640575D01*
X426475Y638247D01*
X429325Y636602D01*
X432504Y635750D01*
X435796D01*
X438975Y636602D01*
X441825Y638247D01*
X444152Y640575D01*
X445798Y643425D01*
X446193Y644897D01*
X447507D01*
X447902Y643425D01*
X449548Y640575D01*
X451875Y638247D01*
X454725Y636602D01*
X457904Y635750D01*
X461196D01*
X464375Y636602D01*
X467225Y638247D01*
X469552Y640575D01*
X471198Y643425D01*
X472050Y646604D01*
Y649896D01*
X471198Y653075D01*
X469552Y655925D01*
X467225Y658252D01*
X464375Y659898D01*
X461196Y660750D01*
D02*
G37*
G36*
X511922Y658750D02*
X510078D01*
X508298Y658273D01*
X506702Y657351D01*
X505399Y656048D01*
X504477Y654452D01*
X504000Y652672D01*
Y650828D01*
X504477Y649048D01*
X505399Y647452D01*
X506702Y646149D01*
X508298Y645227D01*
X510078Y644750D01*
X511922D01*
X513702Y645227D01*
X515298Y646149D01*
X516601Y647452D01*
X517523Y649048D01*
X518000Y650828D01*
Y652672D01*
X517523Y654452D01*
X516601Y656048D01*
X515298Y657351D01*
X513702Y658273D01*
X511922Y658750D01*
D02*
G37*
G36*
X240672Y639500D02*
X238828D01*
X237048Y639023D01*
X235452Y638101D01*
X234149Y636798D01*
X233227Y635202D01*
X232750Y633422D01*
Y631843D01*
X232279Y631221D01*
X231657Y630750D01*
X230078D01*
X228298Y630273D01*
X226702Y629351D01*
X225399Y628048D01*
X224477Y626452D01*
X224000Y624672D01*
Y622828D01*
X224477Y621048D01*
X225399Y619452D01*
X225476Y619375D01*
X225399Y619298D01*
X224477Y617702D01*
X224000Y615922D01*
Y614078D01*
X224477Y612298D01*
X225399Y610702D01*
X225476Y610625D01*
X225399Y610548D01*
X224477Y608952D01*
X224000Y607172D01*
Y605328D01*
X224477Y603548D01*
X225399Y601952D01*
X225476Y601875D01*
X225399Y601798D01*
X224477Y600202D01*
X224000Y598422D01*
Y596578D01*
X224477Y594798D01*
X225399Y593202D01*
X226702Y591899D01*
X228298Y590977D01*
X230078Y590500D01*
X231657D01*
X232279Y590029D01*
X232750Y589407D01*
Y587828D01*
X233227Y586048D01*
X234149Y584452D01*
X235452Y583149D01*
X237048Y582227D01*
X238828Y581750D01*
X240672D01*
X242452Y582227D01*
X244048Y583149D01*
X244125Y583226D01*
X244202Y583149D01*
X245798Y582227D01*
X247578Y581750D01*
X249422D01*
X251202Y582227D01*
X252798Y583149D01*
X254101Y584452D01*
X255023Y586048D01*
X255500Y587828D01*
Y589672D01*
X255023Y591452D01*
X254101Y593048D01*
X254025Y593125D01*
X254101Y593202D01*
X255023Y594798D01*
X255500Y596578D01*
Y598422D01*
X255023Y600202D01*
X254101Y601798D01*
X254025Y601875D01*
X254101Y601952D01*
X255023Y603548D01*
X255500Y605328D01*
Y606907D01*
X255971Y607529D01*
X256593Y608000D01*
X258172D01*
X259952Y608477D01*
X261548Y609399D01*
X261625Y609476D01*
X261702Y609399D01*
X263298Y608477D01*
X265078Y608000D01*
X266922D01*
X268702Y608477D01*
X270298Y609399D01*
X270375Y609476D01*
X270452Y609399D01*
X272048Y608477D01*
X273828Y608000D01*
X275672D01*
X277452Y608477D01*
X279048Y609399D01*
X280351Y610702D01*
X281273Y612298D01*
X281750Y614078D01*
Y615922D01*
X281273Y617702D01*
X280351Y619298D01*
X280274Y619375D01*
X280351Y619452D01*
X281273Y621048D01*
X281750Y622828D01*
Y624672D01*
X281273Y626452D01*
X280351Y628048D01*
X279048Y629351D01*
X277452Y630273D01*
X275672Y630750D01*
X273828D01*
X272048Y630273D01*
X270452Y629351D01*
X270375Y629274D01*
X270298Y629351D01*
X268702Y630273D01*
X266922Y630750D01*
X265078D01*
X263298Y630273D01*
X261702Y629351D01*
X261625Y629274D01*
X261548Y629351D01*
X259952Y630273D01*
X258172Y630750D01*
X256328D01*
X254548Y630273D01*
X252952Y629351D01*
X252875Y629274D01*
X252798Y629351D01*
X251202Y630273D01*
X249422Y630750D01*
X247843D01*
X247221Y631221D01*
X246750Y631843D01*
Y633422D01*
X246273Y635202D01*
X245351Y636798D01*
X244048Y638101D01*
X242452Y639023D01*
X240672Y639500D01*
D02*
G37*
G36*
X430172Y612750D02*
X428328D01*
X426548Y612273D01*
X424952Y611351D01*
X423649Y610048D01*
X422727Y608452D01*
X422250Y606672D01*
Y604828D01*
X422727Y603048D01*
X423649Y601452D01*
X424952Y600149D01*
X426548Y599227D01*
X428328Y598750D01*
X430172D01*
X431952Y599227D01*
X433548Y600149D01*
X434851Y601452D01*
X435773Y603048D01*
X436250Y604828D01*
Y606672D01*
X435773Y608452D01*
X434851Y610048D01*
X433548Y611351D01*
X431952Y612273D01*
X430172Y612750D01*
D02*
G37*
G36*
X538500Y573500D02*
X511500D01*
Y568706D01*
X510230Y568462D01*
X507889Y570803D01*
X504811Y572580D01*
X501377Y573500D01*
X497823D01*
X494389Y572580D01*
X491311Y570803D01*
X488797Y568289D01*
X487020Y565211D01*
X486100Y561777D01*
Y558223D01*
X487020Y554789D01*
X488797Y551711D01*
X491311Y549197D01*
X494389Y547420D01*
X497823Y546500D01*
X501377D01*
X504811Y547420D01*
X507889Y549197D01*
X510230Y551538D01*
X511500Y551294D01*
Y546500D01*
X538500D01*
Y573500D01*
D02*
G37*
G36*
X246922Y579000D02*
X245078D01*
X243298Y578523D01*
X241702Y577601D01*
X240399Y576298D01*
X239477Y574702D01*
X239000Y572922D01*
Y571078D01*
X239477Y569298D01*
X240399Y567702D01*
X241702Y566399D01*
X243298Y565477D01*
X245078Y565000D01*
X246922D01*
X248702Y565477D01*
X250298Y566399D01*
X251601Y567702D01*
X252523Y569298D01*
X253000Y571078D01*
Y572922D01*
X252523Y574702D01*
X251601Y576298D01*
X250298Y577601D01*
X248702Y578523D01*
X246922Y579000D01*
D02*
G37*
G36*
X287672Y548000D02*
X285828D01*
X284048Y547523D01*
X282452Y546601D01*
X281875Y546025D01*
X281298Y546601D01*
X279702Y547523D01*
X277922Y548000D01*
X276078D01*
X274298Y547523D01*
X272702Y546601D01*
X272250Y546149D01*
X271798Y546601D01*
X270202Y547523D01*
X268422Y548000D01*
X266578D01*
X264798Y547523D01*
X263202Y546601D01*
X261899Y545298D01*
X260977Y543702D01*
X260500Y541922D01*
Y540078D01*
X260977Y538298D01*
X261899Y536702D01*
X263202Y535399D01*
X264798Y534477D01*
X266578Y534000D01*
X268422D01*
X270202Y534477D01*
X271798Y535399D01*
X272250Y535850D01*
X272702Y535399D01*
X274298Y534477D01*
X276078Y534000D01*
X277922D01*
X279702Y534477D01*
X281298Y535399D01*
X281875Y535976D01*
X282452Y535399D01*
X284048Y534477D01*
X285828Y534000D01*
X287672D01*
X289452Y534477D01*
X291048Y535399D01*
X292351Y536702D01*
X293273Y538298D01*
X293750Y540078D01*
Y541922D01*
X293273Y543702D01*
X292351Y545298D01*
X291048Y546601D01*
X289452Y547523D01*
X287672Y548000D01*
D02*
G37*
G36*
X653900Y528500D02*
X626900D01*
Y523706D01*
X625630Y523462D01*
X623289Y525803D01*
X620211Y527580D01*
X616777Y528500D01*
X613223D01*
X609789Y527580D01*
X606711Y525803D01*
X604197Y523289D01*
X602420Y520211D01*
X601500Y516777D01*
Y513223D01*
X602420Y509789D01*
X604197Y506711D01*
X606711Y504197D01*
X609789Y502420D01*
X613223Y501500D01*
X616777D01*
X620211Y502420D01*
X623289Y504197D01*
X625630Y506538D01*
X626900Y506294D01*
Y501500D01*
X653900D01*
Y528500D01*
D02*
G37*
G36*
X220172Y541250D02*
X218328D01*
X216548Y540773D01*
X214952Y539851D01*
X213649Y538548D01*
X212727Y536952D01*
X212250Y535172D01*
Y533328D01*
X212727Y531548D01*
X213649Y529952D01*
X214952Y528649D01*
X216548Y527727D01*
X217972Y527346D01*
X218328Y527250D01*
X218280Y526000D01*
X217921Y526000D01*
X217328D01*
X215548Y525523D01*
X213952Y524601D01*
X212649Y523298D01*
X211727Y521702D01*
X211250Y519922D01*
Y518078D01*
X211727Y516298D01*
X212649Y514702D01*
X213952Y513399D01*
X215548Y512477D01*
X217328Y512000D01*
X219172D01*
X220952Y512477D01*
X222548Y513399D01*
X223851Y514702D01*
X224773Y516298D01*
X225250Y518078D01*
Y519922D01*
X224773Y521702D01*
X223851Y523298D01*
X222548Y524601D01*
X220952Y525523D01*
X219528Y525905D01*
X219172Y526000D01*
X219220Y527250D01*
X219579Y527250D01*
X220172D01*
X221952Y527727D01*
X223548Y528649D01*
X224851Y529952D01*
X225773Y531548D01*
X226250Y533328D01*
Y535172D01*
X225773Y536952D01*
X224851Y538548D01*
X223548Y539851D01*
X221952Y540773D01*
X220172Y541250D01*
D02*
G37*
G36*
X953396Y573500D02*
X950104D01*
X946925Y572648D01*
X944075Y571003D01*
X941748Y568675D01*
X940102Y565825D01*
X939250Y562646D01*
Y559354D01*
X940102Y556175D01*
X941748Y553325D01*
X944075Y550998D01*
X946925Y549352D01*
X948397Y548957D01*
Y547643D01*
X946925Y547248D01*
X944075Y545602D01*
X941748Y543275D01*
X940102Y540425D01*
X939250Y537246D01*
Y533954D01*
X940102Y530775D01*
X941748Y527925D01*
X944075Y525597D01*
X946925Y523952D01*
X948397Y523557D01*
Y522243D01*
X946925Y521848D01*
X944075Y520202D01*
X941748Y517875D01*
X940102Y515025D01*
X939250Y511846D01*
Y508554D01*
X940102Y505375D01*
X941748Y502525D01*
X944075Y500197D01*
X946925Y498552D01*
X950104Y497700D01*
X953396D01*
X956575Y498552D01*
X959425Y500197D01*
X961752Y502525D01*
X963398Y505375D01*
X964250Y508554D01*
Y511846D01*
X963398Y515025D01*
X961752Y517875D01*
X959425Y520202D01*
X956575Y521848D01*
X955103Y522243D01*
Y523557D01*
X956575Y523952D01*
X959425Y525597D01*
X961752Y527925D01*
X963398Y530775D01*
X964250Y533954D01*
Y537246D01*
X963398Y540425D01*
X961752Y543275D01*
X959425Y545602D01*
X956575Y547248D01*
X955103Y547643D01*
Y548957D01*
X956575Y549352D01*
X959425Y550998D01*
X961752Y553325D01*
X963398Y556175D01*
X964250Y559354D01*
Y562646D01*
X963398Y565825D01*
X961752Y568675D01*
X959425Y571003D01*
X956575Y572648D01*
X953396Y573500D01*
D02*
G37*
G36*
X872896D02*
X869604D01*
X866425Y572648D01*
X863575Y571003D01*
X861247Y568675D01*
X859602Y565825D01*
X858750Y562646D01*
Y559354D01*
X859602Y556175D01*
X861247Y553325D01*
X863575Y550998D01*
X866425Y549352D01*
X867897Y548957D01*
Y547643D01*
X866425Y547248D01*
X863575Y545602D01*
X861247Y543275D01*
X859602Y540425D01*
X858750Y537246D01*
Y533954D01*
X859602Y530775D01*
X861247Y527925D01*
X863575Y525597D01*
X866425Y523952D01*
X867897Y523557D01*
Y522243D01*
X866425Y521848D01*
X863575Y520202D01*
X861247Y517875D01*
X859602Y515025D01*
X858750Y511846D01*
Y508554D01*
X859602Y505375D01*
X861247Y502525D01*
X863575Y500197D01*
X866425Y498552D01*
X869604Y497700D01*
X872896D01*
X876075Y498552D01*
X878925Y500197D01*
X881253Y502525D01*
X882898Y505375D01*
X883750Y508554D01*
Y511846D01*
X882898Y515025D01*
X881253Y517875D01*
X878925Y520202D01*
X876075Y521848D01*
X874603Y522243D01*
Y523557D01*
X876075Y523952D01*
X878925Y525597D01*
X881253Y527925D01*
X882898Y530775D01*
X883750Y533954D01*
Y537246D01*
X882898Y540425D01*
X881253Y543275D01*
X878925Y545602D01*
X876075Y547248D01*
X874603Y547643D01*
Y548957D01*
X876075Y549352D01*
X878925Y550998D01*
X881253Y553325D01*
X882898Y556175D01*
X883750Y559354D01*
Y562646D01*
X882898Y565825D01*
X881253Y568675D01*
X878925Y571003D01*
X876075Y572648D01*
X872896Y573500D01*
D02*
G37*
G36*
X790562D02*
X787271D01*
X784092Y572648D01*
X781242Y571003D01*
X778914Y568675D01*
X777269Y565825D01*
X776417Y562646D01*
Y559354D01*
X777269Y556175D01*
X778914Y553325D01*
X781242Y550998D01*
X784092Y549352D01*
X785564Y548957D01*
Y547643D01*
X784092Y547248D01*
X781242Y545602D01*
X778914Y543275D01*
X777269Y540425D01*
X776417Y537246D01*
Y533954D01*
X777269Y530775D01*
X778914Y527925D01*
X781242Y525597D01*
X784092Y523952D01*
X785564Y523557D01*
Y522243D01*
X784092Y521848D01*
X781242Y520202D01*
X778914Y517875D01*
X777269Y515025D01*
X776417Y511846D01*
Y508554D01*
X777269Y505375D01*
X778914Y502525D01*
X781242Y500197D01*
X784092Y498552D01*
X787271Y497700D01*
X790562D01*
X793742Y498552D01*
X796592Y500197D01*
X798919Y502525D01*
X800565Y505375D01*
X801417Y508554D01*
Y511846D01*
X800565Y515025D01*
X798919Y517875D01*
X796592Y520202D01*
X793742Y521848D01*
X792269Y522243D01*
Y523557D01*
X793742Y523952D01*
X796592Y525597D01*
X798919Y527925D01*
X800565Y530775D01*
X801417Y533954D01*
Y537246D01*
X800565Y540425D01*
X798919Y543275D01*
X796592Y545602D01*
X793742Y547248D01*
X792269Y547643D01*
Y548957D01*
X793742Y549352D01*
X796592Y550998D01*
X798919Y553325D01*
X800565Y556175D01*
X801417Y559354D01*
Y562646D01*
X800565Y565825D01*
X798919Y568675D01*
X796592Y571003D01*
X793742Y572648D01*
X790562Y573500D01*
D02*
G37*
G36*
X708396Y573300D02*
X705104D01*
X701925Y572448D01*
X699075Y570802D01*
X696748Y568475D01*
X695102Y565625D01*
X694250Y562446D01*
Y559154D01*
X695102Y555975D01*
X696748Y553125D01*
X699075Y550798D01*
X701925Y549152D01*
X703397Y548757D01*
Y547443D01*
X701925Y547048D01*
X699075Y545402D01*
X696748Y543075D01*
X695102Y540225D01*
X694250Y537046D01*
Y533754D01*
X695102Y530575D01*
X696748Y527725D01*
X699075Y525397D01*
X701925Y523752D01*
X703397Y523357D01*
Y522043D01*
X701925Y521648D01*
X699075Y520003D01*
X696748Y517675D01*
X695102Y514825D01*
X694250Y511646D01*
Y508354D01*
X695102Y505175D01*
X696748Y502325D01*
X699075Y499997D01*
X701925Y498352D01*
X705104Y497500D01*
X708396D01*
X711575Y498352D01*
X714425Y499997D01*
X716752Y502325D01*
X718398Y505175D01*
X719250Y508354D01*
Y511646D01*
X718398Y514825D01*
X716752Y517675D01*
X714425Y520003D01*
X711575Y521648D01*
X710103Y522043D01*
Y523357D01*
X711575Y523752D01*
X714425Y525397D01*
X716752Y527725D01*
X718398Y530575D01*
X719250Y533754D01*
Y537046D01*
X718398Y540225D01*
X716752Y543075D01*
X714425Y545402D01*
X711575Y547048D01*
X710103Y547443D01*
Y548757D01*
X711575Y549152D01*
X714425Y550798D01*
X716752Y553125D01*
X718398Y555975D01*
X719250Y559154D01*
Y562446D01*
X718398Y565625D01*
X716752Y568475D01*
X714425Y570802D01*
X711575Y572448D01*
X708396Y573300D01*
D02*
G37*
G36*
X131959Y545250D02*
X128141D01*
X124453Y544262D01*
X121147Y542353D01*
X118447Y539653D01*
X116538Y536347D01*
X115550Y532659D01*
Y528841D01*
X116538Y525153D01*
X118447Y521847D01*
X121147Y519147D01*
X121947Y518685D01*
Y517415D01*
X121147Y516953D01*
X118447Y514253D01*
X116538Y510947D01*
X115550Y507259D01*
Y503441D01*
X116538Y499753D01*
X118447Y496447D01*
X121147Y493747D01*
X124453Y491838D01*
X128141Y490850D01*
X131959D01*
X135647Y491838D01*
X138953Y493747D01*
X141653Y496447D01*
X143562Y499753D01*
X144550Y503441D01*
Y507259D01*
X143562Y510947D01*
X141653Y514253D01*
X138953Y516953D01*
X138153Y517415D01*
Y518685D01*
X138953Y519147D01*
X141653Y521847D01*
X143562Y525153D01*
X144550Y528841D01*
Y532659D01*
X143562Y536347D01*
X141653Y539653D01*
X138953Y542353D01*
X135647Y544262D01*
X131959Y545250D01*
D02*
G37*
G36*
X81159D02*
X77341D01*
X73653Y544262D01*
X70347Y542353D01*
X67647Y539653D01*
X65738Y536347D01*
X64750Y532659D01*
Y528841D01*
X65738Y525153D01*
X67647Y521847D01*
X70347Y519147D01*
X71147Y518685D01*
Y517415D01*
X70347Y516953D01*
X67647Y514253D01*
X65738Y510947D01*
X64750Y507259D01*
Y503441D01*
X65738Y499753D01*
X67647Y496447D01*
X70347Y493747D01*
X73653Y491838D01*
X77341Y490850D01*
X81159D01*
X84847Y491838D01*
X88153Y493747D01*
X90853Y496447D01*
X92762Y499753D01*
X93750Y503441D01*
Y507259D01*
X92762Y510947D01*
X90853Y514253D01*
X88153Y516953D01*
X87353Y517415D01*
Y518685D01*
X88153Y519147D01*
X90853Y521847D01*
X92762Y525153D01*
X93750Y528841D01*
Y532659D01*
X92762Y536347D01*
X90853Y539653D01*
X88153Y542353D01*
X84847Y544262D01*
X81159Y545250D01*
D02*
G37*
G36*
X534172Y503250D02*
X532328D01*
X530548Y502773D01*
X528952Y501851D01*
X527649Y500548D01*
X526727Y498952D01*
X526250Y497172D01*
Y495328D01*
X526727Y493548D01*
X527649Y491952D01*
X528952Y490649D01*
X530548Y489727D01*
X532328Y489250D01*
X534172D01*
X535952Y489727D01*
X537548Y490649D01*
X538851Y491952D01*
X539773Y493548D01*
X540250Y495328D01*
Y497172D01*
X539773Y498952D01*
X538851Y500548D01*
X537548Y501851D01*
X535952Y502773D01*
X534172Y503250D01*
D02*
G37*
G36*
X402922Y486250D02*
X401078D01*
X399298Y485773D01*
X397702Y484851D01*
X397625Y484775D01*
X397548Y484851D01*
X395952Y485773D01*
X394172Y486250D01*
X392328D01*
X390548Y485773D01*
X388952Y484851D01*
X387649Y483548D01*
X386727Y481952D01*
X386250Y480172D01*
Y478328D01*
X386727Y476548D01*
X387649Y474952D01*
X387725Y474875D01*
X387649Y474798D01*
X386727Y473202D01*
X386250Y471422D01*
Y469578D01*
X386727Y467798D01*
X387649Y466202D01*
X387725Y466125D01*
X387649Y466048D01*
X386727Y464452D01*
X386250Y462672D01*
Y460828D01*
X386727Y459048D01*
X387649Y457452D01*
X388952Y456149D01*
X390548Y455227D01*
X392328Y454750D01*
X394172D01*
X395952Y455227D01*
X397548Y456149D01*
X397625Y456226D01*
X397702Y456149D01*
X399298Y455227D01*
X401078Y454750D01*
X402922D01*
X404702Y455227D01*
X406298Y456149D01*
X407601Y457452D01*
X408523Y459048D01*
X409000Y460828D01*
Y462672D01*
X408523Y464452D01*
X407601Y466048D01*
X407524Y466125D01*
X407601Y466202D01*
X408523Y467798D01*
X409000Y469578D01*
Y471422D01*
X408523Y473202D01*
X407601Y474798D01*
X407524Y474875D01*
X407601Y474952D01*
X408523Y476548D01*
X409000Y478328D01*
Y480172D01*
X408523Y481952D01*
X407601Y483548D01*
X406298Y484851D01*
X404702Y485773D01*
X402922Y486250D01*
D02*
G37*
G36*
X233422Y495000D02*
X231578D01*
X229798Y494523D01*
X228202Y493601D01*
X226899Y492298D01*
X225977Y490702D01*
X225500Y488922D01*
Y487078D01*
X225977Y485298D01*
X226899Y483702D01*
X228202Y482399D01*
X229798Y481477D01*
X231578Y481000D01*
X233422D01*
X235202Y481477D01*
X236798Y482399D01*
X238101Y483702D01*
X239023Y485298D01*
X239500Y487078D01*
Y488922D01*
X239023Y490702D01*
X238101Y492298D01*
X236798Y493601D01*
X235202Y494523D01*
X233422Y495000D01*
D02*
G37*
G36*
X299422Y492500D02*
X297578D01*
X295798Y492023D01*
X294202Y491101D01*
X292899Y489798D01*
X291977Y488202D01*
X291500Y486422D01*
Y484578D01*
X291977Y482798D01*
X292899Y481202D01*
X294202Y479899D01*
X295798Y478977D01*
X297578Y478500D01*
X299422D01*
X301202Y478977D01*
X302798Y479899D01*
X304101Y481202D01*
X305023Y482798D01*
X305500Y484578D01*
Y486422D01*
X305023Y488202D01*
X304101Y489798D01*
X302798Y491101D01*
X301202Y492023D01*
X299422Y492500D01*
D02*
G37*
G36*
X182422Y487000D02*
X180578D01*
X178798Y486523D01*
X177202Y485601D01*
X175899Y484298D01*
X174977Y482702D01*
X174500Y480922D01*
Y479078D01*
X174977Y477298D01*
X175899Y475702D01*
X177202Y474399D01*
X178798Y473477D01*
X180578Y473000D01*
X182422D01*
X184202Y473477D01*
X185798Y474399D01*
X187101Y475702D01*
X188023Y477298D01*
X188500Y479078D01*
Y480922D01*
X188023Y482702D01*
X187101Y484298D01*
X185798Y485601D01*
X184202Y486523D01*
X182422Y487000D01*
D02*
G37*
G36*
X533672Y481000D02*
X531828D01*
X530048Y480523D01*
X528452Y479601D01*
X527149Y478298D01*
X526227Y476702D01*
X525750Y474922D01*
Y473078D01*
X526227Y471298D01*
X527149Y469702D01*
X528452Y468399D01*
X530048Y467477D01*
X531828Y467000D01*
X533672D01*
X535452Y467477D01*
X537048Y468399D01*
X538351Y469702D01*
X539273Y471298D01*
X539750Y473078D01*
Y474922D01*
X539273Y476702D01*
X538351Y478298D01*
X537048Y479601D01*
X535452Y480523D01*
X533672Y481000D01*
D02*
G37*
G36*
X293900Y463500D02*
X266900D01*
Y458706D01*
X265630Y458462D01*
X263289Y460803D01*
X260211Y462580D01*
X256777Y463500D01*
X253223D01*
X249789Y462580D01*
X246711Y460803D01*
X244197Y458289D01*
X242420Y455211D01*
X241500Y451777D01*
Y448223D01*
X242420Y444789D01*
X244197Y441711D01*
X246711Y439197D01*
X249789Y437420D01*
X253223Y436500D01*
X256777D01*
X260211Y437420D01*
X263289Y439197D01*
X265630Y441538D01*
X266900Y441294D01*
Y436500D01*
X293900D01*
Y463500D01*
D02*
G37*
G36*
X101922Y468000D02*
X100078D01*
X98298Y467523D01*
X96702Y466601D01*
X95399Y465298D01*
X94477Y463702D01*
X94000Y461922D01*
Y460078D01*
X94477Y458298D01*
X95399Y456702D01*
X96702Y455399D01*
X98298Y454477D01*
X100078Y454000D01*
X101922D01*
X103702Y454477D01*
X105298Y455399D01*
X106601Y456702D01*
X107523Y458298D01*
X108000Y460078D01*
Y461922D01*
X107523Y463702D01*
X106601Y465298D01*
X105298Y466601D01*
X103702Y467523D01*
X101922Y468000D01*
D02*
G37*
G36*
X748422Y457250D02*
X746578D01*
X744798Y456773D01*
X743202Y455851D01*
X741899Y454548D01*
X740977Y452952D01*
X740500Y451172D01*
Y449328D01*
X740977Y447548D01*
X741899Y445952D01*
X743202Y444649D01*
X744798Y443727D01*
X746578Y443250D01*
X748422D01*
X750202Y443727D01*
X751798Y444649D01*
X753101Y445952D01*
X754023Y447548D01*
X754500Y449328D01*
Y451172D01*
X754023Y452952D01*
X753101Y454548D01*
X751798Y455851D01*
X750202Y456773D01*
X748422Y457250D01*
D02*
G37*
G36*
X992422Y456500D02*
X990578D01*
X988798Y456023D01*
X987202Y455101D01*
X985899Y453798D01*
X984977Y452202D01*
X984500Y450422D01*
Y448578D01*
X984977Y446798D01*
X985899Y445202D01*
X987202Y443899D01*
X988798Y442977D01*
X990578Y442500D01*
X992422D01*
X994202Y442977D01*
X995798Y443899D01*
X997101Y445202D01*
X998023Y446798D01*
X998500Y448578D01*
Y450422D01*
X998023Y452202D01*
X997101Y453798D01*
X995798Y455101D01*
X994202Y456023D01*
X992422Y456500D01*
D02*
G37*
G36*
X909422Y456250D02*
X907578D01*
X905798Y455773D01*
X904202Y454851D01*
X902899Y453548D01*
X901977Y451952D01*
X901500Y450172D01*
Y448328D01*
X901977Y446548D01*
X902899Y444952D01*
X904202Y443649D01*
X905798Y442727D01*
X907578Y442250D01*
X909422D01*
X911202Y442727D01*
X912798Y443649D01*
X914101Y444952D01*
X915023Y446548D01*
X915500Y448328D01*
Y450172D01*
X915023Y451952D01*
X914101Y453548D01*
X912798Y454851D01*
X911202Y455773D01*
X909422Y456250D01*
D02*
G37*
G36*
X830172Y455500D02*
X828328D01*
X826548Y455023D01*
X824952Y454101D01*
X823649Y452798D01*
X822727Y451202D01*
X822250Y449422D01*
Y447578D01*
X822727Y445798D01*
X823649Y444202D01*
X824952Y442899D01*
X826548Y441977D01*
X828328Y441500D01*
X830172D01*
X831952Y441977D01*
X833548Y442899D01*
X834851Y444202D01*
X835773Y445798D01*
X836250Y447578D01*
Y449422D01*
X835773Y451202D01*
X834851Y452798D01*
X833548Y454101D01*
X831952Y455023D01*
X830172Y455500D01*
D02*
G37*
G36*
X563922Y436750D02*
X562078D01*
X560298Y436273D01*
X558702Y435351D01*
X558625Y435275D01*
X558548Y435351D01*
X556952Y436273D01*
X555172Y436750D01*
X553328D01*
X551548Y436273D01*
X549952Y435351D01*
X548649Y434048D01*
X547727Y432452D01*
X547250Y430672D01*
Y428828D01*
X547727Y427048D01*
X548649Y425452D01*
X548726Y425375D01*
X548649Y425298D01*
X547727Y423702D01*
X547250Y421922D01*
Y420078D01*
X547727Y418298D01*
X548649Y416702D01*
X549952Y415399D01*
X551548Y414477D01*
X553328Y414000D01*
X555172D01*
X556952Y414477D01*
X558548Y415399D01*
X558625Y415476D01*
X558702Y415399D01*
X560298Y414477D01*
X562078Y414000D01*
X563922D01*
X565702Y414477D01*
X567298Y415399D01*
X568601Y416702D01*
X569523Y418298D01*
X570000Y420078D01*
Y421922D01*
X569523Y423702D01*
X568601Y425298D01*
X568525Y425375D01*
X568601Y425452D01*
X569523Y427048D01*
X570000Y428828D01*
Y430672D01*
X569523Y432452D01*
X568601Y434048D01*
X567298Y435351D01*
X565702Y436273D01*
X563922Y436750D01*
D02*
G37*
G36*
X352672D02*
X350828D01*
X349048Y436273D01*
X347452Y435351D01*
X346149Y434048D01*
X345227Y432452D01*
X344750Y430672D01*
Y428828D01*
X345227Y427048D01*
X346149Y425452D01*
X347452Y424149D01*
X349048Y423227D01*
X350828Y422750D01*
X352672D01*
X354452Y423227D01*
X356048Y424149D01*
X357351Y425452D01*
X358273Y427048D01*
X358750Y428828D01*
Y430672D01*
X358273Y432452D01*
X357351Y434048D01*
X356048Y435351D01*
X354452Y436273D01*
X352672Y436750D01*
D02*
G37*
G36*
X977922Y430000D02*
X976078D01*
X974298Y429523D01*
X972702Y428601D01*
X971399Y427298D01*
X970477Y425702D01*
X970000Y423922D01*
Y422078D01*
X970477Y420298D01*
X971399Y418702D01*
X972702Y417399D01*
X974298Y416477D01*
X976078Y416000D01*
X977922D01*
X979702Y416477D01*
X981298Y417399D01*
X982601Y418702D01*
X983523Y420298D01*
X984000Y422078D01*
Y423922D01*
X983523Y425702D01*
X982601Y427298D01*
X981298Y428601D01*
X979702Y429523D01*
X977922Y430000D01*
D02*
G37*
G36*
X891922D02*
X890078D01*
X888298Y429523D01*
X886702Y428601D01*
X885399Y427298D01*
X884477Y425702D01*
X884000Y423922D01*
Y422078D01*
X884477Y420298D01*
X885399Y418702D01*
X886702Y417399D01*
X888298Y416477D01*
X890078Y416000D01*
X891922D01*
X893702Y416477D01*
X895298Y417399D01*
X896601Y418702D01*
X897523Y420298D01*
X898000Y422078D01*
Y423922D01*
X897523Y425702D01*
X896601Y427298D01*
X895298Y428601D01*
X893702Y429523D01*
X891922Y430000D01*
D02*
G37*
G36*
X814922D02*
X813078D01*
X811298Y429523D01*
X809702Y428601D01*
X808399Y427298D01*
X807477Y425702D01*
X807000Y423922D01*
Y422078D01*
X807477Y420298D01*
X808399Y418702D01*
X809702Y417399D01*
X811298Y416477D01*
X813078Y416000D01*
X814922D01*
X816702Y416477D01*
X818298Y417399D01*
X819601Y418702D01*
X820523Y420298D01*
X821000Y422078D01*
Y423922D01*
X820523Y425702D01*
X819601Y427298D01*
X818298Y428601D01*
X816702Y429523D01*
X814922Y430000D01*
D02*
G37*
G36*
X730922Y429000D02*
X729078D01*
X727298Y428523D01*
X725702Y427601D01*
X724399Y426298D01*
X723477Y424702D01*
X723000Y422922D01*
Y421078D01*
X723477Y419298D01*
X724399Y417702D01*
X725702Y416399D01*
X727298Y415477D01*
X729078Y415000D01*
X730922D01*
X732702Y415477D01*
X734298Y416399D01*
X735601Y417702D01*
X736523Y419298D01*
X737000Y421078D01*
Y422922D01*
X736523Y424702D01*
X735601Y426298D01*
X734298Y427601D01*
X732702Y428523D01*
X730922Y429000D01*
D02*
G37*
G36*
X120922Y418000D02*
X119078D01*
X117298Y417523D01*
X115702Y416601D01*
X114399Y415298D01*
X113477Y413702D01*
X113000Y411922D01*
Y410078D01*
X113477Y408298D01*
X114399Y406702D01*
X115702Y405399D01*
X117298Y404477D01*
X119078Y404000D01*
X120922D01*
X122702Y404477D01*
X124298Y405399D01*
X125601Y406702D01*
X126523Y408298D01*
X127000Y410078D01*
Y411922D01*
X126523Y413702D01*
X125601Y415298D01*
X124298Y416601D01*
X122702Y417523D01*
X120922Y418000D01*
D02*
G37*
G36*
X288172Y410000D02*
X286328D01*
X284548Y409523D01*
X282952Y408601D01*
X281649Y407298D01*
X280727Y405702D01*
X280250Y403922D01*
Y402078D01*
X280727Y400298D01*
X281649Y398702D01*
X282952Y397399D01*
X284548Y396477D01*
X286328Y396000D01*
X288172D01*
X289952Y396477D01*
X291548Y397399D01*
X292851Y398702D01*
X293773Y400298D01*
X294250Y402078D01*
Y403922D01*
X293773Y405702D01*
X292851Y407298D01*
X291548Y408601D01*
X289952Y409523D01*
X288172Y410000D01*
D02*
G37*
G36*
X247422Y408500D02*
X245578D01*
X243798Y408023D01*
X242202Y407101D01*
X240899Y405798D01*
X239977Y404202D01*
X239500Y402422D01*
Y400578D01*
X239977Y398798D01*
X240899Y397202D01*
X242202Y395899D01*
X243798Y394977D01*
X245578Y394500D01*
X247422D01*
X249202Y394977D01*
X250798Y395899D01*
X252101Y397202D01*
X253023Y398798D01*
X253500Y400578D01*
Y402422D01*
X253023Y404202D01*
X252101Y405798D01*
X250798Y407101D01*
X249202Y408023D01*
X247422Y408500D01*
D02*
G37*
G36*
X100922Y407750D02*
X99078D01*
X97298Y407273D01*
X95702Y406351D01*
X94399Y405048D01*
X93477Y403452D01*
X93000Y401672D01*
Y399828D01*
X93477Y398048D01*
X94399Y396452D01*
X95702Y395149D01*
X97298Y394227D01*
X99078Y393750D01*
X100922D01*
X102702Y394227D01*
X104298Y395149D01*
X105601Y396452D01*
X106523Y398048D01*
X107000Y399828D01*
Y401672D01*
X106523Y403452D01*
X105601Y405048D01*
X104298Y406351D01*
X102702Y407273D01*
X100922Y407750D01*
D02*
G37*
G36*
X550172Y401500D02*
X548328D01*
X546548Y401023D01*
X544952Y400101D01*
X543649Y398798D01*
X542727Y397202D01*
X542250Y395422D01*
Y393578D01*
X542727Y391798D01*
X543649Y390202D01*
X544952Y388899D01*
X546548Y387977D01*
X548328Y387500D01*
X550172D01*
X551952Y387977D01*
X553548Y388899D01*
X554851Y390202D01*
X555773Y391798D01*
X556250Y393578D01*
Y395422D01*
X555773Y397202D01*
X554851Y398798D01*
X553548Y400101D01*
X551952Y401023D01*
X550172Y401500D01*
D02*
G37*
G36*
X588672Y400500D02*
X586828D01*
X585048Y400023D01*
X583452Y399101D01*
X582149Y397798D01*
X581227Y396202D01*
X580750Y394422D01*
Y392578D01*
X581227Y390798D01*
X582149Y389202D01*
X583452Y387899D01*
X585048Y386977D01*
X586828Y386500D01*
X588672D01*
X590452Y386977D01*
X592048Y387899D01*
X593351Y389202D01*
X594273Y390798D01*
X594750Y392578D01*
Y394422D01*
X594273Y396202D01*
X593351Y397798D01*
X592048Y399101D01*
X590452Y400023D01*
X588672Y400500D01*
D02*
G37*
G36*
X480172Y389000D02*
X478328D01*
X476548Y388523D01*
X474952Y387601D01*
X473649Y386298D01*
X472727Y384702D01*
X472250Y382922D01*
Y381078D01*
X472727Y379298D01*
X473649Y377702D01*
X474952Y376399D01*
X476548Y375477D01*
X478328Y375000D01*
X480172D01*
X481952Y375477D01*
X483548Y376399D01*
X484851Y377702D01*
X485773Y379298D01*
X486250Y381078D01*
Y382922D01*
X485773Y384702D01*
X484851Y386298D01*
X483548Y387601D01*
X481952Y388523D01*
X480172Y389000D01*
D02*
G37*
G36*
X392422Y388250D02*
X390578D01*
X388798Y387773D01*
X387202Y386851D01*
X385899Y385548D01*
X384977Y383952D01*
X384500Y382172D01*
Y380328D01*
X384977Y378548D01*
X385899Y376952D01*
X387202Y375649D01*
X388798Y374727D01*
X390578Y374250D01*
X392422D01*
X394202Y374727D01*
X395798Y375649D01*
X397101Y376952D01*
X398023Y378548D01*
X398500Y380328D01*
Y382172D01*
X398023Y383952D01*
X397101Y385548D01*
X395798Y386851D01*
X394202Y387773D01*
X392422Y388250D01*
D02*
G37*
G36*
X252422Y387500D02*
X250578D01*
X248798Y387023D01*
X247202Y386101D01*
X245899Y384798D01*
X244977Y383202D01*
X244500Y381422D01*
Y379578D01*
X244977Y377798D01*
X245899Y376202D01*
X247202Y374899D01*
X248798Y373977D01*
X250578Y373500D01*
X252422D01*
X254202Y373977D01*
X255798Y374899D01*
X257101Y376202D01*
X258023Y377798D01*
X258500Y379578D01*
Y381422D01*
X258023Y383202D01*
X257101Y384798D01*
X255798Y386101D01*
X254202Y387023D01*
X252422Y387500D01*
D02*
G37*
G36*
X464172Y372250D02*
X462328D01*
X460548Y371773D01*
X458952Y370851D01*
X457649Y369548D01*
X456727Y367952D01*
X456250Y366172D01*
Y364328D01*
X456727Y362548D01*
X457649Y360952D01*
X458952Y359649D01*
X460548Y358727D01*
X462328Y358250D01*
X464172D01*
X465952Y358727D01*
X467548Y359649D01*
X468851Y360952D01*
X469773Y362548D01*
X470250Y364328D01*
Y366172D01*
X469773Y367952D01*
X468851Y369548D01*
X467548Y370851D01*
X465952Y371773D01*
X464172Y372250D01*
D02*
G37*
G36*
X521922Y366250D02*
X520078D01*
X518298Y365773D01*
X516702Y364851D01*
X515399Y363548D01*
X514477Y361952D01*
X514000Y360172D01*
Y358328D01*
X514477Y356548D01*
X515399Y354952D01*
X516702Y353649D01*
X518298Y352727D01*
X520078Y352250D01*
X521922D01*
X523702Y352727D01*
X525298Y353649D01*
X526601Y354952D01*
X527523Y356548D01*
X528000Y358328D01*
Y360172D01*
X527523Y361952D01*
X526601Y363548D01*
X525298Y364851D01*
X523702Y365773D01*
X521922Y366250D01*
D02*
G37*
G36*
X101922Y366000D02*
X100078D01*
X98298Y365523D01*
X96702Y364601D01*
X95399Y363298D01*
X94477Y361702D01*
X94000Y359922D01*
Y358078D01*
X94477Y356298D01*
X95399Y354702D01*
X96702Y353399D01*
X98298Y352477D01*
X100078Y352000D01*
X101922D01*
X103702Y352477D01*
X105298Y353399D01*
X106601Y354702D01*
X107523Y356298D01*
X108000Y358078D01*
Y359922D01*
X107523Y361702D01*
X106601Y363298D01*
X105298Y364601D01*
X103702Y365523D01*
X101922Y366000D01*
D02*
G37*
G36*
X658672Y361250D02*
X656828D01*
X655048Y360773D01*
X653452Y359851D01*
X652149Y358548D01*
X651227Y356952D01*
X650750Y355172D01*
Y353328D01*
X651227Y351548D01*
X652149Y349952D01*
X653452Y348649D01*
X655048Y347727D01*
X656828Y347250D01*
X658672D01*
X660452Y347727D01*
X662048Y348649D01*
X663351Y349952D01*
X664273Y351548D01*
X664750Y353328D01*
Y355172D01*
X664273Y356952D01*
X663351Y358548D01*
X662048Y359851D01*
X660452Y360773D01*
X658672Y361250D01*
D02*
G37*
G36*
X119922Y359000D02*
X118078D01*
X116298Y358523D01*
X114702Y357601D01*
X113399Y356298D01*
X112477Y354702D01*
X112000Y352922D01*
Y351078D01*
X112477Y349298D01*
X113399Y347702D01*
X114702Y346399D01*
X116298Y345477D01*
X118078Y345000D01*
X119922D01*
X121702Y345477D01*
X123298Y346399D01*
X124601Y347702D01*
X125523Y349298D01*
X126000Y351078D01*
Y352922D01*
X125523Y354702D01*
X124601Y356298D01*
X123298Y357601D01*
X121702Y358523D01*
X119922Y359000D01*
D02*
G37*
G36*
X223422Y355000D02*
X221578D01*
X219798Y354523D01*
X218202Y353601D01*
X216899Y352298D01*
X215977Y350702D01*
X215500Y348922D01*
Y347078D01*
X215977Y345298D01*
X216899Y343702D01*
X218202Y342399D01*
X219798Y341477D01*
X221578Y341000D01*
X223422D01*
X225202Y341477D01*
X226798Y342399D01*
X228101Y343702D01*
X229023Y345298D01*
X229500Y347078D01*
Y348922D01*
X229023Y350702D01*
X228101Y352298D01*
X226798Y353601D01*
X225202Y354523D01*
X223422Y355000D01*
D02*
G37*
G36*
X493672Y349000D02*
X491828D01*
X490048Y348523D01*
X488452Y347601D01*
X487149Y346298D01*
X486227Y344702D01*
X485750Y342922D01*
Y341078D01*
X486227Y339298D01*
X487149Y337702D01*
X488452Y336399D01*
X490048Y335477D01*
X491828Y335000D01*
X493672D01*
X495452Y335477D01*
X497048Y336399D01*
X498351Y337702D01*
X499273Y339298D01*
X499750Y341078D01*
Y342922D01*
X499273Y344702D01*
X498351Y346298D01*
X497048Y347601D01*
X495452Y348523D01*
X493672Y349000D01*
D02*
G37*
G36*
X625672Y328500D02*
X623828D01*
X622048Y328023D01*
X620452Y327101D01*
X619149Y325798D01*
X618227Y324202D01*
X617750Y322422D01*
Y320578D01*
X618227Y318798D01*
X619149Y317202D01*
X620452Y315899D01*
X622048Y314977D01*
X623828Y314500D01*
X625672D01*
X627452Y314977D01*
X629048Y315899D01*
X630351Y317202D01*
X631273Y318798D01*
X631750Y320578D01*
Y322422D01*
X631273Y324202D01*
X630351Y325798D01*
X629048Y327101D01*
X627452Y328023D01*
X625672Y328500D01*
D02*
G37*
G36*
X575172D02*
X573328D01*
X571548Y328023D01*
X569952Y327101D01*
X568649Y325798D01*
X567727Y324202D01*
X567250Y322422D01*
Y320578D01*
X567727Y318798D01*
X568649Y317202D01*
X569952Y315899D01*
X571548Y314977D01*
X573328Y314500D01*
X575172D01*
X576952Y314977D01*
X578548Y315899D01*
X579851Y317202D01*
X580773Y318798D01*
X581250Y320578D01*
Y322422D01*
X580773Y324202D01*
X579851Y325798D01*
X578548Y327101D01*
X576952Y328023D01*
X575172Y328500D01*
D02*
G37*
G36*
X462422Y320500D02*
X460578D01*
X458798Y320023D01*
X457202Y319101D01*
X455899Y317798D01*
X454977Y316202D01*
X454500Y314422D01*
Y312578D01*
X454977Y310798D01*
X455899Y309202D01*
X457202Y307899D01*
X458798Y306977D01*
X460578Y306500D01*
X462422D01*
X464202Y306977D01*
X465798Y307899D01*
X466250Y308351D01*
X466952Y307649D01*
X468548Y306727D01*
X470328Y306250D01*
X472172D01*
X473952Y306727D01*
X475548Y307649D01*
X476851Y308952D01*
X477773Y310548D01*
X478250Y312328D01*
Y314172D01*
X477773Y315952D01*
X476851Y317548D01*
X475548Y318851D01*
X473952Y319773D01*
X472172Y320250D01*
X470328D01*
X468548Y319773D01*
X466952Y318851D01*
X466500Y318400D01*
X465798Y319101D01*
X464202Y320023D01*
X462422Y320500D01*
D02*
G37*
G36*
X165422Y318000D02*
X163578D01*
X161798Y317523D01*
X160202Y316601D01*
X158899Y315298D01*
X157977Y313702D01*
X157500Y311922D01*
Y310078D01*
X157977Y308298D01*
X158899Y306702D01*
X160202Y305399D01*
X161798Y304477D01*
X163578Y304000D01*
X165422D01*
X167202Y304477D01*
X168798Y305399D01*
X170101Y306702D01*
X171023Y308298D01*
X171500Y310078D01*
Y311922D01*
X171023Y313702D01*
X170101Y315298D01*
X168798Y316601D01*
X167202Y317523D01*
X165422Y318000D01*
D02*
G37*
G36*
X120922Y314000D02*
X119078D01*
X117298Y313523D01*
X115702Y312601D01*
X114399Y311298D01*
X113477Y309702D01*
X113000Y307922D01*
Y306078D01*
X113477Y304298D01*
X114399Y302702D01*
X115702Y301399D01*
X117298Y300477D01*
X119078Y300000D01*
X120922D01*
X122702Y300477D01*
X124298Y301399D01*
X125601Y302702D01*
X126523Y304298D01*
X127000Y306078D01*
Y307922D01*
X126523Y309702D01*
X125601Y311298D01*
X124298Y312601D01*
X122702Y313523D01*
X120922Y314000D01*
D02*
G37*
G36*
X99922Y307000D02*
X98078D01*
X96298Y306523D01*
X94702Y305601D01*
X93399Y304298D01*
X92477Y302702D01*
X92000Y300922D01*
Y299078D01*
X92477Y297298D01*
X93399Y295702D01*
X94702Y294399D01*
X96298Y293477D01*
X98078Y293000D01*
X99922D01*
X101702Y293477D01*
X103298Y294399D01*
X104601Y295702D01*
X105523Y297298D01*
X106000Y299078D01*
Y300922D01*
X105523Y302702D01*
X104601Y304298D01*
X103298Y305601D01*
X101702Y306523D01*
X99922Y307000D01*
D02*
G37*
G36*
X658672Y304750D02*
X656828D01*
X655048Y304273D01*
X653452Y303351D01*
X652149Y302048D01*
X651227Y300452D01*
X650750Y298672D01*
Y296828D01*
X651227Y295048D01*
X652149Y293452D01*
X653452Y292149D01*
X655048Y291227D01*
X656828Y290750D01*
X658672D01*
X660452Y291227D01*
X662048Y292149D01*
X663351Y293452D01*
X664273Y295048D01*
X664750Y296828D01*
Y298672D01*
X664273Y300452D01*
X663351Y302048D01*
X662048Y303351D01*
X660452Y304273D01*
X658672Y304750D01*
D02*
G37*
G36*
X269672Y300250D02*
X267828D01*
X266048Y299773D01*
X264452Y298851D01*
X263149Y297548D01*
X262227Y295952D01*
X261750Y294172D01*
Y292328D01*
X262227Y290548D01*
X263149Y288952D01*
X264452Y287649D01*
X266048Y286727D01*
X267828Y286250D01*
X269672D01*
X271452Y286727D01*
X273048Y287649D01*
X274351Y288952D01*
X275273Y290548D01*
X275750Y292328D01*
Y294172D01*
X275273Y295952D01*
X274351Y297548D01*
X273048Y298851D01*
X271452Y299773D01*
X269672Y300250D01*
D02*
G37*
G36*
X372422Y299750D02*
X370578D01*
X368798Y299273D01*
X367202Y298351D01*
X365899Y297048D01*
X364977Y295452D01*
X364500Y293672D01*
Y291828D01*
X364977Y290048D01*
X365899Y288452D01*
X367202Y287149D01*
X368798Y286227D01*
X370578Y285750D01*
X372422D01*
X374202Y286227D01*
X375798Y287149D01*
X377101Y288452D01*
X378023Y290048D01*
X378500Y291828D01*
Y293672D01*
X378023Y295452D01*
X377101Y297048D01*
X375798Y298351D01*
X374202Y299273D01*
X372422Y299750D01*
D02*
G37*
G36*
X419381Y429390D02*
X416119D01*
X412968Y428546D01*
X410142Y426914D01*
X407836Y424608D01*
X406204Y421782D01*
X405360Y418631D01*
Y415369D01*
X406204Y412218D01*
X407836Y409392D01*
X410142Y407086D01*
X412968Y405454D01*
X414822Y404957D01*
Y403643D01*
X412968Y403146D01*
X410142Y401515D01*
X407836Y399208D01*
X406204Y396382D01*
X405360Y393231D01*
Y389969D01*
X406204Y386818D01*
X407836Y383992D01*
X410142Y381686D01*
X412968Y380054D01*
X414822Y379557D01*
Y378243D01*
X412968Y377746D01*
X410142Y376115D01*
X407836Y373808D01*
X406204Y370982D01*
X405360Y367831D01*
Y364569D01*
X406204Y361418D01*
X407836Y358592D01*
X410142Y356286D01*
X412968Y354654D01*
X414822Y354157D01*
Y352843D01*
X412968Y352346D01*
X410142Y350714D01*
X407836Y348408D01*
X406204Y345582D01*
X405360Y342431D01*
Y339169D01*
X406204Y336018D01*
X407836Y333192D01*
X410142Y330886D01*
X412968Y329254D01*
X414822Y328757D01*
Y327443D01*
X412968Y326946D01*
X410142Y325314D01*
X407836Y323008D01*
X406204Y320182D01*
X405360Y317031D01*
Y313769D01*
X406204Y310618D01*
X407836Y307792D01*
X410142Y305486D01*
X412968Y303854D01*
X414822Y303357D01*
Y302043D01*
X412968Y301546D01*
X410142Y299914D01*
X407836Y297608D01*
X406204Y294782D01*
X405360Y291631D01*
Y288369D01*
X406204Y285218D01*
X407836Y282392D01*
X410142Y280086D01*
X412968Y278454D01*
X416119Y277610D01*
X419381D01*
X422532Y278454D01*
X425358Y280086D01*
X427664Y282392D01*
X429296Y285218D01*
X430140Y288369D01*
Y291631D01*
X429296Y294782D01*
X427664Y297608D01*
X425358Y299914D01*
X422532Y301546D01*
X420678Y302043D01*
Y303357D01*
X422532Y303854D01*
X425358Y305486D01*
X427664Y307792D01*
X429296Y310618D01*
X430140Y313769D01*
Y317031D01*
X429296Y320182D01*
X427664Y323008D01*
X425358Y325314D01*
X422532Y326946D01*
X420678Y327443D01*
Y328757D01*
X422532Y329254D01*
X425358Y330886D01*
X427664Y333192D01*
X429296Y336018D01*
X430140Y339169D01*
Y342431D01*
X429296Y345582D01*
X427664Y348408D01*
X425358Y350714D01*
X422532Y352346D01*
X420678Y352843D01*
Y354157D01*
X422532Y354654D01*
X425358Y356286D01*
X427664Y358592D01*
X429296Y361418D01*
X430140Y364569D01*
Y367831D01*
X429296Y370982D01*
X427664Y373808D01*
X425358Y376115D01*
X422532Y377746D01*
X420678Y378243D01*
Y379557D01*
X422532Y380054D01*
X425358Y381686D01*
X427664Y383992D01*
X429296Y386818D01*
X430140Y389969D01*
Y393231D01*
X429296Y396382D01*
X427664Y399208D01*
X425358Y401515D01*
X422532Y403146D01*
X420678Y403643D01*
Y404957D01*
X422532Y405454D01*
X425358Y407086D01*
X427664Y409392D01*
X429296Y412218D01*
X430140Y415369D01*
Y418631D01*
X429296Y421782D01*
X427664Y424608D01*
X425358Y426914D01*
X422532Y428546D01*
X419381Y429390D01*
D02*
G37*
G36*
X186172Y287500D02*
X184328D01*
X182548Y287023D01*
X180952Y286101D01*
X179649Y284798D01*
X178727Y283202D01*
X178250Y281422D01*
Y279578D01*
X178727Y277798D01*
X179649Y276202D01*
X180952Y274899D01*
X182548Y273977D01*
X184328Y273500D01*
X186172D01*
X187952Y273977D01*
X189548Y274899D01*
X190851Y276202D01*
X191773Y277798D01*
X192250Y279578D01*
Y281422D01*
X191773Y283202D01*
X190851Y284798D01*
X189548Y286101D01*
X187952Y287023D01*
X186172Y287500D01*
D02*
G37*
G36*
X566172Y286500D02*
X564328D01*
X562548Y286023D01*
X560952Y285101D01*
X559649Y283798D01*
X558727Y282202D01*
X558250Y280422D01*
Y278578D01*
X558727Y276798D01*
X559649Y275202D01*
X560952Y273899D01*
X562548Y272977D01*
X564328Y272500D01*
X566172D01*
X567952Y272977D01*
X569548Y273899D01*
X570851Y275202D01*
X571773Y276798D01*
X572250Y278578D01*
Y280422D01*
X571773Y282202D01*
X570851Y283798D01*
X569548Y285101D01*
X567952Y286023D01*
X566172Y286500D01*
D02*
G37*
G36*
X498172Y271250D02*
X496328D01*
X494548Y270773D01*
X492952Y269851D01*
X491649Y268548D01*
X490727Y266952D01*
X490250Y265172D01*
Y263328D01*
X490727Y261548D01*
X491649Y259952D01*
X492952Y258649D01*
X494548Y257727D01*
X496328Y257250D01*
X498172D01*
X499952Y257727D01*
X501548Y258649D01*
X502851Y259952D01*
X503773Y261548D01*
X504250Y263328D01*
Y265172D01*
X503773Y266952D01*
X502851Y268548D01*
X501548Y269851D01*
X499952Y270773D01*
X498172Y271250D01*
D02*
G37*
G36*
X54881Y456940D02*
X51619D01*
X48468Y456096D01*
X45642Y454464D01*
X43335Y452158D01*
X41704Y449332D01*
X40860Y446181D01*
Y442919D01*
X41704Y439768D01*
X43335Y436942D01*
X45642Y434636D01*
X48468Y433004D01*
X50322Y432507D01*
Y431193D01*
X48468Y430696D01*
X45642Y429064D01*
X43335Y426758D01*
X41704Y423932D01*
X40860Y420781D01*
Y417519D01*
X41704Y414368D01*
X43335Y411542D01*
X45642Y409235D01*
X48468Y407604D01*
X50322Y407107D01*
Y405793D01*
X48468Y405296D01*
X45642Y403664D01*
X43335Y401358D01*
X41704Y398532D01*
X40860Y395381D01*
Y392119D01*
X41704Y388968D01*
X43335Y386142D01*
X45642Y383835D01*
X48468Y382204D01*
X50322Y381707D01*
Y380393D01*
X48468Y379896D01*
X45642Y378264D01*
X43335Y375958D01*
X41704Y373132D01*
X40860Y369981D01*
Y366719D01*
X41704Y363568D01*
X43335Y360742D01*
X45642Y358436D01*
X48468Y356804D01*
X50322Y356307D01*
Y354993D01*
X48468Y354496D01*
X45642Y352864D01*
X43335Y350558D01*
X41704Y347732D01*
X40860Y344581D01*
Y341319D01*
X41704Y338168D01*
X43335Y335342D01*
X45642Y333036D01*
X48468Y331404D01*
X50322Y330907D01*
Y329593D01*
X48468Y329096D01*
X45642Y327464D01*
X43335Y325158D01*
X41704Y322332D01*
X40860Y319181D01*
Y315919D01*
X41704Y312768D01*
X43335Y309942D01*
X45642Y307635D01*
X48468Y306004D01*
X50322Y305507D01*
Y304193D01*
X48468Y303696D01*
X45642Y302064D01*
X43335Y299758D01*
X41704Y296932D01*
X40860Y293781D01*
Y290519D01*
X41704Y287368D01*
X43335Y284542D01*
X45642Y282236D01*
X48468Y280604D01*
X50322Y280107D01*
Y278793D01*
X48468Y278296D01*
X45642Y276664D01*
X43335Y274358D01*
X41704Y271532D01*
X40860Y268381D01*
Y265119D01*
X41704Y261968D01*
X43335Y259142D01*
X45642Y256835D01*
X48468Y255204D01*
X51619Y254360D01*
X54881D01*
X58032Y255204D01*
X60858Y256835D01*
X63164Y259142D01*
X64796Y261968D01*
X65640Y265119D01*
Y268381D01*
X64796Y271532D01*
X63164Y274358D01*
X60858Y276664D01*
X58032Y278296D01*
X56178Y278793D01*
Y280107D01*
X58032Y280604D01*
X60858Y282236D01*
X63164Y284542D01*
X64796Y287368D01*
X65640Y290519D01*
Y293781D01*
X64796Y296932D01*
X63164Y299758D01*
X60858Y302064D01*
X58032Y303696D01*
X56178Y304193D01*
Y305507D01*
X58032Y306004D01*
X60858Y307635D01*
X63164Y309942D01*
X64796Y312768D01*
X65640Y315919D01*
Y319181D01*
X64796Y322332D01*
X63164Y325158D01*
X60858Y327464D01*
X58032Y329096D01*
X56178Y329593D01*
Y330907D01*
X58032Y331404D01*
X60858Y333036D01*
X63164Y335342D01*
X64796Y338168D01*
X65640Y341319D01*
Y344581D01*
X64796Y347732D01*
X63164Y350558D01*
X60858Y352864D01*
X58032Y354496D01*
X56178Y354993D01*
Y356307D01*
X58032Y356804D01*
X60858Y358436D01*
X63164Y360742D01*
X64796Y363568D01*
X65640Y366719D01*
Y369981D01*
X64796Y373132D01*
X63164Y375958D01*
X60858Y378264D01*
X58032Y379896D01*
X56178Y380393D01*
Y381707D01*
X58032Y382204D01*
X60858Y383835D01*
X63164Y386142D01*
X64796Y388968D01*
X65640Y392119D01*
Y395381D01*
X64796Y398532D01*
X63164Y401358D01*
X60858Y403664D01*
X58032Y405296D01*
X56178Y405793D01*
Y407107D01*
X58032Y407604D01*
X60858Y409235D01*
X63164Y411542D01*
X64796Y414368D01*
X65640Y417519D01*
Y420781D01*
X64796Y423932D01*
X63164Y426758D01*
X60858Y429064D01*
X58032Y430696D01*
X56178Y431193D01*
Y432507D01*
X58032Y433004D01*
X60858Y434636D01*
X63164Y436942D01*
X64796Y439768D01*
X65640Y442919D01*
Y446181D01*
X64796Y449332D01*
X63164Y452158D01*
X60858Y454464D01*
X58032Y456096D01*
X54881Y456940D01*
D02*
G37*
G36*
X952881Y403290D02*
X949619D01*
X946468Y402446D01*
X943642Y400815D01*
X941336Y398508D01*
X939704Y395682D01*
X938860Y392531D01*
Y389269D01*
X939704Y386118D01*
X941336Y383292D01*
X943642Y380986D01*
X946468Y379354D01*
X948322Y378857D01*
Y377543D01*
X946468Y377046D01*
X943642Y375415D01*
X941336Y373108D01*
X939704Y370282D01*
X938860Y367131D01*
Y363869D01*
X939704Y360718D01*
X941336Y357892D01*
X943642Y355586D01*
X946468Y353954D01*
X948322Y353457D01*
Y352143D01*
X946468Y351646D01*
X943642Y350014D01*
X941336Y347708D01*
X939704Y344882D01*
X938860Y341731D01*
Y338469D01*
X939704Y335318D01*
X941336Y332492D01*
X943642Y330186D01*
X946468Y328554D01*
X948322Y328057D01*
Y326743D01*
X946468Y326246D01*
X943642Y324614D01*
X941336Y322308D01*
X939704Y319482D01*
X938860Y316331D01*
Y313069D01*
X939704Y309918D01*
X941336Y307092D01*
X943642Y304786D01*
X946468Y303154D01*
X948322Y302657D01*
Y301343D01*
X946468Y300846D01*
X943642Y299214D01*
X941336Y296908D01*
X939704Y294082D01*
X938860Y290931D01*
Y287669D01*
X939704Y284518D01*
X941336Y281692D01*
X943642Y279386D01*
X946468Y277754D01*
X948322Y277257D01*
Y275943D01*
X946468Y275446D01*
X943642Y273815D01*
X941336Y271508D01*
X939704Y268682D01*
X938860Y265531D01*
Y262269D01*
X939704Y259118D01*
X941336Y256292D01*
X943642Y253986D01*
X946468Y252354D01*
X949619Y251510D01*
X952881D01*
X956032Y252354D01*
X958858Y253986D01*
X961164Y256292D01*
X962796Y259118D01*
X963640Y262269D01*
Y265531D01*
X962796Y268682D01*
X961164Y271508D01*
X958858Y273815D01*
X956032Y275446D01*
X954178Y275943D01*
Y277257D01*
X956032Y277754D01*
X958858Y279386D01*
X961164Y281692D01*
X962796Y284518D01*
X963640Y287669D01*
Y290931D01*
X962796Y294082D01*
X961164Y296908D01*
X958858Y299214D01*
X956032Y300846D01*
X954178Y301343D01*
Y302657D01*
X956032Y303154D01*
X958858Y304786D01*
X961164Y307092D01*
X962796Y309918D01*
X963640Y313069D01*
Y316331D01*
X962796Y319482D01*
X961164Y322308D01*
X958858Y324614D01*
X956032Y326246D01*
X954178Y326743D01*
Y328057D01*
X956032Y328554D01*
X958858Y330186D01*
X961164Y332492D01*
X962796Y335318D01*
X963640Y338469D01*
Y341731D01*
X962796Y344882D01*
X961164Y347708D01*
X958858Y350014D01*
X956032Y351646D01*
X954178Y352143D01*
Y353457D01*
X956032Y353954D01*
X958858Y355586D01*
X961164Y357892D01*
X962796Y360718D01*
X963640Y363869D01*
Y367131D01*
X962796Y370282D01*
X961164Y373108D01*
X958858Y375415D01*
X956032Y377046D01*
X954178Y377543D01*
Y378857D01*
X956032Y379354D01*
X958858Y380986D01*
X961164Y383292D01*
X962796Y386118D01*
X963640Y389269D01*
Y392531D01*
X962796Y395682D01*
X961164Y398508D01*
X958858Y400815D01*
X956032Y402446D01*
X952881Y403290D01*
D02*
G37*
G36*
X871464Y402940D02*
X868202D01*
X865051Y402096D01*
X862226Y400465D01*
X859919Y398158D01*
X858288Y395332D01*
X857443Y392181D01*
Y388919D01*
X858288Y385768D01*
X859919Y382942D01*
X862226Y380636D01*
X865051Y379004D01*
X866906Y378507D01*
Y377193D01*
X865051Y376696D01*
X862226Y375065D01*
X859919Y372758D01*
X858288Y369932D01*
X857443Y366781D01*
Y363519D01*
X858288Y360368D01*
X859919Y357542D01*
X862226Y355236D01*
X865051Y353604D01*
X866906Y353107D01*
Y351793D01*
X865051Y351296D01*
X862226Y349664D01*
X859919Y347358D01*
X858288Y344532D01*
X857443Y341381D01*
Y338119D01*
X858288Y334968D01*
X859919Y332142D01*
X862226Y329836D01*
X865051Y328204D01*
X866906Y327707D01*
Y326393D01*
X865051Y325896D01*
X862226Y324264D01*
X859919Y321958D01*
X858288Y319132D01*
X857443Y315981D01*
Y312719D01*
X858288Y309568D01*
X859919Y306742D01*
X862226Y304436D01*
X865051Y302804D01*
X866906Y302307D01*
Y300993D01*
X865051Y300496D01*
X862226Y298864D01*
X859919Y296558D01*
X858288Y293732D01*
X857443Y290581D01*
Y287319D01*
X858288Y284168D01*
X859919Y281342D01*
X862226Y279036D01*
X865051Y277404D01*
X866906Y276907D01*
Y275593D01*
X865051Y275096D01*
X862226Y273465D01*
X859919Y271158D01*
X858288Y268332D01*
X857443Y265181D01*
Y261919D01*
X858288Y258768D01*
X859919Y255942D01*
X862226Y253636D01*
X865051Y252004D01*
X868202Y251160D01*
X871464D01*
X874616Y252004D01*
X877441Y253636D01*
X879748Y255942D01*
X881379Y258768D01*
X882223Y261919D01*
Y265181D01*
X881379Y268332D01*
X879748Y271158D01*
X877441Y273465D01*
X874616Y275096D01*
X872761Y275593D01*
Y276907D01*
X874616Y277404D01*
X877441Y279036D01*
X879748Y281342D01*
X881379Y284168D01*
X882223Y287319D01*
Y290581D01*
X881379Y293732D01*
X879748Y296558D01*
X877441Y298864D01*
X874616Y300496D01*
X872761Y300993D01*
Y302307D01*
X874616Y302804D01*
X877441Y304436D01*
X879748Y306742D01*
X881379Y309568D01*
X882223Y312719D01*
Y315981D01*
X881379Y319132D01*
X879748Y321958D01*
X877441Y324264D01*
X874616Y325896D01*
X872761Y326393D01*
Y327707D01*
X874616Y328204D01*
X877441Y329836D01*
X879748Y332142D01*
X881379Y334968D01*
X882223Y338119D01*
Y341381D01*
X881379Y344532D01*
X879748Y347358D01*
X877441Y349664D01*
X874616Y351296D01*
X872761Y351793D01*
Y353107D01*
X874616Y353604D01*
X877441Y355236D01*
X879748Y357542D01*
X881379Y360368D01*
X882223Y363519D01*
Y366781D01*
X881379Y369932D01*
X879748Y372758D01*
X877441Y375065D01*
X874616Y376696D01*
X872761Y377193D01*
Y378507D01*
X874616Y379004D01*
X877441Y380636D01*
X879748Y382942D01*
X881379Y385768D01*
X882223Y388919D01*
Y392181D01*
X881379Y395332D01*
X879748Y398158D01*
X877441Y400465D01*
X874616Y402096D01*
X871464Y402940D01*
D02*
G37*
G36*
X790048Y402940D02*
X786786D01*
X783634Y402096D01*
X780809Y400465D01*
X778502Y398158D01*
X776871Y395332D01*
X776027Y392181D01*
Y388919D01*
X776871Y385768D01*
X778502Y382942D01*
X780809Y380636D01*
X783634Y379004D01*
X785489Y378507D01*
Y377193D01*
X783634Y376696D01*
X780809Y375065D01*
X778502Y372758D01*
X776871Y369932D01*
X776027Y366781D01*
Y363519D01*
X776871Y360368D01*
X778502Y357542D01*
X780809Y355236D01*
X783634Y353604D01*
X785489Y353107D01*
Y351793D01*
X783634Y351296D01*
X780809Y349664D01*
X778502Y347358D01*
X776871Y344532D01*
X776027Y341381D01*
Y338119D01*
X776871Y334968D01*
X778502Y332142D01*
X780809Y329836D01*
X783634Y328204D01*
X785489Y327707D01*
Y326393D01*
X783634Y325896D01*
X780809Y324264D01*
X778502Y321958D01*
X776871Y319132D01*
X776027Y315981D01*
Y312719D01*
X776871Y309568D01*
X778502Y306742D01*
X780809Y304436D01*
X783634Y302804D01*
X785489Y302307D01*
Y300993D01*
X783634Y300496D01*
X780809Y298864D01*
X778502Y296558D01*
X776871Y293732D01*
X776027Y290581D01*
Y287319D01*
X776871Y284168D01*
X778502Y281342D01*
X780809Y279036D01*
X783634Y277404D01*
X785489Y276907D01*
Y275593D01*
X783634Y275096D01*
X780809Y273465D01*
X778502Y271158D01*
X776871Y268332D01*
X776027Y265181D01*
Y261919D01*
X776871Y258768D01*
X778502Y255942D01*
X780809Y253636D01*
X783634Y252004D01*
X786786Y251160D01*
X790048D01*
X793199Y252004D01*
X796024Y253636D01*
X798331Y255942D01*
X799962Y258768D01*
X800807Y261919D01*
Y265181D01*
X799962Y268332D01*
X798331Y271158D01*
X796024Y273465D01*
X793199Y275096D01*
X791344Y275593D01*
Y276907D01*
X793199Y277404D01*
X796024Y279036D01*
X798331Y281342D01*
X799962Y284168D01*
X800807Y287319D01*
Y290581D01*
X799962Y293732D01*
X798331Y296558D01*
X796024Y298864D01*
X793199Y300496D01*
X791344Y300993D01*
Y302307D01*
X793199Y302804D01*
X796024Y304436D01*
X798331Y306742D01*
X799962Y309568D01*
X800807Y312719D01*
Y315981D01*
X799962Y319132D01*
X798331Y321958D01*
X796024Y324264D01*
X793199Y325896D01*
X791344Y326393D01*
Y327707D01*
X793199Y328204D01*
X796024Y329836D01*
X798331Y332142D01*
X799962Y334968D01*
X800807Y338119D01*
Y341381D01*
X799962Y344532D01*
X798331Y347358D01*
X796024Y349664D01*
X793199Y351296D01*
X791344Y351793D01*
Y353107D01*
X793199Y353604D01*
X796024Y355236D01*
X798331Y357542D01*
X799962Y360368D01*
X800807Y363519D01*
Y366781D01*
X799962Y369932D01*
X798331Y372758D01*
X796024Y375065D01*
X793199Y376696D01*
X791344Y377193D01*
Y378507D01*
X793199Y379004D01*
X796024Y380636D01*
X798331Y382942D01*
X799962Y385768D01*
X800807Y388919D01*
Y392181D01*
X799962Y395332D01*
X798331Y398158D01*
X796024Y400465D01*
X793199Y402096D01*
X790048Y402940D01*
D02*
G37*
G36*
X708631D02*
X705369D01*
X702218Y402096D01*
X699392Y400465D01*
X697086Y398158D01*
X695454Y395332D01*
X694610Y392181D01*
Y388919D01*
X695454Y385768D01*
X697086Y382942D01*
X699392Y380636D01*
X702218Y379004D01*
X704072Y378507D01*
Y377193D01*
X702218Y376696D01*
X699392Y375065D01*
X697086Y372758D01*
X695454Y369932D01*
X694610Y366781D01*
Y363519D01*
X695454Y360368D01*
X697086Y357542D01*
X699392Y355236D01*
X702218Y353604D01*
X704072Y353107D01*
Y351793D01*
X702218Y351296D01*
X699392Y349664D01*
X697086Y347358D01*
X695454Y344532D01*
X694610Y341381D01*
Y338119D01*
X695454Y334968D01*
X697086Y332142D01*
X699392Y329836D01*
X702218Y328204D01*
X704072Y327707D01*
Y326393D01*
X702218Y325896D01*
X699392Y324264D01*
X697086Y321958D01*
X695454Y319132D01*
X694610Y315981D01*
Y312719D01*
X695454Y309568D01*
X697086Y306742D01*
X699392Y304436D01*
X702218Y302804D01*
X704072Y302307D01*
Y300993D01*
X702218Y300496D01*
X699392Y298864D01*
X697086Y296558D01*
X695454Y293732D01*
X694610Y290581D01*
Y287319D01*
X695454Y284168D01*
X697086Y281342D01*
X699392Y279036D01*
X702218Y277404D01*
X704072Y276907D01*
Y275593D01*
X702218Y275096D01*
X699392Y273465D01*
X697086Y271158D01*
X695454Y268332D01*
X694610Y265181D01*
Y261919D01*
X695454Y258768D01*
X697086Y255942D01*
X699392Y253636D01*
X702218Y252004D01*
X705369Y251160D01*
X708631D01*
X711782Y252004D01*
X714608Y253636D01*
X716915Y255942D01*
X718546Y258768D01*
X719390Y261919D01*
Y265181D01*
X718546Y268332D01*
X716915Y271158D01*
X714608Y273465D01*
X711782Y275096D01*
X709928Y275593D01*
Y276907D01*
X711782Y277404D01*
X714608Y279036D01*
X716915Y281342D01*
X718546Y284168D01*
X719390Y287319D01*
Y290581D01*
X718546Y293732D01*
X716915Y296558D01*
X714608Y298864D01*
X711782Y300496D01*
X709928Y300993D01*
Y302307D01*
X711782Y302804D01*
X714608Y304436D01*
X716915Y306742D01*
X718546Y309568D01*
X719390Y312719D01*
Y315981D01*
X718546Y319132D01*
X716915Y321958D01*
X714608Y324264D01*
X711782Y325896D01*
X709928Y326393D01*
Y327707D01*
X711782Y328204D01*
X714608Y329836D01*
X716915Y332142D01*
X718546Y334968D01*
X719390Y338119D01*
Y341381D01*
X718546Y344532D01*
X716915Y347358D01*
X714608Y349664D01*
X711782Y351296D01*
X709928Y351793D01*
Y353107D01*
X711782Y353604D01*
X714608Y355236D01*
X716915Y357542D01*
X718546Y360368D01*
X719390Y363519D01*
Y366781D01*
X718546Y369932D01*
X716915Y372758D01*
X714608Y375065D01*
X711782Y376696D01*
X709928Y377193D01*
Y378507D01*
X711782Y379004D01*
X714608Y380636D01*
X716915Y382942D01*
X718546Y385768D01*
X719390Y388919D01*
Y392181D01*
X718546Y395332D01*
X716915Y398158D01*
X714608Y400465D01*
X711782Y402096D01*
X708631Y402940D01*
D02*
G37*
G36*
X120172Y255750D02*
X118328D01*
X116548Y255273D01*
X114952Y254351D01*
X113649Y253048D01*
X112727Y251452D01*
X112250Y249672D01*
Y247828D01*
X112727Y246048D01*
X113649Y244452D01*
X114952Y243149D01*
X116548Y242227D01*
X118328Y241750D01*
X120172D01*
X121952Y242227D01*
X123548Y243149D01*
X124851Y244452D01*
X125773Y246048D01*
X126250Y247828D01*
Y249672D01*
X125773Y251452D01*
X124851Y253048D01*
X123548Y254351D01*
X121952Y255273D01*
X120172Y255750D01*
D02*
G37*
G36*
X953750Y249104D02*
Y241000D01*
X961854D01*
X961398Y242703D01*
X959964Y245187D01*
X957937Y247214D01*
X955453Y248648D01*
X953750Y249104D01*
D02*
G37*
G36*
X948750D02*
X947047Y248648D01*
X944563Y247214D01*
X942536Y245187D01*
X941102Y242703D01*
X940646Y241000D01*
X948750D01*
Y249104D01*
D02*
G37*
G36*
X872333Y248754D02*
Y240650D01*
X880438D01*
X879981Y242353D01*
X878548Y244837D01*
X876520Y246864D01*
X874037Y248298D01*
X872333Y248754D01*
D02*
G37*
G36*
X867333Y248754D02*
X865630Y248298D01*
X863147Y246864D01*
X861119Y244837D01*
X859686Y242353D01*
X859229Y240650D01*
X867333D01*
Y248754D01*
D02*
G37*
G36*
X790917Y248754D02*
Y240650D01*
X799021D01*
X798565Y242353D01*
X797131Y244837D01*
X795103Y246864D01*
X792620Y248298D01*
X790917Y248754D01*
D02*
G37*
G36*
X709500D02*
Y240650D01*
X717604D01*
X717148Y242353D01*
X715714Y244837D01*
X713687Y246864D01*
X711203Y248298D01*
X709500Y248754D01*
D02*
G37*
G36*
X785917D02*
X784213Y248298D01*
X781730Y246864D01*
X779703Y244837D01*
X778269Y242353D01*
X777812Y240650D01*
X785917D01*
Y248754D01*
D02*
G37*
G36*
X704500D02*
X702797Y248298D01*
X700313Y246864D01*
X698286Y244837D01*
X696852Y242353D01*
X696396Y240650D01*
X704500D01*
Y248754D01*
D02*
G37*
G36*
X64750Y245400D02*
X55250D01*
Y235900D01*
X64750D01*
Y245400D01*
D02*
G37*
G36*
X50250D02*
X40750D01*
Y235900D01*
X50250D01*
Y245400D01*
D02*
G37*
G36*
X961854Y236000D02*
X953750D01*
Y227896D01*
X955453Y228352D01*
X957937Y229786D01*
X959964Y231813D01*
X961398Y234297D01*
X961854Y236000D01*
D02*
G37*
G36*
X948750D02*
X940646D01*
X941102Y234297D01*
X942536Y231813D01*
X944563Y229786D01*
X947047Y228352D01*
X948750Y227896D01*
Y236000D01*
D02*
G37*
G36*
X867333Y235650D02*
X859229D01*
X859686Y233947D01*
X861119Y231463D01*
X863147Y229436D01*
X865630Y228002D01*
X867333Y227546D01*
Y235650D01*
D02*
G37*
G36*
X880438D02*
X872333D01*
Y227546D01*
X874037Y228002D01*
X876520Y229436D01*
X878548Y231463D01*
X879981Y233947D01*
X880438Y235650D01*
D02*
G37*
G36*
X799021Y235650D02*
X790917D01*
Y227546D01*
X792620Y228002D01*
X795103Y229436D01*
X797131Y231463D01*
X798565Y233947D01*
X799021Y235650D01*
D02*
G37*
G36*
X717604D02*
X709500D01*
Y227546D01*
X711203Y228002D01*
X713687Y229436D01*
X715714Y231463D01*
X717148Y233947D01*
X717604Y235650D01*
D02*
G37*
G36*
X785917D02*
X777812D01*
X778269Y233947D01*
X779703Y231463D01*
X781730Y229436D01*
X784213Y228002D01*
X785917Y227546D01*
Y235650D01*
D02*
G37*
G36*
X704500D02*
X696396D01*
X696852Y233947D01*
X698286Y231463D01*
X700313Y229436D01*
X702797Y228002D01*
X704500Y227546D01*
Y235650D01*
D02*
G37*
G36*
X528900Y228500D02*
X501900D01*
Y223706D01*
X500630Y223462D01*
X498289Y225803D01*
X495211Y227580D01*
X491777Y228500D01*
X488223D01*
X484789Y227580D01*
X481711Y225803D01*
X479197Y223289D01*
X477420Y220211D01*
X476500Y216777D01*
Y213223D01*
X477420Y209789D01*
X479197Y206711D01*
X481711Y204197D01*
X484789Y202420D01*
X488223Y201500D01*
X491777D01*
X495211Y202420D01*
X498289Y204197D01*
X500630Y206538D01*
X501900Y206294D01*
Y201500D01*
X528900D01*
Y228500D01*
D02*
G37*
G36*
X193500D02*
X166500D01*
Y223706D01*
X165230Y223462D01*
X162889Y225803D01*
X159811Y227580D01*
X156377Y228500D01*
X152823D01*
X149389Y227580D01*
X146311Y225803D01*
X143797Y223289D01*
X142020Y220211D01*
X141100Y216777D01*
Y213223D01*
X142020Y209789D01*
X143797Y206711D01*
X146311Y204197D01*
X149389Y202420D01*
X152823Y201500D01*
X156377D01*
X159811Y202420D01*
X162889Y204197D01*
X165230Y206538D01*
X166500Y206294D01*
Y201500D01*
X193500D01*
Y228500D01*
D02*
G37*
G36*
X64750Y230900D02*
X55250D01*
Y221400D01*
X64750D01*
Y230900D01*
D02*
G37*
G36*
X50250D02*
X40750D01*
Y221400D01*
X50250D01*
Y230900D01*
D02*
G37*
G36*
X55250Y219753D02*
Y210500D01*
X64503D01*
X63932Y212632D01*
X62352Y215368D01*
X60118Y217602D01*
X57382Y219182D01*
X55250Y219753D01*
D02*
G37*
G36*
X50250D02*
X48118Y219182D01*
X45382Y217602D01*
X43148Y215368D01*
X41568Y212632D01*
X40997Y210500D01*
X50250D01*
Y219753D01*
D02*
G37*
G36*
X64503Y205500D02*
X55250D01*
Y196246D01*
X57382Y196818D01*
X60118Y198398D01*
X62352Y200632D01*
X63932Y203368D01*
X64503Y205500D01*
D02*
G37*
G36*
X50250D02*
X40997D01*
X41568Y203368D01*
X43148Y200632D01*
X45382Y198398D01*
X48118Y196818D01*
X50250Y196246D01*
Y205500D01*
D02*
G37*
G36*
X904486Y85400D02*
X899213D01*
X894006Y84575D01*
X888990Y82946D01*
X884292Y80552D01*
X880026Y77452D01*
X876298Y73724D01*
X873198Y69458D01*
X870804Y64759D01*
X869175Y59745D01*
X868350Y54536D01*
Y49264D01*
X869175Y44055D01*
X870804Y39041D01*
X873198Y34342D01*
X876298Y30076D01*
X880026Y26348D01*
X884292Y23248D01*
X888990Y20854D01*
X894006Y19225D01*
X899213Y18400D01*
X904486D01*
X909695Y19225D01*
X914710Y20854D01*
X919408Y23248D01*
X923674Y26348D01*
X927402Y30076D01*
X930502Y34342D01*
X932896Y39041D01*
X934525Y44055D01*
X935350Y49264D01*
Y54536D01*
X934525Y59745D01*
X932896Y64759D01*
X930502Y69458D01*
X927402Y73724D01*
X923674Y77452D01*
X919408Y80552D01*
X914710Y82946D01*
X909695Y84575D01*
X904486Y85400D01*
D02*
G37*
G36*
X134586D02*
X129313D01*
X124105Y84575D01*
X119090Y82946D01*
X114392Y80552D01*
X110126Y77452D01*
X106398Y73724D01*
X103298Y69458D01*
X100904Y64759D01*
X99275Y59745D01*
X98450Y54536D01*
Y49264D01*
X99275Y44055D01*
X100904Y39041D01*
X103298Y34342D01*
X106398Y30076D01*
X110126Y26348D01*
X114392Y23248D01*
X119090Y20854D01*
X124105Y19225D01*
X129313Y18400D01*
X134586D01*
X139795Y19225D01*
X144810Y20854D01*
X149508Y23248D01*
X153774Y26348D01*
X157502Y30076D01*
X160602Y34342D01*
X162996Y39041D01*
X164625Y44055D01*
X165450Y49264D01*
Y54536D01*
X164625Y59745D01*
X162996Y64759D01*
X160602Y69458D01*
X157502Y73724D01*
X153774Y77452D01*
X149508Y80552D01*
X144810Y82946D01*
X139795Y84575D01*
X134586Y85400D01*
D02*
G37*
%LPD*%
D94*
X640400Y515000D02*
D03*
X525000Y560000D02*
D03*
X280400Y450000D02*
D03*
X515400Y215000D02*
D03*
X180000D02*
D03*
D95*
X615000Y515000D02*
D03*
X499600Y560000D02*
D03*
X255000Y450000D02*
D03*
X490000Y215000D02*
D03*
X154600D02*
D03*
X52750Y208000D02*
D03*
D96*
X706750Y560800D02*
D03*
Y535400D02*
D03*
Y510000D02*
D03*
X383350Y648250D02*
D03*
X408750D02*
D03*
X434150D02*
D03*
X459550D02*
D03*
X871250Y510200D02*
D03*
Y535600D02*
D03*
Y561000D02*
D03*
X951750Y510200D02*
D03*
Y535600D02*
D03*
Y561000D02*
D03*
X788917Y510200D02*
D03*
Y535600D02*
D03*
Y561000D02*
D03*
X493000Y745000D02*
D03*
X343000D02*
D03*
D97*
X951250Y238500D02*
D03*
Y365500D02*
D03*
Y390900D02*
D03*
Y340100D02*
D03*
Y314700D02*
D03*
Y289300D02*
D03*
Y263900D02*
D03*
X53250Y317550D02*
D03*
Y342950D02*
D03*
Y368350D02*
D03*
Y393750D02*
D03*
Y444550D02*
D03*
Y419150D02*
D03*
Y292150D02*
D03*
Y266750D02*
D03*
X869833Y238150D02*
D03*
Y365150D02*
D03*
Y390550D02*
D03*
Y339750D02*
D03*
Y314350D02*
D03*
Y288950D02*
D03*
Y263550D02*
D03*
X788417Y238150D02*
D03*
Y365150D02*
D03*
Y390550D02*
D03*
Y339750D02*
D03*
Y314350D02*
D03*
Y288950D02*
D03*
Y263550D02*
D03*
X707000Y238150D02*
D03*
Y365150D02*
D03*
Y390550D02*
D03*
Y339750D02*
D03*
Y314350D02*
D03*
Y288950D02*
D03*
Y263550D02*
D03*
X417750Y391600D02*
D03*
Y417000D02*
D03*
Y366200D02*
D03*
Y340800D02*
D03*
Y315400D02*
D03*
Y290000D02*
D03*
D98*
X79250Y505350D02*
D03*
X130050D02*
D03*
X79250Y530750D02*
D03*
X130050D02*
D03*
D99*
X52750Y233400D02*
D03*
D100*
X131950Y51900D02*
D03*
X901850D02*
D03*
Y731900D02*
D03*
X131950D02*
D03*
D101*
X977000Y423000D02*
D03*
X891000D02*
D03*
X814000D02*
D03*
X730000Y422000D02*
D03*
X101000Y461000D02*
D03*
X120000Y411000D02*
D03*
X119000Y352000D02*
D03*
X101000Y359000D02*
D03*
X120000Y307000D02*
D03*
X99000Y300000D02*
D03*
X246000Y572000D02*
D03*
X347000Y683000D02*
D03*
X239750Y632500D02*
D03*
Y588750D02*
D03*
X248500D02*
D03*
X239750Y597500D02*
D03*
X231000D02*
D03*
X248500D02*
D03*
X239750Y606250D02*
D03*
X231000D02*
D03*
X248500D02*
D03*
X274750Y623750D02*
D03*
Y615000D02*
D03*
X266000Y623750D02*
D03*
Y615000D02*
D03*
X257250Y623750D02*
D03*
Y615000D02*
D03*
X248500Y623750D02*
D03*
Y615000D02*
D03*
X231000D02*
D03*
X239750D02*
D03*
Y623750D02*
D03*
X231000D02*
D03*
X298500Y485500D02*
D03*
X267500Y541000D02*
D03*
X286750D02*
D03*
X277000D02*
D03*
X219250Y534250D02*
D03*
X218250Y519000D02*
D03*
X232500Y488000D02*
D03*
X181500Y480000D02*
D03*
X533250Y496250D02*
D03*
X532750Y474000D02*
D03*
X585000Y695750D02*
D03*
X511000Y651750D02*
D03*
X524000Y675250D02*
D03*
X491250Y710500D02*
D03*
X429250Y605750D02*
D03*
X991500Y449500D02*
D03*
X908500Y449250D02*
D03*
X829250Y448500D02*
D03*
X747500Y450250D02*
D03*
X471250Y313250D02*
D03*
X479250Y382000D02*
D03*
X463250Y365250D02*
D03*
X521000Y359250D02*
D03*
X549250Y394500D02*
D03*
X554250Y429750D02*
D03*
X563000D02*
D03*
Y421000D02*
D03*
X554250D02*
D03*
X587750Y393500D02*
D03*
X497250Y264250D02*
D03*
X565250Y279500D02*
D03*
X574250Y321500D02*
D03*
X624750D02*
D03*
X657750Y354250D02*
D03*
Y297750D02*
D03*
X393250Y479250D02*
D03*
Y470500D02*
D03*
Y461750D02*
D03*
X402000D02*
D03*
Y470500D02*
D03*
Y479250D02*
D03*
X351750Y429750D02*
D03*
X391500Y381250D02*
D03*
X371500Y292750D02*
D03*
X222500Y348000D02*
D03*
X287250Y403000D02*
D03*
X251500Y380500D02*
D03*
X246500Y401500D02*
D03*
X268750Y293250D02*
D03*
X100000Y400750D02*
D03*
X119250Y248750D02*
D03*
X185250Y280500D02*
D03*
X164500Y311000D02*
D03*
X492750Y342000D02*
D03*
X461500Y313500D02*
D03*
M02*
