G04*
G04 #@! TF.GenerationSoftware,Altium Limited,Altium Designer,23.0.1 (38)*
G04*
G04 Layer_Color=8388736*
%FSLAX44Y44*%
%MOMM*%
G71*
G04*
G04 #@! TF.SameCoordinates,FF345AFA-0CE5-413A-8FAD-513570D1C1FC*
G04*
G04*
G04 #@! TF.FilePolarity,Negative*
G04*
G01*
G75*
%ADD39R,1.3532X1.3032*%
%ADD40O,2.7032X1.2032*%
%ADD41O,2.6032X1.2032*%
%ADD42R,1.3032X1.3532*%
%ADD43R,2.0032X3.6032*%
%ADD44R,1.2032X0.7832*%
%ADD45R,1.7032X0.6532*%
%ADD46R,0.8032X1.3032*%
%ADD47R,1.5532X2.0032*%
%ADD48R,2.9032X1.4532*%
%ADD49R,0.6032X0.7032*%
%ADD50R,2.0032X1.5532*%
%ADD51R,2.7032X5.3032*%
%ADD52R,2.3032X2.0032*%
%ADD53R,2.0032X2.3032*%
%ADD54R,0.8032X1.2032*%
%ADD55R,3.2032X3.2032*%
%ADD56R,0.6532X1.7032*%
%ADD57R,1.2532X0.8032*%
%ADD58R,1.7532X1.4032*%
%ADD59R,1.4032X1.0032*%
%ADD60R,2.2032X2.2032*%
%ADD61C,2.2032*%
%ADD62C,2.0032*%
%ADD63C,1.9812*%
%ADD64C,2.4032*%
%ADD65R,2.2032X2.2032*%
%ADD66C,6.2032*%
D39*
X960000Y423000D02*
D03*
X942000D02*
D03*
X876000D02*
D03*
X858000D02*
D03*
X797000D02*
D03*
X779000D02*
D03*
X716000Y422000D02*
D03*
X698000D02*
D03*
X248500Y281250D02*
D03*
X266500D02*
D03*
X515000Y460500D02*
D03*
X533000D02*
D03*
X363000Y281000D02*
D03*
X381000D02*
D03*
X222500Y389000D02*
D03*
X240500D02*
D03*
X878000Y475000D02*
D03*
X860000D02*
D03*
X533750Y279500D02*
D03*
X551750D02*
D03*
X551500Y263500D02*
D03*
X533500D02*
D03*
X286750Y415750D02*
D03*
X268750D02*
D03*
X369500Y415750D02*
D03*
X351500D02*
D03*
X195750Y311000D02*
D03*
X177750D02*
D03*
X250750Y535750D02*
D03*
X232750D02*
D03*
Y552000D02*
D03*
X250750D02*
D03*
Y519500D02*
D03*
X232750D02*
D03*
Y503500D02*
D03*
X250750D02*
D03*
X962500Y475000D02*
D03*
X944500D02*
D03*
X798750Y474750D02*
D03*
X780750D02*
D03*
X719250Y475250D02*
D03*
X701250D02*
D03*
X515000Y510500D02*
D03*
X533000D02*
D03*
X518250Y394250D02*
D03*
X536250D02*
D03*
X497500Y279500D02*
D03*
X515500D02*
D03*
X515500Y295500D02*
D03*
X533500D02*
D03*
X498250Y395000D02*
D03*
X480250D02*
D03*
X608500Y375250D02*
D03*
X590500D02*
D03*
X608000Y353750D02*
D03*
X590000D02*
D03*
D40*
X369500Y329450D02*
D03*
Y342150D02*
D03*
Y304050D02*
D03*
Y316750D02*
D03*
Y380250D02*
D03*
Y392950D02*
D03*
Y354850D02*
D03*
Y367550D02*
D03*
D41*
X268500Y304050D02*
D03*
Y316750D02*
D03*
Y329450D02*
D03*
Y342150D02*
D03*
Y354850D02*
D03*
Y367550D02*
D03*
Y380250D02*
D03*
Y392950D02*
D03*
D42*
X269500Y485250D02*
D03*
Y503250D02*
D03*
X285500Y485250D02*
D03*
Y503250D02*
D03*
X306500Y535000D02*
D03*
Y553000D02*
D03*
X515000Y494500D02*
D03*
Y476500D02*
D03*
X624500Y375250D02*
D03*
Y393250D02*
D03*
X624250Y353750D02*
D03*
Y335750D02*
D03*
X120000Y441000D02*
D03*
Y423000D02*
D03*
X137500Y371500D02*
D03*
Y389500D02*
D03*
X515750Y245500D02*
D03*
Y263500D02*
D03*
X118750Y338750D02*
D03*
Y320750D02*
D03*
X574500Y393250D02*
D03*
Y375250D02*
D03*
X558250Y373500D02*
D03*
Y355500D02*
D03*
X574000Y353750D02*
D03*
Y335750D02*
D03*
X585750Y664000D02*
D03*
Y682000D02*
D03*
X491750Y660750D02*
D03*
Y642750D02*
D03*
X525000Y642000D02*
D03*
Y660000D02*
D03*
D43*
X321750Y583250D02*
D03*
X288750D02*
D03*
D44*
X100500Y349600D02*
D03*
Y338400D02*
D03*
X119250Y257400D02*
D03*
Y268600D02*
D03*
Y296850D02*
D03*
Y285650D02*
D03*
X100250Y309900D02*
D03*
Y321100D02*
D03*
X119250Y361150D02*
D03*
Y372350D02*
D03*
Y400850D02*
D03*
Y389650D02*
D03*
X100500Y411900D02*
D03*
Y423100D02*
D03*
Y451600D02*
D03*
Y440400D02*
D03*
D45*
X179750Y374500D02*
D03*
Y368000D02*
D03*
Y361500D02*
D03*
Y355000D02*
D03*
Y348500D02*
D03*
Y342000D02*
D03*
Y335500D02*
D03*
Y329000D02*
D03*
X237750Y374500D02*
D03*
Y368000D02*
D03*
Y361500D02*
D03*
Y355000D02*
D03*
Y348500D02*
D03*
Y342000D02*
D03*
Y335500D02*
D03*
Y329000D02*
D03*
D46*
X195000Y294250D02*
D03*
X185500D02*
D03*
X176000D02*
D03*
X195000Y268250D02*
D03*
X176000D02*
D03*
D47*
X292750Y617250D02*
D03*
X323750D02*
D03*
X429750Y623250D02*
D03*
X460750D02*
D03*
D48*
X277000Y541000D02*
D03*
D49*
X267250Y555000D02*
D03*
X273750D02*
D03*
X280250D02*
D03*
X286750D02*
D03*
X267250Y527000D02*
D03*
X273750D02*
D03*
X280250D02*
D03*
X286750D02*
D03*
D50*
X264500Y600750D02*
D03*
Y569750D02*
D03*
D51*
X275750Y662500D02*
D03*
X321750D02*
D03*
D52*
X973250Y449250D02*
D03*
X937250D02*
D03*
X889750Y449250D02*
D03*
X853750D02*
D03*
X809500Y448750D02*
D03*
X773500D02*
D03*
X728250Y450000D02*
D03*
X692250D02*
D03*
D53*
X181500Y536250D02*
D03*
Y500250D02*
D03*
D54*
X667750Y312250D02*
D03*
X658250Y312250D02*
D03*
X648750D02*
D03*
Y339750D02*
D03*
X658250D02*
D03*
X667750D02*
D03*
X461000Y352250D02*
D03*
X470500Y352250D02*
D03*
X480000D02*
D03*
Y324750D02*
D03*
X470500D02*
D03*
X461000D02*
D03*
D55*
X523750Y427500D02*
D03*
X583750D02*
D03*
X483000Y470500D02*
D03*
X423000D02*
D03*
D56*
X495250Y317250D02*
D03*
X501750D02*
D03*
X508250D02*
D03*
X514750D02*
D03*
X521250D02*
D03*
X527750D02*
D03*
X534250D02*
D03*
X540750D02*
D03*
X495250Y375250D02*
D03*
X501750D02*
D03*
X508250D02*
D03*
X514750D02*
D03*
X521250D02*
D03*
X527750D02*
D03*
X534250D02*
D03*
X540750D02*
D03*
D57*
X540750Y660750D02*
D03*
Y651250D02*
D03*
Y641750D02*
D03*
X567250D02*
D03*
Y660750D02*
D03*
D58*
X347000Y664500D02*
D03*
Y643500D02*
D03*
X250500Y638750D02*
D03*
Y659750D02*
D03*
D59*
X491750Y678000D02*
D03*
Y697000D02*
D03*
D60*
X640400Y515000D02*
D03*
X525000Y560000D02*
D03*
X280400Y450000D02*
D03*
X515400Y215000D02*
D03*
X180000D02*
D03*
D61*
X615000Y515000D02*
D03*
X499600Y560000D02*
D03*
X255000Y450000D02*
D03*
X490000Y215000D02*
D03*
X154600D02*
D03*
X52750Y208000D02*
D03*
D62*
X706750Y560800D02*
D03*
Y535400D02*
D03*
Y510000D02*
D03*
X383350Y648250D02*
D03*
X408750D02*
D03*
X434150D02*
D03*
X459550D02*
D03*
X871250Y510200D02*
D03*
Y535600D02*
D03*
Y561000D02*
D03*
X951750Y510200D02*
D03*
Y535600D02*
D03*
Y561000D02*
D03*
X788917Y510200D02*
D03*
Y535600D02*
D03*
Y561000D02*
D03*
X493000Y745000D02*
D03*
X343000D02*
D03*
D63*
X951250Y238500D02*
D03*
Y365500D02*
D03*
Y390900D02*
D03*
Y340100D02*
D03*
Y314700D02*
D03*
Y289300D02*
D03*
Y263900D02*
D03*
X53250Y317550D02*
D03*
Y342950D02*
D03*
Y368350D02*
D03*
Y393750D02*
D03*
Y444550D02*
D03*
Y419150D02*
D03*
Y292150D02*
D03*
Y266750D02*
D03*
X869833Y238150D02*
D03*
Y365150D02*
D03*
Y390550D02*
D03*
Y339750D02*
D03*
Y314350D02*
D03*
Y288950D02*
D03*
Y263550D02*
D03*
X788417Y238150D02*
D03*
Y365150D02*
D03*
Y390550D02*
D03*
Y339750D02*
D03*
Y314350D02*
D03*
Y288950D02*
D03*
Y263550D02*
D03*
X707000Y238150D02*
D03*
Y365150D02*
D03*
Y390550D02*
D03*
Y339750D02*
D03*
Y314350D02*
D03*
Y288950D02*
D03*
Y263550D02*
D03*
X417750Y391600D02*
D03*
Y417000D02*
D03*
Y366200D02*
D03*
Y340800D02*
D03*
Y315400D02*
D03*
Y290000D02*
D03*
D64*
X79250Y505350D02*
D03*
X130050D02*
D03*
X79250Y530750D02*
D03*
X130050D02*
D03*
D65*
X52750Y233400D02*
D03*
D66*
X131950Y51900D02*
D03*
X901850D02*
D03*
Y731900D02*
D03*
X131950D02*
D03*
M02*
