G04*
G04 #@! TF.GenerationSoftware,Altium Limited,Altium Designer,23.0.1 (38)*
G04*
G04 Layer_Color=8421504*
%FSLAX44Y44*%
%MOMM*%
G71*
G04*
G04 #@! TF.SameCoordinates,FF345AFA-0CE5-413A-8FAD-513570D1C1FC*
G04*
G04*
G04 #@! TF.FilePolarity,Positive*
G04*
G01*
G75*
%ADD18R,1.3540X1.3040*%
%ADD19O,2.7040X1.2040*%
%ADD20O,2.6040X1.2040*%
%ADD21R,1.3040X1.3540*%
%ADD22R,2.0040X3.6040*%
%ADD23R,1.2040X0.7840*%
%ADD24R,1.7040X0.6540*%
%ADD25R,0.8040X1.3040*%
%ADD26R,1.5540X2.0040*%
%ADD27R,2.9040X1.4540*%
%ADD28R,0.6040X0.7040*%
%ADD29R,2.0040X1.5540*%
%ADD30R,2.7040X5.3040*%
%ADD31R,2.3040X2.0040*%
%ADD32R,2.0040X2.3040*%
%ADD33R,0.8040X1.2040*%
%ADD34R,3.2040X3.2040*%
%ADD35R,0.6540X1.7040*%
%ADD36R,1.2540X0.8040*%
%ADD37R,1.7540X1.4040*%
%ADD38R,1.4040X1.0040*%
D18*
X960000Y423000D02*
D03*
X942000D02*
D03*
X876000D02*
D03*
X858000D02*
D03*
X797000D02*
D03*
X779000D02*
D03*
X716000Y422000D02*
D03*
X698000D02*
D03*
X248500Y281250D02*
D03*
X266500D02*
D03*
X515000Y460500D02*
D03*
X533000D02*
D03*
X363000Y281000D02*
D03*
X381000D02*
D03*
X222500Y389000D02*
D03*
X240500D02*
D03*
X878000Y475000D02*
D03*
X860000D02*
D03*
X533750Y279500D02*
D03*
X551750D02*
D03*
X551500Y263500D02*
D03*
X533500D02*
D03*
X286750Y415750D02*
D03*
X268750D02*
D03*
X369500Y415750D02*
D03*
X351500D02*
D03*
X195750Y311000D02*
D03*
X177750D02*
D03*
X250750Y535750D02*
D03*
X232750D02*
D03*
Y552000D02*
D03*
X250750D02*
D03*
Y519500D02*
D03*
X232750D02*
D03*
Y503500D02*
D03*
X250750D02*
D03*
X962500Y475000D02*
D03*
X944500D02*
D03*
X798750Y474750D02*
D03*
X780750D02*
D03*
X719250Y475250D02*
D03*
X701250D02*
D03*
X515000Y510500D02*
D03*
X533000D02*
D03*
X518250Y394250D02*
D03*
X536250D02*
D03*
X497500Y279500D02*
D03*
X515500D02*
D03*
X515500Y295500D02*
D03*
X533500D02*
D03*
X498250Y395000D02*
D03*
X480250D02*
D03*
X608500Y375250D02*
D03*
X590500D02*
D03*
X608000Y353750D02*
D03*
X590000D02*
D03*
D19*
X369500Y329450D02*
D03*
Y342150D02*
D03*
Y304050D02*
D03*
Y316750D02*
D03*
Y380250D02*
D03*
Y392950D02*
D03*
Y354850D02*
D03*
Y367550D02*
D03*
D20*
X268500Y304050D02*
D03*
Y316750D02*
D03*
Y329450D02*
D03*
Y342150D02*
D03*
Y354850D02*
D03*
Y367550D02*
D03*
Y380250D02*
D03*
Y392950D02*
D03*
D21*
X269500Y485250D02*
D03*
Y503250D02*
D03*
X285500Y485250D02*
D03*
Y503250D02*
D03*
X306500Y535000D02*
D03*
Y553000D02*
D03*
X515000Y494500D02*
D03*
Y476500D02*
D03*
X624500Y375250D02*
D03*
Y393250D02*
D03*
X624250Y353750D02*
D03*
Y335750D02*
D03*
X120000Y441000D02*
D03*
Y423000D02*
D03*
X137500Y371500D02*
D03*
Y389500D02*
D03*
X515750Y245500D02*
D03*
Y263500D02*
D03*
X118750Y338750D02*
D03*
Y320750D02*
D03*
X574500Y393250D02*
D03*
Y375250D02*
D03*
X558250Y373500D02*
D03*
Y355500D02*
D03*
X574000Y353750D02*
D03*
Y335750D02*
D03*
X585750Y664000D02*
D03*
Y682000D02*
D03*
X491750Y660750D02*
D03*
Y642750D02*
D03*
X525000Y642000D02*
D03*
Y660000D02*
D03*
D22*
X321750Y583250D02*
D03*
X288750D02*
D03*
D23*
X100500Y349600D02*
D03*
Y338400D02*
D03*
X119250Y257400D02*
D03*
Y268600D02*
D03*
Y296850D02*
D03*
Y285650D02*
D03*
X100250Y309900D02*
D03*
Y321100D02*
D03*
X119250Y361150D02*
D03*
Y372350D02*
D03*
Y400850D02*
D03*
Y389650D02*
D03*
X100500Y411900D02*
D03*
Y423100D02*
D03*
Y451600D02*
D03*
Y440400D02*
D03*
D24*
X179750Y374500D02*
D03*
Y368000D02*
D03*
Y361500D02*
D03*
Y355000D02*
D03*
Y348500D02*
D03*
Y342000D02*
D03*
Y335500D02*
D03*
Y329000D02*
D03*
X237750Y374500D02*
D03*
Y368000D02*
D03*
Y361500D02*
D03*
Y355000D02*
D03*
Y348500D02*
D03*
Y342000D02*
D03*
Y335500D02*
D03*
Y329000D02*
D03*
D25*
X195000Y294250D02*
D03*
X185500D02*
D03*
X176000D02*
D03*
X195000Y268250D02*
D03*
X176000D02*
D03*
D26*
X292750Y617250D02*
D03*
X323750D02*
D03*
X429750Y623250D02*
D03*
X460750D02*
D03*
D27*
X277000Y541000D02*
D03*
D28*
X267250Y555000D02*
D03*
X273750D02*
D03*
X280250D02*
D03*
X286750D02*
D03*
X267250Y527000D02*
D03*
X273750D02*
D03*
X280250D02*
D03*
X286750D02*
D03*
D29*
X264500Y600750D02*
D03*
Y569750D02*
D03*
D30*
X275750Y662500D02*
D03*
X321750D02*
D03*
D31*
X973250Y449250D02*
D03*
X937250D02*
D03*
X889750Y449250D02*
D03*
X853750D02*
D03*
X809500Y448750D02*
D03*
X773500D02*
D03*
X728250Y450000D02*
D03*
X692250D02*
D03*
D32*
X181500Y536250D02*
D03*
Y500250D02*
D03*
D33*
X667750Y312250D02*
D03*
X658250Y312250D02*
D03*
X648750D02*
D03*
Y339750D02*
D03*
X658250D02*
D03*
X667750D02*
D03*
X461000Y352250D02*
D03*
X470500Y352250D02*
D03*
X480000D02*
D03*
Y324750D02*
D03*
X470500D02*
D03*
X461000D02*
D03*
D34*
X523750Y427500D02*
D03*
X583750D02*
D03*
X483000Y470500D02*
D03*
X423000D02*
D03*
D35*
X495250Y317250D02*
D03*
X501750D02*
D03*
X508250D02*
D03*
X514750D02*
D03*
X521250D02*
D03*
X527750D02*
D03*
X534250D02*
D03*
X540750D02*
D03*
X495250Y375250D02*
D03*
X501750D02*
D03*
X508250D02*
D03*
X514750D02*
D03*
X521250D02*
D03*
X527750D02*
D03*
X534250D02*
D03*
X540750D02*
D03*
D36*
X540750Y660750D02*
D03*
Y651250D02*
D03*
Y641750D02*
D03*
X567250D02*
D03*
Y660750D02*
D03*
D37*
X347000Y664500D02*
D03*
Y643500D02*
D03*
X250500Y638750D02*
D03*
Y659750D02*
D03*
D38*
X491750Y678000D02*
D03*
Y697000D02*
D03*
M02*
