G04*
G04 #@! TF.GenerationSoftware,Altium Limited,Altium Designer,23.0.1 (38)*
G04*
G04 Layer_Color=16711935*
%FSLAX44Y44*%
%MOMM*%
G71*
G04*
G04 #@! TF.SameCoordinates,FF345AFA-0CE5-413A-8FAD-513570D1C1FC*
G04*
G04*
G04 #@! TF.FilePolarity,Negative*
G04*
G01*
G75*
%ADD60R,2.2032X2.2032*%
%ADD61C,2.2032*%
%ADD62C,2.0032*%
%ADD63C,1.9812*%
%ADD64C,2.4032*%
%ADD65R,2.2032X2.2032*%
%ADD66C,6.2032*%
D60*
X640400Y515000D02*
D03*
X525000Y560000D02*
D03*
X280400Y450000D02*
D03*
X515400Y215000D02*
D03*
X180000D02*
D03*
D61*
X615000Y515000D02*
D03*
X499600Y560000D02*
D03*
X255000Y450000D02*
D03*
X490000Y215000D02*
D03*
X154600D02*
D03*
X52750Y208000D02*
D03*
D62*
X706750Y560800D02*
D03*
Y535400D02*
D03*
Y510000D02*
D03*
X383350Y648250D02*
D03*
X408750D02*
D03*
X434150D02*
D03*
X459550D02*
D03*
X871250Y510200D02*
D03*
Y535600D02*
D03*
Y561000D02*
D03*
X951750Y510200D02*
D03*
Y535600D02*
D03*
Y561000D02*
D03*
X788917Y510200D02*
D03*
Y535600D02*
D03*
Y561000D02*
D03*
X493000Y745000D02*
D03*
X343000D02*
D03*
D63*
X951250Y238500D02*
D03*
Y365500D02*
D03*
Y390900D02*
D03*
Y340100D02*
D03*
Y314700D02*
D03*
Y289300D02*
D03*
Y263900D02*
D03*
X53250Y317550D02*
D03*
Y342950D02*
D03*
Y368350D02*
D03*
Y393750D02*
D03*
Y444550D02*
D03*
Y419150D02*
D03*
Y292150D02*
D03*
Y266750D02*
D03*
X869833Y238150D02*
D03*
Y365150D02*
D03*
Y390550D02*
D03*
Y339750D02*
D03*
Y314350D02*
D03*
Y288950D02*
D03*
Y263550D02*
D03*
X788417Y238150D02*
D03*
Y365150D02*
D03*
Y390550D02*
D03*
Y339750D02*
D03*
Y314350D02*
D03*
Y288950D02*
D03*
Y263550D02*
D03*
X707000Y238150D02*
D03*
Y365150D02*
D03*
Y390550D02*
D03*
Y339750D02*
D03*
Y314350D02*
D03*
Y288950D02*
D03*
Y263550D02*
D03*
X417750Y391600D02*
D03*
Y417000D02*
D03*
Y366200D02*
D03*
Y340800D02*
D03*
Y315400D02*
D03*
Y290000D02*
D03*
D64*
X79250Y505350D02*
D03*
X130050D02*
D03*
X79250Y530750D02*
D03*
X130050D02*
D03*
D65*
X52750Y233400D02*
D03*
D66*
X131950Y51900D02*
D03*
X901850D02*
D03*
Y731900D02*
D03*
X131950D02*
D03*
M02*
