G04*
G04 #@! TF.GenerationSoftware,Altium Limited,Altium Designer,20.2.7 (254)*
G04*
G04 Layer_Physical_Order=2*
G04 Layer_Color=16711680*
%FSLAX25Y25*%
%MOIN*%
G70*
G04*
G04 #@! TF.SameCoordinates,A70D1E75-91AA-4FD3-A19C-EF1787EBCA39*
G04*
G04*
G04 #@! TF.FilePolarity,Positive*
G04*
G01*
G75*
%ADD10C,0.00787*%
%ADD12C,0.01968*%
%ADD13R,0.03937X0.04921*%
%ADD15R,0.03937X0.06299*%
%ADD18R,0.03347X0.03347*%
%ADD19R,0.04921X0.03937*%
%ADD33C,0.03150*%
%ADD34C,0.02953*%
%ADD35C,0.02362*%
%ADD36C,0.01575*%
%ADD37C,0.04724*%
%ADD38C,0.07874*%
%ADD39P,0.09375X8X112.5*%
%ADD40C,0.08661*%
%ADD41C,0.07087*%
%ADD42C,0.03150*%
%ADD43R,0.03347X0.03347*%
%ADD44R,0.00984X0.01968*%
%ADD45R,0.01968X0.00984*%
%ADD46R,0.06575X0.02992*%
%ADD47R,0.03937X0.02362*%
%ADD48C,0.05118*%
G36*
X77768Y84557D02*
X77803Y84153D01*
X77862Y83797D01*
X77945Y83488D01*
X78051Y83227D01*
X78181Y83013D01*
X78335Y82847D01*
X78512Y82728D01*
X78713Y82657D01*
X78937Y82634D01*
X74213D01*
X74437Y82657D01*
X74638Y82728D01*
X74815Y82847D01*
X74968Y83013D01*
X75099Y83227D01*
X75205Y83488D01*
X75287Y83797D01*
X75346Y84153D01*
X75382Y84557D01*
X75394Y85008D01*
X77756D01*
X77768Y84557D01*
D02*
G37*
G36*
X75740Y80326D02*
X75634Y80410D01*
X75493Y80485D01*
X75317Y80551D01*
X75105Y80609D01*
X74859Y80657D01*
X74577Y80697D01*
X73908Y80750D01*
X73311Y80763D01*
Y80374D01*
X73303Y80449D01*
X73279Y80516D01*
X73239Y80575D01*
X73184Y80626D01*
X73112Y80669D01*
X73024Y80705D01*
X72920Y80732D01*
X72800Y80752D01*
X72664Y80764D01*
X72512Y80768D01*
Y81555D01*
X72664Y81559D01*
X72800Y81571D01*
X72920Y81590D01*
X73024Y81618D01*
X73112Y81653D01*
X73184Y81697D01*
X73239Y81748D01*
X73279Y81807D01*
X73303Y81874D01*
X73311Y81949D01*
Y81557D01*
X73521Y81559D01*
X74859Y81666D01*
X75105Y81714D01*
X75317Y81772D01*
X75493Y81838D01*
X75634Y81913D01*
X75740Y81997D01*
Y80326D01*
D02*
G37*
G36*
X392095Y108268D02*
X359449D01*
Y64961D01*
X392095D01*
Y1606D01*
X81072D01*
X76378Y6299D01*
Y20472D01*
X66535Y30315D01*
X55512D01*
X51575Y34252D01*
X51575Y55684D01*
X52075Y55891D01*
X55558Y52408D01*
X56078Y52060D01*
X56693Y51938D01*
X56693Y51938D01*
X64665D01*
Y51378D01*
X65730D01*
X65847Y51355D01*
X66831D01*
X67214Y51086D01*
X67222Y50697D01*
X66962Y50197D01*
X66929D01*
Y48425D01*
X66831D01*
Y47441D01*
X65847D01*
Y47835D01*
X65059D01*
Y46777D01*
X64665Y46399D01*
X64380Y46517D01*
X62992Y46699D01*
X61605Y46517D01*
X60312Y45981D01*
X59201Y45129D01*
X58350Y44019D01*
X57814Y42726D01*
X57631Y41339D01*
X57814Y39951D01*
X58350Y38658D01*
X59201Y37548D01*
X60312Y36696D01*
X61605Y36160D01*
X62992Y35978D01*
X64380Y36160D01*
X65672Y36696D01*
X66783Y37548D01*
X67635Y38658D01*
X68170Y39951D01*
X68207Y40228D01*
X68662Y40319D01*
X69444Y40841D01*
X71388Y42785D01*
X71910Y43567D01*
X72000Y44018D01*
X72500Y43969D01*
Y43878D01*
X75184D01*
X75099Y44087D01*
X74968Y44299D01*
X74815Y44465D01*
X74638Y44583D01*
X74437Y44654D01*
X74213Y44677D01*
X75984D01*
Y46161D01*
X76575D01*
Y46752D01*
X80650D01*
Y48378D01*
X80650Y48445D01*
Y48878D01*
X80650Y48945D01*
Y49900D01*
X80228Y49871D01*
X80063Y49832D01*
X79945Y49786D01*
X79874Y49735D01*
X79850Y49677D01*
Y50571D01*
X76575D01*
Y51752D01*
X79850D01*
Y52645D01*
X79874Y52588D01*
X79945Y52536D01*
X80063Y52491D01*
X80228Y52452D01*
X80441Y52418D01*
X80650Y52400D01*
X80650Y53228D01*
X81043Y53484D01*
X81043Y53702D01*
X81043Y53702D01*
Y58484D01*
Y63484D01*
Y68621D01*
X81043Y68621D01*
X81043Y68839D01*
X80650Y69095D01*
X80650Y69339D01*
Y70105D01*
X80559Y70097D01*
X80342Y70052D01*
X80165Y69997D01*
X80027Y69932D01*
X79929Y69857D01*
X79870Y69772D01*
X79850Y69677D01*
Y70571D01*
X76575D01*
Y71752D01*
X79850D01*
Y72645D01*
X79870Y72550D01*
X79929Y72465D01*
X80027Y72391D01*
X80165Y72326D01*
X80342Y72271D01*
X80559Y72226D01*
X80650Y72213D01*
Y73378D01*
X80650Y73445D01*
Y73878D01*
X80650Y73945D01*
Y75105D01*
X80559Y75097D01*
X80342Y75052D01*
X80165Y74997D01*
X80027Y74932D01*
X79929Y74857D01*
X79870Y74772D01*
X79850Y74677D01*
Y75571D01*
X76575D01*
Y76752D01*
X79850D01*
Y77645D01*
X79870Y77551D01*
X79929Y77465D01*
X80027Y77391D01*
X80165Y77326D01*
X80342Y77271D01*
X80559Y77226D01*
X80650Y77213D01*
X80650Y78228D01*
X81043Y78484D01*
X81043Y78702D01*
X81043Y78702D01*
Y83839D01*
X79102D01*
X79089Y83872D01*
X79041Y84052D01*
X78999Y84304D01*
X78983Y84480D01*
Y84969D01*
X79179Y85224D01*
X79457Y85895D01*
X79551Y86614D01*
X79457Y87334D01*
X79179Y88004D01*
X78737Y88580D01*
X78162Y89021D01*
X77491Y89299D01*
X76772Y89394D01*
X76052Y89299D01*
X75382Y89021D01*
X74806Y88580D01*
X74364Y88004D01*
X74087Y87334D01*
X73992Y86614D01*
X74087Y85895D01*
X74166Y85702D01*
Y84480D01*
X74151Y84304D01*
X74109Y84052D01*
X74061Y83872D01*
X74047Y83839D01*
X72106D01*
Y83060D01*
X71713Y82767D01*
X71098Y82645D01*
X70577Y82297D01*
X70577Y82297D01*
X70541Y82260D01*
X70079Y82452D01*
Y135827D01*
X83071D01*
X91732Y144488D01*
X91732Y170472D01*
X92883Y171623D01*
X392095D01*
Y108268D01*
D02*
G37*
G36*
X31496Y72835D02*
X11811D01*
Y78314D01*
X27559D01*
X27860Y78439D01*
X27985Y78740D01*
Y94488D01*
X27860Y94789D01*
X27559Y94914D01*
X11811D01*
Y100394D01*
X31496D01*
Y72835D01*
D02*
G37*
G36*
X69291Y72146D02*
X69882D01*
Y72115D01*
X69901Y72102D01*
X69941Y72090D01*
X69996Y72078D01*
X70067Y72069D01*
X70256Y72055D01*
X70657Y72047D01*
Y71260D01*
X70508Y71259D01*
X69996Y71229D01*
X69941Y71218D01*
X69901Y71205D01*
X69882Y71192D01*
Y71161D01*
X67913D01*
Y72146D01*
X68504D01*
Y73130D01*
X69291D01*
Y72146D01*
D02*
G37*
G36*
X64173Y72921D02*
X64177Y72769D01*
X64189Y72633D01*
X64209Y72513D01*
X64236Y72409D01*
X64272Y72321D01*
X64315Y72250D01*
X64366Y72194D01*
X64425Y72154D01*
X64447Y72146D01*
X64764D01*
Y71161D01*
X62795D01*
Y71192D01*
X62776Y71205D01*
X62736Y71218D01*
X62681Y71229D01*
X62610Y71238D01*
X62422Y71252D01*
X62020Y71260D01*
Y72047D01*
X62169Y72048D01*
X62681Y72078D01*
X62736Y72090D01*
X62776Y72102D01*
X62795Y72115D01*
Y72146D01*
X63112D01*
X63134Y72154D01*
X63193Y72194D01*
X63244Y72250D01*
X63287Y72321D01*
X63323Y72409D01*
X63350Y72513D01*
X63370Y72633D01*
X63382Y72769D01*
X63386Y72921D01*
Y73130D01*
X64173D01*
Y72921D01*
D02*
G37*
G36*
X73311Y70866D02*
X73303Y70941D01*
X73279Y71008D01*
X73239Y71067D01*
X73184Y71118D01*
X73112Y71161D01*
X73024Y71197D01*
X72920Y71224D01*
X72800Y71244D01*
X72664Y71256D01*
X72512Y71260D01*
Y72047D01*
X72664Y72051D01*
X72800Y72063D01*
X72920Y72083D01*
X73024Y72110D01*
X73112Y72146D01*
X73184Y72189D01*
X73239Y72240D01*
X73279Y72299D01*
X73303Y72366D01*
X73311Y72441D01*
Y70866D01*
D02*
G37*
G36*
X69882Y68602D02*
X69566D01*
X69543Y68594D01*
X69484Y68554D01*
X69433Y68498D01*
X69390Y68427D01*
X69354Y68339D01*
X69327Y68235D01*
X69307Y68115D01*
X69295Y67979D01*
X69291Y67827D01*
Y67618D01*
X68504D01*
Y67827D01*
X68500Y67979D01*
X68488Y68115D01*
X68468Y68235D01*
X68441Y68339D01*
X68405Y68427D01*
X68362Y68498D01*
X68311Y68554D01*
X68252Y68594D01*
X68230Y68602D01*
X67913D01*
Y68633D01*
X67894Y68646D01*
X67854Y68658D01*
X67799Y68670D01*
X67729Y68679D01*
X67540Y68693D01*
X67138Y68701D01*
Y69488D01*
X67288Y69489D01*
X67799Y69519D01*
X67854Y69530D01*
X67894Y69543D01*
X67913Y69556D01*
Y69587D01*
X69882D01*
Y68602D01*
D02*
G37*
G36*
X64764Y69556D02*
X64783Y69543D01*
X64823Y69530D01*
X64878Y69519D01*
X64949Y69510D01*
X65138Y69496D01*
X65539Y69488D01*
Y68701D01*
X65390Y68700D01*
X64878Y68670D01*
X64823Y68658D01*
X64783Y68646D01*
X64764Y68633D01*
Y68602D01*
X64173D01*
Y67618D01*
X63386D01*
Y68602D01*
X62795D01*
Y69587D01*
X64764D01*
Y69556D01*
D02*
G37*
G36*
X73299Y59677D02*
X73276Y59709D01*
X73205Y59737D01*
X73087Y59762D01*
X72922Y59783D01*
X72449Y59816D01*
X70937Y59842D01*
Y62205D01*
X71386Y62209D01*
X72709Y62315D01*
X72922Y62363D01*
X73087Y62421D01*
X73205Y62487D01*
X73276Y62562D01*
X73299Y62646D01*
Y59677D01*
D02*
G37*
G36*
Y54677D02*
X73282Y54734D01*
X73228Y54785D01*
X73138Y54829D01*
X73013Y54868D01*
X72852Y54900D01*
X72655Y54927D01*
X72154Y54963D01*
X71510Y54975D01*
Y57337D01*
X71850Y57340D01*
X72852Y57414D01*
X73013Y57448D01*
X73138Y57488D01*
X73228Y57534D01*
X73282Y57587D01*
X73299Y57645D01*
Y54677D01*
D02*
G37*
G36*
X69390Y53937D02*
X70374D01*
Y53150D01*
X69390D01*
Y52559D01*
X68405D01*
Y54528D01*
X69390D01*
Y53937D01*
D02*
G37*
G36*
X66831Y52559D02*
X65847D01*
Y52875D01*
X65838Y52898D01*
X65798Y52957D01*
X65743Y53008D01*
X65671Y53051D01*
X65583Y53087D01*
X65479Y53114D01*
X65359Y53134D01*
X65223Y53146D01*
X65071Y53150D01*
X64862D01*
Y53937D01*
X65071D01*
X65223Y53941D01*
X65359Y53953D01*
X65479Y53972D01*
X65583Y54000D01*
X65671Y54035D01*
X65743Y54079D01*
X65798Y54130D01*
X65838Y54189D01*
X65847Y54211D01*
Y54528D01*
X66831D01*
Y52559D01*
D02*
G37*
G36*
X69390Y48819D02*
X70374D01*
Y48031D01*
X69390D01*
Y47441D01*
X68405D01*
Y49409D01*
X69390D01*
Y48819D01*
D02*
G37*
%LPC*%
G36*
X155561Y153153D02*
X154276Y152984D01*
X153079Y152488D01*
X152393Y151961D01*
X125405D01*
X125167Y152144D01*
X124066Y152600D01*
X122884Y152756D01*
X121702Y152600D01*
X120600Y152144D01*
X119655Y151418D01*
X119025Y150598D01*
X113937D01*
X113015Y150414D01*
X112234Y149892D01*
X105777Y143435D01*
X105255Y142654D01*
X105072Y141732D01*
Y108661D01*
X104331D01*
Y101249D01*
X104320Y101193D01*
X104331Y101137D01*
Y100000D01*
X105013D01*
X105034Y99881D01*
X105072Y99418D01*
Y96850D01*
X105255Y95929D01*
X105777Y95147D01*
X113340Y87585D01*
Y85990D01*
X113334Y85839D01*
X113304Y85568D01*
X113280Y85433D01*
X112598D01*
Y84296D01*
X112587Y84240D01*
X112598Y84184D01*
Y81958D01*
X112587Y81902D01*
X112598Y81846D01*
Y80709D01*
X113280D01*
X113302Y80590D01*
X113340Y80127D01*
Y76982D01*
X110440Y74082D01*
X109941Y74113D01*
Y74508D01*
X108804D01*
X108748Y74519D01*
X108692Y74508D01*
X107321D01*
X107130Y74970D01*
X108209Y76048D01*
X108731Y76830D01*
X108758Y76968D01*
X109449D01*
Y81693D01*
X106627D01*
X106505Y81717D01*
X106384Y81693D01*
X103150D01*
Y81693D01*
X102697Y81807D01*
Y83839D01*
X95009D01*
X94953Y83850D01*
X94916Y83842D01*
X94879Y83847D01*
X94845Y83839D01*
X94141D01*
Y85565D01*
X94146Y85716D01*
X94176Y85987D01*
X94200Y86122D01*
X94882D01*
Y86965D01*
X94932Y86969D01*
X96413D01*
X97990Y85392D01*
X98641Y84957D01*
X99410Y84804D01*
X103150D01*
Y84449D01*
X104287D01*
X104343Y84438D01*
X104399Y84449D01*
X109449D01*
Y89173D01*
X104399D01*
X104343Y89184D01*
X104287Y89173D01*
X103150D01*
Y88818D01*
X100241D01*
X98663Y90396D01*
X98012Y90831D01*
X97244Y90983D01*
X94932D01*
X94882Y90988D01*
Y92156D01*
X94893Y92212D01*
X94882Y92268D01*
Y93405D01*
X94200D01*
X94179Y93524D01*
X94141Y93988D01*
Y95343D01*
X94533Y95854D01*
X94811Y96525D01*
X94906Y97244D01*
X94811Y97964D01*
X94533Y98634D01*
X94091Y99210D01*
X93516Y99651D01*
X92845Y99929D01*
X92126Y100024D01*
X91407Y99929D01*
X90736Y99651D01*
X90161Y99210D01*
X89719Y98634D01*
X89441Y97964D01*
X89346Y97244D01*
X89385Y96947D01*
X89324Y96637D01*
Y93962D01*
X89318Y93812D01*
X89289Y93540D01*
X89265Y93405D01*
X88583D01*
Y92268D01*
X88572Y92212D01*
X88583Y92156D01*
Y87371D01*
X88572Y87315D01*
X88583Y87259D01*
Y86122D01*
X89265D01*
X89286Y86003D01*
X89324Y85540D01*
Y83004D01*
X88931Y82492D01*
X88654Y81822D01*
X88559Y81102D01*
X88654Y80383D01*
X88931Y79712D01*
X89373Y79137D01*
X89949Y78695D01*
X90619Y78417D01*
X91339Y78323D01*
X92058Y78417D01*
X92725Y78694D01*
X93760D01*
Y73484D01*
Y68484D01*
Y63701D01*
X93760Y63701D01*
X93760Y63484D01*
X94154Y63228D01*
X94154Y62984D01*
Y62218D01*
X94244Y62226D01*
X94461Y62271D01*
X94638Y62326D01*
X94776Y62391D01*
X94874Y62466D01*
X94933Y62550D01*
X94953Y62646D01*
Y61752D01*
X98228D01*
X102303D01*
X102303Y63228D01*
X102697Y63484D01*
X102697Y63682D01*
X103176Y63753D01*
X103823D01*
X104168Y63735D01*
X104232Y63727D01*
Y63287D01*
X105369D01*
X105425Y63276D01*
X105481Y63287D01*
X108692D01*
X108748Y63276D01*
X108804Y63287D01*
X109941D01*
Y63700D01*
X110431Y63733D01*
X111323D01*
X111652Y63717D01*
X111713Y63710D01*
Y63287D01*
X112850D01*
X112906Y63276D01*
X112962Y63287D01*
X117421Y63287D01*
X117678Y63681D01*
X117921Y63681D01*
X119488D01*
Y66142D01*
Y68602D01*
X117678Y68602D01*
X117421Y68996D01*
X117361Y68996D01*
X112962D01*
X112906Y69007D01*
X112759Y69108D01*
X112763Y69712D01*
X113120Y69950D01*
X117451Y74281D01*
X117973Y75063D01*
X118157Y75984D01*
Y80152D01*
X118162Y80302D01*
X118192Y80574D01*
X118216Y80709D01*
X118898D01*
Y81846D01*
X118909Y81902D01*
X118898Y81958D01*
Y84184D01*
X118909Y84240D01*
X118898Y84296D01*
Y85433D01*
X118216D01*
X118195Y85552D01*
X118157Y86015D01*
Y88583D01*
X117973Y89504D01*
X117451Y90286D01*
X109889Y97848D01*
Y99443D01*
X109894Y99594D01*
X109924Y99865D01*
X109948Y100000D01*
X110630D01*
Y101137D01*
X110641Y101193D01*
X110630Y101249D01*
Y108661D01*
X109889D01*
Y140735D01*
X114935Y145781D01*
X119025D01*
X119655Y144960D01*
X120600Y144234D01*
X121702Y143778D01*
X122884Y143622D01*
X124066Y143778D01*
X125167Y144234D01*
X125405Y144417D01*
X152393D01*
X153079Y143890D01*
X154276Y143394D01*
X155561Y143225D01*
X156846Y143394D01*
X158043Y143890D01*
X158729Y144417D01*
X189638D01*
X189875Y144234D01*
X190977Y143778D01*
X192159Y143622D01*
X193341Y143778D01*
X194442Y144234D01*
X194680Y144417D01*
X258913D01*
X259150Y144234D01*
X260252Y143778D01*
X261434Y143622D01*
X262616Y143778D01*
X263717Y144234D01*
X263955Y144417D01*
X328188D01*
X328425Y144234D01*
X329527Y143778D01*
X330709Y143622D01*
X331891Y143778D01*
X332992Y144234D01*
X333938Y144960D01*
X334664Y145906D01*
X335120Y147007D01*
X335275Y148189D01*
X335120Y149371D01*
X334664Y150472D01*
X333938Y151418D01*
X332992Y152144D01*
X331891Y152600D01*
X330709Y152756D01*
X329527Y152600D01*
X328425Y152144D01*
X328188Y151961D01*
X263955D01*
X263717Y152144D01*
X262616Y152600D01*
X261434Y152756D01*
X260252Y152600D01*
X259150Y152144D01*
X258913Y151961D01*
X194680D01*
X194442Y152144D01*
X193341Y152600D01*
X192159Y152756D01*
X190977Y152600D01*
X189875Y152144D01*
X189638Y151961D01*
X158729D01*
X158043Y152488D01*
X156846Y152984D01*
X155561Y153153D01*
D02*
G37*
G36*
X330709Y142756D02*
X329527Y142600D01*
X328425Y142144D01*
X327480Y141418D01*
X326754Y140472D01*
X326298Y139371D01*
X326142Y138189D01*
X326298Y137007D01*
X326754Y135906D01*
X327135Y135409D01*
Y130969D01*
X326754Y130472D01*
X326298Y129371D01*
X326142Y128189D01*
X326298Y127007D01*
X326754Y125906D01*
X327480Y124960D01*
X328425Y124234D01*
X329527Y123778D01*
X330709Y123622D01*
X331891Y123778D01*
X332992Y124234D01*
X333938Y124960D01*
X334664Y125906D01*
X335120Y127007D01*
X335275Y128189D01*
X335120Y129371D01*
X334664Y130472D01*
X334282Y130969D01*
Y135409D01*
X334664Y135906D01*
X335120Y137007D01*
X335275Y138189D01*
X335120Y139371D01*
X334664Y140472D01*
X333938Y141418D01*
X332992Y142144D01*
X331891Y142600D01*
X330709Y142756D01*
D02*
G37*
G36*
X261434D02*
X260252Y142600D01*
X259150Y142144D01*
X258205Y141418D01*
X257479Y140472D01*
X257023Y139371D01*
X256867Y138189D01*
X257023Y137007D01*
X257479Y135906D01*
X257860Y135409D01*
Y130969D01*
X257479Y130472D01*
X257023Y129371D01*
X256867Y128189D01*
X257023Y127007D01*
X257479Y125906D01*
X258205Y124960D01*
X259150Y124234D01*
X260252Y123778D01*
X261434Y123622D01*
X262616Y123778D01*
X263717Y124234D01*
X264663Y124960D01*
X265388Y125906D01*
X265845Y127007D01*
X266000Y128189D01*
X265845Y129371D01*
X265388Y130472D01*
X265008Y130969D01*
Y135409D01*
X265388Y135906D01*
X265845Y137007D01*
X266000Y138189D01*
X265845Y139371D01*
X265388Y140472D01*
X264663Y141418D01*
X263717Y142144D01*
X262616Y142600D01*
X261434Y142756D01*
D02*
G37*
G36*
X192159D02*
X190977Y142600D01*
X189875Y142144D01*
X188930Y141418D01*
X188204Y140472D01*
X187748Y139371D01*
X187592Y138189D01*
X187748Y137007D01*
X188204Y135906D01*
X188585Y135409D01*
Y130969D01*
X188204Y130472D01*
X187748Y129371D01*
X187592Y128189D01*
X187748Y127007D01*
X188204Y125906D01*
X188930Y124960D01*
X189875Y124234D01*
X190977Y123778D01*
X192159Y123622D01*
X193341Y123778D01*
X194442Y124234D01*
X195388Y124960D01*
X196114Y125906D01*
X196570Y127007D01*
X196725Y128189D01*
X196570Y129371D01*
X196114Y130472D01*
X195733Y130969D01*
Y135409D01*
X196114Y135906D01*
X196570Y137007D01*
X196725Y138189D01*
X196570Y139371D01*
X196114Y140472D01*
X195388Y141418D01*
X194442Y142144D01*
X193341Y142600D01*
X192159Y142756D01*
D02*
G37*
G36*
X122884D02*
X121702Y142600D01*
X120600Y142144D01*
X119655Y141418D01*
X118929Y140472D01*
X118473Y139371D01*
X118317Y138189D01*
X118473Y137007D01*
X118929Y135906D01*
X119310Y135409D01*
Y130969D01*
X118929Y130472D01*
X118473Y129371D01*
X118317Y128189D01*
X118473Y127007D01*
X118929Y125906D01*
X119655Y124960D01*
X120600Y124234D01*
X121702Y123778D01*
X122884Y123622D01*
X124066Y123778D01*
X125167Y124234D01*
X126113Y124960D01*
X126839Y125906D01*
X127295Y127007D01*
X127451Y128189D01*
X127295Y129371D01*
X126839Y130472D01*
X126458Y130969D01*
Y135409D01*
X126839Y135906D01*
X127295Y137007D01*
X127451Y138189D01*
X127295Y139371D01*
X126839Y140472D01*
X126113Y141418D01*
X125167Y142144D01*
X124066Y142600D01*
X122884Y142756D01*
D02*
G37*
G36*
X365354Y132916D02*
X364070Y132747D01*
X362873Y132252D01*
X361844Y131463D01*
X361284Y130732D01*
X358268D01*
X357548Y130638D01*
X356878Y130360D01*
X356302Y129918D01*
X331972Y105588D01*
X330709Y105754D01*
X329321Y105572D01*
X328028Y105036D01*
X326918Y104184D01*
X326066Y103074D01*
X325531Y101781D01*
X325348Y100394D01*
X325531Y99006D01*
X326066Y97713D01*
X326918Y96603D01*
X328028Y95751D01*
X329321Y95216D01*
X330709Y95033D01*
X332096Y95216D01*
X333389Y95751D01*
X334499Y96603D01*
X335351Y97713D01*
X335887Y99006D01*
X336069Y100394D01*
X335903Y101657D01*
X359419Y125173D01*
X361284D01*
X361844Y124443D01*
X362873Y123654D01*
X364070Y123158D01*
X365354Y122989D01*
X366639Y123158D01*
X367836Y123654D01*
X368864Y124443D01*
X369653Y125471D01*
X370149Y126668D01*
X370318Y127953D01*
X370149Y129237D01*
X369653Y130435D01*
X368864Y131463D01*
X367836Y132252D01*
X366639Y132747D01*
X365354Y132916D01*
D02*
G37*
G36*
X294094Y132523D02*
X292810Y132354D01*
X291613Y131858D01*
X290585Y131069D01*
X289796Y130041D01*
X289594Y129554D01*
X288930D01*
X288210Y129459D01*
X287540Y129181D01*
X286964Y128740D01*
X263813Y105588D01*
X262549Y105754D01*
X261162Y105572D01*
X259869Y105036D01*
X258758Y104184D01*
X257907Y103074D01*
X257371Y101781D01*
X257188Y100394D01*
X257371Y99006D01*
X257907Y97713D01*
X258758Y96603D01*
X259869Y95751D01*
X261162Y95216D01*
X262549Y95033D01*
X263937Y95216D01*
X265230Y95751D01*
X266340Y96603D01*
X267192Y97713D01*
X267727Y99006D01*
X267910Y100394D01*
X267744Y101657D01*
X290081Y123994D01*
X290656D01*
X291613Y123260D01*
X292810Y122765D01*
X294094Y122595D01*
X295379Y122765D01*
X296576Y123260D01*
X297604Y124049D01*
X298393Y125077D01*
X298889Y126274D01*
X299058Y127559D01*
X298889Y128844D01*
X298393Y130041D01*
X297604Y131069D01*
X296576Y131858D01*
X295379Y132354D01*
X294094Y132523D01*
D02*
G37*
G36*
X122047Y108268D02*
X119882D01*
Y104921D01*
X122047D01*
Y108268D01*
D02*
G37*
G36*
X118701D02*
X116535D01*
Y104921D01*
X118701D01*
Y108268D01*
D02*
G37*
G36*
X122047Y103740D02*
X119882D01*
Y101193D01*
X121248D01*
X121157Y101164D01*
X121075Y101075D01*
X121003Y100927D01*
X120941Y100721D01*
X120888Y100455D01*
X120880Y100394D01*
X122047D01*
Y103740D01*
D02*
G37*
G36*
X118701D02*
X116535D01*
Y100394D01*
X117699D01*
X117695Y100455D01*
X117642Y100721D01*
X117580Y100927D01*
X117508Y101075D01*
X117426Y101164D01*
X117335Y101193D01*
X118701D01*
Y103740D01*
D02*
G37*
G36*
X224508Y133153D02*
X223223Y132984D01*
X222026Y132488D01*
X220998Y131699D01*
X220209Y130671D01*
X219713Y129474D01*
X219544Y128189D01*
X219713Y126904D01*
X220209Y125707D01*
X220419Y125433D01*
X200695Y105709D01*
X196653D01*
X193996Y103051D01*
Y97736D01*
X196653Y95079D01*
X201969D01*
X204626Y97736D01*
Y101778D01*
X225569Y122721D01*
X226011Y123297D01*
X226105Y123524D01*
X226990Y123890D01*
X228018Y124679D01*
X228807Y125707D01*
X229303Y126904D01*
X229472Y128189D01*
X229303Y129474D01*
X228807Y130671D01*
X228018Y131699D01*
X226990Y132488D01*
X225793Y132984D01*
X224508Y133153D01*
D02*
G37*
G36*
X155561Y132995D02*
X154276Y132826D01*
X153079Y132330D01*
X152051Y131541D01*
X151262Y130513D01*
X150766Y129316D01*
X150597Y128032D01*
X150766Y126747D01*
X151262Y125550D01*
X151746Y124919D01*
X132536Y105709D01*
X128494D01*
X125837Y103051D01*
Y97736D01*
X128494Y95079D01*
X133809D01*
X136467Y97736D01*
Y101778D01*
X156623Y121934D01*
X157064Y122509D01*
X157342Y123180D01*
X157379Y123458D01*
X158043Y123733D01*
X159071Y124522D01*
X159860Y125550D01*
X160356Y126747D01*
X160525Y128032D01*
X160356Y129316D01*
X159860Y130513D01*
X159071Y131541D01*
X158043Y132330D01*
X156846Y132826D01*
X155561Y132995D01*
D02*
G37*
G36*
X86614Y93012D02*
X84449D01*
Y90354D01*
X86614D01*
Y93012D01*
D02*
G37*
G36*
X83268D02*
X81102D01*
Y90354D01*
X83268D01*
Y93012D01*
D02*
G37*
G36*
X86614Y89173D02*
X84449D01*
Y87315D01*
X85815D01*
X85630Y87296D01*
X85465Y87236D01*
X85319Y87138D01*
X85193Y87000D01*
X85086Y86823D01*
X84998Y86607D01*
X84974Y86516D01*
X86614D01*
Y89173D01*
D02*
G37*
G36*
X83268D02*
X81102D01*
Y86516D01*
X82743D01*
X82718Y86607D01*
X82631Y86823D01*
X82524Y87000D01*
X82398Y87138D01*
X82252Y87236D01*
X82086Y87296D01*
X81902Y87315D01*
X83268D01*
Y89173D01*
D02*
G37*
G36*
X331299Y85793D02*
Y81299D01*
X335793D01*
X335695Y82045D01*
X335179Y83290D01*
X334359Y84359D01*
X333290Y85179D01*
X332045Y85695D01*
X331299Y85793D01*
D02*
G37*
G36*
X330118D02*
X329373Y85695D01*
X328128Y85179D01*
X327058Y84359D01*
X326238Y83290D01*
X325722Y82045D01*
X325624Y81299D01*
X330118D01*
Y85793D01*
D02*
G37*
G36*
X263140D02*
Y81299D01*
X267634D01*
X267536Y82045D01*
X267020Y83290D01*
X266199Y84359D01*
X265130Y85179D01*
X263885Y85695D01*
X263140Y85793D01*
D02*
G37*
G36*
X131742D02*
Y81299D01*
X136236D01*
X136138Y82045D01*
X135622Y83290D01*
X134802Y84359D01*
X133733Y85179D01*
X132488Y85695D01*
X131742Y85793D01*
D02*
G37*
G36*
X130561D02*
X129815Y85695D01*
X128570Y85179D01*
X127501Y84359D01*
X126681Y83290D01*
X126165Y82045D01*
X126067Y81299D01*
X130561D01*
Y85793D01*
D02*
G37*
G36*
X261959D02*
X261213Y85695D01*
X259968Y85179D01*
X258899Y84359D01*
X258079Y83290D01*
X257563Y82045D01*
X257465Y81299D01*
X261959D01*
Y85793D01*
D02*
G37*
G36*
X199901Y85793D02*
Y81299D01*
X204396D01*
X204297Y82045D01*
X203782Y83290D01*
X202961Y84359D01*
X201892Y85179D01*
X200647Y85695D01*
X199901Y85793D01*
D02*
G37*
G36*
X198720Y85793D02*
X197975Y85695D01*
X196730Y85179D01*
X195661Y84359D01*
X194840Y83290D01*
X194325Y82045D01*
X194227Y81299D01*
X198720D01*
Y85793D01*
D02*
G37*
G36*
Y80118D02*
X194227D01*
X194325Y79373D01*
X194840Y78127D01*
X195661Y77058D01*
X196730Y76238D01*
X197975Y75722D01*
X198720Y75624D01*
Y80118D01*
D02*
G37*
G36*
X267634Y80118D02*
X263140D01*
Y75624D01*
X263885Y75722D01*
X265130Y76238D01*
X266199Y77058D01*
X267020Y78127D01*
X267536Y79373D01*
X267634Y80118D01*
D02*
G37*
G36*
X130561D02*
X126067D01*
X126165Y79373D01*
X126681Y78127D01*
X127501Y77058D01*
X128570Y76238D01*
X129815Y75722D01*
X130561Y75624D01*
Y80118D01*
D02*
G37*
G36*
X335793Y80118D02*
X331299D01*
Y75624D01*
X332045Y75722D01*
X333290Y76238D01*
X334359Y77058D01*
X335179Y78127D01*
X335695Y79373D01*
X335793Y80118D01*
D02*
G37*
G36*
X330118D02*
X325624D01*
X325722Y79373D01*
X326238Y78127D01*
X327058Y77058D01*
X328128Y76238D01*
X329373Y75722D01*
X330118Y75624D01*
Y80118D01*
D02*
G37*
G36*
X136236Y80118D02*
X131742D01*
Y75624D01*
X132488Y75722D01*
X133733Y76238D01*
X134802Y77058D01*
X135622Y78127D01*
X136138Y79373D01*
X136236Y80118D01*
D02*
G37*
G36*
X261959D02*
X257465D01*
X257563Y79373D01*
X258079Y78127D01*
X258899Y77058D01*
X259968Y76238D01*
X261213Y75722D01*
X261959Y75624D01*
Y80118D01*
D02*
G37*
G36*
X204396Y80118D02*
X199901D01*
Y75624D01*
X200647Y75722D01*
X201892Y76238D01*
X202961Y77058D01*
X203782Y78127D01*
X204297Y79373D01*
X204396Y80118D01*
D02*
G37*
G36*
X120669Y68602D02*
Y66732D01*
X122539D01*
Y68602D01*
X120669D01*
D02*
G37*
G36*
X330709Y66385D02*
X329321Y66202D01*
X328028Y65666D01*
X326918Y64814D01*
X326752Y64597D01*
X266506D01*
X266340Y64814D01*
X265230Y65666D01*
X263937Y66202D01*
X262549Y66385D01*
X261162Y66202D01*
X259869Y65666D01*
X258758Y64814D01*
X258592Y64597D01*
X203268D01*
X203102Y64814D01*
X201991Y65666D01*
X200698Y66202D01*
X199311Y66385D01*
X197924Y66202D01*
X196631Y65666D01*
X195520Y64814D01*
X195354Y64597D01*
X135109D01*
X134942Y64814D01*
X133832Y65666D01*
X132539Y66202D01*
X131152Y66385D01*
X129764Y66202D01*
X128471Y65666D01*
X127361Y64814D01*
X126509Y63704D01*
X125973Y62411D01*
X125791Y61024D01*
X125973Y59636D01*
X126086Y59364D01*
X120020Y53298D01*
X119498Y52517D01*
X119315Y51595D01*
Y50956D01*
X119308Y50886D01*
X113287D01*
Y50440D01*
X111516D01*
Y50787D01*
X108131D01*
X107116Y51802D01*
X107307Y52264D01*
X110236D01*
Y59547D01*
X105283D01*
X105277Y59549D01*
X105248Y59547D01*
X105186D01*
X105130Y59558D01*
X105074Y59547D01*
X103937D01*
Y58661D01*
X103752Y58618D01*
X103488Y58581D01*
X103344Y58570D01*
X103176D01*
X102697Y58839D01*
X102303Y59095D01*
X102303Y59339D01*
Y60571D01*
X98228D01*
X94953D01*
Y59677D01*
X94933Y59772D01*
X94874Y59857D01*
X94776Y59932D01*
X94638Y59997D01*
X94461Y60052D01*
X94244Y60097D01*
X94154Y60110D01*
X94154Y59095D01*
X93760Y58839D01*
X93760Y58621D01*
X93760Y58621D01*
Y53484D01*
Y48484D01*
Y43484D01*
X96031D01*
Y42506D01*
X96214Y41584D01*
X96736Y40803D01*
X99478Y38061D01*
X100259Y37539D01*
X101181Y37355D01*
X104232D01*
Y36614D01*
X111516D01*
Y36962D01*
X113287D01*
Y36516D01*
X124508D01*
Y36962D01*
X127479D01*
X127992Y37064D01*
X128471Y36696D01*
X129764Y36160D01*
X131152Y35978D01*
X132539Y36160D01*
X133832Y36696D01*
X134942Y37548D01*
X135109Y37765D01*
X195354D01*
X195520Y37548D01*
X196631Y36696D01*
X197924Y36160D01*
X199311Y35978D01*
X200698Y36160D01*
X201991Y36696D01*
X203102Y37548D01*
X203268Y37765D01*
X258592D01*
X258758Y37548D01*
X259869Y36696D01*
X261162Y36160D01*
X262549Y35978D01*
X263937Y36160D01*
X265230Y36696D01*
X266340Y37548D01*
X266506Y37765D01*
X326752D01*
X326918Y37548D01*
X328028Y36696D01*
X329321Y36160D01*
X330709Y35978D01*
X332096Y36160D01*
X333389Y36696D01*
X334499Y37548D01*
X335351Y38658D01*
X335887Y39951D01*
X336069Y41339D01*
X335887Y42726D01*
X335351Y44019D01*
X334499Y45129D01*
X333389Y45981D01*
X332096Y46517D01*
X330709Y46699D01*
X329321Y46517D01*
X328028Y45981D01*
X326918Y45129D01*
X326752Y44912D01*
X266506D01*
X266340Y45129D01*
X265230Y45981D01*
X263937Y46517D01*
X262549Y46699D01*
X261162Y46517D01*
X259869Y45981D01*
X258758Y45129D01*
X258592Y44912D01*
X203268D01*
X203102Y45129D01*
X201991Y45981D01*
X200698Y46517D01*
X199311Y46699D01*
X197924Y46517D01*
X196631Y45981D01*
X195520Y45129D01*
X195354Y44912D01*
X135109D01*
X134942Y45129D01*
X133832Y45981D01*
X132539Y46517D01*
X131152Y46699D01*
X129764Y46517D01*
X128471Y45981D01*
X127361Y45129D01*
X126509Y44019D01*
X125973Y42726D01*
X125849Y41779D01*
X124508D01*
Y42224D01*
X113287D01*
Y41779D01*
X111516D01*
Y42913D01*
X104232D01*
Y42172D01*
X102179D01*
X101329Y43022D01*
X101520Y43484D01*
X102697D01*
Y48688D01*
X103417D01*
X104232Y47873D01*
Y44488D01*
X111516D01*
Y45623D01*
X113287D01*
Y45177D01*
X124508D01*
Y49637D01*
X124519Y49693D01*
X124508Y49749D01*
Y50886D01*
X124508Y50886D01*
X124508D01*
X124789Y51255D01*
X129492Y55958D01*
X129764Y55845D01*
X131152Y55663D01*
X132539Y55845D01*
X133832Y56381D01*
X134942Y57233D01*
X135109Y57450D01*
X195354D01*
X195520Y57233D01*
X196631Y56381D01*
X197924Y55845D01*
X199311Y55663D01*
X200698Y55845D01*
X201991Y56381D01*
X203102Y57233D01*
X203268Y57450D01*
X258592D01*
X258758Y57233D01*
X259869Y56381D01*
X261162Y55845D01*
X262549Y55663D01*
X263937Y55845D01*
X265230Y56381D01*
X266340Y57233D01*
X266506Y57450D01*
X326752D01*
X326918Y57233D01*
X328028Y56381D01*
X329321Y55845D01*
X330709Y55663D01*
X332096Y55845D01*
X333389Y56381D01*
X334499Y57233D01*
X335351Y58343D01*
X335887Y59636D01*
X336069Y61024D01*
X335887Y62411D01*
X335351Y63704D01*
X334499Y64814D01*
X333389Y65666D01*
X332096Y66202D01*
X330709Y66385D01*
D02*
G37*
G36*
X122539Y65551D02*
X120669D01*
Y63681D01*
X122539D01*
Y65551D01*
D02*
G37*
G36*
X117717Y59153D02*
X115551D01*
Y56496D01*
X117717D01*
Y59153D01*
D02*
G37*
G36*
X114370D02*
X112205D01*
Y56496D01*
X114370D01*
Y59153D01*
D02*
G37*
G36*
X117717Y55315D02*
X115551D01*
Y52658D01*
X117717D01*
Y55315D01*
D02*
G37*
G36*
X114370D02*
X112205D01*
Y52658D01*
X114370D01*
Y55315D01*
D02*
G37*
G36*
X65748Y50197D02*
X65059D01*
Y49016D01*
X65748D01*
Y50197D01*
D02*
G37*
G36*
X80650Y45571D02*
X77165D01*
Y44677D01*
X78937D01*
X78713Y44654D01*
X78512Y44583D01*
X78335Y44465D01*
X78181Y44299D01*
X78051Y44087D01*
X77966Y43878D01*
X80650D01*
Y45571D01*
D02*
G37*
G36*
X87402Y41831D02*
X85965D01*
X86021Y41622D01*
X86106Y41409D01*
X86207Y41244D01*
X86323Y41126D01*
X86455Y41055D01*
X86602Y41031D01*
X85236D01*
Y39173D01*
X87402D01*
Y41831D01*
D02*
G37*
G36*
X83327D02*
X81890D01*
Y39173D01*
X84055D01*
Y41031D01*
X82689D01*
X82837Y41055D01*
X82968Y41126D01*
X83085Y41244D01*
X83185Y41409D01*
X83271Y41622D01*
X83327Y41831D01*
D02*
G37*
G36*
X79527D02*
X77929D01*
X77999Y41622D01*
X78106Y41409D01*
X78232Y41244D01*
X78378Y41126D01*
X78543Y41055D01*
X78728Y41031D01*
X77362D01*
Y39173D01*
X79527D01*
Y41831D01*
D02*
G37*
G36*
X75291D02*
X74016D01*
Y39173D01*
X76181D01*
Y41031D01*
X74815D01*
X74925Y41055D01*
X75023Y41126D01*
X75110Y41244D01*
X75185Y41409D01*
X75249Y41622D01*
X75291Y41831D01*
D02*
G37*
G36*
X87402Y37992D02*
X85236D01*
Y35335D01*
X87402D01*
Y37992D01*
D02*
G37*
G36*
X84055D02*
X81890D01*
Y35335D01*
X84055D01*
Y37992D01*
D02*
G37*
G36*
X79527Y37992D02*
X77362D01*
Y35335D01*
X79527D01*
Y37992D01*
D02*
G37*
G36*
X76181D02*
X74016D01*
Y35335D01*
X76181D01*
Y37992D01*
D02*
G37*
G36*
X333366Y26969D02*
X328051D01*
X325394Y24311D01*
Y18996D01*
X328051Y16339D01*
X333366D01*
X336024Y18996D01*
Y24311D01*
X333366Y26969D01*
D02*
G37*
G36*
X265207D02*
X259892D01*
X257234Y24311D01*
Y18996D01*
X259892Y16339D01*
X265207D01*
X267864Y18996D01*
Y24311D01*
X265207Y26969D01*
D02*
G37*
G36*
X199311Y27014D02*
X197924Y26832D01*
X196631Y26296D01*
X195520Y25444D01*
X194668Y24334D01*
X194133Y23041D01*
X193950Y21654D01*
X194133Y20266D01*
X194668Y18973D01*
X195520Y17863D01*
X196631Y17011D01*
X197924Y16475D01*
X199311Y16293D01*
X200698Y16475D01*
X201991Y17011D01*
X203102Y17863D01*
X203954Y18973D01*
X204489Y20266D01*
X204672Y21654D01*
X204489Y23041D01*
X203954Y24334D01*
X203102Y25444D01*
X201991Y26296D01*
X200698Y26832D01*
X199311Y27014D01*
D02*
G37*
G36*
X131152D02*
X129764Y26832D01*
X128471Y26296D01*
X127361Y25444D01*
X126509Y24334D01*
X125973Y23041D01*
X125791Y21654D01*
X125973Y20266D01*
X126509Y18973D01*
X127361Y17863D01*
X128471Y17011D01*
X129764Y16475D01*
X131152Y16293D01*
X132539Y16475D01*
X133832Y17011D01*
X134942Y17863D01*
X135794Y18973D01*
X136330Y20266D01*
X136512Y21654D01*
X136330Y23041D01*
X135794Y24334D01*
X134942Y25444D01*
X133832Y26296D01*
X132539Y26832D01*
X131152Y27014D01*
D02*
G37*
%LPD*%
G36*
X109290Y101170D02*
X109158Y101099D01*
X109041Y100980D01*
X108941Y100815D01*
X108855Y100603D01*
X108785Y100343D01*
X108731Y100036D01*
X108692Y99681D01*
X108661Y98831D01*
X106299D01*
X106291Y99280D01*
X106229Y100036D01*
X106175Y100343D01*
X106105Y100603D01*
X106020Y100815D01*
X105919Y100980D01*
X105803Y101099D01*
X105671Y101170D01*
X105524Y101193D01*
X109437D01*
X109290Y101170D01*
D02*
G37*
G36*
X92921Y94126D02*
X92983Y93370D01*
X93037Y93063D01*
X93107Y92803D01*
X93192Y92590D01*
X93293Y92425D01*
X93410Y92307D01*
X93542Y92236D01*
X93689Y92212D01*
X89776D01*
X89923Y92236D01*
X90055Y92307D01*
X90171Y92425D01*
X90272Y92590D01*
X90357Y92803D01*
X90427Y93063D01*
X90481Y93370D01*
X90520Y93724D01*
X90551Y94575D01*
X92913D01*
X92921Y94126D01*
D02*
G37*
G36*
X93704Y90402D02*
X93752Y90268D01*
X93831Y90150D01*
X93941Y90047D01*
X94082Y89961D01*
X94256Y89890D01*
X94460Y89835D01*
X94697Y89795D01*
X94964Y89772D01*
X95264Y89764D01*
Y88189D01*
X94964Y88181D01*
X94697Y88157D01*
X94460Y88118D01*
X94256Y88063D01*
X94082Y87992D01*
X93941Y87906D01*
X93831Y87803D01*
X93752Y87685D01*
X93704Y87551D01*
X93689Y87402D01*
Y90551D01*
X93704Y90402D01*
D02*
G37*
G36*
X104343Y85642D02*
X104327Y85714D01*
X104280Y85779D01*
X104201Y85837D01*
X104091Y85886D01*
X103949Y85928D01*
X103776Y85962D01*
X103571Y85989D01*
X103067Y86020D01*
X102768Y86024D01*
Y87598D01*
X103067Y87602D01*
X103776Y87660D01*
X103949Y87694D01*
X104091Y87736D01*
X104201Y87786D01*
X104280Y87843D01*
X104327Y87908D01*
X104343Y87980D01*
Y85642D01*
D02*
G37*
G36*
X93542Y87292D02*
X93410Y87221D01*
X93293Y87103D01*
X93192Y86937D01*
X93107Y86725D01*
X93037Y86465D01*
X92983Y86158D01*
X92944Y85803D01*
X92913Y84953D01*
X90551D01*
X90543Y85402D01*
X90481Y86158D01*
X90427Y86465D01*
X90357Y86725D01*
X90272Y86937D01*
X90171Y87103D01*
X90055Y87221D01*
X89923Y87292D01*
X89776Y87315D01*
X93689D01*
X93542Y87292D01*
D02*
G37*
G36*
X116937Y86153D02*
X116999Y85397D01*
X117053Y85090D01*
X117123Y84830D01*
X117208Y84618D01*
X117309Y84453D01*
X117425Y84334D01*
X117557Y84264D01*
X117704Y84240D01*
X113792D01*
X113939Y84264D01*
X114071Y84334D01*
X114187Y84453D01*
X114288Y84618D01*
X114373Y84830D01*
X114443Y85090D01*
X114497Y85397D01*
X114536Y85752D01*
X114567Y86602D01*
X116929D01*
X116937Y86153D01*
D02*
G37*
G36*
X94953Y79677D02*
X94929Y79724D01*
X94858Y79765D01*
X94740Y79802D01*
X94575Y79834D01*
X94362Y79860D01*
X93796Y79899D01*
X92591Y79921D01*
Y82284D01*
X93040Y82287D01*
X94362Y82374D01*
X94575Y82414D01*
X94740Y82461D01*
X94858Y82515D01*
X94929Y82577D01*
X94953Y82645D01*
Y79677D01*
D02*
G37*
G36*
X117557Y81878D02*
X117425Y81807D01*
X117309Y81689D01*
X117208Y81524D01*
X117123Y81311D01*
X117053Y81051D01*
X116999Y80744D01*
X116960Y80390D01*
X116929Y79540D01*
X114567D01*
X114559Y79988D01*
X114497Y80744D01*
X114443Y81051D01*
X114373Y81311D01*
X114288Y81524D01*
X114187Y81689D01*
X114071Y81807D01*
X113939Y81878D01*
X113792Y81902D01*
X117704D01*
X117557Y81878D01*
D02*
G37*
G36*
X101527Y77588D02*
X101598Y77536D01*
X101716Y77491D01*
X101882Y77452D01*
X102094Y77418D01*
X102661Y77370D01*
X103417Y77346D01*
X103866Y77342D01*
Y74980D01*
X103417Y74977D01*
X101882Y74871D01*
X101716Y74832D01*
X101598Y74786D01*
X101527Y74735D01*
X101504Y74677D01*
Y77645D01*
X101527Y77588D01*
D02*
G37*
G36*
X108772Y73224D02*
X108842Y73142D01*
X108960Y73070D01*
X109126Y73008D01*
X109338Y72955D01*
X109598Y72912D01*
X109905Y72878D01*
X110661Y72839D01*
X111110Y72835D01*
Y70473D01*
X110661Y70468D01*
X109598Y70396D01*
X109338Y70352D01*
X109126Y70300D01*
X108960Y70237D01*
X108842Y70165D01*
X108772Y70083D01*
X108748Y69992D01*
Y73315D01*
X108772Y73224D01*
D02*
G37*
G36*
X105425Y69992D02*
X105408Y70038D01*
X105356Y70078D01*
X105270Y70114D01*
X105149Y70145D01*
X104993Y70171D01*
X104803Y70193D01*
X104318Y70221D01*
X103695Y70231D01*
Y72593D01*
X104026Y72598D01*
X104583Y72642D01*
X104809Y72681D01*
X105001Y72730D01*
X105158Y72791D01*
X105280Y72862D01*
X105367Y72944D01*
X105420Y73038D01*
X105437Y73142D01*
X105425Y69992D01*
D02*
G37*
G36*
X101523Y72588D02*
X101581Y72536D01*
X101679Y72491D01*
X101814Y72452D01*
X101989Y72418D01*
X102203Y72391D01*
X102746Y72355D01*
X103445Y72342D01*
Y69980D01*
X103076Y69977D01*
X101989Y69905D01*
X101814Y69871D01*
X101679Y69832D01*
X101581Y69786D01*
X101523Y69735D01*
X101504Y69677D01*
Y72645D01*
X101523Y72588D01*
D02*
G37*
G36*
X105425Y64481D02*
X105402Y64575D01*
X105331Y64660D01*
X105213Y64735D01*
X105048Y64800D01*
X104835Y64855D01*
X104575Y64900D01*
X104268Y64935D01*
X103512Y64975D01*
X103406Y64977D01*
X101882Y64871D01*
X101716Y64832D01*
X101598Y64786D01*
X101527Y64735D01*
X101504Y64677D01*
Y67646D01*
X101527Y67588D01*
X101598Y67536D01*
X101716Y67491D01*
X101882Y67452D01*
X102094Y67418D01*
X102661Y67370D01*
X103403Y67346D01*
X103512Y67347D01*
X104575Y67416D01*
X104835Y67458D01*
X105048Y67508D01*
X105213Y67568D01*
X105331Y67637D01*
X105402Y67716D01*
X105425Y67803D01*
Y64481D01*
D02*
G37*
G36*
X112906D02*
X112882Y64572D01*
X112811Y64653D01*
X112693Y64725D01*
X112528Y64788D01*
X112315Y64841D01*
X112055Y64884D01*
X111748Y64917D01*
X110992Y64956D01*
X110827Y64958D01*
X110661Y64956D01*
X109598Y64884D01*
X109338Y64841D01*
X109126Y64788D01*
X108960Y64725D01*
X108842Y64653D01*
X108772Y64572D01*
X108748Y64481D01*
Y67803D01*
X108772Y67712D01*
X108842Y67630D01*
X108960Y67558D01*
X109126Y67496D01*
X109338Y67443D01*
X109598Y67400D01*
X109905Y67366D01*
X110661Y67328D01*
X110827Y67326D01*
X110992Y67328D01*
X112055Y67400D01*
X112315Y67443D01*
X112528Y67496D01*
X112693Y67558D01*
X112811Y67630D01*
X112882Y67712D01*
X112906Y67803D01*
Y64481D01*
D02*
G37*
G36*
X105130Y53799D02*
X105106Y54024D01*
X105036Y54224D01*
X104918Y54402D01*
X104752Y54555D01*
X104540Y54685D01*
X104280Y54791D01*
X103973Y54874D01*
X103618Y54933D01*
X103249Y54966D01*
X101882Y54871D01*
X101716Y54832D01*
X101598Y54786D01*
X101527Y54735D01*
X101504Y54677D01*
Y57645D01*
X101527Y57588D01*
X101598Y57536D01*
X101716Y57491D01*
X101882Y57452D01*
X102094Y57418D01*
X102661Y57370D01*
X103205Y57352D01*
X103217Y57353D01*
X103618Y57383D01*
X103973Y57434D01*
X104280Y57504D01*
X104540Y57595D01*
X104752Y57707D01*
X104918Y57838D01*
X105036Y57990D01*
X105106Y58162D01*
X105130Y58354D01*
Y53799D01*
D02*
G37*
G36*
X122908Y51234D02*
X122970Y50378D01*
X123007Y50168D01*
X123052Y49997D01*
X123105Y49864D01*
X123167Y49769D01*
X123237Y49712D01*
X123315Y49693D01*
X119992D01*
X120097Y49712D01*
X120190Y49769D01*
X120273Y49864D01*
X120344Y49997D01*
X120405Y50168D01*
X120454Y50378D01*
X120492Y50625D01*
X120520Y50910D01*
X120542Y51595D01*
X122904D01*
X122908Y51234D01*
D02*
G37*
D10*
X68504Y74803D02*
X70866Y77165D01*
Y80315D01*
X65453Y74803D02*
X68504D01*
X56693Y53543D02*
X66339D01*
X52756Y57480D02*
Y67716D01*
Y57480D02*
X56693Y53543D01*
X52756Y67716D02*
X56693Y71653D01*
X63779D01*
X68898D02*
X76083D01*
X76575Y71161D01*
X63779Y71653D02*
Y73130D01*
X70866Y80315D02*
X71713Y81161D01*
X63779Y73130D02*
X65453Y74803D01*
X71713Y81161D02*
X76575D01*
X68898Y61841D02*
Y69095D01*
Y61841D02*
X69715Y61024D01*
X63779Y69095D02*
X68898D01*
D12*
X83858Y67323D02*
Y72835D01*
X90020Y61161D02*
X98228D01*
X83858Y67323D02*
X90020Y61161D01*
X83858Y76378D02*
Y89764D01*
Y72835D02*
Y76378D01*
X76575Y76161D02*
X83642D01*
X83858Y76378D01*
X82185Y71161D02*
X83858Y72835D01*
X76575Y71161D02*
X82185D01*
D13*
X91732Y89764D02*
D03*
X83858D02*
D03*
X107087Y55905D02*
D03*
X114961D02*
D03*
X84646Y38583D02*
D03*
X76772D02*
D03*
D15*
X119291Y104331D02*
D03*
X107480D02*
D03*
D18*
X107087Y71653D02*
D03*
Y66142D02*
D03*
D19*
X107874Y39764D02*
D03*
Y47638D02*
D03*
D33*
X358268Y127953D02*
X365354D01*
X330709Y100394D02*
X358268Y127953D01*
X293309Y126774D02*
X294094Y127559D01*
X288930Y126774D02*
X293309D01*
X262549Y100394D02*
X288930Y126774D01*
X223604Y127285D02*
X224508Y128189D01*
X223604Y124687D02*
Y127285D01*
X199311Y100394D02*
X223604Y124687D01*
X154657Y127128D02*
X155561Y128032D01*
X154657Y123899D02*
Y127128D01*
X131152Y100394D02*
X154657Y123899D01*
D34*
X119291Y93307D02*
Y104331D01*
X131152Y80709D02*
Y81447D01*
X119291Y93307D02*
X131152Y81447D01*
D35*
X113937Y148189D02*
X122884D01*
X107480Y104331D02*
Y141732D01*
X113937Y148189D01*
X121653Y39370D02*
X127479D01*
X129447Y41339D01*
X131152D01*
X121653Y48031D02*
X121723Y48101D01*
Y51595D01*
X131152Y61024D01*
X107874Y39764D02*
X108268Y39370D01*
X116142D01*
X107874Y47638D02*
X108268Y48031D01*
X116142D01*
X107382Y47638D02*
X107874D01*
X106595Y48425D02*
X107382Y47638D01*
X106595Y48425D02*
Y48917D01*
X104415Y51097D02*
X106595Y48917D01*
X98293Y51097D02*
X104415D01*
X98228Y51161D02*
X98293Y51097D01*
X101181Y39764D02*
X107874D01*
X98228Y46161D02*
X98439Y45951D01*
Y42506D02*
Y45951D01*
Y42506D02*
X101181Y39764D01*
X76575Y81161D02*
Y86704D01*
X69715Y61024D02*
X76437D01*
X62992D02*
X69715D01*
X69685Y54331D02*
X71510Y56156D01*
X62992Y41339D02*
X64197Y42544D01*
X67741D02*
X69685Y44488D01*
Y54331D01*
X64197Y42544D02*
X67741D01*
X91732Y89764D02*
Y96637D01*
X92126Y97031D01*
Y97244D01*
X91732Y81709D02*
Y89764D01*
X91339Y81315D02*
X91732Y81709D01*
X91339Y81102D02*
Y81315D01*
X76575Y86704D02*
X76772Y86901D01*
X98169Y81102D02*
X98228Y81161D01*
X91339Y81102D02*
X98169D01*
X76772Y86614D02*
Y86901D01*
X98228Y81161D02*
X98425Y81358D01*
X106505Y77751D02*
Y79309D01*
X104915Y76161D02*
X106505Y77751D01*
X98228Y76161D02*
X104915D01*
X107087Y66142D02*
X114567D01*
X98228Y66161D02*
X107067D01*
X107087Y66142D01*
X98228Y56161D02*
X106831D01*
X107087Y55905D01*
X107480Y96850D02*
Y104331D01*
X115748Y83071D02*
Y88583D01*
X107480Y96850D02*
X115748Y88583D01*
Y75984D02*
Y83071D01*
X111417Y71653D02*
X115748Y75984D01*
X107087Y71653D02*
X111417D01*
X106845Y71412D02*
X107087Y71653D01*
X103695Y71412D02*
X106845D01*
X103445Y71161D02*
X103695Y71412D01*
X98228Y71161D02*
X103445D01*
X76575Y38780D02*
Y46161D01*
Y38780D02*
X76772Y38583D01*
X84646D02*
Y49213D01*
X82697Y51161D02*
X84646Y49213D01*
X76575Y51161D02*
X82697D01*
X76437Y61024D02*
X76575Y61161D01*
X71510Y56156D02*
X76569D01*
X76575Y56161D01*
D36*
X91732Y89764D02*
X92520Y88976D01*
X97244D01*
X99410Y86811D02*
X106299D01*
X97244Y88976D02*
X99410Y86811D01*
D37*
X330709Y128189D02*
Y138189D01*
X261434Y128189D02*
Y138189D01*
X192159Y128189D02*
Y138189D01*
X122884Y128189D02*
Y138189D01*
X262549Y80709D02*
X330709D01*
X199311D02*
X262549D01*
X131152D02*
X199311D01*
X18898Y35827D02*
Y73622D01*
Y35827D02*
X33071Y21654D01*
X62992D01*
X262549Y41339D02*
X330709D01*
X199311D02*
X262549D01*
X131152D02*
X199311D01*
X262549Y61024D02*
X330709D01*
X199311D02*
X262549D01*
X131152D02*
X199311D01*
D38*
X365354Y127953D02*
D03*
X224508Y128189D02*
D03*
X294094Y127559D02*
D03*
X155561Y128032D02*
D03*
Y148189D02*
D03*
D39*
X330709Y21654D02*
D03*
X199311Y100394D02*
D03*
X262549Y21654D02*
D03*
X62992Y100394D02*
D03*
X131152D02*
D03*
D40*
X330709Y41339D02*
D03*
Y61024D02*
D03*
Y80709D02*
D03*
Y100394D02*
D03*
X199311Y80709D02*
D03*
Y61024D02*
D03*
Y41339D02*
D03*
Y21654D02*
D03*
X262549Y100394D02*
D03*
Y80709D02*
D03*
Y61024D02*
D03*
Y41339D02*
D03*
X62992Y21654D02*
D03*
Y41339D02*
D03*
Y61024D02*
D03*
Y80709D02*
D03*
X131152Y21654D02*
D03*
Y41339D02*
D03*
Y61024D02*
D03*
Y80709D02*
D03*
D41*
X122884Y148189D02*
D03*
Y138189D02*
D03*
Y128189D02*
D03*
X192159Y148189D02*
D03*
Y138189D02*
D03*
Y128189D02*
D03*
X261434Y148189D02*
D03*
Y138189D02*
D03*
Y128189D02*
D03*
X330709Y148189D02*
D03*
Y138189D02*
D03*
Y128189D02*
D03*
D42*
X75590Y114961D02*
D03*
X105118Y166929D02*
D03*
X102362Y157087D02*
D03*
X101969Y148031D02*
D03*
X92126Y97244D02*
D03*
X91339Y81102D02*
D03*
X76772Y86614D02*
D03*
D43*
X121653Y48031D02*
D03*
X116142D02*
D03*
X121653Y39370D02*
D03*
X116142D02*
D03*
X114567Y66142D02*
D03*
X120079D02*
D03*
D44*
X68898Y48425D02*
D03*
X66339D02*
D03*
Y53543D02*
D03*
X68898D02*
D03*
D45*
X63779Y71653D02*
D03*
Y69095D02*
D03*
X68898D02*
D03*
Y71653D02*
D03*
D46*
X76575Y46161D02*
D03*
Y51161D02*
D03*
Y56161D02*
D03*
Y61161D02*
D03*
Y66161D02*
D03*
Y71161D02*
D03*
Y76161D02*
D03*
Y81161D02*
D03*
X98228Y46161D02*
D03*
Y51161D02*
D03*
Y56161D02*
D03*
Y61161D02*
D03*
Y66161D02*
D03*
Y71161D02*
D03*
Y76161D02*
D03*
Y81161D02*
D03*
D47*
X115748Y83071D02*
D03*
X106299Y86811D02*
D03*
Y79331D02*
D03*
D48*
X155561Y148189D02*
X192159D01*
X122884D02*
X155561D01*
X192159D02*
X261434D01*
X330709D01*
M02*
