G04*
G04 #@! TF.GenerationSoftware,Altium Limited,Altium Designer,20.2.7 (254)*
G04*
G04 Layer_Color=15724527*
%FSLAX25Y25*%
%MOIN*%
G70*
G04*
G04 #@! TF.SameCoordinates,A70D1E75-91AA-4FD3-A19C-EF1787EBCA39*
G04*
G04*
G04 #@! TF.FilePolarity,Positive*
G04*
G01*
G75*
%ADD10C,0.00787*%
%ADD11C,0.00984*%
%ADD12C,0.01968*%
D10*
X370472Y127953D02*
G03*
X370472Y127953I-5118J0D01*
G01*
X41299Y118898D02*
G03*
X41299Y118898I-394J0D01*
G01*
X229626Y128189D02*
G03*
X229626Y128189I-5118J0D01*
G01*
X299213Y127559D02*
G03*
X299213Y127559I-5118J0D01*
G01*
X160679Y128032D02*
G03*
X160679Y128032I-5118J0D01*
G01*
Y148189D02*
G03*
X160679Y148189I-5118J0D01*
G01*
X140157Y162598D02*
Y169685D01*
X154331Y162598D02*
Y169685D01*
X140157D02*
X154331D01*
X140157Y162598D02*
X154331D01*
X209055D02*
Y169685D01*
X223228Y162598D02*
Y169685D01*
X209055D02*
X223228D01*
X209055Y162598D02*
X223228D01*
X277953D02*
Y169685D01*
X292126Y162598D02*
Y169685D01*
X277953D02*
X292126D01*
X277953Y162598D02*
X292126D01*
X346850D02*
Y169685D01*
X361024Y162598D02*
Y169685D01*
X346850D02*
X361024D01*
X346850Y162598D02*
X361024D01*
X139764Y140945D02*
X145276D01*
X139764Y128248D02*
Y140945D01*
Y128248D02*
X145276D01*
Y140945D01*
X208924D02*
X214436D01*
X208924Y128248D02*
Y140945D01*
Y128248D02*
X214436D01*
Y140945D01*
X278084D02*
X283596D01*
X278084Y128248D02*
Y140945D01*
Y128248D02*
X283596D01*
Y140945D01*
X347244D02*
X352756D01*
X347244Y128248D02*
Y140945D01*
Y128248D02*
X352756D01*
Y140945D01*
X385827Y11811D02*
Y61417D01*
X360236Y11811D02*
Y65945D01*
X306102Y11811D02*
X360236D01*
X306102D02*
Y70866D01*
Y112598D02*
X360236D01*
X306102Y70866D02*
Y112598D01*
X360236Y65945D02*
Y112598D01*
Y61417D02*
X385827D01*
X360236Y11811D02*
Y61417D01*
Y11811D02*
X385827D01*
X360236Y51496D02*
X385827D01*
X360236Y41575D02*
X385827D01*
X360236Y31654D02*
X385827Y31752D01*
X360236Y21732D02*
X385827D01*
X7874Y24488D02*
X33465D01*
X7874Y34409D02*
X33465Y34508D01*
X7874Y44331D02*
X33465D01*
X7874Y54252D02*
X33465D01*
X7874Y14567D02*
X33465D01*
X7874D02*
Y64173D01*
X33465D01*
X169783Y56102D02*
Y110236D01*
X223917D01*
Y51181D02*
Y110236D01*
X169783Y9449D02*
X223917D01*
Y51181D01*
X169783Y9449D02*
Y56102D01*
X84646Y162598D02*
Y171260D01*
X102756Y162598D02*
Y171260D01*
X84646D02*
X102756D01*
X84646Y162598D02*
X102756D01*
X84646Y153543D02*
Y160630D01*
X98819Y153543D02*
Y160630D01*
X84646D02*
X98819D01*
X84646Y153543D02*
X98819D01*
X84646Y144488D02*
Y151575D01*
X98819Y144488D02*
Y151575D01*
X84646D02*
X98819D01*
X84646Y144488D02*
X98819D01*
X85433Y133661D02*
X97244D01*
X85433Y135630D02*
X97244D01*
X85433Y133661D02*
Y135630D01*
X97244Y133661D02*
Y135630D01*
X80315Y125197D02*
X98425D01*
X80315Y116535D02*
X98425D01*
X80315D02*
Y125197D01*
X98425Y116535D02*
Y125197D01*
X44134Y163189D02*
X67677D01*
X74134Y129724D02*
X81890D01*
X74134Y163189D02*
X81890D01*
Y129724D02*
Y163189D01*
X29921D02*
X37677D01*
X29921Y129724D02*
X37677D01*
X29921D02*
Y163189D01*
X2756Y116142D02*
Y123228D01*
X16929Y116142D02*
Y123228D01*
X2756D02*
X16929D01*
X2756Y116142D02*
X16929D01*
X292077Y65945D02*
Y112598D01*
X237943Y70866D02*
Y112598D01*
X292077D01*
X237943Y11811D02*
Y70866D01*
Y11811D02*
X292077D01*
Y65945D01*
X133514Y118268D02*
Y158031D01*
X112254Y118268D02*
X133514D01*
X112254D02*
Y158031D01*
X133514D01*
X33465Y9449D02*
Y56102D01*
X87598Y9449D02*
Y51181D01*
X33465Y9449D02*
X87598D01*
Y51181D02*
Y110236D01*
X33465D02*
X87598D01*
X33465Y56102D02*
Y110236D01*
X101624Y9449D02*
Y56102D01*
X155758Y9449D02*
Y51181D01*
X101624Y9449D02*
X155758D01*
Y51181D02*
Y110236D01*
X101624D02*
X155758D01*
X101624Y56102D02*
Y110236D01*
X2362Y139370D02*
X7874D01*
X2362Y128347D02*
X7874D01*
Y139370D01*
X2362Y128347D02*
Y139370D01*
X9843Y139370D02*
X16929D01*
X9843Y125197D02*
X16929D01*
Y139370D01*
X9843Y125197D02*
Y139370D01*
X18898Y121260D02*
Y139370D01*
X27559Y121260D02*
Y139370D01*
X18898Y121260D02*
X27559D01*
X18898Y139370D02*
X27559D01*
X202789Y118268D02*
Y158031D01*
X181529Y118268D02*
X202789D01*
X181529D02*
Y158031D01*
X202789D01*
X272064Y118268D02*
Y158031D01*
X250804Y118268D02*
X272064D01*
X250804D02*
Y158031D01*
X272064D01*
X341339Y118268D02*
Y158031D01*
X320079Y118268D02*
X341339D01*
X320079D02*
Y158031D01*
X341339D01*
X364173Y74329D02*
X366535Y70787D01*
Y74329D02*
X364173Y70787D01*
X367715Y73739D02*
X368306Y74329D01*
X369486D01*
X370077Y73739D01*
Y73149D01*
X369486Y72558D01*
X368896D01*
X369486D01*
X370077Y71968D01*
Y71377D01*
X369486Y70787D01*
X368306D01*
X367715Y71377D01*
X371848Y70197D02*
X372438Y70787D01*
Y71377D01*
X371848D01*
Y70787D01*
X372438D01*
X371848Y70197D01*
X371257Y69606D01*
X374800Y74329D02*
X377161Y70787D01*
Y74329D02*
X374800Y70787D01*
X380703Y74329D02*
X378342D01*
Y72558D01*
X379523Y73149D01*
X380113D01*
X380703Y72558D01*
Y71377D01*
X380113Y70787D01*
X378932D01*
X378342Y71377D01*
X382474Y70197D02*
X383065Y70787D01*
Y71377D01*
X382474D01*
Y70787D01*
X383065D01*
X382474Y70197D01*
X381884Y69606D01*
X364173Y68189D02*
X366535Y64647D01*
Y68189D02*
X364173Y64647D01*
X370077Y68189D02*
X368896Y67599D01*
X367715Y66418D01*
Y65237D01*
X368306Y64647D01*
X369486D01*
X370077Y65237D01*
Y65828D01*
X369486Y66418D01*
X367715D01*
X371848Y64056D02*
X372438Y64647D01*
Y65237D01*
X371848D01*
Y64647D01*
X372438D01*
X371848Y64056D01*
X371257Y63466D01*
X374800Y68189D02*
X377161Y64647D01*
Y68189D02*
X374800Y64647D01*
X378342Y67599D02*
X378932Y68189D01*
X380113D01*
X380703Y67599D01*
Y67008D01*
X380113Y66418D01*
X380703Y65828D01*
Y65237D01*
X380113Y64647D01*
X378932D01*
X378342Y65237D01*
Y65828D01*
X378932Y66418D01*
X378342Y67008D01*
Y67599D01*
X378932Y66418D02*
X380113D01*
X131070Y164332D02*
Y167874D01*
X132842D01*
X133432Y167284D01*
Y166103D01*
X132842Y165513D01*
X131070D01*
X132251D02*
X133432Y164332D01*
X134613Y164922D02*
X135203Y164332D01*
X136384D01*
X136974Y164922D01*
Y167284D01*
X136384Y167874D01*
X135203D01*
X134613Y167284D01*
Y166693D01*
X135203Y166103D01*
X136974D01*
X196974Y164374D02*
Y167916D01*
X198745D01*
X199336Y167326D01*
Y166145D01*
X198745Y165555D01*
X196974D01*
X198155D02*
X199336Y164374D01*
X200516D02*
X201697D01*
X201107D01*
Y167916D01*
X200516Y167326D01*
X203468D02*
X204058Y167916D01*
X205239D01*
X205829Y167326D01*
Y164964D01*
X205239Y164374D01*
X204058D01*
X203468Y164964D01*
Y167326D01*
X267074Y164374D02*
Y167916D01*
X268845D01*
X269436Y167326D01*
Y166145D01*
X268845Y165555D01*
X267074D01*
X268255D02*
X269436Y164374D01*
X270616D02*
X271797D01*
X271206D01*
Y167916D01*
X270616Y167326D01*
X273568Y164374D02*
X274749D01*
X274158D01*
Y167916D01*
X273568Y167326D01*
X334774Y164374D02*
Y167916D01*
X336545D01*
X337136Y167326D01*
Y166145D01*
X336545Y165555D01*
X334774D01*
X335955D02*
X337136Y164374D01*
X338316D02*
X339497D01*
X338907D01*
Y167916D01*
X338316Y167326D01*
X343629Y164374D02*
X341268D01*
X343629Y166735D01*
Y167326D01*
X343039Y167916D01*
X341858D01*
X341268Y167326D01*
X375342Y129173D02*
X374752Y129764D01*
X373571D01*
X372981Y129173D01*
Y126812D01*
X373571Y126222D01*
X374752D01*
X375342Y126812D01*
X378884Y129764D02*
X376523D01*
Y126222D01*
X378884D01*
X376523Y127993D02*
X377703D01*
X380065Y129764D02*
Y126222D01*
X382426D01*
X383607Y129764D02*
Y126222D01*
X385968D01*
X388920D02*
Y129764D01*
X387149Y127993D01*
X389511D01*
X360631Y139780D02*
X362993Y136238D01*
Y139780D02*
X360631Y136238D01*
X364174Y136828D02*
X364764Y136238D01*
X365945D01*
X366535Y136828D01*
Y139190D01*
X365945Y139780D01*
X364764D01*
X364174Y139190D01*
Y138599D01*
X364764Y138009D01*
X366535D01*
X142542Y147684D02*
X141361D01*
X141951D01*
Y144732D01*
X141361Y144142D01*
X140771D01*
X140180Y144732D01*
X143722Y144142D02*
X144903D01*
X144313D01*
Y147684D01*
X143722Y147093D01*
X211685Y147685D02*
X210505D01*
X211095D01*
Y144733D01*
X210505Y144142D01*
X209914D01*
X209324Y144733D01*
X215228Y144142D02*
X212866D01*
X215228Y146504D01*
Y147094D01*
X214637Y147685D01*
X213456D01*
X212866Y147094D01*
X280860Y147697D02*
X279680D01*
X280270D01*
Y144746D01*
X279680Y144155D01*
X279089D01*
X278499Y144746D01*
X282041Y147107D02*
X282631Y147697D01*
X283812D01*
X284402Y147107D01*
Y146517D01*
X283812Y145926D01*
X283222D01*
X283812D01*
X284402Y145336D01*
Y144746D01*
X283812Y144155D01*
X282631D01*
X282041Y144746D01*
X349986Y147653D02*
X348805D01*
X349395D01*
Y144701D01*
X348805Y144111D01*
X348215D01*
X347624Y144701D01*
X352938Y144111D02*
Y147653D01*
X351167Y145882D01*
X353528D01*
X304082Y128780D02*
X303492Y129370D01*
X302311D01*
X301721Y128780D01*
Y126418D01*
X302311Y125828D01*
X303492D01*
X304082Y126418D01*
X307624Y129370D02*
X305263D01*
Y125828D01*
X307624D01*
X305263Y127599D02*
X306444D01*
X308805Y129370D02*
Y125828D01*
X311167D01*
X312347Y129370D02*
Y125828D01*
X314709D01*
X315889Y128780D02*
X316480Y129370D01*
X317660D01*
X318251Y128780D01*
Y128189D01*
X317660Y127599D01*
X317070D01*
X317660D01*
X318251Y127009D01*
Y126418D01*
X317660Y125828D01*
X316480D01*
X315889Y126418D01*
X234495Y129410D02*
X233905Y130000D01*
X232724D01*
X232134Y129410D01*
Y127048D01*
X232724Y126458D01*
X233905D01*
X234495Y127048D01*
X238038Y130000D02*
X235676D01*
Y126458D01*
X238038D01*
X235676Y128229D02*
X236857D01*
X239218Y130000D02*
Y126458D01*
X241580D01*
X242761Y130000D02*
Y126458D01*
X245122D01*
X248664D02*
X246303D01*
X248664Y128819D01*
Y129410D01*
X248074Y130000D01*
X246893D01*
X246303Y129410D01*
X165549Y129252D02*
X164958Y129842D01*
X163778D01*
X163187Y129252D01*
Y126891D01*
X163778Y126300D01*
X164958D01*
X165549Y126891D01*
X169091Y129842D02*
X166729D01*
Y126300D01*
X169091D01*
X166729Y128071D02*
X167910D01*
X170272Y129842D02*
Y126300D01*
X172633D01*
X173814Y129842D02*
Y126300D01*
X176175D01*
X177356D02*
X178537D01*
X177946D01*
Y129842D01*
X177356Y129252D01*
X165549Y149410D02*
X164958Y150000D01*
X163778D01*
X163187Y149410D01*
Y147048D01*
X163778Y146458D01*
X164958D01*
X165549Y147048D01*
X168500Y150000D02*
X167320D01*
X166729Y149410D01*
Y147048D01*
X167320Y146458D01*
X168500D01*
X169091Y147048D01*
Y149410D01*
X168500Y150000D01*
X170272Y146458D02*
Y150000D01*
X171452Y148819D01*
X172633Y150000D01*
Y146458D01*
X8268Y69881D02*
X10629Y66339D01*
Y69881D02*
X8268Y66339D01*
X11810D02*
X12991D01*
X12400D01*
Y69881D01*
X11810Y69291D01*
X372242Y58268D02*
X369880D01*
Y54726D01*
X372242D01*
X369880Y56497D02*
X371061D01*
X373422D02*
X375784D01*
X374603Y57677D02*
Y55316D01*
X372242Y48228D02*
X369880D01*
Y44686D01*
X372242D01*
X369880Y46457D02*
X371061D01*
X373422D02*
X375784D01*
X372242Y37992D02*
X371651Y38583D01*
X370470D01*
X369880Y37992D01*
Y37402D01*
X370470Y36812D01*
X371651D01*
X372242Y36221D01*
Y35631D01*
X371651Y35041D01*
X370470D01*
X369880Y35631D01*
X373422Y36812D02*
X375784D01*
X372242Y27953D02*
X371651Y28543D01*
X370470D01*
X369880Y27953D01*
Y27363D01*
X370470Y26772D01*
X371651D01*
X372242Y26182D01*
Y25591D01*
X371651Y25001D01*
X370470D01*
X369880Y25591D01*
X373422Y26772D02*
X375784D01*
X374603Y27953D02*
Y25591D01*
X366928Y18700D02*
X364567D01*
Y15158D01*
X366928D01*
X364567Y16929D02*
X365748D01*
X368109Y15158D02*
Y17519D01*
X369290Y18700D01*
X370470Y17519D01*
Y15158D01*
Y16929D01*
X368109D01*
X371651Y15158D02*
Y18700D01*
X373422D01*
X374013Y18110D01*
Y16929D01*
X373422Y16339D01*
X371651D01*
X372832D02*
X374013Y15158D01*
X375193Y18700D02*
X377555D01*
X376374D01*
Y15158D01*
X378736Y18700D02*
Y15158D01*
Y16929D01*
X381097D01*
Y18700D01*
Y15158D01*
X14566Y21456D02*
X12205D01*
Y17914D01*
X14566D01*
X12205Y19685D02*
X13385D01*
X15747Y17914D02*
Y20275D01*
X16928Y21456D01*
X18108Y20275D01*
Y17914D01*
Y19685D01*
X15747D01*
X19289Y17914D02*
Y21456D01*
X21060D01*
X21651Y20866D01*
Y19685D01*
X21060Y19095D01*
X19289D01*
X20470D02*
X21651Y17914D01*
X22831Y21456D02*
X25193D01*
X24012D01*
Y17914D01*
X26373Y21456D02*
Y17914D01*
Y19685D01*
X28735D01*
Y21456D01*
Y17914D01*
X18108Y30709D02*
X17518Y31299D01*
X16337D01*
X15747Y30709D01*
Y30119D01*
X16337Y29528D01*
X17518D01*
X18108Y28938D01*
Y28347D01*
X17518Y27757D01*
X16337D01*
X15747Y28347D01*
X21651Y30709D02*
X21060Y31299D01*
X19879D01*
X19289Y30709D01*
Y28347D01*
X19879Y27757D01*
X21060D01*
X21651Y28347D01*
X22831Y31299D02*
Y27757D01*
Y28938D01*
X25193Y31299D01*
X23422Y29528D01*
X25193Y27757D01*
X14566Y41339D02*
Y37796D01*
X16337D01*
X16928Y38387D01*
Y40748D01*
X16337Y41339D01*
X14566D01*
X18699Y37796D02*
X19879D01*
X20470Y38387D01*
Y39568D01*
X19879Y40158D01*
X18699D01*
X18108Y39568D01*
Y38387D01*
X18699Y37796D01*
X21651Y40158D02*
Y38387D01*
X22241Y37796D01*
X24012D01*
Y40158D01*
X25783Y40748D02*
Y40158D01*
X25193D01*
X26373D01*
X25783D01*
Y38387D01*
X26373Y37796D01*
X18108Y50394D02*
X17518Y50984D01*
X16337D01*
X15747Y50394D01*
Y48033D01*
X16337Y47442D01*
X17518D01*
X18108Y48033D01*
Y49213D01*
X16928D01*
X19289Y47442D02*
Y50984D01*
X21651Y47442D01*
Y50984D01*
X22831D02*
Y47442D01*
X24602D01*
X25193Y48033D01*
Y50394D01*
X24602Y50984D01*
X22831D01*
X16042Y57481D02*
X17223D01*
X16632D01*
Y61024D01*
X16042Y60433D01*
X21355Y57481D02*
X18994D01*
X21355Y59843D01*
Y60433D01*
X20765Y61024D01*
X19584D01*
X18994Y60433D01*
X22536Y61024D02*
Y58662D01*
X23717Y57481D01*
X24897Y58662D01*
Y61024D01*
X102174Y136416D02*
Y133464D01*
X102764Y132874D01*
X103945D01*
X104535Y133464D01*
Y136416D01*
X108078Y132874D02*
X105716D01*
X108078Y135236D01*
Y135826D01*
X107487Y136416D01*
X106307D01*
X105716Y135826D01*
X103052Y124015D02*
X102462Y124606D01*
X101281D01*
X100690Y124015D01*
Y121654D01*
X101281Y121064D01*
X102462D01*
X103052Y121654D01*
X104233Y121064D02*
X105413D01*
X104823D01*
Y124606D01*
X104233Y124015D01*
X109546Y121064D02*
X107184D01*
X109546Y123425D01*
Y124015D01*
X108955Y124606D01*
X107775D01*
X107184Y124015D01*
X104335Y149226D02*
X103745Y149816D01*
X102564D01*
X101974Y149226D01*
Y146864D01*
X102564Y146274D01*
X103745D01*
X104335Y146864D01*
X105516Y146274D02*
X106697D01*
X106106D01*
Y149816D01*
X105516Y149226D01*
X108468D02*
X109058Y149816D01*
X110239D01*
X110829Y149226D01*
Y146864D01*
X110239Y146274D01*
X109058D01*
X108468Y146864D01*
Y149226D01*
X104335Y158226D02*
X103745Y158816D01*
X102564D01*
X101974Y158226D01*
Y155864D01*
X102564Y155274D01*
X103745D01*
X104335Y155864D01*
X105516D02*
X106106Y155274D01*
X107287D01*
X107878Y155864D01*
Y158226D01*
X107287Y158816D01*
X106106D01*
X105516Y158226D01*
Y157635D01*
X106106Y157045D01*
X107878D01*
X219766Y140040D02*
X222128Y136498D01*
Y140040D02*
X219766Y136498D01*
X225079D02*
Y140040D01*
X223308Y138269D01*
X225670D01*
X289384Y139404D02*
X291746Y135862D01*
Y139404D02*
X289384Y135862D01*
X292926Y139404D02*
X295288D01*
Y138814D01*
X292926Y136452D01*
Y135862D01*
X150874Y139916D02*
X153235Y136374D01*
Y139916D02*
X150874Y136374D01*
X156778D02*
X154416D01*
X156778Y138735D01*
Y139326D01*
X156187Y139916D01*
X155007D01*
X154416Y139326D01*
X150799Y160042D02*
X153160Y156500D01*
Y160042D02*
X150799Y156500D01*
X154341D02*
X155522D01*
X154931D01*
Y160042D01*
X154341Y159452D01*
X157293D02*
X157883Y160042D01*
X159064D01*
X159654Y159452D01*
Y157090D01*
X159064Y156500D01*
X157883D01*
X157293Y157090D01*
Y159452D01*
X306497Y8858D02*
X308858Y5316D01*
Y8858D02*
X306497Y5316D01*
X310039Y8267D02*
X310630Y8858D01*
X311810D01*
X312401Y8267D01*
Y7677D01*
X311810Y7087D01*
X312401Y6496D01*
Y5906D01*
X311810Y5316D01*
X310630D01*
X310039Y5906D01*
Y6496D01*
X310630Y7087D01*
X310039Y7677D01*
Y8267D01*
X310630Y7087D02*
X311810D01*
X237774Y8858D02*
X240136Y5316D01*
Y8858D02*
X237774Y5316D01*
X243678Y8858D02*
X242497Y8267D01*
X241316Y7087D01*
Y5906D01*
X241906Y5316D01*
X243087D01*
X243678Y5906D01*
Y6496D01*
X243087Y7087D01*
X241316D01*
X169883Y7283D02*
X172244Y3741D01*
Y7283D02*
X169883Y3741D01*
X175786Y7283D02*
X173425D01*
Y5512D01*
X174606Y6102D01*
X175196D01*
X175786Y5512D01*
Y4331D01*
X175196Y3741D01*
X174015D01*
X173425Y4331D01*
X101474Y7283D02*
X103835Y3741D01*
Y7283D02*
X101474Y3741D01*
X105016Y6692D02*
X105606Y7283D01*
X106787D01*
X107378Y6692D01*
Y6102D01*
X106787Y5512D01*
X106197D01*
X106787D01*
X107378Y4922D01*
Y4331D01*
X106787Y3741D01*
X105606D01*
X105016Y4331D01*
X33274Y7283D02*
X35636Y3741D01*
Y7283D02*
X33274Y3741D01*
X36816D02*
X37997D01*
X37407D01*
Y7283D01*
X36816Y6692D01*
X22048Y162401D02*
Y159449D01*
X22638Y158859D01*
X23819D01*
X24409Y159449D01*
Y162401D01*
X25590Y158859D02*
X26771D01*
X26180D01*
Y162401D01*
X25590Y161811D01*
X320474Y160040D02*
Y163582D01*
X322245D01*
X322835Y162992D01*
Y161811D01*
X322245Y161221D01*
X320474D01*
X321655D02*
X322835Y160040D01*
X326378Y163582D02*
X325197Y162992D01*
X324016Y161811D01*
Y160630D01*
X324606Y160040D01*
X325787D01*
X326378Y160630D01*
Y161221D01*
X325787Y161811D01*
X324016D01*
X251158Y160040D02*
Y163582D01*
X252930D01*
X253520Y162992D01*
Y161811D01*
X252930Y161221D01*
X251158D01*
X252339D02*
X253520Y160040D01*
X256472D02*
Y163582D01*
X254701Y161811D01*
X257062D01*
X181922Y160040D02*
Y163582D01*
X183693D01*
X184283Y162992D01*
Y161811D01*
X183693Y161221D01*
X181922D01*
X183103D02*
X184283Y160040D01*
X187825D02*
X185464D01*
X187825Y162401D01*
Y162992D01*
X187235Y163582D01*
X186054D01*
X185464Y162992D01*
X112599Y160040D02*
Y163582D01*
X114370D01*
X114961Y162992D01*
Y161811D01*
X114370Y161221D01*
X112599D01*
X113780D02*
X114961Y160040D01*
X116141D02*
X117322D01*
X116732D01*
Y163582D01*
X116141Y162992D01*
X2787Y146066D02*
Y142524D01*
X5148D01*
X6329D02*
X7509D01*
X6919D01*
Y146066D01*
X6329Y145475D01*
X21684Y145457D02*
X21094Y146047D01*
X19913D01*
X19323Y145457D01*
Y143096D01*
X19913Y142505D01*
X21094D01*
X21684Y143096D01*
X24636Y142505D02*
Y146047D01*
X22865Y144276D01*
X25226D01*
X108071Y167716D02*
X107481Y168307D01*
X106300D01*
X105710Y167716D01*
Y165355D01*
X106300Y164764D01*
X107481D01*
X108071Y165355D01*
X109252Y167716D02*
X109842Y168307D01*
X111023D01*
X111613Y167716D01*
Y167126D01*
X111023Y166535D01*
X110433D01*
X111023D01*
X111613Y165945D01*
Y165355D01*
X111023Y164764D01*
X109842D01*
X109252Y165355D01*
X12629Y145488D02*
X12039Y146078D01*
X10858D01*
X10268Y145488D01*
Y143127D01*
X10858Y142536D01*
X12039D01*
X12629Y143127D01*
X16171Y142536D02*
X13810D01*
X16171Y144898D01*
Y145488D01*
X15581Y146078D01*
X14400D01*
X13810Y145488D01*
X10630Y113385D02*
X10040Y113976D01*
X8859D01*
X8269Y113385D01*
Y111024D01*
X8859Y110434D01*
X10040D01*
X10630Y111024D01*
X11811Y110434D02*
X12991D01*
X12401D01*
Y113976D01*
X11811Y113385D01*
D11*
X98917Y139370D02*
G03*
X98917Y139370I-492J0D01*
G01*
D12*
X132037Y160394D02*
G03*
X132037Y160394I-98J0D01*
G01*
X201312D02*
G03*
X201312Y160394I-98J0D01*
G01*
X270587D02*
G03*
X270587Y160394I-98J0D01*
G01*
X339862D02*
G03*
X339862Y160394I-98J0D01*
G01*
M02*
