G04*
G04 #@! TF.GenerationSoftware,Altium Limited,Altium Designer,20.1.12 (249)*
G04*
G04 Layer_Color=16711935*
%FSLAX25Y25*%
%MOIN*%
G70*
G04*
G04 #@! TF.SameCoordinates,041EE257-4348-4326-8907-EFBAE9067CBE*
G04*
G04*
G04 #@! TF.FilePolarity,Negative*
G04*
G01*
G75*
%ADD101R,0.06706X0.06706*%
%ADD123O,0.04737X0.08674*%
%ADD124C,0.04343*%
%ADD125O,0.08674X0.05131*%
%ADD126C,0.06706*%
%ADD127C,0.08674*%
%ADD128R,0.08674X0.08674*%
%ADD129C,0.09461*%
%ADD130C,0.10249*%
%ADD131R,0.06500X0.06500*%
%ADD132C,0.06500*%
%ADD133C,0.05300*%
%ADD134C,0.21272*%
%ADD135C,0.11430*%
%ADD136R,0.06706X0.06706*%
D101*
X561238Y311950D02*
D03*
D123*
X488838Y366983D02*
D03*
X483838D02*
D03*
X478838D02*
D03*
D124*
X543401Y111927D02*
D03*
X547338Y109368D02*
D03*
X543401Y106809D02*
D03*
X547338Y104250D02*
D03*
X543401Y101690D02*
D03*
D125*
X542968Y120883D02*
D03*
Y92734D02*
D03*
D126*
X561238Y261950D02*
D03*
Y271950D02*
D03*
Y281950D02*
D03*
Y291950D02*
D03*
Y301950D02*
D03*
X410438Y116850D02*
D03*
X400438D02*
D03*
X390438D02*
D03*
X380438D02*
D03*
X370438D02*
D03*
D127*
X436138Y222950D02*
D03*
X446138D02*
D03*
Y202950D02*
D03*
Y212949D02*
D03*
Y232949D02*
D03*
X436138Y212949D02*
D03*
Y202950D02*
D03*
X289525Y350718D02*
D03*
X309525D02*
D03*
X389540D02*
D03*
X369540D02*
D03*
X429550D02*
D03*
X409550D02*
D03*
X349530D02*
D03*
X329530D02*
D03*
X229525Y350719D02*
D03*
X209525D02*
D03*
X249525Y350718D02*
D03*
X269525D02*
D03*
X-2362Y267421D02*
D03*
X-22362D02*
D03*
X-43307Y253425D02*
D03*
Y267224D02*
D03*
X19095Y253425D02*
D03*
Y267224D02*
D03*
D128*
X436138Y232949D02*
D03*
D129*
X29119Y-10472D02*
D03*
Y22047D02*
D03*
X225182Y140945D02*
D03*
Y117638D02*
D03*
Y94331D02*
D03*
X328319Y52342D02*
D03*
D130*
X318319Y42342D02*
D03*
X338319D02*
D03*
X318319Y62342D02*
D03*
X338319D02*
D03*
D131*
X-45082Y218799D02*
D03*
D132*
X4528D02*
D03*
D133*
X-34890Y79736D02*
D03*
X-5362Y72650D02*
D03*
D134*
X519685Y0D02*
D03*
X0D02*
D03*
Y358268D02*
D03*
X519685D02*
D03*
D135*
X144193Y383366D02*
D03*
Y225886D02*
D03*
X85138Y383366D02*
D03*
Y225886D02*
D03*
D136*
X420438Y116850D02*
D03*
M02*
