G04*
G04 #@! TF.GenerationSoftware,Altium Limited,Altium Designer,20.1.12 (249)*
G04*
G04 Layer_Physical_Order=4*
G04 Layer_Color=16711680*
%FSLAX25Y25*%
%MOIN*%
G70*
G04*
G04 #@! TF.SameCoordinates,041EE257-4348-4326-8907-EFBAE9067CBE*
G04*
G04*
G04 #@! TF.FilePolarity,Positive*
G04*
G01*
G75*
%ADD18C,0.01181*%
%ADD49R,0.05906X0.05906*%
%ADD131R,0.06500X0.06500*%
%ADD132C,0.06500*%
%ADD133C,0.05300*%
%ADD138C,0.03937*%
%ADD146O,0.03937X0.07874*%
%ADD147C,0.03543*%
%ADD148O,0.07874X0.04331*%
%ADD149C,0.05906*%
%ADD150C,0.07874*%
%ADD151R,0.07874X0.07874*%
%ADD152C,0.08661*%
%ADD153C,0.09449*%
%ADD154C,0.20472*%
%ADD155C,0.10630*%
%ADD156R,0.05906X0.05906*%
%ADD157C,0.02756*%
G36*
X147581Y379218D02*
X147283Y378848D01*
X147020Y378460D01*
X146792Y378053D01*
X146599Y377629D01*
X146442Y377187D01*
X146319Y376727D01*
X146232Y376250D01*
X146179Y375754D01*
X146161Y375240D01*
X142225D01*
X142207Y375754D01*
X142154Y376250D01*
X142067Y376727D01*
X141944Y377187D01*
X141787Y377629D01*
X141594Y378053D01*
X141366Y378460D01*
X141103Y378848D01*
X140805Y379218D01*
X140472Y379571D01*
X147914D01*
X147581Y379218D01*
D02*
G37*
G36*
X88525D02*
X88228Y378848D01*
X87965Y378460D01*
X87737Y378053D01*
X87544Y377629D01*
X87387Y377187D01*
X87264Y376727D01*
X87176Y376250D01*
X87124Y375754D01*
X87106Y375240D01*
X83169D01*
X83152Y375754D01*
X83099Y376250D01*
X83012Y376727D01*
X82889Y377187D01*
X82731Y377629D01*
X82539Y378053D01*
X82311Y378460D01*
X82048Y378848D01*
X81750Y379218D01*
X81417Y379571D01*
X88858D01*
X88525Y379218D01*
D02*
G37*
G36*
X-39061Y222037D02*
X-39841Y221229D01*
X-41069Y219780D01*
X-41515Y219139D01*
X-41850Y218554D01*
X-42074Y218025D01*
X-42187Y217553D01*
X-42188Y217136D01*
X-42078Y216775D01*
X-41856Y216469D01*
X-47412Y222025D01*
X-47107Y221804D01*
X-46746Y221693D01*
X-46329Y221695D01*
X-45856Y221807D01*
X-45327Y222031D01*
X-44743Y222366D01*
X-44102Y222813D01*
X-43405Y223371D01*
X-41844Y224821D01*
X-39061Y222037D01*
D02*
G37*
G36*
X144140Y220571D02*
X143655Y220557D01*
X143183Y220506D01*
X142722Y220417D01*
X142274Y220291D01*
X141838Y220128D01*
X141414Y219927D01*
X141002Y219688D01*
X140602Y219412D01*
X140215Y219099D01*
X139839Y218748D01*
X137055Y221532D01*
X137406Y221907D01*
X137719Y222295D01*
X137995Y222695D01*
X138234Y223107D01*
X138435Y223531D01*
X138598Y223967D01*
X138725Y224415D01*
X138813Y224876D01*
X138865Y225348D01*
X138878Y225833D01*
X144140Y220571D01*
D02*
G37*
G36*
X85085D02*
X84600Y220557D01*
X84128Y220506D01*
X83667Y220417D01*
X83219Y220291D01*
X82783Y220128D01*
X82359Y219927D01*
X81947Y219688D01*
X81547Y219412D01*
X81159Y219099D01*
X80784Y218748D01*
X78000Y221532D01*
X78351Y221907D01*
X78664Y222295D01*
X78940Y222695D01*
X79179Y223107D01*
X79380Y223531D01*
X79543Y223967D01*
X79669Y224415D01*
X79758Y224876D01*
X79809Y225348D01*
X79823Y225833D01*
X85085Y220571D01*
D02*
G37*
G36*
X6925Y221016D02*
X7033Y220964D01*
X7174Y220918D01*
X7347Y220878D01*
X7553Y220844D01*
X8060Y220795D01*
X8697Y220771D01*
X9064Y220768D01*
Y216831D01*
X8697Y216828D01*
X7553Y216754D01*
X7347Y216720D01*
X7174Y216681D01*
X7033Y216634D01*
X6925Y216582D01*
X6849Y216524D01*
Y221074D01*
X6925Y221016D01*
D02*
G37*
G36*
X535577Y394331D02*
X535714Y394283D01*
X535836Y394206D01*
X535938Y394104D01*
X536015Y393981D01*
X536063Y393844D01*
X536092Y393588D01*
Y358268D01*
X536103Y358212D01*
X536095Y358155D01*
X536313Y354266D01*
X536342Y354156D01*
X536339Y354042D01*
X536991Y350202D01*
X537032Y350096D01*
X537041Y349983D01*
X538120Y346240D01*
X538172Y346139D01*
X538194Y346027D01*
X539684Y342428D01*
X539748Y342334D01*
X539782Y342226D01*
X541666Y338816D01*
X541740Y338729D01*
X541786Y338626D01*
X544040Y335449D01*
X544123Y335371D01*
X544180Y335273D01*
X546776Y332368D01*
X546867Y332300D01*
X546935Y332209D01*
X549840Y329614D01*
X549938Y329556D01*
X550016Y329473D01*
X553193Y327219D01*
X553297Y327173D01*
X553383Y327099D01*
X556792Y325215D01*
X556901Y325181D01*
X556995Y325117D01*
X560594Y323627D01*
X560706Y323604D01*
X560807Y323552D01*
X564550Y322474D01*
X564663Y322465D01*
X564769Y322424D01*
X568609Y321772D01*
X568723Y321775D01*
X568833Y321746D01*
X572666Y321531D01*
X572978Y321496D01*
X573115Y321448D01*
X573238Y321371D01*
X573340Y321269D01*
X573417Y321146D01*
X573464Y321010D01*
X573493Y320753D01*
Y37514D01*
X573464Y37258D01*
X573417Y37121D01*
X573340Y36999D01*
X573238Y36896D01*
X573115Y36819D01*
X572978Y36772D01*
X572666Y36737D01*
X568833Y36521D01*
X568723Y36493D01*
X568609Y36496D01*
X564769Y35844D01*
X564663Y35803D01*
X564549Y35793D01*
X560807Y34715D01*
X560706Y34663D01*
X560594Y34641D01*
X556995Y33150D01*
X556901Y33087D01*
X556792Y33052D01*
X553383Y31168D01*
X553297Y31095D01*
X553193Y31049D01*
X550016Y28794D01*
X549938Y28712D01*
X549840Y28654D01*
X546935Y26058D01*
X546867Y25968D01*
X546776Y25899D01*
X544180Y22995D01*
X544123Y22897D01*
X544040Y22819D01*
X541786Y19642D01*
X541740Y19538D01*
X541666Y19451D01*
X539782Y16042D01*
X539748Y15934D01*
X539684Y15839D01*
X538194Y12240D01*
X538172Y12129D01*
X538120Y12028D01*
X537041Y8285D01*
X537032Y8172D01*
X536991Y8066D01*
X536339Y4225D01*
X536342Y4112D01*
X536313Y4002D01*
X536095Y112D01*
X536103Y56D01*
X536092Y0D01*
Y-35321D01*
X536063Y-35577D01*
X536015Y-35713D01*
X535938Y-35836D01*
X535836Y-35939D01*
X535714Y-36015D01*
X535577Y-36063D01*
X535320Y-36092D01*
X61238D01*
Y148668D01*
X113907D01*
X114128Y148220D01*
X114104Y148188D01*
X113806Y147470D01*
X113705Y146699D01*
X113806Y145929D01*
X114104Y145210D01*
X114577Y144594D01*
X115194Y144120D01*
X115912Y143823D01*
X116683Y143721D01*
X117454Y143823D01*
X118172Y144120D01*
X118233Y144167D01*
X118294Y144120D01*
X119012Y143823D01*
X119783Y143721D01*
X120554Y143823D01*
X121272Y144120D01*
X121333Y144167D01*
X121394Y144120D01*
X122112Y143823D01*
X122883Y143721D01*
X123654Y143823D01*
X124372Y144120D01*
X124433Y144167D01*
X124494Y144120D01*
X125212Y143823D01*
X125983Y143721D01*
X126754Y143823D01*
X127472Y144120D01*
X128089Y144594D01*
X128562Y145210D01*
X128860Y145929D01*
X128961Y146699D01*
X128860Y147470D01*
X128562Y148188D01*
X128539Y148220D01*
X128760Y148668D01*
X200338D01*
Y394359D01*
X535320Y394359D01*
X535577Y394331D01*
D02*
G37*
%LPC*%
G36*
X483838Y372525D02*
X482913Y372403D01*
X482051Y372046D01*
X481338Y371499D01*
X480625Y372046D01*
X479763Y372403D01*
X478838Y372525D01*
X477913Y372403D01*
X477051Y372046D01*
X476311Y371478D01*
X475743Y370738D01*
X475386Y369876D01*
X475264Y368951D01*
Y365014D01*
X475386Y364089D01*
X475743Y363227D01*
X476311Y362487D01*
X477051Y361919D01*
X477913Y361562D01*
X478838Y361440D01*
X479763Y361562D01*
X480625Y361919D01*
X481338Y362466D01*
X482051Y361919D01*
X482913Y361562D01*
X483838Y361440D01*
X484763Y361562D01*
X485625Y361919D01*
X486365Y362487D01*
X486399Y362531D01*
X487091Y362613D01*
X487341Y362421D01*
X488063Y362122D01*
X488338Y362086D01*
Y366983D01*
Y371879D01*
X488063Y371843D01*
X487341Y371544D01*
X487091Y371353D01*
X486399Y371434D01*
X486365Y371478D01*
X485625Y372046D01*
X484763Y372403D01*
X483838Y372525D01*
D02*
G37*
G36*
X489338Y371879D02*
Y367483D01*
X491832D01*
Y368951D01*
X491730Y369726D01*
X491431Y370448D01*
X490955Y371068D01*
X490335Y371544D01*
X489613Y371843D01*
X489338Y371879D01*
D02*
G37*
G36*
X491832Y366483D02*
X489338D01*
Y362086D01*
X489613Y362122D01*
X490335Y362421D01*
X490955Y362897D01*
X491431Y363517D01*
X491730Y364239D01*
X491832Y365014D01*
Y366483D01*
D02*
G37*
G36*
X230025Y355633D02*
Y351219D01*
X234439D01*
X234335Y352008D01*
X233837Y353209D01*
X233046Y354240D01*
X232015Y355032D01*
X230814Y355529D01*
X230025Y355633D01*
D02*
G37*
G36*
X229025Y355633D02*
X228236Y355529D01*
X227035Y355032D01*
X226004Y354240D01*
X225212Y353209D01*
X224715Y352008D01*
X224611Y351219D01*
X229025D01*
Y355633D01*
D02*
G37*
G36*
X270025Y355631D02*
Y351218D01*
X274439D01*
X274335Y352006D01*
X273837Y353207D01*
X273046Y354239D01*
X272015Y355030D01*
X270814Y355527D01*
X270025Y355631D01*
D02*
G37*
G36*
X269025Y355631D02*
X268236Y355527D01*
X267035Y355030D01*
X266004Y354239D01*
X265212Y353207D01*
X264715Y352006D01*
X264611Y351218D01*
X269025D01*
Y355631D01*
D02*
G37*
G36*
X492000Y354578D02*
X491229Y354477D01*
X490511Y354179D01*
X489894Y353706D01*
X489421Y353089D01*
X489123Y352371D01*
X489022Y351600D01*
X489123Y350829D01*
X489421Y350111D01*
X489894Y349494D01*
X490511Y349021D01*
X491229Y348723D01*
X492000Y348622D01*
X492771Y348723D01*
X493489Y349021D01*
X494106Y349494D01*
X494579Y350111D01*
X494877Y350829D01*
X494978Y351600D01*
X494877Y352371D01*
X494579Y353089D01*
X494106Y353706D01*
X493489Y354179D01*
X492771Y354477D01*
X492000Y354578D01*
D02*
G37*
G36*
X519685Y370115D02*
X517832Y369969D01*
X516024Y369535D01*
X514306Y368824D01*
X512721Y367852D01*
X511307Y366645D01*
X510100Y365231D01*
X509129Y363646D01*
X508417Y361929D01*
X507983Y360121D01*
X507837Y358268D01*
X507983Y356414D01*
X508417Y354607D01*
X509129Y352889D01*
X510100Y351304D01*
X511307Y349890D01*
X512721Y348683D01*
X514306Y347711D01*
X516024Y347000D01*
X517832Y346566D01*
X519685Y346420D01*
X521538Y346566D01*
X523346Y347000D01*
X525064Y347711D01*
X526649Y348683D01*
X528062Y349890D01*
X529270Y351304D01*
X530241Y352889D01*
X530953Y354607D01*
X531387Y356414D01*
X531532Y358268D01*
X531387Y360121D01*
X530953Y361929D01*
X530241Y363646D01*
X529270Y365231D01*
X528062Y366645D01*
X526649Y367852D01*
X525064Y368824D01*
X523346Y369535D01*
X521538Y369969D01*
X519685Y370115D01*
D02*
G37*
G36*
X234439Y350219D02*
X230025D01*
Y345806D01*
X230814Y345910D01*
X232015Y346407D01*
X233046Y347198D01*
X233837Y348230D01*
X234335Y349431D01*
X234439Y350219D01*
D02*
G37*
G36*
X229025D02*
X224611D01*
X224715Y349431D01*
X225212Y348230D01*
X226004Y347198D01*
X227035Y346407D01*
X228236Y345910D01*
X229025Y345806D01*
Y350219D01*
D02*
G37*
G36*
X274439Y350218D02*
X270025D01*
Y345804D01*
X270814Y345908D01*
X272015Y346405D01*
X273046Y347197D01*
X273837Y348228D01*
X274335Y349429D01*
X274439Y350218D01*
D02*
G37*
G36*
X269025D02*
X264611D01*
X264715Y349429D01*
X265212Y348228D01*
X266004Y347197D01*
X267035Y346405D01*
X268236Y345908D01*
X269025Y345804D01*
Y350218D01*
D02*
G37*
G36*
X209525Y356279D02*
X208086Y356089D01*
X206745Y355534D01*
X205594Y354650D01*
X204710Y353499D01*
X204155Y352158D01*
X203965Y350719D01*
X204155Y349281D01*
X204710Y347940D01*
X205594Y346788D01*
X206745Y345905D01*
X208086Y345350D01*
X209525Y345160D01*
X210964Y345350D01*
X212304Y345905D01*
X213456Y346788D01*
X214339Y347940D01*
X214895Y349281D01*
X215084Y350719D01*
X214895Y352158D01*
X214339Y353499D01*
X213456Y354650D01*
X212304Y355534D01*
X210964Y356089D01*
X209525Y356279D01*
D02*
G37*
G36*
X429550Y356277D02*
X428111Y356087D01*
X426770Y355532D01*
X425619Y354649D01*
X424735Y353497D01*
X424180Y352156D01*
X423991Y350718D01*
X424180Y349279D01*
X424735Y347938D01*
X425619Y346786D01*
X426770Y345903D01*
X428111Y345348D01*
X429550Y345158D01*
X430989Y345348D01*
X432330Y345903D01*
X433481Y346786D01*
X434365Y347938D01*
X434920Y349279D01*
X435109Y350718D01*
X434920Y352156D01*
X434365Y353497D01*
X433481Y354649D01*
X432330Y355532D01*
X430989Y356087D01*
X429550Y356277D01*
D02*
G37*
G36*
X409550D02*
X408111Y356087D01*
X406770Y355532D01*
X405619Y354649D01*
X404735Y353497D01*
X404180Y352156D01*
X403991Y350718D01*
X404180Y349279D01*
X404735Y347938D01*
X405619Y346786D01*
X406770Y345903D01*
X408111Y345348D01*
X409550Y345158D01*
X410989Y345348D01*
X412330Y345903D01*
X413481Y346786D01*
X414365Y347938D01*
X414920Y349279D01*
X415109Y350718D01*
X414920Y352156D01*
X414365Y353497D01*
X413481Y354649D01*
X412330Y355532D01*
X410989Y356087D01*
X409550Y356277D01*
D02*
G37*
G36*
X389540D02*
X388101Y356087D01*
X386760Y355532D01*
X385609Y354649D01*
X384726Y353497D01*
X384170Y352156D01*
X383981Y350718D01*
X384170Y349279D01*
X384726Y347938D01*
X385609Y346786D01*
X386760Y345903D01*
X388101Y345348D01*
X389540Y345158D01*
X390979Y345348D01*
X392320Y345903D01*
X393471Y346786D01*
X394355Y347938D01*
X394910Y349279D01*
X395100Y350718D01*
X394910Y352156D01*
X394355Y353497D01*
X393471Y354649D01*
X392320Y355532D01*
X390979Y356087D01*
X389540Y356277D01*
D02*
G37*
G36*
X369540D02*
X368101Y356087D01*
X366760Y355532D01*
X365609Y354649D01*
X364726Y353497D01*
X364170Y352156D01*
X363981Y350718D01*
X364170Y349279D01*
X364726Y347938D01*
X365609Y346786D01*
X366760Y345903D01*
X368101Y345348D01*
X369540Y345158D01*
X370979Y345348D01*
X372320Y345903D01*
X373471Y346786D01*
X374355Y347938D01*
X374910Y349279D01*
X375100Y350718D01*
X374910Y352156D01*
X374355Y353497D01*
X373471Y354649D01*
X372320Y355532D01*
X370979Y356087D01*
X369540Y356277D01*
D02*
G37*
G36*
X349530D02*
X348092Y356087D01*
X346751Y355532D01*
X345599Y354649D01*
X344716Y353497D01*
X344161Y352156D01*
X343971Y350718D01*
X344161Y349279D01*
X344716Y347938D01*
X345599Y346786D01*
X346751Y345903D01*
X348092Y345348D01*
X349530Y345158D01*
X350969Y345348D01*
X352310Y345903D01*
X353462Y346786D01*
X354345Y347938D01*
X354900Y349279D01*
X355090Y350718D01*
X354900Y352156D01*
X354345Y353497D01*
X353462Y354649D01*
X352310Y355532D01*
X350969Y356087D01*
X349530Y356277D01*
D02*
G37*
G36*
X329530D02*
X328092Y356087D01*
X326751Y355532D01*
X325599Y354649D01*
X324716Y353497D01*
X324161Y352156D01*
X323971Y350718D01*
X324161Y349279D01*
X324716Y347938D01*
X325599Y346786D01*
X326751Y345903D01*
X328092Y345348D01*
X329530Y345158D01*
X330969Y345348D01*
X332310Y345903D01*
X333461Y346786D01*
X334345Y347938D01*
X334900Y349279D01*
X335090Y350718D01*
X334900Y352156D01*
X334345Y353497D01*
X333461Y354649D01*
X332310Y355532D01*
X330969Y356087D01*
X329530Y356277D01*
D02*
G37*
G36*
X309525D02*
X308086Y356087D01*
X306745Y355532D01*
X305594Y354649D01*
X304710Y353497D01*
X304155Y352156D01*
X303965Y350718D01*
X304155Y349279D01*
X304710Y347938D01*
X305594Y346786D01*
X306745Y345903D01*
X308086Y345348D01*
X309525Y345158D01*
X310964Y345348D01*
X312304Y345903D01*
X313456Y346786D01*
X314339Y347938D01*
X314895Y349279D01*
X315084Y350718D01*
X314895Y352156D01*
X314339Y353497D01*
X313456Y354649D01*
X312304Y355532D01*
X310964Y356087D01*
X309525Y356277D01*
D02*
G37*
G36*
X289525D02*
X288086Y356087D01*
X286745Y355532D01*
X285594Y354649D01*
X284710Y353497D01*
X284155Y352156D01*
X283965Y350718D01*
X284155Y349279D01*
X284710Y347938D01*
X285594Y346786D01*
X286745Y345903D01*
X288086Y345348D01*
X289525Y345158D01*
X290964Y345348D01*
X292304Y345903D01*
X293456Y346786D01*
X294339Y347938D01*
X294895Y349279D01*
X295084Y350718D01*
X294895Y352156D01*
X294339Y353497D01*
X293456Y354649D01*
X292304Y355532D01*
X290964Y356087D01*
X289525Y356277D01*
D02*
G37*
G36*
X249525D02*
X248086Y356087D01*
X246745Y355532D01*
X245594Y354649D01*
X244710Y353497D01*
X244155Y352156D01*
X243965Y350718D01*
X244155Y349279D01*
X244710Y347938D01*
X245594Y346786D01*
X246745Y345903D01*
X248086Y345348D01*
X249525Y345158D01*
X250964Y345348D01*
X252305Y345903D01*
X253456Y346786D01*
X254339Y347938D01*
X254895Y349279D01*
X255084Y350718D01*
X254895Y352156D01*
X254339Y353497D01*
X253456Y354649D01*
X252305Y355532D01*
X250964Y356087D01*
X249525Y356277D01*
D02*
G37*
G36*
X515826Y340690D02*
X515055Y340588D01*
X514337Y340291D01*
X513720Y339818D01*
X513247Y339201D01*
X512949Y338482D01*
X512848Y337712D01*
X512949Y336941D01*
X513247Y336222D01*
X513720Y335606D01*
X514337Y335132D01*
X515055Y334835D01*
X515826Y334733D01*
X516597Y334835D01*
X517315Y335132D01*
X517932Y335606D01*
X518405Y336222D01*
X518703Y336941D01*
X518804Y337712D01*
X518703Y338482D01*
X518405Y339201D01*
X517932Y339818D01*
X517315Y340291D01*
X516597Y340588D01*
X515826Y340690D01*
D02*
G37*
G36*
X247300Y332678D02*
X246529Y332577D01*
X245811Y332279D01*
X245194Y331806D01*
X244721Y331189D01*
X244423Y330471D01*
X244378Y330127D01*
X244161Y329651D01*
X243390Y329550D01*
X242672Y329252D01*
X242055Y328779D01*
X241582Y328162D01*
X241284Y327444D01*
X241183Y326673D01*
X241189Y326624D01*
X240829Y326577D01*
X240111Y326279D01*
X239494Y325806D01*
X239021Y325189D01*
X238723Y324471D01*
X238697Y324274D01*
X238027Y324186D01*
X237308Y323888D01*
X237167Y323780D01*
X237025Y323888D01*
X236307Y324186D01*
X235536Y324287D01*
X234765Y324186D01*
X234047Y323888D01*
X233430Y323415D01*
X232957Y322798D01*
X232659Y322080D01*
X232558Y321309D01*
X232659Y320538D01*
X232957Y319820D01*
X233430Y319203D01*
X234047Y318730D01*
X234765Y318432D01*
X235536Y318331D01*
X236307Y318432D01*
X237025Y318730D01*
X237167Y318839D01*
X237308Y318730D01*
X238027Y318432D01*
X238797Y318331D01*
X239568Y318432D01*
X240286Y318730D01*
X240903Y319203D01*
X241377Y319820D01*
X241674Y320538D01*
X241700Y320735D01*
X242371Y320823D01*
X243089Y321121D01*
X243706Y321594D01*
X244179Y322211D01*
X244477Y322929D01*
X244578Y323700D01*
X244572Y323749D01*
X244932Y323796D01*
X245650Y324094D01*
X246267Y324567D01*
X246740Y325184D01*
X247038Y325902D01*
X247083Y326246D01*
X247300Y326722D01*
X248071Y326823D01*
X248789Y327121D01*
X249406Y327594D01*
X249879Y328211D01*
X250177Y328929D01*
X250278Y329700D01*
X250177Y330471D01*
X249879Y331189D01*
X249406Y331806D01*
X248789Y332279D01*
X248071Y332577D01*
X247300Y332678D01*
D02*
G37*
G36*
X215281Y310296D02*
X214510Y310194D01*
X213969Y309970D01*
X213471Y310177D01*
X212700Y310278D01*
X211929Y310177D01*
X211211Y309879D01*
X210594Y309406D01*
X210121Y308789D01*
X209823Y308071D01*
X209722Y307300D01*
X209823Y306529D01*
X210121Y305811D01*
X210594Y305194D01*
X211211Y304721D01*
X211929Y304423D01*
X212700Y304322D01*
X213471Y304423D01*
X214011Y304647D01*
X214510Y304441D01*
X215281Y304339D01*
X216052Y304441D01*
X216770Y304738D01*
X217387Y305211D01*
X217860Y305828D01*
X218158Y306547D01*
X218259Y307317D01*
X218158Y308088D01*
X217860Y308806D01*
X217387Y309423D01*
X216770Y309897D01*
X216052Y310194D01*
X215281Y310296D01*
D02*
G37*
G36*
X565765Y316477D02*
X556710D01*
Y307422D01*
X565765D01*
Y316477D01*
D02*
G37*
G36*
X561238Y306516D02*
X560056Y306361D01*
X558955Y305904D01*
X558009Y305179D01*
X557283Y304233D01*
X556827Y303132D01*
X556671Y301950D01*
X556827Y300768D01*
X557283Y299666D01*
X558009Y298721D01*
X558955Y297995D01*
X560056Y297538D01*
X561238Y297383D01*
X562420Y297538D01*
X563521Y297995D01*
X564467Y298721D01*
X565193Y299666D01*
X565649Y300768D01*
X565804Y301950D01*
X565649Y303132D01*
X565193Y304233D01*
X564467Y305179D01*
X563521Y305904D01*
X562420Y306361D01*
X561238Y306516D01*
D02*
G37*
G36*
Y296516D02*
X560056Y296361D01*
X558955Y295904D01*
X558009Y295179D01*
X557283Y294233D01*
X556827Y293131D01*
X556671Y291950D01*
X556827Y290768D01*
X557283Y289666D01*
X558009Y288720D01*
X558955Y287995D01*
X560056Y287539D01*
X561238Y287383D01*
X562420Y287539D01*
X563521Y287995D01*
X564467Y288720D01*
X565193Y289666D01*
X565649Y290768D01*
X565804Y291950D01*
X565649Y293131D01*
X565193Y294233D01*
X564467Y295179D01*
X563521Y295904D01*
X562420Y296361D01*
X561238Y296516D01*
D02*
G37*
G36*
Y286516D02*
X560056Y286361D01*
X558955Y285904D01*
X558009Y285179D01*
X557283Y284233D01*
X556827Y283132D01*
X556671Y281950D01*
X556827Y280768D01*
X557283Y279666D01*
X558009Y278720D01*
X558955Y277995D01*
X560056Y277538D01*
X561238Y277383D01*
X562420Y277538D01*
X563521Y277995D01*
X564467Y278720D01*
X565193Y279666D01*
X565649Y280768D01*
X565804Y281950D01*
X565649Y283132D01*
X565193Y284233D01*
X564467Y285179D01*
X563521Y285904D01*
X562420Y286361D01*
X561238Y286516D01*
D02*
G37*
G36*
Y276516D02*
X560056Y276361D01*
X558955Y275904D01*
X558009Y275179D01*
X557283Y274233D01*
X556827Y273131D01*
X556671Y271950D01*
X556827Y270768D01*
X557283Y269666D01*
X558009Y268721D01*
X558955Y267995D01*
X560056Y267538D01*
X561238Y267383D01*
X562420Y267538D01*
X563521Y267995D01*
X564467Y268721D01*
X565193Y269666D01*
X565649Y270768D01*
X565804Y271950D01*
X565649Y273131D01*
X565193Y274233D01*
X564467Y275179D01*
X563521Y275904D01*
X562420Y276361D01*
X561238Y276516D01*
D02*
G37*
G36*
X513247Y267428D02*
X512477Y267326D01*
X511758Y267029D01*
X511449Y266791D01*
X511071Y266593D01*
X510692Y266791D01*
X510383Y267029D01*
X509665Y267326D01*
X508894Y267428D01*
X508123Y267326D01*
X507405Y267029D01*
X506921Y266657D01*
X504011D01*
X503527Y267029D01*
X502809Y267326D01*
X502038Y267428D01*
X501267Y267326D01*
X500549Y267029D01*
X499964Y266580D01*
X499379Y267029D01*
X498661Y267326D01*
X497890Y267428D01*
X497119Y267326D01*
X496401Y267029D01*
X495784Y266556D01*
X495311Y265939D01*
X495014Y265220D01*
X494912Y264450D01*
X495014Y263679D01*
X495311Y262961D01*
X495784Y262344D01*
X496401Y261870D01*
X497119Y261573D01*
X497724Y261493D01*
X499379Y259839D01*
X500095Y259360D01*
X500940Y259192D01*
X510198D01*
X511043Y259360D01*
X511759Y259839D01*
X513413Y261493D01*
X514018Y261573D01*
X514737Y261870D01*
X515353Y262344D01*
X515827Y262961D01*
X516124Y263679D01*
X516226Y264450D01*
X516124Y265220D01*
X515827Y265939D01*
X515353Y266556D01*
X514737Y267029D01*
X514018Y267326D01*
X513247Y267428D01*
D02*
G37*
G36*
X561738Y265871D02*
Y262450D01*
X565159D01*
X565089Y262981D01*
X564691Y263943D01*
X564057Y264769D01*
X563231Y265402D01*
X562270Y265801D01*
X561738Y265871D01*
D02*
G37*
G36*
X560738Y265871D02*
X560206Y265801D01*
X559244Y265402D01*
X558419Y264769D01*
X557785Y263943D01*
X557387Y262981D01*
X557317Y262450D01*
X560738D01*
Y265871D01*
D02*
G37*
G36*
X565159Y261450D02*
X561738D01*
Y258029D01*
X562270Y258099D01*
X563231Y258497D01*
X564057Y259130D01*
X564691Y259956D01*
X565089Y260918D01*
X565159Y261450D01*
D02*
G37*
G36*
X560738D02*
X557317D01*
X557387Y260918D01*
X557785Y259956D01*
X558419Y259130D01*
X559244Y258497D01*
X560206Y258099D01*
X560738Y258029D01*
Y261450D01*
D02*
G37*
G36*
X367589Y258422D02*
X366818Y258320D01*
X366100Y258023D01*
X365489Y257554D01*
X357599D01*
X357591Y257558D01*
X357504Y257604D01*
X357210Y257829D01*
X356492Y258126D01*
X355721Y258228D01*
X354950Y258126D01*
X354232Y257829D01*
X353615Y257355D01*
X353142Y256739D01*
X352844Y256020D01*
X352743Y255250D01*
X352844Y254479D01*
X353142Y253761D01*
X353591Y253175D01*
X353142Y252589D01*
X352844Y251871D01*
X352743Y251100D01*
X352844Y250329D01*
X353142Y249611D01*
X353329Y249366D01*
X353615Y248955D01*
X353142Y248339D01*
X352844Y247620D01*
X352743Y246850D01*
X352844Y246079D01*
X353142Y245360D01*
X353615Y244744D01*
X354232Y244270D01*
X354950Y243973D01*
X355721Y243871D01*
X356492Y243973D01*
X357210Y244270D01*
X357694Y244642D01*
X365615D01*
X366100Y244270D01*
X366818Y243973D01*
X367589Y243871D01*
X368359Y243973D01*
X369078Y244270D01*
X369694Y244744D01*
X370168Y245360D01*
X370465Y246079D01*
X370567Y246850D01*
X370465Y247620D01*
X370168Y248339D01*
X369980Y248583D01*
X369708Y248975D01*
X369980Y249366D01*
X370168Y249611D01*
X370465Y250329D01*
X370567Y251100D01*
X370465Y251871D01*
X370168Y252589D01*
X369935Y252892D01*
X369694Y253338D01*
X370168Y253955D01*
X370465Y254673D01*
X370567Y255444D01*
X370465Y256214D01*
X370168Y256933D01*
X369694Y257550D01*
X369078Y258023D01*
X368359Y258320D01*
X367589Y258422D01*
D02*
G37*
G36*
X446138Y238509D02*
X444699Y238319D01*
X443358Y237764D01*
X442207Y236881D01*
X442123Y236772D01*
X441650Y236932D01*
Y238461D01*
X430626D01*
Y227438D01*
X432155D01*
X432316Y226964D01*
X432207Y226881D01*
X431323Y225729D01*
X430768Y224388D01*
X430579Y222950D01*
X430768Y221511D01*
X431323Y220170D01*
X432207Y219018D01*
X433214Y218246D01*
X433254Y218110D01*
Y217789D01*
X433214Y217653D01*
X432207Y216881D01*
X431323Y215729D01*
X430768Y214388D01*
X430579Y212949D01*
X430768Y211511D01*
X431323Y210170D01*
X432207Y209018D01*
X433214Y208246D01*
X433254Y208110D01*
Y207789D01*
X433214Y207653D01*
X432207Y206881D01*
X431323Y205729D01*
X430768Y204388D01*
X430579Y202950D01*
X430768Y201511D01*
X431323Y200170D01*
X432207Y199018D01*
X433358Y198135D01*
X434699Y197580D01*
X436138Y197390D01*
X437577Y197580D01*
X438918Y198135D01*
X440069Y199018D01*
X440952Y200170D01*
X441199Y200765D01*
X441699D01*
X441825Y200460D01*
X442617Y199428D01*
X443648Y198637D01*
X444849Y198140D01*
X445638Y198036D01*
Y202950D01*
X446138D01*
Y203450D01*
X451052D01*
X450948Y204238D01*
X450450Y205439D01*
X449659Y206471D01*
X448628Y207262D01*
X447621Y207679D01*
Y208220D01*
X448628Y208637D01*
X449659Y209428D01*
X450450Y210460D01*
X450948Y211661D01*
X451052Y212450D01*
X446138D01*
Y213450D01*
X451052D01*
X450948Y214238D01*
X450450Y215439D01*
X449659Y216471D01*
X448628Y217262D01*
X448322Y217388D01*
Y217888D01*
X448918Y218135D01*
X450069Y219018D01*
X450952Y220170D01*
X451508Y221511D01*
X451697Y222950D01*
X451508Y224388D01*
X450952Y225729D01*
X450069Y226881D01*
X449062Y227654D01*
X449021Y227789D01*
Y228110D01*
X449062Y228246D01*
X450069Y229018D01*
X450952Y230170D01*
X451508Y231511D01*
X451697Y232949D01*
X451508Y234388D01*
X450952Y235729D01*
X450069Y236881D01*
X448918Y237764D01*
X447577Y238319D01*
X446138Y238509D01*
D02*
G37*
G36*
X204300Y231278D02*
X203529Y231177D01*
X202811Y230879D01*
X202194Y230406D01*
X201721Y229789D01*
X201423Y229071D01*
X201322Y228300D01*
X201423Y227529D01*
X201721Y226811D01*
X202194Y226194D01*
X202811Y225721D01*
X203529Y225423D01*
X204300Y225322D01*
X205071Y225423D01*
X205789Y225721D01*
X206406Y226194D01*
X206879Y226811D01*
X207177Y227529D01*
X207278Y228300D01*
X207177Y229071D01*
X206879Y229789D01*
X206406Y230406D01*
X205789Y230879D01*
X205071Y231177D01*
X204300Y231278D01*
D02*
G37*
G36*
X289100Y224878D02*
X288329Y224777D01*
X287611Y224479D01*
X286994Y224006D01*
X286521Y223389D01*
X286223Y222671D01*
X286122Y221900D01*
X286223Y221129D01*
X286521Y220411D01*
X286994Y219794D01*
X287611Y219321D01*
X288329Y219023D01*
X289100Y218922D01*
X289871Y219023D01*
X290589Y219321D01*
X291206Y219794D01*
X291679Y220411D01*
X291977Y221129D01*
X292078Y221900D01*
X291977Y222671D01*
X291679Y223389D01*
X291206Y224006D01*
X290589Y224479D01*
X289871Y224777D01*
X289100Y224878D01*
D02*
G37*
G36*
X312300Y216665D02*
X311529Y216563D01*
X310811Y216266D01*
X310194Y215792D01*
X309721Y215176D01*
X309423Y214457D01*
X309322Y213687D01*
X309423Y212916D01*
X309721Y212197D01*
X310194Y211581D01*
X310811Y211107D01*
X311529Y210810D01*
X312300Y210708D01*
X313071Y210810D01*
X313789Y211107D01*
X314406Y211581D01*
X314879Y212197D01*
X315177Y212916D01*
X315278Y213687D01*
X315177Y214457D01*
X314879Y215176D01*
X314406Y215792D01*
X313789Y216266D01*
X313071Y216563D01*
X312300Y216665D01*
D02*
G37*
G36*
X350954Y213228D02*
X350184Y213126D01*
X349465Y212829D01*
X348849Y212355D01*
X348375Y211739D01*
X348078Y211020D01*
X347976Y210250D01*
X348078Y209479D01*
X348375Y208760D01*
X348849Y208144D01*
X349465Y207670D01*
X350184Y207373D01*
X350954Y207271D01*
X351725Y207373D01*
X352444Y207670D01*
X353060Y208144D01*
X353534Y208760D01*
X353831Y209479D01*
X353933Y210250D01*
X353831Y211020D01*
X353534Y211739D01*
X353060Y212355D01*
X352444Y212829D01*
X351725Y213126D01*
X350954Y213228D01*
D02*
G37*
G36*
X490238Y208827D02*
X489467Y208726D01*
X488749Y208428D01*
X488132Y207955D01*
X487659Y207338D01*
X487361Y206620D01*
X487260Y205849D01*
X487361Y205078D01*
X487659Y204360D01*
X488132Y203743D01*
X488749Y203270D01*
X489467Y202972D01*
X490238Y202871D01*
X491009Y202972D01*
X491727Y203270D01*
X492344Y203743D01*
X492817Y204360D01*
X493115Y205078D01*
X493217Y205849D01*
X493115Y206620D01*
X492817Y207338D01*
X492344Y207955D01*
X491727Y208428D01*
X491009Y208726D01*
X490238Y208827D01*
D02*
G37*
G36*
X451052Y202449D02*
X446638D01*
Y198036D01*
X447427Y198140D01*
X448628Y198637D01*
X449659Y199428D01*
X450450Y200460D01*
X450948Y201661D01*
X451052Y202449D01*
D02*
G37*
G36*
X373438Y199828D02*
X372667Y199726D01*
X371949Y199429D01*
X371332Y198956D01*
X370859Y198339D01*
X370561Y197620D01*
X370460Y196850D01*
X370561Y196079D01*
X370859Y195361D01*
X371332Y194744D01*
X371949Y194270D01*
X372667Y193973D01*
X373438Y193871D01*
X374209Y193973D01*
X374927Y194270D01*
X375544Y194744D01*
X376017Y195361D01*
X376315Y196079D01*
X376416Y196850D01*
X376315Y197620D01*
X376017Y198339D01*
X375544Y198956D01*
X374927Y199429D01*
X374209Y199726D01*
X373438Y199828D01*
D02*
G37*
G36*
X287000Y193078D02*
X286229Y192977D01*
X285511Y192679D01*
X284894Y192206D01*
X284421Y191589D01*
X284123Y190871D01*
X284022Y190100D01*
X284123Y189329D01*
X284421Y188611D01*
X284894Y187994D01*
X285511Y187521D01*
X286229Y187223D01*
X287000Y187122D01*
X287771Y187223D01*
X288489Y187521D01*
X288803Y187437D01*
X288959Y187060D01*
X289432Y186444D01*
X290049Y185970D01*
X290767Y185673D01*
X291538Y185571D01*
X292309Y185673D01*
X293027Y185970D01*
X293644Y186444D01*
X294117Y187060D01*
X294415Y187779D01*
X294516Y188550D01*
X294415Y189320D01*
X294117Y190039D01*
X293644Y190656D01*
X293027Y191129D01*
X292309Y191426D01*
X291538Y191528D01*
X290767Y191426D01*
X290049Y191129D01*
X289735Y191213D01*
X289579Y191589D01*
X289106Y192206D01*
X288489Y192679D01*
X287771Y192977D01*
X287000Y193078D01*
D02*
G37*
G36*
X215055Y183667D02*
X214284Y183566D01*
X213565Y183268D01*
X213000Y182834D01*
X212435Y183268D01*
X211716Y183566D01*
X210945Y183667D01*
X210175Y183566D01*
X209456Y183268D01*
X208840Y182795D01*
X208366Y182178D01*
X208069Y181460D01*
X207967Y180689D01*
X208069Y179918D01*
X208366Y179200D01*
X208653Y178826D01*
X208366Y178452D01*
X208069Y177734D01*
X207967Y176963D01*
X208069Y176192D01*
X208366Y175474D01*
X208653Y175100D01*
X208366Y174726D01*
X208069Y174008D01*
X207967Y173237D01*
X208069Y172466D01*
X208366Y171748D01*
X208653Y171374D01*
X208366Y171000D01*
X208069Y170282D01*
X207967Y169511D01*
X208069Y168740D01*
X208366Y168022D01*
X208840Y167405D01*
X209456Y166932D01*
X210175Y166634D01*
X210945Y166533D01*
X211716Y166634D01*
X212435Y166932D01*
X213000Y167366D01*
X213565Y166932D01*
X214284Y166634D01*
X215055Y166533D01*
X215825Y166634D01*
X216544Y166932D01*
X217161Y167405D01*
X217634Y168022D01*
X217931Y168740D01*
X218033Y169511D01*
X217931Y170282D01*
X217634Y171000D01*
X217347Y171374D01*
X217634Y171748D01*
X217931Y172466D01*
X218033Y173237D01*
X217931Y174008D01*
X217634Y174726D01*
X217347Y175100D01*
X217634Y175474D01*
X217931Y176192D01*
X218033Y176963D01*
X217931Y177734D01*
X217634Y178452D01*
X217347Y178826D01*
X217634Y179200D01*
X217931Y179918D01*
X218033Y180689D01*
X217931Y181460D01*
X217634Y182178D01*
X217161Y182795D01*
X216544Y183268D01*
X215825Y183566D01*
X215055Y183667D01*
D02*
G37*
G36*
X269600Y185778D02*
X268829Y185677D01*
X268111Y185379D01*
X267494Y184906D01*
X267021Y184289D01*
X266723Y183571D01*
X266622Y182800D01*
X266723Y182029D01*
X267021Y181311D01*
X267494Y180694D01*
X268111Y180221D01*
X268829Y179923D01*
X269600Y179822D01*
X270371Y179923D01*
X271089Y180221D01*
X271706Y180694D01*
X272179Y181311D01*
X272477Y182029D01*
X272578Y182800D01*
X272477Y183571D01*
X272179Y184289D01*
X271706Y184906D01*
X271089Y185379D01*
X270371Y185677D01*
X269600Y185778D01*
D02*
G37*
G36*
X408600Y170278D02*
X407829Y170177D01*
X407111Y169879D01*
X406494Y169406D01*
X406021Y168789D01*
X405723Y168071D01*
X405622Y167300D01*
X405723Y166529D01*
X406021Y165811D01*
X406494Y165194D01*
X407111Y164721D01*
X407829Y164423D01*
X408600Y164322D01*
X409371Y164423D01*
X410089Y164721D01*
X410706Y165194D01*
X411179Y165811D01*
X411477Y166529D01*
X411578Y167300D01*
X411477Y168071D01*
X411179Y168789D01*
X410706Y169406D01*
X410089Y169879D01*
X409371Y170177D01*
X408600Y170278D01*
D02*
G37*
G36*
X267000Y251884D02*
X266229Y251782D01*
X265511Y251485D01*
X264894Y251011D01*
X264421Y250395D01*
X264123Y249676D01*
X264022Y248905D01*
X264123Y248135D01*
X264421Y247416D01*
X264894Y246799D01*
X265511Y246326D01*
X265639Y246273D01*
Y245732D01*
X265511Y245679D01*
X264894Y245206D01*
X264421Y244589D01*
X264123Y243871D01*
X264022Y243100D01*
X264123Y242329D01*
X264421Y241611D01*
X264894Y240994D01*
X264951Y240950D01*
Y240450D01*
X264894Y240406D01*
X264421Y239789D01*
X264123Y239071D01*
X264022Y238300D01*
X264123Y237529D01*
X264421Y236811D01*
X264894Y236194D01*
X265511Y235721D01*
X265874Y235571D01*
Y235029D01*
X265511Y234879D01*
X264894Y234406D01*
X264421Y233789D01*
X264123Y233071D01*
X264022Y232300D01*
X264123Y231529D01*
X264421Y230811D01*
X264894Y230194D01*
X265511Y229721D01*
X266229Y229423D01*
X267000Y229322D01*
X267771Y229423D01*
X268489Y229721D01*
X269106Y230194D01*
X269579Y230811D01*
X269877Y231529D01*
X269978Y232300D01*
X269877Y233071D01*
X269579Y233789D01*
X269106Y234406D01*
X268489Y234879D01*
X268127Y235029D01*
Y235571D01*
X268489Y235721D01*
X269106Y236194D01*
X269579Y236811D01*
X269833Y237424D01*
X295353D01*
X322765Y210011D01*
X322700Y209684D01*
X322598Y209472D01*
X322038Y209042D01*
X321564Y208425D01*
X321267Y207707D01*
X321165Y206936D01*
X321267Y206166D01*
X321564Y205447D01*
X322038Y204830D01*
X322654Y204357D01*
X323373Y204060D01*
X324143Y203958D01*
X324914Y204060D01*
X325633Y204357D01*
X325634Y204358D01*
X338194Y191798D01*
Y178514D01*
X338363Y177669D01*
X338841Y176953D01*
X346492Y169302D01*
Y147510D01*
X331467Y132485D01*
X330989Y131769D01*
X330821Y130924D01*
Y118772D01*
X330989Y117927D01*
X331467Y117210D01*
X334645Y114032D01*
X335362Y113554D01*
X336206Y113386D01*
X339694D01*
X340539Y113554D01*
X341255Y114032D01*
X343439Y116217D01*
X343918Y116933D01*
X344086Y117778D01*
Y130508D01*
X349912Y136334D01*
X372986D01*
X378230Y131089D01*
Y121458D01*
X378228Y121446D01*
X378204Y121369D01*
X378158Y121260D01*
X378086Y121123D01*
X377983Y120959D01*
X377861Y120790D01*
X377467Y120330D01*
X377257Y120116D01*
X377209Y120079D01*
X376483Y119133D01*
X376027Y118032D01*
X375871Y116850D01*
X376027Y115668D01*
X376483Y114566D01*
X377209Y113620D01*
X378155Y112895D01*
X379256Y112439D01*
X380438Y112283D01*
X381620Y112439D01*
X382721Y112895D01*
X383667Y113620D01*
X384393Y114566D01*
X384849Y115668D01*
X385004Y116850D01*
X384849Y118032D01*
X384393Y119133D01*
X383667Y120079D01*
X383625Y120111D01*
X383183Y120581D01*
X383027Y120773D01*
X382892Y120959D01*
X382790Y121123D01*
X382718Y121260D01*
X382672Y121369D01*
X382648Y121446D01*
X382646Y121458D01*
Y132004D01*
X382478Y132849D01*
X381999Y133565D01*
X377724Y137841D01*
X377915Y138303D01*
X394175D01*
X396875Y135603D01*
X397266Y135342D01*
X397149Y135061D01*
X397048Y134290D01*
X397149Y133519D01*
X397447Y132801D01*
X397920Y132184D01*
X398537Y131711D01*
X399255Y131413D01*
X400026Y131312D01*
X400797Y131413D01*
X401515Y131711D01*
X402132Y132184D01*
X402605Y132801D01*
X402903Y133519D01*
X403004Y134290D01*
X402903Y135061D01*
X402772Y135375D01*
X403113Y135603D01*
X403354Y135843D01*
X408322D01*
X409981Y134184D01*
X410061Y133579D01*
X410359Y132861D01*
X410832Y132244D01*
X411449Y131770D01*
X412167Y131473D01*
X412938Y131371D01*
X413709Y131473D01*
X414427Y131770D01*
X415044Y132244D01*
X415517Y132861D01*
X415815Y133579D01*
X415916Y134350D01*
X415815Y135120D01*
X415517Y135839D01*
X415044Y136456D01*
X414427Y136929D01*
X414328Y136970D01*
X414274Y137120D01*
X414277Y137532D01*
X414774Y137913D01*
X415247Y138530D01*
X415545Y139249D01*
X415646Y140019D01*
X415545Y140790D01*
X415247Y141508D01*
X414774Y142125D01*
X414157Y142599D01*
X413439Y142896D01*
X412668Y142998D01*
X411897Y142896D01*
X411179Y142599D01*
X410695Y142227D01*
X404738D01*
X402843Y144123D01*
X403115Y144779D01*
X403216Y145550D01*
X403115Y146320D01*
X402817Y147039D01*
X402344Y147655D01*
X401727Y148129D01*
X401009Y148426D01*
X400238Y148528D01*
X399467Y148426D01*
X398898Y148191D01*
X398398Y148431D01*
Y150671D01*
X398898Y151005D01*
X399255Y150857D01*
X400026Y150756D01*
X400797Y150857D01*
X401515Y151155D01*
X402132Y151628D01*
X402605Y152245D01*
X402903Y152963D01*
X403004Y153734D01*
X402903Y154505D01*
X402605Y155223D01*
X402132Y155840D01*
X401515Y156313D01*
X401149Y156465D01*
Y157006D01*
X401515Y157158D01*
X402132Y157631D01*
X402605Y158248D01*
X402903Y158966D01*
X403004Y159737D01*
X402903Y160508D01*
X402605Y161226D01*
X402132Y161843D01*
X401515Y162316D01*
X400797Y162613D01*
X400026Y162715D01*
X399255Y162613D01*
X398537Y162316D01*
X397920Y161843D01*
X397447Y161226D01*
X397149Y160508D01*
X397048Y159737D01*
X397149Y158966D01*
X397447Y158248D01*
X397920Y157631D01*
X398537Y157158D01*
X398903Y157006D01*
Y156465D01*
X398537Y156313D01*
X398108Y155984D01*
X397679Y156313D01*
X396961Y156611D01*
X396190Y156712D01*
X395419Y156611D01*
X394701Y156313D01*
X394084Y155840D01*
X393611Y155223D01*
X393313Y154505D01*
X393212Y153734D01*
X393313Y152963D01*
X393611Y152245D01*
X393982Y151761D01*
Y147523D01*
X393611Y147039D01*
X393313Y146320D01*
X393212Y145550D01*
X393247Y145284D01*
X392917Y144908D01*
X350778D01*
X350511Y145408D01*
X350740Y145751D01*
X350908Y146596D01*
Y169392D01*
X369246D01*
X370090Y169560D01*
X370807Y170039D01*
X372517Y171749D01*
X372996Y172466D01*
X373164Y173310D01*
Y175119D01*
X373205Y175195D01*
X373463Y175531D01*
X373761Y176250D01*
X373862Y177020D01*
X373761Y177791D01*
X373463Y178509D01*
X372990Y179126D01*
X372373Y179600D01*
X371655Y179897D01*
X370884Y179999D01*
X370113Y179897D01*
X369395Y179600D01*
X368778Y179126D01*
X368305Y178509D01*
X368007Y177791D01*
X367956Y177398D01*
X367429Y177329D01*
X366711Y177031D01*
X366227Y176660D01*
X350946D01*
X346547Y181059D01*
Y194661D01*
X346379Y195506D01*
X345900Y196222D01*
X333922Y208200D01*
X333955Y208699D01*
X334144Y208844D01*
X334617Y209460D01*
X334915Y210179D01*
X335016Y210950D01*
X334915Y211720D01*
X334617Y212439D01*
X334144Y213055D01*
X333527Y213529D01*
X332809Y213826D01*
X332038Y213928D01*
X331267Y213826D01*
X330549Y213529D01*
X329932Y213055D01*
X329787Y212867D01*
X329288Y212834D01*
X298961Y243161D01*
X298245Y243640D01*
X297400Y243808D01*
X269885D01*
X269877Y243871D01*
X269579Y244589D01*
X269106Y245206D01*
X268489Y245679D01*
X268361Y245732D01*
Y246273D01*
X268489Y246326D01*
X269106Y246799D01*
X269579Y247416D01*
X269877Y248135D01*
X269978Y248905D01*
X269877Y249676D01*
X269579Y250395D01*
X269106Y251011D01*
X268489Y251485D01*
X267771Y251782D01*
X267000Y251884D01*
D02*
G37*
G36*
X225182Y146879D02*
X224025Y146765D01*
X222911Y146427D01*
X221885Y145879D01*
X220986Y145141D01*
X220248Y144242D01*
X219700Y143216D01*
X219362Y142103D01*
X219248Y140945D01*
X219362Y139787D01*
X219700Y138674D01*
X220248Y137648D01*
X220986Y136749D01*
X221885Y136011D01*
X222911Y135462D01*
X224025Y135125D01*
X225182Y135011D01*
X226340Y135125D01*
X227453Y135462D01*
X228479Y136011D01*
X229378Y136749D01*
X230116Y137648D01*
X230665Y138674D01*
X231002Y139787D01*
X231116Y140945D01*
X231002Y142103D01*
X230665Y143216D01*
X230116Y144242D01*
X229378Y145141D01*
X228479Y145879D01*
X227453Y146427D01*
X226340Y146765D01*
X225182Y146879D01*
D02*
G37*
G36*
X295338Y139628D02*
X294567Y139526D01*
X293849Y139229D01*
X293232Y138756D01*
X292759Y138139D01*
X292461Y137420D01*
X292360Y136650D01*
X292461Y135879D01*
X292759Y135161D01*
X293232Y134544D01*
X293849Y134070D01*
X294567Y133773D01*
X295338Y133671D01*
X296109Y133773D01*
X296827Y134070D01*
X297444Y134544D01*
X297917Y135161D01*
X298215Y135879D01*
X298316Y136650D01*
X298215Y137420D01*
X297917Y138139D01*
X297444Y138756D01*
X296827Y139229D01*
X296109Y139526D01*
X295338Y139628D01*
D02*
G37*
G36*
X363300Y133378D02*
X362529Y133277D01*
X361811Y132979D01*
X361194Y132506D01*
X360721Y131889D01*
X360423Y131171D01*
X360322Y130400D01*
X360423Y129629D01*
X360721Y128911D01*
X361194Y128294D01*
X361811Y127821D01*
X362529Y127523D01*
X363300Y127422D01*
X364071Y127523D01*
X364789Y127821D01*
X365406Y128294D01*
X365879Y128911D01*
X366177Y129629D01*
X366278Y130400D01*
X366177Y131171D01*
X365879Y131889D01*
X365406Y132506D01*
X364789Y132979D01*
X364071Y133277D01*
X363300Y133378D01*
D02*
G37*
G36*
X544739Y124076D02*
X543468D01*
Y121383D01*
X547866D01*
X547823Y121710D01*
X547504Y122480D01*
X546997Y123141D01*
X546336Y123648D01*
X545566Y123967D01*
X544739Y124076D01*
D02*
G37*
G36*
X542468D02*
X541196D01*
X540370Y123967D01*
X539600Y123648D01*
X538939Y123141D01*
X538431Y122480D01*
X538112Y121710D01*
X538069Y121383D01*
X542468D01*
Y124076D01*
D02*
G37*
G36*
X225682Y122949D02*
Y118138D01*
X230493D01*
X230376Y119029D01*
X229839Y120326D01*
X228984Y121440D01*
X227871Y122294D01*
X226574Y122831D01*
X225682Y122949D01*
D02*
G37*
G36*
X224682D02*
X223791Y122831D01*
X222494Y122294D01*
X221380Y121440D01*
X220526Y120326D01*
X219989Y119029D01*
X219871Y118138D01*
X224682D01*
Y122949D01*
D02*
G37*
G36*
X547866Y120383D02*
X543468D01*
Y117691D01*
X544739D01*
X545566Y117799D01*
X546336Y118119D01*
X546997Y118626D01*
X547504Y119287D01*
X547823Y120057D01*
X547866Y120383D01*
D02*
G37*
G36*
X542468D02*
X538069D01*
X538112Y120057D01*
X538431Y119287D01*
X538939Y118626D01*
X539600Y118119D01*
X540370Y117799D01*
X541196Y117691D01*
X542468D01*
Y120383D01*
D02*
G37*
G36*
X400938Y120771D02*
Y117350D01*
X404359D01*
X404289Y117881D01*
X403891Y118843D01*
X403257Y119669D01*
X402431Y120302D01*
X401470Y120701D01*
X400938Y120771D01*
D02*
G37*
G36*
X399938Y120771D02*
X399406Y120701D01*
X398444Y120302D01*
X397619Y119669D01*
X396985Y118843D01*
X396587Y117881D01*
X396517Y117350D01*
X399938D01*
Y120771D01*
D02*
G37*
G36*
X494580Y123147D02*
X493809Y123046D01*
X493091Y122748D01*
X492474Y122275D01*
X492001Y121658D01*
X491703Y120940D01*
X491602Y120169D01*
X491703Y119398D01*
X492001Y118680D01*
X492474Y118063D01*
X493091Y117590D01*
X493809Y117292D01*
X494580Y117191D01*
X495351Y117292D01*
X496069Y117590D01*
X496686Y118063D01*
X497159Y118680D01*
X497457Y119398D01*
X497558Y120169D01*
X497457Y120940D01*
X497159Y121658D01*
X496686Y122275D01*
X496069Y122748D01*
X495351Y123046D01*
X494580Y123147D01*
D02*
G37*
G36*
X404359Y116349D02*
X400938D01*
Y112928D01*
X401470Y112999D01*
X402431Y113397D01*
X403257Y114030D01*
X403891Y114856D01*
X404289Y115818D01*
X404359Y116349D01*
D02*
G37*
G36*
X399938D02*
X396517D01*
X396587Y115818D01*
X396985Y114856D01*
X397619Y114030D01*
X398444Y113397D01*
X399406Y112999D01*
X399938Y112928D01*
Y116349D01*
D02*
G37*
G36*
X542901Y114656D02*
X542677Y114627D01*
X542003Y114348D01*
X541424Y113903D01*
X540980Y113324D01*
X540700Y112650D01*
X540671Y112427D01*
X542901D01*
Y114656D01*
D02*
G37*
G36*
X230493Y117138D02*
X225682D01*
Y112327D01*
X226574Y112444D01*
X227871Y112981D01*
X228984Y113836D01*
X229839Y114949D01*
X230376Y116246D01*
X230493Y117138D01*
D02*
G37*
G36*
X224682D02*
X219871D01*
X219989Y116246D01*
X220526Y114949D01*
X221380Y113836D01*
X222494Y112981D01*
X223791Y112444D01*
X224682Y112327D01*
Y117138D01*
D02*
G37*
G36*
X424965Y121377D02*
X415910D01*
Y112322D01*
X424965D01*
Y121377D01*
D02*
G37*
G36*
X410438Y121416D02*
X409256Y121261D01*
X408155Y120804D01*
X407209Y120079D01*
X406483Y119133D01*
X406027Y118032D01*
X405871Y116850D01*
X406027Y115668D01*
X406483Y114566D01*
X407209Y113620D01*
X408155Y112895D01*
X409256Y112439D01*
X410438Y112283D01*
X411620Y112439D01*
X412721Y112895D01*
X413667Y113620D01*
X414393Y114566D01*
X414849Y115668D01*
X415004Y116850D01*
X414849Y118032D01*
X414393Y119133D01*
X413667Y120079D01*
X412721Y120804D01*
X411620Y121261D01*
X410438Y121416D01*
D02*
G37*
G36*
X390438D02*
X389256Y121261D01*
X388155Y120804D01*
X387209Y120079D01*
X386483Y119133D01*
X386027Y118032D01*
X385871Y116850D01*
X386027Y115668D01*
X386483Y114566D01*
X387209Y113620D01*
X388155Y112895D01*
X389256Y112439D01*
X390438Y112283D01*
X391620Y112439D01*
X392721Y112895D01*
X393667Y113620D01*
X394393Y114566D01*
X394849Y115668D01*
X395005Y116850D01*
X394849Y118032D01*
X394393Y119133D01*
X393667Y120079D01*
X392721Y120804D01*
X391620Y121261D01*
X390438Y121416D01*
D02*
G37*
G36*
X370438D02*
X369256Y121261D01*
X368155Y120804D01*
X367209Y120079D01*
X366483Y119133D01*
X366027Y118032D01*
X365871Y116850D01*
X366027Y115668D01*
X366483Y114566D01*
X367209Y113620D01*
X368155Y112895D01*
X369256Y112439D01*
X370438Y112283D01*
X371620Y112439D01*
X372721Y112895D01*
X373667Y113620D01*
X374393Y114566D01*
X374849Y115668D01*
X375005Y116850D01*
X374849Y118032D01*
X374393Y119133D01*
X373667Y120079D01*
X372721Y120804D01*
X371620Y121261D01*
X370438Y121416D01*
D02*
G37*
G36*
X543901Y114656D02*
Y111927D01*
X543401D01*
Y111427D01*
X540671D01*
X540700Y111203D01*
X540980Y110529D01*
X541424Y109950D01*
Y109510D01*
X541014Y109195D01*
X540478Y108496D01*
X540140Y107682D01*
X540026Y106809D01*
X540140Y105935D01*
X540478Y105121D01*
X541014Y104422D01*
X540876Y103898D01*
X540478Y103378D01*
X540140Y102564D01*
X540026Y101690D01*
X540140Y100817D01*
X540478Y100003D01*
X541014Y99304D01*
X541713Y98767D01*
X542527Y98430D01*
X543401Y98315D01*
X544274Y98430D01*
X545088Y98767D01*
X545788Y99304D01*
X546324Y100003D01*
X546661Y100817D01*
X546680Y100961D01*
X547338Y100874D01*
X548211Y100989D01*
X549025Y101326D01*
X549725Y101863D01*
X550261Y102562D01*
X550598Y103376D01*
X550713Y104250D01*
X550598Y105123D01*
X550261Y105937D01*
X549862Y106456D01*
X549770Y106809D01*
X549862Y107161D01*
X550261Y107680D01*
X550598Y108494D01*
X550713Y109368D01*
X550598Y110241D01*
X550261Y111055D01*
X549725Y111754D01*
X549025Y112291D01*
X548211Y112628D01*
X547338Y112743D01*
X546464Y112628D01*
X545971Y112965D01*
X545822Y113324D01*
X545378Y113903D01*
X544799Y114348D01*
X544124Y114627D01*
X543901Y114656D01*
D02*
G37*
G36*
X544739Y95926D02*
X543468D01*
Y93234D01*
X547866D01*
X547823Y93560D01*
X547504Y94330D01*
X546997Y94991D01*
X546336Y95499D01*
X545566Y95818D01*
X544739Y95926D01*
D02*
G37*
G36*
X542468D02*
X541196D01*
X540370Y95818D01*
X539600Y95499D01*
X538939Y94991D01*
X538431Y94330D01*
X538112Y93560D01*
X538069Y93234D01*
X542468D01*
Y95926D01*
D02*
G37*
G36*
X391600Y98978D02*
X390829Y98877D01*
X390111Y98579D01*
X389494Y98106D01*
X389021Y97489D01*
X388723Y96771D01*
X388622Y96000D01*
X388723Y95229D01*
X389021Y94511D01*
X389494Y93894D01*
X390111Y93421D01*
X390829Y93123D01*
X391600Y93022D01*
X392371Y93123D01*
X393089Y93421D01*
X393706Y93894D01*
X394179Y94511D01*
X394477Y95229D01*
X394578Y96000D01*
X394477Y96771D01*
X394179Y97489D01*
X393706Y98106D01*
X393089Y98579D01*
X392371Y98877D01*
X391600Y98978D01*
D02*
G37*
G36*
X547866Y92234D02*
X543468D01*
Y89541D01*
X544739D01*
X545566Y89650D01*
X546336Y89969D01*
X546997Y90476D01*
X547504Y91137D01*
X547823Y91908D01*
X547866Y92234D01*
D02*
G37*
G36*
X542468D02*
X538069D01*
X538112Y91908D01*
X538431Y91137D01*
X538939Y90476D01*
X539600Y89969D01*
X540370Y89650D01*
X541196Y89541D01*
X542468D01*
Y92234D01*
D02*
G37*
G36*
X225182Y100265D02*
X224025Y100151D01*
X222911Y99813D01*
X221885Y99265D01*
X220986Y98527D01*
X220248Y97627D01*
X219700Y96601D01*
X219362Y95488D01*
X219248Y94331D01*
X219362Y93173D01*
X219700Y92060D01*
X220248Y91034D01*
X220986Y90135D01*
X221885Y89397D01*
X222911Y88848D01*
X224025Y88511D01*
X225182Y88397D01*
X226340Y88511D01*
X227453Y88848D01*
X228479Y89397D01*
X229378Y90135D01*
X230116Y91034D01*
X230665Y92060D01*
X231002Y93173D01*
X231116Y94331D01*
X231002Y95488D01*
X230665Y96601D01*
X230116Y97627D01*
X229378Y98527D01*
X228479Y99265D01*
X227453Y99813D01*
X226340Y100151D01*
X225182Y100265D01*
D02*
G37*
G36*
X119240Y84139D02*
X118469Y84037D01*
X117751Y83740D01*
X117134Y83266D01*
X116660Y82649D01*
X116363Y81931D01*
X116261Y81160D01*
X116363Y80390D01*
X116660Y79671D01*
X116952Y79291D01*
X116721Y78989D01*
X116423Y78271D01*
X116322Y77500D01*
X116423Y76729D01*
X116721Y76011D01*
X117194Y75394D01*
X117811Y74921D01*
X118529Y74623D01*
X119300Y74522D01*
X120071Y74623D01*
X120789Y74921D01*
X121406Y75394D01*
X121879Y76011D01*
X122177Y76729D01*
X122278Y77500D01*
X122177Y78271D01*
X121879Y78989D01*
X121587Y79370D01*
X121819Y79671D01*
X122116Y80390D01*
X122218Y81160D01*
X122116Y81931D01*
X121819Y82649D01*
X121345Y83266D01*
X120729Y83740D01*
X120010Y84037D01*
X119240Y84139D01*
D02*
G37*
G36*
X237832Y77916D02*
X237062Y77815D01*
X236343Y77517D01*
X235726Y77044D01*
X235253Y76427D01*
X234956Y75709D01*
X234854Y74938D01*
X234956Y74167D01*
X235253Y73449D01*
X235726Y72832D01*
X236343Y72359D01*
X237062Y72061D01*
X237832Y71960D01*
X238603Y72061D01*
X239321Y72359D01*
X239938Y72832D01*
X240412Y73449D01*
X240709Y74167D01*
X240811Y74938D01*
X240709Y75709D01*
X240412Y76427D01*
X239938Y77044D01*
X239321Y77517D01*
X238603Y77815D01*
X237832Y77916D01*
D02*
G37*
G36*
X280000Y69578D02*
X279229Y69477D01*
X278511Y69179D01*
X278450Y69133D01*
X278389Y69179D01*
X277671Y69477D01*
X276900Y69578D01*
X276129Y69477D01*
X275411Y69179D01*
X275350Y69133D01*
X275289Y69179D01*
X274571Y69477D01*
X273800Y69578D01*
X273029Y69477D01*
X272311Y69179D01*
X272250Y69133D01*
X272189Y69179D01*
X271471Y69477D01*
X270700Y69578D01*
X269929Y69477D01*
X269211Y69179D01*
X268594Y68706D01*
X268121Y68089D01*
X267823Y67371D01*
X267722Y66600D01*
X267823Y65829D01*
X268105Y65150D01*
X267823Y64471D01*
X267722Y63700D01*
X267823Y62929D01*
X268121Y62211D01*
X268594Y61594D01*
X269211Y61121D01*
X269929Y60823D01*
X270700Y60722D01*
X271471Y60823D01*
X272189Y61121D01*
X272806Y61594D01*
X273279Y62211D01*
X273540Y62841D01*
X273800Y62889D01*
X274060Y62841D01*
X274321Y62211D01*
X274794Y61594D01*
X275411Y61121D01*
X276129Y60823D01*
X276900Y60722D01*
X277671Y60823D01*
X278389Y61121D01*
X278450Y61168D01*
X278511Y61121D01*
X279229Y60823D01*
X280000Y60722D01*
X280771Y60823D01*
X281489Y61121D01*
X282106Y61594D01*
X282579Y62211D01*
X282877Y62929D01*
X282978Y63700D01*
X282877Y64471D01*
X282595Y65150D01*
X282877Y65829D01*
X282978Y66600D01*
X282877Y67371D01*
X282579Y68089D01*
X282106Y68706D01*
X281489Y69179D01*
X280771Y69477D01*
X280000Y69578D01*
D02*
G37*
G36*
X338819Y68050D02*
Y62842D01*
X344027D01*
X343896Y63836D01*
X343320Y65228D01*
X342402Y66424D01*
X341206Y67342D01*
X339814Y67919D01*
X338819Y68050D01*
D02*
G37*
G36*
X337819Y68050D02*
X336825Y67919D01*
X335432Y67342D01*
X334237Y66424D01*
X333319Y65228D01*
X332742Y63836D01*
X332611Y62842D01*
X337819D01*
Y68050D01*
D02*
G37*
G36*
X318819Y68050D02*
Y62842D01*
X324027D01*
X323896Y63836D01*
X323319Y65228D01*
X322402Y66424D01*
X321206Y67342D01*
X319813Y67919D01*
X318819Y68050D01*
D02*
G37*
G36*
X317819D02*
X316825Y67919D01*
X315432Y67342D01*
X314236Y66424D01*
X313319Y65228D01*
X312742Y63836D01*
X312611Y62842D01*
X317819D01*
Y68050D01*
D02*
G37*
G36*
X344027Y61842D02*
X338819D01*
Y56634D01*
X339814Y56765D01*
X341206Y57341D01*
X342402Y58259D01*
X343320Y59455D01*
X343896Y60847D01*
X344027Y61842D01*
D02*
G37*
G36*
X324027Y61842D02*
X318819D01*
Y56634D01*
X319813Y56765D01*
X321206Y57341D01*
X322402Y58259D01*
X323319Y59455D01*
X323896Y60847D01*
X324027Y61842D01*
D02*
G37*
G36*
X317819D02*
X312611D01*
X312742Y60847D01*
X313319Y59455D01*
X314236Y58259D01*
X315432Y57341D01*
X316825Y56765D01*
X317819Y56634D01*
Y61842D01*
D02*
G37*
G36*
X337819Y61842D02*
X332611D01*
X332742Y60847D01*
X333319Y59455D01*
X334237Y58259D01*
X335432Y57341D01*
X336825Y56765D01*
X337819Y56634D01*
Y61842D01*
D02*
G37*
G36*
X123900Y55278D02*
X123129Y55177D01*
X122411Y54879D01*
X122350Y54833D01*
X122289Y54879D01*
X121571Y55177D01*
X120800Y55278D01*
X120029Y55177D01*
X119311Y54879D01*
X119250Y54833D01*
X119189Y54879D01*
X118471Y55177D01*
X117700Y55278D01*
X116929Y55177D01*
X116211Y54879D01*
X116150Y54833D01*
X116089Y54879D01*
X115371Y55177D01*
X114600Y55278D01*
X113829Y55177D01*
X113111Y54879D01*
X112494Y54406D01*
X112021Y53789D01*
X111723Y53071D01*
X111622Y52300D01*
X111723Y51529D01*
X112021Y50811D01*
X112494Y50194D01*
X113111Y49721D01*
X113829Y49423D01*
X114600Y49322D01*
X115371Y49423D01*
X116089Y49721D01*
X116150Y49768D01*
X116211Y49721D01*
X116929Y49423D01*
X117700Y49322D01*
X118471Y49423D01*
X119189Y49721D01*
X119250Y49768D01*
X119311Y49721D01*
X120029Y49423D01*
X120800Y49322D01*
X121571Y49423D01*
X122289Y49721D01*
X122350Y49768D01*
X122411Y49721D01*
X123129Y49423D01*
X123900Y49322D01*
X124671Y49423D01*
X125389Y49721D01*
X126006Y50194D01*
X126479Y50811D01*
X126777Y51529D01*
X126878Y52300D01*
X126777Y53071D01*
X126479Y53789D01*
X126006Y54406D01*
X125389Y54879D01*
X124671Y55177D01*
X123900Y55278D01*
D02*
G37*
G36*
X328319Y58276D02*
X327162Y58162D01*
X326048Y57824D01*
X325022Y57276D01*
X324123Y56538D01*
X323385Y55638D01*
X322837Y54612D01*
X322499Y53499D01*
X322385Y52342D01*
X322499Y51184D01*
X322837Y50071D01*
X323385Y49045D01*
X324123Y48146D01*
X325022Y47408D01*
X326048Y46859D01*
X327162Y46521D01*
X328319Y46407D01*
X329477Y46521D01*
X330590Y46859D01*
X331616Y47408D01*
X332515Y48146D01*
X333253Y49045D01*
X333802Y50071D01*
X334139Y51184D01*
X334253Y52342D01*
X334139Y53499D01*
X333802Y54612D01*
X333253Y55638D01*
X332515Y56538D01*
X331616Y57276D01*
X330590Y57824D01*
X329477Y58162D01*
X328319Y58276D01*
D02*
G37*
G36*
X123900Y44078D02*
X123129Y43977D01*
X122411Y43679D01*
X122350Y43633D01*
X122289Y43679D01*
X121571Y43977D01*
X120800Y44078D01*
X120029Y43977D01*
X119311Y43679D01*
X119250Y43633D01*
X119189Y43679D01*
X118471Y43977D01*
X117700Y44078D01*
X116929Y43977D01*
X116211Y43679D01*
X116150Y43633D01*
X116089Y43679D01*
X115371Y43977D01*
X114600Y44078D01*
X113829Y43977D01*
X113111Y43679D01*
X112494Y43206D01*
X112021Y42589D01*
X111723Y41871D01*
X111622Y41100D01*
X111723Y40329D01*
X112021Y39611D01*
X112494Y38994D01*
X113111Y38521D01*
X113829Y38223D01*
X114600Y38122D01*
X115371Y38223D01*
X116089Y38521D01*
X116150Y38568D01*
X116211Y38521D01*
X116929Y38223D01*
X117700Y38122D01*
X118471Y38223D01*
X119189Y38521D01*
X119250Y38568D01*
X119311Y38521D01*
X120029Y38223D01*
X120800Y38122D01*
X121571Y38223D01*
X122289Y38521D01*
X122350Y38568D01*
X122411Y38521D01*
X123129Y38223D01*
X123900Y38122D01*
X124671Y38223D01*
X125389Y38521D01*
X126006Y38994D01*
X126479Y39611D01*
X126777Y40329D01*
X126878Y41100D01*
X126777Y41871D01*
X126479Y42589D01*
X126006Y43206D01*
X125389Y43679D01*
X124671Y43977D01*
X123900Y44078D01*
D02*
G37*
G36*
X338819Y48050D02*
Y42842D01*
X344027D01*
X343896Y43836D01*
X343320Y45228D01*
X342402Y46424D01*
X341206Y47342D01*
X339814Y47919D01*
X338819Y48050D01*
D02*
G37*
G36*
X337819Y48050D02*
X336825Y47919D01*
X335432Y47342D01*
X334237Y46424D01*
X333319Y45228D01*
X332742Y43836D01*
X332611Y42842D01*
X337819D01*
Y48050D01*
D02*
G37*
G36*
X318819Y48050D02*
Y42842D01*
X324027D01*
X323896Y43836D01*
X323319Y45228D01*
X322402Y46424D01*
X321206Y47342D01*
X319813Y47919D01*
X318819Y48050D01*
D02*
G37*
G36*
X317819D02*
X316825Y47919D01*
X315432Y47342D01*
X314236Y46424D01*
X313319Y45228D01*
X312742Y43836D01*
X312611Y42842D01*
X317819D01*
Y48050D01*
D02*
G37*
G36*
X344027Y41842D02*
X338819D01*
Y36634D01*
X339814Y36764D01*
X341206Y37341D01*
X342402Y38259D01*
X343320Y39455D01*
X343896Y40847D01*
X344027Y41842D01*
D02*
G37*
G36*
X324027Y41842D02*
X318819D01*
Y36634D01*
X319813Y36764D01*
X321206Y37341D01*
X322402Y38259D01*
X323319Y39455D01*
X323896Y40847D01*
X324027Y41842D01*
D02*
G37*
G36*
X317819D02*
X312611D01*
X312742Y40847D01*
X313319Y39455D01*
X314236Y38259D01*
X315432Y37341D01*
X316825Y36764D01*
X317819Y36634D01*
Y41842D01*
D02*
G37*
G36*
X337819Y41842D02*
X332611D01*
X332742Y40847D01*
X333319Y39455D01*
X334237Y38259D01*
X335432Y37341D01*
X336825Y36764D01*
X337819Y36634D01*
Y41842D01*
D02*
G37*
G36*
X519685Y11847D02*
X517832Y11702D01*
X516024Y11268D01*
X514306Y10556D01*
X512721Y9585D01*
X511307Y8377D01*
X510100Y6964D01*
X509129Y5379D01*
X508417Y3661D01*
X507983Y1853D01*
X507837Y0D01*
X507983Y-1853D01*
X508417Y-3661D01*
X509129Y-5379D01*
X510100Y-6964D01*
X511307Y-8377D01*
X512721Y-9585D01*
X514306Y-10556D01*
X516024Y-11268D01*
X517832Y-11702D01*
X519685Y-11847D01*
X521538Y-11702D01*
X523346Y-11268D01*
X525064Y-10556D01*
X526649Y-9585D01*
X528062Y-8377D01*
X529270Y-6964D01*
X530241Y-5379D01*
X530953Y-3661D01*
X531387Y-1853D01*
X531532Y0D01*
X531387Y1853D01*
X530953Y3661D01*
X530241Y5379D01*
X529270Y6964D01*
X528062Y8377D01*
X526649Y9585D01*
X525064Y10556D01*
X523346Y11268D01*
X521538Y11702D01*
X519685Y11847D01*
D02*
G37*
G36*
X272132Y-9684D02*
X271362Y-9786D01*
X270643Y-10083D01*
X270026Y-10556D01*
X269553Y-11173D01*
X269256Y-11891D01*
X269154Y-12662D01*
X269256Y-13433D01*
X269553Y-14151D01*
X269994Y-14726D01*
X270134Y-15430D01*
X270613Y-16147D01*
X270790Y-16323D01*
X270667Y-16908D01*
X270243Y-17083D01*
X269626Y-17556D01*
X269153Y-18173D01*
X268856Y-18891D01*
X268754Y-19662D01*
X268856Y-20433D01*
X269153Y-21151D01*
X269626Y-21768D01*
X270243Y-22241D01*
X270962Y-22539D01*
X271245Y-22576D01*
X271338Y-22609D01*
X271350Y-22614D01*
X271360Y-22616D01*
X271361Y-22616D01*
X271381Y-22633D01*
X272856Y-24108D01*
X272850Y-24158D01*
X272951Y-24928D01*
X273249Y-25647D01*
X273722Y-26263D01*
X274339Y-26737D01*
X275057Y-27034D01*
X275828Y-27136D01*
X275834Y-27135D01*
X276104Y-27788D01*
X276577Y-28405D01*
X277194Y-28878D01*
X277912Y-29175D01*
X278683Y-29277D01*
X279454Y-29175D01*
X280172Y-28878D01*
X280789Y-28405D01*
X281262Y-27788D01*
X281560Y-27070D01*
X281661Y-26299D01*
X281560Y-25528D01*
X281262Y-24810D01*
X280891Y-24326D01*
Y-21095D01*
X280723Y-20250D01*
X280244Y-19534D01*
X274756Y-14045D01*
X275009Y-13433D01*
X275111Y-12662D01*
X275009Y-11891D01*
X274712Y-11173D01*
X274238Y-10556D01*
X273622Y-10083D01*
X272903Y-9786D01*
X272132Y-9684D01*
D02*
G37*
G36*
X119466Y-21461D02*
X118695Y-21563D01*
X117977Y-21860D01*
X117360Y-22333D01*
X116887Y-22950D01*
X116589Y-23668D01*
X116488Y-24439D01*
X116589Y-25210D01*
X116887Y-25928D01*
X117179Y-26309D01*
X116947Y-26610D01*
X116650Y-27329D01*
X116548Y-28100D01*
X116650Y-28870D01*
X116947Y-29589D01*
X117421Y-30206D01*
X118037Y-30679D01*
X118756Y-30976D01*
X119527Y-31078D01*
X120297Y-30976D01*
X121016Y-30679D01*
X121633Y-30206D01*
X122106Y-29589D01*
X122403Y-28870D01*
X122505Y-28100D01*
X122403Y-27329D01*
X122106Y-26610D01*
X121814Y-26230D01*
X122045Y-25928D01*
X122343Y-25210D01*
X122444Y-24439D01*
X122343Y-23668D01*
X122045Y-22950D01*
X121572Y-22333D01*
X120955Y-21860D01*
X120237Y-21563D01*
X119466Y-21461D01*
D02*
G37*
%LPD*%
G36*
X507910Y263485D02*
X507833Y263556D01*
X507749Y263620D01*
X507658Y263676D01*
X507560Y263724D01*
X507454Y263766D01*
X507342Y263799D01*
X507223Y263825D01*
X507096Y263844D01*
X506963Y263855D01*
X506822Y263859D01*
Y265040D01*
X506963Y265044D01*
X507096Y265055D01*
X507223Y265074D01*
X507342Y265100D01*
X507454Y265134D01*
X507560Y265175D01*
X507658Y265223D01*
X507749Y265280D01*
X507833Y265343D01*
X507910Y265414D01*
Y263485D01*
D02*
G37*
G36*
X503099Y265343D02*
X503183Y265280D01*
X503274Y265223D01*
X503372Y265175D01*
X503477Y265134D01*
X503589Y265100D01*
X503709Y265074D01*
X503835Y265055D01*
X503969Y265044D01*
X504110Y265040D01*
Y263859D01*
X503969Y263855D01*
X503835Y263844D01*
X503709Y263825D01*
X503589Y263799D01*
X503477Y263766D01*
X503372Y263724D01*
X503274Y263676D01*
X503183Y263620D01*
X503099Y263556D01*
X503022Y263485D01*
Y265414D01*
X503099Y265343D01*
D02*
G37*
G36*
X513234Y263072D02*
X513129Y263068D01*
X513025Y263053D01*
X512921Y263029D01*
X512817Y262993D01*
X512713Y262948D01*
X512610Y262893D01*
X512507Y262827D01*
X512404Y262750D01*
X512302Y262664D01*
X512200Y262567D01*
X511365Y263402D01*
X511462Y263504D01*
X511548Y263607D01*
X511624Y263709D01*
X511690Y263812D01*
X511746Y263915D01*
X511791Y264019D01*
X511826Y264123D01*
X511851Y264227D01*
X511865Y264331D01*
X511869Y264436D01*
X513234Y263072D01*
D02*
G37*
G36*
X499272Y264331D02*
X499287Y264227D01*
X499311Y264123D01*
X499346Y264019D01*
X499392Y263915D01*
X499447Y263812D01*
X499513Y263709D01*
X499589Y263607D01*
X499676Y263504D01*
X499773Y263402D01*
X498938Y262567D01*
X498836Y262664D01*
X498733Y262750D01*
X498631Y262827D01*
X498527Y262893D01*
X498424Y262948D01*
X498321Y262993D01*
X498217Y263029D01*
X498113Y263053D01*
X498009Y263068D01*
X497904Y263072D01*
X499268Y264436D01*
X499272Y264331D01*
D02*
G37*
G36*
X366675Y254412D02*
X366594Y254478D01*
X366506Y254536D01*
X366412Y254588D01*
X366311Y254632D01*
X366204Y254670D01*
X366090Y254701D01*
X365969Y254725D01*
X365842Y254742D01*
X365708Y254753D01*
X365568Y254756D01*
X365475Y255937D01*
X365616Y255941D01*
X365750Y255953D01*
X365875Y255973D01*
X365993Y256001D01*
X366103Y256037D01*
X366206Y256081D01*
X366301Y256133D01*
X366388Y256193D01*
X366467Y256261D01*
X366539Y256336D01*
X366675Y254412D01*
D02*
G37*
G36*
X356716Y256216D02*
X356803Y256157D01*
X356897Y256106D01*
X356998Y256061D01*
X357106Y256023D01*
X357220Y255992D01*
X357340Y255968D01*
X357468Y255951D01*
X357601Y255941D01*
X357742Y255937D01*
X357834Y254756D01*
X357693Y254752D01*
X357560Y254740D01*
X357435Y254720D01*
X357317Y254692D01*
X357206Y254656D01*
X357104Y254612D01*
X357009Y254560D01*
X356922Y254500D01*
X356842Y254433D01*
X356771Y254357D01*
X356635Y256281D01*
X356716Y256216D01*
D02*
G37*
G36*
X366604Y250135D02*
X366528Y250206D01*
X366444Y250270D01*
X366353Y250326D01*
X366254Y250375D01*
X366149Y250416D01*
X366037Y250450D01*
X365918Y250476D01*
X365791Y250495D01*
X365657Y250506D01*
X365517Y250509D01*
Y251691D01*
X365657Y251694D01*
X365791Y251706D01*
X365918Y251724D01*
X366037Y251750D01*
X366149Y251784D01*
X366254Y251825D01*
X366353Y251874D01*
X366444Y251930D01*
X366528Y251993D01*
X366604Y252065D01*
Y250135D01*
D02*
G37*
G36*
X356782Y251993D02*
X356866Y251930D01*
X356957Y251874D01*
X357055Y251825D01*
X357160Y251784D01*
X357273Y251750D01*
X357392Y251724D01*
X357519Y251706D01*
X357652Y251694D01*
X357793Y251691D01*
Y250509D01*
X357652Y250506D01*
X357519Y250495D01*
X357392Y250476D01*
X357273Y250450D01*
X357160Y250416D01*
X357055Y250375D01*
X356957Y250326D01*
X356866Y250270D01*
X356782Y250206D01*
X356705Y250135D01*
Y252065D01*
X356782Y251993D01*
D02*
G37*
G36*
X366604Y245885D02*
X366528Y245956D01*
X366444Y246020D01*
X366353Y246076D01*
X366254Y246124D01*
X366149Y246165D01*
X366037Y246199D01*
X365918Y246225D01*
X365791Y246244D01*
X365657Y246255D01*
X365517Y246259D01*
Y247440D01*
X365657Y247444D01*
X365791Y247455D01*
X365918Y247474D01*
X366037Y247500D01*
X366149Y247534D01*
X366254Y247575D01*
X366353Y247623D01*
X366444Y247679D01*
X366528Y247743D01*
X366604Y247814D01*
Y245885D01*
D02*
G37*
G36*
X356782Y247743D02*
X356866Y247679D01*
X356957Y247623D01*
X357055Y247575D01*
X357160Y247534D01*
X357273Y247500D01*
X357392Y247474D01*
X357519Y247455D01*
X357652Y247444D01*
X357793Y247440D01*
Y246259D01*
X357652Y246255D01*
X357519Y246244D01*
X357392Y246225D01*
X357273Y246199D01*
X357160Y246165D01*
X357055Y246124D01*
X356957Y246076D01*
X356866Y246020D01*
X356782Y245956D01*
X356705Y245885D01*
Y247814D01*
X356782Y247743D01*
D02*
G37*
G36*
X268369Y242883D02*
X268379Y242807D01*
X268401Y242726D01*
X268435Y242641D01*
X268480Y242553D01*
X268537Y242461D01*
X268606Y242365D01*
X268686Y242265D01*
X268882Y242053D01*
X268047Y241217D01*
X267939Y241321D01*
X267735Y241494D01*
X267639Y241563D01*
X267547Y241620D01*
X267459Y241666D01*
X267374Y241699D01*
X267293Y241721D01*
X267217Y241731D01*
X267144Y241730D01*
X268370Y242956D01*
X268369Y242883D01*
D02*
G37*
G36*
X268947Y239092D02*
X268842Y238984D01*
X268592Y238687D01*
X268529Y238596D01*
X268477Y238510D01*
X268436Y238428D01*
X268405Y238350D01*
X268385Y238277D01*
X268375Y238208D01*
X267357Y239631D01*
X267431Y239617D01*
X267508Y239616D01*
X267588Y239628D01*
X267671Y239651D01*
X267757Y239687D01*
X267846Y239735D01*
X267938Y239795D01*
X268034Y239867D01*
X268132Y239952D01*
X268233Y240049D01*
X268947Y239092D01*
D02*
G37*
G36*
X325373Y207579D02*
X325441Y207505D01*
X325519Y207440D01*
X325605Y207383D01*
X325701Y207335D01*
X325806Y207295D01*
X325920Y207265D01*
X326043Y207243D01*
X326176Y207230D01*
X326317Y207225D01*
X326021Y206044D01*
X325880Y206042D01*
X325617Y206021D01*
X325495Y206002D01*
X325269Y205949D01*
X325166Y205915D01*
X325068Y205875D01*
X324977Y205830D01*
X324893Y205780D01*
X325315Y207662D01*
X325373Y207579D01*
D02*
G37*
G36*
X371832Y176008D02*
X371772Y175921D01*
X371719Y175828D01*
X371673Y175727D01*
X371635Y175621D01*
X371603Y175507D01*
X371578Y175387D01*
X371561Y175260D01*
X371550Y175126D01*
X371547Y174985D01*
X370365Y174917D01*
X370361Y175058D01*
X370350Y175191D01*
X370330Y175317D01*
X370302Y175435D01*
X370267Y175546D01*
X370224Y175649D01*
X370173Y175745D01*
X370114Y175833D01*
X370047Y175914D01*
X369972Y175988D01*
X371899Y176088D01*
X371832Y176008D01*
D02*
G37*
G36*
X367216Y173487D02*
X367139Y173558D01*
X367055Y173622D01*
X366964Y173678D01*
X366866Y173727D01*
X366761Y173768D01*
X366648Y173802D01*
X366529Y173828D01*
X366403Y173846D01*
X366269Y173858D01*
X366128Y173861D01*
Y175042D01*
X366269Y175046D01*
X366403Y175057D01*
X366529Y175076D01*
X366648Y175102D01*
X366761Y175136D01*
X366866Y175177D01*
X366964Y175226D01*
X367055Y175282D01*
X367139Y175345D01*
X367216Y175417D01*
Y173487D01*
D02*
G37*
G36*
X397084Y152673D02*
X397020Y152589D01*
X396964Y152498D01*
X396915Y152400D01*
X396874Y152295D01*
X396841Y152182D01*
X396814Y152063D01*
X396796Y151936D01*
X396784Y151803D01*
X396781Y151662D01*
X395600D01*
X395596Y151803D01*
X395585Y151936D01*
X395566Y152063D01*
X395540Y152182D01*
X395506Y152295D01*
X395465Y152400D01*
X395416Y152498D01*
X395360Y152589D01*
X395297Y152673D01*
X395226Y152750D01*
X397155D01*
X397084Y152673D01*
D02*
G37*
G36*
X396784Y147481D02*
X396796Y147347D01*
X396814Y147221D01*
X396841Y147101D01*
X396874Y146989D01*
X396915Y146884D01*
X396964Y146785D01*
X397020Y146695D01*
X397084Y146610D01*
X397155Y146534D01*
X395226D01*
X395297Y146610D01*
X395360Y146695D01*
X395416Y146785D01*
X395465Y146884D01*
X395506Y146989D01*
X395540Y147101D01*
X395566Y147221D01*
X395585Y147347D01*
X395596Y147481D01*
X395600Y147621D01*
X396781D01*
X396784Y147481D01*
D02*
G37*
G36*
X411684Y139055D02*
X411607Y139126D01*
X411523Y139189D01*
X411432Y139245D01*
X411334Y139294D01*
X411229Y139335D01*
X411117Y139369D01*
X410997Y139395D01*
X410871Y139414D01*
X410737Y139425D01*
X410596Y139429D01*
Y140610D01*
X410737Y140614D01*
X410871Y140625D01*
X410997Y140644D01*
X411117Y140670D01*
X411229Y140703D01*
X411334Y140745D01*
X411432Y140793D01*
X411523Y140849D01*
X411607Y140913D01*
X411684Y140984D01*
Y139055D01*
D02*
G37*
G36*
X411993Y136135D02*
X412095Y136049D01*
X412198Y135972D01*
X412301Y135907D01*
X412404Y135851D01*
X412507Y135806D01*
X412611Y135771D01*
X412715Y135746D01*
X412819Y135732D01*
X412924Y135728D01*
X411560Y134363D01*
X411556Y134468D01*
X411542Y134572D01*
X411517Y134676D01*
X411482Y134780D01*
X411436Y134884D01*
X411381Y134987D01*
X411315Y135090D01*
X411239Y135192D01*
X411152Y135295D01*
X411055Y135397D01*
X411891Y136232D01*
X411993Y136135D01*
D02*
G37*
G36*
X336675Y123867D02*
X336678Y123726D01*
X336699Y123463D01*
X336717Y123341D01*
X336770Y123116D01*
X336805Y123012D01*
X336844Y122915D01*
X336890Y122824D01*
X336940Y122739D01*
X335057Y123159D01*
X335140Y123218D01*
X335214Y123286D01*
X335280Y123364D01*
X335336Y123450D01*
X335385Y123546D01*
X335424Y123651D01*
X335454Y123765D01*
X335476Y123888D01*
X335489Y124021D01*
X335494Y124163D01*
X336675Y123867D01*
D02*
G37*
G36*
X381043Y121289D02*
X381087Y121057D01*
X381161Y120818D01*
X381265Y120573D01*
X381398Y120321D01*
X381560Y120062D01*
X381752Y119796D01*
X381973Y119524D01*
X382505Y118958D01*
X378371D01*
X378651Y119244D01*
X379124Y119796D01*
X379316Y120062D01*
X379478Y120321D01*
X379611Y120573D01*
X379714Y120818D01*
X379788Y121057D01*
X379833Y121289D01*
X379847Y121514D01*
X381028D01*
X381043Y121289D01*
D02*
G37*
G36*
X339426Y119411D02*
X339331Y119314D01*
X339113Y119063D01*
X339062Y118992D01*
X339023Y118928D01*
X338994Y118871D01*
X338977Y118821D01*
X338970Y118777D01*
X338975Y118739D01*
X337872Y119710D01*
X337908Y119711D01*
X337951Y119723D01*
X338003Y119748D01*
X338063Y119784D01*
X338130Y119831D01*
X338290Y119962D01*
X338483Y120140D01*
X338591Y120246D01*
X339426Y119411D01*
D02*
G37*
G36*
X272798Y-13876D02*
X272791Y-13901D01*
X272785Y-13939D01*
X272779Y-13991D01*
X272768Y-14228D01*
X272764Y-14585D01*
X271583D01*
X271583Y-14460D01*
X271551Y-13938D01*
X271542Y-13914D01*
X271533Y-13903D01*
X272806Y-13864D01*
X272798Y-13876D01*
D02*
G37*
G36*
X273095Y-19921D02*
X273101Y-20025D01*
X273118Y-20129D01*
X273146Y-20232D01*
X273186Y-20336D01*
X273237Y-20439D01*
X273299Y-20542D01*
X273373Y-20645D01*
X273459Y-20748D01*
X273556Y-20850D01*
X272625Y-21590D01*
X272523Y-21493D01*
X272320Y-21327D01*
X272218Y-21257D01*
X272116Y-21197D01*
X272014Y-21146D01*
X271912Y-21104D01*
X271809Y-21072D01*
X271707Y-21048D01*
X271605Y-21034D01*
X273102Y-19817D01*
X273095Y-19921D01*
D02*
G37*
G36*
X275037Y-22327D02*
X275240Y-22493D01*
X275342Y-22563D01*
X275444Y-22623D01*
X275546Y-22674D01*
X275648Y-22715D01*
X275751Y-22748D01*
X275853Y-22771D01*
X275956Y-22786D01*
X274459Y-24002D01*
X274465Y-23899D01*
X274459Y-23795D01*
X274443Y-23691D01*
X274414Y-23588D01*
X274375Y-23484D01*
X274323Y-23381D01*
X274261Y-23278D01*
X274187Y-23175D01*
X274101Y-23072D01*
X274004Y-22969D01*
X274935Y-22230D01*
X275037Y-22327D01*
D02*
G37*
G36*
X279277Y-24368D02*
X279289Y-24501D01*
X279307Y-24628D01*
X279334Y-24747D01*
X279367Y-24859D01*
X279408Y-24965D01*
X279457Y-25063D01*
X279513Y-25154D01*
X279577Y-25238D01*
X279648Y-25315D01*
X277719D01*
X277790Y-25238D01*
X277853Y-25154D01*
X277909Y-25063D01*
X277958Y-24965D01*
X277999Y-24859D01*
X278033Y-24747D01*
X278059Y-24628D01*
X278078Y-24501D01*
X278089Y-24368D01*
X278093Y-24227D01*
X279274D01*
X279277Y-24368D01*
D02*
G37*
D18*
X275769Y-23782D02*
X275869D01*
X271732Y-19862D02*
X275828Y-23958D01*
X271732Y-19862D02*
Y-19662D01*
X275828Y-24158D02*
Y-23958D01*
X272174Y-14585D02*
Y-12686D01*
Y-14585D02*
X278683Y-21095D01*
Y-26299D02*
Y-21095D01*
X355721Y246850D02*
X367589D01*
X355721Y251100D02*
X367589D01*
X355818Y255347D02*
X367492D01*
X367589Y255444D01*
X355721Y255250D02*
X355818Y255347D01*
X339694Y115594D02*
X341878Y117778D01*
X336206Y115594D02*
X339694D01*
X333028Y118772D02*
X336206Y115594D01*
X337653Y118473D02*
X339009Y119829D01*
X337653Y118350D02*
Y118473D01*
X339009Y119829D02*
Y131336D01*
X348183Y140510D01*
X333028Y130924D02*
X348700Y146596D01*
X341878Y131422D02*
X348998Y138542D01*
X333028Y118772D02*
Y130924D01*
X341878Y117778D02*
Y131422D01*
X268500Y241600D02*
X297400D01*
X344339Y180145D02*
Y194661D01*
X297400Y241600D02*
X344339Y194661D01*
X340402Y178514D02*
Y192713D01*
X324445Y206635D02*
X326480D01*
X340402Y192713D01*
X324143Y206936D02*
X324445Y206635D01*
X497890Y264450D02*
X500940Y261400D01*
X510198D02*
X513247Y264450D01*
X500940Y261400D02*
X510198D01*
X396790Y145441D02*
Y145550D01*
X396190D02*
Y153734D01*
X336084Y131196D02*
X347588Y142700D01*
X401143D02*
X403824Y140019D01*
X347588Y142700D02*
X401143D01*
X370956Y173310D02*
Y176949D01*
X370884Y177020D02*
X370956Y176949D01*
X350100Y171600D02*
X369246D01*
X370956Y173310D01*
X342371Y179329D02*
X350100Y171600D01*
X403824Y140019D02*
X412668D01*
X401552Y137164D02*
X402439Y138051D01*
X398436Y137164D02*
X401552D01*
X348183Y140510D02*
X395090D01*
X398436Y137164D01*
X268651Y239632D02*
X296267D01*
X267320Y238300D02*
X268651Y239632D01*
X267000Y243100D02*
X268500Y241600D01*
X267000Y238300D02*
X267320D01*
X296267Y239632D02*
X342371Y193528D01*
X340402Y178514D02*
X348700Y170216D01*
Y146596D02*
Y170216D01*
X342371Y179329D02*
Y193528D01*
X344339Y180145D02*
X349684Y174800D01*
X349800D01*
X350148Y174452D02*
X368200D01*
X349800Y174800D02*
X350148Y174452D01*
X348998Y138542D02*
X373900D01*
X380438Y132004D01*
Y116850D02*
Y132004D01*
X502038Y264450D02*
X508494D01*
X409237Y138051D02*
X412938Y134350D01*
X402439Y138051D02*
X409237D01*
X336084Y122289D02*
Y131196D01*
D49*
X561238Y311950D02*
D03*
D131*
X-45082Y218799D02*
D03*
D132*
X4528D02*
D03*
D133*
X-34890Y79736D02*
D03*
X-5362Y72650D02*
D03*
D138*
X8138Y170650D02*
X88957D01*
X6138D02*
X8138D01*
X-31862Y181650D02*
Y184150D01*
X52902Y193650D02*
X85138Y225886D01*
X-22362Y193650D02*
X52902D01*
X-31862Y184150D02*
X-22362Y193650D01*
X88957Y170650D02*
X144193Y225886D01*
Y316043D02*
Y383366D01*
X4528Y218799D02*
X46949D01*
X144193Y316043D01*
X-27563Y236319D02*
X36024D01*
X-45082Y218799D02*
X-27563Y236319D01*
X36024D02*
X85138Y285433D01*
Y383366D01*
D146*
X488838Y366983D02*
D03*
X483838D02*
D03*
X478838D02*
D03*
D147*
X543401Y111927D02*
D03*
X547338Y109368D02*
D03*
X543401Y106809D02*
D03*
X547338Y104250D02*
D03*
X543401Y101690D02*
D03*
D148*
X542968Y120883D02*
D03*
Y92734D02*
D03*
D149*
X561238Y261950D02*
D03*
Y271950D02*
D03*
Y281950D02*
D03*
Y291950D02*
D03*
Y301950D02*
D03*
X410438Y116850D02*
D03*
X400438D02*
D03*
X390438D02*
D03*
X380438D02*
D03*
X370438D02*
D03*
D150*
X436138Y222950D02*
D03*
X446138D02*
D03*
Y202950D02*
D03*
Y212949D02*
D03*
Y232949D02*
D03*
X436138Y212949D02*
D03*
Y202950D02*
D03*
X289525Y350718D02*
D03*
X309525D02*
D03*
X389540D02*
D03*
X369540D02*
D03*
X429550D02*
D03*
X409550D02*
D03*
X349530D02*
D03*
X329530D02*
D03*
X229525Y350719D02*
D03*
X209525D02*
D03*
X249525Y350718D02*
D03*
X269525D02*
D03*
X-2362Y267421D02*
D03*
X-22362D02*
D03*
X-43307Y253425D02*
D03*
Y267224D02*
D03*
X19095Y253425D02*
D03*
Y267224D02*
D03*
D151*
X436138Y232949D02*
D03*
D152*
X29119Y-10472D02*
D03*
Y22047D02*
D03*
X225182Y140945D02*
D03*
Y117638D02*
D03*
Y94331D02*
D03*
X328319Y52342D02*
D03*
D153*
X318319Y42342D02*
D03*
X338319D02*
D03*
X318319Y62342D02*
D03*
X338319D02*
D03*
D154*
X519685Y0D02*
D03*
X0D02*
D03*
Y358268D02*
D03*
X519685D02*
D03*
D155*
X144193Y383366D02*
D03*
Y225886D02*
D03*
X85138Y383366D02*
D03*
Y225886D02*
D03*
D156*
X420438Y116850D02*
D03*
D157*
X275828Y-24158D02*
D03*
X367589Y246850D02*
D03*
X355721D02*
D03*
X350954Y210250D02*
D03*
X396190Y145550D02*
D03*
X333563Y180512D02*
D03*
Y168701D02*
D03*
Y156890D02*
D03*
Y145079D02*
D03*
X321752Y180512D02*
D03*
Y168701D02*
D03*
Y156890D02*
D03*
Y145079D02*
D03*
X309941Y180512D02*
D03*
Y168701D02*
D03*
Y156890D02*
D03*
Y145079D02*
D03*
X554036Y306496D02*
D03*
Y251378D02*
D03*
Y223819D02*
D03*
Y58465D02*
D03*
X526477Y223819D02*
D03*
Y168701D02*
D03*
Y141142D02*
D03*
Y86024D02*
D03*
Y58465D02*
D03*
Y30906D02*
D03*
Y-24213D02*
D03*
X498918Y361614D02*
D03*
Y334055D02*
D03*
Y278937D02*
D03*
Y251378D02*
D03*
Y223819D02*
D03*
Y168701D02*
D03*
Y141142D02*
D03*
Y86024D02*
D03*
Y58465D02*
D03*
Y30906D02*
D03*
Y3347D02*
D03*
Y-24213D02*
D03*
X471358Y361614D02*
D03*
Y334055D02*
D03*
Y223819D02*
D03*
Y196260D02*
D03*
Y141142D02*
D03*
Y113583D02*
D03*
Y86024D02*
D03*
Y58465D02*
D03*
Y30906D02*
D03*
Y3347D02*
D03*
Y-24213D02*
D03*
X443799Y361614D02*
D03*
Y334055D02*
D03*
Y306496D02*
D03*
Y278937D02*
D03*
Y196260D02*
D03*
Y141142D02*
D03*
Y113583D02*
D03*
Y58465D02*
D03*
Y30906D02*
D03*
Y3347D02*
D03*
X416240Y361614D02*
D03*
Y196260D02*
D03*
Y58465D02*
D03*
Y30906D02*
D03*
Y3347D02*
D03*
X388681Y223819D02*
D03*
Y196260D02*
D03*
Y58465D02*
D03*
Y30906D02*
D03*
Y3347D02*
D03*
X361122Y334055D02*
D03*
Y196260D02*
D03*
Y-24213D02*
D03*
X333563Y278937D02*
D03*
Y86024D02*
D03*
Y3347D02*
D03*
X306004Y361614D02*
D03*
Y334055D02*
D03*
Y306496D02*
D03*
Y278937D02*
D03*
Y223819D02*
D03*
Y86024D02*
D03*
Y30906D02*
D03*
Y3347D02*
D03*
Y-24213D02*
D03*
X278445Y361614D02*
D03*
Y334055D02*
D03*
Y306496D02*
D03*
Y278937D02*
D03*
Y251378D02*
D03*
Y196260D02*
D03*
Y168701D02*
D03*
Y141142D02*
D03*
Y113583D02*
D03*
Y86024D02*
D03*
Y58465D02*
D03*
Y30906D02*
D03*
X250886Y361614D02*
D03*
Y306496D02*
D03*
Y278937D02*
D03*
Y251378D02*
D03*
Y196260D02*
D03*
Y168701D02*
D03*
Y30906D02*
D03*
Y3347D02*
D03*
X223327Y361614D02*
D03*
Y334055D02*
D03*
Y278937D02*
D03*
Y251378D02*
D03*
Y196260D02*
D03*
Y168701D02*
D03*
Y86024D02*
D03*
Y30906D02*
D03*
Y3347D02*
D03*
X195768Y141142D02*
D03*
Y113583D02*
D03*
Y86024D02*
D03*
Y58465D02*
D03*
Y30906D02*
D03*
Y3347D02*
D03*
Y-24213D02*
D03*
X168209Y113583D02*
D03*
Y86024D02*
D03*
Y58465D02*
D03*
Y3347D02*
D03*
Y-24213D02*
D03*
X140650Y168701D02*
D03*
Y113583D02*
D03*
Y86024D02*
D03*
Y58465D02*
D03*
Y3347D02*
D03*
Y-24213D02*
D03*
X113091Y168701D02*
D03*
Y58465D02*
D03*
X85532Y141142D02*
D03*
Y86024D02*
D03*
Y30906D02*
D03*
Y-24213D02*
D03*
X526800Y264800D02*
D03*
X531200Y268600D02*
D03*
X475400Y328000D02*
D03*
X471900Y263500D02*
D03*
X489227D02*
D03*
X480563D02*
D03*
X497890Y264450D02*
D03*
X232100Y304900D02*
D03*
X322400Y48400D02*
D03*
X313700D02*
D03*
X322200Y56200D02*
D03*
X314000D02*
D03*
X301758Y57516D02*
D03*
X300400Y47800D02*
D03*
X287500Y47500D02*
D03*
X284100Y45400D02*
D03*
X280600D02*
D03*
X276800D02*
D03*
X284500Y55800D02*
D03*
X281100Y53600D02*
D03*
X277000D02*
D03*
X408600Y167300D02*
D03*
X215281Y307317D02*
D03*
X212700Y307300D02*
D03*
X220500Y279900D02*
D03*
X247300Y329700D02*
D03*
X244161Y326673D02*
D03*
X241600Y323700D02*
D03*
X238797Y321309D02*
D03*
X126891Y-24855D02*
D03*
X137391D02*
D03*
Y-21611D02*
D03*
X126891D02*
D03*
X126829Y83993D02*
D03*
X137329D02*
D03*
Y80750D02*
D03*
X126829D02*
D03*
X110951Y82992D02*
D03*
X111177Y-22607D02*
D03*
X132926Y2196D02*
D03*
X132469Y54643D02*
D03*
X134400Y159900D02*
D03*
X119527Y-28100D02*
D03*
X119466Y-24439D02*
D03*
X119240Y81160D02*
D03*
X119300Y77500D02*
D03*
X289100Y221900D02*
D03*
X289231Y227494D02*
D03*
X289300Y216500D02*
D03*
X235536Y321309D02*
D03*
X322168Y282924D02*
D03*
X322135Y273881D02*
D03*
X353530Y278418D02*
D03*
X362573Y278386D02*
D03*
X510259Y296037D02*
D03*
X499226Y285036D02*
D03*
X488224Y296070D02*
D03*
X499258Y307071D02*
D03*
X488224Y302566D02*
D03*
X492762Y307071D02*
D03*
X505754D02*
D03*
X510259Y302533D02*
D03*
Y289541D02*
D03*
X505722Y285036D02*
D03*
X492730D02*
D03*
X488224Y289574D02*
D03*
X468197Y141384D02*
D03*
X459154Y141417D02*
D03*
X474125Y134151D02*
D03*
X474093Y175895D02*
D03*
X332249Y-24241D02*
D03*
X332216Y23409D02*
D03*
X283616Y-6817D02*
D03*
Y-16817D02*
D03*
X204805Y23612D02*
D03*
X222926Y-32D02*
D03*
X248910D02*
D03*
X257571D02*
D03*
X266616Y27943D02*
D03*
Y40935D02*
D03*
Y45266D02*
D03*
Y53927D02*
D03*
X248878Y60216D02*
D03*
X244547D02*
D03*
X240200Y60200D02*
D03*
X213490Y72193D02*
D03*
X233655Y79245D02*
D03*
X264355Y79145D02*
D03*
X287211Y82573D02*
D03*
X279741Y80655D02*
D03*
X275043D02*
D03*
X270300Y80700D02*
D03*
X391600Y96000D02*
D03*
X106319Y7449D02*
D03*
Y10785D02*
D03*
Y14122D02*
D03*
X106024Y119721D02*
D03*
Y116385D02*
D03*
Y113048D02*
D03*
X116683Y146699D02*
D03*
X119783D02*
D03*
X122883D02*
D03*
X125983D02*
D03*
Y157899D02*
D03*
X122883D02*
D03*
X119783D02*
D03*
X116683D02*
D03*
X321739Y97378D02*
D03*
X313458D02*
D03*
X305100Y97300D02*
D03*
X451163Y85341D02*
D03*
X442895D02*
D03*
X434627D02*
D03*
X426300Y85400D02*
D03*
X378400Y182400D02*
D03*
X363300Y130400D02*
D03*
X204300Y250900D02*
D03*
X248400Y228000D02*
D03*
X204400Y216000D02*
D03*
X162600Y172630D02*
D03*
X172200Y178640D02*
D03*
Y185200D02*
D03*
X209400Y161700D02*
D03*
X202100D02*
D03*
X205700Y188800D02*
D03*
X215055Y180689D02*
D03*
Y176963D02*
D03*
Y173237D02*
D03*
Y169511D02*
D03*
X210945D02*
D03*
Y173237D02*
D03*
Y176963D02*
D03*
Y180689D02*
D03*
X262992Y120391D02*
D03*
Y116665D02*
D03*
Y112939D02*
D03*
Y109213D02*
D03*
X247883D02*
D03*
Y112939D02*
D03*
Y116665D02*
D03*
Y120391D02*
D03*
X96365Y146699D02*
D03*
X92639D02*
D03*
X88913D02*
D03*
X85187D02*
D03*
X94282Y56209D02*
D03*
X90556D02*
D03*
X86830D02*
D03*
X83104D02*
D03*
Y41100D02*
D03*
X86830D02*
D03*
X90556D02*
D03*
X94282D02*
D03*
X64195Y22601D02*
D03*
Y19264D02*
D03*
Y15928D02*
D03*
Y12592D02*
D03*
Y9255D02*
D03*
Y5919D02*
D03*
Y2582D02*
D03*
Y-754D02*
D03*
Y-4090D02*
D03*
Y-7427D02*
D03*
Y-10763D02*
D03*
Y-14099D02*
D03*
X63900Y91500D02*
D03*
Y94836D02*
D03*
Y98173D02*
D03*
Y101509D02*
D03*
Y104845D02*
D03*
Y108182D02*
D03*
Y111518D02*
D03*
Y114855D02*
D03*
Y118191D02*
D03*
Y121527D02*
D03*
Y124864D02*
D03*
Y128200D02*
D03*
X114600Y52300D02*
D03*
X117700D02*
D03*
X120800D02*
D03*
X123900D02*
D03*
X270700Y63700D02*
D03*
X276900D02*
D03*
X280000D02*
D03*
X270700Y66600D02*
D03*
X273800D02*
D03*
X276900D02*
D03*
X280000D02*
D03*
X123900Y41100D02*
D03*
X120800D02*
D03*
X117700D02*
D03*
X114600D02*
D03*
X204300Y228300D02*
D03*
X269100Y193600D02*
D03*
X269600Y182800D02*
D03*
X287000Y190100D02*
D03*
X515826Y337712D02*
D03*
X492000Y351600D02*
D03*
X267000Y248905D02*
D03*
Y232300D02*
D03*
Y238300D02*
D03*
Y243100D02*
D03*
X370884Y177020D02*
D03*
X368200Y174452D02*
D03*
X324143Y206936D02*
D03*
X308900Y221400D02*
D03*
X312300Y213687D02*
D03*
X513247Y264450D02*
D03*
X367589Y255444D02*
D03*
X355721Y251100D02*
D03*
Y255250D02*
D03*
X502038Y264450D02*
D03*
X508894D02*
D03*
X367589Y251100D02*
D03*
X527138Y340750D02*
D03*
X532038Y333050D02*
D03*
X535300Y196098D02*
D03*
X513170Y202418D02*
D03*
Y237851D02*
D03*
Y241788D02*
D03*
X561306Y237913D02*
D03*
X497638Y219850D02*
D03*
X497838Y186350D02*
D03*
X490238Y191950D02*
D03*
X490238Y205849D02*
D03*
X335784Y121989D02*
D03*
X337653Y118350D02*
D03*
X291538Y193950D02*
D03*
Y188550D02*
D03*
X373438Y191350D02*
D03*
Y196850D02*
D03*
X357038Y124950D02*
D03*
X286838Y145150D02*
D03*
X289838Y136650D02*
D03*
X295338D02*
D03*
X332038Y210950D02*
D03*
X308367Y235528D02*
D03*
X338243Y235528D02*
D03*
X353650Y218336D02*
D03*
X329538Y218449D02*
D03*
X328343Y231450D02*
D03*
X354643D02*
D03*
X341493D02*
D03*
X424338Y177547D02*
D03*
Y141327D02*
D03*
Y148413D02*
D03*
Y158650D02*
D03*
X412938Y134350D02*
D03*
X412668Y140019D02*
D03*
X396190Y153734D02*
D03*
X400238Y145550D02*
D03*
X494580Y120169D02*
D03*
X494638Y110750D02*
D03*
X411738Y178749D02*
D03*
X400026Y134290D02*
D03*
Y139920D02*
D03*
Y159737D02*
D03*
Y153734D02*
D03*
X380531Y274649D02*
D03*
X387031D02*
D03*
X419331D02*
D03*
X425831D02*
D03*
X387031Y277893D02*
D03*
X425831D02*
D03*
X380531D02*
D03*
X419331D02*
D03*
X321531Y288219D02*
D03*
X330531D02*
D03*
X326031D02*
D03*
Y295386D02*
D03*
X321531D02*
D03*
X330531D02*
D03*
X419331Y309886D02*
D03*
X425831D02*
D03*
X387031D02*
D03*
X380531D02*
D03*
X425831Y313129D02*
D03*
X419331D02*
D03*
X380531D02*
D03*
X387031D02*
D03*
X408338Y89450D02*
D03*
X402738Y96050D02*
D03*
X280738Y21650D02*
D03*
X252732Y73438D02*
D03*
X237832Y74938D02*
D03*
X309333Y65519D02*
D03*
X297118Y67238D02*
D03*
X291232D02*
D03*
X278683Y-26299D02*
D03*
X271732Y-19662D02*
D03*
X272132Y-12662D02*
D03*
X267095Y-23652D02*
D03*
X243666Y-23362D02*
D03*
X232277Y-23962D02*
D03*
X220889Y-23712D02*
D03*
X8138Y170650D02*
D03*
X-31862Y181650D02*
D03*
X5638Y170650D02*
D03*
X-31862Y184150D02*
D03*
M02*
