G04*
G04 #@! TF.GenerationSoftware,Altium Limited,Altium Designer,20.2.7 (254)*
G04*
G04 Layer_Color=8388736*
%FSLAX25Y25*%
%MOIN*%
G70*
G04*
G04 #@! TF.SameCoordinates,A70D1E75-91AA-4FD3-A19C-EF1787EBCA39*
G04*
G04*
G04 #@! TF.FilePolarity,Negative*
G04*
G01*
G75*
%ADD21R,0.04528X0.05512*%
%ADD22R,0.04528X0.04528*%
%ADD23R,0.04528X0.06890*%
%ADD24R,0.02953X0.04528*%
%ADD25R,0.04528X0.08858*%
%ADD26R,0.03937X0.03937*%
%ADD27R,0.05512X0.04528*%
%ADD28R,0.06890X0.04528*%
%ADD29C,0.08465*%
%ADD30P,0.10014X8X112.5*%
%ADD31C,0.09252*%
%ADD32C,0.07677*%
G36*
X144882Y140551D02*
Y128248D01*
X140157D01*
Y140551D01*
X144882D01*
D02*
G37*
G36*
X214042D02*
Y128248D01*
X209318D01*
Y140551D01*
X214042D01*
D02*
G37*
G36*
X283202D02*
Y128248D01*
X278478D01*
Y140551D01*
X283202D01*
D02*
G37*
G36*
X352362D02*
Y128248D01*
X347638D01*
Y140551D01*
X352362D01*
D02*
G37*
D21*
X143307Y166142D02*
D03*
X151181D02*
D03*
X212205D02*
D03*
X220079D02*
D03*
X281102D02*
D03*
X288976D02*
D03*
X350000D02*
D03*
X357874D02*
D03*
X87795Y157087D02*
D03*
X95669D02*
D03*
X87795Y148031D02*
D03*
X95669D02*
D03*
X5906Y119685D02*
D03*
X13780D02*
D03*
D22*
X142520Y138189D02*
D03*
Y131102D02*
D03*
X211680Y138189D02*
D03*
Y131102D02*
D03*
X280840Y138189D02*
D03*
Y131102D02*
D03*
X350000Y138189D02*
D03*
Y131102D02*
D03*
D23*
X87795Y166929D02*
D03*
X99606D02*
D03*
X83465Y120866D02*
D03*
X95276D02*
D03*
D24*
X95079Y129921D02*
D03*
X87598D02*
D03*
Y139370D02*
D03*
X91339D02*
D03*
X95079D02*
D03*
D25*
X40905Y166339D02*
D03*
X70906D02*
D03*
Y126575D02*
D03*
X50906D02*
D03*
X40905D02*
D03*
D26*
X5118Y136615D02*
D03*
Y131103D02*
D03*
D27*
X13386Y136221D02*
D03*
Y128347D02*
D03*
D28*
X23228Y124409D02*
D03*
Y136221D02*
D03*
D29*
X365354Y127953D02*
D03*
X224508Y128189D02*
D03*
X294094Y127559D02*
D03*
X155561Y128032D02*
D03*
Y148189D02*
D03*
D30*
X330709Y21654D02*
D03*
X199311Y100394D02*
D03*
X262549Y21654D02*
D03*
X62992Y100394D02*
D03*
X131152D02*
D03*
D31*
X330709Y41339D02*
D03*
Y61024D02*
D03*
Y80709D02*
D03*
Y100394D02*
D03*
X199311Y80709D02*
D03*
Y61024D02*
D03*
Y41339D02*
D03*
Y21654D02*
D03*
X262549Y100394D02*
D03*
Y80709D02*
D03*
Y61024D02*
D03*
Y41339D02*
D03*
X62992Y21654D02*
D03*
Y41339D02*
D03*
Y61024D02*
D03*
Y80709D02*
D03*
X131152Y21654D02*
D03*
Y41339D02*
D03*
Y61024D02*
D03*
Y80709D02*
D03*
D32*
X122884Y148189D02*
D03*
Y138189D02*
D03*
Y128189D02*
D03*
X192159Y148189D02*
D03*
Y138189D02*
D03*
Y128189D02*
D03*
X261434Y148189D02*
D03*
Y138189D02*
D03*
Y128189D02*
D03*
X330709Y148189D02*
D03*
Y138189D02*
D03*
Y128189D02*
D03*
M02*
