M48
;Layer_Color=9474304
;FILE_FORMAT=2:5
INCH,LZ
;TYPE=PLATED
T1F00S00C0.01181
T2F00S00C0.01575
T3F00S00C0.03543
T4F00S00C0.03937
T5F00S00C0.05512
%
T01
X0091339Y0081102
T02
X0076772Y0086614
X0092126Y0097244
X007559Y0114961
X0101969Y0148031
X0102362Y0157087
X0105118Y0166929
T03
X0330709Y0128189
X0262549
X0199311
X0131152
Y0138189
Y0148189
X0199311
Y0138189
X0262549
Y0148189
X0330709
Y0138189
T04
X0350197Y0128189
X0282037
X0223721
X0155561Y0128032
Y0148189
T05
X0330709Y0021654
Y0041339
Y0061024
Y0080709
Y0100394
X0262549
Y0080709
Y0061024
Y0041339
Y0021654
X0199311
Y0041339
Y0061024
Y0080709
Y0100394
X0131152
Y0080709
Y0061024
Y0041339
Y0021654
X0062992
Y0041339
Y0061024
Y0080709
Y0100394
M30
