G04*
G04 #@! TF.GenerationSoftware,Altium Limited,Altium Designer,21.8.1 (53)*
G04*
G04 Layer_Physical_Order=3*
G04 Layer_Color=16440176*
%FSLAX25Y25*%
%MOIN*%
G70*
G04*
G04 #@! TF.SameCoordinates,3454F2FE-2F19-4CCB-A9DF-A7C270953791*
G04*
G04*
G04 #@! TF.FilePolarity,Positive*
G04*
G01*
G75*
%ADD146C,0.03543*%
%ADD147O,0.07874X0.04331*%
%ADD148C,0.05906*%
%ADD149C,0.07874*%
%ADD151O,0.03937X0.07874*%
%ADD152C,0.08661*%
%ADD153C,0.09449*%
%ADD157C,0.02756*%
G36*
X535577Y394331D02*
X535714Y394283D01*
X535836Y394206D01*
X535938Y394104D01*
X536015Y393981D01*
X536063Y393844D01*
X536092Y393588D01*
Y358268D01*
X536103Y358212D01*
X536095Y358155D01*
X536313Y354266D01*
X536342Y354156D01*
X536339Y354042D01*
X536991Y350202D01*
X537032Y350096D01*
X537041Y349983D01*
X538120Y346240D01*
X538172Y346139D01*
X538194Y346027D01*
X539684Y342428D01*
X539748Y342334D01*
X539782Y342226D01*
X541666Y338816D01*
X541740Y338729D01*
X541786Y338626D01*
X544040Y335449D01*
X544123Y335371D01*
X544180Y335273D01*
X546776Y332368D01*
X546867Y332300D01*
X546935Y332209D01*
X549840Y329614D01*
X549938Y329556D01*
X550016Y329473D01*
X553193Y327219D01*
X553297Y327173D01*
X553383Y327099D01*
X556792Y325215D01*
X556901Y325181D01*
X556995Y325117D01*
X560594Y323627D01*
X560706Y323604D01*
X560807Y323552D01*
X564550Y322474D01*
X564663Y322465D01*
X564769Y322424D01*
X568609Y321772D01*
X568723Y321775D01*
X568833Y321746D01*
X572666Y321531D01*
X572978Y321496D01*
X573115Y321448D01*
X573238Y321371D01*
X573340Y321269D01*
X573417Y321146D01*
X573464Y321010D01*
X573493Y320753D01*
Y37514D01*
X573464Y37258D01*
X573417Y37121D01*
X573340Y36999D01*
X573238Y36896D01*
X573115Y36819D01*
X572978Y36772D01*
X572666Y36737D01*
X568833Y36521D01*
X568723Y36493D01*
X568609Y36496D01*
X564769Y35844D01*
X564663Y35803D01*
X564549Y35793D01*
X560807Y34715D01*
X560706Y34663D01*
X560594Y34641D01*
X556995Y33150D01*
X556901Y33087D01*
X556792Y33052D01*
X553383Y31168D01*
X553297Y31095D01*
X553193Y31049D01*
X550016Y28794D01*
X549938Y28712D01*
X549840Y28654D01*
X546935Y26058D01*
X546867Y25968D01*
X546776Y25899D01*
X544180Y22995D01*
X544123Y22897D01*
X544040Y22819D01*
X541786Y19642D01*
X541740Y19538D01*
X541666Y19451D01*
X539782Y16042D01*
X539748Y15934D01*
X539684Y15839D01*
X538194Y12240D01*
X538172Y12129D01*
X538120Y12028D01*
X537041Y8285D01*
X537032Y8172D01*
X536991Y8066D01*
X536339Y4225D01*
X536342Y4112D01*
X536313Y4002D01*
X536095Y112D01*
X536103Y56D01*
X536092Y0D01*
Y-35321D01*
X536063Y-35577D01*
X536015Y-35713D01*
X535938Y-35836D01*
X535836Y-35939D01*
X535714Y-36015D01*
X535577Y-36063D01*
X535320Y-36092D01*
X61238D01*
Y187800D01*
X200338D01*
Y394359D01*
X535320Y394359D01*
X535577Y394331D01*
D02*
G37*
%LPC*%
G36*
X483838Y372525D02*
X482913Y372403D01*
X482051Y372046D01*
X481338Y371499D01*
X480625Y372046D01*
X479763Y372403D01*
X478838Y372525D01*
X477913Y372403D01*
X477051Y372046D01*
X476311Y371478D01*
X475743Y370738D01*
X475386Y369876D01*
X475264Y368951D01*
Y365014D01*
X475386Y364089D01*
X475743Y363227D01*
X476311Y362487D01*
X477051Y361919D01*
X477913Y361562D01*
X478838Y361440D01*
X479763Y361562D01*
X480625Y361919D01*
X481338Y362466D01*
X482051Y361919D01*
X482913Y361562D01*
X483838Y361440D01*
X484763Y361562D01*
X485625Y361919D01*
X486365Y362487D01*
X486399Y362531D01*
X487091Y362613D01*
X487341Y362421D01*
X488063Y362122D01*
X488338Y362086D01*
Y366983D01*
Y371880D01*
X488063Y371843D01*
X487341Y371544D01*
X487091Y371353D01*
X486399Y371434D01*
X486365Y371478D01*
X485625Y372046D01*
X484763Y372403D01*
X483838Y372525D01*
D02*
G37*
G36*
X489338Y371880D02*
Y367483D01*
X491832D01*
Y368951D01*
X491730Y369726D01*
X491431Y370448D01*
X490955Y371068D01*
X490335Y371544D01*
X489613Y371843D01*
X489338Y371880D01*
D02*
G37*
G36*
X491832Y366483D02*
X489338D01*
Y362086D01*
X489613Y362122D01*
X490335Y362421D01*
X490955Y362897D01*
X491431Y363517D01*
X491730Y364239D01*
X491832Y365014D01*
Y366483D01*
D02*
G37*
G36*
X230175Y355656D02*
X230025D01*
Y351219D01*
X234462D01*
Y351369D01*
X234125Y352625D01*
X233475Y353751D01*
X232556Y354670D01*
X231430Y355320D01*
X230175Y355656D01*
D02*
G37*
G36*
X229025D02*
X228875D01*
X227619Y355320D01*
X226493Y354670D01*
X225574Y353751D01*
X224924Y352625D01*
X224588Y351369D01*
Y351219D01*
X229025D01*
Y355656D01*
D02*
G37*
G36*
X270175Y355655D02*
X270025D01*
Y351218D01*
X274462D01*
Y351368D01*
X274125Y352623D01*
X273475Y353749D01*
X272556Y354668D01*
X271430Y355318D01*
X270175Y355655D01*
D02*
G37*
G36*
X269025D02*
X268875D01*
X267619Y355318D01*
X266493Y354668D01*
X265574Y353749D01*
X264924Y352623D01*
X264588Y351368D01*
Y351218D01*
X269025D01*
Y355655D01*
D02*
G37*
G36*
X492389Y354553D02*
X491611D01*
X490860Y354351D01*
X490187Y353963D01*
X489637Y353413D01*
X489249Y352740D01*
X489047Y351989D01*
Y351211D01*
X489249Y350460D01*
X489637Y349787D01*
X490187Y349237D01*
X490860Y348849D01*
X491611Y348647D01*
X492389D01*
X493140Y348849D01*
X493813Y349237D01*
X494363Y349787D01*
X494752Y350460D01*
X494953Y351211D01*
Y351989D01*
X494752Y352740D01*
X494363Y353413D01*
X493813Y353963D01*
X493140Y354351D01*
X492389Y354553D01*
D02*
G37*
G36*
X520614Y370079D02*
X518755D01*
X516919Y369788D01*
X515151Y369213D01*
X513495Y368369D01*
X511991Y367277D01*
X510676Y365962D01*
X509583Y364458D01*
X508739Y362802D01*
X508165Y361033D01*
X507874Y359197D01*
Y357338D01*
X508165Y355502D01*
X508739Y353734D01*
X509583Y352077D01*
X510676Y350573D01*
X511991Y349259D01*
X513495Y348166D01*
X515151Y347322D01*
X516919Y346747D01*
X518755Y346457D01*
X520614D01*
X522451Y346747D01*
X524219Y347322D01*
X525875Y348166D01*
X527379Y349259D01*
X528694Y350573D01*
X529787Y352077D01*
X530631Y353734D01*
X531205Y355502D01*
X531496Y357338D01*
Y359197D01*
X531205Y361033D01*
X530631Y362802D01*
X529787Y364458D01*
X528694Y365962D01*
X527379Y367277D01*
X525875Y368369D01*
X524219Y369213D01*
X522451Y369788D01*
X520614Y370079D01*
D02*
G37*
G36*
X234462Y350219D02*
X230025D01*
Y345782D01*
X230175D01*
X231430Y346119D01*
X232556Y346769D01*
X233475Y347688D01*
X234125Y348814D01*
X234462Y350069D01*
Y350219D01*
D02*
G37*
G36*
X229025D02*
X224588D01*
Y350069D01*
X224924Y348814D01*
X225574Y347688D01*
X226493Y346769D01*
X227619Y346119D01*
X228875Y345782D01*
X229025D01*
Y350219D01*
D02*
G37*
G36*
X274462Y350218D02*
X270025D01*
Y345781D01*
X270175D01*
X271430Y346117D01*
X272556Y346767D01*
X273475Y347686D01*
X274125Y348812D01*
X274462Y350068D01*
Y350218D01*
D02*
G37*
G36*
X269025D02*
X264588D01*
Y350068D01*
X264924Y348812D01*
X265574Y347686D01*
X266493Y346767D01*
X267619Y346117D01*
X268875Y345781D01*
X269025D01*
Y350218D01*
D02*
G37*
G36*
X210250Y356231D02*
X208799D01*
X207397Y355856D01*
X206140Y355130D01*
X205114Y354104D01*
X204389Y352847D01*
X204013Y351445D01*
Y349994D01*
X204389Y348592D01*
X205114Y347335D01*
X206140Y346309D01*
X207397Y345583D01*
X208799Y345208D01*
X210250D01*
X211652Y345583D01*
X212909Y346309D01*
X213935Y347335D01*
X214661Y348592D01*
X215037Y349994D01*
Y351445D01*
X214661Y352847D01*
X213935Y354104D01*
X212909Y355130D01*
X211652Y355856D01*
X210250Y356231D01*
D02*
G37*
G36*
X430276Y356229D02*
X428824D01*
X427423Y355854D01*
X426166Y355128D01*
X425140Y354102D01*
X424414Y352845D01*
X424038Y351443D01*
Y349992D01*
X424414Y348590D01*
X425140Y347333D01*
X426166Y346307D01*
X427423Y345581D01*
X428824Y345206D01*
X430276D01*
X431677Y345581D01*
X432934Y346307D01*
X433960Y347333D01*
X434686Y348590D01*
X435062Y349992D01*
Y351443D01*
X434686Y352845D01*
X433960Y354102D01*
X432934Y355128D01*
X431677Y355854D01*
X430276Y356229D01*
D02*
G37*
G36*
X410276D02*
X408824D01*
X407422Y355854D01*
X406166Y355128D01*
X405139Y354102D01*
X404414Y352845D01*
X404038Y351443D01*
Y349992D01*
X404414Y348590D01*
X405139Y347333D01*
X406166Y346307D01*
X407422Y345581D01*
X408824Y345206D01*
X410276D01*
X411678Y345581D01*
X412934Y346307D01*
X413961Y347333D01*
X414686Y348590D01*
X415062Y349992D01*
Y351443D01*
X414686Y352845D01*
X413961Y354102D01*
X412934Y355128D01*
X411678Y355854D01*
X410276Y356229D01*
D02*
G37*
G36*
X390266D02*
X388815D01*
X387413Y355854D01*
X386156Y355128D01*
X385130Y354102D01*
X384404Y352845D01*
X384028Y351443D01*
Y349992D01*
X384404Y348590D01*
X385130Y347333D01*
X386156Y346307D01*
X387413Y345581D01*
X388815Y345206D01*
X390266D01*
X391668Y345581D01*
X392924Y346307D01*
X393951Y347333D01*
X394676Y348590D01*
X395052Y349992D01*
Y351443D01*
X394676Y352845D01*
X393951Y354102D01*
X392924Y355128D01*
X391668Y355854D01*
X390266Y356229D01*
D02*
G37*
G36*
X370266D02*
X368815D01*
X367413Y355854D01*
X366156Y355128D01*
X365130Y354102D01*
X364404Y352845D01*
X364028Y351443D01*
Y349992D01*
X364404Y348590D01*
X365130Y347333D01*
X366156Y346307D01*
X367413Y345581D01*
X368815Y345206D01*
X370266D01*
X371668Y345581D01*
X372924Y346307D01*
X373951Y347333D01*
X374676Y348590D01*
X375052Y349992D01*
Y351443D01*
X374676Y352845D01*
X373951Y354102D01*
X372924Y355128D01*
X371668Y355854D01*
X370266Y356229D01*
D02*
G37*
G36*
X350256D02*
X348805D01*
X347403Y355854D01*
X346146Y355128D01*
X345120Y354102D01*
X344394Y352845D01*
X344019Y351443D01*
Y349992D01*
X344394Y348590D01*
X345120Y347333D01*
X346146Y346307D01*
X347403Y345581D01*
X348805Y345206D01*
X350256D01*
X351658Y345581D01*
X352915Y346307D01*
X353941Y347333D01*
X354667Y348590D01*
X355042Y349992D01*
Y351443D01*
X354667Y352845D01*
X353941Y354102D01*
X352915Y355128D01*
X351658Y355854D01*
X350256Y356229D01*
D02*
G37*
G36*
X330256D02*
X328805D01*
X327403Y355854D01*
X326146Y355128D01*
X325120Y354102D01*
X324394Y352845D01*
X324019Y351443D01*
Y349992D01*
X324394Y348590D01*
X325120Y347333D01*
X326146Y346307D01*
X327403Y345581D01*
X328805Y345206D01*
X330256D01*
X331658Y345581D01*
X332915Y346307D01*
X333941Y347333D01*
X334667Y348590D01*
X335042Y349992D01*
Y351443D01*
X334667Y352845D01*
X333941Y354102D01*
X332915Y355128D01*
X331658Y355854D01*
X330256Y356229D01*
D02*
G37*
G36*
X310250D02*
X308799D01*
X307397Y355854D01*
X306140Y355128D01*
X305114Y354102D01*
X304389Y352845D01*
X304013Y351443D01*
Y349992D01*
X304389Y348590D01*
X305114Y347333D01*
X306140Y346307D01*
X307397Y345581D01*
X308799Y345206D01*
X310250D01*
X311652Y345581D01*
X312909Y346307D01*
X313935Y347333D01*
X314661Y348590D01*
X315037Y349992D01*
Y351443D01*
X314661Y352845D01*
X313935Y354102D01*
X312909Y355128D01*
X311652Y355854D01*
X310250Y356229D01*
D02*
G37*
G36*
X290250D02*
X288799D01*
X287397Y355854D01*
X286140Y355128D01*
X285114Y354102D01*
X284389Y352845D01*
X284013Y351443D01*
Y349992D01*
X284389Y348590D01*
X285114Y347333D01*
X286140Y346307D01*
X287397Y345581D01*
X288799Y345206D01*
X290250D01*
X291652Y345581D01*
X292909Y346307D01*
X293935Y347333D01*
X294661Y348590D01*
X295037Y349992D01*
Y351443D01*
X294661Y352845D01*
X293935Y354102D01*
X292909Y355128D01*
X291652Y355854D01*
X290250Y356229D01*
D02*
G37*
G36*
X250250D02*
X248799D01*
X247397Y355854D01*
X246141Y355128D01*
X245114Y354102D01*
X244389Y352845D01*
X244013Y351443D01*
Y349992D01*
X244389Y348590D01*
X245114Y347333D01*
X246141Y346307D01*
X247397Y345581D01*
X248799Y345206D01*
X250250D01*
X251652Y345581D01*
X252909Y346307D01*
X253935Y347333D01*
X254661Y348590D01*
X255037Y349992D01*
Y351443D01*
X254661Y352845D01*
X253935Y354102D01*
X252909Y355128D01*
X251652Y355854D01*
X250250Y356229D01*
D02*
G37*
G36*
X516215Y340664D02*
X515437D01*
X514686Y340463D01*
X514013Y340074D01*
X513463Y339525D01*
X513074Y338851D01*
X512873Y338100D01*
Y337323D01*
X513074Y336572D01*
X513463Y335898D01*
X514013Y335349D01*
X514686Y334960D01*
X515437Y334759D01*
X516215D01*
X516966Y334960D01*
X517639Y335349D01*
X518189Y335898D01*
X518578Y336572D01*
X518779Y337323D01*
Y338100D01*
X518578Y338851D01*
X518189Y339525D01*
X517639Y340074D01*
X516966Y340463D01*
X516215Y340664D01*
D02*
G37*
G36*
X247689Y332653D02*
X246911D01*
X246160Y332452D01*
X245487Y332063D01*
X244937Y331513D01*
X244549Y330840D01*
X244347Y330089D01*
Y329626D01*
X243772D01*
X243021Y329424D01*
X242348Y329036D01*
X241798Y328486D01*
X241410Y327813D01*
X241208Y327062D01*
Y326652D01*
X240460Y326451D01*
X239787Y326063D01*
X239237Y325513D01*
X238848Y324840D01*
X238694Y324262D01*
X238409D01*
X237658Y324061D01*
X237167Y323777D01*
X236676Y324061D01*
X235925Y324262D01*
X235147D01*
X234396Y324061D01*
X233723Y323672D01*
X233173Y323122D01*
X232784Y322449D01*
X232583Y321698D01*
Y320920D01*
X232784Y320169D01*
X233173Y319496D01*
X233723Y318946D01*
X234396Y318558D01*
X235147Y318356D01*
X235925D01*
X236676Y318558D01*
X237167Y318841D01*
X237658Y318558D01*
X238409Y318356D01*
X239186D01*
X239937Y318558D01*
X240610Y318946D01*
X241160Y319496D01*
X241549Y320169D01*
X241704Y320747D01*
X241989D01*
X242740Y320949D01*
X243413Y321337D01*
X243963Y321887D01*
X244352Y322560D01*
X244553Y323311D01*
Y323721D01*
X245301Y323921D01*
X245974Y324310D01*
X246524Y324860D01*
X246913Y325533D01*
X247114Y326284D01*
Y326747D01*
X247689D01*
X248440Y326948D01*
X249113Y327337D01*
X249663Y327887D01*
X250051Y328560D01*
X250253Y329311D01*
Y330089D01*
X250051Y330840D01*
X249663Y331513D01*
X249113Y332063D01*
X248440Y332452D01*
X247689Y332653D01*
D02*
G37*
G36*
X215669Y310270D02*
X214892D01*
X214141Y310069D01*
X213975Y309973D01*
X213840Y310051D01*
X213089Y310253D01*
X212311D01*
X211560Y310051D01*
X210887Y309663D01*
X210337Y309113D01*
X209948Y308440D01*
X209747Y307689D01*
Y306911D01*
X209948Y306160D01*
X210337Y305487D01*
X210887Y304937D01*
X211560Y304549D01*
X212311Y304347D01*
X213089D01*
X213840Y304549D01*
X214005Y304644D01*
X214141Y304566D01*
X214892Y304365D01*
X215669D01*
X216421Y304566D01*
X217094Y304955D01*
X217644Y305504D01*
X218032Y306178D01*
X218234Y306929D01*
Y307706D01*
X218032Y308457D01*
X217644Y309130D01*
X217094Y309680D01*
X216421Y310069D01*
X215669Y310270D01*
D02*
G37*
G36*
X565765Y316477D02*
X556710D01*
Y307422D01*
X565765D01*
Y316477D01*
D02*
G37*
G36*
X561834Y306477D02*
X560642D01*
X559490Y306169D01*
X558458Y305573D01*
X557615Y304730D01*
X557019Y303697D01*
X556710Y302546D01*
Y301354D01*
X557019Y300202D01*
X557615Y299170D01*
X558458Y298327D01*
X559490Y297731D01*
X560642Y297422D01*
X561834D01*
X562985Y297731D01*
X564018Y298327D01*
X564861Y299170D01*
X565457Y300202D01*
X565765Y301354D01*
Y302546D01*
X565457Y303697D01*
X564861Y304730D01*
X564018Y305573D01*
X562985Y306169D01*
X561834Y306477D01*
D02*
G37*
G36*
Y296477D02*
X560642D01*
X559490Y296169D01*
X558458Y295572D01*
X557615Y294730D01*
X557019Y293697D01*
X556710Y292546D01*
Y291354D01*
X557019Y290202D01*
X557615Y289170D01*
X558458Y288327D01*
X559490Y287731D01*
X560642Y287422D01*
X561834D01*
X562985Y287731D01*
X564018Y288327D01*
X564861Y289170D01*
X565457Y290202D01*
X565765Y291354D01*
Y292546D01*
X565457Y293697D01*
X564861Y294730D01*
X564018Y295572D01*
X562985Y296169D01*
X561834Y296477D01*
D02*
G37*
G36*
Y286477D02*
X560642D01*
X559490Y286169D01*
X558458Y285573D01*
X557615Y284730D01*
X557019Y283697D01*
X556710Y282546D01*
Y281353D01*
X557019Y280202D01*
X557615Y279170D01*
X558458Y278327D01*
X559490Y277731D01*
X560642Y277422D01*
X561834D01*
X562985Y277731D01*
X564018Y278327D01*
X564861Y279170D01*
X565457Y280202D01*
X565765Y281353D01*
Y282546D01*
X565457Y283697D01*
X564861Y284730D01*
X564018Y285573D01*
X562985Y286169D01*
X561834Y286477D01*
D02*
G37*
G36*
Y276477D02*
X560642D01*
X559490Y276169D01*
X558458Y275572D01*
X557615Y274730D01*
X557019Y273697D01*
X556710Y272546D01*
Y271354D01*
X557019Y270202D01*
X557615Y269170D01*
X558458Y268327D01*
X559490Y267731D01*
X560642Y267422D01*
X561834D01*
X562985Y267731D01*
X564018Y268327D01*
X564861Y269170D01*
X565457Y270202D01*
X565765Y271354D01*
Y272546D01*
X565457Y273697D01*
X564861Y274730D01*
X564018Y275572D01*
X562985Y276169D01*
X561834Y276477D01*
D02*
G37*
G36*
X502427Y267402D02*
X501649D01*
X500898Y267201D01*
X500225Y266812D01*
X499964Y266552D01*
X499703Y266812D01*
X499030Y267201D01*
X498279Y267402D01*
X497502D01*
X496750Y267201D01*
X496077Y266812D01*
X495528Y266263D01*
X495139Y265589D01*
X494938Y264838D01*
Y264061D01*
X495139Y263310D01*
X495528Y262636D01*
X496077Y262087D01*
X496750Y261698D01*
X497502Y261497D01*
X498279D01*
X499030Y261698D01*
X499703Y262087D01*
X499964Y262348D01*
X500225Y262087D01*
X500898Y261698D01*
X501649Y261497D01*
X502427D01*
X503178Y261698D01*
X503851Y262087D01*
X504401Y262636D01*
X504789Y263310D01*
X504991Y264061D01*
Y264838D01*
X504789Y265589D01*
X504401Y266263D01*
X503851Y266812D01*
X503178Y267201D01*
X502427Y267402D01*
D02*
G37*
G36*
X513636D02*
X512859D01*
X512108Y267201D01*
X511434Y266812D01*
X511071Y266449D01*
X510707Y266812D01*
X510034Y267201D01*
X509282Y267402D01*
X508505D01*
X507754Y267201D01*
X507081Y266812D01*
X506531Y266263D01*
X506142Y265589D01*
X505941Y264838D01*
Y264061D01*
X506142Y263310D01*
X506531Y262636D01*
X507081Y262087D01*
X507754Y261698D01*
X508505Y261497D01*
X509282D01*
X510034Y261698D01*
X510707Y262087D01*
X511071Y262451D01*
X511434Y262087D01*
X512108Y261698D01*
X512859Y261497D01*
X513636D01*
X514387Y261698D01*
X515060Y262087D01*
X515610Y262636D01*
X515999Y263310D01*
X516200Y264061D01*
Y264838D01*
X515999Y265589D01*
X515610Y266263D01*
X515060Y266812D01*
X514387Y267201D01*
X513636Y267402D01*
D02*
G37*
G36*
X561758Y265902D02*
X561738D01*
Y262450D01*
X565191D01*
Y262470D01*
X564921Y263475D01*
X564401Y264377D01*
X563665Y265113D01*
X562764Y265633D01*
X561758Y265902D01*
D02*
G37*
G36*
X560738D02*
X560717D01*
X559712Y265633D01*
X558811Y265113D01*
X558075Y264377D01*
X557554Y263475D01*
X557285Y262470D01*
Y262450D01*
X560738D01*
Y265902D01*
D02*
G37*
G36*
X565191Y261450D02*
X561738D01*
Y257997D01*
X561758D01*
X562764Y258266D01*
X563665Y258787D01*
X564401Y259523D01*
X564921Y260424D01*
X565191Y261429D01*
Y261450D01*
D02*
G37*
G36*
X560738D02*
X557285D01*
Y261429D01*
X557554Y260424D01*
X558075Y259523D01*
X558811Y258787D01*
X559712Y258266D01*
X560717Y257997D01*
X560738D01*
Y261450D01*
D02*
G37*
G36*
X367977Y258396D02*
X367200D01*
X366449Y258195D01*
X365775Y257806D01*
X365226Y257257D01*
X364837Y256583D01*
X364636Y255832D01*
Y255055D01*
X364837Y254304D01*
X365226Y253631D01*
X365585Y253272D01*
X365226Y252913D01*
X364837Y252240D01*
X364636Y251489D01*
Y250711D01*
X364837Y249960D01*
X365226Y249287D01*
X365538Y248975D01*
X365226Y248663D01*
X364837Y247989D01*
X364636Y247238D01*
Y246461D01*
X364837Y245710D01*
X365226Y245037D01*
X365775Y244487D01*
X366449Y244098D01*
X367200Y243897D01*
X367977D01*
X368728Y244098D01*
X369402Y244487D01*
X369951Y245037D01*
X370340Y245710D01*
X370541Y246461D01*
Y247238D01*
X370340Y247989D01*
X369951Y248663D01*
X369639Y248975D01*
X369951Y249287D01*
X370340Y249960D01*
X370541Y250711D01*
Y251489D01*
X370340Y252240D01*
X369951Y252913D01*
X369593Y253272D01*
X369951Y253631D01*
X370340Y254304D01*
X370541Y255055D01*
Y255832D01*
X370340Y256583D01*
X369951Y257257D01*
X369402Y257806D01*
X368728Y258195D01*
X367977Y258396D01*
D02*
G37*
G36*
X356110Y258202D02*
X355332D01*
X354581Y258001D01*
X353908Y257612D01*
X353358Y257063D01*
X352970Y256389D01*
X352768Y255638D01*
Y254861D01*
X352970Y254110D01*
X353358Y253436D01*
X353620Y253175D01*
X353358Y252913D01*
X352970Y252240D01*
X352768Y251489D01*
Y250711D01*
X352970Y249960D01*
X353358Y249287D01*
X353671Y248975D01*
X353358Y248663D01*
X352970Y247989D01*
X352768Y247238D01*
Y246461D01*
X352970Y245710D01*
X353358Y245037D01*
X353908Y244487D01*
X354581Y244098D01*
X355332Y243897D01*
X356110D01*
X356861Y244098D01*
X357534Y244487D01*
X358084Y245037D01*
X358473Y245710D01*
X358674Y246461D01*
Y247238D01*
X358473Y247989D01*
X358084Y248663D01*
X357772Y248975D01*
X358084Y249287D01*
X358473Y249960D01*
X358674Y250711D01*
Y251489D01*
X358473Y252240D01*
X358084Y252913D01*
X357822Y253175D01*
X358084Y253436D01*
X358473Y254110D01*
X358674Y254861D01*
Y255638D01*
X358473Y256389D01*
X358084Y257063D01*
X357534Y257612D01*
X356861Y258001D01*
X356110Y258202D01*
D02*
G37*
G36*
X446864Y238461D02*
X445412D01*
X444010Y238086D01*
X442754Y237360D01*
X442150Y236756D01*
X441650Y236963D01*
Y238461D01*
X430626D01*
Y227438D01*
X432124D01*
X432331Y226938D01*
X431727Y226334D01*
X431002Y225077D01*
X430626Y223675D01*
Y222224D01*
X431002Y220822D01*
X431727Y219565D01*
X432754Y218539D01*
X433342Y218199D01*
Y217700D01*
X432754Y217360D01*
X431727Y216334D01*
X431002Y215077D01*
X430626Y213675D01*
Y212224D01*
X431002Y210822D01*
X431727Y209565D01*
X432754Y208539D01*
X433342Y208200D01*
Y207699D01*
X432754Y207360D01*
X431727Y206334D01*
X431002Y205077D01*
X430626Y203675D01*
Y202224D01*
X431002Y200822D01*
X431727Y199565D01*
X432754Y198539D01*
X434010Y197813D01*
X435412Y197438D01*
X436864D01*
X438265Y197813D01*
X439522Y198539D01*
X440548Y199565D01*
X441181Y200661D01*
X441651Y200709D01*
X441747Y200680D01*
X442187Y199918D01*
X443107Y198999D01*
X444232Y198349D01*
X445488Y198012D01*
X445638D01*
Y202950D01*
X446138D01*
Y203450D01*
X451075D01*
Y203600D01*
X450738Y204855D01*
X450089Y205981D01*
X449169Y206900D01*
X448043Y207550D01*
X447519Y207691D01*
Y208208D01*
X448043Y208349D01*
X449169Y208999D01*
X450089Y209918D01*
X450738Y211044D01*
X451075Y212299D01*
Y212450D01*
X446138D01*
Y213450D01*
X451075D01*
Y213599D01*
X450738Y214855D01*
X450089Y215981D01*
X449169Y216900D01*
X448407Y217340D01*
X448378Y217437D01*
X448426Y217906D01*
X449522Y218539D01*
X450548Y219565D01*
X451274Y220822D01*
X451650Y222224D01*
Y223675D01*
X451274Y225077D01*
X450548Y226334D01*
X449522Y227360D01*
X448934Y227699D01*
Y228200D01*
X449522Y228539D01*
X450548Y229565D01*
X451274Y230822D01*
X451650Y232224D01*
Y233675D01*
X451274Y235077D01*
X450548Y236334D01*
X449522Y237360D01*
X448265Y238086D01*
X446864Y238461D01*
D02*
G37*
G36*
X267389Y251858D02*
X266611D01*
X265860Y251657D01*
X265187Y251268D01*
X264637Y250718D01*
X264248Y250045D01*
X264047Y249294D01*
Y248517D01*
X264248Y247766D01*
X264637Y247092D01*
X265187Y246543D01*
X265630Y246287D01*
Y245718D01*
X265187Y245463D01*
X264637Y244913D01*
X264248Y244240D01*
X264047Y243489D01*
Y242711D01*
X264248Y241960D01*
X264637Y241287D01*
X264890Y241034D01*
X265157Y240700D01*
X264890Y240366D01*
X264637Y240113D01*
X264248Y239440D01*
X264047Y238689D01*
Y237911D01*
X264248Y237160D01*
X264637Y236487D01*
X265187Y235937D01*
X265836Y235563D01*
X265860Y235445D01*
Y235155D01*
X265836Y235037D01*
X265187Y234663D01*
X264637Y234113D01*
X264248Y233440D01*
X264047Y232689D01*
Y231911D01*
X264248Y231160D01*
X264637Y230487D01*
X265187Y229937D01*
X265860Y229549D01*
X266611Y229347D01*
X267389D01*
X268140Y229549D01*
X268813Y229937D01*
X269363Y230487D01*
X269752Y231160D01*
X269953Y231911D01*
Y232689D01*
X269752Y233440D01*
X269363Y234113D01*
X268813Y234663D01*
X268164Y235037D01*
X268140Y235155D01*
Y235445D01*
X268164Y235563D01*
X268813Y235937D01*
X269363Y236487D01*
X269752Y237160D01*
X269953Y237911D01*
Y238689D01*
X269752Y239440D01*
X269363Y240113D01*
X269110Y240366D01*
X268843Y240700D01*
X269110Y241034D01*
X269363Y241287D01*
X269752Y241960D01*
X269953Y242711D01*
Y243489D01*
X269752Y244240D01*
X269363Y244913D01*
X268813Y245463D01*
X268370Y245718D01*
Y246287D01*
X268813Y246543D01*
X269363Y247092D01*
X269752Y247766D01*
X269953Y248517D01*
Y249294D01*
X269752Y250045D01*
X269363Y250718D01*
X268813Y251268D01*
X268140Y251657D01*
X267389Y251858D01*
D02*
G37*
G36*
X204689Y231253D02*
X203911D01*
X203160Y231051D01*
X202487Y230663D01*
X201937Y230113D01*
X201549Y229440D01*
X201347Y228689D01*
Y227911D01*
X201549Y227160D01*
X201937Y226487D01*
X202487Y225937D01*
X203160Y225549D01*
X203911Y225347D01*
X204689D01*
X205440Y225549D01*
X206113Y225937D01*
X206663Y226487D01*
X207051Y227160D01*
X207253Y227911D01*
Y228689D01*
X207051Y229440D01*
X206663Y230113D01*
X206113Y230663D01*
X205440Y231051D01*
X204689Y231253D01*
D02*
G37*
G36*
X289489Y224853D02*
X288711D01*
X287960Y224652D01*
X287287Y224263D01*
X286737Y223713D01*
X286349Y223040D01*
X286147Y222289D01*
Y221511D01*
X286349Y220760D01*
X286737Y220087D01*
X287287Y219537D01*
X287960Y219148D01*
X288711Y218947D01*
X289489D01*
X290240Y219148D01*
X290913Y219537D01*
X291463Y220087D01*
X291851Y220760D01*
X292053Y221511D01*
Y222289D01*
X291851Y223040D01*
X291463Y223713D01*
X290913Y224263D01*
X290240Y224652D01*
X289489Y224853D01*
D02*
G37*
G36*
X312689Y216639D02*
X311911D01*
X311160Y216438D01*
X310487Y216049D01*
X309937Y215500D01*
X309548Y214826D01*
X309347Y214075D01*
Y213298D01*
X309548Y212547D01*
X309937Y211874D01*
X310487Y211324D01*
X311160Y210935D01*
X311911Y210734D01*
X312689D01*
X313440Y210935D01*
X314113Y211324D01*
X314663Y211874D01*
X315052Y212547D01*
X315253Y213298D01*
Y214075D01*
X315052Y214826D01*
X314663Y215500D01*
X314113Y216049D01*
X313440Y216438D01*
X312689Y216639D01*
D02*
G37*
G36*
X332427Y213902D02*
X331649D01*
X330898Y213701D01*
X330225Y213312D01*
X329675Y212763D01*
X329286Y212089D01*
X329085Y211338D01*
Y210561D01*
X329286Y209810D01*
X329675Y209137D01*
X330225Y208587D01*
X330898Y208198D01*
X331649Y207997D01*
X332427D01*
X333178Y208198D01*
X333851Y208587D01*
X334401Y209137D01*
X334789Y209810D01*
X334991Y210561D01*
Y211338D01*
X334789Y212089D01*
X334401Y212763D01*
X333851Y213312D01*
X333178Y213701D01*
X332427Y213902D01*
D02*
G37*
G36*
X351343Y213202D02*
X350566D01*
X349815Y213001D01*
X349141Y212612D01*
X348592Y212063D01*
X348203Y211389D01*
X348002Y210638D01*
Y209861D01*
X348203Y209110D01*
X348592Y208436D01*
X349141Y207887D01*
X349815Y207498D01*
X350566Y207297D01*
X351343D01*
X352094Y207498D01*
X352767Y207887D01*
X353317Y208436D01*
X353706Y209110D01*
X353907Y209861D01*
Y210638D01*
X353706Y211389D01*
X353317Y212063D01*
X352767Y212612D01*
X352094Y213001D01*
X351343Y213202D01*
D02*
G37*
G36*
X324532Y209889D02*
X323755D01*
X323004Y209688D01*
X322330Y209299D01*
X321781Y208749D01*
X321392Y208076D01*
X321191Y207325D01*
Y206547D01*
X321392Y205797D01*
X321781Y205123D01*
X322330Y204573D01*
X323004Y204185D01*
X323755Y203983D01*
X324532D01*
X325283Y204185D01*
X325956Y204573D01*
X326506Y205123D01*
X326895Y205797D01*
X327096Y206547D01*
Y207325D01*
X326895Y208076D01*
X326506Y208749D01*
X325956Y209299D01*
X325283Y209688D01*
X324532Y209889D01*
D02*
G37*
G36*
X490627Y208802D02*
X489850D01*
X489099Y208601D01*
X488425Y208212D01*
X487876Y207662D01*
X487487Y206989D01*
X487286Y206238D01*
Y205460D01*
X487487Y204710D01*
X487876Y204036D01*
X488425Y203486D01*
X489099Y203098D01*
X489850Y202896D01*
X490627D01*
X491378Y203098D01*
X492051Y203486D01*
X492601Y204036D01*
X492990Y204710D01*
X493191Y205460D01*
Y206238D01*
X492990Y206989D01*
X492601Y207662D01*
X492051Y208212D01*
X491378Y208601D01*
X490627Y208802D01*
D02*
G37*
G36*
X451075Y202449D02*
X446638D01*
Y198012D01*
X446788D01*
X448043Y198349D01*
X449169Y198999D01*
X450089Y199918D01*
X450738Y201044D01*
X451075Y202299D01*
Y202449D01*
D02*
G37*
G36*
X373827Y199802D02*
X373049D01*
X372298Y199601D01*
X371625Y199212D01*
X371075Y198663D01*
X370686Y197989D01*
X370485Y197238D01*
Y196461D01*
X370686Y195710D01*
X371075Y195036D01*
X371625Y194487D01*
X372298Y194098D01*
X373049Y193897D01*
X373827D01*
X374578Y194098D01*
X375251Y194487D01*
X375801Y195036D01*
X376189Y195710D01*
X376391Y196461D01*
Y197238D01*
X376189Y197989D01*
X375801Y198663D01*
X375251Y199212D01*
X374578Y199601D01*
X373827Y199802D01*
D02*
G37*
G36*
X287389Y193053D02*
X286611D01*
X285860Y192851D01*
X285187Y192463D01*
X284637Y191913D01*
X284248Y191240D01*
X284047Y190489D01*
Y189711D01*
X284248Y188960D01*
X284637Y188287D01*
X285187Y187737D01*
X285860Y187348D01*
X286611Y187147D01*
X287389D01*
X288140Y187348D01*
X288315Y187450D01*
X288901Y187211D01*
X289175Y186737D01*
X289725Y186187D01*
X290398Y185798D01*
X291149Y185597D01*
X291927D01*
X292678Y185798D01*
X293351Y186187D01*
X293901Y186737D01*
X294289Y187410D01*
X294491Y188161D01*
Y188938D01*
X294289Y189689D01*
X293901Y190363D01*
X293351Y190912D01*
X292678Y191301D01*
X291927Y191502D01*
X291149D01*
X290398Y191301D01*
X290223Y191200D01*
X289637Y191439D01*
X289363Y191913D01*
X288813Y192463D01*
X288140Y192851D01*
X287389Y193053D01*
D02*
G37*
G36*
X215443Y183642D02*
X214666D01*
X213915Y183440D01*
X213242Y183052D01*
X213000Y182810D01*
X212758Y183052D01*
X212085Y183440D01*
X211334Y183642D01*
X210557D01*
X209806Y183440D01*
X209132Y183052D01*
X208583Y182502D01*
X208194Y181829D01*
X207993Y181078D01*
Y180300D01*
X208194Y179549D01*
X208583Y178876D01*
X208633Y178826D01*
X208583Y178776D01*
X208194Y178103D01*
X207993Y177352D01*
Y176574D01*
X208194Y175823D01*
X208583Y175150D01*
X208633Y175100D01*
X208583Y175050D01*
X208194Y174377D01*
X207993Y173626D01*
Y172848D01*
X208194Y172097D01*
X208583Y171424D01*
X208633Y171374D01*
X208583Y171324D01*
X208194Y170651D01*
X207993Y169900D01*
Y169122D01*
X208194Y168371D01*
X208583Y167698D01*
X209132Y167148D01*
X209806Y166760D01*
X210557Y166558D01*
X211334D01*
X212085Y166760D01*
X212758Y167148D01*
X213000Y167390D01*
X213242Y167148D01*
X213915Y166760D01*
X214666Y166558D01*
X215443D01*
X216194Y166760D01*
X216868Y167148D01*
X217417Y167698D01*
X217806Y168371D01*
X218007Y169122D01*
Y169900D01*
X217806Y170651D01*
X217417Y171324D01*
X217367Y171374D01*
X217417Y171424D01*
X217806Y172097D01*
X218007Y172848D01*
Y173626D01*
X217806Y174377D01*
X217417Y175050D01*
X217367Y175100D01*
X217417Y175150D01*
X217806Y175823D01*
X218007Y176574D01*
Y177352D01*
X217806Y178103D01*
X217417Y178776D01*
X217367Y178826D01*
X217417Y178876D01*
X217806Y179549D01*
X218007Y180300D01*
Y181078D01*
X217806Y181829D01*
X217417Y182502D01*
X216868Y183052D01*
X216194Y183440D01*
X215443Y183642D01*
D02*
G37*
G36*
X269989Y185753D02*
X269211D01*
X268460Y185552D01*
X267787Y185163D01*
X267237Y184613D01*
X266848Y183940D01*
X266647Y183189D01*
Y182411D01*
X266848Y181660D01*
X267237Y180987D01*
X267787Y180437D01*
X268460Y180049D01*
X269211Y179847D01*
X269989D01*
X270740Y180049D01*
X271413Y180437D01*
X271963Y180987D01*
X272352Y181660D01*
X272553Y182411D01*
Y183189D01*
X272352Y183940D01*
X271963Y184613D01*
X271413Y185163D01*
X270740Y185552D01*
X269989Y185753D01*
D02*
G37*
G36*
X371273Y179973D02*
X370496D01*
X369744Y179772D01*
X369071Y179383D01*
X368521Y178833D01*
X368133Y178160D01*
X367931Y177409D01*
Y177405D01*
X367811D01*
X367060Y177203D01*
X366387Y176815D01*
X365837Y176265D01*
X365448Y175592D01*
X365247Y174841D01*
Y174063D01*
X365448Y173312D01*
X365837Y172639D01*
X366387Y172089D01*
X367060Y171700D01*
X367811Y171499D01*
X368589D01*
X369340Y171700D01*
X370013Y172089D01*
X370563Y172639D01*
X370952Y173312D01*
X371153Y174063D01*
Y174068D01*
X371273D01*
X372024Y174269D01*
X372697Y174658D01*
X373247Y175207D01*
X373636Y175881D01*
X373837Y176632D01*
Y177409D01*
X373636Y178160D01*
X373247Y178833D01*
X372697Y179383D01*
X372024Y179772D01*
X371273Y179973D01*
D02*
G37*
G36*
X408989Y170253D02*
X408211D01*
X407460Y170052D01*
X406787Y169663D01*
X406237Y169113D01*
X405849Y168440D01*
X405647Y167689D01*
Y166911D01*
X405849Y166160D01*
X406237Y165487D01*
X406787Y164937D01*
X407460Y164549D01*
X408211Y164347D01*
X408989D01*
X409740Y164549D01*
X410413Y164937D01*
X410963Y165487D01*
X411351Y166160D01*
X411553Y166911D01*
Y167689D01*
X411351Y168440D01*
X410963Y169113D01*
X410413Y169663D01*
X409740Y170052D01*
X408989Y170253D01*
D02*
G37*
G36*
X126372Y160852D02*
X125594D01*
X124844Y160651D01*
X124433Y160414D01*
X124023Y160651D01*
X123272Y160852D01*
X122494D01*
X121744Y160651D01*
X121333Y160414D01*
X120923Y160651D01*
X120172Y160852D01*
X119395D01*
X118643Y160651D01*
X118233Y160414D01*
X117823Y160651D01*
X117072Y160852D01*
X116295D01*
X115543Y160651D01*
X114870Y160262D01*
X114320Y159712D01*
X113932Y159039D01*
X113730Y158288D01*
Y157511D01*
X113932Y156760D01*
X114320Y156086D01*
X114870Y155537D01*
X115543Y155148D01*
X116295Y154947D01*
X117072D01*
X117823Y155148D01*
X118233Y155385D01*
X118643Y155148D01*
X119395Y154947D01*
X120172D01*
X120923Y155148D01*
X121333Y155385D01*
X121744Y155148D01*
X122494Y154947D01*
X123272D01*
X124023Y155148D01*
X124433Y155385D01*
X124844Y155148D01*
X125594Y154947D01*
X126372D01*
X127123Y155148D01*
X127796Y155537D01*
X128346Y156086D01*
X128735Y156760D01*
X128936Y157511D01*
Y158288D01*
X128735Y159039D01*
X128346Y159712D01*
X127796Y160262D01*
X127123Y160651D01*
X126372Y160852D01*
D02*
G37*
G36*
X400415Y162689D02*
X399637D01*
X398886Y162488D01*
X398213Y162100D01*
X397663Y161550D01*
X397274Y160877D01*
X397073Y160126D01*
Y159348D01*
X397274Y158597D01*
X397663Y157924D01*
X398213Y157374D01*
X398865Y156997D01*
X398886Y156900D01*
Y156570D01*
X398865Y156473D01*
X398213Y156097D01*
X398108Y155992D01*
X398003Y156097D01*
X397330Y156485D01*
X396579Y156687D01*
X395801D01*
X395050Y156485D01*
X394377Y156097D01*
X393827Y155547D01*
X393439Y154874D01*
X393237Y154122D01*
Y153345D01*
X393439Y152594D01*
X393827Y151921D01*
X394377Y151371D01*
X395050Y150982D01*
X395801Y150781D01*
X396579D01*
X397330Y150982D01*
X398003Y151371D01*
X398108Y151476D01*
X398213Y151371D01*
X398886Y150982D01*
X399637Y150781D01*
X400415D01*
X401166Y150982D01*
X401839Y151371D01*
X402389Y151921D01*
X402777Y152594D01*
X402979Y153345D01*
Y154122D01*
X402777Y154874D01*
X402389Y155547D01*
X401839Y156097D01*
X401187Y156473D01*
X401166Y156570D01*
Y156900D01*
X401187Y156997D01*
X401839Y157374D01*
X402389Y157924D01*
X402777Y158597D01*
X402979Y159348D01*
Y160126D01*
X402777Y160877D01*
X402389Y161550D01*
X401839Y162100D01*
X401166Y162488D01*
X400415Y162689D01*
D02*
G37*
G36*
X126372Y149652D02*
X125594D01*
X124844Y149451D01*
X124433Y149214D01*
X124023Y149451D01*
X123272Y149652D01*
X122494D01*
X121744Y149451D01*
X121333Y149214D01*
X120923Y149451D01*
X120172Y149652D01*
X119395D01*
X118643Y149451D01*
X118233Y149214D01*
X117823Y149451D01*
X117072Y149652D01*
X116295D01*
X115543Y149451D01*
X114870Y149062D01*
X114320Y148512D01*
X113932Y147839D01*
X113730Y147088D01*
Y146311D01*
X113932Y145560D01*
X114320Y144886D01*
X114870Y144337D01*
X115543Y143948D01*
X116295Y143747D01*
X117072D01*
X117823Y143948D01*
X118233Y144185D01*
X118643Y143948D01*
X119395Y143747D01*
X120172D01*
X120923Y143948D01*
X121333Y144185D01*
X121744Y143948D01*
X122494Y143747D01*
X123272D01*
X124023Y143948D01*
X124433Y144185D01*
X124844Y143948D01*
X125594Y143747D01*
X126372D01*
X127123Y143948D01*
X127796Y144337D01*
X128346Y144886D01*
X128735Y145560D01*
X128936Y146311D01*
Y147088D01*
X128735Y147839D01*
X128346Y148512D01*
X127796Y149062D01*
X127123Y149451D01*
X126372Y149652D01*
D02*
G37*
G36*
X400627Y148502D02*
X399849D01*
X399098Y148301D01*
X398425Y147912D01*
X398214Y147702D01*
X398003Y147912D01*
X397330Y148301D01*
X396579Y148502D01*
X395801D01*
X395050Y148301D01*
X394377Y147912D01*
X393827Y147363D01*
X393439Y146689D01*
X393237Y145938D01*
Y145161D01*
X393439Y144410D01*
X393827Y143737D01*
X394377Y143187D01*
X395050Y142798D01*
X395801Y142597D01*
X396579D01*
X397330Y142798D01*
X398003Y143187D01*
X398214Y143398D01*
X398425Y143187D01*
X398602Y143085D01*
Y142507D01*
X398213Y142282D01*
X397663Y141733D01*
X397274Y141060D01*
X397073Y140308D01*
Y139531D01*
X397274Y138780D01*
X397663Y138107D01*
X398213Y137557D01*
X398496Y137393D01*
Y136816D01*
X398213Y136653D01*
X397663Y136103D01*
X397274Y135430D01*
X397073Y134679D01*
Y133901D01*
X397274Y133150D01*
X397663Y132477D01*
X398213Y131927D01*
X398886Y131538D01*
X399637Y131337D01*
X400415D01*
X401166Y131538D01*
X401839Y131927D01*
X402389Y132477D01*
X402777Y133150D01*
X402979Y133901D01*
Y134679D01*
X402777Y135430D01*
X402389Y136103D01*
X401839Y136653D01*
X401556Y136816D01*
Y137393D01*
X401839Y137557D01*
X402389Y138107D01*
X402777Y138780D01*
X402979Y139531D01*
Y140308D01*
X402777Y141060D01*
X402389Y141733D01*
X401839Y142282D01*
X401662Y142385D01*
Y142962D01*
X402051Y143187D01*
X402601Y143737D01*
X402989Y144410D01*
X403191Y145161D01*
Y145938D01*
X402989Y146689D01*
X402601Y147363D01*
X402051Y147912D01*
X401378Y148301D01*
X400627Y148502D01*
D02*
G37*
G36*
X225764Y146850D02*
X224601D01*
X223460Y146623D01*
X222385Y146178D01*
X221418Y145532D01*
X220595Y144709D01*
X219949Y143742D01*
X219504Y142667D01*
X219277Y141526D01*
Y140363D01*
X219504Y139222D01*
X219949Y138147D01*
X220595Y137180D01*
X221418Y136358D01*
X222385Y135711D01*
X223460Y135266D01*
X224601Y135039D01*
X225764D01*
X226905Y135266D01*
X227979Y135711D01*
X228947Y136358D01*
X229769Y137180D01*
X230416Y138147D01*
X230861Y139222D01*
X231088Y140363D01*
Y141526D01*
X230861Y142667D01*
X230416Y143742D01*
X229769Y144709D01*
X228947Y145532D01*
X227979Y146178D01*
X226905Y146623D01*
X225764Y146850D01*
D02*
G37*
G36*
X295727Y139602D02*
X294949D01*
X294198Y139401D01*
X293525Y139012D01*
X292975Y138463D01*
X292586Y137789D01*
X292385Y137038D01*
Y136261D01*
X292586Y135510D01*
X292975Y134836D01*
X293525Y134287D01*
X294198Y133898D01*
X294949Y133697D01*
X295727D01*
X296478Y133898D01*
X297151Y134287D01*
X297701Y134836D01*
X298089Y135510D01*
X298291Y136261D01*
Y137038D01*
X298089Y137789D01*
X297701Y138463D01*
X297151Y139012D01*
X296478Y139401D01*
X295727Y139602D01*
D02*
G37*
G36*
X413057Y142972D02*
X412279D01*
X411528Y142771D01*
X410855Y142382D01*
X410305Y141832D01*
X409917Y141159D01*
X409715Y140408D01*
Y139631D01*
X409917Y138880D01*
X410305Y138206D01*
X410855Y137657D01*
X411308Y137395D01*
X411326Y136828D01*
X411125Y136712D01*
X410575Y136163D01*
X410186Y135489D01*
X409985Y134738D01*
Y133961D01*
X410186Y133210D01*
X410575Y132536D01*
X411125Y131987D01*
X411798Y131598D01*
X412549Y131397D01*
X413327D01*
X414078Y131598D01*
X414751Y131987D01*
X415301Y132536D01*
X415689Y133210D01*
X415891Y133961D01*
Y134738D01*
X415689Y135489D01*
X415301Y136163D01*
X414751Y136712D01*
X414298Y136974D01*
X414280Y137540D01*
X414481Y137657D01*
X415031Y138206D01*
X415420Y138880D01*
X415621Y139631D01*
Y140408D01*
X415420Y141159D01*
X415031Y141832D01*
X414481Y142382D01*
X413808Y142771D01*
X413057Y142972D01*
D02*
G37*
G36*
X363689Y133353D02*
X362911D01*
X362160Y133151D01*
X361487Y132763D01*
X360937Y132213D01*
X360548Y131540D01*
X360347Y130789D01*
Y130011D01*
X360548Y129260D01*
X360937Y128587D01*
X361487Y128037D01*
X362160Y127648D01*
X362911Y127447D01*
X363689D01*
X364440Y127648D01*
X365113Y128037D01*
X365663Y128587D01*
X366052Y129260D01*
X366253Y130011D01*
Y130789D01*
X366052Y131540D01*
X365663Y132213D01*
X365113Y132763D01*
X364440Y133151D01*
X363689Y133353D01*
D02*
G37*
G36*
X544739Y124076D02*
X543468D01*
Y121383D01*
X547866D01*
X547823Y121710D01*
X547504Y122480D01*
X546997Y123141D01*
X546336Y123648D01*
X545566Y123967D01*
X544739Y124076D01*
D02*
G37*
G36*
X542468D02*
X541196D01*
X540370Y123967D01*
X539600Y123648D01*
X538939Y123141D01*
X538431Y122480D01*
X538112Y121710D01*
X538069Y121383D01*
X542468D01*
Y124076D01*
D02*
G37*
G36*
X225884Y122968D02*
X225682D01*
Y118138D01*
X230513D01*
Y118340D01*
X230150Y119695D01*
X229448Y120911D01*
X228455Y121903D01*
X227240Y122605D01*
X225884Y122968D01*
D02*
G37*
G36*
X224682D02*
X224480D01*
X223125Y122605D01*
X221909Y121903D01*
X220917Y120911D01*
X220215Y119695D01*
X219851Y118340D01*
Y118138D01*
X224682D01*
Y122968D01*
D02*
G37*
G36*
X547866Y120383D02*
X543468D01*
Y117691D01*
X544739D01*
X545566Y117799D01*
X546336Y118119D01*
X546997Y118626D01*
X547504Y119287D01*
X547823Y120057D01*
X547866Y120383D01*
D02*
G37*
G36*
X542468D02*
X538069D01*
X538112Y120057D01*
X538431Y119287D01*
X538939Y118626D01*
X539600Y118119D01*
X540370Y117799D01*
X541196Y117691D01*
X542468D01*
Y120383D01*
D02*
G37*
G36*
X400958Y120802D02*
X400938D01*
Y117350D01*
X404391D01*
Y117370D01*
X404121Y118375D01*
X403601Y119277D01*
X402865Y120013D01*
X401964Y120533D01*
X400958Y120802D01*
D02*
G37*
G36*
X399938D02*
X399918D01*
X398912Y120533D01*
X398011Y120013D01*
X397275Y119277D01*
X396755Y118375D01*
X396485Y117370D01*
Y117350D01*
X399938D01*
Y120802D01*
D02*
G37*
G36*
X494969Y123122D02*
X494191D01*
X493440Y122921D01*
X492767Y122532D01*
X492217Y121982D01*
X491828Y121309D01*
X491627Y120558D01*
Y119780D01*
X491828Y119029D01*
X492217Y118356D01*
X492767Y117806D01*
X493440Y117417D01*
X494191Y117216D01*
X494969D01*
X495720Y117417D01*
X496393Y117806D01*
X496943Y118356D01*
X497331Y119029D01*
X497533Y119780D01*
Y120558D01*
X497331Y121309D01*
X496943Y121982D01*
X496393Y122532D01*
X495720Y122921D01*
X494969Y123122D01*
D02*
G37*
G36*
X336173Y124942D02*
X335396D01*
X334645Y124740D01*
X333971Y124352D01*
X333421Y123802D01*
X333033Y123129D01*
X332832Y122378D01*
Y121600D01*
X333033Y120849D01*
X333421Y120176D01*
X333971Y119626D01*
X334645Y119237D01*
X334821Y119190D01*
X334700Y118738D01*
Y117961D01*
X334901Y117210D01*
X335290Y116536D01*
X335840Y115987D01*
X336513Y115598D01*
X337264Y115397D01*
X338042D01*
X338793Y115598D01*
X339466Y115987D01*
X340016Y116536D01*
X340404Y117210D01*
X340606Y117961D01*
Y118738D01*
X340404Y119489D01*
X340016Y120163D01*
X339466Y120712D01*
X338793Y121101D01*
X338616Y121148D01*
X338737Y121600D01*
Y122378D01*
X338536Y123129D01*
X338147Y123802D01*
X337597Y124352D01*
X336924Y124740D01*
X336173Y124942D01*
D02*
G37*
G36*
X404391Y116349D02*
X400938D01*
Y112897D01*
X400958D01*
X401964Y113166D01*
X402865Y113687D01*
X403601Y114423D01*
X404121Y115324D01*
X404391Y116329D01*
Y116349D01*
D02*
G37*
G36*
X399938D02*
X396485D01*
Y116329D01*
X396755Y115324D01*
X397275Y114423D01*
X398011Y113687D01*
X398912Y113166D01*
X399918Y112897D01*
X399938D01*
Y116349D01*
D02*
G37*
G36*
X542901Y114662D02*
X542331Y114509D01*
X541699Y114145D01*
X541183Y113628D01*
X540818Y112996D01*
X540665Y112427D01*
X542901D01*
Y114662D01*
D02*
G37*
G36*
X424965Y121377D02*
X415910D01*
Y112322D01*
X424965D01*
Y121377D01*
D02*
G37*
G36*
X411034D02*
X409842D01*
X408690Y121069D01*
X407658Y120473D01*
X406815Y119630D01*
X406219Y118597D01*
X405910Y117446D01*
Y116253D01*
X406219Y115102D01*
X406815Y114070D01*
X407658Y113227D01*
X408690Y112631D01*
X409842Y112322D01*
X411034D01*
X412185Y112631D01*
X413218Y113227D01*
X414061Y114070D01*
X414657Y115102D01*
X414965Y116253D01*
Y117446D01*
X414657Y118597D01*
X414061Y119630D01*
X413218Y120473D01*
X412185Y121069D01*
X411034Y121377D01*
D02*
G37*
G36*
X391034D02*
X389842D01*
X388690Y121069D01*
X387658Y120473D01*
X386815Y119630D01*
X386219Y118597D01*
X385910Y117446D01*
Y116253D01*
X386219Y115102D01*
X386815Y114070D01*
X387658Y113227D01*
X388690Y112631D01*
X389842Y112322D01*
X391034D01*
X392185Y112631D01*
X393218Y113227D01*
X394061Y114070D01*
X394657Y115102D01*
X394965Y116253D01*
Y117446D01*
X394657Y118597D01*
X394061Y119630D01*
X393218Y120473D01*
X392185Y121069D01*
X391034Y121377D01*
D02*
G37*
G36*
X381034D02*
X379842D01*
X378690Y121069D01*
X377658Y120473D01*
X376815Y119630D01*
X376219Y118597D01*
X375910Y117446D01*
Y116253D01*
X376219Y115102D01*
X376815Y114070D01*
X377658Y113227D01*
X378690Y112631D01*
X379842Y112322D01*
X381034D01*
X382185Y112631D01*
X383218Y113227D01*
X384061Y114070D01*
X384657Y115102D01*
X384965Y116253D01*
Y117446D01*
X384657Y118597D01*
X384061Y119630D01*
X383218Y120473D01*
X382185Y121069D01*
X381034Y121377D01*
D02*
G37*
G36*
X371034D02*
X369842D01*
X368690Y121069D01*
X367658Y120473D01*
X366815Y119630D01*
X366219Y118597D01*
X365910Y117446D01*
Y116253D01*
X366219Y115102D01*
X366815Y114070D01*
X367658Y113227D01*
X368690Y112631D01*
X369842Y112322D01*
X371034D01*
X372185Y112631D01*
X373218Y113227D01*
X374061Y114070D01*
X374657Y115102D01*
X374965Y116253D01*
Y117446D01*
X374657Y118597D01*
X374061Y119630D01*
X373218Y120473D01*
X372185Y121069D01*
X371034Y121377D01*
D02*
G37*
G36*
X230513Y117138D02*
X225682D01*
Y112307D01*
X225884D01*
X227240Y112670D01*
X228455Y113372D01*
X229448Y114365D01*
X230150Y115580D01*
X230513Y116936D01*
Y117138D01*
D02*
G37*
G36*
X224682D02*
X219851D01*
Y116936D01*
X220215Y115580D01*
X220917Y114365D01*
X221909Y113372D01*
X223125Y112670D01*
X224480Y112307D01*
X224682D01*
Y117138D01*
D02*
G37*
G36*
X543901Y114662D02*
Y111927D01*
X543401D01*
Y111427D01*
X540665D01*
X540818Y110857D01*
X541183Y110225D01*
X541345Y110063D01*
X541346Y109486D01*
X540723Y108863D01*
X540282Y108100D01*
X540054Y107249D01*
Y106368D01*
X540282Y105517D01*
X540723Y104754D01*
X541227Y104250D01*
X540723Y103745D01*
X540282Y102982D01*
X540054Y102131D01*
Y101250D01*
X540282Y100399D01*
X540723Y99636D01*
X541346Y99013D01*
X542109Y98572D01*
X542960Y98344D01*
X543841D01*
X544693Y98572D01*
X545456Y99013D01*
X546079Y99636D01*
X546519Y100399D01*
X546671Y100964D01*
X546897Y100903D01*
X547778D01*
X548630Y101131D01*
X549393Y101572D01*
X550016Y102195D01*
X550456Y102958D01*
X550684Y103809D01*
Y104690D01*
X550456Y105541D01*
X550016Y106304D01*
X549511Y106809D01*
X550016Y107313D01*
X550456Y108076D01*
X550684Y108927D01*
Y109808D01*
X550456Y110659D01*
X550016Y111422D01*
X549393Y112046D01*
X548630Y112486D01*
X547778Y112714D01*
X546897D01*
X546115Y112505D01*
X545984Y112996D01*
X545619Y113628D01*
X545103Y114145D01*
X544471Y114509D01*
X543901Y114662D01*
D02*
G37*
G36*
X544739Y95926D02*
X543468D01*
Y93234D01*
X547866D01*
X547823Y93560D01*
X547504Y94330D01*
X546997Y94991D01*
X546336Y95499D01*
X545566Y95818D01*
X544739Y95926D01*
D02*
G37*
G36*
X542468D02*
X541196D01*
X540370Y95818D01*
X539600Y95499D01*
X538939Y94991D01*
X538431Y94330D01*
X538112Y93560D01*
X538069Y93234D01*
X542468D01*
Y95926D01*
D02*
G37*
G36*
X391989Y98953D02*
X391211D01*
X390460Y98751D01*
X389787Y98363D01*
X389237Y97813D01*
X388848Y97140D01*
X388647Y96389D01*
Y95611D01*
X388848Y94860D01*
X389237Y94187D01*
X389787Y93637D01*
X390460Y93248D01*
X391211Y93047D01*
X391989D01*
X392740Y93248D01*
X393413Y93637D01*
X393963Y94187D01*
X394352Y94860D01*
X394553Y95611D01*
Y96389D01*
X394352Y97140D01*
X393963Y97813D01*
X393413Y98363D01*
X392740Y98751D01*
X391989Y98953D01*
D02*
G37*
G36*
X547866Y92234D02*
X543468D01*
Y89541D01*
X544739D01*
X545566Y89650D01*
X546336Y89969D01*
X546997Y90476D01*
X547504Y91137D01*
X547823Y91908D01*
X547866Y92234D01*
D02*
G37*
G36*
X542468D02*
X538069D01*
X538112Y91908D01*
X538431Y91137D01*
X538939Y90476D01*
X539600Y89969D01*
X540370Y89650D01*
X541196Y89541D01*
X542468D01*
Y92234D01*
D02*
G37*
G36*
X225764Y100236D02*
X224601D01*
X223460Y100009D01*
X222385Y99564D01*
X221418Y98918D01*
X220595Y98095D01*
X219949Y97128D01*
X219504Y96053D01*
X219277Y94912D01*
Y93749D01*
X219504Y92608D01*
X219949Y91533D01*
X220595Y90566D01*
X221418Y89744D01*
X222385Y89097D01*
X223460Y88652D01*
X224601Y88425D01*
X225764D01*
X226905Y88652D01*
X227979Y89097D01*
X228947Y89744D01*
X229769Y90566D01*
X230416Y91533D01*
X230861Y92608D01*
X231088Y93749D01*
Y94912D01*
X230861Y96053D01*
X230416Y97128D01*
X229769Y98095D01*
X228947Y98918D01*
X227979Y99564D01*
X226905Y100009D01*
X225764Y100236D01*
D02*
G37*
G36*
X119628Y84113D02*
X118851D01*
X118100Y83912D01*
X117427Y83523D01*
X116877Y82973D01*
X116488Y82300D01*
X116287Y81549D01*
Y80772D01*
X116488Y80021D01*
X116877Y79347D01*
X116928Y79296D01*
X116549Y78640D01*
X116347Y77889D01*
Y77111D01*
X116549Y76360D01*
X116937Y75687D01*
X117487Y75137D01*
X118160Y74748D01*
X118911Y74547D01*
X119689D01*
X120440Y74748D01*
X121113Y75137D01*
X121663Y75687D01*
X122052Y76360D01*
X122253Y77111D01*
Y77889D01*
X122052Y78640D01*
X121663Y79313D01*
X121612Y79364D01*
X121991Y80021D01*
X122192Y80772D01*
Y81549D01*
X121991Y82300D01*
X121602Y82973D01*
X121053Y83523D01*
X120379Y83912D01*
X119628Y84113D01*
D02*
G37*
G36*
X238221Y77890D02*
X237444D01*
X236693Y77689D01*
X236019Y77301D01*
X235470Y76751D01*
X235081Y76078D01*
X234880Y75327D01*
Y74549D01*
X235081Y73798D01*
X235470Y73125D01*
X236019Y72575D01*
X236693Y72186D01*
X237444Y71985D01*
X238221D01*
X238972Y72186D01*
X239645Y72575D01*
X240195Y73125D01*
X240584Y73798D01*
X240785Y74549D01*
Y75327D01*
X240584Y76078D01*
X240195Y76751D01*
X239645Y77301D01*
X238972Y77689D01*
X238221Y77890D01*
D02*
G37*
G36*
X280389Y69553D02*
X279611D01*
X278860Y69352D01*
X278450Y69115D01*
X278040Y69352D01*
X277289Y69553D01*
X276511D01*
X275760Y69352D01*
X275350Y69115D01*
X274940Y69352D01*
X274189Y69553D01*
X273411D01*
X272660Y69352D01*
X272250Y69115D01*
X271840Y69352D01*
X271089Y69553D01*
X270311D01*
X269560Y69352D01*
X268887Y68963D01*
X268337Y68413D01*
X267949Y67740D01*
X267747Y66989D01*
Y66211D01*
X267949Y65460D01*
X268128Y65150D01*
X267949Y64840D01*
X267747Y64089D01*
Y63311D01*
X267949Y62560D01*
X268337Y61887D01*
X268887Y61337D01*
X269560Y60948D01*
X270311Y60747D01*
X271089D01*
X271840Y60948D01*
X272513Y61337D01*
X273063Y61887D01*
X273451Y62560D01*
X273541Y62895D01*
X274059D01*
X274149Y62560D01*
X274537Y61887D01*
X275087Y61337D01*
X275760Y60948D01*
X276511Y60747D01*
X277289D01*
X278040Y60948D01*
X278450Y61185D01*
X278860Y60948D01*
X279611Y60747D01*
X280389D01*
X281140Y60948D01*
X281813Y61337D01*
X282363Y61887D01*
X282751Y62560D01*
X282953Y63311D01*
Y64089D01*
X282751Y64840D01*
X282572Y65150D01*
X282751Y65460D01*
X282953Y66211D01*
Y66989D01*
X282751Y67740D01*
X282363Y68413D01*
X281813Y68963D01*
X281140Y69352D01*
X280389Y69553D01*
D02*
G37*
G36*
X339073Y68066D02*
X338819D01*
Y62842D01*
X344044D01*
Y63095D01*
X343653Y64551D01*
X342900Y65856D01*
X341834Y66922D01*
X340529Y67676D01*
X339073Y68066D01*
D02*
G37*
G36*
X337819D02*
X337566D01*
X336110Y67676D01*
X334804Y66922D01*
X333738Y65856D01*
X332985Y64551D01*
X332595Y63095D01*
Y62842D01*
X337819D01*
Y68066D01*
D02*
G37*
G36*
X319073D02*
X318819D01*
Y62842D01*
X324043D01*
Y63095D01*
X323653Y64551D01*
X322900Y65856D01*
X321834Y66922D01*
X320529Y67676D01*
X319073Y68066D01*
D02*
G37*
G36*
X317819D02*
X317565D01*
X316109Y67676D01*
X314804Y66922D01*
X313738Y65856D01*
X312985Y64551D01*
X312595Y63095D01*
Y62842D01*
X317819D01*
Y68066D01*
D02*
G37*
G36*
X344044Y61842D02*
X338819D01*
Y56617D01*
X339073D01*
X340529Y57007D01*
X341834Y57761D01*
X342900Y58827D01*
X343653Y60132D01*
X344044Y61588D01*
Y61842D01*
D02*
G37*
G36*
X337819D02*
X332595D01*
Y61588D01*
X332985Y60132D01*
X333738Y58827D01*
X334804Y57761D01*
X336110Y57007D01*
X337566Y56617D01*
X337819D01*
Y61842D01*
D02*
G37*
G36*
X324043Y61842D02*
X318819D01*
Y56617D01*
X319073D01*
X320529Y57007D01*
X321834Y57761D01*
X322900Y58827D01*
X323653Y60132D01*
X324043Y61588D01*
Y61842D01*
D02*
G37*
G36*
X317819D02*
X312595D01*
Y61588D01*
X312985Y60132D01*
X313738Y58827D01*
X314804Y57761D01*
X316109Y57007D01*
X317565Y56617D01*
X317819D01*
Y61842D01*
D02*
G37*
G36*
X124289Y55253D02*
X123511D01*
X122760Y55051D01*
X122350Y54815D01*
X121940Y55051D01*
X121189Y55253D01*
X120411D01*
X119660Y55051D01*
X119250Y54815D01*
X118840Y55051D01*
X118089Y55253D01*
X117311D01*
X116560Y55051D01*
X116150Y54815D01*
X115740Y55051D01*
X114989Y55253D01*
X114211D01*
X113460Y55051D01*
X112787Y54663D01*
X112237Y54113D01*
X111848Y53440D01*
X111647Y52689D01*
Y51911D01*
X111848Y51160D01*
X112237Y50487D01*
X112787Y49937D01*
X113460Y49549D01*
X114211Y49347D01*
X114989D01*
X115740Y49549D01*
X116150Y49785D01*
X116560Y49549D01*
X117311Y49347D01*
X118089D01*
X118840Y49549D01*
X119250Y49785D01*
X119660Y49549D01*
X120411Y49347D01*
X121189D01*
X121940Y49549D01*
X122350Y49785D01*
X122760Y49549D01*
X123511Y49347D01*
X124289D01*
X125040Y49549D01*
X125713Y49937D01*
X126263Y50487D01*
X126652Y51160D01*
X126853Y51911D01*
Y52689D01*
X126652Y53440D01*
X126263Y54113D01*
X125713Y54663D01*
X125040Y55051D01*
X124289Y55253D01*
D02*
G37*
G36*
X328901Y58247D02*
X327738D01*
X326597Y58020D01*
X325522Y57575D01*
X324555Y56929D01*
X323732Y56106D01*
X323086Y55139D01*
X322641Y54064D01*
X322414Y52923D01*
Y51760D01*
X322641Y50619D01*
X323086Y49544D01*
X323732Y48577D01*
X324555Y47754D01*
X325522Y47108D01*
X326597Y46663D01*
X327738Y46436D01*
X328901D01*
X330042Y46663D01*
X331117Y47108D01*
X332084Y47754D01*
X332906Y48577D01*
X333553Y49544D01*
X333998Y50619D01*
X334225Y51760D01*
Y52923D01*
X333998Y54064D01*
X333553Y55139D01*
X332906Y56106D01*
X332084Y56929D01*
X331117Y57575D01*
X330042Y58020D01*
X328901Y58247D01*
D02*
G37*
G36*
X124289Y44053D02*
X123511D01*
X122760Y43852D01*
X122350Y43615D01*
X121940Y43852D01*
X121189Y44053D01*
X120411D01*
X119660Y43852D01*
X119250Y43615D01*
X118840Y43852D01*
X118089Y44053D01*
X117311D01*
X116560Y43852D01*
X116150Y43615D01*
X115740Y43852D01*
X114989Y44053D01*
X114211D01*
X113460Y43852D01*
X112787Y43463D01*
X112237Y42913D01*
X111848Y42240D01*
X111647Y41489D01*
Y40711D01*
X111848Y39960D01*
X112237Y39287D01*
X112787Y38737D01*
X113460Y38348D01*
X114211Y38147D01*
X114989D01*
X115740Y38348D01*
X116150Y38585D01*
X116560Y38348D01*
X117311Y38147D01*
X118089D01*
X118840Y38348D01*
X119250Y38585D01*
X119660Y38348D01*
X120411Y38147D01*
X121189D01*
X121940Y38348D01*
X122350Y38585D01*
X122760Y38348D01*
X123511Y38147D01*
X124289D01*
X125040Y38348D01*
X125713Y38737D01*
X126263Y39287D01*
X126652Y39960D01*
X126853Y40711D01*
Y41489D01*
X126652Y42240D01*
X126263Y42913D01*
X125713Y43463D01*
X125040Y43852D01*
X124289Y44053D01*
D02*
G37*
G36*
X339073Y48066D02*
X338819D01*
Y42842D01*
X344044D01*
Y43095D01*
X343653Y44551D01*
X342900Y45856D01*
X341834Y46922D01*
X340529Y47676D01*
X339073Y48066D01*
D02*
G37*
G36*
X337819D02*
X337566D01*
X336110Y47676D01*
X334804Y46922D01*
X333738Y45856D01*
X332985Y44551D01*
X332595Y43095D01*
Y42842D01*
X337819D01*
Y48066D01*
D02*
G37*
G36*
X319073D02*
X318819D01*
Y42842D01*
X324043D01*
Y43095D01*
X323653Y44551D01*
X322900Y45856D01*
X321834Y46922D01*
X320529Y47676D01*
X319073Y48066D01*
D02*
G37*
G36*
X317819D02*
X317565D01*
X316109Y47676D01*
X314804Y46922D01*
X313738Y45856D01*
X312985Y44551D01*
X312595Y43095D01*
Y42842D01*
X317819D01*
Y48066D01*
D02*
G37*
G36*
X344044Y41842D02*
X338819D01*
Y36617D01*
X339073D01*
X340529Y37007D01*
X341834Y37761D01*
X342900Y38827D01*
X343653Y40132D01*
X344044Y41588D01*
Y41842D01*
D02*
G37*
G36*
X337819D02*
X332595D01*
Y41588D01*
X332985Y40132D01*
X333738Y38827D01*
X334804Y37761D01*
X336110Y37007D01*
X337566Y36617D01*
X337819D01*
Y41842D01*
D02*
G37*
G36*
X324043Y41842D02*
X318819D01*
Y36617D01*
X319073D01*
X320529Y37007D01*
X321834Y37761D01*
X322900Y38827D01*
X323653Y40132D01*
X324043Y41588D01*
Y41842D01*
D02*
G37*
G36*
X317819D02*
X312595D01*
Y41588D01*
X312985Y40132D01*
X313738Y38827D01*
X314804Y37761D01*
X316109Y37007D01*
X317565Y36617D01*
X317819D01*
Y41842D01*
D02*
G37*
G36*
X520614Y11811D02*
X518755D01*
X516919Y11520D01*
X515151Y10946D01*
X513495Y10102D01*
X511991Y9009D01*
X510676Y7694D01*
X509583Y6190D01*
X508739Y4534D01*
X508165Y2766D01*
X507874Y930D01*
Y-930D01*
X508165Y-2766D01*
X508739Y-4534D01*
X509583Y-6190D01*
X510676Y-7694D01*
X511991Y-9009D01*
X513495Y-10102D01*
X515151Y-10946D01*
X516919Y-11520D01*
X518755Y-11811D01*
X520614D01*
X522451Y-11520D01*
X524219Y-10946D01*
X525875Y-10102D01*
X527379Y-9009D01*
X528694Y-7694D01*
X529787Y-6190D01*
X530631Y-4534D01*
X531205Y-2766D01*
X531496Y-930D01*
Y930D01*
X531205Y2766D01*
X530631Y4534D01*
X529787Y6190D01*
X528694Y7694D01*
X527379Y9009D01*
X525875Y10102D01*
X524219Y10946D01*
X522451Y11520D01*
X520614Y11811D01*
D02*
G37*
G36*
X272521Y-9709D02*
X271744D01*
X270993Y-9911D01*
X270319Y-10299D01*
X269770Y-10849D01*
X269381Y-11523D01*
X269180Y-12274D01*
Y-13051D01*
X269381Y-13802D01*
X269770Y-14475D01*
X270319Y-15025D01*
X270993Y-15414D01*
X271744Y-15615D01*
X272521D01*
X273272Y-15414D01*
X273945Y-15025D01*
X274495Y-14475D01*
X274884Y-13802D01*
X275085Y-13051D01*
Y-12274D01*
X274884Y-11523D01*
X274495Y-10849D01*
X273945Y-10299D01*
X273272Y-9911D01*
X272521Y-9709D01*
D02*
G37*
G36*
X272121Y-16710D02*
X271344D01*
X270593Y-16911D01*
X269919Y-17299D01*
X269370Y-17849D01*
X268981Y-18522D01*
X268780Y-19274D01*
Y-20051D01*
X268981Y-20802D01*
X269370Y-21475D01*
X269919Y-22025D01*
X270593Y-22414D01*
X271344Y-22615D01*
X272121D01*
X272843Y-22422D01*
X272924Y-22475D01*
X273201Y-22801D01*
X273076Y-23018D01*
X272875Y-23769D01*
Y-24546D01*
X273076Y-25297D01*
X273465Y-25971D01*
X274015Y-26520D01*
X274688Y-26909D01*
X275439Y-27110D01*
X275844D01*
X275932Y-27439D01*
X276320Y-28112D01*
X276870Y-28662D01*
X277543Y-29050D01*
X278294Y-29252D01*
X279072D01*
X279823Y-29050D01*
X280496Y-28662D01*
X281046Y-28112D01*
X281435Y-27439D01*
X281636Y-26687D01*
Y-25910D01*
X281435Y-25159D01*
X281046Y-24486D01*
X280496Y-23936D01*
X279823Y-23547D01*
X279072Y-23346D01*
X278667D01*
X278579Y-23018D01*
X278191Y-22345D01*
X277641Y-21795D01*
X276968Y-21406D01*
X276217Y-21205D01*
X275439D01*
X274717Y-21398D01*
X274636Y-21345D01*
X274359Y-21019D01*
X274484Y-20802D01*
X274685Y-20051D01*
Y-19274D01*
X274484Y-18522D01*
X274095Y-17849D01*
X273545Y-17299D01*
X272872Y-16911D01*
X272121Y-16710D01*
D02*
G37*
G36*
X119855Y-21486D02*
X119078D01*
X118326Y-21688D01*
X117653Y-22076D01*
X117103Y-22626D01*
X116715Y-23300D01*
X116513Y-24050D01*
Y-24828D01*
X116715Y-25579D01*
X117103Y-26252D01*
X117154Y-26303D01*
X116775Y-26960D01*
X116574Y-27711D01*
Y-28488D01*
X116775Y-29239D01*
X117164Y-29913D01*
X117714Y-30462D01*
X118387Y-30851D01*
X119138Y-31052D01*
X119915D01*
X120666Y-30851D01*
X121340Y-30462D01*
X121889Y-29913D01*
X122278Y-29239D01*
X122479Y-28488D01*
Y-27711D01*
X122278Y-26960D01*
X121889Y-26287D01*
X121838Y-26236D01*
X122218Y-25579D01*
X122419Y-24828D01*
Y-24050D01*
X122218Y-23300D01*
X121829Y-22626D01*
X121279Y-22076D01*
X120606Y-21688D01*
X119855Y-21486D01*
D02*
G37*
%LPD*%
D146*
X543401Y111927D02*
D03*
D147*
X542968Y120883D02*
D03*
Y92734D02*
D03*
D148*
X561238Y261950D02*
D03*
X400438Y116850D02*
D03*
D149*
X446138Y202950D02*
D03*
Y212949D02*
D03*
X229525Y350719D02*
D03*
X269525Y350718D02*
D03*
D151*
X488838Y366983D02*
D03*
D152*
X225182Y117638D02*
D03*
D153*
X318319Y42342D02*
D03*
X338319D02*
D03*
X318319Y62342D02*
D03*
X338319D02*
D03*
D157*
X333563Y180512D02*
D03*
Y168701D02*
D03*
Y156890D02*
D03*
Y145079D02*
D03*
X321752Y180512D02*
D03*
Y168701D02*
D03*
Y156890D02*
D03*
Y145079D02*
D03*
X309941Y180512D02*
D03*
Y168701D02*
D03*
Y156890D02*
D03*
Y145079D02*
D03*
X554036Y306496D02*
D03*
Y251378D02*
D03*
Y223819D02*
D03*
Y58465D02*
D03*
X526477Y223819D02*
D03*
Y168701D02*
D03*
Y141142D02*
D03*
Y86024D02*
D03*
Y58465D02*
D03*
Y30906D02*
D03*
Y-24213D02*
D03*
X498918Y361614D02*
D03*
Y334055D02*
D03*
Y278937D02*
D03*
Y251378D02*
D03*
Y223819D02*
D03*
Y168701D02*
D03*
Y141142D02*
D03*
Y86024D02*
D03*
Y58465D02*
D03*
Y30906D02*
D03*
Y3347D02*
D03*
Y-24213D02*
D03*
X471358Y361614D02*
D03*
Y334055D02*
D03*
Y223819D02*
D03*
Y196260D02*
D03*
Y141142D02*
D03*
Y113583D02*
D03*
Y86024D02*
D03*
Y58465D02*
D03*
Y30906D02*
D03*
Y3347D02*
D03*
Y-24213D02*
D03*
X443799Y361614D02*
D03*
Y334055D02*
D03*
Y306496D02*
D03*
Y278937D02*
D03*
Y196260D02*
D03*
Y141142D02*
D03*
Y113583D02*
D03*
Y58465D02*
D03*
Y30906D02*
D03*
Y3347D02*
D03*
X416240Y361614D02*
D03*
Y196260D02*
D03*
Y58465D02*
D03*
Y30906D02*
D03*
Y3347D02*
D03*
X388681Y223819D02*
D03*
Y196260D02*
D03*
Y58465D02*
D03*
Y30906D02*
D03*
Y3347D02*
D03*
X361122Y334055D02*
D03*
Y196260D02*
D03*
Y-24213D02*
D03*
X333563Y278937D02*
D03*
Y86024D02*
D03*
Y3347D02*
D03*
X306004Y361614D02*
D03*
Y334055D02*
D03*
Y306496D02*
D03*
Y278937D02*
D03*
Y223819D02*
D03*
Y86024D02*
D03*
Y30906D02*
D03*
Y3347D02*
D03*
Y-24213D02*
D03*
X278445Y361614D02*
D03*
Y334055D02*
D03*
Y306496D02*
D03*
Y278937D02*
D03*
Y251378D02*
D03*
Y196260D02*
D03*
Y168701D02*
D03*
Y141142D02*
D03*
Y113583D02*
D03*
Y86024D02*
D03*
Y58465D02*
D03*
Y30906D02*
D03*
X250886Y361614D02*
D03*
Y306496D02*
D03*
Y278937D02*
D03*
Y251378D02*
D03*
Y196260D02*
D03*
Y168701D02*
D03*
Y30906D02*
D03*
Y3347D02*
D03*
X223327Y361614D02*
D03*
Y334055D02*
D03*
Y278937D02*
D03*
Y251378D02*
D03*
Y196260D02*
D03*
Y168701D02*
D03*
Y86024D02*
D03*
Y30906D02*
D03*
Y3347D02*
D03*
X195768Y141142D02*
D03*
Y113583D02*
D03*
Y86024D02*
D03*
Y58465D02*
D03*
Y30906D02*
D03*
Y3347D02*
D03*
Y-24213D02*
D03*
X168209Y113583D02*
D03*
Y86024D02*
D03*
Y58465D02*
D03*
Y3347D02*
D03*
Y-24213D02*
D03*
X140650Y168701D02*
D03*
Y113583D02*
D03*
Y86024D02*
D03*
Y58465D02*
D03*
Y3347D02*
D03*
Y-24213D02*
D03*
X113091Y168701D02*
D03*
Y58465D02*
D03*
X85532Y141142D02*
D03*
Y86024D02*
D03*
Y30906D02*
D03*
Y-24213D02*
D03*
X526800Y264800D02*
D03*
X531200Y268600D02*
D03*
X475400Y328000D02*
D03*
X471900Y263500D02*
D03*
X489227D02*
D03*
X480563D02*
D03*
X232100Y304900D02*
D03*
X322400Y48400D02*
D03*
X313700D02*
D03*
X322200Y56200D02*
D03*
X314000D02*
D03*
X301758Y57516D02*
D03*
X300400Y47800D02*
D03*
X287500Y47500D02*
D03*
X284100Y45400D02*
D03*
X280600D02*
D03*
X276800D02*
D03*
X284500Y55800D02*
D03*
X281100Y53600D02*
D03*
X277000D02*
D03*
X220500Y279900D02*
D03*
X126891Y-24855D02*
D03*
X137391D02*
D03*
Y-21611D02*
D03*
X126891D02*
D03*
X126829Y83993D02*
D03*
X137329D02*
D03*
Y80750D02*
D03*
X126829D02*
D03*
X110951Y82992D02*
D03*
X111177Y-22607D02*
D03*
X132926Y2196D02*
D03*
X132469Y54643D02*
D03*
X134400Y159900D02*
D03*
X289231Y227494D02*
D03*
X289300Y216500D02*
D03*
X322168Y282924D02*
D03*
X322135Y273881D02*
D03*
X353530Y278418D02*
D03*
X362573Y278386D02*
D03*
X510259Y296037D02*
D03*
X499226Y285036D02*
D03*
X488224Y296070D02*
D03*
X499258Y307071D02*
D03*
X488224Y302566D02*
D03*
X492762Y307071D02*
D03*
X505754D02*
D03*
X510259Y302533D02*
D03*
Y289541D02*
D03*
X505722Y285036D02*
D03*
X492730D02*
D03*
X488224Y289574D02*
D03*
X468197Y141384D02*
D03*
X459154Y141417D02*
D03*
X474125Y134151D02*
D03*
X474093Y175895D02*
D03*
X332249Y-24241D02*
D03*
X332216Y23409D02*
D03*
X283616Y-6817D02*
D03*
Y-16817D02*
D03*
X204805Y23612D02*
D03*
X222926Y-32D02*
D03*
X248910D02*
D03*
X257571D02*
D03*
X266616Y27943D02*
D03*
Y40935D02*
D03*
Y45266D02*
D03*
Y53927D02*
D03*
X248878Y60216D02*
D03*
X244547D02*
D03*
X240200Y60200D02*
D03*
X213490Y72193D02*
D03*
X233655Y79245D02*
D03*
X264355Y79145D02*
D03*
X287211Y82573D02*
D03*
X279741Y80655D02*
D03*
X275043D02*
D03*
X270300Y80700D02*
D03*
X106319Y7449D02*
D03*
Y10785D02*
D03*
Y14122D02*
D03*
X106024Y119721D02*
D03*
Y116385D02*
D03*
Y113048D02*
D03*
X321739Y97378D02*
D03*
X313458D02*
D03*
X305100Y97300D02*
D03*
X451163Y85341D02*
D03*
X442895D02*
D03*
X434627D02*
D03*
X426300Y85400D02*
D03*
X378400Y182400D02*
D03*
X204300Y250900D02*
D03*
X248400Y228000D02*
D03*
X204400Y216000D02*
D03*
X162600Y172630D02*
D03*
X172200Y178640D02*
D03*
Y185200D02*
D03*
X209400Y161700D02*
D03*
X202100D02*
D03*
X205700Y188800D02*
D03*
X262992Y120391D02*
D03*
Y116665D02*
D03*
Y112939D02*
D03*
Y109213D02*
D03*
X247883D02*
D03*
Y112939D02*
D03*
Y116665D02*
D03*
Y120391D02*
D03*
X96365Y146699D02*
D03*
X92639D02*
D03*
X88913D02*
D03*
X85187D02*
D03*
X94282Y56209D02*
D03*
X90556D02*
D03*
X86830D02*
D03*
X83104D02*
D03*
Y41100D02*
D03*
X86830D02*
D03*
X90556D02*
D03*
X94282D02*
D03*
X64195Y22601D02*
D03*
Y19264D02*
D03*
Y15928D02*
D03*
Y12592D02*
D03*
Y9255D02*
D03*
Y5919D02*
D03*
Y2582D02*
D03*
Y-754D02*
D03*
Y-4090D02*
D03*
Y-7427D02*
D03*
Y-10763D02*
D03*
Y-14099D02*
D03*
X63900Y91500D02*
D03*
Y94836D02*
D03*
Y98173D02*
D03*
Y101509D02*
D03*
Y104845D02*
D03*
Y108182D02*
D03*
Y111518D02*
D03*
Y114855D02*
D03*
Y118191D02*
D03*
Y121527D02*
D03*
Y124864D02*
D03*
Y128200D02*
D03*
X269100Y193600D02*
D03*
X308900Y221400D02*
D03*
X527138Y340750D02*
D03*
X532038Y333050D02*
D03*
X535300Y196098D02*
D03*
X513170Y202418D02*
D03*
Y237851D02*
D03*
Y241788D02*
D03*
X561306Y237913D02*
D03*
X497638Y219850D02*
D03*
X497838Y186350D02*
D03*
X490238Y191950D02*
D03*
X291538Y193950D02*
D03*
X373438Y191350D02*
D03*
X357038Y124950D02*
D03*
X286838Y145150D02*
D03*
X289838Y136650D02*
D03*
X308367Y235528D02*
D03*
X338243Y235528D02*
D03*
X353650Y218336D02*
D03*
X329538Y218449D02*
D03*
X328343Y231450D02*
D03*
X354643D02*
D03*
X341493D02*
D03*
X424338Y177547D02*
D03*
Y141327D02*
D03*
Y148413D02*
D03*
Y158650D02*
D03*
X494638Y110750D02*
D03*
X411738Y178749D02*
D03*
X380531Y274649D02*
D03*
X387031D02*
D03*
X419331D02*
D03*
X425831D02*
D03*
X387031Y277893D02*
D03*
X425831D02*
D03*
X380531D02*
D03*
X419331D02*
D03*
X321531Y288219D02*
D03*
X330531D02*
D03*
X326031D02*
D03*
Y295386D02*
D03*
X321531D02*
D03*
X330531D02*
D03*
X419331Y309886D02*
D03*
X425831D02*
D03*
X387031D02*
D03*
X380531D02*
D03*
X425831Y313129D02*
D03*
X419331D02*
D03*
X380531D02*
D03*
X387031D02*
D03*
X408338Y89450D02*
D03*
X402738Y96050D02*
D03*
X280738Y21650D02*
D03*
X252732Y73438D02*
D03*
X309333Y65519D02*
D03*
X297118Y67238D02*
D03*
X291232D02*
D03*
X267095Y-23652D02*
D03*
X243666Y-23362D02*
D03*
X232277Y-23962D02*
D03*
X220889Y-23712D02*
D03*
M02*
