G04*
G04 #@! TF.GenerationSoftware,Altium Limited,Altium Designer,21.8.1 (53)*
G04*
G04 Layer_Physical_Order=2*
G04 Layer_Color=36540*
%FSLAX25Y25*%
%MOIN*%
G70*
G04*
G04 #@! TF.SameCoordinates,3454F2FE-2F19-4CCB-A9DF-A7C270953791*
G04*
G04*
G04 #@! TF.FilePolarity,Positive*
G04*
G01*
G75*
%ADD15C,0.01968*%
%ADD49R,0.05906X0.05906*%
%ADD138C,0.03937*%
%ADD139C,0.07874*%
%ADD149C,0.07874*%
%ADD152C,0.08661*%
%ADD156R,0.05906X0.05906*%
%ADD157C,0.02756*%
%ADD158R,0.12200X0.14400*%
G36*
X258260Y309400D02*
X251457D01*
X251275Y309449D01*
X250497D01*
X250315Y309400D01*
X218149D01*
X217808Y309844D01*
X217068Y310413D01*
X216206Y310770D01*
X215281Y310891D01*
X200817D01*
X199892Y310770D01*
X199030Y310413D01*
X198290Y309844D01*
X194473Y306027D01*
X193905Y305287D01*
X193548Y304425D01*
X193426Y303500D01*
Y155800D01*
X193548Y154875D01*
X193905Y154013D01*
X194473Y153273D01*
X198003Y149742D01*
X197812Y149281D01*
X129006D01*
Y159300D01*
X128883Y159915D01*
X128535Y160435D01*
X128015Y160783D01*
X127400Y160906D01*
X115200D01*
X114585Y160783D01*
X114065Y160435D01*
X113717Y159915D01*
X113594Y159300D01*
Y144900D01*
X113717Y144286D01*
X114065Y143765D01*
X114585Y143417D01*
X115200Y143294D01*
X127400D01*
X128015Y143417D01*
X128535Y143765D01*
X128772Y144118D01*
X194018D01*
X194152Y143618D01*
X193955Y143505D01*
X193405Y142955D01*
X193016Y142281D01*
X192815Y141531D01*
Y140753D01*
X193016Y140002D01*
X193405Y139329D01*
X193955Y138779D01*
X194628Y138390D01*
X195379Y138189D01*
X196157D01*
X196908Y138390D01*
X197581Y138779D01*
X198000Y139198D01*
X198500Y139013D01*
Y115711D01*
X198000Y115526D01*
X197581Y115945D01*
X196908Y116334D01*
X196157Y116535D01*
X195379D01*
X194628Y116334D01*
X193955Y115945D01*
X193405Y115396D01*
X193016Y114723D01*
X192815Y113971D01*
Y113194D01*
X193016Y112443D01*
X193405Y111770D01*
X193955Y111220D01*
X194628Y110831D01*
X195379Y110630D01*
X196157D01*
X196908Y110831D01*
X197581Y111220D01*
X198000Y111639D01*
X198500Y111454D01*
Y88152D01*
X198000Y87967D01*
X197581Y88386D01*
X196908Y88775D01*
X196157Y88976D01*
X195379D01*
X194628Y88775D01*
X193955Y88386D01*
X193405Y87837D01*
X193016Y87163D01*
X192815Y86412D01*
Y85635D01*
X193016Y84884D01*
X193405Y84211D01*
X193955Y83661D01*
X194628Y83272D01*
X195379Y83071D01*
X196157D01*
X196908Y83272D01*
X197581Y83661D01*
X198000Y84080D01*
X198500Y83895D01*
Y60593D01*
X198000Y60408D01*
X197581Y60827D01*
X196908Y61216D01*
X196157Y61417D01*
X195379D01*
X194628Y61216D01*
X193955Y60827D01*
X193405Y60278D01*
X193016Y59604D01*
X192815Y58853D01*
Y58076D01*
X193016Y57325D01*
X193374Y56706D01*
X193245Y56264D01*
X193220Y56206D01*
X170756D01*
X170732Y56264D01*
X170603Y56706D01*
X170960Y57325D01*
X171162Y58076D01*
Y58853D01*
X170960Y59604D01*
X170572Y60278D01*
X170022Y60827D01*
X169349Y61216D01*
X168598Y61417D01*
X167820D01*
X167069Y61216D01*
X166396Y60827D01*
X165846Y60278D01*
X165457Y59604D01*
X165256Y58853D01*
Y58076D01*
X165457Y57325D01*
X165815Y56706D01*
X165685Y56264D01*
X165661Y56206D01*
X143197D01*
X143173Y56264D01*
X143044Y56706D01*
X143401Y57325D01*
X143603Y58076D01*
Y58853D01*
X143401Y59604D01*
X143013Y60278D01*
X142463Y60827D01*
X141789Y61216D01*
X141039Y61417D01*
X140261D01*
X139510Y61216D01*
X138837Y60827D01*
X138287Y60278D01*
X137898Y59604D01*
X137697Y58853D01*
Y58076D01*
X137898Y57325D01*
X138256Y56706D01*
X138126Y56264D01*
X138102Y56206D01*
X135422D01*
X135022Y56126D01*
X134832Y56456D01*
X134282Y57006D01*
X133609Y57394D01*
X132858Y57596D01*
X132081D01*
X131330Y57394D01*
X130656Y57006D01*
X130106Y56456D01*
X129916Y56126D01*
X129517Y56206D01*
X115638D01*
X115614Y56264D01*
X115485Y56706D01*
X115842Y57325D01*
X116043Y58076D01*
Y58853D01*
X115842Y59604D01*
X115454Y60278D01*
X114904Y60827D01*
X114230Y61216D01*
X113479Y61417D01*
X112702D01*
X111951Y61216D01*
X111278Y60827D01*
X110728Y60278D01*
X110339Y59604D01*
X110138Y58853D01*
Y58076D01*
X110339Y57325D01*
X110728Y56652D01*
X110931Y56448D01*
X110868Y55804D01*
X110765Y55735D01*
X110417Y55215D01*
X110294Y54600D01*
Y38500D01*
X110417Y37885D01*
X110765Y37365D01*
X111285Y37017D01*
X111900Y36894D01*
X198500D01*
Y33034D01*
X198000Y32849D01*
X197581Y33268D01*
X196908Y33657D01*
X196157Y33858D01*
X195379D01*
X194628Y33657D01*
X193955Y33268D01*
X193405Y32719D01*
X193016Y32045D01*
X192815Y31294D01*
Y30517D01*
X193016Y29766D01*
X193405Y29092D01*
X193955Y28543D01*
X194628Y28154D01*
X195379Y27953D01*
X196157D01*
X196908Y28154D01*
X197581Y28543D01*
X198000Y28962D01*
X198500Y28777D01*
Y5475D01*
X198000Y5290D01*
X197581Y5709D01*
X196908Y6098D01*
X196157Y6299D01*
X195379D01*
X194628Y6098D01*
X193955Y5709D01*
X193405Y5159D01*
X193016Y4486D01*
X192815Y3735D01*
Y2958D01*
X193016Y2207D01*
X193405Y1534D01*
X193955Y984D01*
X194628Y595D01*
X195379Y394D01*
X196157D01*
X196908Y595D01*
X197581Y984D01*
X198000Y1403D01*
X198500Y1218D01*
Y-22084D01*
X198000Y-22269D01*
X197581Y-21850D01*
X196908Y-21461D01*
X196157Y-21260D01*
X195379D01*
X194628Y-21461D01*
X193955Y-21850D01*
X193405Y-22400D01*
X193016Y-23073D01*
X192815Y-23824D01*
Y-24601D01*
X193016Y-25352D01*
X193405Y-26026D01*
X193955Y-26575D01*
X194628Y-26964D01*
X195379Y-27165D01*
X196157D01*
X196908Y-26964D01*
X197581Y-26575D01*
X198000Y-26156D01*
X198500Y-26341D01*
Y-36092D01*
X98100D01*
Y144291D01*
X98178Y144337D01*
X98728Y144886D01*
X99117Y145560D01*
X99318Y146311D01*
Y147088D01*
X99117Y147839D01*
X98728Y148512D01*
X98178Y149062D01*
X98100Y149107D01*
Y187900D01*
X170017D01*
X170224Y187400D01*
X169837Y187013D01*
X169448Y186340D01*
X169247Y185589D01*
Y184811D01*
X169448Y184060D01*
X169837Y183387D01*
X170387Y182837D01*
X171060Y182448D01*
X171811Y182247D01*
X172589D01*
X173340Y182448D01*
X174013Y182837D01*
X174563Y183387D01*
X174952Y184060D01*
X175153Y184811D01*
Y185589D01*
X174952Y186340D01*
X174563Y187013D01*
X174176Y187400D01*
X174383Y187900D01*
X182300D01*
Y394359D01*
X258260Y394359D01*
Y309400D01*
D02*
G37*
G36*
X535577Y394331D02*
X535714Y394283D01*
X535836Y394206D01*
X535938Y394104D01*
X536015Y393981D01*
X536063Y393844D01*
X536092Y393588D01*
Y358268D01*
X536103Y358212D01*
X536095Y358155D01*
X536313Y354266D01*
X536342Y354156D01*
X536339Y354042D01*
X536991Y350202D01*
X537032Y350096D01*
X537041Y349983D01*
X538120Y346240D01*
X538172Y346139D01*
X538194Y346027D01*
X539684Y342428D01*
X539748Y342334D01*
X539782Y342226D01*
X541666Y338816D01*
X541740Y338729D01*
X541786Y338626D01*
X544040Y335449D01*
X544123Y335371D01*
X544180Y335273D01*
X546776Y332368D01*
X546867Y332300D01*
X546935Y332209D01*
X549840Y329614D01*
X549938Y329556D01*
X550016Y329473D01*
X553193Y327219D01*
X553297Y327173D01*
X553383Y327099D01*
X556792Y325215D01*
X556901Y325181D01*
X556995Y325117D01*
X560594Y323627D01*
X560706Y323604D01*
X560807Y323552D01*
X564550Y322474D01*
X564663Y322465D01*
X564769Y322424D01*
X568609Y321772D01*
X568723Y321775D01*
X568833Y321746D01*
X572666Y321531D01*
X572978Y321496D01*
X573115Y321448D01*
X573238Y321371D01*
X573340Y321269D01*
X573417Y321146D01*
X573464Y321010D01*
X573493Y320753D01*
Y37514D01*
X573464Y37258D01*
X573417Y37121D01*
X573340Y36999D01*
X573238Y36896D01*
X573115Y36819D01*
X572978Y36772D01*
X572666Y36737D01*
X568833Y36521D01*
X568723Y36493D01*
X568609Y36496D01*
X564769Y35844D01*
X564663Y35803D01*
X564549Y35793D01*
X560807Y34715D01*
X560706Y34663D01*
X560594Y34641D01*
X556995Y33150D01*
X556901Y33087D01*
X556792Y33052D01*
X553383Y31168D01*
X553297Y31095D01*
X553193Y31049D01*
X550016Y28794D01*
X549938Y28712D01*
X549840Y28654D01*
X546935Y26058D01*
X546867Y25968D01*
X546776Y25899D01*
X544180Y22995D01*
X544123Y22897D01*
X544040Y22819D01*
X541786Y19642D01*
X541740Y19538D01*
X541666Y19451D01*
X539782Y16042D01*
X539748Y15934D01*
X539684Y15839D01*
X538194Y12240D01*
X538172Y12129D01*
X538120Y12028D01*
X537041Y8285D01*
X537032Y8172D01*
X536991Y8066D01*
X536339Y4225D01*
X536342Y4112D01*
X536313Y4002D01*
X536095Y112D01*
X536103Y56D01*
X536092Y0D01*
Y-35321D01*
X536063Y-35577D01*
X536015Y-35713D01*
X535938Y-35836D01*
X535836Y-35939D01*
X535714Y-36015D01*
X535577Y-36063D01*
X535320Y-36092D01*
X200106D01*
Y-26341D01*
X200099Y-26310D01*
X200104Y-26279D01*
X200039Y-26004D01*
X199983Y-25727D01*
X199966Y-25701D01*
X199959Y-25670D01*
X199793Y-25441D01*
X199635Y-25206D01*
X199609Y-25188D01*
X199591Y-25163D01*
X199350Y-25015D01*
X199115Y-24858D01*
X198721Y-24601D01*
Y-23824D01*
X199115Y-23567D01*
X199350Y-23410D01*
X199591Y-23262D01*
X199609Y-23237D01*
X199635Y-23219D01*
X199793Y-22984D01*
X199959Y-22755D01*
X199966Y-22725D01*
X199983Y-22698D01*
X200039Y-22421D01*
X200104Y-22146D01*
X200099Y-22115D01*
X200106Y-22084D01*
Y1218D01*
X200099Y1249D01*
X200104Y1280D01*
X200039Y1555D01*
X199983Y1832D01*
X199966Y1859D01*
X199959Y1889D01*
X199793Y2118D01*
X199635Y2353D01*
X199609Y2371D01*
X199591Y2396D01*
X199350Y2544D01*
X199115Y2701D01*
X198721Y2958D01*
Y3735D01*
X199115Y3992D01*
X199350Y4149D01*
X199591Y4297D01*
X199609Y4322D01*
X199635Y4340D01*
X199793Y4575D01*
X199959Y4804D01*
X199966Y4834D01*
X199983Y4861D01*
X200039Y5138D01*
X200104Y5413D01*
X200099Y5444D01*
X200106Y5475D01*
Y28777D01*
X200099Y28808D01*
X200104Y28839D01*
X200039Y29114D01*
X199983Y29392D01*
X199966Y29418D01*
X199959Y29448D01*
X199793Y29677D01*
X199635Y29912D01*
X199609Y29930D01*
X199591Y29955D01*
X199350Y30103D01*
X199115Y30260D01*
X198721Y30517D01*
Y31294D01*
X199115Y31551D01*
X199350Y31708D01*
X199591Y31856D01*
X199609Y31881D01*
X199635Y31899D01*
X199793Y32134D01*
X199959Y32363D01*
X199966Y32394D01*
X199983Y32420D01*
X200039Y32697D01*
X200104Y32972D01*
X200099Y33003D01*
X200106Y33034D01*
Y36894D01*
X264168D01*
X264168Y36894D01*
X264783Y37017D01*
X265304Y37365D01*
X265652Y37885D01*
X266096Y38017D01*
X266228Y37982D01*
X267005D01*
X267136Y38017D01*
X267581Y37885D01*
X267929Y37365D01*
X268450Y37017D01*
X269064Y36894D01*
X282700D01*
X283314Y37017D01*
X283835Y37365D01*
X284183Y37885D01*
X284306Y38500D01*
Y42447D01*
X284489D01*
X285240Y42649D01*
X285913Y43037D01*
X286463Y43587D01*
X286852Y44260D01*
X286941Y44593D01*
X287111Y44547D01*
X287889D01*
X288640Y44748D01*
X289313Y45137D01*
X289863Y45687D01*
X290251Y46360D01*
X290453Y47111D01*
Y47889D01*
X290251Y48640D01*
X289863Y49313D01*
X289313Y49863D01*
X288640Y50252D01*
X287889Y50453D01*
X287111D01*
X286360Y50252D01*
X285687Y49863D01*
X285137Y49313D01*
X284806Y48739D01*
X284330Y48812D01*
X284306Y48821D01*
Y50614D01*
X284265Y50820D01*
X284251Y51030D01*
X284204Y51125D01*
X284183Y51229D01*
X284067Y51403D01*
X283974Y51592D01*
X283894Y51661D01*
X283835Y51750D01*
X283661Y51866D01*
X283560Y51955D01*
X283852Y52460D01*
X283966Y52886D01*
X284111Y52847D01*
X284889D01*
X285640Y53048D01*
X286313Y53437D01*
X286863Y53987D01*
X287251Y54660D01*
X287453Y55411D01*
Y56189D01*
X287251Y56940D01*
X286863Y57613D01*
X286313Y58163D01*
X285640Y58552D01*
X284889Y58753D01*
X284306D01*
Y68200D01*
X284183Y68814D01*
X283835Y69335D01*
X283314Y69683D01*
X282700Y69806D01*
X241206D01*
Y76700D01*
X241083Y77315D01*
X240735Y77835D01*
X240214Y78183D01*
X239600Y78306D01*
X236871D01*
X236566Y78702D01*
X236608Y78856D01*
Y79634D01*
X236406Y80385D01*
X236018Y81058D01*
X235468Y81608D01*
X234795Y81997D01*
X234044Y82198D01*
X233266D01*
X232515Y81997D01*
X231842Y81608D01*
X231292Y81058D01*
X230904Y80385D01*
X230702Y79634D01*
Y78856D01*
X230904Y78105D01*
X231292Y77432D01*
X231842Y76882D01*
X232515Y76494D01*
X233266Y76292D01*
X233794D01*
Y56206D01*
X198600D01*
Y57626D01*
X198721Y58076D01*
Y58853D01*
X199115Y59110D01*
X199350Y59267D01*
X199591Y59415D01*
X199609Y59440D01*
X199635Y59458D01*
X199793Y59693D01*
X199959Y59922D01*
X199966Y59952D01*
X199983Y59979D01*
X200039Y60256D01*
X200104Y60531D01*
X200099Y60562D01*
X200106Y60593D01*
Y83895D01*
X200099Y83926D01*
X200104Y83957D01*
X200039Y84232D01*
X199983Y84510D01*
X199966Y84536D01*
X199959Y84566D01*
X199793Y84795D01*
X199635Y85031D01*
X199609Y85048D01*
X199591Y85074D01*
X199350Y85221D01*
X199115Y85379D01*
X198721Y85635D01*
Y86412D01*
X199115Y86669D01*
X199350Y86826D01*
X199591Y86974D01*
X199609Y86999D01*
X199635Y87017D01*
X199793Y87252D01*
X199959Y87481D01*
X199966Y87512D01*
X199983Y87538D01*
X200039Y87815D01*
X200104Y88090D01*
X200099Y88121D01*
X200106Y88152D01*
Y111454D01*
X200099Y111485D01*
X200104Y111516D01*
X200039Y111791D01*
X199983Y112069D01*
X199966Y112095D01*
X199959Y112126D01*
X199793Y112354D01*
X199635Y112590D01*
X199609Y112607D01*
X199591Y112633D01*
X199350Y112780D01*
X199115Y112938D01*
X198721Y113194D01*
Y113971D01*
X199115Y114228D01*
X199350Y114385D01*
X199591Y114533D01*
X199609Y114558D01*
X199635Y114576D01*
X199793Y114811D01*
X199959Y115040D01*
X199966Y115071D01*
X199983Y115097D01*
X200039Y115374D01*
X200104Y115649D01*
X200099Y115680D01*
X200106Y115711D01*
Y139013D01*
X200099Y139044D01*
X200104Y139075D01*
X200039Y139350D01*
X199983Y139628D01*
X199966Y139654D01*
X199959Y139684D01*
X199793Y139913D01*
X199635Y140149D01*
X199609Y140166D01*
X199591Y140192D01*
X199350Y140340D01*
X199115Y140497D01*
X198721Y140753D01*
Y141531D01*
X198600Y141981D01*
Y142896D01*
X199062Y143088D01*
X210975Y131175D01*
X211509Y130765D01*
X212132Y130507D01*
X212800Y130419D01*
X244831D01*
X252119Y123131D01*
Y108200D01*
X252207Y107532D01*
X252465Y106909D01*
X252875Y106375D01*
X258375Y100875D01*
X258909Y100465D01*
X259532Y100207D01*
X260200Y100119D01*
X303077D01*
X303219Y99810D01*
X303243Y99619D01*
X302737Y99113D01*
X302348Y98440D01*
X302147Y97689D01*
Y96911D01*
X302348Y96160D01*
X302737Y95487D01*
X303287Y94937D01*
X303960Y94548D01*
X304711Y94347D01*
X305489D01*
X306240Y94548D01*
X306913Y94937D01*
X307463Y95487D01*
X307852Y96160D01*
X308053Y96911D01*
Y97689D01*
X307852Y98440D01*
X307463Y99113D01*
X306957Y99619D01*
X306981Y99810D01*
X307123Y100119D01*
X311351D01*
X311523Y99619D01*
X311096Y99191D01*
X310707Y98518D01*
X310506Y97767D01*
Y96989D01*
X310707Y96238D01*
X311096Y95565D01*
X311645Y95015D01*
X312319Y94627D01*
X313070Y94425D01*
X313847D01*
X314598Y94627D01*
X315271Y95015D01*
X315821Y95565D01*
X316210Y96238D01*
X316411Y96989D01*
Y97767D01*
X316210Y98518D01*
X315821Y99191D01*
X315393Y99619D01*
X315566Y100119D01*
X319631D01*
X319804Y99619D01*
X319376Y99191D01*
X318987Y98518D01*
X318786Y97767D01*
Y96989D01*
X318987Y96238D01*
X319376Y95565D01*
X319926Y95015D01*
X320599Y94627D01*
X321350Y94425D01*
X322128D01*
X322879Y94627D01*
X323552Y95015D01*
X324101Y95565D01*
X324490Y96238D01*
X324692Y96989D01*
Y97767D01*
X324490Y98518D01*
X324101Y99191D01*
X323674Y99619D01*
X323847Y100119D01*
X383831D01*
X388760Y95189D01*
X388848Y94860D01*
X389237Y94187D01*
X389787Y93637D01*
X390460Y93248D01*
X391211Y93047D01*
X391989D01*
X392740Y93248D01*
X393413Y93637D01*
X393963Y94187D01*
X394352Y94860D01*
X394553Y95611D01*
Y96389D01*
X394352Y97140D01*
X393963Y97813D01*
X393413Y98363D01*
X392740Y98751D01*
X392410Y98840D01*
X386725Y104525D01*
X386191Y104935D01*
X385568Y105193D01*
X384900Y105281D01*
X261269D01*
X257281Y109269D01*
Y124200D01*
X257193Y124868D01*
X256935Y125491D01*
X256525Y126025D01*
X247725Y134825D01*
X247191Y135235D01*
X246568Y135493D01*
X245900Y135581D01*
X228684D01*
X228533Y136081D01*
X228947Y136358D01*
X229769Y137180D01*
X230416Y138147D01*
X230861Y139222D01*
X231088Y140363D01*
Y141526D01*
X230861Y142667D01*
X230416Y143742D01*
X229769Y144709D01*
X228947Y145532D01*
X227979Y146178D01*
X226905Y146623D01*
X225764Y146850D01*
X224601D01*
X223460Y146623D01*
X222385Y146178D01*
X221418Y145532D01*
X221110Y145225D01*
X221007Y145162D01*
X220850Y145018D01*
X220739Y144938D01*
X220604Y144859D01*
X220439Y144782D01*
X220242Y144711D01*
X220009Y144647D01*
X219765Y144598D01*
X219077Y144528D01*
X218695Y144519D01*
X213335D01*
X200574Y157280D01*
Y158663D01*
X201074Y158918D01*
X201711Y158747D01*
X202489D01*
X203240Y158949D01*
X203913Y159337D01*
X204463Y159887D01*
X204852Y160560D01*
X205053Y161311D01*
Y162089D01*
X204852Y162840D01*
X204463Y163513D01*
X203913Y164063D01*
X203240Y164452D01*
X202489Y164653D01*
X201711D01*
X201074Y164482D01*
X200574Y164737D01*
Y302020D01*
X202298Y303744D01*
X215281D01*
X216206Y303865D01*
X217068Y304222D01*
X217808Y304790D01*
X218376Y305531D01*
X218733Y306392D01*
X218855Y307317D01*
X218841Y307418D01*
X219171Y307794D01*
X230208D01*
X230342Y307294D01*
X230287Y307263D01*
X229737Y306713D01*
X229348Y306040D01*
X229147Y305289D01*
Y304511D01*
X229348Y303760D01*
X229737Y303087D01*
X230287Y302537D01*
X230960Y302149D01*
X231711Y301947D01*
X232489D01*
X233240Y302149D01*
X233913Y302537D01*
X234463Y303087D01*
X234852Y303760D01*
X235053Y304511D01*
Y305289D01*
X234852Y306040D01*
X234463Y306713D01*
X233913Y307263D01*
X233858Y307294D01*
X233992Y307794D01*
X247674D01*
X248043Y307294D01*
X247933Y306885D01*
Y306107D01*
X248134Y305356D01*
X248523Y304683D01*
X249073Y304133D01*
X249746Y303745D01*
X250497Y303543D01*
X251275D01*
X252026Y303745D01*
X252699Y304133D01*
X253249Y304683D01*
X253638Y305356D01*
X253839Y306107D01*
Y306885D01*
X253729Y307294D01*
X254098Y307794D01*
X258260D01*
X258875Y307917D01*
X259396Y308265D01*
X259744Y308786D01*
X259866Y309400D01*
Y394359D01*
X260366Y394359D01*
X535320Y394359D01*
X535577Y394331D01*
D02*
G37*
G36*
X222089Y137913D02*
X221868Y138115D01*
X221621Y138296D01*
X221349Y138455D01*
X221051Y138594D01*
X220728Y138710D01*
X220379Y138806D01*
X220004Y138881D01*
X219604Y138934D01*
X219178Y138966D01*
X218726Y138976D01*
Y142913D01*
X219178Y142924D01*
X220004Y143009D01*
X220379Y143083D01*
X220728Y143179D01*
X221051Y143296D01*
X221349Y143434D01*
X221621Y143594D01*
X221868Y143774D01*
X222089Y143976D01*
Y137913D01*
D02*
G37*
G36*
X239600Y68200D02*
X282700D01*
Y58170D01*
X282687Y58163D01*
X282137Y57613D01*
X281749Y56940D01*
X281727Y56861D01*
X281488Y56830D01*
X281178Y57293D01*
X281197Y57325D01*
X281398Y58076D01*
Y58853D01*
X281197Y59604D01*
X280808Y60278D01*
X280258Y60827D01*
X279585Y61216D01*
X278834Y61417D01*
X278056D01*
X277305Y61216D01*
X276632Y60827D01*
X276082Y60278D01*
X275694Y59604D01*
X275492Y58853D01*
Y58076D01*
X275694Y57325D01*
X275944Y56892D01*
X275871Y56423D01*
X275743Y56284D01*
X275187Y55963D01*
X274637Y55413D01*
X274249Y54740D01*
X274047Y53989D01*
Y53211D01*
X274249Y52460D01*
X274637Y51787D01*
X275187Y51237D01*
X275860Y50849D01*
X276611Y50647D01*
X277389D01*
X278140Y50849D01*
X278813Y51237D01*
X279050Y51474D01*
X279287Y51237D01*
X279960Y50849D01*
X280711Y50647D01*
X281489D01*
X282200Y50838D01*
X282327Y50830D01*
X282700Y50614D01*
Y48102D01*
X282263Y47850D01*
X281740Y48151D01*
X280989Y48353D01*
X280211D01*
X279460Y48151D01*
X278787Y47763D01*
X278700Y47676D01*
X278613Y47763D01*
X277940Y48151D01*
X277189Y48353D01*
X276411D01*
X275660Y48151D01*
X274987Y47763D01*
X274437Y47213D01*
X274048Y46540D01*
X273847Y45789D01*
Y45011D01*
X274048Y44260D01*
X274437Y43587D01*
X274987Y43037D01*
X275660Y42649D01*
X276411Y42447D01*
X277189D01*
X277940Y42649D01*
X278613Y43037D01*
X278700Y43124D01*
X278787Y43037D01*
X279460Y42649D01*
X280211Y42447D01*
X280989D01*
X281740Y42649D01*
X282263Y42950D01*
X282700Y42698D01*
Y38500D01*
X269064D01*
X268857Y39000D01*
X268979Y39122D01*
X269368Y39795D01*
X269569Y40546D01*
Y41324D01*
X269368Y42075D01*
X268979Y42748D01*
X268627Y43100D01*
X268979Y43453D01*
X269368Y44126D01*
X269569Y44877D01*
Y45654D01*
X269368Y46406D01*
X268979Y47079D01*
X268429Y47629D01*
X267756Y48017D01*
X267005Y48219D01*
X266228D01*
X265476Y48017D01*
X264803Y47629D01*
X264253Y47079D01*
X263865Y46406D01*
X263664Y45654D01*
Y44877D01*
X263865Y44126D01*
X264253Y43453D01*
X264606Y43100D01*
X264253Y42748D01*
X263865Y42075D01*
X263664Y41324D01*
Y40546D01*
X263865Y39795D01*
X264253Y39122D01*
X264375Y39000D01*
X264168Y38500D01*
X111900D01*
Y54600D01*
X129517D01*
Y54254D01*
X129718Y53503D01*
X130106Y52830D01*
X130656Y52280D01*
X131330Y51891D01*
X132081Y51690D01*
X132858D01*
X133609Y51891D01*
X134282Y52280D01*
X134832Y52830D01*
X135221Y53503D01*
X135422Y54254D01*
Y54600D01*
X235400D01*
Y76700D01*
X239600D01*
Y68200D01*
D02*
G37*
%LPC*%
G36*
X251275Y364567D02*
X250497D01*
X249746Y364366D01*
X249073Y363977D01*
X248523Y363427D01*
X248134Y362754D01*
X247933Y362003D01*
Y361226D01*
X248134Y360475D01*
X248523Y359801D01*
X249073Y359251D01*
X249746Y358863D01*
X250497Y358662D01*
X251275D01*
X252026Y358863D01*
X252699Y359251D01*
X253249Y359801D01*
X253638Y360475D01*
X253839Y361226D01*
Y362003D01*
X253638Y362754D01*
X253249Y363427D01*
X252699Y363977D01*
X252026Y364366D01*
X251275Y364567D01*
D02*
G37*
G36*
X223716D02*
X222938D01*
X222187Y364366D01*
X221514Y363977D01*
X220964Y363427D01*
X220575Y362754D01*
X220374Y362003D01*
Y361226D01*
X220575Y360475D01*
X220964Y359801D01*
X221514Y359251D01*
X222187Y358863D01*
X222938Y358662D01*
X223716D01*
X224467Y358863D01*
X225140Y359251D01*
X225690Y359801D01*
X226079Y360475D01*
X226280Y361226D01*
Y362003D01*
X226079Y362754D01*
X225690Y363427D01*
X225140Y363977D01*
X224467Y364366D01*
X223716Y364567D01*
D02*
G37*
G36*
X250175Y355655D02*
X250025D01*
Y351218D01*
X254462D01*
Y351368D01*
X254125Y352623D01*
X253475Y353749D01*
X252556Y354668D01*
X251430Y355318D01*
X250175Y355655D01*
D02*
G37*
G36*
X249025D02*
X248875D01*
X247619Y355318D01*
X246493Y354668D01*
X245574Y353749D01*
X244924Y352623D01*
X244588Y351368D01*
Y351218D01*
X249025D01*
Y355655D01*
D02*
G37*
G36*
X254462Y350218D02*
X250025D01*
Y345781D01*
X250175D01*
X251430Y346117D01*
X252556Y346767D01*
X253475Y347686D01*
X254125Y348812D01*
X254462Y350068D01*
Y350218D01*
D02*
G37*
G36*
X249025D02*
X244588D01*
Y350068D01*
X244924Y348812D01*
X245574Y347686D01*
X246493Y346767D01*
X247619Y346117D01*
X248875Y345781D01*
X249025D01*
Y350218D01*
D02*
G37*
G36*
X230250Y356231D02*
X228799D01*
X227397Y355856D01*
X226140Y355130D01*
X225114Y354104D01*
X224389Y352847D01*
X224013Y351445D01*
Y349994D01*
X224389Y348592D01*
X225114Y347335D01*
X226140Y346309D01*
X227397Y345583D01*
X228799Y345208D01*
X230250D01*
X231652Y345583D01*
X232909Y346309D01*
X233935Y347335D01*
X234661Y348592D01*
X235037Y349994D01*
Y351445D01*
X234661Y352847D01*
X233935Y354104D01*
X232909Y355130D01*
X231652Y355856D01*
X230250Y356231D01*
D02*
G37*
G36*
X210250D02*
X208799D01*
X207397Y355856D01*
X206140Y355130D01*
X205114Y354104D01*
X204389Y352847D01*
X204013Y351445D01*
Y349994D01*
X204389Y348592D01*
X205114Y347335D01*
X206140Y346309D01*
X207397Y345583D01*
X208799Y345208D01*
X210250D01*
X211652Y345583D01*
X212909Y346309D01*
X213935Y347335D01*
X214661Y348592D01*
X215037Y349994D01*
Y351445D01*
X214661Y352847D01*
X213935Y354104D01*
X212909Y355130D01*
X211652Y355856D01*
X210250Y356231D01*
D02*
G37*
G36*
X223716Y337008D02*
X222938D01*
X222187Y336807D01*
X221514Y336418D01*
X220964Y335868D01*
X220575Y335195D01*
X220374Y334444D01*
Y333666D01*
X220575Y332915D01*
X220964Y332242D01*
X221514Y331692D01*
X222187Y331304D01*
X222938Y331102D01*
X223716D01*
X224467Y331304D01*
X225140Y331692D01*
X225690Y332242D01*
X226079Y332915D01*
X226280Y333666D01*
Y334444D01*
X226079Y335195D01*
X225690Y335868D01*
X225140Y336418D01*
X224467Y336807D01*
X223716Y337008D01*
D02*
G37*
G36*
X172589Y181593D02*
X171811D01*
X171060Y181392D01*
X170387Y181003D01*
X169837Y180453D01*
X169448Y179780D01*
X169247Y179029D01*
Y178252D01*
X169448Y177501D01*
X169837Y176827D01*
X170387Y176278D01*
X171060Y175889D01*
X171811Y175688D01*
X172589D01*
X173340Y175889D01*
X174013Y176278D01*
X174563Y176827D01*
X174952Y177501D01*
X175153Y178252D01*
Y179029D01*
X174952Y179780D01*
X174563Y180453D01*
X174013Y181003D01*
X173340Y181392D01*
X172589Y181593D01*
D02*
G37*
G36*
X162989Y175583D02*
X162211D01*
X161460Y175381D01*
X160787Y174993D01*
X160237Y174443D01*
X159848Y173769D01*
X159647Y173019D01*
Y172241D01*
X159848Y171490D01*
X160237Y170817D01*
X160787Y170267D01*
X161460Y169878D01*
X162211Y169677D01*
X162989D01*
X163740Y169878D01*
X164413Y170267D01*
X164963Y170817D01*
X165351Y171490D01*
X165553Y172241D01*
Y173019D01*
X165351Y173769D01*
X164963Y174443D01*
X164413Y174993D01*
X163740Y175381D01*
X162989Y175583D01*
D02*
G37*
G36*
X141039Y171654D02*
X140261D01*
X139510Y171452D01*
X138837Y171064D01*
X138287Y170514D01*
X137898Y169841D01*
X137697Y169090D01*
Y168312D01*
X137898Y167561D01*
X138287Y166888D01*
X138837Y166338D01*
X139510Y165949D01*
X140261Y165748D01*
X141039D01*
X141789Y165949D01*
X142463Y166338D01*
X143013Y166888D01*
X143401Y167561D01*
X143603Y168312D01*
Y169090D01*
X143401Y169841D01*
X143013Y170514D01*
X142463Y171064D01*
X141789Y171452D01*
X141039Y171654D01*
D02*
G37*
G36*
X113479D02*
X112702D01*
X111951Y171452D01*
X111278Y171064D01*
X110728Y170514D01*
X110339Y169841D01*
X110138Y169090D01*
Y168312D01*
X110339Y167561D01*
X110728Y166888D01*
X111278Y166338D01*
X111951Y165949D01*
X112702Y165748D01*
X113479D01*
X114230Y165949D01*
X114904Y166338D01*
X115454Y166888D01*
X115842Y167561D01*
X116043Y168312D01*
Y169090D01*
X115842Y169841D01*
X115454Y170514D01*
X114904Y171064D01*
X114230Y171452D01*
X113479Y171654D01*
D02*
G37*
G36*
X134789Y162853D02*
X134011D01*
X133260Y162652D01*
X132587Y162263D01*
X132037Y161713D01*
X131649Y161040D01*
X131447Y160289D01*
Y159511D01*
X131649Y158760D01*
X132037Y158087D01*
X132587Y157537D01*
X133260Y157149D01*
X134011Y156947D01*
X134789D01*
X135540Y157149D01*
X136213Y157537D01*
X136763Y158087D01*
X137152Y158760D01*
X137353Y159511D01*
Y160289D01*
X137152Y161040D01*
X136763Y161713D01*
X136213Y162263D01*
X135540Y162652D01*
X134789Y162853D01*
D02*
G37*
G36*
X168598Y116535D02*
X167820D01*
X167069Y116334D01*
X166396Y115945D01*
X165846Y115396D01*
X165457Y114723D01*
X165256Y113971D01*
Y113194D01*
X165457Y112443D01*
X165846Y111770D01*
X166396Y111220D01*
X167069Y110831D01*
X167820Y110630D01*
X168598D01*
X169349Y110831D01*
X170022Y111220D01*
X170572Y111770D01*
X170960Y112443D01*
X171162Y113194D01*
Y113971D01*
X170960Y114723D01*
X170572Y115396D01*
X170022Y115945D01*
X169349Y116334D01*
X168598Y116535D01*
D02*
G37*
G36*
X141039D02*
X140261D01*
X139510Y116334D01*
X138837Y115945D01*
X138287Y115396D01*
X137898Y114723D01*
X137697Y113971D01*
Y113194D01*
X137898Y112443D01*
X138287Y111770D01*
X138837Y111220D01*
X139510Y110831D01*
X140261Y110630D01*
X141039D01*
X141789Y110831D01*
X142463Y111220D01*
X143013Y111770D01*
X143401Y112443D01*
X143603Y113194D01*
Y113971D01*
X143401Y114723D01*
X143013Y115396D01*
X142463Y115945D01*
X141789Y116334D01*
X141039Y116535D01*
D02*
G37*
G36*
X106413Y122674D02*
X105635D01*
X104885Y122473D01*
X104211Y122084D01*
X103661Y121534D01*
X103273Y120861D01*
X103071Y120110D01*
Y119332D01*
X103273Y118581D01*
X103578Y118053D01*
X103273Y117525D01*
X103071Y116773D01*
Y115996D01*
X103273Y115245D01*
X103578Y114717D01*
X103273Y114188D01*
X103071Y113437D01*
Y112660D01*
X103273Y111909D01*
X103661Y111235D01*
X104211Y110686D01*
X104885Y110297D01*
X105635Y110096D01*
X106413D01*
X107164Y110297D01*
X107837Y110686D01*
X108387Y111235D01*
X108776Y111909D01*
X108977Y112660D01*
Y113437D01*
X108776Y114188D01*
X108471Y114717D01*
X108776Y115245D01*
X108977Y115996D01*
Y116773D01*
X108776Y117525D01*
X108471Y118053D01*
X108776Y118581D01*
X108977Y119332D01*
Y120110D01*
X108776Y120861D01*
X108387Y121534D01*
X107837Y122084D01*
X107164Y122473D01*
X106413Y122674D01*
D02*
G37*
G36*
X141039Y88976D02*
X140261D01*
X139510Y88775D01*
X138837Y88386D01*
X138287Y87837D01*
X137898Y87163D01*
X137832Y86915D01*
X137718Y86946D01*
X136941D01*
X136190Y86744D01*
X135516Y86356D01*
X134967Y85806D01*
X134578Y85133D01*
X134377Y84382D01*
Y83604D01*
X134578Y82853D01*
X134856Y82371D01*
X134578Y81889D01*
X134377Y81138D01*
Y80361D01*
X134578Y79610D01*
X134967Y78937D01*
X135516Y78387D01*
X136190Y77998D01*
X136941Y77797D01*
X137718D01*
X138469Y77998D01*
X139142Y78387D01*
X139692Y78937D01*
X140081Y79610D01*
X140282Y80361D01*
Y81138D01*
X140081Y81889D01*
X139803Y82371D01*
X140081Y82853D01*
X140147Y83101D01*
X140261Y83071D01*
X141039D01*
X141789Y83272D01*
X142463Y83661D01*
X143013Y84211D01*
X143401Y84884D01*
X143603Y85635D01*
Y86412D01*
X143401Y87163D01*
X143013Y87837D01*
X142463Y88386D01*
X141789Y88775D01*
X141039Y88976D01*
D02*
G37*
G36*
X168598D02*
X167820D01*
X167069Y88775D01*
X166396Y88386D01*
X165846Y87837D01*
X165457Y87163D01*
X165256Y86412D01*
Y85635D01*
X165457Y84884D01*
X165846Y84211D01*
X166396Y83661D01*
X167069Y83272D01*
X167820Y83071D01*
X168598D01*
X169349Y83272D01*
X170022Y83661D01*
X170572Y84211D01*
X170960Y84884D01*
X171162Y85635D01*
Y86412D01*
X170960Y87163D01*
X170572Y87837D01*
X170022Y88386D01*
X169349Y88775D01*
X168598Y88976D01*
D02*
G37*
G36*
X111339Y85945D02*
X110562D01*
X109811Y85744D01*
X109137Y85355D01*
X108588Y84805D01*
X108199Y84132D01*
X107998Y83381D01*
Y82603D01*
X108199Y81852D01*
X108588Y81179D01*
X109137Y80629D01*
X109811Y80241D01*
X110562Y80039D01*
X111339D01*
X112090Y80241D01*
X112764Y80629D01*
X113313Y81179D01*
X113702Y81852D01*
X113903Y82603D01*
Y83381D01*
X113702Y84132D01*
X113313Y84805D01*
X112764Y85355D01*
X112090Y85744D01*
X111339Y85945D01*
D02*
G37*
G36*
X127218Y86946D02*
X126441D01*
X125690Y86744D01*
X125016Y86356D01*
X124467Y85806D01*
X124078Y85133D01*
X123877Y84382D01*
Y83604D01*
X124078Y82853D01*
X124356Y82371D01*
X124078Y81889D01*
X123877Y81138D01*
Y80361D01*
X124078Y79610D01*
X124467Y78937D01*
X125016Y78387D01*
X125690Y77998D01*
X126441Y77797D01*
X127218D01*
X127969Y77998D01*
X128642Y78387D01*
X129192Y78937D01*
X129581Y79610D01*
X129782Y80361D01*
Y81138D01*
X129581Y81889D01*
X129303Y82371D01*
X129581Y82853D01*
X129782Y83604D01*
Y84382D01*
X129581Y85133D01*
X129192Y85806D01*
X128642Y86356D01*
X127969Y86744D01*
X127218Y86946D01*
D02*
G37*
G36*
X106708Y17074D02*
X105930D01*
X105179Y16873D01*
X104506Y16484D01*
X103956Y15935D01*
X103567Y15261D01*
X103366Y14510D01*
Y13733D01*
X103567Y12982D01*
X103872Y12453D01*
X103567Y11925D01*
X103366Y11174D01*
Y10396D01*
X103567Y9646D01*
X103872Y9117D01*
X103567Y8589D01*
X103366Y7838D01*
Y7060D01*
X103567Y6309D01*
X103956Y5636D01*
X104506Y5086D01*
X105179Y4697D01*
X105930Y4496D01*
X106708D01*
X107458Y4697D01*
X108132Y5086D01*
X108682Y5636D01*
X109070Y6309D01*
X109272Y7060D01*
Y7838D01*
X109070Y8589D01*
X108765Y9117D01*
X109070Y9646D01*
X109272Y10396D01*
Y11174D01*
X109070Y11925D01*
X108765Y12453D01*
X109070Y12982D01*
X109272Y13733D01*
Y14510D01*
X109070Y15261D01*
X108682Y15935D01*
X108132Y16484D01*
X107458Y16873D01*
X106708Y17074D01*
D02*
G37*
G36*
X168598Y6299D02*
X167820D01*
X167069Y6098D01*
X166396Y5709D01*
X165846Y5159D01*
X165457Y4486D01*
X165256Y3735D01*
Y2958D01*
X165457Y2207D01*
X165846Y1534D01*
X166396Y984D01*
X167069Y595D01*
X167820Y394D01*
X168598D01*
X169349Y595D01*
X170022Y984D01*
X170572Y1534D01*
X170960Y2207D01*
X171162Y2958D01*
Y3735D01*
X170960Y4486D01*
X170572Y5159D01*
X170022Y5709D01*
X169349Y6098D01*
X168598Y6299D01*
D02*
G37*
G36*
X141039D02*
X140261D01*
X139510Y6098D01*
X138837Y5709D01*
X138287Y5159D01*
X137898Y4486D01*
X137697Y3735D01*
Y2958D01*
X137898Y2207D01*
X138287Y1534D01*
X138837Y984D01*
X139510Y595D01*
X140261Y394D01*
X141039D01*
X141789Y595D01*
X142463Y984D01*
X143013Y1534D01*
X143401Y2207D01*
X143603Y2958D01*
Y3735D01*
X143401Y4486D01*
X143013Y5159D01*
X142463Y5709D01*
X141789Y6098D01*
X141039Y6299D01*
D02*
G37*
G36*
X133315Y5149D02*
X132537D01*
X131786Y4948D01*
X131113Y4559D01*
X130563Y4009D01*
X130175Y3336D01*
X129973Y2585D01*
Y1808D01*
X130175Y1057D01*
X130563Y383D01*
X131113Y-166D01*
X131786Y-555D01*
X132537Y-756D01*
X133315D01*
X134066Y-555D01*
X134739Y-166D01*
X135289Y383D01*
X135678Y1057D01*
X135879Y1808D01*
Y2585D01*
X135678Y3336D01*
X135289Y4009D01*
X134739Y4559D01*
X134066Y4948D01*
X133315Y5149D01*
D02*
G37*
G36*
X111566Y-19655D02*
X110788D01*
X110037Y-19856D01*
X109364Y-20245D01*
X108814Y-20795D01*
X108426Y-21468D01*
X108224Y-22219D01*
Y-22996D01*
X108426Y-23747D01*
X108814Y-24420D01*
X109364Y-24970D01*
X110037Y-25359D01*
X110788Y-25560D01*
X111566D01*
X112317Y-25359D01*
X112990Y-24970D01*
X113540Y-24420D01*
X113929Y-23747D01*
X114130Y-22996D01*
Y-22219D01*
X113929Y-21468D01*
X113540Y-20795D01*
X112990Y-20245D01*
X112317Y-19856D01*
X111566Y-19655D01*
D02*
G37*
G36*
X168598Y-21260D02*
X167820D01*
X167069Y-21461D01*
X166396Y-21850D01*
X165846Y-22400D01*
X165457Y-23073D01*
X165256Y-23824D01*
Y-24601D01*
X165457Y-25352D01*
X165846Y-26026D01*
X166396Y-26575D01*
X167069Y-26964D01*
X167820Y-27165D01*
X168598D01*
X169349Y-26964D01*
X170022Y-26575D01*
X170572Y-26026D01*
X170960Y-25352D01*
X171162Y-24601D01*
Y-23824D01*
X170960Y-23073D01*
X170572Y-22400D01*
X170022Y-21850D01*
X169349Y-21461D01*
X168598Y-21260D01*
D02*
G37*
G36*
X137779Y-18659D02*
X137002D01*
X136251Y-18860D01*
X135578Y-19249D01*
X135028Y-19798D01*
X134639Y-20472D01*
X134438Y-21223D01*
Y-22000D01*
X134639Y-22751D01*
X134917Y-23233D01*
X134639Y-23715D01*
X134438Y-24466D01*
Y-25243D01*
X134639Y-25994D01*
X135028Y-26668D01*
X135578Y-27217D01*
X136251Y-27606D01*
X137002Y-27807D01*
X137779D01*
X138531Y-27606D01*
X139204Y-27217D01*
X139477Y-26945D01*
X139510Y-26964D01*
X140261Y-27165D01*
X141039D01*
X141789Y-26964D01*
X142463Y-26575D01*
X143013Y-26026D01*
X143401Y-25352D01*
X143603Y-24601D01*
Y-23824D01*
X143401Y-23073D01*
X143013Y-22400D01*
X142463Y-21850D01*
X141789Y-21461D01*
X141039Y-21260D01*
X140344D01*
Y-21223D01*
X140142Y-20472D01*
X139754Y-19798D01*
X139204Y-19249D01*
X138531Y-18860D01*
X137779Y-18659D01*
D02*
G37*
G36*
X127279D02*
X126502D01*
X125751Y-18860D01*
X125078Y-19249D01*
X124528Y-19798D01*
X124139Y-20472D01*
X123938Y-21223D01*
Y-22000D01*
X124139Y-22751D01*
X124417Y-23233D01*
X124139Y-23715D01*
X123938Y-24466D01*
Y-25243D01*
X124139Y-25994D01*
X124528Y-26668D01*
X125078Y-27217D01*
X125751Y-27606D01*
X126502Y-27807D01*
X127279D01*
X128031Y-27606D01*
X128704Y-27217D01*
X129254Y-26668D01*
X129642Y-25994D01*
X129844Y-25243D01*
Y-24466D01*
X129642Y-23715D01*
X129364Y-23233D01*
X129642Y-22751D01*
X129844Y-22000D01*
Y-21223D01*
X129642Y-20472D01*
X129254Y-19798D01*
X128704Y-19249D01*
X128031Y-18860D01*
X127279Y-18659D01*
D02*
G37*
G36*
X488838Y372525D02*
X487913Y372403D01*
X487051Y372046D01*
X486338Y371499D01*
X485625Y372046D01*
X484763Y372403D01*
X483838Y372525D01*
X482913Y372403D01*
X482051Y372046D01*
X481338Y371499D01*
X480625Y372046D01*
X479763Y372403D01*
X478838Y372525D01*
X477913Y372403D01*
X477051Y372046D01*
X476311Y371478D01*
X475743Y370738D01*
X475386Y369876D01*
X475264Y368951D01*
Y365014D01*
X475386Y364089D01*
X475743Y363227D01*
X476311Y362487D01*
X477051Y361919D01*
X477913Y361562D01*
X478838Y361440D01*
X479763Y361562D01*
X480625Y361919D01*
X481338Y362466D01*
X482051Y361919D01*
X482913Y361562D01*
X483838Y361440D01*
X484763Y361562D01*
X485625Y361919D01*
X486338Y362466D01*
X487051Y361919D01*
X487913Y361562D01*
X488838Y361440D01*
X489763Y361562D01*
X490625Y361919D01*
X491365Y362487D01*
X491933Y363227D01*
X492290Y364089D01*
X492412Y365014D01*
Y368951D01*
X492290Y369876D01*
X491933Y370738D01*
X491365Y371478D01*
X490625Y372046D01*
X489763Y372403D01*
X488838Y372525D01*
D02*
G37*
G36*
X499306Y364567D02*
X498529D01*
X497778Y364366D01*
X497105Y363977D01*
X496555Y363427D01*
X496166Y362754D01*
X495965Y362003D01*
Y361226D01*
X496166Y360475D01*
X496555Y359801D01*
X497105Y359251D01*
X497778Y358863D01*
X498529Y358662D01*
X499306D01*
X500057Y358863D01*
X500731Y359251D01*
X501280Y359801D01*
X501669Y360475D01*
X501870Y361226D01*
Y362003D01*
X501669Y362754D01*
X501280Y363427D01*
X500731Y363977D01*
X500057Y364366D01*
X499306Y364567D01*
D02*
G37*
G36*
X471747D02*
X470970D01*
X470219Y364366D01*
X469546Y363977D01*
X468996Y363427D01*
X468607Y362754D01*
X468406Y362003D01*
Y361226D01*
X468607Y360475D01*
X468996Y359801D01*
X469546Y359251D01*
X470219Y358863D01*
X470970Y358662D01*
X471747D01*
X472498Y358863D01*
X473172Y359251D01*
X473721Y359801D01*
X474110Y360475D01*
X474311Y361226D01*
Y362003D01*
X474110Y362754D01*
X473721Y363427D01*
X473172Y363977D01*
X472498Y364366D01*
X471747Y364567D01*
D02*
G37*
G36*
X444188D02*
X443411D01*
X442660Y364366D01*
X441986Y363977D01*
X441437Y363427D01*
X441048Y362754D01*
X440847Y362003D01*
Y361226D01*
X441048Y360475D01*
X441437Y359801D01*
X441986Y359251D01*
X442660Y358863D01*
X443411Y358662D01*
X444188D01*
X444939Y358863D01*
X445612Y359251D01*
X446162Y359801D01*
X446551Y360475D01*
X446752Y361226D01*
Y362003D01*
X446551Y362754D01*
X446162Y363427D01*
X445612Y363977D01*
X444939Y364366D01*
X444188Y364567D01*
D02*
G37*
G36*
X416629D02*
X415852D01*
X415101Y364366D01*
X414427Y363977D01*
X413878Y363427D01*
X413489Y362754D01*
X413288Y362003D01*
Y361226D01*
X413489Y360475D01*
X413878Y359801D01*
X414427Y359251D01*
X415101Y358863D01*
X415852Y358662D01*
X416629D01*
X417380Y358863D01*
X418053Y359251D01*
X418603Y359801D01*
X418992Y360475D01*
X419193Y361226D01*
Y362003D01*
X418992Y362754D01*
X418603Y363427D01*
X418053Y363977D01*
X417380Y364366D01*
X416629Y364567D01*
D02*
G37*
G36*
X306393D02*
X305615D01*
X304864Y364366D01*
X304191Y363977D01*
X303641Y363427D01*
X303253Y362754D01*
X303051Y362003D01*
Y361226D01*
X303253Y360475D01*
X303641Y359801D01*
X304191Y359251D01*
X304864Y358863D01*
X305615Y358662D01*
X306393D01*
X307144Y358863D01*
X307817Y359251D01*
X308367Y359801D01*
X308756Y360475D01*
X308957Y361226D01*
Y362003D01*
X308756Y362754D01*
X308367Y363427D01*
X307817Y363977D01*
X307144Y364366D01*
X306393Y364567D01*
D02*
G37*
G36*
X278834D02*
X278056D01*
X277305Y364366D01*
X276632Y363977D01*
X276082Y363427D01*
X275694Y362754D01*
X275492Y362003D01*
Y361226D01*
X275694Y360475D01*
X276082Y359801D01*
X276632Y359251D01*
X277305Y358863D01*
X278056Y358662D01*
X278834D01*
X279585Y358863D01*
X280258Y359251D01*
X280808Y359801D01*
X281197Y360475D01*
X281398Y361226D01*
Y362003D01*
X281197Y362754D01*
X280808Y363427D01*
X280258Y363977D01*
X279585Y364366D01*
X278834Y364567D01*
D02*
G37*
G36*
X520614Y370079D02*
X518755D01*
X516919Y369788D01*
X515151Y369213D01*
X513495Y368369D01*
X511991Y367277D01*
X510676Y365962D01*
X509583Y364458D01*
X508739Y362802D01*
X508165Y361033D01*
X507874Y359197D01*
Y357338D01*
X508165Y355502D01*
X508739Y353734D01*
X509583Y352077D01*
X510676Y350573D01*
X511991Y349259D01*
X513495Y348166D01*
X515151Y347322D01*
X516919Y346747D01*
X518755Y346457D01*
X520614D01*
X522451Y346747D01*
X524219Y347322D01*
X525875Y348166D01*
X527379Y349259D01*
X528694Y350573D01*
X529787Y352077D01*
X530631Y353734D01*
X531205Y355502D01*
X531496Y357338D01*
Y359197D01*
X531205Y361033D01*
X530631Y362802D01*
X529787Y364458D01*
X528694Y365962D01*
X527379Y367277D01*
X525875Y368369D01*
X524219Y369213D01*
X522451Y369788D01*
X520614Y370079D01*
D02*
G37*
G36*
X430276Y356229D02*
X428824D01*
X427423Y355854D01*
X426166Y355128D01*
X425140Y354102D01*
X424414Y352845D01*
X424038Y351443D01*
Y349992D01*
X424414Y348590D01*
X425140Y347333D01*
X426166Y346307D01*
X427423Y345581D01*
X428824Y345206D01*
X430276D01*
X431677Y345581D01*
X432934Y346307D01*
X433960Y347333D01*
X434686Y348590D01*
X435062Y349992D01*
Y351443D01*
X434686Y352845D01*
X433960Y354102D01*
X432934Y355128D01*
X431677Y355854D01*
X430276Y356229D01*
D02*
G37*
G36*
X310250D02*
X308799D01*
X307397Y355854D01*
X306140Y355128D01*
X305114Y354102D01*
X304389Y352845D01*
X304013Y351443D01*
Y349992D01*
X304389Y348590D01*
X305114Y347333D01*
X306140Y346307D01*
X307397Y345581D01*
X308799Y345206D01*
X310250D01*
X311652Y345581D01*
X312909Y346307D01*
X313935Y347333D01*
X314661Y348590D01*
X315037Y349992D01*
Y351443D01*
X314661Y352845D01*
X313935Y354102D01*
X312909Y355128D01*
X311652Y355854D01*
X310250Y356229D01*
D02*
G37*
G36*
X290250D02*
X288799D01*
X287397Y355854D01*
X286140Y355128D01*
X285114Y354102D01*
X284389Y352845D01*
X284013Y351443D01*
Y349992D01*
X284389Y348590D01*
X285114Y347333D01*
X286140Y346307D01*
X287397Y345581D01*
X288799Y345206D01*
X290250D01*
X291652Y345581D01*
X292909Y346307D01*
X293935Y347333D01*
X294661Y348590D01*
X295037Y349992D01*
Y351443D01*
X294661Y352845D01*
X293935Y354102D01*
X292909Y355128D01*
X291652Y355854D01*
X290250Y356229D01*
D02*
G37*
G36*
X270250D02*
X268799D01*
X267397Y355854D01*
X266141Y355128D01*
X265114Y354102D01*
X264389Y352845D01*
X264013Y351443D01*
Y349992D01*
X264389Y348590D01*
X265114Y347333D01*
X266141Y346307D01*
X267397Y345581D01*
X268799Y345206D01*
X270250D01*
X271652Y345581D01*
X272909Y346307D01*
X273935Y347333D01*
X274661Y348590D01*
X275037Y349992D01*
Y351443D01*
X274661Y352845D01*
X273935Y354102D01*
X272909Y355128D01*
X271652Y355854D01*
X270250Y356229D01*
D02*
G37*
G36*
X398968Y366859D02*
X340113D01*
X338674Y366670D01*
X337333Y366115D01*
X336182Y365231D01*
X325599Y354649D01*
X325377Y354360D01*
X325120Y354102D01*
X324938Y353786D01*
X324716Y353497D01*
X324576Y353161D01*
X324394Y352845D01*
X324300Y352493D01*
X324161Y352156D01*
X324113Y351795D01*
X324019Y351443D01*
Y351079D01*
X323971Y350718D01*
X324019Y350356D01*
Y349992D01*
X324113Y349640D01*
X324161Y349279D01*
X324300Y348942D01*
X324394Y348590D01*
X324576Y348275D01*
X324716Y347938D01*
X324938Y347649D01*
X325120Y347333D01*
X325377Y347076D01*
X325599Y346786D01*
X325888Y346565D01*
X326146Y346307D01*
X326462Y346125D01*
X326751Y345903D01*
X327087Y345764D01*
X327403Y345581D01*
X327755Y345487D01*
X328092Y345348D01*
X328453Y345300D01*
X328805Y345206D01*
X329169D01*
X329530Y345158D01*
X329892Y345206D01*
X330256D01*
X330608Y345300D01*
X330969Y345348D01*
X331306Y345487D01*
X331658Y345581D01*
X331973Y345764D01*
X332310Y345903D01*
X332599Y346125D01*
X332915Y346307D01*
X333172Y346565D01*
X333461Y346786D01*
X342416Y355741D01*
X346241D01*
X346370Y355258D01*
X346146Y355128D01*
X345120Y354102D01*
X344394Y352845D01*
X344019Y351443D01*
Y349992D01*
X344394Y348590D01*
X345120Y347333D01*
X346146Y346307D01*
X347403Y345581D01*
X348805Y345206D01*
X350256D01*
X351658Y345581D01*
X352915Y346307D01*
X353941Y347333D01*
X354667Y348590D01*
X355042Y349992D01*
Y351443D01*
X354667Y352845D01*
X353941Y354102D01*
X352915Y355128D01*
X352690Y355258D01*
X352820Y355741D01*
X358070D01*
X359071Y355696D01*
X360227Y355524D01*
X361192Y355252D01*
X361974Y354897D01*
X362592Y354470D01*
X363077Y353970D01*
X363458Y353373D01*
X363745Y352647D01*
X363929Y351765D01*
X363981Y350936D01*
Y350718D01*
X364028Y350356D01*
Y349992D01*
X364123Y349640D01*
X364170Y349279D01*
X364310Y348942D01*
X364404Y348590D01*
X364586Y348275D01*
X364726Y347938D01*
X364948Y347649D01*
X365130Y347333D01*
X365387Y347076D01*
X365609Y346786D01*
X365898Y346565D01*
X366156Y346307D01*
X366471Y346125D01*
X366760Y345903D01*
X367097Y345764D01*
X367413Y345581D01*
X367765Y345487D01*
X368101Y345348D01*
X368463Y345300D01*
X368815Y345206D01*
X369179D01*
X369540Y345158D01*
X369901Y345206D01*
X370266D01*
X370618Y345300D01*
X370979Y345348D01*
X371316Y345487D01*
X371668Y345581D01*
X371983Y345764D01*
X372320Y345903D01*
X372609Y346125D01*
X372924Y346307D01*
X373182Y346565D01*
X373471Y346786D01*
X373693Y347076D01*
X373951Y347333D01*
X374133Y347649D01*
X374355Y347938D01*
X374494Y348275D01*
X374676Y348590D01*
X374771Y348942D01*
X374910Y349279D01*
X374958Y349640D01*
X375052Y349992D01*
Y350356D01*
X375100Y350718D01*
Y350936D01*
X375151Y351765D01*
X375336Y352647D01*
X375623Y353373D01*
X376003Y353970D01*
X376488Y354470D01*
X377106Y354897D01*
X377888Y355252D01*
X378854Y355524D01*
X380010Y355696D01*
X381011Y355741D01*
X386251D01*
X386380Y355258D01*
X386156Y355128D01*
X385130Y354102D01*
X384404Y352845D01*
X384028Y351443D01*
Y349992D01*
X384404Y348590D01*
X385130Y347333D01*
X386156Y346307D01*
X387413Y345581D01*
X388815Y345206D01*
X390266D01*
X391668Y345581D01*
X392924Y346307D01*
X393951Y347333D01*
X394676Y348590D01*
X395052Y349992D01*
Y351443D01*
X394676Y352845D01*
X393951Y354102D01*
X392924Y355128D01*
X392700Y355258D01*
X392830Y355741D01*
X396665D01*
X405619Y346786D01*
X405908Y346565D01*
X406166Y346307D01*
X406481Y346125D01*
X406770Y345903D01*
X407107Y345764D01*
X407422Y345581D01*
X407774Y345487D01*
X408111Y345348D01*
X408472Y345300D01*
X408824Y345206D01*
X409189D01*
X409550Y345158D01*
X409911Y345206D01*
X410276D01*
X410628Y345300D01*
X410989Y345348D01*
X411326Y345487D01*
X411678Y345581D01*
X411993Y345764D01*
X412330Y345903D01*
X412619Y346125D01*
X412934Y346307D01*
X413192Y346565D01*
X413481Y346786D01*
X413703Y347076D01*
X413961Y347333D01*
X414143Y347649D01*
X414364Y347938D01*
X414504Y348274D01*
X414686Y348590D01*
X414781Y348942D01*
X414920Y349279D01*
X414967Y349640D01*
X415062Y349992D01*
Y350356D01*
X415109Y350718D01*
X415062Y351079D01*
Y351443D01*
X414967Y351795D01*
X414920Y352156D01*
X414781Y352493D01*
X414686Y352845D01*
X414504Y353161D01*
X414364Y353497D01*
X414143Y353786D01*
X413961Y354102D01*
X413703Y354360D01*
X413481Y354649D01*
X402899Y365231D01*
X401747Y366115D01*
X400407Y366670D01*
X398968Y366859D01*
D02*
G37*
G36*
X527527Y343702D02*
X526749D01*
X525998Y343501D01*
X525325Y343112D01*
X524775Y342563D01*
X524386Y341889D01*
X524185Y341138D01*
Y340361D01*
X524386Y339610D01*
X524775Y338936D01*
X525325Y338387D01*
X525998Y337998D01*
X526749Y337797D01*
X527527D01*
X528278Y337998D01*
X528951Y338387D01*
X529501Y338936D01*
X529889Y339610D01*
X530091Y340361D01*
Y341138D01*
X529889Y341889D01*
X529501Y342563D01*
X528951Y343112D01*
X528278Y343501D01*
X527527Y343702D01*
D02*
G37*
G36*
X499306Y337008D02*
X498529D01*
X497778Y336807D01*
X497105Y336418D01*
X496555Y335868D01*
X496166Y335195D01*
X495965Y334444D01*
Y333666D01*
X496166Y332915D01*
X496555Y332242D01*
X497105Y331692D01*
X497778Y331304D01*
X498529Y331102D01*
X499306D01*
X500057Y331304D01*
X500731Y331692D01*
X501280Y332242D01*
X501669Y332915D01*
X501870Y333666D01*
Y334444D01*
X501669Y335195D01*
X501280Y335868D01*
X500731Y336418D01*
X500057Y336807D01*
X499306Y337008D01*
D02*
G37*
G36*
X471747D02*
X470970D01*
X470219Y336807D01*
X469546Y336418D01*
X468996Y335868D01*
X468607Y335195D01*
X468406Y334444D01*
Y333666D01*
X468607Y332915D01*
X468996Y332242D01*
X469546Y331692D01*
X470219Y331304D01*
X470970Y331102D01*
X471747D01*
X472498Y331304D01*
X473172Y331692D01*
X473721Y332242D01*
X474110Y332915D01*
X474311Y333666D01*
Y334444D01*
X474110Y335195D01*
X473721Y335868D01*
X473172Y336418D01*
X472498Y336807D01*
X471747Y337008D01*
D02*
G37*
G36*
X444188D02*
X443411D01*
X442660Y336807D01*
X441986Y336418D01*
X441437Y335868D01*
X441048Y335195D01*
X440847Y334444D01*
Y333666D01*
X441048Y332915D01*
X441437Y332242D01*
X441986Y331692D01*
X442660Y331304D01*
X443411Y331102D01*
X444188D01*
X444939Y331304D01*
X445612Y331692D01*
X446162Y332242D01*
X446551Y332915D01*
X446752Y333666D01*
Y334444D01*
X446551Y335195D01*
X446162Y335868D01*
X445612Y336418D01*
X444939Y336807D01*
X444188Y337008D01*
D02*
G37*
G36*
X361511D02*
X360734D01*
X359982Y336807D01*
X359309Y336418D01*
X358759Y335868D01*
X358371Y335195D01*
X358170Y334444D01*
Y333666D01*
X358371Y332915D01*
X358759Y332242D01*
X359309Y331692D01*
X359982Y331304D01*
X360734Y331102D01*
X361511D01*
X362262Y331304D01*
X362935Y331692D01*
X363485Y332242D01*
X363874Y332915D01*
X364075Y333666D01*
Y334444D01*
X363874Y335195D01*
X363485Y335868D01*
X362935Y336418D01*
X362262Y336807D01*
X361511Y337008D01*
D02*
G37*
G36*
X306393D02*
X305615D01*
X304864Y336807D01*
X304191Y336418D01*
X303641Y335868D01*
X303253Y335195D01*
X303051Y334444D01*
Y333666D01*
X303253Y332915D01*
X303641Y332242D01*
X304191Y331692D01*
X304864Y331304D01*
X305615Y331102D01*
X306393D01*
X307144Y331304D01*
X307817Y331692D01*
X308367Y332242D01*
X308756Y332915D01*
X308957Y333666D01*
Y334444D01*
X308756Y335195D01*
X308367Y335868D01*
X307817Y336418D01*
X307144Y336807D01*
X306393Y337008D01*
D02*
G37*
G36*
X278834D02*
X278056D01*
X277305Y336807D01*
X276632Y336418D01*
X276082Y335868D01*
X275694Y335195D01*
X275492Y334444D01*
Y333666D01*
X275694Y332915D01*
X276082Y332242D01*
X276632Y331692D01*
X277305Y331304D01*
X278056Y331102D01*
X278834D01*
X279585Y331304D01*
X280258Y331692D01*
X280808Y332242D01*
X281197Y332915D01*
X281398Y333666D01*
Y334444D01*
X281197Y335195D01*
X280808Y335868D01*
X280258Y336418D01*
X279585Y336807D01*
X278834Y337008D01*
D02*
G37*
G36*
X532427Y336002D02*
X531649D01*
X530898Y335801D01*
X530225Y335412D01*
X529675Y334863D01*
X529286Y334189D01*
X529085Y333438D01*
Y332661D01*
X529286Y331910D01*
X529675Y331237D01*
X530225Y330687D01*
X530898Y330298D01*
X531649Y330097D01*
X532427D01*
X533178Y330298D01*
X533851Y330687D01*
X534401Y331237D01*
X534789Y331910D01*
X534991Y332661D01*
Y333438D01*
X534789Y334189D01*
X534401Y334863D01*
X533851Y335412D01*
X533178Y335801D01*
X532427Y336002D01*
D02*
G37*
G36*
X475789Y330953D02*
X475011D01*
X474260Y330751D01*
X473587Y330363D01*
X473037Y329813D01*
X472648Y329140D01*
X472447Y328389D01*
Y327611D01*
X472648Y326860D01*
X473037Y326187D01*
X473587Y325637D01*
X474260Y325249D01*
X475011Y325047D01*
X475789D01*
X476540Y325249D01*
X477213Y325637D01*
X477763Y326187D01*
X478152Y326860D01*
X478353Y327611D01*
Y328389D01*
X478152Y329140D01*
X477763Y329813D01*
X477213Y330363D01*
X476540Y330751D01*
X475789Y330953D01*
D02*
G37*
G36*
X565191Y315902D02*
X561738D01*
Y312450D01*
X565191D01*
Y315902D01*
D02*
G37*
G36*
X560738D02*
X557285D01*
Y312450D01*
X560738D01*
Y315902D01*
D02*
G37*
G36*
X565191Y311450D02*
X561738D01*
Y307997D01*
X565191D01*
Y311450D01*
D02*
G37*
G36*
X560738D02*
X557285D01*
Y307997D01*
X560738D01*
Y311450D01*
D02*
G37*
G36*
X426220Y316082D02*
X425442D01*
X424691Y315880D01*
X424018Y315492D01*
X423468Y314942D01*
X423079Y314268D01*
X422878Y313517D01*
Y312740D01*
X423079Y311989D01*
X423357Y311507D01*
X423079Y311025D01*
X422878Y310274D01*
Y309497D01*
X423079Y308746D01*
X423468Y308073D01*
X424018Y307523D01*
X424691Y307134D01*
X425442Y306933D01*
X426220D01*
X426970Y307134D01*
X427644Y307523D01*
X428194Y308073D01*
X428582Y308746D01*
X428784Y309497D01*
Y310274D01*
X428582Y311025D01*
X428304Y311507D01*
X428582Y311989D01*
X428784Y312740D01*
Y313517D01*
X428582Y314268D01*
X428194Y314942D01*
X427644Y315492D01*
X426970Y315880D01*
X426220Y316082D01*
D02*
G37*
G36*
X419720D02*
X418942D01*
X418191Y315880D01*
X417518Y315492D01*
X416968Y314942D01*
X416579Y314268D01*
X416378Y313517D01*
Y312740D01*
X416579Y311989D01*
X416857Y311507D01*
X416579Y311025D01*
X416378Y310274D01*
Y309497D01*
X416579Y308746D01*
X416968Y308073D01*
X417518Y307523D01*
X418191Y307134D01*
X418942Y306933D01*
X419720D01*
X420471Y307134D01*
X421144Y307523D01*
X421694Y308073D01*
X422082Y308746D01*
X422284Y309497D01*
Y310274D01*
X422082Y311025D01*
X421804Y311507D01*
X422082Y311989D01*
X422284Y312740D01*
Y313517D01*
X422082Y314268D01*
X421694Y314942D01*
X421144Y315492D01*
X420471Y315880D01*
X419720Y316082D01*
D02*
G37*
G36*
X387420D02*
X386642D01*
X385891Y315880D01*
X385218Y315492D01*
X384668Y314942D01*
X384279Y314268D01*
X384078Y313517D01*
Y312740D01*
X384279Y311989D01*
X384558Y311507D01*
X384279Y311025D01*
X384078Y310274D01*
Y309497D01*
X384279Y308746D01*
X384668Y308073D01*
X385218Y307523D01*
X385891Y307134D01*
X386642Y306933D01*
X387420D01*
X388171Y307134D01*
X388844Y307523D01*
X389394Y308073D01*
X389782Y308746D01*
X389984Y309497D01*
Y310274D01*
X389782Y311025D01*
X389504Y311507D01*
X389782Y311989D01*
X389984Y312740D01*
Y313517D01*
X389782Y314268D01*
X389394Y314942D01*
X388844Y315492D01*
X388171Y315880D01*
X387420Y316082D01*
D02*
G37*
G36*
X380920D02*
X380142D01*
X379391Y315880D01*
X378718Y315492D01*
X378168Y314942D01*
X377779Y314268D01*
X377578Y313517D01*
Y312740D01*
X377779Y311989D01*
X378058Y311507D01*
X377779Y311025D01*
X377578Y310274D01*
Y309497D01*
X377779Y308746D01*
X378168Y308073D01*
X378718Y307523D01*
X379391Y307134D01*
X380142Y306933D01*
X380920D01*
X381670Y307134D01*
X382344Y307523D01*
X382894Y308073D01*
X383282Y308746D01*
X383484Y309497D01*
Y310274D01*
X383282Y311025D01*
X383004Y311507D01*
X383282Y311989D01*
X383484Y312740D01*
Y313517D01*
X383282Y314268D01*
X382894Y314942D01*
X382344Y315492D01*
X381670Y315880D01*
X380920Y316082D01*
D02*
G37*
G36*
X493151Y310024D02*
X492373D01*
X491622Y309823D01*
X490949Y309434D01*
X490399Y308884D01*
X490010Y308211D01*
X489809Y307460D01*
Y306682D01*
X490010Y305931D01*
X490399Y305258D01*
X490037Y304929D01*
X489364Y305317D01*
X488613Y305519D01*
X487835D01*
X487084Y305317D01*
X486411Y304929D01*
X485861Y304379D01*
X485473Y303706D01*
X485271Y302955D01*
Y302177D01*
X485473Y301426D01*
X485861Y300753D01*
X486411Y300203D01*
X487084Y299814D01*
X487835Y299613D01*
X488613D01*
X489364Y299814D01*
X490037Y300203D01*
X490587Y300753D01*
X490976Y301426D01*
X491177Y302177D01*
Y302955D01*
X490976Y303706D01*
X490587Y304379D01*
X490949Y304708D01*
X491622Y304320D01*
X492373Y304118D01*
X493151D01*
X493902Y304320D01*
X494575Y304708D01*
X495125Y305258D01*
X495513Y305931D01*
X495715Y306682D01*
Y307460D01*
X495513Y308211D01*
X495125Y308884D01*
X494575Y309434D01*
X493902Y309823D01*
X493151Y310024D01*
D02*
G37*
G36*
X499647D02*
X498869D01*
X498118Y309823D01*
X497445Y309434D01*
X496895Y308884D01*
X496507Y308211D01*
X496305Y307460D01*
Y306682D01*
X496507Y305931D01*
X496895Y305258D01*
X497445Y304708D01*
X498118Y304320D01*
X498869Y304118D01*
X499647D01*
X500398Y304320D01*
X501071Y304708D01*
X501621Y305258D01*
X502009Y305931D01*
X502211Y306682D01*
Y307460D01*
X502009Y308211D01*
X501621Y308884D01*
X501071Y309434D01*
X500398Y309823D01*
X499647Y310024D01*
D02*
G37*
G36*
X554424Y309449D02*
X553647D01*
X552896Y309248D01*
X552223Y308859D01*
X551673Y308309D01*
X551284Y307636D01*
X551083Y306885D01*
Y306107D01*
X551284Y305356D01*
X551673Y304683D01*
X552223Y304133D01*
X552896Y303745D01*
X553647Y303543D01*
X554424D01*
X555175Y303745D01*
X555849Y304133D01*
X556398Y304683D01*
X556787Y305356D01*
X556988Y306107D01*
Y306885D01*
X556787Y307636D01*
X556398Y308309D01*
X555849Y308859D01*
X555175Y309248D01*
X554424Y309449D01*
D02*
G37*
G36*
X444188D02*
X443411D01*
X442660Y309248D01*
X441986Y308859D01*
X441437Y308309D01*
X441048Y307636D01*
X440847Y306885D01*
Y306107D01*
X441048Y305356D01*
X441437Y304683D01*
X441986Y304133D01*
X442660Y303745D01*
X443411Y303543D01*
X444188D01*
X444939Y303745D01*
X445612Y304133D01*
X446162Y304683D01*
X446551Y305356D01*
X446752Y306107D01*
Y306885D01*
X446551Y307636D01*
X446162Y308309D01*
X445612Y308859D01*
X444939Y309248D01*
X444188Y309449D01*
D02*
G37*
G36*
X306393D02*
X305615D01*
X304864Y309248D01*
X304191Y308859D01*
X303641Y308309D01*
X303253Y307636D01*
X303051Y306885D01*
Y306107D01*
X303253Y305356D01*
X303641Y304683D01*
X304191Y304133D01*
X304864Y303745D01*
X305615Y303543D01*
X306393D01*
X307144Y303745D01*
X307817Y304133D01*
X308367Y304683D01*
X308756Y305356D01*
X308957Y306107D01*
Y306885D01*
X308756Y307636D01*
X308367Y308309D01*
X307817Y308859D01*
X307144Y309248D01*
X306393Y309449D01*
D02*
G37*
G36*
X278834D02*
X278056D01*
X277305Y309248D01*
X276632Y308859D01*
X276082Y308309D01*
X275694Y307636D01*
X275492Y306885D01*
Y306107D01*
X275694Y305356D01*
X276082Y304683D01*
X276632Y304133D01*
X277305Y303745D01*
X278056Y303543D01*
X278834D01*
X279585Y303745D01*
X280258Y304133D01*
X280808Y304683D01*
X281197Y305356D01*
X281398Y306107D01*
Y306885D01*
X281197Y307636D01*
X280808Y308309D01*
X280258Y308859D01*
X279585Y309248D01*
X278834Y309449D01*
D02*
G37*
G36*
X506143Y310024D02*
X505365D01*
X504614Y309823D01*
X503941Y309434D01*
X503391Y308884D01*
X503003Y308211D01*
X502801Y307460D01*
Y306682D01*
X503003Y305931D01*
X503391Y305258D01*
X503941Y304708D01*
X504614Y304320D01*
X505365Y304118D01*
X506143D01*
X506894Y304320D01*
X507567Y304708D01*
X507897Y304346D01*
X507508Y303673D01*
X507307Y302922D01*
Y302145D01*
X507508Y301394D01*
X507897Y300720D01*
X508446Y300171D01*
X509120Y299782D01*
X509871Y299581D01*
X510648D01*
X511399Y299782D01*
X512073Y300171D01*
X512622Y300720D01*
X513011Y301394D01*
X513212Y302145D01*
Y302922D01*
X513011Y303673D01*
X512622Y304346D01*
X512073Y304896D01*
X511399Y305285D01*
X510648Y305486D01*
X509871D01*
X509120Y305285D01*
X508446Y304896D01*
X508117Y305258D01*
X508506Y305931D01*
X508707Y306682D01*
Y307460D01*
X508506Y308211D01*
X508117Y308884D01*
X507567Y309434D01*
X506894Y309823D01*
X506143Y310024D01*
D02*
G37*
G36*
X561834Y306477D02*
X560642D01*
X559490Y306169D01*
X558458Y305573D01*
X557615Y304730D01*
X557019Y303697D01*
X556710Y302546D01*
Y301354D01*
X557019Y300202D01*
X557615Y299170D01*
X558458Y298327D01*
X559490Y297731D01*
X560642Y297422D01*
X561834D01*
X562985Y297731D01*
X564018Y298327D01*
X564861Y299170D01*
X565457Y300202D01*
X565765Y301354D01*
Y302546D01*
X565457Y303697D01*
X564861Y304730D01*
X564018Y305573D01*
X562985Y306169D01*
X561834Y306477D01*
D02*
G37*
G36*
X330920Y298338D02*
X330142D01*
X329391Y298137D01*
X328718Y297748D01*
X328281Y297311D01*
X327844Y297748D01*
X327170Y298137D01*
X326419Y298338D01*
X325642D01*
X324891Y298137D01*
X324218Y297748D01*
X323781Y297311D01*
X323344Y297748D01*
X322671Y298137D01*
X321919Y298338D01*
X321142D01*
X320391Y298137D01*
X319718Y297748D01*
X319168Y297199D01*
X318779Y296525D01*
X318578Y295774D01*
Y294997D01*
X318779Y294246D01*
X319168Y293573D01*
X319718Y293023D01*
X320391Y292634D01*
X321142Y292433D01*
X321919D01*
X322671Y292634D01*
X323344Y293023D01*
X323781Y293460D01*
X324218Y293023D01*
X324891Y292634D01*
X325642Y292433D01*
X326419D01*
X327170Y292634D01*
X327844Y293023D01*
X328281Y293460D01*
X328718Y293023D01*
X329391Y292634D01*
X330142Y292433D01*
X330920D01*
X331670Y292634D01*
X332344Y293023D01*
X332894Y293573D01*
X333282Y294246D01*
X333484Y294997D01*
Y295774D01*
X333282Y296525D01*
X332894Y297199D01*
X332344Y297748D01*
X331670Y298137D01*
X330920Y298338D01*
D02*
G37*
G36*
X488613Y299023D02*
X487835D01*
X487084Y298821D01*
X486411Y298432D01*
X485861Y297883D01*
X485473Y297209D01*
X485271Y296458D01*
Y295681D01*
X485473Y294930D01*
X485861Y294257D01*
X486411Y293707D01*
X487084Y293318D01*
X487835Y293117D01*
X488613D01*
X489364Y293318D01*
X490037Y293707D01*
X490587Y294257D01*
X490976Y294930D01*
X491177Y295681D01*
Y296458D01*
X490976Y297209D01*
X490587Y297883D01*
X490037Y298432D01*
X489364Y298821D01*
X488613Y299023D01*
D02*
G37*
G36*
X510648Y298990D02*
X509871D01*
X509120Y298789D01*
X508446Y298400D01*
X507897Y297850D01*
X507508Y297177D01*
X507307Y296426D01*
Y295649D01*
X507508Y294898D01*
X507897Y294224D01*
X508446Y293674D01*
X509120Y293286D01*
X509871Y293085D01*
X510648D01*
X511399Y293286D01*
X512073Y293674D01*
X512622Y294224D01*
X513011Y294898D01*
X513212Y295649D01*
Y296426D01*
X513011Y297177D01*
X512622Y297850D01*
X512073Y298400D01*
X511399Y298789D01*
X510648Y298990D01*
D02*
G37*
G36*
X330920Y291172D02*
X330142D01*
X329391Y290971D01*
X328718Y290582D01*
X328281Y290145D01*
X327844Y290582D01*
X327170Y290971D01*
X326419Y291172D01*
X325642D01*
X324891Y290971D01*
X324218Y290582D01*
X323781Y290145D01*
X323344Y290582D01*
X322671Y290971D01*
X321919Y291172D01*
X321142D01*
X320391Y290971D01*
X319718Y290582D01*
X319168Y290032D01*
X318779Y289359D01*
X318578Y288608D01*
Y287831D01*
X318779Y287080D01*
X319168Y286406D01*
X319718Y285857D01*
X320054Y285662D01*
X320117Y285049D01*
X319805Y284737D01*
X319416Y284064D01*
X319215Y283313D01*
Y282535D01*
X319416Y281784D01*
X319805Y281111D01*
X320355Y280561D01*
X321028Y280172D01*
X321779Y279971D01*
X322556D01*
X323307Y280172D01*
X323981Y280561D01*
X324530Y281111D01*
X324919Y281784D01*
X325120Y282535D01*
Y283313D01*
X324919Y284064D01*
X324530Y284737D01*
X323981Y285287D01*
X323901Y285332D01*
X323924Y285897D01*
X324096Y285978D01*
X324218Y285857D01*
X324891Y285468D01*
X325642Y285267D01*
X326419D01*
X327170Y285468D01*
X327844Y285857D01*
X328281Y286294D01*
X328718Y285857D01*
X329391Y285468D01*
X330142Y285267D01*
X330920D01*
X331670Y285468D01*
X332344Y285857D01*
X332894Y286406D01*
X333282Y287080D01*
X333484Y287831D01*
Y288608D01*
X333282Y289359D01*
X332894Y290032D01*
X332344Y290582D01*
X331670Y290971D01*
X330920Y291172D01*
D02*
G37*
G36*
X561834Y296477D02*
X560642D01*
X559490Y296169D01*
X558458Y295572D01*
X557615Y294730D01*
X557019Y293697D01*
X556710Y292546D01*
Y291354D01*
X557019Y290202D01*
X557615Y289170D01*
X558458Y288327D01*
X559490Y287731D01*
X560642Y287422D01*
X561834D01*
X562985Y287731D01*
X564018Y288327D01*
X564861Y289170D01*
X565457Y290202D01*
X565765Y291354D01*
Y292546D01*
X565457Y293697D01*
X564861Y294730D01*
X564018Y295572D01*
X562985Y296169D01*
X561834Y296477D01*
D02*
G37*
G36*
X510648Y292494D02*
X509871D01*
X509120Y292293D01*
X508446Y291904D01*
X507897Y291354D01*
X507508Y290681D01*
X507307Y289930D01*
Y289153D01*
X507508Y288402D01*
X507897Y287728D01*
X507535Y287399D01*
X506861Y287787D01*
X506110Y287989D01*
X505333D01*
X504582Y287787D01*
X503909Y287399D01*
X503359Y286849D01*
X502970Y286176D01*
X502769Y285425D01*
Y284647D01*
X502970Y283896D01*
X503359Y283223D01*
X503909Y282673D01*
X504582Y282284D01*
X505333Y282083D01*
X506110D01*
X506861Y282284D01*
X507535Y282673D01*
X508084Y283223D01*
X508473Y283896D01*
X508674Y284647D01*
Y285425D01*
X508473Y286176D01*
X508084Y286849D01*
X508446Y287178D01*
X509120Y286790D01*
X509871Y286589D01*
X510648D01*
X511399Y286790D01*
X512073Y287178D01*
X512622Y287728D01*
X513011Y288402D01*
X513212Y289153D01*
Y289930D01*
X513011Y290681D01*
X512622Y291354D01*
X512073Y291904D01*
X511399Y292293D01*
X510648Y292494D01*
D02*
G37*
G36*
X488613Y292526D02*
X487835D01*
X487084Y292325D01*
X486411Y291936D01*
X485861Y291387D01*
X485473Y290713D01*
X485271Y289962D01*
Y289185D01*
X485473Y288434D01*
X485861Y287761D01*
X486411Y287211D01*
X487084Y286822D01*
X487835Y286621D01*
X488613D01*
X489364Y286822D01*
X490037Y287211D01*
X490367Y286849D01*
X489978Y286176D01*
X489777Y285425D01*
Y284647D01*
X489978Y283896D01*
X490367Y283223D01*
X490916Y282673D01*
X491590Y282284D01*
X492341Y282083D01*
X493118D01*
X493869Y282284D01*
X494543Y282673D01*
X495092Y283223D01*
X495481Y283896D01*
X495682Y284647D01*
Y285425D01*
X495481Y286176D01*
X495092Y286849D01*
X494543Y287399D01*
X493869Y287787D01*
X493118Y287989D01*
X492341D01*
X491590Y287787D01*
X490916Y287399D01*
X490587Y287761D01*
X490976Y288434D01*
X491177Y289185D01*
Y289962D01*
X490976Y290713D01*
X490587Y291387D01*
X490037Y291936D01*
X489364Y292325D01*
X488613Y292526D01*
D02*
G37*
G36*
X561834Y286477D02*
X560642D01*
X559490Y286169D01*
X558458Y285573D01*
X557615Y284730D01*
X557019Y283697D01*
X556710Y282546D01*
Y281353D01*
X557019Y280202D01*
X557615Y279170D01*
X558458Y278327D01*
X559490Y277731D01*
X560642Y277422D01*
X561834D01*
X562985Y277731D01*
X564018Y278327D01*
X564861Y279170D01*
X565457Y280202D01*
X565765Y281353D01*
Y282546D01*
X565457Y283697D01*
X564861Y284730D01*
X564018Y285573D01*
X562985Y286169D01*
X561834Y286477D01*
D02*
G37*
G36*
X499614Y287989D02*
X498837D01*
X498086Y287787D01*
X497413Y287399D01*
X496863Y286849D01*
X496474Y286176D01*
X496273Y285425D01*
Y284647D01*
X496474Y283896D01*
X496863Y283223D01*
X497413Y282673D01*
X498081Y282287D01*
X498086Y282268D01*
X498077Y281769D01*
X497778Y281689D01*
X497105Y281300D01*
X496555Y280750D01*
X496166Y280077D01*
X495965Y279326D01*
Y278548D01*
X496166Y277797D01*
X496555Y277124D01*
X497105Y276574D01*
X497778Y276186D01*
X498529Y275984D01*
X499306D01*
X500057Y276186D01*
X500731Y276574D01*
X501280Y277124D01*
X501669Y277797D01*
X501870Y278548D01*
Y279326D01*
X501669Y280077D01*
X501280Y280750D01*
X500731Y281300D01*
X500063Y281686D01*
X500058Y281705D01*
X500066Y282204D01*
X500365Y282284D01*
X501039Y282673D01*
X501588Y283223D01*
X501977Y283896D01*
X502178Y284647D01*
Y285425D01*
X501977Y286176D01*
X501588Y286849D01*
X501039Y287399D01*
X500365Y287787D01*
X499614Y287989D01*
D02*
G37*
G36*
X444188Y281890D02*
X443411D01*
X442660Y281689D01*
X441986Y281300D01*
X441437Y280750D01*
X441048Y280077D01*
X440847Y279326D01*
Y278548D01*
X441048Y277797D01*
X441437Y277124D01*
X441986Y276574D01*
X442660Y276186D01*
X443411Y275984D01*
X444188D01*
X444939Y276186D01*
X445612Y276574D01*
X446162Y277124D01*
X446551Y277797D01*
X446752Y278548D01*
Y279326D01*
X446551Y280077D01*
X446162Y280750D01*
X445612Y281300D01*
X444939Y281689D01*
X444188Y281890D01*
D02*
G37*
G36*
X333952D02*
X333174D01*
X332423Y281689D01*
X331750Y281300D01*
X331200Y280750D01*
X330812Y280077D01*
X330610Y279326D01*
Y278548D01*
X330812Y277797D01*
X331200Y277124D01*
X331750Y276574D01*
X332423Y276186D01*
X333174Y275984D01*
X333952D01*
X334703Y276186D01*
X335376Y276574D01*
X335926Y277124D01*
X336315Y277797D01*
X336516Y278548D01*
Y279326D01*
X336315Y280077D01*
X335926Y280750D01*
X335376Y281300D01*
X334703Y281689D01*
X333952Y281890D01*
D02*
G37*
G36*
X306393D02*
X305615D01*
X304864Y281689D01*
X304191Y281300D01*
X303641Y280750D01*
X303253Y280077D01*
X303051Y279326D01*
Y278548D01*
X303253Y277797D01*
X303641Y277124D01*
X304191Y276574D01*
X304864Y276186D01*
X305615Y275984D01*
X306393D01*
X307144Y276186D01*
X307817Y276574D01*
X308367Y277124D01*
X308756Y277797D01*
X308957Y278548D01*
Y279326D01*
X308756Y280077D01*
X308367Y280750D01*
X307817Y281300D01*
X307144Y281689D01*
X306393Y281890D01*
D02*
G37*
G36*
X278834D02*
X278056D01*
X277305Y281689D01*
X276632Y281300D01*
X276082Y280750D01*
X275694Y280077D01*
X275492Y279326D01*
Y278548D01*
X275694Y277797D01*
X276082Y277124D01*
X276632Y276574D01*
X277305Y276186D01*
X278056Y275984D01*
X278834D01*
X279585Y276186D01*
X280258Y276574D01*
X280808Y277124D01*
X281197Y277797D01*
X281398Y278548D01*
Y279326D01*
X281197Y280077D01*
X280808Y280750D01*
X280258Y281300D01*
X279585Y281689D01*
X278834Y281890D01*
D02*
G37*
G36*
X251275D02*
X250497D01*
X249746Y281689D01*
X249073Y281300D01*
X248523Y280750D01*
X248134Y280077D01*
X247933Y279326D01*
Y278548D01*
X248134Y277797D01*
X248523Y277124D01*
X249073Y276574D01*
X249746Y276186D01*
X250497Y275984D01*
X251275D01*
X252026Y276186D01*
X252699Y276574D01*
X253249Y277124D01*
X253638Y277797D01*
X253839Y278548D01*
Y279326D01*
X253638Y280077D01*
X253249Y280750D01*
X252699Y281300D01*
X252026Y281689D01*
X251275Y281890D01*
D02*
G37*
G36*
X220889Y282853D02*
X220111D01*
X219360Y282651D01*
X218687Y282263D01*
X218137Y281713D01*
X217748Y281040D01*
X217547Y280289D01*
Y279511D01*
X217748Y278760D01*
X218137Y278087D01*
X218687Y277537D01*
X219360Y277149D01*
X220111Y276947D01*
X220889D01*
X221088Y277001D01*
X221514Y276574D01*
X222187Y276186D01*
X222938Y275984D01*
X223716D01*
X224467Y276186D01*
X225140Y276574D01*
X225690Y277124D01*
X226079Y277797D01*
X226280Y278548D01*
Y279326D01*
X226079Y280077D01*
X225690Y280750D01*
X225140Y281300D01*
X224467Y281689D01*
X223716Y281890D01*
X222938D01*
X222739Y281837D01*
X222313Y282263D01*
X221640Y282651D01*
X220889Y282853D01*
D02*
G37*
G36*
X353919Y281371D02*
X353141D01*
X352390Y281170D01*
X351717Y280781D01*
X351167Y280231D01*
X350778Y279558D01*
X350577Y278807D01*
Y278030D01*
X350778Y277279D01*
X351167Y276605D01*
X351717Y276056D01*
X352390Y275667D01*
X353141Y275466D01*
X353919D01*
X354669Y275667D01*
X355343Y276056D01*
X355893Y276605D01*
X356281Y277279D01*
X356483Y278030D01*
Y278807D01*
X356281Y279558D01*
X355893Y280231D01*
X355343Y280781D01*
X354669Y281170D01*
X353919Y281371D01*
D02*
G37*
G36*
X362962Y281339D02*
X362184D01*
X361433Y281137D01*
X360760Y280749D01*
X360210Y280199D01*
X359822Y279526D01*
X359620Y278775D01*
Y277997D01*
X359822Y277246D01*
X360210Y276573D01*
X360760Y276023D01*
X361433Y275635D01*
X362184Y275433D01*
X362962D01*
X363713Y275635D01*
X364386Y276023D01*
X364936Y276573D01*
X365324Y277246D01*
X365526Y277997D01*
Y278775D01*
X365324Y279526D01*
X364936Y280199D01*
X364386Y280749D01*
X363713Y281137D01*
X362962Y281339D01*
D02*
G37*
G36*
X426220Y280845D02*
X425442D01*
X424691Y280644D01*
X424018Y280255D01*
X423468Y279706D01*
X423079Y279032D01*
X422878Y278281D01*
Y277504D01*
X423079Y276753D01*
X423357Y276271D01*
X423079Y275789D01*
X422878Y275038D01*
Y274261D01*
X423079Y273510D01*
X423468Y272836D01*
X424018Y272287D01*
X424691Y271898D01*
X425442Y271697D01*
X426220D01*
X426970Y271898D01*
X427644Y272287D01*
X428194Y272836D01*
X428582Y273510D01*
X428784Y274261D01*
Y275038D01*
X428582Y275789D01*
X428304Y276271D01*
X428582Y276753D01*
X428784Y277504D01*
Y278281D01*
X428582Y279032D01*
X428194Y279706D01*
X427644Y280255D01*
X426970Y280644D01*
X426220Y280845D01*
D02*
G37*
G36*
X419720D02*
X418942D01*
X418191Y280644D01*
X417518Y280255D01*
X416968Y279706D01*
X416579Y279032D01*
X416378Y278281D01*
Y277504D01*
X416579Y276753D01*
X416857Y276271D01*
X416579Y275789D01*
X416378Y275038D01*
Y274261D01*
X416579Y273510D01*
X416968Y272836D01*
X417518Y272287D01*
X418191Y271898D01*
X418942Y271697D01*
X419720D01*
X420471Y271898D01*
X421144Y272287D01*
X421694Y272836D01*
X422082Y273510D01*
X422284Y274261D01*
Y275038D01*
X422082Y275789D01*
X421804Y276271D01*
X422082Y276753D01*
X422284Y277504D01*
Y278281D01*
X422082Y279032D01*
X421694Y279706D01*
X421144Y280255D01*
X420471Y280644D01*
X419720Y280845D01*
D02*
G37*
G36*
X387420D02*
X386642D01*
X385891Y280644D01*
X385218Y280255D01*
X384668Y279706D01*
X384279Y279032D01*
X384078Y278281D01*
Y277504D01*
X384279Y276753D01*
X384558Y276271D01*
X384279Y275789D01*
X384078Y275038D01*
Y274261D01*
X384279Y273510D01*
X384668Y272836D01*
X385218Y272287D01*
X385891Y271898D01*
X386642Y271697D01*
X387420D01*
X388171Y271898D01*
X388844Y272287D01*
X389394Y272836D01*
X389782Y273510D01*
X389984Y274261D01*
Y275038D01*
X389782Y275789D01*
X389504Y276271D01*
X389782Y276753D01*
X389984Y277504D01*
Y278281D01*
X389782Y279032D01*
X389394Y279706D01*
X388844Y280255D01*
X388171Y280644D01*
X387420Y280845D01*
D02*
G37*
G36*
X380920D02*
X380142D01*
X379391Y280644D01*
X378718Y280255D01*
X378168Y279706D01*
X377779Y279032D01*
X377578Y278281D01*
Y277504D01*
X377779Y276753D01*
X378058Y276271D01*
X377779Y275789D01*
X377578Y275038D01*
Y274261D01*
X377779Y273510D01*
X378168Y272836D01*
X378718Y272287D01*
X379391Y271898D01*
X380142Y271697D01*
X380920D01*
X381670Y271898D01*
X382344Y272287D01*
X382894Y272836D01*
X383282Y273510D01*
X383484Y274261D01*
Y275038D01*
X383282Y275789D01*
X383004Y276271D01*
X383282Y276753D01*
X383484Y277504D01*
Y278281D01*
X383282Y279032D01*
X382894Y279706D01*
X382344Y280255D01*
X381670Y280644D01*
X380920Y280845D01*
D02*
G37*
G36*
X322524Y276833D02*
X321746D01*
X320995Y276632D01*
X320322Y276243D01*
X319772Y275694D01*
X319384Y275020D01*
X319182Y274269D01*
Y273492D01*
X319384Y272741D01*
X319772Y272068D01*
X320322Y271518D01*
X320995Y271129D01*
X321746Y270928D01*
X322524D01*
X323275Y271129D01*
X323948Y271518D01*
X324498Y272068D01*
X324887Y272741D01*
X325088Y273492D01*
Y274269D01*
X324887Y275020D01*
X324498Y275694D01*
X323948Y276243D01*
X323275Y276632D01*
X322524Y276833D01*
D02*
G37*
G36*
X531589Y271553D02*
X530811D01*
X530060Y271352D01*
X529387Y270963D01*
X528837Y270413D01*
X528448Y269740D01*
X528247Y268989D01*
Y268211D01*
X528330Y267904D01*
X528030Y267633D01*
X527904Y267561D01*
X527189Y267753D01*
X526411D01*
X525660Y267551D01*
X524987Y267163D01*
X524437Y266613D01*
X524049Y265940D01*
X523847Y265189D01*
Y264411D01*
X524049Y263660D01*
X524437Y262987D01*
X524987Y262437D01*
X525660Y262049D01*
X526411Y261847D01*
X527189D01*
X527940Y262049D01*
X528613Y262437D01*
X529163Y262987D01*
X529552Y263660D01*
X529753Y264411D01*
Y265189D01*
X529670Y265496D01*
X529970Y265767D01*
X530096Y265839D01*
X530811Y265647D01*
X531589D01*
X532340Y265848D01*
X533013Y266237D01*
X533563Y266787D01*
X533952Y267460D01*
X534153Y268211D01*
Y268989D01*
X533952Y269740D01*
X533563Y270413D01*
X533013Y270963D01*
X532340Y271352D01*
X531589Y271553D01*
D02*
G37*
G36*
X561834Y276477D02*
X560642D01*
X559490Y276169D01*
X558458Y275572D01*
X557615Y274730D01*
X557019Y273697D01*
X556710Y272546D01*
Y271354D01*
X557019Y270202D01*
X557615Y269170D01*
X558458Y268327D01*
X559490Y267731D01*
X560642Y267422D01*
X561834D01*
X562985Y267731D01*
X564018Y268327D01*
X564861Y269170D01*
X565457Y270202D01*
X565765Y271354D01*
Y272546D01*
X565457Y273697D01*
X564861Y274730D01*
X564018Y275572D01*
X562985Y276169D01*
X561834Y276477D01*
D02*
G37*
G36*
X502427Y267402D02*
X501649D01*
X500898Y267201D01*
X500225Y266812D01*
X499964Y266552D01*
X499703Y266812D01*
X499030Y267201D01*
X498279Y267402D01*
X497502D01*
X496750Y267201D01*
X496077Y266812D01*
X495528Y266263D01*
X495139Y265589D01*
X494938Y264838D01*
Y264061D01*
X495139Y263310D01*
X495528Y262636D01*
X496077Y262087D01*
X496750Y261698D01*
X497502Y261497D01*
X498279D01*
X499030Y261698D01*
X499703Y262087D01*
X499964Y262348D01*
X500225Y262087D01*
X500898Y261698D01*
X501649Y261497D01*
X502427D01*
X503178Y261698D01*
X503851Y262087D01*
X504401Y262636D01*
X504789Y263310D01*
X504991Y264061D01*
Y264838D01*
X504789Y265589D01*
X504401Y266263D01*
X503851Y266812D01*
X503178Y267201D01*
X502427Y267402D01*
D02*
G37*
G36*
X513636D02*
X512859D01*
X512108Y267201D01*
X511434Y266812D01*
X511071Y266449D01*
X510707Y266812D01*
X510034Y267201D01*
X509282Y267402D01*
X508505D01*
X507754Y267201D01*
X507081Y266812D01*
X506531Y266263D01*
X506142Y265589D01*
X505941Y264838D01*
Y264061D01*
X506142Y263310D01*
X506531Y262636D01*
X507081Y262087D01*
X507754Y261698D01*
X508505Y261497D01*
X509282D01*
X510034Y261698D01*
X510707Y262087D01*
X511071Y262451D01*
X511434Y262087D01*
X512108Y261698D01*
X512859Y261497D01*
X513636D01*
X514387Y261698D01*
X515060Y262087D01*
X515610Y262636D01*
X515999Y263310D01*
X516200Y264061D01*
Y264838D01*
X515999Y265589D01*
X515610Y266263D01*
X515060Y266812D01*
X514387Y267201D01*
X513636Y267402D01*
D02*
G37*
G36*
X489616Y266453D02*
X488838D01*
X488087Y266251D01*
X487414Y265863D01*
X486864Y265313D01*
X486475Y264640D01*
X486274Y263889D01*
Y263111D01*
X486475Y262360D01*
X486864Y261687D01*
X487414Y261137D01*
X488087Y260749D01*
X488838Y260547D01*
X489616D01*
X490367Y260749D01*
X491040Y261137D01*
X491590Y261687D01*
X491978Y262360D01*
X492180Y263111D01*
Y263889D01*
X491978Y264640D01*
X491590Y265313D01*
X491040Y265863D01*
X490367Y266251D01*
X489616Y266453D01*
D02*
G37*
G36*
X480952D02*
X480175D01*
X479424Y266251D01*
X478750Y265863D01*
X478201Y265313D01*
X477812Y264640D01*
X477611Y263889D01*
Y263111D01*
X477812Y262360D01*
X478201Y261687D01*
X478750Y261137D01*
X479424Y260749D01*
X480175Y260547D01*
X480952D01*
X481703Y260749D01*
X482376Y261137D01*
X482926Y261687D01*
X483315Y262360D01*
X483516Y263111D01*
Y263889D01*
X483315Y264640D01*
X482926Y265313D01*
X482376Y265863D01*
X481703Y266251D01*
X480952Y266453D01*
D02*
G37*
G36*
X472289D02*
X471511D01*
X470760Y266251D01*
X470087Y265863D01*
X469537Y265313D01*
X469148Y264640D01*
X468947Y263889D01*
Y263111D01*
X469148Y262360D01*
X469537Y261687D01*
X470087Y261137D01*
X470760Y260749D01*
X471511Y260547D01*
X472289D01*
X473040Y260749D01*
X473713Y261137D01*
X474263Y261687D01*
X474651Y262360D01*
X474853Y263111D01*
Y263889D01*
X474651Y264640D01*
X474263Y265313D01*
X473713Y265863D01*
X473040Y266251D01*
X472289Y266453D01*
D02*
G37*
G36*
X561834Y266477D02*
X560642D01*
X559490Y266169D01*
X558458Y265573D01*
X557615Y264730D01*
X557019Y263697D01*
X556710Y262546D01*
Y261353D01*
X557019Y260202D01*
X557615Y259170D01*
X558458Y258327D01*
X559490Y257731D01*
X560642Y257422D01*
X561834D01*
X562985Y257731D01*
X564018Y258327D01*
X564861Y259170D01*
X565457Y260202D01*
X565765Y261353D01*
Y262546D01*
X565457Y263697D01*
X564861Y264730D01*
X564018Y265573D01*
X562985Y266169D01*
X561834Y266477D01*
D02*
G37*
G36*
X554424Y254331D02*
X553647D01*
X552896Y254130D01*
X552223Y253741D01*
X551673Y253191D01*
X551284Y252518D01*
X551083Y251767D01*
Y250989D01*
X551284Y250238D01*
X551673Y249565D01*
X552223Y249015D01*
X552896Y248626D01*
X553647Y248425D01*
X554424D01*
X555175Y248626D01*
X555849Y249015D01*
X556398Y249565D01*
X556787Y250238D01*
X556988Y250989D01*
Y251767D01*
X556787Y252518D01*
X556398Y253191D01*
X555849Y253741D01*
X555175Y254130D01*
X554424Y254331D01*
D02*
G37*
G36*
X499306D02*
X498529D01*
X497778Y254130D01*
X497105Y253741D01*
X496555Y253191D01*
X496166Y252518D01*
X495965Y251767D01*
Y250989D01*
X496166Y250238D01*
X496555Y249565D01*
X497105Y249015D01*
X497778Y248626D01*
X498529Y248425D01*
X499306D01*
X500057Y248626D01*
X500731Y249015D01*
X501280Y249565D01*
X501669Y250238D01*
X501870Y250989D01*
Y251767D01*
X501669Y252518D01*
X501280Y253191D01*
X500731Y253741D01*
X500057Y254130D01*
X499306Y254331D01*
D02*
G37*
G36*
X278834D02*
X278056D01*
X277305Y254130D01*
X276632Y253741D01*
X276082Y253191D01*
X275694Y252518D01*
X275492Y251767D01*
Y250989D01*
X275694Y250238D01*
X276082Y249565D01*
X276632Y249015D01*
X277305Y248626D01*
X278056Y248425D01*
X278834D01*
X279585Y248626D01*
X280258Y249015D01*
X280808Y249565D01*
X281197Y250238D01*
X281398Y250989D01*
Y251767D01*
X281197Y252518D01*
X280808Y253191D01*
X280258Y253741D01*
X279585Y254130D01*
X278834Y254331D01*
D02*
G37*
G36*
X251275D02*
X250497D01*
X249746Y254130D01*
X249073Y253741D01*
X248523Y253191D01*
X248134Y252518D01*
X247933Y251767D01*
Y250989D01*
X248134Y250238D01*
X248523Y249565D01*
X249073Y249015D01*
X249746Y248626D01*
X250497Y248425D01*
X251275D01*
X252026Y248626D01*
X252699Y249015D01*
X253249Y249565D01*
X253638Y250238D01*
X253839Y250989D01*
Y251767D01*
X253638Y252518D01*
X253249Y253191D01*
X252699Y253741D01*
X252026Y254130D01*
X251275Y254331D01*
D02*
G37*
G36*
X223716D02*
X222938D01*
X222187Y254130D01*
X221514Y253741D01*
X220964Y253191D01*
X220575Y252518D01*
X220374Y251767D01*
Y250989D01*
X220575Y250238D01*
X220964Y249565D01*
X221514Y249015D01*
X222187Y248626D01*
X222938Y248425D01*
X223716D01*
X224467Y248626D01*
X225140Y249015D01*
X225690Y249565D01*
X226079Y250238D01*
X226280Y250989D01*
Y251767D01*
X226079Y252518D01*
X225690Y253191D01*
X225140Y253741D01*
X224467Y254130D01*
X223716Y254331D01*
D02*
G37*
G36*
X204689Y253853D02*
X203911D01*
X203160Y253651D01*
X202487Y253263D01*
X201937Y252713D01*
X201549Y252040D01*
X201347Y251289D01*
Y250511D01*
X201549Y249760D01*
X201937Y249087D01*
X202487Y248537D01*
X203160Y248148D01*
X203911Y247947D01*
X204689D01*
X205440Y248148D01*
X206113Y248537D01*
X206663Y249087D01*
X207051Y249760D01*
X207253Y250511D01*
Y251289D01*
X207051Y252040D01*
X206663Y252713D01*
X206113Y253263D01*
X205440Y253651D01*
X204689Y253853D01*
D02*
G37*
G36*
X367977Y258396D02*
X367200D01*
X366449Y258195D01*
X365775Y257806D01*
X365226Y257257D01*
X364837Y256583D01*
X364636Y255832D01*
Y255055D01*
X364837Y254304D01*
X365226Y253631D01*
X365585Y253272D01*
X365226Y252913D01*
X364837Y252240D01*
X364636Y251489D01*
Y250711D01*
X364837Y249960D01*
X365226Y249287D01*
X365538Y248975D01*
X365226Y248663D01*
X364837Y247989D01*
X364636Y247238D01*
Y246461D01*
X364837Y245710D01*
X365226Y245037D01*
X365775Y244487D01*
X366449Y244098D01*
X367200Y243897D01*
X367977D01*
X368728Y244098D01*
X369402Y244487D01*
X369951Y245037D01*
X370340Y245710D01*
X370541Y246461D01*
Y247238D01*
X370340Y247989D01*
X369951Y248663D01*
X369639Y248975D01*
X369951Y249287D01*
X370340Y249960D01*
X370541Y250711D01*
Y251489D01*
X370340Y252240D01*
X369951Y252913D01*
X369593Y253272D01*
X369951Y253631D01*
X370340Y254304D01*
X370541Y255055D01*
Y255832D01*
X370340Y256583D01*
X369951Y257257D01*
X369402Y257806D01*
X368728Y258195D01*
X367977Y258396D01*
D02*
G37*
G36*
X356110Y258202D02*
X355332D01*
X354581Y258001D01*
X353908Y257612D01*
X353358Y257063D01*
X352970Y256389D01*
X352768Y255638D01*
Y254861D01*
X352970Y254110D01*
X353358Y253436D01*
X353620Y253175D01*
X353358Y252913D01*
X352970Y252240D01*
X352768Y251489D01*
Y250711D01*
X352970Y249960D01*
X353358Y249287D01*
X353671Y248975D01*
X353358Y248663D01*
X352970Y247989D01*
X352768Y247238D01*
Y246461D01*
X352970Y245710D01*
X353358Y245037D01*
X353908Y244487D01*
X354581Y244098D01*
X355332Y243897D01*
X356110D01*
X356861Y244098D01*
X357534Y244487D01*
X358084Y245037D01*
X358473Y245710D01*
X358674Y246461D01*
Y247238D01*
X358473Y247989D01*
X358084Y248663D01*
X357772Y248975D01*
X358084Y249287D01*
X358473Y249960D01*
X358674Y250711D01*
Y251489D01*
X358473Y252240D01*
X358084Y252913D01*
X357822Y253175D01*
X358084Y253436D01*
X358473Y254110D01*
X358674Y254861D01*
Y255638D01*
X358473Y256389D01*
X358084Y257063D01*
X357534Y257612D01*
X356861Y258001D01*
X356110Y258202D01*
D02*
G37*
G36*
X267389Y246053D02*
X266611D01*
X265860Y245851D01*
X265187Y245463D01*
X264637Y244913D01*
X264248Y244240D01*
X264047Y243489D01*
Y242711D01*
X264248Y241960D01*
X264637Y241287D01*
X264890Y241034D01*
X265157Y240700D01*
X264890Y240366D01*
X264637Y240113D01*
X264248Y239440D01*
X264047Y238689D01*
Y237911D01*
X264248Y237160D01*
X264637Y236487D01*
X265187Y235937D01*
X265860Y235548D01*
X266611Y235347D01*
X267389D01*
X268140Y235548D01*
X268813Y235937D01*
X269363Y236487D01*
X269752Y237160D01*
X269953Y237911D01*
Y238689D01*
X269752Y239440D01*
X269363Y240113D01*
X269110Y240366D01*
X268843Y240700D01*
X269110Y241034D01*
X269363Y241287D01*
X269752Y241960D01*
X269953Y242711D01*
Y243489D01*
X269752Y244240D01*
X269363Y244913D01*
X268813Y245463D01*
X268140Y245851D01*
X267389Y246053D01*
D02*
G37*
G36*
X561694Y240865D02*
X560917D01*
X560166Y240664D01*
X559493Y240275D01*
X558943Y239726D01*
X558554Y239052D01*
X558353Y238301D01*
Y237524D01*
X558554Y236773D01*
X558943Y236100D01*
X559493Y235550D01*
X560166Y235161D01*
X560917Y234960D01*
X561694D01*
X562445Y235161D01*
X563119Y235550D01*
X563668Y236100D01*
X564057Y236773D01*
X564258Y237524D01*
Y238301D01*
X564057Y239052D01*
X563668Y239726D01*
X563119Y240275D01*
X562445Y240664D01*
X561694Y240865D01*
D02*
G37*
G36*
X513559Y244741D02*
X512781D01*
X512030Y244540D01*
X511357Y244151D01*
X510807Y243601D01*
X510419Y242928D01*
X510217Y242177D01*
Y241399D01*
X510419Y240648D01*
X510807Y239975D01*
X510963Y239820D01*
X510807Y239664D01*
X510419Y238991D01*
X510217Y238240D01*
Y237462D01*
X510419Y236711D01*
X510807Y236038D01*
X511357Y235488D01*
X512030Y235100D01*
X512781Y234898D01*
X513559D01*
X514310Y235100D01*
X514983Y235488D01*
X515533Y236038D01*
X515922Y236711D01*
X516123Y237462D01*
Y238240D01*
X515922Y238991D01*
X515533Y239664D01*
X515378Y239820D01*
X515533Y239975D01*
X515922Y240648D01*
X516123Y241399D01*
Y242177D01*
X515922Y242928D01*
X515533Y243601D01*
X514983Y244151D01*
X514310Y244540D01*
X513559Y244741D01*
D02*
G37*
G36*
X446788Y237887D02*
X446638D01*
Y233450D01*
X451075D01*
Y233599D01*
X450738Y234855D01*
X450089Y235981D01*
X449169Y236900D01*
X448043Y237550D01*
X446788Y237887D01*
D02*
G37*
G36*
X308756Y238480D02*
X307978D01*
X307227Y238279D01*
X306554Y237890D01*
X306004Y237341D01*
X305615Y236667D01*
X305414Y235916D01*
Y235139D01*
X305615Y234388D01*
X306004Y233715D01*
X306554Y233165D01*
X307227Y232776D01*
X307978Y232575D01*
X308756D01*
X309507Y232776D01*
X310180Y233165D01*
X310730Y233715D01*
X311118Y234388D01*
X311320Y235139D01*
Y235916D01*
X311118Y236667D01*
X310730Y237341D01*
X310180Y237890D01*
X309507Y238279D01*
X308756Y238480D01*
D02*
G37*
G36*
X355032Y234402D02*
X354255D01*
X353504Y234201D01*
X352830Y233812D01*
X352280Y233263D01*
X351892Y232589D01*
X351691Y231838D01*
Y231061D01*
X351892Y230310D01*
X352280Y229637D01*
X352830Y229087D01*
X353504Y228698D01*
X354255Y228497D01*
X355032D01*
X355783Y228698D01*
X356456Y229087D01*
X357006Y229637D01*
X357395Y230310D01*
X357596Y231061D01*
Y231838D01*
X357395Y232589D01*
X357006Y233263D01*
X356456Y233812D01*
X355783Y234201D01*
X355032Y234402D01*
D02*
G37*
G36*
X338632Y238480D02*
X337854D01*
X337103Y238279D01*
X336430Y237890D01*
X335880Y237341D01*
X335491Y236667D01*
X335290Y235916D01*
Y235139D01*
X335491Y234388D01*
X335880Y233715D01*
X336430Y233165D01*
X337103Y232776D01*
X337854Y232575D01*
X338220D01*
X338604Y232075D01*
X338540Y231838D01*
Y231061D01*
X338741Y230310D01*
X339130Y229637D01*
X339680Y229087D01*
X340353Y228698D01*
X341104Y228497D01*
X341882D01*
X342633Y228698D01*
X343306Y229087D01*
X343856Y229637D01*
X344245Y230310D01*
X344446Y231061D01*
Y231838D01*
X344245Y232589D01*
X343856Y233263D01*
X343306Y233812D01*
X342633Y234201D01*
X341882Y234402D01*
X341516D01*
X341132Y234902D01*
X341196Y235139D01*
Y235916D01*
X340994Y236667D01*
X340606Y237341D01*
X340056Y237890D01*
X339383Y238279D01*
X338632Y238480D01*
D02*
G37*
G36*
X328731Y234402D02*
X327954D01*
X327203Y234201D01*
X326530Y233812D01*
X325980Y233263D01*
X325591Y232589D01*
X325390Y231838D01*
Y231061D01*
X325591Y230310D01*
X325980Y229637D01*
X326530Y229087D01*
X327203Y228698D01*
X327954Y228497D01*
X328731D01*
X329482Y228698D01*
X330155Y229087D01*
X330705Y229637D01*
X331094Y230310D01*
X331295Y231061D01*
Y231838D01*
X331094Y232589D01*
X330705Y233263D01*
X330155Y233812D01*
X329482Y234201D01*
X328731Y234402D01*
D02*
G37*
G36*
X248789Y230953D02*
X248011D01*
X247260Y230751D01*
X246587Y230363D01*
X246037Y229813D01*
X245649Y229140D01*
X245447Y228389D01*
Y227611D01*
X245649Y226860D01*
X246037Y226187D01*
X246587Y225637D01*
X247260Y225249D01*
X248011Y225047D01*
X248789D01*
X249540Y225249D01*
X250213Y225637D01*
X250763Y226187D01*
X251151Y226860D01*
X251353Y227611D01*
Y228389D01*
X251151Y229140D01*
X250763Y229813D01*
X250213Y230363D01*
X249540Y230751D01*
X248789Y230953D01*
D02*
G37*
G36*
X289620Y230447D02*
X288843D01*
X288092Y230246D01*
X287418Y229857D01*
X286869Y229307D01*
X286480Y228634D01*
X286279Y227883D01*
Y227105D01*
X286480Y226354D01*
X286869Y225681D01*
X287418Y225131D01*
X288092Y224743D01*
X288843Y224541D01*
X289620D01*
X290371Y224743D01*
X291044Y225131D01*
X291594Y225681D01*
X291983Y226354D01*
X292184Y227105D01*
Y227883D01*
X291983Y228634D01*
X291594Y229307D01*
X291044Y229857D01*
X290371Y230246D01*
X289620Y230447D01*
D02*
G37*
G36*
X554424Y226772D02*
X553647D01*
X552896Y226571D01*
X552223Y226182D01*
X551673Y225632D01*
X551284Y224959D01*
X551083Y224208D01*
Y223430D01*
X551284Y222679D01*
X551673Y222006D01*
X552223Y221456D01*
X552896Y221068D01*
X553647Y220866D01*
X554424D01*
X555175Y221068D01*
X555849Y221456D01*
X556398Y222006D01*
X556787Y222679D01*
X556988Y223430D01*
Y224208D01*
X556787Y224959D01*
X556398Y225632D01*
X555849Y226182D01*
X555175Y226571D01*
X554424Y226772D01*
D02*
G37*
G36*
X526865D02*
X526088D01*
X525337Y226571D01*
X524664Y226182D01*
X524114Y225632D01*
X523725Y224959D01*
X523524Y224208D01*
Y223430D01*
X523725Y222679D01*
X524114Y222006D01*
X524664Y221456D01*
X525337Y221068D01*
X526088Y220866D01*
X526865D01*
X527616Y221068D01*
X528290Y221456D01*
X528839Y222006D01*
X529228Y222679D01*
X529429Y223430D01*
Y224208D01*
X529228Y224959D01*
X528839Y225632D01*
X528290Y226182D01*
X527616Y226571D01*
X526865Y226772D01*
D02*
G37*
G36*
X471747D02*
X470970D01*
X470219Y226571D01*
X469546Y226182D01*
X468996Y225632D01*
X468607Y224959D01*
X468406Y224208D01*
Y223430D01*
X468607Y222679D01*
X468996Y222006D01*
X469546Y221456D01*
X470219Y221068D01*
X470970Y220866D01*
X471747D01*
X472498Y221068D01*
X473172Y221456D01*
X473721Y222006D01*
X474110Y222679D01*
X474311Y223430D01*
Y224208D01*
X474110Y224959D01*
X473721Y225632D01*
X473172Y226182D01*
X472498Y226571D01*
X471747Y226772D01*
D02*
G37*
G36*
X389070D02*
X388293D01*
X387542Y226571D01*
X386868Y226182D01*
X386318Y225632D01*
X385930Y224959D01*
X385729Y224208D01*
Y223430D01*
X385930Y222679D01*
X386318Y222006D01*
X386868Y221456D01*
X387542Y221068D01*
X388293Y220866D01*
X389070D01*
X389821Y221068D01*
X390494Y221456D01*
X391044Y222006D01*
X391433Y222679D01*
X391634Y223430D01*
Y224208D01*
X391433Y224959D01*
X391044Y225632D01*
X390494Y226182D01*
X389821Y226571D01*
X389070Y226772D01*
D02*
G37*
G36*
X306393D02*
X305615D01*
X304864Y226571D01*
X304191Y226182D01*
X303641Y225632D01*
X303253Y224959D01*
X303051Y224208D01*
Y223430D01*
X303253Y222679D01*
X303641Y222006D01*
X304191Y221456D01*
X304864Y221068D01*
X305615Y220866D01*
X305986D01*
X306149Y220260D01*
X306537Y219587D01*
X307087Y219037D01*
X307760Y218649D01*
X308511Y218447D01*
X309289D01*
X310040Y218649D01*
X310713Y219037D01*
X311263Y219587D01*
X311651Y220260D01*
X311853Y221011D01*
Y221789D01*
X311651Y222540D01*
X311263Y223213D01*
X310713Y223763D01*
X310040Y224151D01*
X309289Y224353D01*
X308918D01*
X308756Y224959D01*
X308367Y225632D01*
X307817Y226182D01*
X307144Y226571D01*
X306393Y226772D01*
D02*
G37*
G36*
X329927Y221402D02*
X329149D01*
X328398Y221201D01*
X327725Y220812D01*
X327175Y220263D01*
X326786Y219589D01*
X326585Y218838D01*
Y218061D01*
X326734Y217506D01*
X326437Y217006D01*
X292221D01*
X292052Y217640D01*
X291663Y218313D01*
X291113Y218863D01*
X290440Y219251D01*
X289689Y219453D01*
X288911D01*
X288160Y219251D01*
X287487Y218863D01*
X286937Y218313D01*
X286548Y217640D01*
X286379Y217006D01*
X283600D01*
X282985Y216883D01*
X282465Y216535D01*
X282117Y216015D01*
X281994Y215400D01*
Y146406D01*
X282019Y146282D01*
X282014Y146155D01*
X282080Y145977D01*
X282117Y145792D01*
X282187Y145686D01*
X282231Y145567D01*
X282284Y145509D01*
X282419Y145150D01*
X282284Y144790D01*
X282231Y144732D01*
X282187Y144613D01*
X282117Y144508D01*
X282080Y144322D01*
X282014Y144144D01*
X282019Y144017D01*
X281994Y143893D01*
Y124400D01*
X282117Y123785D01*
X282465Y123265D01*
X282985Y122917D01*
X283600Y122794D01*
X332533D01*
X332837Y122398D01*
X332832Y122378D01*
Y121600D01*
X333033Y120849D01*
X333421Y120176D01*
X333971Y119626D01*
X334645Y119237D01*
X334821Y119190D01*
X334700Y118738D01*
Y117961D01*
X334901Y117210D01*
X335290Y116536D01*
X335840Y115987D01*
X336513Y115598D01*
X337264Y115397D01*
X338042D01*
X338793Y115598D01*
X339466Y115987D01*
X340016Y116536D01*
X340404Y117210D01*
X340606Y117961D01*
Y118738D01*
X340404Y119489D01*
X340016Y120163D01*
X339466Y120712D01*
X338793Y121101D01*
X338616Y121148D01*
X338737Y121600D01*
Y122378D01*
X338732Y122398D01*
X339036Y122794D01*
X353962D01*
X354065Y122815D01*
X354171Y122808D01*
X354370Y122876D01*
X354576Y122917D01*
X354664Y122975D01*
X354765Y123009D01*
X354785Y123027D01*
X355225Y122587D01*
X355898Y122198D01*
X356649Y121997D01*
X357427D01*
X358178Y122198D01*
X358851Y122587D01*
X359291Y123027D01*
X359311Y123009D01*
X359412Y122975D01*
X359500Y122917D01*
X359706Y122876D01*
X359905Y122808D01*
X360010Y122815D01*
X360114Y122794D01*
X392500D01*
X392623Y122819D01*
X410818D01*
X412002Y121635D01*
X411743Y121187D01*
X411034Y121377D01*
X409842D01*
X408690Y121069D01*
X407658Y120473D01*
X406815Y119630D01*
X406219Y118597D01*
X405910Y117446D01*
Y116253D01*
X406219Y115102D01*
X406815Y114070D01*
X407658Y113227D01*
X408690Y112631D01*
X409842Y112322D01*
X411034D01*
X412185Y112631D01*
X413218Y113227D01*
X414061Y114070D01*
X414657Y115102D01*
X414965Y116253D01*
Y117446D01*
X414785Y118117D01*
X415236Y118367D01*
X415615Y117959D01*
X415825Y117697D01*
X415910Y117575D01*
Y117041D01*
X415903Y117006D01*
X415910Y116972D01*
Y112322D01*
X424965D01*
Y121377D01*
X420316D01*
X420281Y121384D01*
X420247Y121377D01*
X419712D01*
X419608Y121450D01*
X418980Y121982D01*
X418613Y122337D01*
X418579Y122359D01*
X413713Y127225D01*
X413178Y127635D01*
X412556Y127893D01*
X411887Y127981D01*
X394106D01*
Y142782D01*
X394606Y143055D01*
X395050Y142798D01*
X395801Y142597D01*
X396579D01*
X397330Y142798D01*
X398003Y143187D01*
X398553Y143737D01*
X398942Y144410D01*
X399143Y145161D01*
Y145938D01*
X398942Y146689D01*
X398553Y147363D01*
X398003Y147912D01*
X397330Y148301D01*
X396579Y148502D01*
X395801D01*
X395050Y148301D01*
X394606Y148044D01*
X394106Y148317D01*
Y150966D01*
X394606Y151239D01*
X395050Y150982D01*
X395801Y150781D01*
X396579D01*
X397330Y150982D01*
X398003Y151371D01*
X398553Y151921D01*
X398942Y152594D01*
X399143Y153345D01*
Y154122D01*
X398942Y154874D01*
X398553Y155547D01*
X398003Y156097D01*
X397330Y156485D01*
X396579Y156687D01*
X395801D01*
X395050Y156485D01*
X394606Y156228D01*
X394106Y156502D01*
Y215400D01*
X393983Y216015D01*
X393635Y216535D01*
X393114Y216883D01*
X392500Y217006D01*
X356838D01*
X356485Y217506D01*
X356603Y217947D01*
Y218724D01*
X356402Y219476D01*
X356013Y220149D01*
X355463Y220698D01*
X354790Y221087D01*
X354039Y221288D01*
X353262D01*
X352511Y221087D01*
X351837Y220698D01*
X351288Y220149D01*
X350899Y219476D01*
X350698Y218724D01*
Y217947D01*
X350816Y217506D01*
X350463Y217006D01*
X332638D01*
X332342Y217506D01*
X332491Y218061D01*
Y218838D01*
X332289Y219589D01*
X331901Y220263D01*
X331351Y220812D01*
X330678Y221201D01*
X329927Y221402D01*
D02*
G37*
G36*
X499306Y226772D02*
X498529D01*
X497778Y226571D01*
X497105Y226182D01*
X496555Y225632D01*
X496166Y224959D01*
X495965Y224208D01*
Y223430D01*
X496166Y222679D01*
X496283Y222477D01*
X495825Y222212D01*
X495275Y221663D01*
X494886Y220989D01*
X494685Y220238D01*
Y219461D01*
X494886Y218710D01*
X495275Y218037D01*
X495825Y217487D01*
X496498Y217098D01*
X497249Y216897D01*
X498027D01*
X498778Y217098D01*
X499451Y217487D01*
X500001Y218037D01*
X500389Y218710D01*
X500591Y219461D01*
Y220238D01*
X500389Y220989D01*
X500273Y221192D01*
X500731Y221456D01*
X501280Y222006D01*
X501669Y222679D01*
X501870Y223430D01*
Y224208D01*
X501669Y224959D01*
X501280Y225632D01*
X500731Y226182D01*
X500057Y226571D01*
X499306Y226772D01*
D02*
G37*
G36*
X204789Y218953D02*
X204011D01*
X203260Y218752D01*
X202587Y218363D01*
X202037Y217813D01*
X201648Y217140D01*
X201447Y216389D01*
Y215611D01*
X201648Y214860D01*
X202037Y214187D01*
X202587Y213637D01*
X203260Y213248D01*
X204011Y213047D01*
X204789D01*
X205540Y213248D01*
X206213Y213637D01*
X206763Y214187D01*
X207152Y214860D01*
X207353Y215611D01*
Y216389D01*
X207152Y217140D01*
X206763Y217813D01*
X206213Y218363D01*
X205540Y218752D01*
X204789Y218953D01*
D02*
G37*
G36*
X513559Y205371D02*
X512781D01*
X512030Y205170D01*
X511357Y204781D01*
X510807Y204231D01*
X510419Y203558D01*
X510217Y202807D01*
Y202029D01*
X510419Y201278D01*
X510807Y200605D01*
X511357Y200055D01*
X512030Y199667D01*
X512781Y199465D01*
X513559D01*
X514310Y199667D01*
X514983Y200055D01*
X515533Y200605D01*
X515922Y201278D01*
X516123Y202029D01*
Y202807D01*
X515922Y203558D01*
X515533Y204231D01*
X514983Y204781D01*
X514310Y205170D01*
X513559Y205371D01*
D02*
G37*
G36*
X471747Y199213D02*
X470970D01*
X470219Y199011D01*
X469546Y198623D01*
X468996Y198073D01*
X468607Y197400D01*
X468406Y196649D01*
Y195871D01*
X468607Y195120D01*
X468996Y194447D01*
X469546Y193897D01*
X470219Y193508D01*
X470970Y193307D01*
X471747D01*
X472498Y193508D01*
X473172Y193897D01*
X473721Y194447D01*
X474110Y195120D01*
X474311Y195871D01*
Y196649D01*
X474110Y197400D01*
X473721Y198073D01*
X473172Y198623D01*
X472498Y199011D01*
X471747Y199213D01*
D02*
G37*
G36*
X441650Y238461D02*
X430626D01*
Y227438D01*
X432124D01*
X432331Y226938D01*
X431727Y226334D01*
X431002Y225077D01*
X430626Y223675D01*
Y222224D01*
X431002Y220822D01*
X431727Y219565D01*
X432754Y218539D01*
X433342Y218199D01*
Y217700D01*
X432754Y217360D01*
X431727Y216334D01*
X431002Y215077D01*
X430626Y213675D01*
Y212224D01*
X431002Y210822D01*
X431727Y209565D01*
X432754Y208539D01*
X433342Y208200D01*
Y207699D01*
X432754Y207360D01*
X431727Y206334D01*
X431002Y205077D01*
X430626Y203675D01*
Y202224D01*
X431002Y200822D01*
X431727Y199565D01*
X432754Y198539D01*
X434010Y197813D01*
X435412Y197438D01*
X436864D01*
X438265Y197813D01*
X439522Y198539D01*
X440548Y199565D01*
X440888Y200153D01*
X441388D01*
X441727Y199565D01*
X442129Y199163D01*
X442064Y198668D01*
X441986Y198623D01*
X441437Y198073D01*
X441048Y197400D01*
X440847Y196649D01*
Y195871D01*
X441048Y195120D01*
X441437Y194447D01*
X441986Y193897D01*
X442660Y193508D01*
X443411Y193307D01*
X444188D01*
X444939Y193508D01*
X445612Y193897D01*
X446162Y194447D01*
X446551Y195120D01*
X446752Y195871D01*
Y196649D01*
X446675Y196938D01*
X446864Y197438D01*
X448265Y197813D01*
X449522Y198539D01*
X450548Y199565D01*
X451274Y200822D01*
X451650Y202224D01*
Y203675D01*
X451274Y205077D01*
X450548Y206334D01*
X449522Y207360D01*
X448934Y207699D01*
Y208200D01*
X449522Y208539D01*
X450548Y209565D01*
X451274Y210822D01*
X451650Y212224D01*
Y213675D01*
X451274Y215077D01*
X450548Y216334D01*
X449522Y217360D01*
X448426Y217993D01*
X448378Y218462D01*
X448407Y218559D01*
X449169Y218999D01*
X450089Y219918D01*
X450738Y221044D01*
X451075Y222300D01*
Y222449D01*
X446138D01*
Y223449D01*
X451075D01*
Y223600D01*
X450738Y224855D01*
X450089Y225981D01*
X449169Y226900D01*
X448043Y227550D01*
X447519Y227691D01*
Y228208D01*
X448043Y228349D01*
X449169Y228999D01*
X450089Y229918D01*
X450738Y231044D01*
X451075Y232299D01*
Y232450D01*
X446138D01*
Y232949D01*
X445638D01*
Y237887D01*
X445488D01*
X444232Y237550D01*
X443107Y236900D01*
X442187Y235981D01*
X442133Y235886D01*
X441650Y236016D01*
Y238461D01*
D02*
G37*
G36*
X416629Y199213D02*
X415852D01*
X415101Y199011D01*
X414427Y198623D01*
X413878Y198073D01*
X413489Y197400D01*
X413288Y196649D01*
Y195871D01*
X413489Y195120D01*
X413878Y194447D01*
X414427Y193897D01*
X415101Y193508D01*
X415852Y193307D01*
X416629D01*
X417380Y193508D01*
X418053Y193897D01*
X418603Y194447D01*
X418992Y195120D01*
X419193Y195871D01*
Y196649D01*
X418992Y197400D01*
X418603Y198073D01*
X418053Y198623D01*
X417380Y199011D01*
X416629Y199213D01*
D02*
G37*
G36*
X278834D02*
X278056D01*
X277305Y199011D01*
X276632Y198623D01*
X276082Y198073D01*
X275694Y197400D01*
X275492Y196649D01*
Y195871D01*
X275694Y195120D01*
X276082Y194447D01*
X276632Y193897D01*
X277305Y193508D01*
X278056Y193307D01*
X278834D01*
X279585Y193508D01*
X280258Y193897D01*
X280808Y194447D01*
X281197Y195120D01*
X281398Y195871D01*
Y196649D01*
X281197Y197400D01*
X280808Y198073D01*
X280258Y198623D01*
X279585Y199011D01*
X278834Y199213D01*
D02*
G37*
G36*
X251275D02*
X250497D01*
X249746Y199011D01*
X249073Y198623D01*
X248523Y198073D01*
X248134Y197400D01*
X247933Y196649D01*
Y195871D01*
X248134Y195120D01*
X248523Y194447D01*
X249073Y193897D01*
X249746Y193508D01*
X250497Y193307D01*
X251275D01*
X252026Y193508D01*
X252699Y193897D01*
X253249Y194447D01*
X253638Y195120D01*
X253839Y195871D01*
Y196649D01*
X253638Y197400D01*
X253249Y198073D01*
X252699Y198623D01*
X252026Y199011D01*
X251275Y199213D01*
D02*
G37*
G36*
X223716D02*
X222938D01*
X222187Y199011D01*
X221514Y198623D01*
X220964Y198073D01*
X220575Y197400D01*
X220374Y196649D01*
Y195871D01*
X220575Y195120D01*
X220964Y194447D01*
X221514Y193897D01*
X222187Y193508D01*
X222938Y193307D01*
X223716D01*
X224467Y193508D01*
X225140Y193897D01*
X225690Y194447D01*
X226079Y195120D01*
X226280Y195871D01*
Y196649D01*
X226079Y197400D01*
X225690Y198073D01*
X225140Y198623D01*
X224467Y199011D01*
X223716Y199213D01*
D02*
G37*
G36*
X535689Y199050D02*
X534911D01*
X534161Y198849D01*
X533487Y198460D01*
X532937Y197911D01*
X532549Y197237D01*
X532347Y196486D01*
Y195709D01*
X532549Y194958D01*
X532937Y194284D01*
X533487Y193735D01*
X534161Y193346D01*
X534911Y193145D01*
X535689D01*
X536440Y193346D01*
X537113Y193735D01*
X537663Y194284D01*
X538052Y194958D01*
X538253Y195709D01*
Y196486D01*
X538052Y197237D01*
X537663Y197911D01*
X537113Y198460D01*
X536440Y198849D01*
X535689Y199050D01*
D02*
G37*
G36*
X269489Y196553D02*
X268711D01*
X267960Y196352D01*
X267287Y195963D01*
X266737Y195413D01*
X266349Y194740D01*
X266147Y193989D01*
Y193211D01*
X266349Y192460D01*
X266737Y191787D01*
X267287Y191237D01*
X267960Y190849D01*
X268711Y190647D01*
X269489D01*
X270240Y190849D01*
X270913Y191237D01*
X271463Y191787D01*
X271851Y192460D01*
X272053Y193211D01*
Y193989D01*
X271851Y194740D01*
X271463Y195413D01*
X270913Y195963D01*
X270240Y196352D01*
X269489Y196553D01*
D02*
G37*
G36*
X490627Y194902D02*
X489849D01*
X489098Y194701D01*
X488425Y194312D01*
X487875Y193763D01*
X487486Y193089D01*
X487285Y192338D01*
Y191561D01*
X487486Y190810D01*
X487875Y190137D01*
X488425Y189587D01*
X489098Y189198D01*
X489849Y188997D01*
X490627D01*
X491378Y189198D01*
X492051Y189587D01*
X492601Y190137D01*
X492989Y190810D01*
X493191Y191561D01*
Y192338D01*
X492989Y193089D01*
X492601Y193763D01*
X492051Y194312D01*
X491378Y194701D01*
X490627Y194902D01*
D02*
G37*
G36*
X206089Y191753D02*
X205311D01*
X204560Y191551D01*
X203887Y191163D01*
X203337Y190613D01*
X202948Y189940D01*
X202747Y189189D01*
Y188411D01*
X202948Y187660D01*
X203337Y186987D01*
X203887Y186437D01*
X204560Y186048D01*
X205311Y185847D01*
X206089D01*
X206840Y186048D01*
X207513Y186437D01*
X208063Y186987D01*
X208452Y187660D01*
X208653Y188411D01*
Y189189D01*
X208452Y189940D01*
X208063Y190613D01*
X207513Y191163D01*
X206840Y191551D01*
X206089Y191753D01*
D02*
G37*
G36*
X498227Y189302D02*
X497449D01*
X496698Y189101D01*
X496025Y188712D01*
X495475Y188163D01*
X495086Y187489D01*
X494885Y186738D01*
Y185961D01*
X495086Y185210D01*
X495475Y184537D01*
X496025Y183987D01*
X496698Y183598D01*
X497449Y183397D01*
X498227D01*
X498978Y183598D01*
X499651Y183987D01*
X500201Y184537D01*
X500589Y185210D01*
X500791Y185961D01*
Y186738D01*
X500589Y187489D01*
X500201Y188163D01*
X499651Y188712D01*
X498978Y189101D01*
X498227Y189302D01*
D02*
G37*
G36*
X412127Y181702D02*
X411349D01*
X410598Y181501D01*
X409925Y181112D01*
X409375Y180562D01*
X408987Y179889D01*
X408785Y179138D01*
Y178360D01*
X408987Y177610D01*
X409375Y176936D01*
X409925Y176386D01*
X410598Y175998D01*
X411349Y175796D01*
X412127D01*
X412878Y175998D01*
X413551Y176386D01*
X414101Y176936D01*
X414490Y177610D01*
X414691Y178360D01*
Y179138D01*
X414490Y179889D01*
X414101Y180562D01*
X413551Y181112D01*
X412878Y181501D01*
X412127Y181702D01*
D02*
G37*
G36*
X424727Y180500D02*
X423949D01*
X423198Y180299D01*
X422525Y179910D01*
X421975Y179360D01*
X421586Y178687D01*
X421385Y177936D01*
Y177158D01*
X421586Y176407D01*
X421975Y175734D01*
X422525Y175184D01*
X423198Y174796D01*
X423949Y174594D01*
X424727D01*
X425478Y174796D01*
X426151Y175184D01*
X426701Y175734D01*
X427089Y176407D01*
X427291Y177158D01*
Y177936D01*
X427089Y178687D01*
X426701Y179360D01*
X426151Y179910D01*
X425478Y180299D01*
X424727Y180500D01*
D02*
G37*
G36*
X474481Y178848D02*
X473704D01*
X472953Y178646D01*
X472280Y178258D01*
X471730Y177708D01*
X471341Y177034D01*
X471140Y176284D01*
Y175506D01*
X471341Y174755D01*
X471730Y174082D01*
X472280Y173532D01*
X472953Y173143D01*
X473704Y172942D01*
X474481D01*
X475232Y173143D01*
X475906Y173532D01*
X476455Y174082D01*
X476844Y174755D01*
X477045Y175506D01*
Y176284D01*
X476844Y177034D01*
X476455Y177708D01*
X475906Y178258D01*
X475232Y178646D01*
X474481Y178848D01*
D02*
G37*
G36*
X526865Y171654D02*
X526088D01*
X525337Y171452D01*
X524664Y171064D01*
X524114Y170514D01*
X523725Y169841D01*
X523524Y169090D01*
Y168312D01*
X523725Y167561D01*
X524114Y166888D01*
X524664Y166338D01*
X525337Y165949D01*
X526088Y165748D01*
X526865D01*
X527616Y165949D01*
X528290Y166338D01*
X528839Y166888D01*
X529228Y167561D01*
X529429Y168312D01*
Y169090D01*
X529228Y169841D01*
X528839Y170514D01*
X528290Y171064D01*
X527616Y171452D01*
X526865Y171654D01*
D02*
G37*
G36*
X499306D02*
X498529D01*
X497778Y171452D01*
X497105Y171064D01*
X496555Y170514D01*
X496166Y169841D01*
X495965Y169090D01*
Y168312D01*
X496166Y167561D01*
X496555Y166888D01*
X497105Y166338D01*
X497778Y165949D01*
X498529Y165748D01*
X499306D01*
X500057Y165949D01*
X500731Y166338D01*
X501280Y166888D01*
X501669Y167561D01*
X501870Y168312D01*
Y169090D01*
X501669Y169841D01*
X501280Y170514D01*
X500731Y171064D01*
X500057Y171452D01*
X499306Y171654D01*
D02*
G37*
G36*
X278834D02*
X278056D01*
X277305Y171452D01*
X276632Y171064D01*
X276082Y170514D01*
X275694Y169841D01*
X275492Y169090D01*
Y168312D01*
X275694Y167561D01*
X276082Y166888D01*
X276632Y166338D01*
X277305Y165949D01*
X278056Y165748D01*
X278834D01*
X279585Y165949D01*
X280258Y166338D01*
X280808Y166888D01*
X281197Y167561D01*
X281398Y168312D01*
Y169090D01*
X281197Y169841D01*
X280808Y170514D01*
X280258Y171064D01*
X279585Y171452D01*
X278834Y171654D01*
D02*
G37*
G36*
X251275D02*
X250497D01*
X249746Y171452D01*
X249073Y171064D01*
X248523Y170514D01*
X248134Y169841D01*
X247933Y169090D01*
Y168312D01*
X248134Y167561D01*
X248523Y166888D01*
X249073Y166338D01*
X249746Y165949D01*
X250497Y165748D01*
X251275D01*
X252026Y165949D01*
X252699Y166338D01*
X253249Y166888D01*
X253638Y167561D01*
X253839Y168312D01*
Y169090D01*
X253638Y169841D01*
X253249Y170514D01*
X252699Y171064D01*
X252026Y171452D01*
X251275Y171654D01*
D02*
G37*
G36*
X223716D02*
X222938D01*
X222187Y171452D01*
X221514Y171064D01*
X220964Y170514D01*
X220575Y169841D01*
X220374Y169090D01*
Y168312D01*
X220575Y167561D01*
X220964Y166888D01*
X221514Y166338D01*
X222187Y165949D01*
X222938Y165748D01*
X223716D01*
X224467Y165949D01*
X225140Y166338D01*
X225690Y166888D01*
X226079Y167561D01*
X226280Y168312D01*
Y169090D01*
X226079Y169841D01*
X225690Y170514D01*
X225140Y171064D01*
X224467Y171452D01*
X223716Y171654D01*
D02*
G37*
G36*
X209789Y164653D02*
X209011D01*
X208260Y164452D01*
X207587Y164063D01*
X207037Y163513D01*
X206648Y162840D01*
X206447Y162089D01*
Y161311D01*
X206648Y160560D01*
X207037Y159887D01*
X207587Y159337D01*
X208260Y158949D01*
X209011Y158747D01*
X209789D01*
X210540Y158949D01*
X211213Y159337D01*
X211763Y159887D01*
X212152Y160560D01*
X212353Y161311D01*
Y162089D01*
X212152Y162840D01*
X211763Y163513D01*
X211213Y164063D01*
X210540Y164452D01*
X209789Y164653D01*
D02*
G37*
G36*
X424727Y161602D02*
X423949D01*
X423198Y161401D01*
X422525Y161012D01*
X421975Y160463D01*
X421586Y159789D01*
X421385Y159038D01*
Y158261D01*
X421586Y157510D01*
X421975Y156836D01*
X422525Y156287D01*
X423198Y155898D01*
X423949Y155697D01*
X424727D01*
X425478Y155898D01*
X426151Y156287D01*
X426701Y156836D01*
X427089Y157510D01*
X427291Y158261D01*
Y159038D01*
X427089Y159789D01*
X426701Y160463D01*
X426151Y161012D01*
X425478Y161401D01*
X424727Y161602D01*
D02*
G37*
G36*
Y151366D02*
X423949D01*
X423198Y151165D01*
X422525Y150776D01*
X421975Y150226D01*
X421586Y149553D01*
X421385Y148802D01*
Y148025D01*
X421586Y147274D01*
X421975Y146600D01*
X422525Y146051D01*
X423198Y145662D01*
X423949Y145461D01*
X424727D01*
X425478Y145662D01*
X426151Y146051D01*
X426701Y146600D01*
X427089Y147274D01*
X427291Y148025D01*
Y148802D01*
X427089Y149553D01*
X426701Y150226D01*
X426151Y150776D01*
X425478Y151165D01*
X424727Y151366D01*
D02*
G37*
G36*
X459543Y144370D02*
X458766D01*
X458014Y144168D01*
X457341Y143780D01*
X456791Y143230D01*
X456403Y142557D01*
X456202Y141806D01*
Y141028D01*
X456403Y140277D01*
X456791Y139604D01*
X457341Y139054D01*
X458014Y138665D01*
X458766Y138464D01*
X459543D01*
X460294Y138665D01*
X460967Y139054D01*
X461517Y139604D01*
X461906Y140277D01*
X462107Y141028D01*
Y141806D01*
X461906Y142557D01*
X461517Y143230D01*
X460967Y143780D01*
X460294Y144168D01*
X459543Y144370D01*
D02*
G37*
G36*
X424727Y144280D02*
X423949D01*
X423198Y144078D01*
X422525Y143690D01*
X421975Y143140D01*
X421586Y142466D01*
X421385Y141716D01*
Y140938D01*
X421586Y140187D01*
X421975Y139514D01*
X422525Y138964D01*
X423198Y138575D01*
X423949Y138374D01*
X424727D01*
X425478Y138575D01*
X426151Y138964D01*
X426701Y139514D01*
X427089Y140187D01*
X427291Y140938D01*
Y141716D01*
X427089Y142466D01*
X426701Y143140D01*
X426151Y143690D01*
X425478Y144078D01*
X424727Y144280D01*
D02*
G37*
G36*
X526865Y144095D02*
X526088D01*
X525337Y143893D01*
X524664Y143505D01*
X524114Y142955D01*
X523725Y142281D01*
X523524Y141531D01*
Y140753D01*
X523725Y140002D01*
X524114Y139329D01*
X524664Y138779D01*
X525337Y138390D01*
X526088Y138189D01*
X526865D01*
X527616Y138390D01*
X528290Y138779D01*
X528839Y139329D01*
X529228Y140002D01*
X529429Y140753D01*
Y141531D01*
X529228Y142281D01*
X528839Y142955D01*
X528290Y143505D01*
X527616Y143893D01*
X526865Y144095D01*
D02*
G37*
G36*
X499306D02*
X498529D01*
X497778Y143893D01*
X497105Y143505D01*
X496555Y142955D01*
X496166Y142281D01*
X495965Y141531D01*
Y140753D01*
X496166Y140002D01*
X496555Y139329D01*
X497105Y138779D01*
X497778Y138390D01*
X498529Y138189D01*
X499306D01*
X500057Y138390D01*
X500731Y138779D01*
X501280Y139329D01*
X501669Y140002D01*
X501870Y140753D01*
Y141531D01*
X501669Y142281D01*
X501280Y142955D01*
X500731Y143505D01*
X500057Y143893D01*
X499306Y144095D01*
D02*
G37*
G36*
X468586Y144337D02*
X467809D01*
X467058Y144136D01*
X466384Y143747D01*
X465835Y143198D01*
X465446Y142524D01*
X465245Y141773D01*
Y140996D01*
X465446Y140245D01*
X465835Y139571D01*
X466384Y139022D01*
X467058Y138633D01*
X467809Y138432D01*
X468586D01*
X469337Y138633D01*
X469568Y138766D01*
X470219Y138390D01*
X470970Y138189D01*
X471747D01*
X472498Y138390D01*
X473172Y138779D01*
X473721Y139329D01*
X474110Y140002D01*
X474311Y140753D01*
Y141531D01*
X474110Y142281D01*
X473721Y142955D01*
X473172Y143505D01*
X472498Y143893D01*
X471747Y144095D01*
X470970D01*
X470219Y143893D01*
X469988Y143760D01*
X469337Y144136D01*
X468586Y144337D01*
D02*
G37*
G36*
X444188Y144095D02*
X443411D01*
X442660Y143893D01*
X441986Y143505D01*
X441437Y142955D01*
X441048Y142281D01*
X440847Y141531D01*
Y140753D01*
X441048Y140002D01*
X441437Y139329D01*
X441986Y138779D01*
X442660Y138390D01*
X443411Y138189D01*
X444188D01*
X444939Y138390D01*
X445612Y138779D01*
X446162Y139329D01*
X446551Y140002D01*
X446752Y140753D01*
Y141531D01*
X446551Y142281D01*
X446162Y142955D01*
X445612Y143505D01*
X444939Y143893D01*
X444188Y144095D01*
D02*
G37*
G36*
X278834D02*
X278056D01*
X277305Y143893D01*
X276632Y143505D01*
X276082Y142955D01*
X275694Y142281D01*
X275492Y141531D01*
Y140753D01*
X275694Y140002D01*
X276082Y139329D01*
X276632Y138779D01*
X277305Y138390D01*
X278056Y138189D01*
X278834D01*
X279585Y138390D01*
X280258Y138779D01*
X280808Y139329D01*
X281197Y140002D01*
X281398Y140753D01*
Y141531D01*
X281197Y142281D01*
X280808Y142955D01*
X280258Y143505D01*
X279585Y143893D01*
X278834Y144095D01*
D02*
G37*
G36*
X413057Y142972D02*
X412279D01*
X411528Y142771D01*
X410855Y142382D01*
X410305Y141832D01*
X409917Y141159D01*
X409715Y140408D01*
Y139631D01*
X409917Y138880D01*
X410305Y138206D01*
X410855Y137657D01*
X411308Y137395D01*
X411326Y136828D01*
X411125Y136712D01*
X410575Y136163D01*
X410186Y135489D01*
X409985Y134738D01*
Y133961D01*
X410186Y133210D01*
X410575Y132536D01*
X411125Y131987D01*
X411798Y131598D01*
X412549Y131397D01*
X413327D01*
X414078Y131598D01*
X414751Y131987D01*
X415301Y132536D01*
X415689Y133210D01*
X415891Y133961D01*
Y134738D01*
X415689Y135489D01*
X415301Y136163D01*
X414751Y136712D01*
X414298Y136974D01*
X414280Y137540D01*
X414481Y137657D01*
X415031Y138206D01*
X415420Y138880D01*
X415621Y139631D01*
Y140408D01*
X415420Y141159D01*
X415031Y141832D01*
X414481Y142382D01*
X413808Y142771D01*
X413057Y142972D01*
D02*
G37*
G36*
X474514Y137103D02*
X473736D01*
X472985Y136902D01*
X472312Y136513D01*
X471762Y135964D01*
X471374Y135290D01*
X471172Y134539D01*
Y133762D01*
X471374Y133011D01*
X471762Y132337D01*
X472312Y131788D01*
X472985Y131399D01*
X473736Y131198D01*
X474514D01*
X475265Y131399D01*
X475938Y131788D01*
X476488Y132337D01*
X476877Y133011D01*
X477078Y133762D01*
Y134539D01*
X476877Y135290D01*
X476488Y135964D01*
X475938Y136513D01*
X475265Y136902D01*
X474514Y137103D01*
D02*
G37*
G36*
X544739Y124656D02*
X541196D01*
X540220Y124527D01*
X539310Y124150D01*
X538529Y123551D01*
X537929Y122770D01*
X537552Y121860D01*
X537424Y120883D01*
X537552Y119907D01*
X537929Y118997D01*
X538529Y118216D01*
X539310Y117616D01*
X540220Y117239D01*
X541196Y117111D01*
X544739D01*
X545716Y117239D01*
X546626Y117616D01*
X547407Y118216D01*
X548006Y118997D01*
X548383Y119907D01*
X548512Y120883D01*
X548383Y121860D01*
X548006Y122770D01*
X547407Y123551D01*
X546626Y124150D01*
X545716Y124527D01*
X544739Y124656D01*
D02*
G37*
G36*
X401034Y121377D02*
X399842D01*
X398690Y121069D01*
X397658Y120473D01*
X396815Y119630D01*
X396219Y118597D01*
X395910Y117446D01*
Y116253D01*
X396219Y115102D01*
X396815Y114070D01*
X397658Y113227D01*
X398690Y112631D01*
X399842Y112322D01*
X401034D01*
X402185Y112631D01*
X403218Y113227D01*
X404061Y114070D01*
X404657Y115102D01*
X404965Y116253D01*
Y117446D01*
X404657Y118597D01*
X404061Y119630D01*
X403218Y120473D01*
X402185Y121069D01*
X401034Y121377D01*
D02*
G37*
G36*
X391034D02*
X389842D01*
X388690Y121069D01*
X387658Y120473D01*
X386815Y119630D01*
X386219Y118597D01*
X385910Y117446D01*
Y116253D01*
X386219Y115102D01*
X386815Y114070D01*
X387658Y113227D01*
X388690Y112631D01*
X389842Y112322D01*
X391034D01*
X392185Y112631D01*
X393218Y113227D01*
X394061Y114070D01*
X394657Y115102D01*
X394965Y116253D01*
Y117446D01*
X394657Y118597D01*
X394061Y119630D01*
X393218Y120473D01*
X392185Y121069D01*
X391034Y121377D01*
D02*
G37*
G36*
X381034D02*
X379842D01*
X378690Y121069D01*
X377658Y120473D01*
X376815Y119630D01*
X376219Y118597D01*
X375910Y117446D01*
Y116253D01*
X376219Y115102D01*
X376815Y114070D01*
X377658Y113227D01*
X378690Y112631D01*
X379842Y112322D01*
X381034D01*
X382185Y112631D01*
X383218Y113227D01*
X384061Y114070D01*
X384657Y115102D01*
X384965Y116253D01*
Y117446D01*
X384657Y118597D01*
X384061Y119630D01*
X383218Y120473D01*
X382185Y121069D01*
X381034Y121377D01*
D02*
G37*
G36*
X371034D02*
X369842D01*
X368690Y121069D01*
X367658Y120473D01*
X366815Y119630D01*
X366219Y118597D01*
X365910Y117446D01*
Y116253D01*
X366219Y115102D01*
X366815Y114070D01*
X367658Y113227D01*
X368690Y112631D01*
X369842Y112322D01*
X371034D01*
X372185Y112631D01*
X373218Y113227D01*
X374061Y114070D01*
X374657Y115102D01*
X374965Y116253D01*
Y117446D01*
X374657Y118597D01*
X374061Y119630D01*
X373218Y120473D01*
X372185Y121069D01*
X371034Y121377D01*
D02*
G37*
G36*
X225764Y123543D02*
X224601D01*
X223460Y123316D01*
X222385Y122871D01*
X221418Y122225D01*
X220595Y121402D01*
X219949Y120435D01*
X219504Y119360D01*
X219277Y118219D01*
Y117056D01*
X219504Y115915D01*
X219949Y114840D01*
X220595Y113873D01*
X221418Y113051D01*
X222385Y112404D01*
X223460Y111959D01*
X224601Y111732D01*
X225764D01*
X226905Y111959D01*
X227979Y112404D01*
X228947Y113051D01*
X229769Y113873D01*
X230416Y114840D01*
X230861Y115915D01*
X231088Y117056D01*
Y118219D01*
X230861Y119360D01*
X230416Y120435D01*
X229769Y121402D01*
X228947Y122225D01*
X227979Y122871D01*
X226905Y123316D01*
X225764Y123543D01*
D02*
G37*
G36*
X471747Y116535D02*
X470970D01*
X470219Y116334D01*
X469546Y115945D01*
X468996Y115396D01*
X468607Y114723D01*
X468406Y113971D01*
Y113194D01*
X468607Y112443D01*
X468996Y111770D01*
X469546Y111220D01*
X470219Y110831D01*
X470970Y110630D01*
X471747D01*
X472498Y110831D01*
X473172Y111220D01*
X473721Y111770D01*
X474110Y112443D01*
X474311Y113194D01*
Y113971D01*
X474110Y114723D01*
X473721Y115396D01*
X473172Y115945D01*
X472498Y116334D01*
X471747Y116535D01*
D02*
G37*
G36*
X444188D02*
X443411D01*
X442660Y116334D01*
X441986Y115945D01*
X441437Y115396D01*
X441048Y114723D01*
X440847Y113971D01*
Y113194D01*
X441048Y112443D01*
X441437Y111770D01*
X441986Y111220D01*
X442660Y110831D01*
X443411Y110630D01*
X444188D01*
X444939Y110831D01*
X445612Y111220D01*
X446162Y111770D01*
X446551Y112443D01*
X446752Y113194D01*
Y113971D01*
X446551Y114723D01*
X446162Y115396D01*
X445612Y115945D01*
X444939Y116334D01*
X444188Y116535D01*
D02*
G37*
G36*
X278834D02*
X278056D01*
X277305Y116334D01*
X276632Y115945D01*
X276082Y115396D01*
X275694Y114723D01*
X275492Y113971D01*
Y113194D01*
X275694Y112443D01*
X276082Y111770D01*
X276632Y111220D01*
X277305Y110831D01*
X278056Y110630D01*
X278834D01*
X279585Y110831D01*
X280258Y111220D01*
X280808Y111770D01*
X281197Y112443D01*
X281398Y113194D01*
Y113971D01*
X281197Y114723D01*
X280808Y115396D01*
X280258Y115945D01*
X279585Y116334D01*
X278834Y116535D01*
D02*
G37*
G36*
X495027Y113702D02*
X494249D01*
X493498Y113501D01*
X492825Y113112D01*
X492275Y112563D01*
X491886Y111889D01*
X491685Y111138D01*
Y110361D01*
X491886Y109610D01*
X492275Y108937D01*
X492825Y108387D01*
X493498Y107998D01*
X494249Y107797D01*
X495027D01*
X495778Y107998D01*
X496451Y108387D01*
X497001Y108937D01*
X497389Y109610D01*
X497591Y110361D01*
Y111138D01*
X497389Y111889D01*
X497001Y112563D01*
X496451Y113112D01*
X495778Y113501D01*
X495027Y113702D01*
D02*
G37*
G36*
X263381Y123343D02*
X262604D01*
X261853Y123142D01*
X261179Y122753D01*
X260630Y122204D01*
X260241Y121530D01*
X260040Y120779D01*
Y120002D01*
X260241Y119251D01*
X260630Y118578D01*
X260680Y118528D01*
X260630Y118478D01*
X260241Y117804D01*
X260040Y117053D01*
Y116276D01*
X260241Y115525D01*
X260630Y114852D01*
X260680Y114802D01*
X260630Y114752D01*
X260241Y114078D01*
X260040Y113327D01*
Y112550D01*
X260241Y111799D01*
X260630Y111126D01*
X260680Y111076D01*
X260630Y111026D01*
X260241Y110352D01*
X260040Y109601D01*
Y108824D01*
X260241Y108073D01*
X260630Y107400D01*
X261179Y106850D01*
X261853Y106461D01*
X262604Y106260D01*
X263381D01*
X264132Y106461D01*
X264805Y106850D01*
X265355Y107400D01*
X265744Y108073D01*
X265945Y108824D01*
Y109601D01*
X265744Y110352D01*
X265355Y111026D01*
X265305Y111076D01*
X265355Y111126D01*
X265744Y111799D01*
X265945Y112550D01*
Y113327D01*
X265744Y114078D01*
X265355Y114752D01*
X265305Y114802D01*
X265355Y114852D01*
X265744Y115525D01*
X265945Y116276D01*
Y117053D01*
X265744Y117804D01*
X265355Y118478D01*
X265305Y118528D01*
X265355Y118578D01*
X265744Y119251D01*
X265945Y120002D01*
Y120779D01*
X265744Y121530D01*
X265355Y122204D01*
X264805Y122753D01*
X264132Y123142D01*
X263381Y123343D01*
D02*
G37*
G36*
X248272D02*
X247495D01*
X246743Y123142D01*
X246070Y122753D01*
X245520Y122204D01*
X245132Y121530D01*
X244931Y120779D01*
Y120002D01*
X245132Y119251D01*
X245520Y118578D01*
X245570Y118528D01*
X245520Y118478D01*
X245132Y117804D01*
X244931Y117053D01*
Y116276D01*
X245132Y115525D01*
X245520Y114852D01*
X245570Y114802D01*
X245520Y114752D01*
X245132Y114078D01*
X244931Y113327D01*
Y112550D01*
X245132Y111799D01*
X245520Y111126D01*
X245570Y111076D01*
X245520Y111026D01*
X245132Y110352D01*
X244931Y109601D01*
Y108824D01*
X245132Y108073D01*
X245520Y107400D01*
X246070Y106850D01*
X246743Y106461D01*
X247495Y106260D01*
X248272D01*
X249023Y106461D01*
X249696Y106850D01*
X250246Y107400D01*
X250635Y108073D01*
X250836Y108824D01*
Y109601D01*
X250635Y110352D01*
X250246Y111026D01*
X250196Y111076D01*
X250246Y111126D01*
X250635Y111799D01*
X250836Y112550D01*
Y113327D01*
X250635Y114078D01*
X250246Y114752D01*
X250196Y114802D01*
X250246Y114852D01*
X250635Y115525D01*
X250836Y116276D01*
Y117053D01*
X250635Y117804D01*
X250246Y118478D01*
X250196Y118528D01*
X250246Y118578D01*
X250635Y119251D01*
X250836Y120002D01*
Y120779D01*
X250635Y121530D01*
X250246Y122204D01*
X249696Y122753D01*
X249023Y123142D01*
X248272Y123343D01*
D02*
G37*
G36*
X543841Y115273D02*
X542960D01*
X542109Y115045D01*
X541346Y114604D01*
X540723Y113981D01*
X540282Y113218D01*
X540054Y112367D01*
Y111486D01*
X540282Y110635D01*
X540723Y109872D01*
X541227Y109368D01*
X540723Y108863D01*
X540282Y108100D01*
X540054Y107249D01*
Y106368D01*
X540282Y105517D01*
X540723Y104754D01*
X541227Y104250D01*
X540723Y103745D01*
X540282Y102982D01*
X540054Y102131D01*
Y101250D01*
X540282Y100399D01*
X540723Y99636D01*
X541346Y99013D01*
X542109Y98572D01*
X542960Y98344D01*
X543841D01*
X544693Y98572D01*
X545456Y99013D01*
X546079Y99636D01*
X546519Y100399D01*
X546671Y100964D01*
X546897Y100903D01*
X547778D01*
X548630Y101131D01*
X549393Y101572D01*
X550016Y102195D01*
X550456Y102958D01*
X550684Y103809D01*
Y104690D01*
X550456Y105541D01*
X550016Y106304D01*
X549511Y106809D01*
X550016Y107313D01*
X550456Y108076D01*
X550684Y108927D01*
Y109808D01*
X550456Y110659D01*
X550016Y111422D01*
X549393Y112046D01*
X548630Y112486D01*
X547778Y112714D01*
X546897D01*
X546671Y112653D01*
X546519Y113218D01*
X546079Y113981D01*
X545456Y114604D01*
X544693Y115045D01*
X543841Y115273D01*
D02*
G37*
G36*
X403126Y99002D02*
X402349D01*
X401598Y98801D01*
X400925Y98412D01*
X400375Y97863D01*
X399986Y97189D01*
X399785Y96438D01*
Y95661D01*
X399986Y94910D01*
X400375Y94237D01*
X400925Y93687D01*
X401598Y93298D01*
X402349Y93097D01*
X403126D01*
X403877Y93298D01*
X404551Y93687D01*
X405101Y94237D01*
X405489Y94910D01*
X405690Y95661D01*
Y96438D01*
X405489Y97189D01*
X405101Y97863D01*
X404551Y98412D01*
X403877Y98801D01*
X403126Y99002D01*
D02*
G37*
G36*
X544739Y96506D02*
X541196D01*
X540220Y96378D01*
X539310Y96001D01*
X538529Y95401D01*
X537929Y94620D01*
X537552Y93710D01*
X537424Y92734D01*
X537552Y91757D01*
X537929Y90848D01*
X538529Y90066D01*
X539310Y89467D01*
X540220Y89090D01*
X541196Y88961D01*
X544739D01*
X545716Y89090D01*
X546626Y89467D01*
X547407Y90066D01*
X548006Y90848D01*
X548383Y91757D01*
X548512Y92734D01*
X548383Y93710D01*
X548006Y94620D01*
X547407Y95401D01*
X546626Y96001D01*
X545716Y96378D01*
X544739Y96506D01*
D02*
G37*
G36*
X408727Y92402D02*
X407949D01*
X407198Y92201D01*
X406525Y91812D01*
X405975Y91263D01*
X405586Y90589D01*
X405385Y89838D01*
Y89061D01*
X405586Y88310D01*
X405975Y87637D01*
X406525Y87087D01*
X407198Y86698D01*
X407949Y86497D01*
X408727D01*
X409478Y86698D01*
X410151Y87087D01*
X410701Y87637D01*
X411089Y88310D01*
X411291Y89061D01*
Y89838D01*
X411089Y90589D01*
X410701Y91263D01*
X410151Y91812D01*
X409478Y92201D01*
X408727Y92402D01*
D02*
G37*
G36*
X278834Y88976D02*
X278056D01*
X277305Y88775D01*
X276632Y88386D01*
X276082Y87837D01*
X275694Y87163D01*
X275492Y86412D01*
Y85635D01*
X275694Y84884D01*
X276082Y84211D01*
X276482Y83811D01*
X276183Y83407D01*
X275431Y83608D01*
X274654D01*
X273903Y83407D01*
X273230Y83018D01*
X272718Y82506D01*
X272663Y82513D01*
X272113Y83063D01*
X271440Y83451D01*
X270689Y83653D01*
X269911D01*
X269160Y83451D01*
X268487Y83063D01*
X267937Y82513D01*
X267548Y81840D01*
X267347Y81089D01*
Y80868D01*
X266847Y80734D01*
X266718Y80958D01*
X266168Y81508D01*
X265495Y81897D01*
X264744Y82098D01*
X263966D01*
X263215Y81897D01*
X262542Y81508D01*
X261992Y80958D01*
X261603Y80285D01*
X261402Y79534D01*
Y78756D01*
X261603Y78005D01*
X261992Y77332D01*
X262542Y76782D01*
X263215Y76394D01*
X263966Y76192D01*
X264744D01*
X265495Y76394D01*
X266168Y76782D01*
X266718Y77332D01*
X267107Y78005D01*
X267308Y78756D01*
Y78977D01*
X267808Y79111D01*
X267937Y78887D01*
X268487Y78337D01*
X269160Y77948D01*
X269911Y77747D01*
X270689D01*
X271440Y77948D01*
X272113Y78337D01*
X272625Y78849D01*
X272680Y78842D01*
X273230Y78292D01*
X273903Y77903D01*
X274654Y77702D01*
X275431D01*
X276183Y77903D01*
X276856Y78292D01*
X277392Y78828D01*
X277928Y78292D01*
X278601Y77903D01*
X279352Y77702D01*
X280130D01*
X280880Y77903D01*
X281554Y78292D01*
X282104Y78842D01*
X282492Y79515D01*
X282694Y80266D01*
Y81044D01*
X282492Y81795D01*
X282104Y82468D01*
X281554Y83018D01*
X280880Y83407D01*
X280747Y83442D01*
X280597Y84000D01*
X280808Y84211D01*
X281197Y84884D01*
X281398Y85635D01*
Y86412D01*
X281197Y87163D01*
X280808Y87837D01*
X280258Y88386D01*
X279585Y88775D01*
X278834Y88976D01*
D02*
G37*
G36*
X526865D02*
X526088D01*
X525337Y88775D01*
X524664Y88386D01*
X524114Y87837D01*
X523725Y87163D01*
X523524Y86412D01*
Y85635D01*
X523725Y84884D01*
X524114Y84211D01*
X524664Y83661D01*
X525337Y83272D01*
X526088Y83071D01*
X526865D01*
X527616Y83272D01*
X528290Y83661D01*
X528839Y84211D01*
X529228Y84884D01*
X529429Y85635D01*
Y86412D01*
X529228Y87163D01*
X528839Y87837D01*
X528290Y88386D01*
X527616Y88775D01*
X526865Y88976D01*
D02*
G37*
G36*
X499306D02*
X498529D01*
X497778Y88775D01*
X497105Y88386D01*
X496555Y87837D01*
X496166Y87163D01*
X495965Y86412D01*
Y85635D01*
X496166Y84884D01*
X496555Y84211D01*
X497105Y83661D01*
X497778Y83272D01*
X498529Y83071D01*
X499306D01*
X500057Y83272D01*
X500731Y83661D01*
X501280Y84211D01*
X501669Y84884D01*
X501870Y85635D01*
Y86412D01*
X501669Y87163D01*
X501280Y87837D01*
X500731Y88386D01*
X500057Y88775D01*
X499306Y88976D01*
D02*
G37*
G36*
X471747D02*
X470970D01*
X470219Y88775D01*
X469546Y88386D01*
X468996Y87837D01*
X468607Y87163D01*
X468406Y86412D01*
Y85635D01*
X468607Y84884D01*
X468996Y84211D01*
X469546Y83661D01*
X470219Y83272D01*
X470970Y83071D01*
X471747D01*
X472498Y83272D01*
X473172Y83661D01*
X473721Y84211D01*
X474110Y84884D01*
X474311Y85635D01*
Y86412D01*
X474110Y87163D01*
X473721Y87837D01*
X473172Y88386D01*
X472498Y88775D01*
X471747Y88976D01*
D02*
G37*
G36*
X333952D02*
X333174D01*
X332423Y88775D01*
X331750Y88386D01*
X331200Y87837D01*
X330812Y87163D01*
X330610Y86412D01*
Y85635D01*
X330812Y84884D01*
X331200Y84211D01*
X331750Y83661D01*
X332423Y83272D01*
X333174Y83071D01*
X333952D01*
X334703Y83272D01*
X335376Y83661D01*
X335926Y84211D01*
X336315Y84884D01*
X336516Y85635D01*
Y86412D01*
X336315Y87163D01*
X335926Y87837D01*
X335376Y88386D01*
X334703Y88775D01*
X333952Y88976D01*
D02*
G37*
G36*
X306393D02*
X305615D01*
X304864Y88775D01*
X304191Y88386D01*
X303641Y87837D01*
X303253Y87163D01*
X303051Y86412D01*
Y85635D01*
X303253Y84884D01*
X303641Y84211D01*
X304191Y83661D01*
X304864Y83272D01*
X305615Y83071D01*
X306393D01*
X307144Y83272D01*
X307817Y83661D01*
X308367Y84211D01*
X308756Y84884D01*
X308957Y85635D01*
Y86412D01*
X308756Y87163D01*
X308367Y87837D01*
X307817Y88386D01*
X307144Y88775D01*
X306393Y88976D01*
D02*
G37*
G36*
X225764Y100236D02*
X224601D01*
X223460Y100009D01*
X222385Y99564D01*
X221418Y98918D01*
X220595Y98095D01*
X219949Y97128D01*
X219504Y96053D01*
X219277Y94912D01*
Y93749D01*
X219504Y92608D01*
X219949Y91533D01*
X220595Y90566D01*
X221418Y89744D01*
X222119Y89275D01*
X222144Y89093D01*
X222069Y88707D01*
X221514Y88386D01*
X220964Y87837D01*
X220575Y87163D01*
X220374Y86412D01*
Y85635D01*
X220575Y84884D01*
X220964Y84211D01*
X221514Y83661D01*
X222187Y83272D01*
X222938Y83071D01*
X223716D01*
X224467Y83272D01*
X225140Y83661D01*
X225690Y84211D01*
X226079Y84884D01*
X226280Y85635D01*
Y86412D01*
X226079Y87163D01*
X225690Y87837D01*
X225601Y87925D01*
X225730Y88322D01*
X225801Y88433D01*
X226905Y88652D01*
X227979Y89097D01*
X228947Y89744D01*
X229769Y90566D01*
X230416Y91533D01*
X230861Y92608D01*
X231088Y93749D01*
Y94912D01*
X230861Y96053D01*
X230416Y97128D01*
X229769Y98095D01*
X228947Y98918D01*
X227979Y99564D01*
X226905Y100009D01*
X225764Y100236D01*
D02*
G37*
G36*
X426689Y88353D02*
X425911D01*
X425160Y88152D01*
X424487Y87763D01*
X423937Y87213D01*
X423549Y86540D01*
X423347Y85789D01*
Y85011D01*
X423549Y84260D01*
X423937Y83587D01*
X424487Y83037D01*
X425160Y82648D01*
X425911Y82447D01*
X426689D01*
X427440Y82648D01*
X428113Y83037D01*
X428663Y83587D01*
X429051Y84260D01*
X429253Y85011D01*
Y85789D01*
X429051Y86540D01*
X428663Y87213D01*
X428113Y87763D01*
X427440Y88152D01*
X426689Y88353D01*
D02*
G37*
G36*
X451551Y88293D02*
X450774D01*
X450023Y88092D01*
X449350Y87703D01*
X448800Y87154D01*
X448411Y86480D01*
X448210Y85729D01*
Y84952D01*
X448411Y84201D01*
X448800Y83528D01*
X449350Y82978D01*
X450023Y82589D01*
X450774Y82388D01*
X451551D01*
X452302Y82589D01*
X452976Y82978D01*
X453525Y83528D01*
X453914Y84201D01*
X454115Y84952D01*
Y85729D01*
X453914Y86480D01*
X453525Y87154D01*
X452976Y87703D01*
X452302Y88092D01*
X451551Y88293D01*
D02*
G37*
G36*
X443284D02*
X442506D01*
X441755Y88092D01*
X441082Y87703D01*
X440532Y87154D01*
X440143Y86480D01*
X439942Y85729D01*
Y84952D01*
X440143Y84201D01*
X440532Y83528D01*
X441082Y82978D01*
X441755Y82589D01*
X442506Y82388D01*
X443284D01*
X444035Y82589D01*
X444708Y82978D01*
X445258Y83528D01*
X445646Y84201D01*
X445848Y84952D01*
Y85729D01*
X445646Y86480D01*
X445258Y87154D01*
X444708Y87703D01*
X444035Y88092D01*
X443284Y88293D01*
D02*
G37*
G36*
X435016D02*
X434238D01*
X433488Y88092D01*
X432814Y87703D01*
X432264Y87154D01*
X431876Y86480D01*
X431674Y85729D01*
Y84952D01*
X431876Y84201D01*
X432264Y83528D01*
X432814Y82978D01*
X433488Y82589D01*
X434238Y82388D01*
X435016D01*
X435767Y82589D01*
X436440Y82978D01*
X436990Y83528D01*
X437379Y84201D01*
X437580Y84952D01*
Y85729D01*
X437379Y86480D01*
X436990Y87154D01*
X436440Y87703D01*
X435767Y88092D01*
X435016Y88293D01*
D02*
G37*
G36*
X287600Y85525D02*
X286822D01*
X286071Y85324D01*
X285398Y84935D01*
X284848Y84386D01*
X284459Y83712D01*
X284258Y82961D01*
Y82184D01*
X284459Y81433D01*
X284848Y80760D01*
X285398Y80210D01*
X286071Y79821D01*
X286822Y79620D01*
X287600D01*
X288351Y79821D01*
X289024Y80210D01*
X289574Y80760D01*
X289963Y81433D01*
X290164Y82184D01*
Y82961D01*
X289963Y83712D01*
X289574Y84386D01*
X289024Y84935D01*
X288351Y85324D01*
X287600Y85525D01*
D02*
G37*
G36*
X253121Y76390D02*
X252344D01*
X251593Y76189D01*
X250919Y75801D01*
X250370Y75251D01*
X249981Y74577D01*
X249780Y73826D01*
Y73049D01*
X249981Y72298D01*
X250370Y71625D01*
X250919Y71075D01*
X251593Y70686D01*
X252344Y70485D01*
X253121D01*
X253872Y70686D01*
X254545Y71075D01*
X255095Y71625D01*
X255484Y72298D01*
X255685Y73049D01*
Y73826D01*
X255484Y74577D01*
X255095Y75251D01*
X254545Y75801D01*
X253872Y76189D01*
X253121Y76390D01*
D02*
G37*
G36*
X213878Y75146D02*
X213101D01*
X212350Y74944D01*
X211677Y74556D01*
X211127Y74006D01*
X210738Y73333D01*
X210537Y72581D01*
Y71804D01*
X210738Y71053D01*
X211127Y70380D01*
X211677Y69830D01*
X212350Y69441D01*
X213101Y69240D01*
X213878D01*
X214629Y69441D01*
X215303Y69830D01*
X215852Y70380D01*
X216241Y71053D01*
X216442Y71804D01*
Y72581D01*
X216241Y73333D01*
X215852Y74006D01*
X215303Y74556D01*
X214629Y74944D01*
X213878Y75146D01*
D02*
G37*
G36*
X297506Y70191D02*
X296729D01*
X295978Y69989D01*
X295305Y69601D01*
X294755Y69051D01*
X294452Y68526D01*
X294356Y68496D01*
X293994D01*
X293898Y68526D01*
X293595Y69051D01*
X293045Y69601D01*
X292372Y69989D01*
X291621Y70191D01*
X290844D01*
X290093Y69989D01*
X289419Y69601D01*
X288870Y69051D01*
X288481Y68378D01*
X288280Y67627D01*
Y66849D01*
X288481Y66098D01*
X288870Y65425D01*
X289419Y64875D01*
X290093Y64486D01*
X290844Y64285D01*
X291621D01*
X292372Y64486D01*
X293045Y64875D01*
X293595Y65425D01*
X293898Y65949D01*
X293994Y65980D01*
X294356D01*
X294452Y65949D01*
X294755Y65425D01*
X295305Y64875D01*
X295978Y64486D01*
X296729Y64285D01*
X297506D01*
X298257Y64486D01*
X298931Y64875D01*
X299480Y65425D01*
X299869Y66098D01*
X300070Y66849D01*
Y67627D01*
X299869Y68378D01*
X299480Y69051D01*
X298931Y69601D01*
X298257Y69989D01*
X297506Y70191D01*
D02*
G37*
G36*
X318939Y68641D02*
X317699D01*
X316482Y68399D01*
X315335Y67924D01*
X314303Y67234D01*
X313426Y66357D01*
X312786Y65399D01*
X312544Y65412D01*
X312286Y65528D01*
Y65908D01*
X312085Y66659D01*
X311696Y67332D01*
X311146Y67882D01*
X310473Y68271D01*
X309722Y68472D01*
X308944D01*
X308193Y68271D01*
X307520Y67882D01*
X306970Y67332D01*
X306581Y66659D01*
X306380Y65908D01*
Y65131D01*
X306581Y64380D01*
X306970Y63706D01*
X307520Y63156D01*
X308193Y62768D01*
X308944Y62566D01*
X309722D01*
X310473Y62768D01*
X311146Y63156D01*
X311317Y63327D01*
X311997Y63300D01*
X312070Y63214D01*
X312020Y62962D01*
Y61721D01*
X312262Y60504D01*
X312711Y59419D01*
X312734Y59349D01*
X312533Y58763D01*
X312187Y58563D01*
X311637Y58013D01*
X311248Y57340D01*
X311047Y56589D01*
Y55811D01*
X311248Y55060D01*
X311637Y54387D01*
X312187Y53837D01*
X312860Y53448D01*
X313611Y53247D01*
X314389D01*
X315140Y53448D01*
X315813Y53837D01*
X316363Y54387D01*
X316752Y55060D01*
X316953Y55811D01*
X317325Y56117D01*
X317699Y56042D01*
X318939D01*
X318960Y56047D01*
X319247Y55811D01*
X319448Y55060D01*
X319837Y54387D01*
X320387Y53837D01*
X321060Y53448D01*
X321811Y53247D01*
X322148D01*
X322414Y52923D01*
Y51760D01*
X322418Y51739D01*
X322101Y51353D01*
X322011D01*
X321260Y51152D01*
X320587Y50763D01*
X320037Y50213D01*
X319649Y49540D01*
X319447Y48789D01*
X319203Y48588D01*
X318939Y48641D01*
X317699D01*
X317002Y48502D01*
X316653Y48789D01*
X316452Y49540D01*
X316063Y50213D01*
X315513Y50763D01*
X314840Y51152D01*
X314089Y51353D01*
X313311D01*
X312560Y51152D01*
X311887Y50763D01*
X311337Y50213D01*
X310948Y49540D01*
X310747Y48789D01*
Y48011D01*
X310948Y47260D01*
X311337Y46587D01*
X311887Y46037D01*
X312409Y45736D01*
X312581Y45521D01*
X312647Y45108D01*
X312262Y44179D01*
X312020Y42962D01*
Y41721D01*
X312262Y40504D01*
X312737Y39358D01*
X313426Y38326D01*
X314303Y37449D01*
X315335Y36759D01*
X316482Y36285D01*
X317699Y36042D01*
X318939D01*
X320156Y36285D01*
X321303Y36759D01*
X322335Y37449D01*
X323212Y38326D01*
X323901Y39358D01*
X324376Y40504D01*
X324618Y41721D01*
Y42962D01*
X324376Y44179D01*
X323901Y45325D01*
X323848Y45405D01*
X323962Y45892D01*
X324213Y46037D01*
X324763Y46587D01*
X324941Y46895D01*
X325522Y47108D01*
X325594Y47078D01*
X326597Y46663D01*
X327738Y46436D01*
X328901D01*
X330042Y46663D01*
X331117Y47108D01*
X332084Y47754D01*
X332906Y48577D01*
X333553Y49544D01*
X333998Y50619D01*
X334225Y51760D01*
Y52923D01*
X333998Y54064D01*
X333553Y55139D01*
X332906Y56106D01*
X332084Y56929D01*
X331117Y57575D01*
X330042Y58020D01*
X328901Y58247D01*
X327738D01*
X326597Y58020D01*
X325522Y57575D01*
X325397Y57492D01*
X324762Y57668D01*
X324563Y58013D01*
X324013Y58563D01*
X323866Y58648D01*
X323752Y59135D01*
X323901Y59358D01*
X324376Y60504D01*
X324618Y61721D01*
Y62962D01*
X324376Y64179D01*
X323901Y65325D01*
X323212Y66357D01*
X322335Y67234D01*
X321303Y67924D01*
X320156Y68399D01*
X318939Y68641D01*
D02*
G37*
G36*
X338940D02*
X337699D01*
X336482Y68399D01*
X335335Y67924D01*
X334304Y67234D01*
X333426Y66357D01*
X332737Y65325D01*
X332262Y64179D01*
X332020Y62962D01*
Y61721D01*
X332262Y60504D01*
X332737Y59358D01*
X333426Y58326D01*
X334304Y57449D01*
X335335Y56759D01*
X336482Y56284D01*
X337699Y56042D01*
X338940D01*
X340157Y56284D01*
X341303Y56759D01*
X342335Y57449D01*
X343212Y58326D01*
X343901Y59358D01*
X344376Y60504D01*
X344618Y61721D01*
Y62962D01*
X344376Y64179D01*
X343901Y65325D01*
X343212Y66357D01*
X342335Y67234D01*
X341303Y67924D01*
X340157Y68399D01*
X338940Y68641D01*
D02*
G37*
G36*
X554424Y61417D02*
X553647D01*
X552896Y61216D01*
X552223Y60827D01*
X551673Y60278D01*
X551284Y59604D01*
X551083Y58853D01*
Y58076D01*
X551284Y57325D01*
X551673Y56652D01*
X552223Y56102D01*
X552896Y55713D01*
X553647Y55512D01*
X554424D01*
X555175Y55713D01*
X555849Y56102D01*
X556398Y56652D01*
X556787Y57325D01*
X556988Y58076D01*
Y58853D01*
X556787Y59604D01*
X556398Y60278D01*
X555849Y60827D01*
X555175Y61216D01*
X554424Y61417D01*
D02*
G37*
G36*
X526865D02*
X526088D01*
X525337Y61216D01*
X524664Y60827D01*
X524114Y60278D01*
X523725Y59604D01*
X523524Y58853D01*
Y58076D01*
X523725Y57325D01*
X524114Y56652D01*
X524664Y56102D01*
X525337Y55713D01*
X526088Y55512D01*
X526865D01*
X527616Y55713D01*
X528290Y56102D01*
X528839Y56652D01*
X529228Y57325D01*
X529429Y58076D01*
Y58853D01*
X529228Y59604D01*
X528839Y60278D01*
X528290Y60827D01*
X527616Y61216D01*
X526865Y61417D01*
D02*
G37*
G36*
X499306D02*
X498529D01*
X497778Y61216D01*
X497105Y60827D01*
X496555Y60278D01*
X496166Y59604D01*
X495965Y58853D01*
Y58076D01*
X496166Y57325D01*
X496555Y56652D01*
X497105Y56102D01*
X497778Y55713D01*
X498529Y55512D01*
X499306D01*
X500057Y55713D01*
X500731Y56102D01*
X501280Y56652D01*
X501669Y57325D01*
X501870Y58076D01*
Y58853D01*
X501669Y59604D01*
X501280Y60278D01*
X500731Y60827D01*
X500057Y61216D01*
X499306Y61417D01*
D02*
G37*
G36*
X471747D02*
X470970D01*
X470219Y61216D01*
X469546Y60827D01*
X468996Y60278D01*
X468607Y59604D01*
X468406Y58853D01*
Y58076D01*
X468607Y57325D01*
X468996Y56652D01*
X469546Y56102D01*
X470219Y55713D01*
X470970Y55512D01*
X471747D01*
X472498Y55713D01*
X473172Y56102D01*
X473721Y56652D01*
X474110Y57325D01*
X474311Y58076D01*
Y58853D01*
X474110Y59604D01*
X473721Y60278D01*
X473172Y60827D01*
X472498Y61216D01*
X471747Y61417D01*
D02*
G37*
G36*
X444188D02*
X443411D01*
X442660Y61216D01*
X441986Y60827D01*
X441437Y60278D01*
X441048Y59604D01*
X440847Y58853D01*
Y58076D01*
X441048Y57325D01*
X441437Y56652D01*
X441986Y56102D01*
X442660Y55713D01*
X443411Y55512D01*
X444188D01*
X444939Y55713D01*
X445612Y56102D01*
X446162Y56652D01*
X446551Y57325D01*
X446752Y58076D01*
Y58853D01*
X446551Y59604D01*
X446162Y60278D01*
X445612Y60827D01*
X444939Y61216D01*
X444188Y61417D01*
D02*
G37*
G36*
X416629D02*
X415852D01*
X415101Y61216D01*
X414427Y60827D01*
X413878Y60278D01*
X413489Y59604D01*
X413288Y58853D01*
Y58076D01*
X413489Y57325D01*
X413878Y56652D01*
X414427Y56102D01*
X415101Y55713D01*
X415852Y55512D01*
X416629D01*
X417380Y55713D01*
X418053Y56102D01*
X418603Y56652D01*
X418992Y57325D01*
X419193Y58076D01*
Y58853D01*
X418992Y59604D01*
X418603Y60278D01*
X418053Y60827D01*
X417380Y61216D01*
X416629Y61417D01*
D02*
G37*
G36*
X389070D02*
X388293D01*
X387542Y61216D01*
X386868Y60827D01*
X386318Y60278D01*
X385930Y59604D01*
X385729Y58853D01*
Y58076D01*
X385930Y57325D01*
X386318Y56652D01*
X386868Y56102D01*
X387542Y55713D01*
X388293Y55512D01*
X389070D01*
X389821Y55713D01*
X390494Y56102D01*
X391044Y56652D01*
X391433Y57325D01*
X391634Y58076D01*
Y58853D01*
X391433Y59604D01*
X391044Y60278D01*
X390494Y60827D01*
X389821Y61216D01*
X389070Y61417D01*
D02*
G37*
G36*
X302147Y60469D02*
X301370D01*
X300619Y60268D01*
X299945Y59879D01*
X299396Y59329D01*
X299007Y58656D01*
X298806Y57905D01*
Y57127D01*
X299007Y56376D01*
X299396Y55703D01*
X299945Y55153D01*
X300619Y54764D01*
X301370Y54563D01*
X302147D01*
X302898Y54764D01*
X303571Y55153D01*
X304121Y55703D01*
X304510Y56376D01*
X304711Y57127D01*
Y57905D01*
X304510Y58656D01*
X304121Y59329D01*
X303571Y59879D01*
X302898Y60268D01*
X302147Y60469D01*
D02*
G37*
G36*
X300789Y50753D02*
X300011D01*
X299260Y50551D01*
X298587Y50163D01*
X298037Y49613D01*
X297649Y48940D01*
X297447Y48189D01*
Y47411D01*
X297649Y46660D01*
X298037Y45987D01*
X298587Y45437D01*
X299260Y45048D01*
X300011Y44847D01*
X300789D01*
X301540Y45048D01*
X302213Y45437D01*
X302763Y45987D01*
X303151Y46660D01*
X303353Y47411D01*
Y48189D01*
X303151Y48940D01*
X302763Y49613D01*
X302213Y50163D01*
X301540Y50551D01*
X300789Y50753D01*
D02*
G37*
G36*
X338940Y48641D02*
X337699D01*
X336482Y48399D01*
X335335Y47924D01*
X334304Y47234D01*
X333426Y46357D01*
X332737Y45325D01*
X332262Y44179D01*
X332020Y42962D01*
Y41721D01*
X332262Y40504D01*
X332737Y39358D01*
X333426Y38326D01*
X334304Y37449D01*
X335335Y36759D01*
X336482Y36285D01*
X337699Y36042D01*
X338940D01*
X340157Y36285D01*
X341303Y36759D01*
X342335Y37449D01*
X343212Y38326D01*
X343901Y39358D01*
X344376Y40504D01*
X344618Y41721D01*
Y42962D01*
X344376Y44179D01*
X343901Y45325D01*
X343212Y46357D01*
X342335Y47234D01*
X341303Y47924D01*
X340157Y48399D01*
X338940Y48641D01*
D02*
G37*
G36*
X526865Y33858D02*
X526088D01*
X525337Y33657D01*
X524664Y33268D01*
X524114Y32719D01*
X523725Y32045D01*
X523524Y31294D01*
Y30517D01*
X523725Y29766D01*
X524114Y29092D01*
X524664Y28543D01*
X525337Y28154D01*
X526088Y27953D01*
X526865D01*
X527616Y28154D01*
X528290Y28543D01*
X528839Y29092D01*
X529228Y29766D01*
X529429Y30517D01*
Y31294D01*
X529228Y32045D01*
X528839Y32719D01*
X528290Y33268D01*
X527616Y33657D01*
X526865Y33858D01*
D02*
G37*
G36*
X499306D02*
X498529D01*
X497778Y33657D01*
X497105Y33268D01*
X496555Y32719D01*
X496166Y32045D01*
X495965Y31294D01*
Y30517D01*
X496166Y29766D01*
X496555Y29092D01*
X497105Y28543D01*
X497778Y28154D01*
X498529Y27953D01*
X499306D01*
X500057Y28154D01*
X500731Y28543D01*
X501280Y29092D01*
X501669Y29766D01*
X501870Y30517D01*
Y31294D01*
X501669Y32045D01*
X501280Y32719D01*
X500731Y33268D01*
X500057Y33657D01*
X499306Y33858D01*
D02*
G37*
G36*
X471747D02*
X470970D01*
X470219Y33657D01*
X469546Y33268D01*
X468996Y32719D01*
X468607Y32045D01*
X468406Y31294D01*
Y30517D01*
X468607Y29766D01*
X468996Y29092D01*
X469546Y28543D01*
X470219Y28154D01*
X470970Y27953D01*
X471747D01*
X472498Y28154D01*
X473172Y28543D01*
X473721Y29092D01*
X474110Y29766D01*
X474311Y30517D01*
Y31294D01*
X474110Y32045D01*
X473721Y32719D01*
X473172Y33268D01*
X472498Y33657D01*
X471747Y33858D01*
D02*
G37*
G36*
X444188D02*
X443411D01*
X442660Y33657D01*
X441986Y33268D01*
X441437Y32719D01*
X441048Y32045D01*
X440847Y31294D01*
Y30517D01*
X441048Y29766D01*
X441437Y29092D01*
X441986Y28543D01*
X442660Y28154D01*
X443411Y27953D01*
X444188D01*
X444939Y28154D01*
X445612Y28543D01*
X446162Y29092D01*
X446551Y29766D01*
X446752Y30517D01*
Y31294D01*
X446551Y32045D01*
X446162Y32719D01*
X445612Y33268D01*
X444939Y33657D01*
X444188Y33858D01*
D02*
G37*
G36*
X416629D02*
X415852D01*
X415101Y33657D01*
X414427Y33268D01*
X413878Y32719D01*
X413489Y32045D01*
X413288Y31294D01*
Y30517D01*
X413489Y29766D01*
X413878Y29092D01*
X414427Y28543D01*
X415101Y28154D01*
X415852Y27953D01*
X416629D01*
X417380Y28154D01*
X418053Y28543D01*
X418603Y29092D01*
X418992Y29766D01*
X419193Y30517D01*
Y31294D01*
X418992Y32045D01*
X418603Y32719D01*
X418053Y33268D01*
X417380Y33657D01*
X416629Y33858D01*
D02*
G37*
G36*
X389070D02*
X388293D01*
X387542Y33657D01*
X386868Y33268D01*
X386318Y32719D01*
X385930Y32045D01*
X385729Y31294D01*
Y30517D01*
X385930Y29766D01*
X386318Y29092D01*
X386868Y28543D01*
X387542Y28154D01*
X388293Y27953D01*
X389070D01*
X389821Y28154D01*
X390494Y28543D01*
X391044Y29092D01*
X391433Y29766D01*
X391634Y30517D01*
Y31294D01*
X391433Y32045D01*
X391044Y32719D01*
X390494Y33268D01*
X389821Y33657D01*
X389070Y33858D01*
D02*
G37*
G36*
X306393D02*
X305615D01*
X304864Y33657D01*
X304191Y33268D01*
X303641Y32719D01*
X303253Y32045D01*
X303051Y31294D01*
Y30517D01*
X303253Y29766D01*
X303641Y29092D01*
X304191Y28543D01*
X304864Y28154D01*
X305615Y27953D01*
X306393D01*
X307144Y28154D01*
X307817Y28543D01*
X308367Y29092D01*
X308756Y29766D01*
X308957Y30517D01*
Y31294D01*
X308756Y32045D01*
X308367Y32719D01*
X307817Y33268D01*
X307144Y33657D01*
X306393Y33858D01*
D02*
G37*
G36*
X278834D02*
X278056D01*
X277305Y33657D01*
X276632Y33268D01*
X276082Y32719D01*
X275694Y32045D01*
X275492Y31294D01*
Y30517D01*
X275694Y29766D01*
X276082Y29092D01*
X276632Y28543D01*
X277305Y28154D01*
X278056Y27953D01*
X278834D01*
X279585Y28154D01*
X280258Y28543D01*
X280808Y29092D01*
X281197Y29766D01*
X281398Y30517D01*
Y31294D01*
X281197Y32045D01*
X280808Y32719D01*
X280258Y33268D01*
X279585Y33657D01*
X278834Y33858D01*
D02*
G37*
G36*
X251275D02*
X250497D01*
X249746Y33657D01*
X249073Y33268D01*
X248523Y32719D01*
X248134Y32045D01*
X247933Y31294D01*
Y30517D01*
X248134Y29766D01*
X248523Y29092D01*
X249073Y28543D01*
X249746Y28154D01*
X250497Y27953D01*
X251275D01*
X252026Y28154D01*
X252699Y28543D01*
X253249Y29092D01*
X253638Y29766D01*
X253839Y30517D01*
Y31294D01*
X253638Y32045D01*
X253249Y32719D01*
X252699Y33268D01*
X252026Y33657D01*
X251275Y33858D01*
D02*
G37*
G36*
X223716D02*
X222938D01*
X222187Y33657D01*
X221514Y33268D01*
X220964Y32719D01*
X220575Y32045D01*
X220374Y31294D01*
Y30517D01*
X220575Y29766D01*
X220964Y29092D01*
X221514Y28543D01*
X222187Y28154D01*
X222938Y27953D01*
X223716D01*
X224467Y28154D01*
X225140Y28543D01*
X225690Y29092D01*
X226079Y29766D01*
X226280Y30517D01*
Y31294D01*
X226079Y32045D01*
X225690Y32719D01*
X225140Y33268D01*
X224467Y33657D01*
X223716Y33858D01*
D02*
G37*
G36*
X267005Y30896D02*
X266228D01*
X265476Y30694D01*
X264803Y30306D01*
X264253Y29756D01*
X263865Y29083D01*
X263664Y28332D01*
Y27554D01*
X263865Y26803D01*
X264253Y26130D01*
X264803Y25580D01*
X265476Y25192D01*
X266228Y24990D01*
X267005D01*
X267756Y25192D01*
X268429Y25580D01*
X268979Y26130D01*
X269368Y26803D01*
X269569Y27554D01*
Y28332D01*
X269368Y29083D01*
X268979Y29756D01*
X268429Y30306D01*
X267756Y30694D01*
X267005Y30896D01*
D02*
G37*
G36*
X205194Y26565D02*
X204416D01*
X203665Y26364D01*
X202992Y25975D01*
X202442Y25425D01*
X202054Y24752D01*
X201852Y24001D01*
Y23223D01*
X202054Y22472D01*
X202442Y21799D01*
X202992Y21249D01*
X203665Y20861D01*
X204416Y20660D01*
X205194D01*
X205945Y20861D01*
X206618Y21249D01*
X207168Y21799D01*
X207557Y22472D01*
X207758Y23223D01*
Y24001D01*
X207557Y24752D01*
X207168Y25425D01*
X206618Y25975D01*
X205945Y26364D01*
X205194Y26565D01*
D02*
G37*
G36*
X332605Y26362D02*
X331827D01*
X331077Y26161D01*
X330403Y25772D01*
X329853Y25222D01*
X329465Y24549D01*
X329263Y23798D01*
Y23020D01*
X329465Y22269D01*
X329853Y21596D01*
X330403Y21046D01*
X331077Y20658D01*
X331827Y20457D01*
X332605D01*
X333356Y20658D01*
X334029Y21046D01*
X334579Y21596D01*
X334968Y22269D01*
X335169Y23020D01*
Y23798D01*
X334968Y24549D01*
X334579Y25222D01*
X334029Y25772D01*
X333356Y26161D01*
X332605Y26362D01*
D02*
G37*
G36*
X281126Y24602D02*
X280349D01*
X279598Y24401D01*
X278925Y24012D01*
X278375Y23463D01*
X277986Y22789D01*
X277785Y22038D01*
Y21261D01*
X277986Y20510D01*
X278375Y19837D01*
X278925Y19287D01*
X279598Y18898D01*
X280349Y18697D01*
X281126D01*
X281877Y18898D01*
X282551Y19287D01*
X283101Y19837D01*
X283489Y20510D01*
X283691Y21261D01*
Y22038D01*
X283489Y22789D01*
X283101Y23463D01*
X282551Y24012D01*
X281877Y24401D01*
X281126Y24602D01*
D02*
G37*
G36*
X499306Y6299D02*
X498529D01*
X497778Y6098D01*
X497105Y5709D01*
X496555Y5159D01*
X496166Y4486D01*
X495965Y3735D01*
Y2958D01*
X496166Y2207D01*
X496555Y1534D01*
X497105Y984D01*
X497778Y595D01*
X498529Y394D01*
X499306D01*
X500057Y595D01*
X500731Y984D01*
X501280Y1534D01*
X501669Y2207D01*
X501870Y2958D01*
Y3735D01*
X501669Y4486D01*
X501280Y5159D01*
X500731Y5709D01*
X500057Y6098D01*
X499306Y6299D01*
D02*
G37*
G36*
X471747D02*
X470970D01*
X470219Y6098D01*
X469546Y5709D01*
X468996Y5159D01*
X468607Y4486D01*
X468406Y3735D01*
Y2958D01*
X468607Y2207D01*
X468996Y1534D01*
X469546Y984D01*
X470219Y595D01*
X470970Y394D01*
X471747D01*
X472498Y595D01*
X473172Y984D01*
X473721Y1534D01*
X474110Y2207D01*
X474311Y2958D01*
Y3735D01*
X474110Y4486D01*
X473721Y5159D01*
X473172Y5709D01*
X472498Y6098D01*
X471747Y6299D01*
D02*
G37*
G36*
X444188D02*
X443411D01*
X442660Y6098D01*
X441986Y5709D01*
X441437Y5159D01*
X441048Y4486D01*
X440847Y3735D01*
Y2958D01*
X441048Y2207D01*
X441437Y1534D01*
X441986Y984D01*
X442660Y595D01*
X443411Y394D01*
X444188D01*
X444939Y595D01*
X445612Y984D01*
X446162Y1534D01*
X446551Y2207D01*
X446752Y2958D01*
Y3735D01*
X446551Y4486D01*
X446162Y5159D01*
X445612Y5709D01*
X444939Y6098D01*
X444188Y6299D01*
D02*
G37*
G36*
X416629D02*
X415852D01*
X415101Y6098D01*
X414427Y5709D01*
X413878Y5159D01*
X413489Y4486D01*
X413288Y3735D01*
Y2958D01*
X413489Y2207D01*
X413878Y1534D01*
X414427Y984D01*
X415101Y595D01*
X415852Y394D01*
X416629D01*
X417380Y595D01*
X418053Y984D01*
X418603Y1534D01*
X418992Y2207D01*
X419193Y2958D01*
Y3735D01*
X418992Y4486D01*
X418603Y5159D01*
X418053Y5709D01*
X417380Y6098D01*
X416629Y6299D01*
D02*
G37*
G36*
X389070D02*
X388293D01*
X387542Y6098D01*
X386868Y5709D01*
X386318Y5159D01*
X385930Y4486D01*
X385729Y3735D01*
Y2958D01*
X385930Y2207D01*
X386318Y1534D01*
X386868Y984D01*
X387542Y595D01*
X388293Y394D01*
X389070D01*
X389821Y595D01*
X390494Y984D01*
X391044Y1534D01*
X391433Y2207D01*
X391634Y2958D01*
Y3735D01*
X391433Y4486D01*
X391044Y5159D01*
X390494Y5709D01*
X389821Y6098D01*
X389070Y6299D01*
D02*
G37*
G36*
X333952D02*
X333174D01*
X332423Y6098D01*
X331750Y5709D01*
X331200Y5159D01*
X330812Y4486D01*
X330610Y3735D01*
Y2958D01*
X330812Y2207D01*
X331200Y1534D01*
X331750Y984D01*
X332423Y595D01*
X333174Y394D01*
X333952D01*
X334703Y595D01*
X335376Y984D01*
X335926Y1534D01*
X336315Y2207D01*
X336516Y2958D01*
Y3735D01*
X336315Y4486D01*
X335926Y5159D01*
X335376Y5709D01*
X334703Y6098D01*
X333952Y6299D01*
D02*
G37*
G36*
X306393D02*
X305615D01*
X304864Y6098D01*
X304191Y5709D01*
X303641Y5159D01*
X303253Y4486D01*
X303051Y3735D01*
Y2958D01*
X303253Y2207D01*
X303641Y1534D01*
X304191Y984D01*
X304864Y595D01*
X305615Y394D01*
X306393D01*
X307144Y595D01*
X307817Y984D01*
X308367Y1534D01*
X308756Y2207D01*
X308957Y2958D01*
Y3735D01*
X308756Y4486D01*
X308367Y5159D01*
X307817Y5709D01*
X307144Y6098D01*
X306393Y6299D01*
D02*
G37*
G36*
X257960Y2921D02*
X257183D01*
X256432Y2719D01*
X255758Y2331D01*
X255209Y1781D01*
X254820Y1108D01*
X254619Y357D01*
Y-421D01*
X254820Y-1172D01*
X255209Y-1845D01*
X255758Y-2395D01*
X256432Y-2784D01*
X257183Y-2985D01*
X257960D01*
X258711Y-2784D01*
X259384Y-2395D01*
X259934Y-1845D01*
X260323Y-1172D01*
X260524Y-421D01*
Y357D01*
X260323Y1108D01*
X259934Y1781D01*
X259384Y2331D01*
X258711Y2719D01*
X257960Y2921D01*
D02*
G37*
G36*
X251275Y6299D02*
X250497D01*
X249746Y6098D01*
X249073Y5709D01*
X248523Y5159D01*
X248134Y4486D01*
X247933Y3735D01*
Y2958D01*
X247982Y2776D01*
X247770Y2719D01*
X247097Y2331D01*
X246547Y1781D01*
X246159Y1108D01*
X245957Y357D01*
Y-421D01*
X246159Y-1172D01*
X246547Y-1845D01*
X247097Y-2395D01*
X247770Y-2784D01*
X248521Y-2985D01*
X249299D01*
X250050Y-2784D01*
X250723Y-2395D01*
X251273Y-1845D01*
X251661Y-1172D01*
X251863Y-421D01*
Y357D01*
X251814Y538D01*
X252026Y595D01*
X252699Y984D01*
X253249Y1534D01*
X253638Y2207D01*
X253839Y2958D01*
Y3735D01*
X253638Y4486D01*
X253249Y5159D01*
X252699Y5709D01*
X252026Y6098D01*
X251275Y6299D01*
D02*
G37*
G36*
X223716D02*
X222938D01*
X222187Y6098D01*
X221514Y5709D01*
X220964Y5159D01*
X220575Y4486D01*
X220374Y3735D01*
Y2958D01*
X220575Y2207D01*
X220727Y1945D01*
X220563Y1781D01*
X220174Y1108D01*
X219973Y357D01*
Y-421D01*
X220174Y-1172D01*
X220563Y-1845D01*
X221113Y-2395D01*
X221786Y-2784D01*
X222537Y-2985D01*
X223314D01*
X224065Y-2784D01*
X224739Y-2395D01*
X225289Y-1845D01*
X225677Y-1172D01*
X225879Y-421D01*
Y357D01*
X225677Y1108D01*
X225526Y1370D01*
X225690Y1534D01*
X226079Y2207D01*
X226280Y2958D01*
Y3735D01*
X226079Y4486D01*
X225690Y5159D01*
X225140Y5709D01*
X224467Y6098D01*
X223716Y6299D01*
D02*
G37*
G36*
X284005Y-3864D02*
X283228D01*
X282477Y-4065D01*
X281803Y-4454D01*
X281254Y-5004D01*
X280865Y-5677D01*
X280664Y-6428D01*
Y-7206D01*
X280865Y-7957D01*
X281254Y-8630D01*
X281803Y-9180D01*
X282477Y-9568D01*
X283228Y-9770D01*
X284005D01*
X284756Y-9568D01*
X285429Y-9180D01*
X285979Y-8630D01*
X286368Y-7957D01*
X286569Y-7206D01*
Y-6428D01*
X286368Y-5677D01*
X285979Y-5004D01*
X285429Y-4454D01*
X284756Y-4065D01*
X284005Y-3864D01*
D02*
G37*
G36*
X520614Y11811D02*
X518755D01*
X516919Y11520D01*
X515151Y10946D01*
X513495Y10102D01*
X511991Y9009D01*
X510676Y7694D01*
X509583Y6190D01*
X508739Y4534D01*
X508165Y2766D01*
X507874Y930D01*
Y-930D01*
X508165Y-2766D01*
X508739Y-4534D01*
X509583Y-6190D01*
X510676Y-7694D01*
X511991Y-9009D01*
X513495Y-10102D01*
X515151Y-10946D01*
X516919Y-11520D01*
X518755Y-11811D01*
X520614D01*
X522451Y-11520D01*
X524219Y-10946D01*
X525875Y-10102D01*
X527379Y-9009D01*
X528694Y-7694D01*
X529787Y-6190D01*
X530631Y-4534D01*
X531205Y-2766D01*
X531496Y-930D01*
Y930D01*
X531205Y2766D01*
X530631Y4534D01*
X529787Y6190D01*
X528694Y7694D01*
X527379Y9009D01*
X525875Y10102D01*
X524219Y10946D01*
X522451Y11520D01*
X520614Y11811D01*
D02*
G37*
G36*
X272521Y-9709D02*
X271744D01*
X270993Y-9911D01*
X270319Y-10299D01*
X269770Y-10849D01*
X269381Y-11523D01*
X269180Y-12274D01*
Y-13051D01*
X269381Y-13802D01*
X269770Y-14475D01*
X270319Y-15025D01*
X270993Y-15414D01*
X271744Y-15615D01*
X272521D01*
X273272Y-15414D01*
X273945Y-15025D01*
X274495Y-14475D01*
X274884Y-13802D01*
X275085Y-13051D01*
Y-12274D01*
X274884Y-11523D01*
X274495Y-10849D01*
X273945Y-10299D01*
X273272Y-9911D01*
X272521Y-9709D01*
D02*
G37*
G36*
X284005Y-13864D02*
X283228D01*
X282477Y-14065D01*
X281803Y-14454D01*
X281254Y-15004D01*
X280865Y-15677D01*
X280664Y-16428D01*
Y-17206D01*
X280865Y-17957D01*
X281254Y-18630D01*
X281803Y-19180D01*
X282477Y-19568D01*
X283228Y-19770D01*
X284005D01*
X284756Y-19568D01*
X285429Y-19180D01*
X285979Y-18630D01*
X286368Y-17957D01*
X286569Y-17206D01*
Y-16428D01*
X286368Y-15677D01*
X285979Y-15004D01*
X285429Y-14454D01*
X284756Y-14065D01*
X284005Y-13864D01*
D02*
G37*
G36*
X272121Y-16710D02*
X271344D01*
X270593Y-16911D01*
X269919Y-17299D01*
X269370Y-17849D01*
X268981Y-18522D01*
X268780Y-19274D01*
Y-20051D01*
X268966Y-20746D01*
X268857Y-20891D01*
X268574Y-21096D01*
X268235Y-20901D01*
X267484Y-20700D01*
X266706D01*
X265955Y-20901D01*
X265282Y-21290D01*
X264732Y-21839D01*
X264344Y-22513D01*
X264142Y-23264D01*
Y-24041D01*
X264344Y-24792D01*
X264732Y-25465D01*
X265282Y-26015D01*
X265955Y-26404D01*
X266706Y-26605D01*
X267484D01*
X268235Y-26404D01*
X268908Y-26015D01*
X269458Y-25465D01*
X269847Y-24792D01*
X270048Y-24041D01*
Y-23264D01*
X269862Y-22569D01*
X269970Y-22423D01*
X270254Y-22218D01*
X270593Y-22414D01*
X271344Y-22615D01*
X272121D01*
X272843Y-22422D01*
X272924Y-22475D01*
X273201Y-22801D01*
X273076Y-23018D01*
X272875Y-23769D01*
Y-24546D01*
X273076Y-25297D01*
X273465Y-25971D01*
X274015Y-26520D01*
X274688Y-26909D01*
X275439Y-27110D01*
X275844D01*
X275932Y-27439D01*
X276320Y-28112D01*
X276870Y-28662D01*
X277543Y-29050D01*
X278294Y-29252D01*
X279072D01*
X279823Y-29050D01*
X280496Y-28662D01*
X281046Y-28112D01*
X281435Y-27439D01*
X281636Y-26687D01*
Y-25910D01*
X281435Y-25159D01*
X281046Y-24486D01*
X280496Y-23936D01*
X279823Y-23547D01*
X279072Y-23346D01*
X278667D01*
X278579Y-23018D01*
X278191Y-22345D01*
X277641Y-21795D01*
X276968Y-21406D01*
X276217Y-21205D01*
X275439D01*
X274717Y-21398D01*
X274636Y-21345D01*
X274359Y-21019D01*
X274484Y-20802D01*
X274685Y-20051D01*
Y-19274D01*
X274484Y-18522D01*
X274095Y-17849D01*
X273545Y-17299D01*
X272872Y-16911D01*
X272121Y-16710D01*
D02*
G37*
G36*
X244054Y-20410D02*
X243277D01*
X242526Y-20611D01*
X241853Y-20999D01*
X241303Y-21549D01*
X240914Y-22222D01*
X240713Y-22974D01*
Y-23751D01*
X240914Y-24502D01*
X241303Y-25175D01*
X241853Y-25725D01*
X242526Y-26114D01*
X243277Y-26315D01*
X244054D01*
X244805Y-26114D01*
X245479Y-25725D01*
X246028Y-25175D01*
X246417Y-24502D01*
X246618Y-23751D01*
Y-22974D01*
X246417Y-22222D01*
X246028Y-21549D01*
X245479Y-20999D01*
X244805Y-20611D01*
X244054Y-20410D01*
D02*
G37*
G36*
X221277Y-20759D02*
X220500D01*
X219749Y-20960D01*
X219076Y-21349D01*
X218526Y-21899D01*
X218137Y-22572D01*
X217936Y-23323D01*
Y-24101D01*
X218137Y-24851D01*
X218526Y-25525D01*
X219076Y-26075D01*
X219749Y-26463D01*
X220500Y-26665D01*
X221277D01*
X222028Y-26463D01*
X222702Y-26075D01*
X223252Y-25525D01*
X223640Y-24851D01*
X223842Y-24101D01*
Y-23323D01*
X223640Y-22572D01*
X223252Y-21899D01*
X222702Y-21349D01*
X222028Y-20960D01*
X221277Y-20759D01*
D02*
G37*
G36*
X232666Y-21010D02*
X231889D01*
X231137Y-21211D01*
X230464Y-21599D01*
X229914Y-22149D01*
X229526Y-22822D01*
X229324Y-23573D01*
Y-24351D01*
X229526Y-25102D01*
X229914Y-25775D01*
X230464Y-26325D01*
X231137Y-26714D01*
X231889Y-26915D01*
X232666D01*
X233417Y-26714D01*
X234090Y-26325D01*
X234640Y-25775D01*
X235029Y-25102D01*
X235230Y-24351D01*
Y-23573D01*
X235029Y-22822D01*
X234640Y-22149D01*
X234090Y-21599D01*
X233417Y-21211D01*
X232666Y-21010D01*
D02*
G37*
G36*
X526865Y-21260D02*
X526088D01*
X525337Y-21461D01*
X524664Y-21850D01*
X524114Y-22400D01*
X523725Y-23073D01*
X523524Y-23824D01*
Y-24601D01*
X523725Y-25352D01*
X524114Y-26026D01*
X524664Y-26575D01*
X525337Y-26964D01*
X526088Y-27165D01*
X526865D01*
X527616Y-26964D01*
X528290Y-26575D01*
X528839Y-26026D01*
X529228Y-25352D01*
X529429Y-24601D01*
Y-23824D01*
X529228Y-23073D01*
X528839Y-22400D01*
X528290Y-21850D01*
X527616Y-21461D01*
X526865Y-21260D01*
D02*
G37*
G36*
X499306D02*
X498529D01*
X497778Y-21461D01*
X497105Y-21850D01*
X496555Y-22400D01*
X496166Y-23073D01*
X495965Y-23824D01*
Y-24601D01*
X496166Y-25352D01*
X496555Y-26026D01*
X497105Y-26575D01*
X497778Y-26964D01*
X498529Y-27165D01*
X499306D01*
X500057Y-26964D01*
X500731Y-26575D01*
X501280Y-26026D01*
X501669Y-25352D01*
X501870Y-24601D01*
Y-23824D01*
X501669Y-23073D01*
X501280Y-22400D01*
X500731Y-21850D01*
X500057Y-21461D01*
X499306Y-21260D01*
D02*
G37*
G36*
X471747D02*
X470970D01*
X470219Y-21461D01*
X469546Y-21850D01*
X468996Y-22400D01*
X468607Y-23073D01*
X468406Y-23824D01*
Y-24601D01*
X468607Y-25352D01*
X468996Y-26026D01*
X469546Y-26575D01*
X470219Y-26964D01*
X470970Y-27165D01*
X471747D01*
X472498Y-26964D01*
X473172Y-26575D01*
X473721Y-26026D01*
X474110Y-25352D01*
X474311Y-24601D01*
Y-23824D01*
X474110Y-23073D01*
X473721Y-22400D01*
X473172Y-21850D01*
X472498Y-21461D01*
X471747Y-21260D01*
D02*
G37*
G36*
X361511D02*
X360734D01*
X359982Y-21461D01*
X359309Y-21850D01*
X358759Y-22400D01*
X358371Y-23073D01*
X358170Y-23824D01*
Y-24601D01*
X358371Y-25352D01*
X358759Y-26026D01*
X359309Y-26575D01*
X359982Y-26964D01*
X360734Y-27165D01*
X361511D01*
X362262Y-26964D01*
X362935Y-26575D01*
X363485Y-26026D01*
X363874Y-25352D01*
X364075Y-24601D01*
Y-23824D01*
X363874Y-23073D01*
X363485Y-22400D01*
X362935Y-21850D01*
X362262Y-21461D01*
X361511Y-21260D01*
D02*
G37*
G36*
X306393D02*
X305615D01*
X304864Y-21461D01*
X304191Y-21850D01*
X303641Y-22400D01*
X303253Y-23073D01*
X303051Y-23824D01*
Y-24601D01*
X303253Y-25352D01*
X303641Y-26026D01*
X304191Y-26575D01*
X304864Y-26964D01*
X305615Y-27165D01*
X306393D01*
X307144Y-26964D01*
X307817Y-26575D01*
X308367Y-26026D01*
X308756Y-25352D01*
X308957Y-24601D01*
Y-23824D01*
X308756Y-23073D01*
X308367Y-22400D01*
X307817Y-21850D01*
X307144Y-21461D01*
X306393Y-21260D01*
D02*
G37*
G36*
X332637Y-21288D02*
X331860D01*
X331109Y-21489D01*
X330436Y-21878D01*
X329886Y-22428D01*
X329497Y-23101D01*
X329296Y-23852D01*
Y-24629D01*
X329497Y-25380D01*
X329886Y-26054D01*
X330436Y-26603D01*
X331109Y-26992D01*
X331860Y-27193D01*
X332637D01*
X333388Y-26992D01*
X334062Y-26603D01*
X334611Y-26054D01*
X335000Y-25380D01*
X335201Y-24629D01*
Y-23852D01*
X335000Y-23101D01*
X334611Y-22428D01*
X334062Y-21878D01*
X333388Y-21489D01*
X332637Y-21288D01*
D02*
G37*
%LPD*%
G36*
X381351Y357363D02*
X379855Y357296D01*
X378517Y357097D01*
X377336Y356765D01*
X376312Y356300D01*
X375446Y355702D01*
X374737Y354971D01*
X374186Y354107D01*
X373792Y353110D01*
X373556Y351980D01*
X373477Y350718D01*
X365603D01*
X365524Y351980D01*
X365288Y353110D01*
X364895Y354107D01*
X364343Y354971D01*
X363635Y355702D01*
X362769Y356300D01*
X361745Y356765D01*
X360564Y357097D01*
X359225Y357296D01*
X357729Y357363D01*
X369540Y365237D01*
X381351Y357363D01*
D02*
G37*
G36*
X392500Y124400D02*
X360114D01*
X359991Y124561D01*
Y125338D01*
X359789Y126089D01*
X359401Y126763D01*
X358851Y127312D01*
X358178Y127701D01*
X357427Y127902D01*
X356649D01*
X355898Y127701D01*
X355225Y127312D01*
X354675Y126763D01*
X354286Y126089D01*
X354085Y125338D01*
Y124561D01*
X353962Y124400D01*
X337514D01*
X336924Y124740D01*
X336173Y124942D01*
X335396D01*
X334645Y124740D01*
X334055Y124400D01*
X283600D01*
Y143893D01*
X284086Y144010D01*
X284475Y143336D01*
X285025Y142787D01*
X285698Y142398D01*
X286449Y142197D01*
X287227D01*
X287978Y142398D01*
X288651Y142787D01*
X289201Y143336D01*
X289589Y144010D01*
X289791Y144761D01*
Y145538D01*
X289589Y146289D01*
X289201Y146963D01*
X288651Y147512D01*
X287978Y147901D01*
X287227Y148102D01*
X286449D01*
X285698Y147901D01*
X285025Y147512D01*
X284475Y146963D01*
X284086Y146289D01*
X283600Y146406D01*
Y215400D01*
X286538D01*
X286548Y215360D01*
X286937Y214687D01*
X287487Y214137D01*
X288160Y213749D01*
X288911Y213547D01*
X289689D01*
X290440Y213749D01*
X291113Y214137D01*
X291663Y214687D01*
X292052Y215360D01*
X292062Y215400D01*
X353198D01*
X353262Y215383D01*
X354039D01*
X354102Y215400D01*
X392500D01*
Y124400D01*
D02*
G37*
G36*
X417902Y120791D02*
X418627Y120176D01*
X418948Y119952D01*
X419240Y119784D01*
X419504Y119672D01*
X419741Y119615D01*
X419949Y119614D01*
X420129Y119668D01*
X420281Y119778D01*
X417509Y117006D01*
X417619Y117158D01*
X417674Y117339D01*
X417672Y117547D01*
X417616Y117783D01*
X417503Y118047D01*
X417335Y118340D01*
X417111Y118660D01*
X416831Y119009D01*
X416105Y119790D01*
X417497Y121182D01*
X417902Y120791D01*
D02*
G37*
%LPC*%
G36*
X324532Y209889D02*
X323755D01*
X323004Y209688D01*
X322330Y209299D01*
X321781Y208749D01*
X321392Y208076D01*
X321191Y207325D01*
Y206547D01*
X321392Y205797D01*
X321781Y205123D01*
X322330Y204573D01*
X323004Y204185D01*
X323755Y203983D01*
X324532D01*
X325283Y204185D01*
X325956Y204573D01*
X326506Y205123D01*
X326895Y205797D01*
X327096Y206547D01*
Y207325D01*
X326895Y208076D01*
X326506Y208749D01*
X325956Y209299D01*
X325283Y209688D01*
X324532Y209889D01*
D02*
G37*
G36*
X389070Y199213D02*
X388293D01*
X387542Y199011D01*
X386868Y198623D01*
X386318Y198073D01*
X385930Y197400D01*
X385729Y196649D01*
Y195871D01*
X385930Y195120D01*
X386318Y194447D01*
X386868Y193897D01*
X387542Y193508D01*
X388293Y193307D01*
X389070D01*
X389821Y193508D01*
X390494Y193897D01*
X391044Y194447D01*
X391433Y195120D01*
X391634Y195871D01*
Y196649D01*
X391433Y197400D01*
X391044Y198073D01*
X390494Y198623D01*
X389821Y199011D01*
X389070Y199213D01*
D02*
G37*
G36*
X361511D02*
X360734D01*
X359982Y199011D01*
X359309Y198623D01*
X358759Y198073D01*
X358371Y197400D01*
X358170Y196649D01*
Y195871D01*
X358371Y195120D01*
X358759Y194447D01*
X359309Y193897D01*
X359982Y193508D01*
X360734Y193307D01*
X361511D01*
X362262Y193508D01*
X362935Y193897D01*
X363485Y194447D01*
X363874Y195120D01*
X364075Y195871D01*
Y196649D01*
X363874Y197400D01*
X363485Y198073D01*
X362935Y198623D01*
X362262Y199011D01*
X361511Y199213D01*
D02*
G37*
G36*
X291927Y196902D02*
X291149D01*
X290398Y196701D01*
X289725Y196312D01*
X289175Y195763D01*
X288786Y195089D01*
X288585Y194338D01*
Y193561D01*
X288786Y192810D01*
X289175Y192137D01*
X289725Y191587D01*
X290398Y191198D01*
X291149Y190997D01*
X291927D01*
X292678Y191198D01*
X293351Y191587D01*
X293901Y192137D01*
X294289Y192810D01*
X294491Y193561D01*
Y194338D01*
X294289Y195089D01*
X293901Y195763D01*
X293351Y196312D01*
X292678Y196701D01*
X291927Y196902D01*
D02*
G37*
G36*
X373827Y194302D02*
X373049D01*
X372298Y194101D01*
X371625Y193712D01*
X371075Y193163D01*
X370686Y192489D01*
X370485Y191738D01*
Y190961D01*
X370686Y190210D01*
X371075Y189536D01*
X371625Y188987D01*
X372298Y188598D01*
X373049Y188397D01*
X373827D01*
X374578Y188598D01*
X375251Y188987D01*
X375801Y189536D01*
X376189Y190210D01*
X376391Y190961D01*
Y191738D01*
X376189Y192489D01*
X375801Y193163D01*
X375251Y193712D01*
X374578Y194101D01*
X373827Y194302D01*
D02*
G37*
G36*
X378789Y185353D02*
X378011D01*
X377260Y185152D01*
X376587Y184763D01*
X376037Y184213D01*
X375648Y183540D01*
X375447Y182789D01*
Y182011D01*
X375648Y181260D01*
X376037Y180587D01*
X376587Y180037D01*
X377260Y179648D01*
X378011Y179447D01*
X378789D01*
X379540Y179648D01*
X380213Y180037D01*
X380763Y180587D01*
X381152Y181260D01*
X381353Y182011D01*
Y182789D01*
X381152Y183540D01*
X380763Y184213D01*
X380213Y184763D01*
X379540Y185152D01*
X378789Y185353D01*
D02*
G37*
G36*
X333951Y183464D02*
X333174D01*
X332423Y183263D01*
X331750Y182874D01*
X331200Y182325D01*
X330811Y181651D01*
X330610Y180900D01*
Y180123D01*
X330811Y179372D01*
X331200Y178699D01*
X331750Y178149D01*
X332423Y177760D01*
X333174Y177559D01*
X333951D01*
X334702Y177760D01*
X335376Y178149D01*
X335926Y178699D01*
X336314Y179372D01*
X336515Y180123D01*
Y180900D01*
X336314Y181651D01*
X335926Y182325D01*
X335376Y182874D01*
X334702Y183263D01*
X333951Y183464D01*
D02*
G37*
G36*
X322141D02*
X321363D01*
X320612Y183263D01*
X319939Y182874D01*
X319389Y182325D01*
X319000Y181651D01*
X318799Y180900D01*
Y180123D01*
X319000Y179372D01*
X319389Y178699D01*
X319939Y178149D01*
X320612Y177760D01*
X321363Y177559D01*
X322141D01*
X322891Y177760D01*
X323565Y178149D01*
X324115Y178699D01*
X324503Y179372D01*
X324705Y180123D01*
Y180900D01*
X324503Y181651D01*
X324115Y182325D01*
X323565Y182874D01*
X322891Y183263D01*
X322141Y183464D01*
D02*
G37*
G36*
X310330D02*
X309552D01*
X308801Y183263D01*
X308128Y182874D01*
X307578Y182325D01*
X307189Y181651D01*
X306988Y180900D01*
Y180123D01*
X307189Y179372D01*
X307578Y178699D01*
X308128Y178149D01*
X308801Y177760D01*
X309552Y177559D01*
X310330D01*
X311081Y177760D01*
X311754Y178149D01*
X312303Y178699D01*
X312692Y179372D01*
X312894Y180123D01*
Y180900D01*
X312692Y181651D01*
X312303Y182325D01*
X311754Y182874D01*
X311081Y183263D01*
X310330Y183464D01*
D02*
G37*
G36*
X371273Y179973D02*
X370496D01*
X369744Y179772D01*
X369071Y179383D01*
X368521Y178833D01*
X368133Y178160D01*
X367931Y177409D01*
Y177405D01*
X367811D01*
X367060Y177203D01*
X366387Y176815D01*
X365837Y176265D01*
X365448Y175592D01*
X365247Y174841D01*
Y174063D01*
X365448Y173312D01*
X365837Y172639D01*
X366387Y172089D01*
X367060Y171700D01*
X367811Y171499D01*
X368589D01*
X369340Y171700D01*
X370013Y172089D01*
X370563Y172639D01*
X370952Y173312D01*
X371153Y174063D01*
Y174068D01*
X371273D01*
X372024Y174269D01*
X372697Y174658D01*
X373247Y175207D01*
X373636Y175881D01*
X373837Y176632D01*
Y177409D01*
X373636Y178160D01*
X373247Y178833D01*
X372697Y179383D01*
X372024Y179772D01*
X371273Y179973D01*
D02*
G37*
G36*
X333951Y171653D02*
X333174D01*
X332423Y171452D01*
X331750Y171063D01*
X331200Y170514D01*
X330811Y169840D01*
X330610Y169089D01*
Y168312D01*
X330811Y167561D01*
X331200Y166888D01*
X331750Y166338D01*
X332423Y165949D01*
X333174Y165748D01*
X333951D01*
X334702Y165949D01*
X335376Y166338D01*
X335926Y166888D01*
X336314Y167561D01*
X336515Y168312D01*
Y169089D01*
X336314Y169840D01*
X335926Y170514D01*
X335376Y171063D01*
X334702Y171452D01*
X333951Y171653D01*
D02*
G37*
G36*
X322141D02*
X321363D01*
X320612Y171452D01*
X319939Y171063D01*
X319389Y170514D01*
X319000Y169840D01*
X318799Y169089D01*
Y168312D01*
X319000Y167561D01*
X319389Y166888D01*
X319939Y166338D01*
X320612Y165949D01*
X321363Y165748D01*
X322141D01*
X322891Y165949D01*
X323565Y166338D01*
X324115Y166888D01*
X324503Y167561D01*
X324705Y168312D01*
Y169089D01*
X324503Y169840D01*
X324115Y170514D01*
X323565Y171063D01*
X322891Y171452D01*
X322141Y171653D01*
D02*
G37*
G36*
X310330D02*
X309552D01*
X308801Y171452D01*
X308128Y171063D01*
X307578Y170514D01*
X307189Y169840D01*
X306988Y169089D01*
Y168312D01*
X307189Y167561D01*
X307578Y166888D01*
X308128Y166338D01*
X308801Y165949D01*
X309552Y165748D01*
X310330D01*
X311081Y165949D01*
X311754Y166338D01*
X312303Y166888D01*
X312692Y167561D01*
X312894Y168312D01*
Y169089D01*
X312692Y169840D01*
X312303Y170514D01*
X311754Y171063D01*
X311081Y171452D01*
X310330Y171653D01*
D02*
G37*
G36*
X333951Y159842D02*
X333174D01*
X332423Y159641D01*
X331750Y159252D01*
X331200Y158703D01*
X330811Y158029D01*
X330610Y157278D01*
Y156501D01*
X330811Y155750D01*
X331200Y155077D01*
X331750Y154527D01*
X332423Y154138D01*
X333174Y153937D01*
X333951D01*
X334702Y154138D01*
X335376Y154527D01*
X335926Y155077D01*
X336314Y155750D01*
X336515Y156501D01*
Y157278D01*
X336314Y158029D01*
X335926Y158703D01*
X335376Y159252D01*
X334702Y159641D01*
X333951Y159842D01*
D02*
G37*
G36*
X322141D02*
X321363D01*
X320612Y159641D01*
X319939Y159252D01*
X319389Y158703D01*
X319000Y158029D01*
X318799Y157278D01*
Y156501D01*
X319000Y155750D01*
X319389Y155077D01*
X319939Y154527D01*
X320612Y154138D01*
X321363Y153937D01*
X322141D01*
X322891Y154138D01*
X323565Y154527D01*
X324115Y155077D01*
X324503Y155750D01*
X324705Y156501D01*
Y157278D01*
X324503Y158029D01*
X324115Y158703D01*
X323565Y159252D01*
X322891Y159641D01*
X322141Y159842D01*
D02*
G37*
G36*
X310330D02*
X309552D01*
X308801Y159641D01*
X308128Y159252D01*
X307578Y158703D01*
X307189Y158029D01*
X306988Y157278D01*
Y156501D01*
X307189Y155750D01*
X307578Y155077D01*
X308128Y154527D01*
X308801Y154138D01*
X309552Y153937D01*
X310330D01*
X311081Y154138D01*
X311754Y154527D01*
X312303Y155077D01*
X312692Y155750D01*
X312894Y156501D01*
Y157278D01*
X312692Y158029D01*
X312303Y158703D01*
X311754Y159252D01*
X311081Y159641D01*
X310330Y159842D01*
D02*
G37*
G36*
X333951Y148031D02*
X333174D01*
X332423Y147830D01*
X331750Y147441D01*
X331200Y146892D01*
X330811Y146218D01*
X330610Y145467D01*
Y144690D01*
X330811Y143939D01*
X331200Y143265D01*
X331750Y142716D01*
X332423Y142327D01*
X333174Y142126D01*
X333951D01*
X334702Y142327D01*
X335376Y142716D01*
X335926Y143265D01*
X336314Y143939D01*
X336515Y144690D01*
Y145467D01*
X336314Y146218D01*
X335926Y146892D01*
X335376Y147441D01*
X334702Y147830D01*
X333951Y148031D01*
D02*
G37*
G36*
X322141D02*
X321363D01*
X320612Y147830D01*
X319939Y147441D01*
X319389Y146892D01*
X319000Y146218D01*
X318799Y145467D01*
Y144690D01*
X319000Y143939D01*
X319389Y143265D01*
X319939Y142716D01*
X320612Y142327D01*
X321363Y142126D01*
X322141D01*
X322891Y142327D01*
X323565Y142716D01*
X324115Y143265D01*
X324503Y143939D01*
X324705Y144690D01*
Y145467D01*
X324503Y146218D01*
X324115Y146892D01*
X323565Y147441D01*
X322891Y147830D01*
X322141Y148031D01*
D02*
G37*
G36*
X310330D02*
X309552D01*
X308801Y147830D01*
X308128Y147441D01*
X307578Y146892D01*
X307189Y146218D01*
X306988Y145467D01*
Y144690D01*
X307189Y143939D01*
X307578Y143265D01*
X308128Y142716D01*
X308801Y142327D01*
X309552Y142126D01*
X310330D01*
X311081Y142327D01*
X311754Y142716D01*
X312303Y143265D01*
X312692Y143939D01*
X312894Y144690D01*
Y145467D01*
X312692Y146218D01*
X312303Y146892D01*
X311754Y147441D01*
X311081Y147830D01*
X310330Y148031D01*
D02*
G37*
G36*
X290227Y139602D02*
X289449D01*
X288698Y139401D01*
X288025Y139012D01*
X287475Y138463D01*
X287086Y137789D01*
X286885Y137038D01*
Y136261D01*
X287086Y135510D01*
X287475Y134836D01*
X288025Y134287D01*
X288698Y133898D01*
X289449Y133697D01*
X290227D01*
X290978Y133898D01*
X291651Y134287D01*
X292201Y134836D01*
X292589Y135510D01*
X292791Y136261D01*
Y137038D01*
X292589Y137789D01*
X292201Y138463D01*
X291651Y139012D01*
X290978Y139401D01*
X290227Y139602D01*
D02*
G37*
G36*
X249266Y63169D02*
X248489D01*
X247738Y62968D01*
X247065Y62579D01*
X246712Y62227D01*
X246360Y62579D01*
X245687Y62968D01*
X244935Y63169D01*
X244158D01*
X243407Y62968D01*
X242734Y62579D01*
X242365Y62211D01*
X242013Y62563D01*
X241340Y62951D01*
X240589Y63153D01*
X239811D01*
X239060Y62951D01*
X238387Y62563D01*
X237837Y62013D01*
X237449Y61340D01*
X237247Y60589D01*
Y59811D01*
X237449Y59060D01*
X237837Y58387D01*
X238387Y57837D01*
X239060Y57449D01*
X239811Y57247D01*
X240589D01*
X241340Y57449D01*
X242013Y57837D01*
X242382Y58206D01*
X242734Y57853D01*
X243407Y57465D01*
X244158Y57263D01*
X244935D01*
X245687Y57465D01*
X246360Y57853D01*
X246712Y58206D01*
X247065Y57853D01*
X247738Y57465D01*
X248489Y57263D01*
X249266D01*
X250017Y57465D01*
X250691Y57853D01*
X251240Y58403D01*
X251629Y59076D01*
X251830Y59828D01*
Y60605D01*
X251629Y61356D01*
X251240Y62029D01*
X250691Y62579D01*
X250017Y62968D01*
X249266Y63169D01*
D02*
G37*
G36*
X267005Y56880D02*
X266228D01*
X265476Y56679D01*
X264803Y56290D01*
X264253Y55740D01*
X263865Y55067D01*
X263664Y54316D01*
Y53539D01*
X263865Y52788D01*
X264253Y52114D01*
X264803Y51564D01*
X265476Y51176D01*
X266228Y50975D01*
X267005D01*
X267756Y51176D01*
X268429Y51564D01*
X268979Y52114D01*
X269368Y52788D01*
X269569Y53539D01*
Y54316D01*
X269368Y55067D01*
X268979Y55740D01*
X268429Y56290D01*
X267756Y56679D01*
X267005Y56880D01*
D02*
G37*
%LPD*%
D15*
X254700Y108200D02*
Y124200D01*
X260200Y102700D02*
X384900D01*
X254700Y108200D02*
X260200Y102700D01*
X245900Y133000D02*
X254700Y124200D01*
X212800Y133000D02*
X245900D01*
X199101Y146699D02*
X212800Y133000D01*
X125983Y146699D02*
X199101D01*
X281300Y221900D02*
X289100D01*
X280800Y222400D02*
X281300Y221900D01*
X384900Y102700D02*
X391600Y96000D01*
X388800Y125400D02*
X411887D01*
X420438Y116850D01*
X515826Y314026D02*
Y337712D01*
X505889D02*
X515826D01*
X492000Y351600D02*
X505889Y337712D01*
D49*
X561238Y311950D02*
D03*
D138*
X200817Y307317D02*
X215281D01*
X197000Y303500D02*
X200817Y307317D01*
X197000Y155800D02*
Y303500D01*
X211855Y140945D02*
X225182D01*
X197000Y155800D02*
X211855Y140945D01*
D139*
X369540Y361300D02*
X398968D01*
X340113D02*
X369540D01*
Y350718D02*
Y361300D01*
X398968D02*
X409550Y350718D01*
X329530D02*
X340113Y361300D01*
D149*
X446138Y222950D02*
D03*
Y232949D02*
D03*
X369540Y350718D02*
D03*
X409550D02*
D03*
X329530D02*
D03*
X249525D02*
D03*
D152*
X225182Y140945D02*
D03*
D156*
X420438Y116850D02*
D03*
D157*
X350954Y210250D02*
D03*
X408600Y167300D02*
D03*
X215281Y307317D02*
D03*
X212700Y307300D02*
D03*
X247300Y329700D02*
D03*
X244161Y326673D02*
D03*
X241600Y323700D02*
D03*
X238797Y321309D02*
D03*
X119527Y-28100D02*
D03*
X119466Y-24439D02*
D03*
X119240Y81160D02*
D03*
X119300Y77500D02*
D03*
X289100Y221900D02*
D03*
X235536Y321309D02*
D03*
X391600Y96000D02*
D03*
X116683Y146699D02*
D03*
X119783D02*
D03*
X122883D02*
D03*
X125983D02*
D03*
Y157899D02*
D03*
X122883D02*
D03*
X119783D02*
D03*
X116683D02*
D03*
X363300Y130400D02*
D03*
X215055Y180689D02*
D03*
Y176963D02*
D03*
Y173237D02*
D03*
Y169511D02*
D03*
X210945D02*
D03*
Y173237D02*
D03*
Y176963D02*
D03*
Y180689D02*
D03*
X114600Y52300D02*
D03*
X117700D02*
D03*
X120800D02*
D03*
X123900D02*
D03*
X270700Y63700D02*
D03*
X276900D02*
D03*
X280000D02*
D03*
X270700Y66600D02*
D03*
X273800D02*
D03*
X276900D02*
D03*
X280000D02*
D03*
X123900Y41100D02*
D03*
X120800D02*
D03*
X117700D02*
D03*
X114600D02*
D03*
X204300Y228300D02*
D03*
X269600Y182800D02*
D03*
X287000Y190100D02*
D03*
X515826Y337712D02*
D03*
X492000Y351600D02*
D03*
X267000Y248905D02*
D03*
Y232300D02*
D03*
X312300Y213687D02*
D03*
X490238Y205849D02*
D03*
X291538Y188550D02*
D03*
X373438Y196850D02*
D03*
X295338Y136650D02*
D03*
X332038Y210950D02*
D03*
X400238Y145550D02*
D03*
X494580Y120169D02*
D03*
X400026Y134290D02*
D03*
Y139920D02*
D03*
Y159737D02*
D03*
Y153734D02*
D03*
X237832Y74938D02*
D03*
D158*
X121300Y152100D02*
D03*
M02*
