G04*
G04 #@! TF.GenerationSoftware,Altium Limited,Altium Designer,21.8.1 (53)*
G04*
G04 Layer_Color=8388736*
%FSLAX25Y25*%
%MOIN*%
G70*
G04*
G04 #@! TF.SameCoordinates,3454F2FE-2F19-4CCB-A9DF-A7C270953791*
G04*
G04*
G04 #@! TF.FilePolarity,Negative*
G04*
G01*
G75*
%ADD53R,0.06500X0.05100*%
%ADD57R,0.01965X0.01781*%
%ADD73R,0.05524X0.04737*%
%ADD74R,0.08674X0.06115*%
%ADD75R,0.07887X0.03556*%
%ADD76R,0.03556X0.07887*%
%ADD77R,0.09265X0.13595*%
%ADD78R,0.09265X0.04540*%
%ADD79R,0.03800X0.03800*%
%ADD80R,0.05524X0.08674*%
%ADD81R,0.08674X0.05524*%
%ADD82R,0.03556X0.04343*%
%ADD83R,0.03800X0.03800*%
G04:AMPARAMS|DCode=84|XSize=88.71mil|YSize=31.23mil|CornerRadius=6.9mil|HoleSize=0mil|Usage=FLASHONLY|Rotation=0.000|XOffset=0mil|YOffset=0mil|HoleType=Round|Shape=RoundedRectangle|*
%AMROUNDEDRECTD84*
21,1,0.08871,0.01742,0,0,0.0*
21,1,0.07490,0.03123,0,0,0.0*
1,1,0.01381,0.03745,-0.00871*
1,1,0.01381,-0.03745,-0.00871*
1,1,0.01381,-0.03745,0.00871*
1,1,0.01381,0.03745,0.00871*
%
%ADD84ROUNDEDRECTD84*%
%ADD85R,0.04343X0.03556*%
%ADD86R,0.04343X0.03950*%
%ADD87R,0.05131X0.08280*%
%ADD88R,0.03950X0.03950*%
%ADD89R,0.05524X0.05524*%
%ADD90R,0.03950X0.02375*%
%ADD91R,0.02375X0.03950*%
%ADD92R,0.03162X0.05918*%
%ADD93R,0.06706X0.05918*%
%ADD94R,0.03950X0.04343*%
%ADD95R,0.08280X0.10249*%
%ADD96O,0.01981X0.07887*%
%ADD97O,0.07887X0.01981*%
%ADD98R,0.06706X0.03950*%
%ADD99R,0.08280X0.06312*%
%ADD100R,0.06706X0.07099*%
%ADD101R,0.06706X0.06706*%
%ADD102R,0.06706X0.04737*%
%ADD103R,0.12808X0.05721*%
%ADD104R,0.29540X0.27572*%
%ADD105R,0.10642X0.07493*%
%ADD106O,0.03359X0.07296*%
%ADD107R,0.04068X0.03280*%
%ADD108R,0.02375X0.04147*%
%ADD109R,0.34658X0.42139*%
%ADD110R,0.14580X0.05131*%
%ADD111R,0.07493X0.10642*%
%ADD112R,0.22060X0.12217*%
%ADD113R,0.05524X0.20091*%
%ADD114R,0.03162X0.07493*%
%ADD115R,0.08674X0.21666*%
%ADD116R,0.03162X0.04737*%
%ADD117R,0.16548X0.10642*%
%ADD118R,0.10642X0.16548*%
G04:AMPARAMS|DCode=119|XSize=55.24mil|YSize=126.11mil|CornerRadius=15.81mil|HoleSize=0mil|Usage=FLASHONLY|Rotation=270.000|XOffset=0mil|YOffset=0mil|HoleType=Round|Shape=RoundedRectangle|*
%AMROUNDEDRECTD119*
21,1,0.05524,0.09449,0,0,270.0*
21,1,0.02362,0.12611,0,0,270.0*
1,1,0.03162,-0.04724,-0.01181*
1,1,0.03162,-0.04724,0.01181*
1,1,0.03162,0.04724,0.01181*
1,1,0.03162,0.04724,-0.01181*
%
%ADD119ROUNDEDRECTD119*%
%ADD120R,0.06706X0.10642*%
%ADD121O,0.03162X0.07099*%
%ADD122O,0.07099X0.03162*%
%ADD123C,0.04343*%
%ADD124O,0.08674X0.05131*%
%ADD125C,0.06706*%
%ADD126C,0.08674*%
%ADD127R,0.08674X0.08674*%
%ADD128O,0.04737X0.08674*%
%ADD129C,0.09461*%
%ADD130C,0.10249*%
%ADD131R,0.06500X0.06500*%
%ADD132C,0.06500*%
%ADD133C,0.05300*%
%ADD134C,0.21272*%
%ADD135C,0.11430*%
%ADD136R,0.06706X0.06706*%
G36*
X-37661Y164384D02*
X-33887Y160610D01*
X-28606D01*
Y180689D01*
X-33887D01*
X-37661Y176915D01*
Y164384D01*
D02*
G37*
G36*
X-15220Y176915D02*
X-18994Y180689D01*
X-24275D01*
Y160610D01*
X-18994D01*
X-15220Y164384D01*
Y176915D01*
D02*
G37*
G36*
X502982Y299794D02*
Y305306D01*
X505935D01*
X508494Y302746D01*
Y299794D01*
X502982D01*
D02*
G37*
D53*
X358051Y268402D02*
D03*
Y278402D02*
D03*
X322151D02*
D03*
Y268402D02*
D03*
D57*
X309333Y59061D02*
D03*
Y62614D02*
D03*
D73*
X288138Y18167D02*
D03*
Y8167D02*
D03*
Y-1833D02*
D03*
Y-11833D02*
D03*
Y13167D02*
D03*
Y3167D02*
D03*
Y-6833D02*
D03*
Y-16833D02*
D03*
D74*
X332232Y-28762D02*
D03*
Y27931D02*
D03*
D75*
X566372Y198512D02*
D03*
X566372Y202449D02*
D03*
X566372Y206386D02*
D03*
X566372Y210323D02*
D03*
X566372Y214260D02*
D03*
X566372Y218197D02*
D03*
X566372Y222134D02*
D03*
X566372Y226071D02*
D03*
X566372Y230008D02*
D03*
X566372Y233945D02*
D03*
X566372Y237882D02*
D03*
X566372Y241819D02*
D03*
X508104Y198512D02*
D03*
X508104Y202449D02*
D03*
X508104Y206386D02*
D03*
X508104Y210323D02*
D03*
X508104Y214260D02*
D03*
X508104Y233945D02*
D03*
X508104Y237882D02*
D03*
X508104Y241819D02*
D03*
D76*
X523458Y191032D02*
D03*
X527395D02*
D03*
X531332D02*
D03*
X535269D02*
D03*
X539206D02*
D03*
X543143D02*
D03*
X547080D02*
D03*
X551017D02*
D03*
X523458Y251268D02*
D03*
X527395D02*
D03*
X531332D02*
D03*
X535269D02*
D03*
D77*
X195100Y172800D02*
D03*
D78*
X172265Y163745D02*
D03*
Y172800D02*
D03*
Y181855D02*
D03*
D79*
X205747Y186068D02*
D03*
Y180568D02*
D03*
X490238Y200290D02*
D03*
Y194790D02*
D03*
X497638Y211250D02*
D03*
Y216750D02*
D03*
X411838Y170099D02*
D03*
Y175600D02*
D03*
X243703Y-20512D02*
D03*
Y-15012D02*
D03*
X232315Y-20512D02*
D03*
Y-15012D02*
D03*
X220926Y-20262D02*
D03*
Y-14762D02*
D03*
X214933Y-20263D02*
D03*
Y-14763D02*
D03*
X226620Y-20263D02*
D03*
Y-14763D02*
D03*
X238009Y-20513D02*
D03*
Y-15013D02*
D03*
X249397D02*
D03*
Y-20513D02*
D03*
X218942Y80488D02*
D03*
Y74988D02*
D03*
X213445Y80438D02*
D03*
Y74938D02*
D03*
X280732Y18588D02*
D03*
Y13088D02*
D03*
X249706Y78788D02*
D03*
Y73288D02*
D03*
Y89010D02*
D03*
Y83510D02*
D03*
X132492Y46265D02*
D03*
Y51765D02*
D03*
X130048Y19894D02*
D03*
Y14394D02*
D03*
Y2173D02*
D03*
Y7673D02*
D03*
X162600Y163850D02*
D03*
Y169350D02*
D03*
X204324Y218913D02*
D03*
Y224413D02*
D03*
X297118Y64333D02*
D03*
Y58833D02*
D03*
X291232Y64333D02*
D03*
Y58833D02*
D03*
X275088Y72410D02*
D03*
Y77910D02*
D03*
X279786Y72410D02*
D03*
Y77910D02*
D03*
X270390Y72410D02*
D03*
Y77910D02*
D03*
X134446Y151499D02*
D03*
Y156999D02*
D03*
D80*
X205747Y161462D02*
D03*
Y172486D02*
D03*
X204423Y234655D02*
D03*
Y245679D02*
D03*
X497862Y202761D02*
D03*
Y191738D02*
D03*
D81*
X269162Y189989D02*
D03*
X280186D02*
D03*
X289640Y234592D02*
D03*
X300664D02*
D03*
X515826Y333050D02*
D03*
X526850D02*
D03*
X300664Y209350D02*
D03*
X289640D02*
D03*
X391826Y89388D02*
D03*
X402850D02*
D03*
D82*
X278091Y182847D02*
D03*
X272185D02*
D03*
X455685Y252537D02*
D03*
X461591D02*
D03*
X455785Y258050D02*
D03*
X461691D02*
D03*
X291888Y221950D02*
D03*
X297794D02*
D03*
X369943Y182360D02*
D03*
X375849D02*
D03*
D83*
X231987Y300939D02*
D03*
X226487D02*
D03*
X226488Y307650D02*
D03*
X231988D02*
D03*
X344573Y257597D02*
D03*
X350073D02*
D03*
X337852Y257597D02*
D03*
X332352D02*
D03*
X426899Y232950D02*
D03*
X421399D02*
D03*
X426899Y222949D02*
D03*
X421399D02*
D03*
X426899Y212949D02*
D03*
X421399D02*
D03*
X426899Y202950D02*
D03*
X421399D02*
D03*
X524288Y340673D02*
D03*
X518788D02*
D03*
X529567Y110191D02*
D03*
X524067D02*
D03*
X529567Y103481D02*
D03*
X524067D02*
D03*
X503167Y120201D02*
D03*
X497668D02*
D03*
X497725Y115491D02*
D03*
X503225D02*
D03*
X503226Y110781D02*
D03*
X497725D02*
D03*
X408676Y140019D02*
D03*
X403176D02*
D03*
X408588Y145649D02*
D03*
X403088D02*
D03*
X408588Y153833D02*
D03*
X403088D02*
D03*
X394388Y96012D02*
D03*
X399888D02*
D03*
X408588Y159836D02*
D03*
X403088D02*
D03*
X408676Y134389D02*
D03*
X403176D02*
D03*
X379301Y268439D02*
D03*
X373801D02*
D03*
X412601D02*
D03*
X418101D02*
D03*
X483688Y351550D02*
D03*
X489188D02*
D03*
X296982Y52341D02*
D03*
X291482D02*
D03*
X309333D02*
D03*
X303833D02*
D03*
X241297Y89509D02*
D03*
X235797D02*
D03*
X113829Y83015D02*
D03*
X119329D02*
D03*
X114055Y-22585D02*
D03*
X119555D02*
D03*
D84*
X253754Y243100D02*
D03*
Y238100D02*
D03*
Y233100D02*
D03*
Y228100D02*
D03*
Y223100D02*
D03*
Y218100D02*
D03*
Y213100D02*
D03*
Y208100D02*
D03*
X217100D02*
D03*
Y213100D02*
D03*
Y218100D02*
D03*
Y223100D02*
D03*
Y228100D02*
D03*
Y233100D02*
D03*
Y238100D02*
D03*
Y243100D02*
D03*
D85*
X263200Y248853D02*
D03*
Y242947D02*
D03*
X263200Y232247D02*
D03*
Y238153D02*
D03*
X541445Y284402D02*
D03*
Y278497D02*
D03*
X548925Y278497D02*
D03*
Y284402D02*
D03*
X490238Y216902D02*
D03*
Y210997D02*
D03*
X305178Y100070D02*
D03*
Y105975D02*
D03*
X313458Y100070D02*
D03*
Y105975D02*
D03*
X321739Y100070D02*
D03*
Y105975D02*
D03*
D86*
X317713Y216644D02*
D03*
Y222156D02*
D03*
X338338Y244104D02*
D03*
Y238593D02*
D03*
X329493Y227306D02*
D03*
Y221794D02*
D03*
X347838Y215106D02*
D03*
Y209594D02*
D03*
X353606Y221680D02*
D03*
Y227191D02*
D03*
X370337Y196805D02*
D03*
Y191294D02*
D03*
X294638Y188494D02*
D03*
Y194005D02*
D03*
X353725Y130405D02*
D03*
Y124894D02*
D03*
X360238Y130447D02*
D03*
Y124935D02*
D03*
X335238Y209594D02*
D03*
Y215106D02*
D03*
X312200Y216644D02*
D03*
Y222156D02*
D03*
X308462Y238593D02*
D03*
Y244104D02*
D03*
D87*
X336616Y224550D02*
D03*
X346459D02*
D03*
D88*
X526801Y323613D02*
D03*
Y268495D02*
D03*
X471683D02*
D03*
Y323613D02*
D03*
D89*
X505738Y296054D02*
D03*
Y289558D02*
D03*
X499242D02*
D03*
X492746D02*
D03*
Y296054D02*
D03*
X499242Y302550D02*
D03*
X492746D02*
D03*
X499242Y296054D02*
D03*
D90*
X526801Y319479D02*
D03*
Y316132D02*
D03*
Y312786D02*
D03*
Y309439D02*
D03*
Y306093D02*
D03*
Y302746D02*
D03*
Y299400D02*
D03*
Y296054D02*
D03*
Y292707D02*
D03*
Y289361D02*
D03*
Y286014D02*
D03*
Y282668D02*
D03*
Y279321D02*
D03*
Y275975D02*
D03*
Y272628D02*
D03*
X471683D02*
D03*
Y275975D02*
D03*
Y279321D02*
D03*
Y282668D02*
D03*
Y286014D02*
D03*
Y289361D02*
D03*
Y292707D02*
D03*
Y296054D02*
D03*
Y299400D02*
D03*
Y302746D02*
D03*
Y306093D02*
D03*
Y309439D02*
D03*
Y312786D02*
D03*
Y316132D02*
D03*
Y319479D02*
D03*
D91*
X522667Y268495D02*
D03*
X519320D02*
D03*
X515974D02*
D03*
X512628D02*
D03*
X509281D02*
D03*
X505935D02*
D03*
X502588D02*
D03*
X499242D02*
D03*
X495895D02*
D03*
X492549D02*
D03*
X489202D02*
D03*
X485856D02*
D03*
X482510D02*
D03*
X479163D02*
D03*
X475817D02*
D03*
Y323613D02*
D03*
X479163D02*
D03*
X482510D02*
D03*
X485856D02*
D03*
X489202D02*
D03*
X492549D02*
D03*
X495895D02*
D03*
X499242D02*
D03*
X502588D02*
D03*
X505935D02*
D03*
X509281D02*
D03*
X512628D02*
D03*
X515974D02*
D03*
X519320D02*
D03*
X522667D02*
D03*
D92*
X548925Y272098D02*
D03*
X541445D02*
D03*
X545185Y264224D02*
D03*
X541445Y291201D02*
D03*
X548925D02*
D03*
X545185Y299075D02*
D03*
X511417Y111555D02*
D03*
X518897D02*
D03*
X515157Y119429D02*
D03*
X226128Y75483D02*
D03*
X233608D02*
D03*
X229868Y83357D02*
D03*
X256892Y75283D02*
D03*
X264373D02*
D03*
X260632Y83157D02*
D03*
D93*
X305178Y120346D02*
D03*
Y112866D02*
D03*
X313458Y120346D02*
D03*
Y112866D02*
D03*
X321739Y120346D02*
D03*
Y112866D02*
D03*
X242432Y74938D02*
D03*
Y82418D02*
D03*
D94*
X297794Y216437D02*
D03*
X292282D02*
D03*
X297694Y227463D02*
D03*
X292182D02*
D03*
X295335Y145240D02*
D03*
X289824D02*
D03*
X295295Y139727D02*
D03*
X289783D02*
D03*
D95*
X331470Y241362D02*
D03*
X315329D02*
D03*
D96*
X356360Y198074D02*
D03*
X354391D02*
D03*
X352423D02*
D03*
X350454D02*
D03*
X348486D02*
D03*
X346517D02*
D03*
X344549D02*
D03*
X342580D02*
D03*
X340612D02*
D03*
X338643D02*
D03*
X336675D02*
D03*
X334706D02*
D03*
X332738D02*
D03*
X330769D02*
D03*
X328801D02*
D03*
X326832D02*
D03*
X324864D02*
D03*
X322895D02*
D03*
X320927D02*
D03*
X318958D02*
D03*
X316990D02*
D03*
X315021D02*
D03*
X313053D02*
D03*
X311084D02*
D03*
X309116D02*
D03*
Y138625D02*
D03*
X311084D02*
D03*
X313053D02*
D03*
X315021D02*
D03*
X316990D02*
D03*
X318958D02*
D03*
X320927D02*
D03*
X322895D02*
D03*
X324864D02*
D03*
X326832D02*
D03*
X328801D02*
D03*
X330769D02*
D03*
X332738D02*
D03*
X334706D02*
D03*
X336675D02*
D03*
X338643D02*
D03*
X340612D02*
D03*
X342580D02*
D03*
X344549D02*
D03*
X346517D02*
D03*
X348486D02*
D03*
X350454D02*
D03*
X352423D02*
D03*
X354391D02*
D03*
X356360D02*
D03*
D97*
X303013Y191972D02*
D03*
Y190003D02*
D03*
Y188034D02*
D03*
Y186066D02*
D03*
Y184098D02*
D03*
Y182129D02*
D03*
Y180160D02*
D03*
Y178192D02*
D03*
Y176224D02*
D03*
Y174255D02*
D03*
Y172286D02*
D03*
Y170318D02*
D03*
Y168350D02*
D03*
Y166381D02*
D03*
Y164412D02*
D03*
Y162444D02*
D03*
Y160476D02*
D03*
Y158507D02*
D03*
Y156538D02*
D03*
Y154570D02*
D03*
Y152602D02*
D03*
Y150633D02*
D03*
Y148664D02*
D03*
Y146696D02*
D03*
Y144728D02*
D03*
X362462D02*
D03*
Y146696D02*
D03*
Y148664D02*
D03*
Y150633D02*
D03*
Y152602D02*
D03*
Y154570D02*
D03*
Y156538D02*
D03*
Y158507D02*
D03*
Y160476D02*
D03*
Y162444D02*
D03*
Y164412D02*
D03*
Y166381D02*
D03*
Y168350D02*
D03*
Y170318D02*
D03*
Y172286D02*
D03*
Y174255D02*
D03*
Y176224D02*
D03*
Y178192D02*
D03*
Y180160D02*
D03*
Y182129D02*
D03*
Y184098D02*
D03*
Y186066D02*
D03*
Y188034D02*
D03*
Y190003D02*
D03*
Y191972D02*
D03*
D98*
X462888Y132739D02*
D03*
Y137070D02*
D03*
X463676Y141401D02*
D03*
X462888Y145731D02*
D03*
X463676Y150062D02*
D03*
X462888Y154393D02*
D03*
X461314Y158723D02*
D03*
X462888Y163054D02*
D03*
D99*
X474109Y129629D02*
D03*
Y180416D02*
D03*
D100*
X419975Y141243D02*
D03*
Y177463D02*
D03*
D101*
Y158566D02*
D03*
X561238Y311950D02*
D03*
D102*
X419975Y148330D02*
D03*
D103*
X326009Y309838D02*
D03*
Y291806D02*
D03*
D104*
X350025Y300822D02*
D03*
D105*
X331656Y322650D02*
D03*
X347404D02*
D03*
X371666D02*
D03*
X387414D02*
D03*
X411676D02*
D03*
X427424D02*
D03*
X211651D02*
D03*
X227399D02*
D03*
D106*
X393801Y311511D02*
D03*
X383801D02*
D03*
X373801D02*
D03*
X393801Y276275D02*
D03*
X383801D02*
D03*
X373801D02*
D03*
X432601Y311511D02*
D03*
X422601D02*
D03*
X412601D02*
D03*
X432601Y276275D02*
D03*
X422601D02*
D03*
X412601D02*
D03*
D107*
X287256Y71048D02*
D03*
Y79828D02*
D03*
D108*
X264573Y-12722D02*
D03*
Y-20202D02*
D03*
X267132D02*
D03*
X269691D02*
D03*
Y-12722D02*
D03*
X267132D02*
D03*
D109*
X79539Y4150D02*
D03*
X79245Y109749D02*
D03*
D110*
X117138Y17535D02*
D03*
Y10842D02*
D03*
Y4150D02*
D03*
Y-2543D02*
D03*
Y-9236D02*
D03*
X116843Y123135D02*
D03*
Y116442D02*
D03*
Y109749D02*
D03*
Y103056D02*
D03*
Y96363D02*
D03*
D111*
X132161Y-23229D02*
D03*
Y-7481D02*
D03*
X132100Y82375D02*
D03*
Y98123D02*
D03*
D112*
X167138Y134339D02*
D03*
Y96150D02*
D03*
X164954Y30239D02*
D03*
Y-7950D02*
D03*
X-22701Y148979D02*
D03*
Y110790D02*
D03*
D113*
X-31362Y170650D02*
D03*
X-21520D02*
D03*
D114*
X-8704Y170338D02*
D03*
X2021D02*
D03*
X-16500Y96322D02*
D03*
X-27224D02*
D03*
D115*
X-33354Y47650D02*
D03*
X-7370D02*
D03*
D116*
X211898Y312397D02*
D03*
X219378D02*
D03*
Y302554D02*
D03*
X215638D02*
D03*
X211898D02*
D03*
X215638Y312397D02*
D03*
D117*
X120189Y48655D02*
D03*
X88693D02*
D03*
X122272Y154254D02*
D03*
X90776D02*
D03*
D118*
X255438Y146298D02*
D03*
Y114802D02*
D03*
D119*
X212796Y260936D02*
D03*
Y279834D02*
D03*
D120*
X451163Y-19464D02*
D03*
X442895D02*
D03*
X434627D02*
D03*
X426359D02*
D03*
X418092D02*
D03*
X409824D02*
D03*
X401556D02*
D03*
X393289D02*
D03*
Y78961D02*
D03*
X401556D02*
D03*
X409824D02*
D03*
X418092D02*
D03*
X426359D02*
D03*
X434627D02*
D03*
X442895D02*
D03*
X451163D02*
D03*
D121*
X240232Y-4554D02*
D03*
X235902D02*
D03*
X231571D02*
D03*
X227240D02*
D03*
X222910D02*
D03*
X257555D02*
D03*
X253224D02*
D03*
X248894D02*
D03*
X244563D02*
D03*
X240232Y64738D02*
D03*
X235902D02*
D03*
X231571D02*
D03*
X227240D02*
D03*
X222910D02*
D03*
X257555D02*
D03*
X253224D02*
D03*
X248894D02*
D03*
X244563D02*
D03*
D122*
X209327Y32257D02*
D03*
Y27927D02*
D03*
Y36588D02*
D03*
Y40919D02*
D03*
Y45250D02*
D03*
Y49580D02*
D03*
Y53911D02*
D03*
Y6273D02*
D03*
Y10604D02*
D03*
Y14935D02*
D03*
Y19265D02*
D03*
Y23596D02*
D03*
X271138Y32257D02*
D03*
Y27927D02*
D03*
Y36588D02*
D03*
Y40919D02*
D03*
Y45250D02*
D03*
Y49580D02*
D03*
Y6273D02*
D03*
Y10604D02*
D03*
Y14935D02*
D03*
Y19265D02*
D03*
Y23596D02*
D03*
Y53911D02*
D03*
D123*
X543401Y111927D02*
D03*
X547338Y109368D02*
D03*
X543401Y106809D02*
D03*
X547338Y104250D02*
D03*
X543401Y101690D02*
D03*
D124*
X542968Y120883D02*
D03*
Y92734D02*
D03*
D125*
X561238Y261950D02*
D03*
Y271950D02*
D03*
Y281950D02*
D03*
Y291950D02*
D03*
Y301950D02*
D03*
X410438Y116850D02*
D03*
X400438D02*
D03*
X390438D02*
D03*
X380438D02*
D03*
X370438D02*
D03*
D126*
X436138Y222950D02*
D03*
X446138D02*
D03*
Y202950D02*
D03*
Y212949D02*
D03*
Y232949D02*
D03*
X436138Y212949D02*
D03*
Y202950D02*
D03*
X289525Y350718D02*
D03*
X309525D02*
D03*
X389540D02*
D03*
X369540D02*
D03*
X429550D02*
D03*
X409550D02*
D03*
X349530D02*
D03*
X329530D02*
D03*
X229525Y350719D02*
D03*
X209525D02*
D03*
X249525Y350718D02*
D03*
X269525D02*
D03*
X-2362Y267421D02*
D03*
X-22362D02*
D03*
X-43307Y253425D02*
D03*
Y267224D02*
D03*
X19095Y253425D02*
D03*
Y267224D02*
D03*
D127*
X436138Y232949D02*
D03*
D128*
X478838Y366983D02*
D03*
X483838D02*
D03*
X488838D02*
D03*
D129*
X29119Y-10472D02*
D03*
Y22047D02*
D03*
X225182Y140945D02*
D03*
Y117638D02*
D03*
Y94331D02*
D03*
X328319Y52342D02*
D03*
D130*
X318319Y42342D02*
D03*
X338319D02*
D03*
X318319Y62342D02*
D03*
X338319D02*
D03*
D131*
X-45082Y218799D02*
D03*
D132*
X4528D02*
D03*
D133*
X-34890Y79736D02*
D03*
X-5362Y72650D02*
D03*
D134*
X519685Y0D02*
D03*
X0D02*
D03*
Y358268D02*
D03*
X519685D02*
D03*
D135*
X144193Y383366D02*
D03*
Y225886D02*
D03*
X85138Y383366D02*
D03*
Y225886D02*
D03*
D136*
X420438Y116850D02*
D03*
M02*
