M48
;Layer_Color=9474304
;FILE_FORMAT=2:5
INCH,LZ
;TYPE=PLATED
T1F00S00C0.01181
T2F00S00C0.01968
T4F00S00C0.03150
T5F00S00C0.03300
T6F00S00C0.03543
T7F00S00C0.03937
T8F00S00C0.04331
T9F00S00C0.04500
T10F00S00C0.04724
T11F00S00C0.05118
T12F00S00C0.05906
T13F00S00C0.06693
T14F00S00C0.12598
%
T01
X0064195Y-0014099
Y-0010763
Y-0007427
Y-000409
Y-0000754
Y0002582
Y0005919
Y0009255
Y0012592
Y0015928
Y0019264
Y0022601
X0085532Y0030906
X008683Y00411
X0083104
X0090556
X0094282
Y0056209
X0090556
X008683
X0083104
X0113091Y0058465
X01146Y00523
X01177
X01208
X01239
Y00411
X01208
X01177
X01146
X0106319Y0014122
Y0010785
Y0007449
X0111177Y-0022607
X0119466Y-0024439
X0119527Y-00281
X0126891Y-0024855
Y-0021611
X0085532Y-0024213
X0137391Y-0024855
Y-0021611
X014065Y-0024213
X0168209
X0195768
X0220889Y-0023712
X0232277Y-0023962
X0243666Y-0023362
X0267095Y-0023652
X0271732Y-0019662
X0272132Y-0012662
X0275828Y-0024158
X0278683Y-0026299
X0283616Y-0016817
Y-0006817
X0280738Y002165
X0278445Y0030906
X0266616Y0027943
Y0040935
Y0045266
Y0053927
X0277Y00536
X02811
X02845Y00558
X0278445Y0058465
X02768Y00454
X02806
X02841
X02875Y00475
X0250886Y0030906
Y0003347
X024891Y-0000032
X0257571
X0222926
X0223327Y0003347
Y0030906
X0204805Y0023612
X0195768Y0030906
Y0058465
X0168209
X014065
X0132469Y0054643
X0132926Y0002196
X014065Y0003347
X0168209
X0195768
X0306004
X0333563
X0332216Y0023409
X0306004Y0030906
X03004Y00478
X0301758Y0057516
X0314Y00562
X03137Y00484
X03224
X03222Y00562
X0388681Y0058465
X041624
X0443799
Y0030906
Y0003347
X041624
Y0030906
X0388681
Y0003347
X0361122Y-0024213
X0332249Y-0024241
X0306004Y-0024213
X0471358
X0498918
X0526477
Y0030906
Y0058465
X0554036
X0498918
Y0030906
Y0003347
X0471358
Y0030906
Y0058465
Y0086024
X0451163Y0085341
X0498918Y0086024
X0526477
Y0141142
Y0168701
X0498918
X0497838Y018635
X0490238Y019195
X0490238Y0205849
X051317Y0202418
X05353Y0196098
X0471358Y019626
X0474093Y0175895
X0471358Y0141142
X0468197Y0141384
X0459154Y0141417
X0474125Y0134151
X0471358Y0113583
X0494638Y011075
X049458Y0120169
X0498918Y0141142
X0443799
X0424338Y0141327
Y0148413
Y015865
Y0177547
X0411738Y0178749
X04086Y01673
X0400026Y0159737
Y0153734
X039619
Y014555
X0400238
X0400026Y013992
Y013429
X0412938Y013435
X0412668Y0140019
X0402738Y009605
X03916Y0096
X0408338Y008945
X04263Y00854
X0434627Y0085341
X0442895
X0443799Y0113583
Y019626
X041624
X0388681
X0373438Y019685
Y019135
X03784Y01824
X0370884Y017702
X03682Y0174452
X0361122Y019626
X0350954Y021025
X0332038Y021095
X0324143Y0206936
X03123Y0213687
X0309941Y0180512
X0321752
X0333563
Y0168701
Y015689
Y0145079
X0321752
Y015689
Y0168701
X0309941
Y015689
Y0145079
X0295338Y013665
X0289838
X0291538Y018855
Y019395
X03051Y00973
X0313458Y0097378
X0321739
X0333563Y0086024
X0306004
X0309333Y0065519
X0297118Y0067238
X0291232
X0337653Y011835
X0335784Y0121989
X0357038Y012495
X03633Y01304
X0286838Y014515
X0278445Y0141142
Y0168701
X02696Y01828
X02691Y01936
X0278445Y019626
X0287Y01901
X0250886Y019626
Y0168701
X0223327
X0215055Y0169511
Y0173237
Y0176963
Y0180689
X0210945
Y0176963
Y0173237
Y0169511
X02094Y01617
X02021
X0195768Y0141142
Y0113583
Y0086024
X0223327
X0233655Y0079245
X0237832Y0074938
X0252732Y0073438
X0248878Y0060216
X0244547
X02402Y00602
X02707Y00637
Y00666
X02738
X02769
Y00637
X028
Y00666
X0279741Y0080655
X0275043
X02703Y00807
X0264355Y0079145
X0278445Y0086024
X0287211Y0082573
X0278445Y0113583
X0262992Y0112939
Y0116665
Y0120391
Y0109213
X0247883
Y0112939
Y0116665
Y0120391
X021349Y0072193
X0168209Y0086024
Y0113583
X014065
Y0086024
X0137329Y0083993
Y008075
X01344Y01599
X014065Y0168701
X01626Y017263
X01722Y017864
Y01852
X02057Y01888
X0223327Y019626
X0125983Y0157899
X0122883
X0119783
X0116683
Y0146699
X0119783
X0122883
X0125983
X0096365
X0092639
X0088913
X0085187
X0085532Y0141142
X00639Y01282
Y0124864
Y0121527
Y0118191
Y0114855
Y0111518
Y0108182
Y0104845
Y0101509
Y0098173
Y0094836
Y00915
X0085532Y0086024
X0110951Y0082992
X011924Y008116
X01193Y00775
X0126829Y008075
Y0083993
X0106024Y0113048
Y0116385
Y0119721
X0113091Y0168701
X0008138Y017065
X0005638
X-0031862Y018165
Y018415
X02044Y0216
X02043Y02283
Y02509
X0223327Y0251378
X0250886
X0267Y0248905
Y02431
Y02383
Y02323
X02484Y0228
X0278445Y0251378
Y0278937
Y0306496
Y0334055
Y0361614
X0250886
X0223327
Y0334055
X0235536Y0321309
X0238797
X02416Y03237
X0244161Y0326673
X02473Y03297
X0250886Y0306496
X02321Y03049
X0215281Y0307317
X02127Y03073
X02205Y02799
X0223327Y0278937
X0250886
X0306004
X0322168Y0282924
X0321531Y0288219
X0326031
X0330531
Y0295386
X0326031
X0321531
X0322135Y0273881
X0333563Y0278937
X035353Y0278418
X0362573Y0278386
X0380531Y0277893
Y0274649
X0387031
Y0277893
Y0309886
Y0313129
X0380531
Y0309886
X0419331
Y0313129
X0425831
Y0309886
X0443799Y0306496
Y0334055
Y0361614
X041624
X0361122Y0334055
X0306004
Y0361614
Y0306496
X0308367Y0235528
X0306004Y0223819
X03089Y02214
X02891Y02219
X02893Y02165
X0289231Y0227494
X0328343Y023145
X0341493
X0338243Y0235528
X0354643Y023145
X035365Y0218336
X0329538Y0218449
X0355721Y024685
Y02511
Y025525
X0367589Y0255444
Y02511
Y024685
X0388681Y0223819
X0419331Y0274649
Y0277893
X0425831
Y0274649
X0443799Y0278937
X04719Y02635
X0480563
X0489227
X049789Y026445
X0502038
X0508894
X0513247
X05268Y02648
X05312Y02686
X0554036Y0251378
X0561306Y0237913
X0554036Y0223819
X0526477
X051317Y0237851
Y0241788
X0498918Y0251378
Y0278937
X0499226Y0285036
X0505722
X0510259Y0289541
Y0296037
Y0302533
X0505754Y0307071
X0499258
X0492762
X0488224Y0302566
Y029607
Y0289574
X049273Y0285036
X0498918Y0334055
X0515826Y0337712
X0527138Y034075
X0532038Y033305
X0554036Y0306496
X04754Y0328
X0471358Y0334055
Y0361614
X0498918
X0492Y03516
X0498918Y0223819
X0497638Y021985
X0471358Y0223819
T02
X0543401Y010169
Y0106809
Y0111927
X0547338Y0109368
Y010425
T04
X0478838Y0366983
X0483838
X0488838
T05
X-0005362Y007265
X-003489Y0079736
T06
X0370438Y011685
X0380438
X0390438
X0400438
X0410438
X0420438
X0561238Y026195
Y027195
Y028195
Y029195
Y030195
Y031195
T07
X-0043307Y0253425
Y0267224
X0019095
Y0253425
T08
X0446138Y020295
Y0212949
X0436138
Y020295
Y022295
Y0232949
X0446138
Y022295
T09
X-0045082Y0218799
X0004528
T10
X0029119Y-0010472
Y0022047
X0225182Y0094331
Y0117638
Y0140945
T11
X-0022362Y0267421
X-0002362
X0209525Y0350719
X0229525
X0249525Y0350718
X0269525
X0289525
X0309525
X032953
X034953
X036954
X038954
X040955
X042955
T12
X0328319Y0052342
X0085138Y0225886
X0144193
Y0383366
X0085138
T13
X0318319Y0042342
X0338319
Y0062342
X0318319
T14
X0Y0
X0519685
X0Y0358268
X0519685
M30
