G04*
G04 #@! TF.GenerationSoftware,Altium Limited,Altium Designer,21.8.1 (53)*
G04*
G04 Layer_Physical_Order=4*
G04 Layer_Color=16711680*
%FSLAX25Y25*%
%MOIN*%
G70*
G04*
G04 #@! TF.SameCoordinates,C8D47062-8F1F-4A6C-B0F1-C45CC90B983E*
G04*
G04*
G04 #@! TF.FilePolarity,Positive*
G04*
G01*
G75*
%ADD18C,0.01181*%
%ADD49R,0.05906X0.05906*%
%ADD131R,0.06500X0.06500*%
%ADD132C,0.06500*%
%ADD133C,0.05300*%
%ADD138C,0.03937*%
%ADD146C,0.05906*%
%ADD147C,0.07874*%
%ADD148R,0.07874X0.07874*%
%ADD149C,0.03150*%
%ADD150O,0.06693X0.03543*%
%ADD151O,0.03937X0.07874*%
%ADD152C,0.08661*%
%ADD153C,0.09449*%
%ADD154C,0.20472*%
%ADD155C,0.10630*%
%ADD156R,0.05906X0.05906*%
%ADD157C,0.02362*%
G36*
X147581Y379218D02*
X147283Y378848D01*
X147020Y378460D01*
X146792Y378053D01*
X146599Y377629D01*
X146442Y377187D01*
X146319Y376727D01*
X146232Y376250D01*
X146179Y375754D01*
X146161Y375240D01*
X142225D01*
X142207Y375754D01*
X142154Y376250D01*
X142067Y376727D01*
X141944Y377187D01*
X141787Y377629D01*
X141594Y378053D01*
X141366Y378460D01*
X141103Y378848D01*
X140805Y379218D01*
X140472Y379571D01*
X147914D01*
X147581Y379218D01*
D02*
G37*
G36*
X88525D02*
X88228Y378848D01*
X87965Y378460D01*
X87737Y378053D01*
X87544Y377629D01*
X87387Y377187D01*
X87264Y376727D01*
X87176Y376250D01*
X87124Y375754D01*
X87106Y375240D01*
X83169D01*
X83152Y375754D01*
X83099Y376250D01*
X83012Y376727D01*
X82889Y377187D01*
X82731Y377629D01*
X82539Y378053D01*
X82311Y378460D01*
X82048Y378848D01*
X81750Y379218D01*
X81417Y379571D01*
X88858D01*
X88525Y379218D01*
D02*
G37*
G36*
X-39061Y222037D02*
X-39841Y221229D01*
X-41069Y219780D01*
X-41515Y219139D01*
X-41850Y218554D01*
X-42074Y218025D01*
X-42187Y217553D01*
X-42188Y217136D01*
X-42078Y216775D01*
X-41856Y216469D01*
X-47412Y222025D01*
X-47107Y221804D01*
X-46746Y221693D01*
X-46329Y221695D01*
X-45856Y221807D01*
X-45327Y222031D01*
X-44743Y222366D01*
X-44102Y222813D01*
X-43405Y223371D01*
X-41844Y224821D01*
X-39061Y222037D01*
D02*
G37*
G36*
X144140Y220571D02*
X143655Y220557D01*
X143183Y220506D01*
X142722Y220417D01*
X142274Y220291D01*
X141838Y220128D01*
X141414Y219927D01*
X141002Y219688D01*
X140602Y219412D01*
X140215Y219099D01*
X139839Y218748D01*
X137055Y221532D01*
X137406Y221907D01*
X137719Y222295D01*
X137995Y222695D01*
X138234Y223107D01*
X138435Y223531D01*
X138598Y223967D01*
X138725Y224415D01*
X138813Y224876D01*
X138865Y225348D01*
X138878Y225833D01*
X144140Y220571D01*
D02*
G37*
G36*
X85085D02*
X84600Y220557D01*
X84128Y220506D01*
X83667Y220417D01*
X83219Y220291D01*
X82783Y220128D01*
X82359Y219927D01*
X81947Y219688D01*
X81547Y219412D01*
X81159Y219099D01*
X80784Y218748D01*
X78000Y221532D01*
X78351Y221907D01*
X78664Y222295D01*
X78940Y222695D01*
X79179Y223107D01*
X79380Y223531D01*
X79543Y223967D01*
X79669Y224415D01*
X79758Y224876D01*
X79809Y225348D01*
X79823Y225833D01*
X85085Y220571D01*
D02*
G37*
G36*
X6925Y221016D02*
X7033Y220964D01*
X7174Y220918D01*
X7347Y220878D01*
X7553Y220844D01*
X8060Y220795D01*
X8697Y220771D01*
X9064Y220768D01*
Y216831D01*
X8697Y216828D01*
X7553Y216754D01*
X7347Y216720D01*
X7174Y216681D01*
X7033Y216634D01*
X6925Y216582D01*
X6849Y216524D01*
Y221074D01*
X6925Y221016D01*
D02*
G37*
G36*
X535577Y394331D02*
X535714Y394283D01*
X535836Y394206D01*
X535938Y394104D01*
X536015Y393981D01*
X536063Y393844D01*
X536092Y393588D01*
Y358268D01*
X536103Y358212D01*
X536095Y358155D01*
X536313Y354266D01*
X536342Y354156D01*
X536339Y354042D01*
X536991Y350202D01*
X537032Y350096D01*
X537041Y349983D01*
X538120Y346240D01*
X538172Y346139D01*
X538194Y346027D01*
X539684Y342428D01*
X539748Y342334D01*
X539782Y342226D01*
X541666Y338816D01*
X541740Y338729D01*
X541786Y338626D01*
X544040Y335449D01*
X544123Y335371D01*
X544180Y335273D01*
X546776Y332368D01*
X546867Y332300D01*
X546935Y332209D01*
X549840Y329614D01*
X549938Y329556D01*
X550016Y329473D01*
X553193Y327219D01*
X553297Y327173D01*
X553383Y327099D01*
X556792Y325215D01*
X556901Y325181D01*
X556995Y325117D01*
X560594Y323627D01*
X560706Y323604D01*
X560807Y323552D01*
X564550Y322474D01*
X564663Y322465D01*
X564769Y322424D01*
X568609Y321772D01*
X568723Y321775D01*
X568833Y321746D01*
X572666Y321531D01*
X572978Y321496D01*
X573115Y321448D01*
X573238Y321371D01*
X573340Y321269D01*
X573417Y321146D01*
X573464Y321010D01*
X573493Y320753D01*
Y37514D01*
X573464Y37258D01*
X573417Y37121D01*
X573340Y36999D01*
X573238Y36896D01*
X573115Y36819D01*
X572978Y36772D01*
X572666Y36737D01*
X568833Y36521D01*
X568723Y36493D01*
X568609Y36496D01*
X564769Y35844D01*
X564663Y35803D01*
X564549Y35793D01*
X560807Y34715D01*
X560706Y34663D01*
X560594Y34641D01*
X556995Y33150D01*
X556901Y33087D01*
X556792Y33052D01*
X553383Y31168D01*
X553297Y31095D01*
X553193Y31049D01*
X550016Y28794D01*
X549938Y28712D01*
X549840Y28654D01*
X546935Y26058D01*
X546867Y25968D01*
X546776Y25899D01*
X544180Y22995D01*
X544123Y22897D01*
X544040Y22819D01*
X541786Y19642D01*
X541740Y19538D01*
X541666Y19451D01*
X539782Y16042D01*
X539748Y15934D01*
X539684Y15839D01*
X538194Y12240D01*
X538172Y12129D01*
X538120Y12028D01*
X537041Y8285D01*
X537032Y8172D01*
X536991Y8066D01*
X536339Y4225D01*
X536342Y4112D01*
X536313Y4002D01*
X536095Y112D01*
X536103Y56D01*
X536092Y0D01*
Y-35321D01*
X536063Y-35577D01*
X536015Y-35713D01*
X535938Y-35836D01*
X535836Y-35939D01*
X535714Y-36015D01*
X535577Y-36063D01*
X535320Y-36092D01*
X61238D01*
Y148668D01*
X114079D01*
X114349Y148168D01*
X114115Y147763D01*
X113927Y147062D01*
Y146337D01*
X114115Y145636D01*
X114478Y145007D01*
X114991Y144494D01*
X115620Y144131D01*
X116320Y143944D01*
X117046D01*
X117747Y144131D01*
X118233Y144412D01*
X118719Y144131D01*
X119420Y143944D01*
X120146D01*
X120847Y144131D01*
X121333Y144412D01*
X121819Y144131D01*
X122520Y143944D01*
X123246D01*
X123947Y144131D01*
X124433Y144412D01*
X124919Y144131D01*
X125620Y143944D01*
X126346D01*
X127047Y144131D01*
X127675Y144494D01*
X128189Y145007D01*
X128551Y145636D01*
X128739Y146337D01*
Y147062D01*
X128551Y147763D01*
X128318Y148168D01*
X128587Y148668D01*
X200338D01*
Y394359D01*
X535320Y394359D01*
X535577Y394331D01*
D02*
G37*
%LPC*%
G36*
X483838Y372525D02*
X482913Y372403D01*
X482051Y372046D01*
X481338Y371499D01*
X480625Y372046D01*
X479763Y372403D01*
X478838Y372525D01*
X477913Y372403D01*
X477051Y372046D01*
X476311Y371478D01*
X475743Y370738D01*
X475386Y369876D01*
X475264Y368951D01*
Y365014D01*
X475386Y364089D01*
X475743Y363227D01*
X476311Y362487D01*
X477051Y361919D01*
X477913Y361562D01*
X478838Y361440D01*
X479763Y361562D01*
X480625Y361919D01*
X481338Y362466D01*
X482051Y361919D01*
X482913Y361562D01*
X483838Y361440D01*
X484763Y361562D01*
X485625Y361919D01*
X486365Y362487D01*
X486399Y362531D01*
X487091Y362613D01*
X487341Y362421D01*
X488063Y362122D01*
X488338Y362086D01*
Y366983D01*
Y371880D01*
X488063Y371843D01*
X487341Y371544D01*
X487091Y371353D01*
X486399Y371434D01*
X486365Y371478D01*
X485625Y372046D01*
X484763Y372403D01*
X483838Y372525D01*
D02*
G37*
G36*
X489338Y371880D02*
Y367483D01*
X491832D01*
Y368951D01*
X491730Y369726D01*
X491431Y370448D01*
X490955Y371068D01*
X490335Y371544D01*
X489613Y371843D01*
X489338Y371880D01*
D02*
G37*
G36*
X491832Y366483D02*
X489338D01*
Y362086D01*
X489613Y362122D01*
X490335Y362421D01*
X490955Y362897D01*
X491431Y363517D01*
X491730Y364239D01*
X491832Y365014D01*
Y366483D01*
D02*
G37*
G36*
X230175Y355656D02*
X230025D01*
Y351219D01*
X234462D01*
Y351369D01*
X234125Y352625D01*
X233475Y353751D01*
X232556Y354670D01*
X231430Y355320D01*
X230175Y355656D01*
D02*
G37*
G36*
X229025D02*
X228875D01*
X227619Y355320D01*
X226493Y354670D01*
X225574Y353751D01*
X224924Y352625D01*
X224588Y351369D01*
Y351219D01*
X229025D01*
Y355656D01*
D02*
G37*
G36*
X270175Y355655D02*
X270025D01*
Y351218D01*
X274462D01*
Y351368D01*
X274125Y352623D01*
X273475Y353749D01*
X272556Y354668D01*
X271430Y355318D01*
X270175Y355655D01*
D02*
G37*
G36*
X269025D02*
X268875D01*
X267619Y355318D01*
X266493Y354668D01*
X265574Y353749D01*
X264924Y352623D01*
X264588Y351368D01*
Y351218D01*
X269025D01*
Y355655D01*
D02*
G37*
G36*
X492363Y354356D02*
X491637D01*
X490936Y354168D01*
X490308Y353805D01*
X489795Y353292D01*
X489432Y352664D01*
X489244Y351963D01*
Y351237D01*
X489432Y350536D01*
X489795Y349908D01*
X490308Y349395D01*
X490936Y349032D01*
X491637Y348844D01*
X492363D01*
X493064Y349032D01*
X493692Y349395D01*
X494205Y349908D01*
X494568Y350536D01*
X494756Y351237D01*
Y351963D01*
X494568Y352664D01*
X494205Y353292D01*
X493692Y353805D01*
X493064Y354168D01*
X492363Y354356D01*
D02*
G37*
G36*
X520614Y370079D02*
X518755D01*
X516919Y369788D01*
X515151Y369213D01*
X513495Y368369D01*
X511991Y367277D01*
X510676Y365962D01*
X509583Y364458D01*
X508739Y362802D01*
X508165Y361033D01*
X507874Y359197D01*
Y357338D01*
X508165Y355502D01*
X508739Y353734D01*
X509583Y352077D01*
X510676Y350573D01*
X511991Y349259D01*
X513495Y348166D01*
X515151Y347322D01*
X516919Y346747D01*
X518755Y346457D01*
X520614D01*
X522451Y346747D01*
X524219Y347322D01*
X525875Y348166D01*
X527379Y349259D01*
X528694Y350573D01*
X529787Y352077D01*
X530631Y353734D01*
X531205Y355502D01*
X531496Y357338D01*
Y359197D01*
X531205Y361033D01*
X530631Y362802D01*
X529787Y364458D01*
X528694Y365962D01*
X527379Y367277D01*
X525875Y368369D01*
X524219Y369213D01*
X522451Y369788D01*
X520614Y370079D01*
D02*
G37*
G36*
X234462Y350219D02*
X230025D01*
Y345782D01*
X230175D01*
X231430Y346119D01*
X232556Y346769D01*
X233475Y347688D01*
X234125Y348814D01*
X234462Y350069D01*
Y350219D01*
D02*
G37*
G36*
X229025D02*
X224588D01*
Y350069D01*
X224924Y348814D01*
X225574Y347688D01*
X226493Y346769D01*
X227619Y346119D01*
X228875Y345782D01*
X229025D01*
Y350219D01*
D02*
G37*
G36*
X274462Y350218D02*
X270025D01*
Y345781D01*
X270175D01*
X271430Y346117D01*
X272556Y346767D01*
X273475Y347686D01*
X274125Y348812D01*
X274462Y350068D01*
Y350218D01*
D02*
G37*
G36*
X269025D02*
X264588D01*
Y350068D01*
X264924Y348812D01*
X265574Y347686D01*
X266493Y346767D01*
X267619Y346117D01*
X268875Y345781D01*
X269025D01*
Y350218D01*
D02*
G37*
G36*
X210250Y356231D02*
X208799D01*
X207397Y355856D01*
X206140Y355130D01*
X205114Y354104D01*
X204389Y352847D01*
X204013Y351445D01*
Y349994D01*
X204389Y348592D01*
X205114Y347335D01*
X206140Y346309D01*
X207397Y345583D01*
X208799Y345208D01*
X210250D01*
X211652Y345583D01*
X212909Y346309D01*
X213935Y347335D01*
X214661Y348592D01*
X215037Y349994D01*
Y351445D01*
X214661Y352847D01*
X213935Y354104D01*
X212909Y355130D01*
X211652Y355856D01*
X210250Y356231D01*
D02*
G37*
G36*
X430276Y356229D02*
X428824D01*
X427423Y355854D01*
X426166Y355128D01*
X425140Y354102D01*
X424414Y352845D01*
X424038Y351443D01*
Y349992D01*
X424414Y348590D01*
X425140Y347333D01*
X426166Y346307D01*
X427423Y345581D01*
X428824Y345206D01*
X430276D01*
X431677Y345581D01*
X432934Y346307D01*
X433960Y347333D01*
X434686Y348590D01*
X435062Y349992D01*
Y351443D01*
X434686Y352845D01*
X433960Y354102D01*
X432934Y355128D01*
X431677Y355854D01*
X430276Y356229D01*
D02*
G37*
G36*
X410276D02*
X408824D01*
X407422Y355854D01*
X406166Y355128D01*
X405139Y354102D01*
X404414Y352845D01*
X404038Y351443D01*
Y349992D01*
X404414Y348590D01*
X405139Y347333D01*
X406166Y346307D01*
X407422Y345581D01*
X408824Y345206D01*
X410276D01*
X411678Y345581D01*
X412934Y346307D01*
X413961Y347333D01*
X414686Y348590D01*
X415062Y349992D01*
Y351443D01*
X414686Y352845D01*
X413961Y354102D01*
X412934Y355128D01*
X411678Y355854D01*
X410276Y356229D01*
D02*
G37*
G36*
X390266D02*
X388815D01*
X387413Y355854D01*
X386156Y355128D01*
X385130Y354102D01*
X384404Y352845D01*
X384028Y351443D01*
Y349992D01*
X384404Y348590D01*
X385130Y347333D01*
X386156Y346307D01*
X387413Y345581D01*
X388815Y345206D01*
X390266D01*
X391668Y345581D01*
X392924Y346307D01*
X393951Y347333D01*
X394676Y348590D01*
X395052Y349992D01*
Y351443D01*
X394676Y352845D01*
X393951Y354102D01*
X392924Y355128D01*
X391668Y355854D01*
X390266Y356229D01*
D02*
G37*
G36*
X370266D02*
X368815D01*
X367413Y355854D01*
X366156Y355128D01*
X365130Y354102D01*
X364404Y352845D01*
X364028Y351443D01*
Y349992D01*
X364404Y348590D01*
X365130Y347333D01*
X366156Y346307D01*
X367413Y345581D01*
X368815Y345206D01*
X370266D01*
X371668Y345581D01*
X372924Y346307D01*
X373951Y347333D01*
X374676Y348590D01*
X375052Y349992D01*
Y351443D01*
X374676Y352845D01*
X373951Y354102D01*
X372924Y355128D01*
X371668Y355854D01*
X370266Y356229D01*
D02*
G37*
G36*
X350256D02*
X348805D01*
X347403Y355854D01*
X346146Y355128D01*
X345120Y354102D01*
X344394Y352845D01*
X344019Y351443D01*
Y349992D01*
X344394Y348590D01*
X345120Y347333D01*
X346146Y346307D01*
X347403Y345581D01*
X348805Y345206D01*
X350256D01*
X351658Y345581D01*
X352915Y346307D01*
X353941Y347333D01*
X354667Y348590D01*
X355042Y349992D01*
Y351443D01*
X354667Y352845D01*
X353941Y354102D01*
X352915Y355128D01*
X351658Y355854D01*
X350256Y356229D01*
D02*
G37*
G36*
X330256D02*
X328805D01*
X327403Y355854D01*
X326146Y355128D01*
X325120Y354102D01*
X324394Y352845D01*
X324019Y351443D01*
Y349992D01*
X324394Y348590D01*
X325120Y347333D01*
X326146Y346307D01*
X327403Y345581D01*
X328805Y345206D01*
X330256D01*
X331658Y345581D01*
X332915Y346307D01*
X333941Y347333D01*
X334667Y348590D01*
X335042Y349992D01*
Y351443D01*
X334667Y352845D01*
X333941Y354102D01*
X332915Y355128D01*
X331658Y355854D01*
X330256Y356229D01*
D02*
G37*
G36*
X310250D02*
X308799D01*
X307397Y355854D01*
X306140Y355128D01*
X305114Y354102D01*
X304389Y352845D01*
X304013Y351443D01*
Y349992D01*
X304389Y348590D01*
X305114Y347333D01*
X306140Y346307D01*
X307397Y345581D01*
X308799Y345206D01*
X310250D01*
X311652Y345581D01*
X312909Y346307D01*
X313935Y347333D01*
X314661Y348590D01*
X315037Y349992D01*
Y351443D01*
X314661Y352845D01*
X313935Y354102D01*
X312909Y355128D01*
X311652Y355854D01*
X310250Y356229D01*
D02*
G37*
G36*
X290250D02*
X288799D01*
X287397Y355854D01*
X286140Y355128D01*
X285114Y354102D01*
X284389Y352845D01*
X284013Y351443D01*
Y349992D01*
X284389Y348590D01*
X285114Y347333D01*
X286140Y346307D01*
X287397Y345581D01*
X288799Y345206D01*
X290250D01*
X291652Y345581D01*
X292909Y346307D01*
X293935Y347333D01*
X294661Y348590D01*
X295037Y349992D01*
Y351443D01*
X294661Y352845D01*
X293935Y354102D01*
X292909Y355128D01*
X291652Y355854D01*
X290250Y356229D01*
D02*
G37*
G36*
X250250D02*
X248799D01*
X247397Y355854D01*
X246141Y355128D01*
X245114Y354102D01*
X244389Y352845D01*
X244013Y351443D01*
Y349992D01*
X244389Y348590D01*
X245114Y347333D01*
X246141Y346307D01*
X247397Y345581D01*
X248799Y345206D01*
X250250D01*
X251652Y345581D01*
X252909Y346307D01*
X253935Y347333D01*
X254661Y348590D01*
X255037Y349992D01*
Y351443D01*
X254661Y352845D01*
X253935Y354102D01*
X252909Y355128D01*
X251652Y355854D01*
X250250Y356229D01*
D02*
G37*
G36*
X516189Y340467D02*
X515463D01*
X514762Y340280D01*
X514134Y339917D01*
X513621Y339404D01*
X513258Y338775D01*
X513070Y338074D01*
Y337349D01*
X513258Y336648D01*
X513621Y336019D01*
X514134Y335506D01*
X514762Y335143D01*
X515463Y334956D01*
X516189D01*
X516890Y335143D01*
X517518Y335506D01*
X518031Y336019D01*
X518394Y336648D01*
X518582Y337349D01*
Y338074D01*
X518394Y338775D01*
X518031Y339404D01*
X517518Y339917D01*
X516890Y340280D01*
X516189Y340467D01*
D02*
G37*
G36*
X247663Y332456D02*
X246937D01*
X246236Y332268D01*
X245608Y331905D01*
X245095Y331392D01*
X244732Y330764D01*
X244544Y330063D01*
Y329444D01*
X244524Y329429D01*
X243798D01*
X243097Y329241D01*
X242469Y328878D01*
X241956Y328365D01*
X241593Y327736D01*
X241405Y327036D01*
Y326456D01*
X241237D01*
X240536Y326268D01*
X239908Y325905D01*
X239395Y325392D01*
X239032Y324764D01*
X238845Y324065D01*
X238435D01*
X237734Y323877D01*
X237167Y323550D01*
X236600Y323877D01*
X235899Y324065D01*
X235173D01*
X234472Y323877D01*
X233844Y323515D01*
X233331Y323001D01*
X232968Y322373D01*
X232780Y321672D01*
Y320946D01*
X232968Y320246D01*
X233331Y319617D01*
X233844Y319104D01*
X234472Y318741D01*
X235173Y318553D01*
X235899D01*
X236600Y318741D01*
X237167Y319069D01*
X237734Y318741D01*
X238435Y318553D01*
X239160D01*
X239861Y318741D01*
X240490Y319104D01*
X241003Y319617D01*
X241366Y320246D01*
X241553Y320944D01*
X241963D01*
X242664Y321132D01*
X243292Y321495D01*
X243805Y322008D01*
X244168Y322636D01*
X244356Y323337D01*
Y323917D01*
X244524D01*
X245225Y324105D01*
X245853Y324467D01*
X246366Y324981D01*
X246729Y325609D01*
X246917Y326310D01*
Y326929D01*
X246937Y326944D01*
X247663D01*
X248364Y327132D01*
X248992Y327495D01*
X249505Y328008D01*
X249868Y328636D01*
X250056Y329337D01*
Y330063D01*
X249868Y330764D01*
X249505Y331392D01*
X248992Y331905D01*
X248364Y332268D01*
X247663Y332456D01*
D02*
G37*
G36*
X215644Y310073D02*
X214918D01*
X214217Y309886D01*
X213975Y309746D01*
X213764Y309868D01*
X213063Y310056D01*
X212337D01*
X211636Y309868D01*
X211008Y309505D01*
X210495Y308992D01*
X210132Y308364D01*
X209944Y307663D01*
Y306937D01*
X210132Y306236D01*
X210495Y305608D01*
X211008Y305095D01*
X211636Y304732D01*
X212337Y304544D01*
X213063D01*
X213764Y304732D01*
X214005Y304872D01*
X214217Y304749D01*
X214918Y304561D01*
X215644D01*
X216344Y304749D01*
X216973Y305112D01*
X217486Y305625D01*
X217849Y306254D01*
X218037Y306955D01*
Y307680D01*
X217849Y308381D01*
X217486Y309010D01*
X216973Y309523D01*
X216344Y309886D01*
X215644Y310073D01*
D02*
G37*
G36*
X565765Y316477D02*
X556710D01*
Y307422D01*
X565765D01*
Y316477D01*
D02*
G37*
G36*
X561834Y306477D02*
X560642D01*
X559490Y306169D01*
X558458Y305573D01*
X557615Y304730D01*
X557019Y303697D01*
X556710Y302546D01*
Y301354D01*
X557019Y300202D01*
X557615Y299170D01*
X558458Y298327D01*
X559490Y297731D01*
X560642Y297422D01*
X561834D01*
X562985Y297731D01*
X564018Y298327D01*
X564861Y299170D01*
X565457Y300202D01*
X565765Y301354D01*
Y302546D01*
X565457Y303697D01*
X564861Y304730D01*
X564018Y305573D01*
X562985Y306169D01*
X561834Y306477D01*
D02*
G37*
G36*
Y296477D02*
X560642D01*
X559490Y296169D01*
X558458Y295572D01*
X557615Y294730D01*
X557019Y293697D01*
X556710Y292546D01*
Y291354D01*
X557019Y290202D01*
X557615Y289170D01*
X558458Y288327D01*
X559490Y287731D01*
X560642Y287422D01*
X561834D01*
X562985Y287731D01*
X564018Y288327D01*
X564861Y289170D01*
X565457Y290202D01*
X565765Y291354D01*
Y292546D01*
X565457Y293697D01*
X564861Y294730D01*
X564018Y295572D01*
X562985Y296169D01*
X561834Y296477D01*
D02*
G37*
G36*
Y286477D02*
X560642D01*
X559490Y286169D01*
X558458Y285573D01*
X557615Y284730D01*
X557019Y283697D01*
X556710Y282546D01*
Y281353D01*
X557019Y280202D01*
X557615Y279170D01*
X558458Y278327D01*
X559490Y277731D01*
X560642Y277422D01*
X561834D01*
X562985Y277731D01*
X564018Y278327D01*
X564861Y279170D01*
X565457Y280202D01*
X565765Y281353D01*
Y282546D01*
X565457Y283697D01*
X564861Y284730D01*
X564018Y285573D01*
X562985Y286169D01*
X561834Y286477D01*
D02*
G37*
G36*
Y276477D02*
X560642D01*
X559490Y276169D01*
X558458Y275572D01*
X557615Y274730D01*
X557019Y273697D01*
X556710Y272546D01*
Y271354D01*
X557019Y270202D01*
X557615Y269170D01*
X558458Y268327D01*
X559490Y267731D01*
X560642Y267422D01*
X561834D01*
X562985Y267731D01*
X564018Y268327D01*
X564861Y269170D01*
X565457Y270202D01*
X565765Y271354D01*
Y272546D01*
X565457Y273697D01*
X564861Y274730D01*
X564018Y275572D01*
X562985Y276169D01*
X561834Y276477D01*
D02*
G37*
G36*
X513610Y267206D02*
X512885D01*
X512184Y267018D01*
X511555Y266655D01*
X511071Y266170D01*
X510586Y266655D01*
X509958Y267018D01*
X509257Y267206D01*
X508531D01*
X507830Y267018D01*
X507206Y266657D01*
X503726D01*
X503102Y267018D01*
X502401Y267206D01*
X501675D01*
X500974Y267018D01*
X500346Y266655D01*
X499964Y266273D01*
X499582Y266655D01*
X498954Y267018D01*
X498253Y267206D01*
X497527D01*
X496827Y267018D01*
X496198Y266655D01*
X495685Y266142D01*
X495322Y265513D01*
X495134Y264812D01*
Y264087D01*
X495322Y263386D01*
X495685Y262757D01*
X496198Y262244D01*
X496827Y261881D01*
X497523Y261695D01*
X498888Y260329D01*
X499604Y259851D01*
X500449Y259683D01*
X510688D01*
X511533Y259851D01*
X512250Y260329D01*
X513615Y261695D01*
X514311Y261881D01*
X514939Y262244D01*
X515453Y262757D01*
X515815Y263386D01*
X516003Y264087D01*
Y264812D01*
X515815Y265513D01*
X515453Y266142D01*
X514939Y266655D01*
X514311Y267018D01*
X513610Y267206D01*
D02*
G37*
G36*
X561758Y265902D02*
X561738D01*
Y262450D01*
X565191D01*
Y262470D01*
X564921Y263475D01*
X564401Y264377D01*
X563665Y265113D01*
X562764Y265633D01*
X561758Y265902D01*
D02*
G37*
G36*
X560738D02*
X560717D01*
X559712Y265633D01*
X558811Y265113D01*
X558075Y264377D01*
X557554Y263475D01*
X557285Y262470D01*
Y262450D01*
X560738D01*
Y265902D01*
D02*
G37*
G36*
X565191Y261450D02*
X561738D01*
Y257997D01*
X561758D01*
X562764Y258266D01*
X563665Y258787D01*
X564401Y259523D01*
X564921Y260424D01*
X565191Y261429D01*
Y261450D01*
D02*
G37*
G36*
X560738D02*
X557285D01*
Y261429D01*
X557554Y260424D01*
X558075Y259523D01*
X558811Y258787D01*
X559712Y258266D01*
X560717Y257997D01*
X560738D01*
Y261450D01*
D02*
G37*
G36*
X367551Y258200D02*
X366826D01*
X366125Y258012D01*
X365496Y257649D01*
X365402Y257554D01*
X357641D01*
X357185Y257818D01*
X356484Y258005D01*
X355758D01*
X355057Y257818D01*
X354429Y257455D01*
X353916Y256942D01*
X353553Y256313D01*
X353365Y255612D01*
Y254887D01*
X353553Y254186D01*
X353848Y253675D01*
X353553Y253164D01*
X353365Y252463D01*
Y251737D01*
X353553Y251036D01*
X353877Y250475D01*
X353553Y249913D01*
X353365Y249212D01*
Y248487D01*
X353553Y247786D01*
X353916Y247157D01*
X354429Y246644D01*
X355057Y246282D01*
X355758Y246094D01*
X356484D01*
X357185Y246282D01*
X357809Y246642D01*
X365501D01*
X366125Y246282D01*
X366826Y246094D01*
X367551D01*
X368252Y246282D01*
X368881Y246644D01*
X369394Y247157D01*
X369757Y247786D01*
X369945Y248487D01*
Y249212D01*
X369757Y249913D01*
X369432Y250475D01*
X369757Y251036D01*
X369945Y251737D01*
Y252463D01*
X369757Y253164D01*
X369406Y253772D01*
X369757Y254380D01*
X369945Y255081D01*
Y255806D01*
X369757Y256507D01*
X369394Y257136D01*
X368881Y257649D01*
X368252Y258012D01*
X367551Y258200D01*
D02*
G37*
G36*
X446864Y238461D02*
X445412D01*
X444010Y238086D01*
X442754Y237360D01*
X442150Y236756D01*
X441650Y236963D01*
Y238461D01*
X430626D01*
Y227438D01*
X432124D01*
X432331Y226938D01*
X431727Y226334D01*
X431002Y225077D01*
X430626Y223675D01*
Y222224D01*
X431002Y220822D01*
X431727Y219565D01*
X432754Y218539D01*
X433342Y218199D01*
Y217700D01*
X432754Y217360D01*
X431727Y216334D01*
X431002Y215077D01*
X430626Y213675D01*
Y212224D01*
X431002Y210822D01*
X431727Y209565D01*
X432754Y208539D01*
X433342Y208200D01*
Y207699D01*
X432754Y207360D01*
X431727Y206334D01*
X431002Y205077D01*
X430626Y203675D01*
Y202224D01*
X431002Y200822D01*
X431727Y199565D01*
X432754Y198539D01*
X434010Y197813D01*
X435412Y197438D01*
X436864D01*
X438265Y197813D01*
X439522Y198539D01*
X440548Y199565D01*
X441181Y200661D01*
X441651Y200709D01*
X441747Y200680D01*
X442187Y199918D01*
X443107Y198999D01*
X444232Y198349D01*
X445488Y198012D01*
X445638D01*
Y202950D01*
X446138D01*
Y203450D01*
X451075D01*
Y203600D01*
X450738Y204855D01*
X450089Y205981D01*
X449169Y206900D01*
X448043Y207550D01*
X447519Y207691D01*
Y208208D01*
X448043Y208349D01*
X449169Y208999D01*
X450089Y209918D01*
X450738Y211044D01*
X451075Y212299D01*
Y212450D01*
X446138D01*
Y213450D01*
X451075D01*
Y213599D01*
X450738Y214855D01*
X450089Y215981D01*
X449169Y216900D01*
X448407Y217340D01*
X448378Y217437D01*
X448426Y217906D01*
X449522Y218539D01*
X450548Y219565D01*
X451274Y220822D01*
X451650Y222224D01*
Y223675D01*
X451274Y225077D01*
X450548Y226334D01*
X449522Y227360D01*
X448934Y227699D01*
Y228200D01*
X449522Y228539D01*
X450548Y229565D01*
X451274Y230822D01*
X451650Y232224D01*
Y233675D01*
X451274Y235077D01*
X450548Y236334D01*
X449522Y237360D01*
X448265Y238086D01*
X446864Y238461D01*
D02*
G37*
G36*
X204663Y231056D02*
X203937D01*
X203236Y230868D01*
X202608Y230505D01*
X202095Y229992D01*
X201732Y229364D01*
X201544Y228663D01*
Y227937D01*
X201732Y227236D01*
X202095Y226608D01*
X202608Y226095D01*
X203236Y225732D01*
X203937Y225544D01*
X204663D01*
X205364Y225732D01*
X205992Y226095D01*
X206505Y226608D01*
X206868Y227236D01*
X207056Y227937D01*
Y228663D01*
X206868Y229364D01*
X206505Y229992D01*
X205992Y230505D01*
X205364Y230868D01*
X204663Y231056D01*
D02*
G37*
G36*
X289463Y224656D02*
X288737D01*
X288036Y224468D01*
X287408Y224105D01*
X286895Y223592D01*
X286532Y222964D01*
X286344Y222263D01*
Y221537D01*
X286532Y220836D01*
X286895Y220208D01*
X287408Y219695D01*
X288036Y219332D01*
X288737Y219144D01*
X289463D01*
X290164Y219332D01*
X290792Y219695D01*
X291305Y220208D01*
X291668Y220836D01*
X291856Y221537D01*
Y222263D01*
X291668Y222964D01*
X291305Y223592D01*
X290792Y224105D01*
X290164Y224468D01*
X289463Y224656D01*
D02*
G37*
G36*
X312663Y216442D02*
X311937D01*
X311236Y216255D01*
X310608Y215892D01*
X310095Y215379D01*
X309732Y214750D01*
X309544Y214049D01*
Y213324D01*
X309732Y212623D01*
X310095Y211994D01*
X310608Y211481D01*
X311236Y211119D01*
X311937Y210931D01*
X312663D01*
X313364Y211119D01*
X313992Y211481D01*
X314505Y211994D01*
X314868Y212623D01*
X315056Y213324D01*
Y214049D01*
X314868Y214750D01*
X314505Y215379D01*
X313992Y215892D01*
X313364Y216255D01*
X312663Y216442D01*
D02*
G37*
G36*
X351517Y213705D02*
X350792D01*
X350091Y213518D01*
X349462Y213155D01*
X348949Y212642D01*
X348586Y212013D01*
X348398Y211312D01*
Y210587D01*
X348586Y209886D01*
X348949Y209257D01*
X349462Y208744D01*
X350091Y208382D01*
X350792Y208194D01*
X351517D01*
X352218Y208382D01*
X352847Y208744D01*
X353360Y209257D01*
X353723Y209886D01*
X353910Y210587D01*
Y211312D01*
X353723Y212013D01*
X353360Y212642D01*
X352847Y213155D01*
X352218Y213518D01*
X351517Y213705D01*
D02*
G37*
G36*
X490601Y208605D02*
X489875D01*
X489175Y208417D01*
X488546Y208054D01*
X488033Y207541D01*
X487670Y206913D01*
X487482Y206212D01*
Y205486D01*
X487670Y204785D01*
X488033Y204157D01*
X488546Y203644D01*
X489175Y203281D01*
X489875Y203093D01*
X490601D01*
X491302Y203281D01*
X491930Y203644D01*
X492444Y204157D01*
X492806Y204785D01*
X492994Y205486D01*
Y206212D01*
X492806Y206913D01*
X492444Y207541D01*
X491930Y208054D01*
X491302Y208417D01*
X490601Y208605D01*
D02*
G37*
G36*
X451075Y202449D02*
X446638D01*
Y198012D01*
X446788D01*
X448043Y198349D01*
X449169Y198999D01*
X450089Y199918D01*
X450738Y201044D01*
X451075Y202299D01*
Y202449D01*
D02*
G37*
G36*
X373801Y199606D02*
X373075D01*
X372374Y199418D01*
X371746Y199055D01*
X371233Y198542D01*
X370870Y197913D01*
X370682Y197212D01*
Y196487D01*
X370870Y195786D01*
X371233Y195157D01*
X371746Y194644D01*
X372374Y194281D01*
X373075Y194094D01*
X373801D01*
X374502Y194281D01*
X375130Y194644D01*
X375643Y195157D01*
X376006Y195786D01*
X376194Y196487D01*
Y197212D01*
X376006Y197913D01*
X375643Y198542D01*
X375130Y199055D01*
X374502Y199418D01*
X373801Y199606D01*
D02*
G37*
G36*
X287363Y192856D02*
X286637D01*
X285936Y192668D01*
X285308Y192305D01*
X284795Y191792D01*
X284432Y191164D01*
X284244Y190463D01*
Y189737D01*
X284432Y189036D01*
X284795Y188408D01*
X285308Y187895D01*
X285936Y187532D01*
X286637Y187344D01*
X287363D01*
X288064Y187532D01*
X288389Y187720D01*
X288967Y187495D01*
X288970Y187486D01*
X289333Y186857D01*
X289846Y186344D01*
X290474Y185982D01*
X291175Y185794D01*
X291901D01*
X292602Y185982D01*
X293230Y186344D01*
X293743Y186857D01*
X294106Y187486D01*
X294294Y188187D01*
Y188912D01*
X294106Y189613D01*
X293743Y190242D01*
X293230Y190755D01*
X292602Y191118D01*
X291901Y191305D01*
X291175D01*
X290474Y191118D01*
X290148Y190930D01*
X289570Y191155D01*
X289568Y191164D01*
X289205Y191792D01*
X288692Y192305D01*
X288064Y192668D01*
X287363Y192856D01*
D02*
G37*
G36*
X215417Y183445D02*
X214692D01*
X213991Y183257D01*
X213362Y182894D01*
X213000Y182532D01*
X212638Y182894D01*
X212009Y183257D01*
X211308Y183445D01*
X210583D01*
X209882Y183257D01*
X209253Y182894D01*
X208740Y182381D01*
X208377Y181753D01*
X208190Y181052D01*
Y180326D01*
X208377Y179625D01*
X208740Y178997D01*
X208911Y178826D01*
X208740Y178655D01*
X208377Y178027D01*
X208190Y177326D01*
Y176600D01*
X208377Y175899D01*
X208740Y175271D01*
X208911Y175100D01*
X208740Y174929D01*
X208377Y174301D01*
X208190Y173600D01*
Y172874D01*
X208377Y172173D01*
X208740Y171545D01*
X208911Y171374D01*
X208740Y171203D01*
X208377Y170575D01*
X208190Y169874D01*
Y169148D01*
X208377Y168447D01*
X208740Y167819D01*
X209253Y167306D01*
X209882Y166943D01*
X210583Y166755D01*
X211308D01*
X212009Y166943D01*
X212638Y167306D01*
X213000Y167668D01*
X213362Y167306D01*
X213991Y166943D01*
X214692Y166755D01*
X215417D01*
X216118Y166943D01*
X216747Y167306D01*
X217260Y167819D01*
X217623Y168447D01*
X217811Y169148D01*
Y169874D01*
X217623Y170575D01*
X217260Y171203D01*
X217089Y171374D01*
X217260Y171545D01*
X217623Y172173D01*
X217811Y172874D01*
Y173600D01*
X217623Y174301D01*
X217260Y174929D01*
X217089Y175100D01*
X217260Y175271D01*
X217623Y175899D01*
X217811Y176600D01*
Y177326D01*
X217623Y178027D01*
X217260Y178655D01*
X217089Y178826D01*
X217260Y178997D01*
X217623Y179625D01*
X217811Y180326D01*
Y181052D01*
X217623Y181753D01*
X217260Y182381D01*
X216747Y182894D01*
X216118Y183257D01*
X215417Y183445D01*
D02*
G37*
G36*
X269963Y185556D02*
X269237D01*
X268536Y185368D01*
X267908Y185005D01*
X267395Y184492D01*
X267032Y183864D01*
X266844Y183163D01*
Y182437D01*
X267032Y181736D01*
X267395Y181108D01*
X267908Y180595D01*
X268536Y180232D01*
X269237Y180044D01*
X269963D01*
X270664Y180232D01*
X271292Y180595D01*
X271805Y181108D01*
X272168Y181736D01*
X272356Y182437D01*
Y183163D01*
X272168Y183864D01*
X271805Y184492D01*
X271292Y185005D01*
X270664Y185368D01*
X269963Y185556D01*
D02*
G37*
G36*
X408963Y170056D02*
X408237D01*
X407536Y169868D01*
X406908Y169505D01*
X406395Y168992D01*
X406032Y168364D01*
X405844Y167663D01*
Y166937D01*
X406032Y166236D01*
X406395Y165608D01*
X406908Y165095D01*
X407536Y164732D01*
X408237Y164544D01*
X408963D01*
X409664Y164732D01*
X410292Y165095D01*
X410805Y165608D01*
X411168Y166236D01*
X411356Y166937D01*
Y167663D01*
X411168Y168364D01*
X410805Y168992D01*
X410292Y169505D01*
X409664Y169868D01*
X408963Y170056D01*
D02*
G37*
G36*
X267363Y251661D02*
X266637D01*
X265936Y251474D01*
X265308Y251111D01*
X264795Y250598D01*
X264432Y249969D01*
X264244Y249268D01*
Y248543D01*
X264432Y247842D01*
X264795Y247213D01*
X265308Y246700D01*
X265936Y246337D01*
X266219Y246262D01*
Y245744D01*
X265936Y245668D01*
X265308Y245305D01*
X264795Y244792D01*
X264432Y244164D01*
X264244Y243463D01*
Y242737D01*
X264432Y242036D01*
X264795Y241408D01*
X265189Y241014D01*
X265262Y240700D01*
X265189Y240386D01*
X264795Y239992D01*
X264432Y239364D01*
X264244Y238663D01*
Y237937D01*
X264432Y237236D01*
X264795Y236608D01*
X265308Y236095D01*
X265936Y235732D01*
X266637Y235544D01*
Y235056D01*
X265936Y234868D01*
X265308Y234505D01*
X264795Y233992D01*
X264432Y233364D01*
X264244Y232663D01*
Y231937D01*
X264432Y231236D01*
X264795Y230608D01*
X265308Y230095D01*
X265936Y229732D01*
X266637Y229544D01*
X267363D01*
X268064Y229732D01*
X268692Y230095D01*
X269205Y230608D01*
X269568Y231236D01*
X269756Y231937D01*
Y232663D01*
X269568Y233364D01*
X269205Y233992D01*
X268692Y234505D01*
X268064Y234868D01*
X267363Y235056D01*
Y235544D01*
X268064Y235732D01*
X268692Y236095D01*
X269205Y236608D01*
X269568Y237236D01*
X269618Y237424D01*
X295353D01*
X322943Y209833D01*
X322438Y209328D01*
X322075Y208700D01*
X321887Y207999D01*
Y207274D01*
X322075Y206573D01*
X322438Y205944D01*
X322951Y205431D01*
X323580Y205068D01*
X324281Y204880D01*
X324697D01*
X338194Y191383D01*
Y178514D01*
X338363Y177669D01*
X338841Y176953D01*
X346492Y169302D01*
Y147510D01*
X331964Y132982D01*
X331486Y132266D01*
X331317Y131421D01*
Y120058D01*
X331486Y119213D01*
X331964Y118497D01*
X334883Y115578D01*
X334883Y115578D01*
X335432Y115029D01*
X336148Y114551D01*
X336993Y114383D01*
X339113D01*
X339958Y114551D01*
X340674Y115029D01*
X342173Y116528D01*
X342652Y117245D01*
X342820Y118090D01*
Y129241D01*
X349912Y136334D01*
X372986D01*
X378230Y131089D01*
Y121458D01*
X378228Y121446D01*
X378204Y121369D01*
X378158Y121260D01*
X378086Y121123D01*
X377983Y120959D01*
X377861Y120790D01*
X377467Y120330D01*
X377224Y120082D01*
X377143Y119957D01*
X376815Y119630D01*
X376219Y118597D01*
X375910Y117446D01*
Y116253D01*
X376219Y115102D01*
X376815Y114070D01*
X377658Y113227D01*
X378690Y112631D01*
X379842Y112322D01*
X381034D01*
X382185Y112631D01*
X383218Y113227D01*
X384061Y114070D01*
X384657Y115102D01*
X384965Y116253D01*
Y117446D01*
X384657Y118597D01*
X384061Y119630D01*
X383745Y119945D01*
X383675Y120058D01*
X383183Y120581D01*
X383027Y120773D01*
X382892Y120959D01*
X382790Y121123D01*
X382718Y121260D01*
X382672Y121369D01*
X382648Y121446D01*
X382646Y121458D01*
Y132004D01*
X382478Y132849D01*
X381999Y133565D01*
X377724Y137841D01*
X377915Y138303D01*
X394902D01*
X397405Y135800D01*
X397629Y135650D01*
X397458Y135354D01*
X397270Y134653D01*
Y133927D01*
X397458Y133226D01*
X397821Y132598D01*
X398334Y132085D01*
X398962Y131722D01*
X399663Y131534D01*
X400389D01*
X401090Y131722D01*
X401718Y132085D01*
X402231Y132598D01*
X402594Y133226D01*
X402782Y133927D01*
Y134653D01*
X402601Y135326D01*
X403310Y135800D01*
X403354Y135843D01*
X408322D01*
X410183Y133982D01*
X410370Y133286D01*
X410733Y132657D01*
X411246Y132144D01*
X411874Y131781D01*
X412575Y131594D01*
X413301D01*
X414002Y131781D01*
X414630Y132144D01*
X415143Y132657D01*
X415506Y133286D01*
X415694Y133987D01*
Y134712D01*
X415506Y135413D01*
X415143Y136042D01*
X414630Y136555D01*
X414002Y136918D01*
X413837Y136962D01*
X413773Y137259D01*
X413799Y137490D01*
X414360Y137814D01*
X414873Y138327D01*
X415236Y138956D01*
X415424Y139656D01*
Y140382D01*
X415236Y141083D01*
X414873Y141711D01*
X414360Y142225D01*
X413732Y142587D01*
X413031Y142775D01*
X412305D01*
X411604Y142587D01*
X410980Y142227D01*
X404620D01*
X402807Y144040D01*
X402621Y144165D01*
X402806Y144486D01*
X402994Y145187D01*
Y145912D01*
X402806Y146613D01*
X402443Y147242D01*
X401930Y147755D01*
X401302Y148118D01*
X400601Y148305D01*
X399875D01*
X399498Y148204D01*
X398998Y148565D01*
Y150745D01*
X399395Y151050D01*
X399663Y150978D01*
X400389D01*
X401090Y151166D01*
X401718Y151529D01*
X402231Y152042D01*
X402594Y152670D01*
X402782Y153371D01*
Y154097D01*
X402594Y154797D01*
X402231Y155426D01*
X401718Y155939D01*
X401090Y156302D01*
X400389Y156490D01*
Y156981D01*
X401090Y157169D01*
X401718Y157531D01*
X402231Y158045D01*
X402594Y158673D01*
X402782Y159374D01*
Y160100D01*
X402594Y160801D01*
X402231Y161429D01*
X401718Y161942D01*
X401090Y162305D01*
X400389Y162493D01*
X399663D01*
X398962Y162305D01*
X398334Y161942D01*
X397821Y161429D01*
X397458Y160801D01*
X397270Y160100D01*
Y159374D01*
X397458Y158673D01*
X397821Y158045D01*
X398334Y157531D01*
X398962Y157169D01*
X399663Y156981D01*
Y156490D01*
X398962Y156302D01*
X398408Y155982D01*
X397854Y156302D01*
X397153Y156490D01*
X396427D01*
X395726Y156302D01*
X395098Y155939D01*
X394585Y155426D01*
X394222Y154797D01*
X394034Y154097D01*
Y153371D01*
X394222Y152670D01*
X394582Y152046D01*
Y147237D01*
X394222Y146613D01*
X394034Y145912D01*
Y145187D01*
X394062Y145083D01*
X393758Y144687D01*
X350572D01*
X350363Y145187D01*
X350740Y145751D01*
X350908Y146596D01*
Y169685D01*
X369260D01*
X370105Y169853D01*
X370821Y170332D01*
X372320Y171831D01*
X372799Y172547D01*
X372967Y173392D01*
Y175213D01*
X372972Y175317D01*
X372986Y175442D01*
X373052Y175557D01*
X373240Y176258D01*
Y176983D01*
X373052Y177684D01*
X372690Y178313D01*
X372176Y178826D01*
X371548Y179189D01*
X370847Y179376D01*
X370121D01*
X369421Y179189D01*
X368792Y178826D01*
X368279Y178313D01*
X367916Y177684D01*
X367785Y177194D01*
X367136Y177020D01*
X366512Y176660D01*
X350946D01*
X346547Y181059D01*
Y194343D01*
X346379Y195188D01*
X345900Y195905D01*
X333596Y208209D01*
X333661Y208705D01*
X333730Y208744D01*
X334243Y209257D01*
X334606Y209886D01*
X334794Y210587D01*
Y211312D01*
X334606Y212013D01*
X334243Y212642D01*
X333730Y213155D01*
X333102Y213518D01*
X332401Y213705D01*
X331675D01*
X330974Y213518D01*
X330346Y213155D01*
X329833Y212642D01*
X329793Y212573D01*
X329297Y212508D01*
X298644Y243161D01*
X297927Y243640D01*
X297083Y243808D01*
X269664D01*
X269568Y244164D01*
X269205Y244792D01*
X268692Y245305D01*
X268064Y245668D01*
X267781Y245744D01*
Y246262D01*
X268064Y246337D01*
X268692Y246700D01*
X269205Y247213D01*
X269568Y247842D01*
X269756Y248543D01*
Y249268D01*
X269568Y249969D01*
X269205Y250598D01*
X268692Y251111D01*
X268064Y251474D01*
X267363Y251661D01*
D02*
G37*
G36*
X225764Y146850D02*
X224601D01*
X223460Y146623D01*
X222385Y146178D01*
X221418Y145532D01*
X220595Y144709D01*
X219949Y143742D01*
X219504Y142667D01*
X219277Y141526D01*
Y140363D01*
X219504Y139222D01*
X219949Y138147D01*
X220595Y137180D01*
X221418Y136358D01*
X222385Y135711D01*
X223460Y135266D01*
X224601Y135039D01*
X225764D01*
X226905Y135266D01*
X227979Y135711D01*
X228947Y136358D01*
X229769Y137180D01*
X230416Y138147D01*
X230861Y139222D01*
X231088Y140363D01*
Y141526D01*
X230861Y142667D01*
X230416Y143742D01*
X229769Y144709D01*
X228947Y145532D01*
X227979Y146178D01*
X226905Y146623D01*
X225764Y146850D01*
D02*
G37*
G36*
X295701Y139406D02*
X294975D01*
X294274Y139218D01*
X293646Y138855D01*
X293133Y138342D01*
X292770Y137713D01*
X292582Y137012D01*
Y136287D01*
X292770Y135586D01*
X293133Y134957D01*
X293646Y134444D01*
X294274Y134081D01*
X294975Y133894D01*
X295701D01*
X296402Y134081D01*
X297030Y134444D01*
X297543Y134957D01*
X297906Y135586D01*
X298094Y136287D01*
Y137012D01*
X297906Y137713D01*
X297543Y138342D01*
X297030Y138855D01*
X296402Y139218D01*
X295701Y139406D01*
D02*
G37*
G36*
X363663Y133156D02*
X362937D01*
X362236Y132968D01*
X361608Y132605D01*
X361095Y132092D01*
X360732Y131464D01*
X360544Y130763D01*
Y130037D01*
X360732Y129336D01*
X361095Y128708D01*
X361608Y128195D01*
X362236Y127832D01*
X362937Y127644D01*
X363663D01*
X364364Y127832D01*
X364992Y128195D01*
X365505Y128708D01*
X365868Y129336D01*
X366056Y130037D01*
Y130763D01*
X365868Y131464D01*
X365505Y132092D01*
X364992Y132605D01*
X364364Y132968D01*
X363663Y133156D01*
D02*
G37*
G36*
X544543Y123679D02*
X543468D01*
Y121383D01*
X547272D01*
X547243Y121607D01*
X546964Y122281D01*
X546519Y122860D01*
X545940Y123304D01*
X545266Y123584D01*
X544543Y123679D01*
D02*
G37*
G36*
X542468D02*
X541393D01*
X540669Y123584D01*
X539995Y123304D01*
X539416Y122860D01*
X538972Y122281D01*
X538693Y121607D01*
X538663Y121383D01*
X542468D01*
Y123679D01*
D02*
G37*
G36*
X225884Y122968D02*
X225682D01*
Y118138D01*
X230513D01*
Y118340D01*
X230150Y119695D01*
X229448Y120911D01*
X228455Y121903D01*
X227240Y122605D01*
X225884Y122968D01*
D02*
G37*
G36*
X224682D02*
X224480D01*
X223125Y122605D01*
X221909Y121903D01*
X220917Y120911D01*
X220215Y119695D01*
X219851Y118340D01*
Y118138D01*
X224682D01*
Y122968D01*
D02*
G37*
G36*
X547272Y120383D02*
X543468D01*
Y118088D01*
X544543D01*
X545266Y118183D01*
X545940Y118462D01*
X546519Y118907D01*
X546964Y119486D01*
X547243Y120160D01*
X547272Y120383D01*
D02*
G37*
G36*
X542468D02*
X538663D01*
X538693Y120160D01*
X538972Y119486D01*
X539416Y118907D01*
X539995Y118462D01*
X540669Y118183D01*
X541393Y118088D01*
X542468D01*
Y120383D01*
D02*
G37*
G36*
X494943Y122925D02*
X494217D01*
X493516Y122737D01*
X492888Y122374D01*
X492375Y121861D01*
X492012Y121233D01*
X491824Y120532D01*
Y119806D01*
X492012Y119105D01*
X492375Y118477D01*
X492888Y117964D01*
X493516Y117601D01*
X494217Y117413D01*
X494943D01*
X495644Y117601D01*
X496272Y117964D01*
X496785Y118477D01*
X497148Y119105D01*
X497336Y119806D01*
Y120532D01*
X497148Y121233D01*
X496785Y121861D01*
X496272Y122374D01*
X495644Y122737D01*
X494943Y122925D01*
D02*
G37*
G36*
X400958Y120802D02*
X400938D01*
Y117350D01*
X404391D01*
Y117370D01*
X404121Y118375D01*
X403601Y119277D01*
X402865Y120013D01*
X401964Y120533D01*
X400958Y120802D01*
D02*
G37*
G36*
X399938D02*
X399918D01*
X398912Y120533D01*
X398011Y120013D01*
X397275Y119277D01*
X396755Y118375D01*
X396485Y117370D01*
Y117350D01*
X399938D01*
Y120802D01*
D02*
G37*
G36*
X404391Y116349D02*
X400938D01*
Y112897D01*
X400958D01*
X401964Y113166D01*
X402865Y113687D01*
X403601Y114423D01*
X404121Y115324D01*
X404391Y116329D01*
Y116349D01*
D02*
G37*
G36*
X399938D02*
X396485D01*
Y116329D01*
X396755Y115324D01*
X397275Y114423D01*
X398011Y113687D01*
X398912Y113166D01*
X399918Y112897D01*
X399938D01*
Y116349D01*
D02*
G37*
G36*
X542901Y114458D02*
X542407Y114326D01*
X541820Y113987D01*
X541340Y113508D01*
X541002Y112921D01*
X540869Y112427D01*
X542901D01*
Y114458D01*
D02*
G37*
G36*
X424965Y121377D02*
X415910D01*
Y112322D01*
X424965D01*
Y121377D01*
D02*
G37*
G36*
X411034D02*
X409842D01*
X408690Y121069D01*
X407658Y120473D01*
X406815Y119630D01*
X406219Y118597D01*
X405910Y117446D01*
Y116253D01*
X406219Y115102D01*
X406815Y114070D01*
X407658Y113227D01*
X408690Y112631D01*
X409842Y112322D01*
X411034D01*
X412185Y112631D01*
X413218Y113227D01*
X414061Y114070D01*
X414657Y115102D01*
X414965Y116253D01*
Y117446D01*
X414657Y118597D01*
X414061Y119630D01*
X413218Y120473D01*
X412185Y121069D01*
X411034Y121377D01*
D02*
G37*
G36*
X391034D02*
X389842D01*
X388690Y121069D01*
X387658Y120473D01*
X386815Y119630D01*
X386219Y118597D01*
X385910Y117446D01*
Y116253D01*
X386219Y115102D01*
X386815Y114070D01*
X387658Y113227D01*
X388690Y112631D01*
X389842Y112322D01*
X391034D01*
X392185Y112631D01*
X393218Y113227D01*
X394061Y114070D01*
X394657Y115102D01*
X394965Y116253D01*
Y117446D01*
X394657Y118597D01*
X394061Y119630D01*
X393218Y120473D01*
X392185Y121069D01*
X391034Y121377D01*
D02*
G37*
G36*
X371034D02*
X369842D01*
X368690Y121069D01*
X367658Y120473D01*
X366815Y119630D01*
X366219Y118597D01*
X365910Y117446D01*
Y116253D01*
X366219Y115102D01*
X366815Y114070D01*
X367658Y113227D01*
X368690Y112631D01*
X369842Y112322D01*
X371034D01*
X372185Y112631D01*
X373218Y113227D01*
X374061Y114070D01*
X374657Y115102D01*
X374965Y116253D01*
Y117446D01*
X374657Y118597D01*
X374061Y119630D01*
X373218Y120473D01*
X372185Y121069D01*
X371034Y121377D01*
D02*
G37*
G36*
X230513Y117138D02*
X225682D01*
Y112307D01*
X225884D01*
X227240Y112670D01*
X228455Y113372D01*
X229448Y114365D01*
X230150Y115580D01*
X230513Y116936D01*
Y117138D01*
D02*
G37*
G36*
X224682D02*
X219851D01*
Y116936D01*
X220215Y115580D01*
X220917Y114365D01*
X221909Y113372D01*
X223125Y112670D01*
X224480Y112307D01*
X224682D01*
Y117138D01*
D02*
G37*
G36*
X543901Y114458D02*
Y111927D01*
X543401D01*
Y111427D01*
X540869D01*
X541002Y110933D01*
X541340Y110346D01*
X541666Y110021D01*
X541652Y109436D01*
X541467Y109329D01*
X540881Y108742D01*
X540466Y108024D01*
X540251Y107223D01*
Y106394D01*
X540466Y105593D01*
X540881Y104875D01*
X541171Y104584D01*
X541436Y104250D01*
X541171Y103915D01*
X540881Y103624D01*
X540466Y102906D01*
X540251Y102105D01*
Y101276D01*
X540466Y100475D01*
X540881Y99757D01*
X541467Y99170D01*
X542185Y98756D01*
X542986Y98541D01*
X543816D01*
X544617Y98756D01*
X545335Y99170D01*
X545921Y99757D01*
X546336Y100475D01*
X546531Y101205D01*
X546923Y101100D01*
X547753D01*
X548554Y101315D01*
X549272Y101729D01*
X549858Y102316D01*
X550273Y103034D01*
X550488Y103835D01*
Y104664D01*
X550273Y105465D01*
X549858Y106184D01*
X549568Y106474D01*
X549302Y106809D01*
X549568Y107143D01*
X549858Y107434D01*
X550273Y108152D01*
X550488Y108953D01*
Y109782D01*
X550273Y110583D01*
X549858Y111302D01*
X549272Y111888D01*
X548554Y112302D01*
X547753Y112517D01*
X546923D01*
X546427Y112384D01*
X546121Y112304D01*
X545853Y112724D01*
X545800Y112921D01*
X545461Y113508D01*
X544982Y113987D01*
X544395Y114326D01*
X543901Y114458D01*
D02*
G37*
G36*
X391963Y98756D02*
X391237D01*
X390536Y98568D01*
X389908Y98205D01*
X389395Y97692D01*
X389032Y97064D01*
X388844Y96363D01*
Y95637D01*
X389032Y94936D01*
X389395Y94308D01*
X389908Y93795D01*
X390536Y93432D01*
X391237Y93244D01*
X391963D01*
X392664Y93432D01*
X393292Y93795D01*
X393805Y94308D01*
X394168Y94936D01*
X394356Y95637D01*
Y96363D01*
X394168Y97064D01*
X393805Y97692D01*
X393292Y98205D01*
X392664Y98568D01*
X391963Y98756D01*
D02*
G37*
G36*
X544543Y95529D02*
X543468D01*
Y93234D01*
X547272D01*
X547243Y93457D01*
X546964Y94132D01*
X546519Y94710D01*
X545940Y95155D01*
X545266Y95434D01*
X544543Y95529D01*
D02*
G37*
G36*
X542468D02*
X541393D01*
X540669Y95434D01*
X539995Y95155D01*
X539416Y94710D01*
X538972Y94132D01*
X538693Y93457D01*
X538663Y93234D01*
X542468D01*
Y95529D01*
D02*
G37*
G36*
X547272Y92234D02*
X543468D01*
Y89938D01*
X544543D01*
X545266Y90034D01*
X545940Y90313D01*
X546519Y90757D01*
X546964Y91336D01*
X547243Y92010D01*
X547272Y92234D01*
D02*
G37*
G36*
X542468D02*
X538663D01*
X538693Y92010D01*
X538972Y91336D01*
X539416Y90757D01*
X539995Y90313D01*
X540669Y90034D01*
X541393Y89938D01*
X542468D01*
Y92234D01*
D02*
G37*
G36*
X225764Y100236D02*
X224601D01*
X223460Y100009D01*
X222385Y99564D01*
X221418Y98918D01*
X220595Y98095D01*
X219949Y97128D01*
X219504Y96053D01*
X219277Y94912D01*
Y93749D01*
X219504Y92608D01*
X219949Y91533D01*
X220595Y90566D01*
X221418Y89744D01*
X222385Y89097D01*
X223460Y88652D01*
X224601Y88425D01*
X225764D01*
X226905Y88652D01*
X227979Y89097D01*
X228947Y89744D01*
X229769Y90566D01*
X230416Y91533D01*
X230861Y92608D01*
X231088Y93749D01*
Y94912D01*
X230861Y96053D01*
X230416Y97128D01*
X229769Y98095D01*
X228947Y98918D01*
X227979Y99564D01*
X226905Y100009D01*
X225764Y100236D01*
D02*
G37*
G36*
X119602Y82916D02*
X118877D01*
X118176Y82728D01*
X117547Y82366D01*
X117034Y81853D01*
X116672Y81224D01*
X116484Y80523D01*
Y79798D01*
X116672Y79097D01*
X116856Y78778D01*
X116732Y78564D01*
X116544Y77863D01*
Y77137D01*
X116732Y76436D01*
X117095Y75808D01*
X117608Y75295D01*
X118236Y74932D01*
X118937Y74744D01*
X119663D01*
X120364Y74932D01*
X120992Y75295D01*
X121505Y75808D01*
X121868Y76436D01*
X122056Y77137D01*
Y77863D01*
X121868Y78564D01*
X121684Y78882D01*
X121808Y79097D01*
X121995Y79798D01*
Y80523D01*
X121808Y81224D01*
X121445Y81853D01*
X120932Y82366D01*
X120303Y82728D01*
X119602Y82916D01*
D02*
G37*
G36*
X238195Y77694D02*
X237470D01*
X236769Y77506D01*
X236140Y77143D01*
X235627Y76630D01*
X235264Y76002D01*
X235076Y75301D01*
Y74575D01*
X235264Y73874D01*
X235627Y73246D01*
X236140Y72733D01*
X236769Y72370D01*
X237470Y72182D01*
X238195D01*
X238896Y72370D01*
X239525Y72733D01*
X240038Y73246D01*
X240401Y73874D01*
X240588Y74575D01*
Y75301D01*
X240401Y76002D01*
X240038Y76630D01*
X239525Y77143D01*
X238896Y77506D01*
X238195Y77694D01*
D02*
G37*
G36*
X280363Y69356D02*
X279637D01*
X278936Y69168D01*
X278450Y68887D01*
X277964Y69168D01*
X277263Y69356D01*
X276537D01*
X275836Y69168D01*
X275350Y68887D01*
X274864Y69168D01*
X274163Y69356D01*
X273437D01*
X272736Y69168D01*
X272250Y68887D01*
X271764Y69168D01*
X271063Y69356D01*
X270337D01*
X269636Y69168D01*
X269008Y68805D01*
X268495Y68292D01*
X268132Y67664D01*
X267944Y66963D01*
Y66237D01*
X268132Y65536D01*
X268355Y65150D01*
X268132Y64764D01*
X267944Y64063D01*
Y63337D01*
X268132Y62636D01*
X268495Y62008D01*
X269008Y61495D01*
X269636Y61132D01*
X270337Y60944D01*
X271063D01*
X271764Y61132D01*
X272392Y61495D01*
X272905Y62008D01*
X273268Y62636D01*
X273456Y63337D01*
Y63844D01*
X274144D01*
Y63337D01*
X274332Y62636D01*
X274695Y62008D01*
X275208Y61495D01*
X275836Y61132D01*
X276537Y60944D01*
X277263D01*
X277964Y61132D01*
X278450Y61413D01*
X278936Y61132D01*
X279637Y60944D01*
X280363D01*
X281064Y61132D01*
X281692Y61495D01*
X282205Y62008D01*
X282568Y62636D01*
X282756Y63337D01*
Y64063D01*
X282568Y64764D01*
X282345Y65150D01*
X282568Y65536D01*
X282756Y66237D01*
Y66963D01*
X282568Y67664D01*
X282205Y68292D01*
X281692Y68805D01*
X281064Y69168D01*
X280363Y69356D01*
D02*
G37*
G36*
X339073Y68066D02*
X338819D01*
Y62842D01*
X344044D01*
Y63095D01*
X343653Y64551D01*
X342900Y65856D01*
X341834Y66922D01*
X340529Y67676D01*
X339073Y68066D01*
D02*
G37*
G36*
X337819D02*
X337566D01*
X336110Y67676D01*
X334804Y66922D01*
X333738Y65856D01*
X332985Y64551D01*
X332595Y63095D01*
Y62842D01*
X337819D01*
Y68066D01*
D02*
G37*
G36*
X319073D02*
X318819D01*
Y62842D01*
X324043D01*
Y63095D01*
X323653Y64551D01*
X322900Y65856D01*
X321834Y66922D01*
X320529Y67676D01*
X319073Y68066D01*
D02*
G37*
G36*
X317819D02*
X317565D01*
X316109Y67676D01*
X314804Y66922D01*
X313738Y65856D01*
X312985Y64551D01*
X312595Y63095D01*
Y62842D01*
X317819D01*
Y68066D01*
D02*
G37*
G36*
X344044Y61842D02*
X338819D01*
Y56617D01*
X339073D01*
X340529Y57007D01*
X341834Y57761D01*
X342900Y58827D01*
X343653Y60132D01*
X344044Y61588D01*
Y61842D01*
D02*
G37*
G36*
X337819D02*
X332595D01*
Y61588D01*
X332985Y60132D01*
X333738Y58827D01*
X334804Y57761D01*
X336110Y57007D01*
X337566Y56617D01*
X337819D01*
Y61842D01*
D02*
G37*
G36*
X324043Y61842D02*
X318819D01*
Y56617D01*
X319073D01*
X320529Y57007D01*
X321834Y57761D01*
X322900Y58827D01*
X323653Y60132D01*
X324043Y61588D01*
Y61842D01*
D02*
G37*
G36*
X317819D02*
X312595D01*
Y61588D01*
X312985Y60132D01*
X313738Y58827D01*
X314804Y57761D01*
X316109Y57007D01*
X317565Y56617D01*
X317819D01*
Y61842D01*
D02*
G37*
G36*
X124263Y55056D02*
X123537D01*
X122836Y54868D01*
X122350Y54587D01*
X121864Y54868D01*
X121163Y55056D01*
X120437D01*
X119736Y54868D01*
X119250Y54587D01*
X118764Y54868D01*
X118063Y55056D01*
X117337D01*
X116636Y54868D01*
X116150Y54587D01*
X115664Y54868D01*
X114963Y55056D01*
X114237D01*
X113536Y54868D01*
X112908Y54505D01*
X112395Y53992D01*
X112032Y53364D01*
X111844Y52663D01*
Y51937D01*
X112032Y51236D01*
X112395Y50608D01*
X112908Y50095D01*
X113536Y49732D01*
X114237Y49544D01*
X114963D01*
X115664Y49732D01*
X116150Y50013D01*
X116636Y49732D01*
X117337Y49544D01*
X118063D01*
X118764Y49732D01*
X119250Y50013D01*
X119736Y49732D01*
X120437Y49544D01*
X121163D01*
X121864Y49732D01*
X122350Y50013D01*
X122836Y49732D01*
X123537Y49544D01*
X124263D01*
X124964Y49732D01*
X125592Y50095D01*
X126105Y50608D01*
X126468Y51236D01*
X126656Y51937D01*
Y52663D01*
X126468Y53364D01*
X126105Y53992D01*
X125592Y54505D01*
X124964Y54868D01*
X124263Y55056D01*
D02*
G37*
G36*
X328901Y58247D02*
X327738D01*
X326597Y58020D01*
X325522Y57575D01*
X324555Y56929D01*
X323732Y56106D01*
X323086Y55139D01*
X322641Y54064D01*
X322414Y52923D01*
Y51760D01*
X322641Y50619D01*
X323086Y49544D01*
X323732Y48577D01*
X324555Y47754D01*
X325522Y47108D01*
X326597Y46663D01*
X327738Y46436D01*
X328901D01*
X330042Y46663D01*
X331117Y47108D01*
X332084Y47754D01*
X332906Y48577D01*
X333553Y49544D01*
X333998Y50619D01*
X334225Y51760D01*
Y52923D01*
X333998Y54064D01*
X333553Y55139D01*
X332906Y56106D01*
X332084Y56929D01*
X331117Y57575D01*
X330042Y58020D01*
X328901Y58247D01*
D02*
G37*
G36*
X124263Y43856D02*
X123537D01*
X122836Y43668D01*
X122350Y43387D01*
X121864Y43668D01*
X121163Y43856D01*
X120437D01*
X119736Y43668D01*
X119250Y43387D01*
X118764Y43668D01*
X118063Y43856D01*
X117337D01*
X116636Y43668D01*
X116150Y43387D01*
X115664Y43668D01*
X114963Y43856D01*
X114237D01*
X113536Y43668D01*
X112908Y43305D01*
X112395Y42792D01*
X112032Y42164D01*
X111844Y41463D01*
Y40737D01*
X112032Y40036D01*
X112395Y39408D01*
X112908Y38895D01*
X113536Y38532D01*
X114237Y38344D01*
X114963D01*
X115664Y38532D01*
X116150Y38813D01*
X116636Y38532D01*
X117337Y38344D01*
X118063D01*
X118764Y38532D01*
X119250Y38813D01*
X119736Y38532D01*
X120437Y38344D01*
X121163D01*
X121864Y38532D01*
X122350Y38813D01*
X122836Y38532D01*
X123537Y38344D01*
X124263D01*
X124964Y38532D01*
X125592Y38895D01*
X126105Y39408D01*
X126468Y40036D01*
X126656Y40737D01*
Y41463D01*
X126468Y42164D01*
X126105Y42792D01*
X125592Y43305D01*
X124964Y43668D01*
X124263Y43856D01*
D02*
G37*
G36*
X339073Y48066D02*
X338819D01*
Y42842D01*
X344044D01*
Y43095D01*
X343653Y44551D01*
X342900Y45856D01*
X341834Y46922D01*
X340529Y47676D01*
X339073Y48066D01*
D02*
G37*
G36*
X337819D02*
X337566D01*
X336110Y47676D01*
X334804Y46922D01*
X333738Y45856D01*
X332985Y44551D01*
X332595Y43095D01*
Y42842D01*
X337819D01*
Y48066D01*
D02*
G37*
G36*
X319073D02*
X318819D01*
Y42842D01*
X324043D01*
Y43095D01*
X323653Y44551D01*
X322900Y45856D01*
X321834Y46922D01*
X320529Y47676D01*
X319073Y48066D01*
D02*
G37*
G36*
X317819D02*
X317565D01*
X316109Y47676D01*
X314804Y46922D01*
X313738Y45856D01*
X312985Y44551D01*
X312595Y43095D01*
Y42842D01*
X317819D01*
Y48066D01*
D02*
G37*
G36*
X344044Y41842D02*
X338819D01*
Y36617D01*
X339073D01*
X340529Y37007D01*
X341834Y37761D01*
X342900Y38827D01*
X343653Y40132D01*
X344044Y41588D01*
Y41842D01*
D02*
G37*
G36*
X337819D02*
X332595D01*
Y41588D01*
X332985Y40132D01*
X333738Y38827D01*
X334804Y37761D01*
X336110Y37007D01*
X337566Y36617D01*
X337819D01*
Y41842D01*
D02*
G37*
G36*
X324043Y41842D02*
X318819D01*
Y36617D01*
X319073D01*
X320529Y37007D01*
X321834Y37761D01*
X322900Y38827D01*
X323653Y40132D01*
X324043Y41588D01*
Y41842D01*
D02*
G37*
G36*
X317819D02*
X312595D01*
Y41588D01*
X312985Y40132D01*
X313738Y38827D01*
X314804Y37761D01*
X316109Y37007D01*
X317565Y36617D01*
X317819D01*
Y41842D01*
D02*
G37*
G36*
X520614Y11811D02*
X518755D01*
X516919Y11520D01*
X515151Y10946D01*
X513495Y10102D01*
X511991Y9009D01*
X510676Y7694D01*
X509583Y6190D01*
X508739Y4534D01*
X508165Y2766D01*
X507874Y930D01*
Y-930D01*
X508165Y-2766D01*
X508739Y-4534D01*
X509583Y-6190D01*
X510676Y-7694D01*
X511991Y-9009D01*
X513495Y-10102D01*
X515151Y-10946D01*
X516919Y-11520D01*
X518755Y-11811D01*
X520614D01*
X522451Y-11520D01*
X524219Y-10946D01*
X525875Y-10102D01*
X527379Y-9009D01*
X528694Y-7694D01*
X529787Y-6190D01*
X530631Y-4534D01*
X531205Y-2766D01*
X531496Y-930D01*
Y930D01*
X531205Y2766D01*
X530631Y4534D01*
X529787Y6190D01*
X528694Y7694D01*
X527379Y9009D01*
X525875Y10102D01*
X524219Y10946D01*
X522451Y11520D01*
X520614Y11811D01*
D02*
G37*
G36*
X272495Y-9906D02*
X271770D01*
X271069Y-10094D01*
X270440Y-10457D01*
X269927Y-10970D01*
X269564Y-11598D01*
X269376Y-12299D01*
Y-13025D01*
X269564Y-13726D01*
X269927Y-14354D01*
X269966Y-14393D01*
Y-16485D01*
X270134Y-17330D01*
X270256Y-17511D01*
X270142Y-17998D01*
X270040Y-18057D01*
X269527Y-18570D01*
X269164Y-19198D01*
X268976Y-19899D01*
Y-20625D01*
X269164Y-21326D01*
X269527Y-21954D01*
X270040Y-22467D01*
X270669Y-22830D01*
X271370Y-23018D01*
X271883D01*
X273103Y-24238D01*
X273260Y-24821D01*
X273622Y-25450D01*
X274136Y-25963D01*
X274764Y-26326D01*
X275465Y-26513D01*
X276191D01*
X276201Y-26511D01*
X276478Y-26991D01*
X276991Y-27504D01*
X277620Y-27867D01*
X278320Y-28055D01*
X279046D01*
X279747Y-27867D01*
X280375Y-27504D01*
X280889Y-26991D01*
X281251Y-26362D01*
X281439Y-25662D01*
Y-24936D01*
X281251Y-24235D01*
X280889Y-23607D01*
X280846Y-23564D01*
Y-23050D01*
X280678Y-22206D01*
X280500Y-21940D01*
X280497Y-21923D01*
X280018Y-21207D01*
X274382Y-15570D01*
Y-14278D01*
X274700Y-13726D01*
X274888Y-13025D01*
Y-12299D01*
X274700Y-11598D01*
X274338Y-10970D01*
X273825Y-10457D01*
X273196Y-10094D01*
X272495Y-9906D01*
D02*
G37*
G36*
X119829Y-22683D02*
X119103D01*
X118403Y-22871D01*
X117774Y-23234D01*
X117261Y-23747D01*
X116898Y-24375D01*
X116710Y-25076D01*
Y-25802D01*
X116898Y-26503D01*
X117082Y-26822D01*
X116958Y-27036D01*
X116771Y-27737D01*
Y-28462D01*
X116958Y-29163D01*
X117321Y-29792D01*
X117834Y-30305D01*
X118463Y-30668D01*
X119164Y-30856D01*
X119889D01*
X120590Y-30668D01*
X121219Y-30305D01*
X121732Y-29792D01*
X122095Y-29163D01*
X122283Y-28462D01*
Y-27737D01*
X122095Y-27036D01*
X121911Y-26717D01*
X122034Y-26503D01*
X122222Y-25802D01*
Y-25076D01*
X122034Y-24375D01*
X121671Y-23747D01*
X121158Y-23234D01*
X120530Y-22871D01*
X119829Y-22683D01*
D02*
G37*
%LPD*%
G36*
X508050Y263623D02*
X508000Y263668D01*
X507941Y263708D01*
X507873Y263743D01*
X507797Y263774D01*
X507713Y263800D01*
X507619Y263821D01*
X507518Y263838D01*
X507408Y263850D01*
X507162Y263859D01*
Y265040D01*
X507289Y265042D01*
X507518Y265061D01*
X507619Y265078D01*
X507713Y265099D01*
X507797Y265125D01*
X507873Y265156D01*
X507941Y265191D01*
X508000Y265231D01*
X508050Y265276D01*
Y263623D01*
D02*
G37*
G36*
X502932Y265231D02*
X502991Y265191D01*
X503058Y265156D01*
X503135Y265125D01*
X503219Y265099D01*
X503312Y265078D01*
X503414Y265061D01*
X503524Y265050D01*
X503769Y265040D01*
Y263859D01*
X503642Y263857D01*
X503414Y263838D01*
X503312Y263821D01*
X503219Y263800D01*
X503135Y263774D01*
X503058Y263743D01*
X502991Y263708D01*
X502932Y263668D01*
X502881Y263623D01*
Y265276D01*
X502932Y265231D01*
D02*
G37*
G36*
X513236Y263268D02*
X513168Y263264D01*
X513098Y263251D01*
X513025Y263228D01*
X512950Y263196D01*
X512872Y263155D01*
X512791Y263104D01*
X512707Y263044D01*
X512621Y262975D01*
X512441Y262808D01*
X511605Y263643D01*
X511694Y263734D01*
X511842Y263909D01*
X511902Y263993D01*
X511953Y264074D01*
X511994Y264152D01*
X512026Y264227D01*
X512049Y264300D01*
X512062Y264370D01*
X512066Y264438D01*
X513236Y263268D01*
D02*
G37*
G36*
X499075Y264370D02*
X499089Y264300D01*
X499111Y264227D01*
X499144Y264152D01*
X499185Y264074D01*
X499236Y263993D01*
X499296Y263909D01*
X499365Y263823D01*
X499532Y263643D01*
X498697Y262808D01*
X498605Y262896D01*
X498430Y263044D01*
X498347Y263104D01*
X498266Y263155D01*
X498188Y263196D01*
X498112Y263228D01*
X498040Y263251D01*
X497970Y263264D01*
X497902Y263268D01*
X499071Y264438D01*
X499075Y264370D01*
D02*
G37*
G36*
X366416Y254550D02*
X366364Y254589D01*
X366304Y254624D01*
X366235Y254655D01*
X366158Y254682D01*
X366073Y254705D01*
X365979Y254723D01*
X365877Y254737D01*
X365647Y254754D01*
X365520Y254756D01*
X365407Y255937D01*
X365534Y255940D01*
X365761Y255961D01*
X365862Y255979D01*
X365953Y256002D01*
X366036Y256031D01*
X366110Y256065D01*
X366176Y256104D01*
X366232Y256149D01*
X366280Y256198D01*
X366416Y254550D01*
D02*
G37*
G36*
X356946Y256104D02*
X357006Y256069D01*
X357074Y256038D01*
X357151Y256011D01*
X357237Y255989D01*
X357331Y255970D01*
X357433Y255956D01*
X357663Y255939D01*
X357790Y255937D01*
X357903Y254756D01*
X357776Y254753D01*
X357549Y254732D01*
X357448Y254714D01*
X357356Y254691D01*
X357274Y254662D01*
X357199Y254628D01*
X357134Y254589D01*
X357077Y254544D01*
X357030Y254495D01*
X356894Y256143D01*
X356946Y256104D01*
D02*
G37*
G36*
X366345Y251273D02*
X366295Y251318D01*
X366235Y251358D01*
X366168Y251394D01*
X366092Y251424D01*
X366007Y251450D01*
X365914Y251472D01*
X365813Y251488D01*
X365703Y251500D01*
X365457Y251509D01*
Y252691D01*
X365584Y252693D01*
X365813Y252712D01*
X365914Y252728D01*
X366007Y252750D01*
X366092Y252776D01*
X366168Y252806D01*
X366235Y252842D01*
X366295Y252882D01*
X366345Y252927D01*
Y251273D01*
D02*
G37*
G36*
X357015Y252882D02*
X357074Y252842D01*
X357142Y252806D01*
X357218Y252776D01*
X357302Y252750D01*
X357395Y252728D01*
X357497Y252712D01*
X357607Y252700D01*
X357853Y252691D01*
Y251509D01*
X357726Y251507D01*
X357497Y251488D01*
X357395Y251472D01*
X357302Y251450D01*
X357218Y251424D01*
X357142Y251394D01*
X357074Y251358D01*
X357015Y251318D01*
X356965Y251273D01*
Y252927D01*
X357015Y252882D01*
D02*
G37*
G36*
X366345Y248023D02*
X366295Y248068D01*
X366235Y248108D01*
X366168Y248143D01*
X366092Y248174D01*
X366007Y248200D01*
X365914Y248221D01*
X365813Y248238D01*
X365703Y248250D01*
X365457Y248259D01*
Y249440D01*
X365584Y249443D01*
X365813Y249461D01*
X365914Y249478D01*
X366007Y249499D01*
X366092Y249525D01*
X366168Y249556D01*
X366235Y249591D01*
X366295Y249632D01*
X366345Y249676D01*
Y248023D01*
D02*
G37*
G36*
X357015Y249632D02*
X357074Y249591D01*
X357142Y249556D01*
X357218Y249525D01*
X357302Y249499D01*
X357395Y249478D01*
X357497Y249461D01*
X357607Y249450D01*
X357853Y249440D01*
Y248259D01*
X357726Y248257D01*
X357497Y248238D01*
X357395Y248221D01*
X357302Y248200D01*
X357218Y248174D01*
X357142Y248143D01*
X357074Y248108D01*
X357015Y248068D01*
X356965Y248023D01*
Y249676D01*
X357015Y249632D01*
D02*
G37*
G36*
X268185Y243021D02*
X268198Y242951D01*
X268221Y242878D01*
X268253Y242802D01*
X268295Y242724D01*
X268345Y242643D01*
X268406Y242560D01*
X268475Y242474D01*
X268642Y242293D01*
X267807Y241458D01*
X267715Y241546D01*
X267540Y241694D01*
X267457Y241755D01*
X267376Y241805D01*
X267298Y241847D01*
X267222Y241879D01*
X267149Y241902D01*
X267079Y241915D01*
X267012Y241919D01*
X268181Y243088D01*
X268185Y243021D01*
D02*
G37*
G36*
X268682Y238827D02*
X268592Y238735D01*
X268373Y238483D01*
X268317Y238407D01*
X268229Y238266D01*
X268198Y238202D01*
X268176Y238142D01*
X268162Y238086D01*
X267238Y239457D01*
X267306Y239448D01*
X267377Y239451D01*
X267450Y239464D01*
X267526Y239487D01*
X267605Y239522D01*
X267686Y239567D01*
X267770Y239622D01*
X267857Y239689D01*
X267946Y239766D01*
X268038Y239853D01*
X268682Y238827D01*
D02*
G37*
G36*
X325805Y207873D02*
X325830Y207819D01*
X325862Y207759D01*
X325903Y207696D01*
X325952Y207627D01*
X326076Y207475D01*
X326232Y207305D01*
X326323Y207212D01*
X325746Y206119D01*
X325654Y206206D01*
X325479Y206348D01*
X325395Y206403D01*
X325314Y206446D01*
X325236Y206478D01*
X325161Y206500D01*
X325089Y206509D01*
X325019Y206508D01*
X324952Y206496D01*
X325789Y207922D01*
X325805Y207873D01*
D02*
G37*
G36*
X371459Y175942D02*
X371436Y175874D01*
X371416Y175792D01*
X371398Y175693D01*
X371371Y175447D01*
X371355Y175137D01*
X371350Y174763D01*
X370168Y174774D01*
X370166Y174900D01*
X370142Y175125D01*
X370122Y175223D01*
X370095Y175312D01*
X370063Y175390D01*
X370025Y175459D01*
X369982Y175518D01*
X369932Y175568D01*
X369876Y175608D01*
X371484Y175993D01*
X371459Y175942D01*
D02*
G37*
G36*
X367356Y173625D02*
X367306Y173670D01*
X367247Y173710D01*
X367179Y173746D01*
X367103Y173776D01*
X367019Y173802D01*
X366926Y173823D01*
X366824Y173840D01*
X366714Y173852D01*
X366469Y173861D01*
Y175042D01*
X366596Y175045D01*
X366824Y175064D01*
X366926Y175080D01*
X367019Y175101D01*
X367103Y175127D01*
X367179Y175158D01*
X367247Y175194D01*
X367306Y175234D01*
X367356Y175279D01*
Y173625D01*
D02*
G37*
G36*
X397572Y152840D02*
X397532Y152781D01*
X397496Y152713D01*
X397466Y152637D01*
X397440Y152552D01*
X397418Y152460D01*
X397402Y152358D01*
X397390Y152248D01*
X397381Y152002D01*
X396200D01*
X396197Y152129D01*
X396178Y152358D01*
X396162Y152460D01*
X396141Y152552D01*
X396114Y152637D01*
X396084Y152713D01*
X396048Y152781D01*
X396008Y152840D01*
X395963Y152890D01*
X397617D01*
X397572Y152840D01*
D02*
G37*
G36*
X397383Y147154D02*
X397402Y146925D01*
X397418Y146824D01*
X397440Y146731D01*
X397466Y146646D01*
X397496Y146570D01*
X397532Y146503D01*
X397572Y146444D01*
X397617Y146393D01*
X395963D01*
X396008Y146444D01*
X396048Y146503D01*
X396084Y146570D01*
X396114Y146646D01*
X396141Y146731D01*
X396162Y146824D01*
X396178Y146925D01*
X396190Y147036D01*
X396200Y147281D01*
X397381D01*
X397383Y147154D01*
D02*
G37*
G36*
X411825Y139193D02*
X411774Y139237D01*
X411715Y139278D01*
X411647Y139313D01*
X411571Y139344D01*
X411487Y139370D01*
X411394Y139391D01*
X411292Y139408D01*
X411182Y139419D01*
X410937Y139429D01*
Y140610D01*
X411064Y140612D01*
X411292Y140631D01*
X411394Y140648D01*
X411487Y140669D01*
X411571Y140695D01*
X411647Y140726D01*
X411715Y140761D01*
X411774Y140801D01*
X411825Y140846D01*
Y139193D01*
D02*
G37*
G36*
X412223Y135903D02*
X412398Y135755D01*
X412481Y135695D01*
X412562Y135644D01*
X412640Y135603D01*
X412716Y135571D01*
X412788Y135548D01*
X412859Y135535D01*
X412926Y135531D01*
X411757Y134361D01*
X411753Y134429D01*
X411739Y134499D01*
X411717Y134572D01*
X411685Y134647D01*
X411643Y134725D01*
X411592Y134806D01*
X411532Y134890D01*
X411463Y134976D01*
X411296Y135156D01*
X412131Y135992D01*
X412223Y135903D01*
D02*
G37*
G36*
X336677Y123893D02*
X336696Y123665D01*
X336713Y123563D01*
X336734Y123470D01*
X336760Y123386D01*
X336791Y123310D01*
X336826Y123242D01*
X336866Y123183D01*
X336911Y123132D01*
X335258D01*
X335302Y123183D01*
X335343Y123242D01*
X335378Y123310D01*
X335409Y123386D01*
X335435Y123470D01*
X335456Y123563D01*
X335472Y123665D01*
X335484Y123775D01*
X335494Y124020D01*
X336675D01*
X336677Y123893D01*
D02*
G37*
G36*
X339228Y120884D02*
X339174Y119521D01*
X337752Y120292D01*
X337808Y120313D01*
X337859Y120346D01*
X337903Y120392D01*
X337941Y120449D01*
X337974Y120518D01*
X338000Y120598D01*
X338021Y120691D01*
X338035Y120795D01*
X338044Y120911D01*
X338047Y121039D01*
X339228Y120884D01*
D02*
G37*
G36*
X381043Y121289D02*
X381087Y121057D01*
X381161Y120818D01*
X381265Y120573D01*
X381398Y120321D01*
X381560Y120062D01*
X381752Y119796D01*
X381973Y119524D01*
X382505Y118958D01*
X378371D01*
X378651Y119244D01*
X379124Y119796D01*
X379316Y120062D01*
X379478Y120321D01*
X379611Y120573D01*
X379714Y120818D01*
X379788Y121057D01*
X379833Y121289D01*
X379847Y121514D01*
X381028D01*
X381043Y121289D01*
D02*
G37*
G36*
X272946Y-13527D02*
X272908Y-13587D01*
X272874Y-13655D01*
X272845Y-13732D01*
X272820Y-13817D01*
X272800Y-13910D01*
X272785Y-14012D01*
X272767Y-14241D01*
X272764Y-14369D01*
X271583Y-14417D01*
X271581Y-14290D01*
X271561Y-14062D01*
X271544Y-13960D01*
X271521Y-13868D01*
X271494Y-13784D01*
X271462Y-13709D01*
X271425Y-13642D01*
X271383Y-13584D01*
X271336Y-13534D01*
X272988Y-13476D01*
X272946Y-13527D01*
D02*
G37*
G36*
X272875Y-19948D02*
X272900Y-19995D01*
X272933Y-20047D01*
X272974Y-20105D01*
X273082Y-20239D01*
X273224Y-20396D01*
X273400Y-20577D01*
X272894Y-21742D01*
X272802Y-21654D01*
X272713Y-21578D01*
X272627Y-21513D01*
X272544Y-21460D01*
X272464Y-21418D01*
X272387Y-21388D01*
X272313Y-21369D01*
X272242Y-21362D01*
X272174Y-21366D01*
X272109Y-21382D01*
X272859Y-19908D01*
X272875Y-19948D01*
D02*
G37*
G36*
X275049Y-22223D02*
X275224Y-22369D01*
X275308Y-22428D01*
X275389Y-22478D01*
X275468Y-22517D01*
X275544Y-22547D01*
X275618Y-22567D01*
X275689Y-22578D01*
X275758Y-22579D01*
X274648Y-23804D01*
X274641Y-23739D01*
X274624Y-23670D01*
X274599Y-23598D01*
X274565Y-23524D01*
X274522Y-23447D01*
X274470Y-23367D01*
X274408Y-23284D01*
X274258Y-23109D01*
X274170Y-23018D01*
X274957Y-22135D01*
X275049Y-22223D01*
D02*
G37*
G36*
X279050Y-23550D02*
X279228Y-23542D01*
X279231Y-23669D01*
X279251Y-23897D01*
X279268Y-23999D01*
X279291Y-24091D01*
X279318Y-24175D01*
X279350Y-24250D01*
X279387Y-24317D01*
X279430Y-24375D01*
X279477Y-24424D01*
X278586Y-24458D01*
X277710Y-24629D01*
X277740Y-24579D01*
X277767Y-24521D01*
X277790Y-24453D01*
X277810Y-24377D01*
X277828Y-24292D01*
X277853Y-24096D01*
X277860Y-23985D01*
X277867Y-23737D01*
X278046Y-23696D01*
X278047Y-23595D01*
X278593Y-23571D01*
X279048Y-23467D01*
X279050Y-23550D01*
D02*
G37*
D18*
X356218Y255347D02*
X367092D01*
X367189Y255444D01*
X356121Y255250D02*
X356218Y255347D01*
X356121Y248850D02*
X367189D01*
X272174Y-16485D02*
X278457Y-22768D01*
X272174Y-16485D02*
Y-12686D01*
X278692Y-25290D02*
X278725Y-25323D01*
X278638Y-25236D02*
X278692Y-25290D01*
X278457Y-22870D02*
Y-22768D01*
Y-25073D02*
Y-22870D01*
X278638Y-23050D01*
X278457Y-25073D02*
X278683Y-25299D01*
X510688Y261891D02*
X513247Y264450D01*
X500449Y261891D02*
X510688D01*
X497890Y264450D02*
X500449Y261891D01*
X268651Y239632D02*
X296267D01*
X267320Y238300D02*
X268651Y239632D01*
X267000Y243100D02*
X268500Y241600D01*
X297083D02*
X344339Y194343D01*
X268500Y241600D02*
X297083D01*
X267000Y238300D02*
X267320D01*
X296267Y239632D02*
X342371Y193528D01*
X340402Y178514D02*
X348700Y170216D01*
X333525Y131421D02*
X348700Y146596D01*
Y170216D01*
X369260Y171893D02*
X370759Y173392D01*
X342371Y179329D02*
X349807Y171893D01*
X370759Y173392D02*
Y175512D01*
X349807Y171893D02*
X369260D01*
X342371Y179329D02*
Y193528D01*
X344339Y180145D02*
Y194343D01*
Y180145D02*
X349684Y174800D01*
X349800D01*
X350148Y174452D02*
X368200D01*
X349800Y174800D02*
X350148Y174452D01*
X370484Y176620D02*
X370710Y176394D01*
Y175561D02*
Y176394D01*
Y175561D02*
X370759Y175512D01*
X340402Y178514D02*
Y192298D01*
X325400Y207300D02*
X340402Y192298D01*
X325299Y207300D02*
X325400D01*
X333525Y120058D02*
Y131421D01*
X324643Y207636D02*
X324963D01*
X325299Y207300D01*
X336444Y117139D02*
X336993Y116590D01*
X339113D02*
X340612Y118090D01*
X333525Y120058D02*
X336444Y117139D01*
X336993Y116590D02*
X339113D01*
X340612Y118090D02*
Y130156D01*
X348998Y138542D01*
X373900D01*
X380438Y132004D01*
Y116850D02*
Y132004D01*
X356121Y252100D02*
X367189D01*
X502038Y264450D02*
X508494D01*
X396790Y145441D02*
Y153734D01*
X338638Y123354D02*
Y130966D01*
Y121223D02*
X338643Y121229D01*
X338638Y130966D02*
X348183Y140510D01*
X338643Y121229D02*
Y123349D01*
X338638Y123354D02*
X338643Y123349D01*
X338053Y119469D02*
X338638Y120054D01*
Y121223D01*
X338053Y119150D02*
Y119469D01*
X348183Y140510D02*
X395816D01*
X398966Y137361D01*
X409237Y138051D02*
X412938Y134350D01*
X402439Y138051D02*
X409237D01*
X401749Y137361D02*
X402439Y138051D01*
X398966Y137361D02*
X401749D01*
X403705Y140019D02*
X412668D01*
X347367Y142479D02*
X401246D01*
X403705Y140019D01*
X336084Y131196D02*
X347367Y142479D01*
X336084Y122289D02*
Y131196D01*
X278638Y-25236D02*
Y-23050D01*
X275769Y-23782D02*
X275869D01*
X272174Y-20286D02*
X272274D01*
X275769Y-23782D01*
D49*
X561238Y311950D02*
D03*
D131*
X-45082Y218799D02*
D03*
D132*
X4528D02*
D03*
D133*
X-34890Y79736D02*
D03*
X-5362Y72650D02*
D03*
D138*
X8138Y170650D02*
X88957D01*
X6138D02*
X8138D01*
X-31862Y181650D02*
Y184150D01*
X52902Y193650D02*
X85138Y225886D01*
X-22362Y193650D02*
X52902D01*
X-31862Y184150D02*
X-22362Y193650D01*
X88957Y170650D02*
X144193Y225886D01*
Y316043D02*
Y383366D01*
X4528Y218799D02*
X46949D01*
X144193Y316043D01*
X-27563Y236319D02*
X36024D01*
X-45082Y218799D02*
X-27563Y236319D01*
X36024D02*
X85138Y285433D01*
Y383366D01*
D146*
X561238Y261950D02*
D03*
Y271950D02*
D03*
Y281950D02*
D03*
Y291950D02*
D03*
Y301950D02*
D03*
X410438Y116850D02*
D03*
X400438D02*
D03*
X390438D02*
D03*
X380438D02*
D03*
X370438D02*
D03*
D147*
X436138Y222950D02*
D03*
X446138D02*
D03*
Y202950D02*
D03*
Y212949D02*
D03*
Y232949D02*
D03*
X436138Y212949D02*
D03*
Y202950D02*
D03*
X289525Y350718D02*
D03*
X309525D02*
D03*
X389540D02*
D03*
X369540D02*
D03*
X429550D02*
D03*
X409550D02*
D03*
X349530D02*
D03*
X329530D02*
D03*
X229525Y350719D02*
D03*
X209525D02*
D03*
X249525Y350718D02*
D03*
X269525D02*
D03*
X-2362Y267421D02*
D03*
X-22362D02*
D03*
X-43307Y253425D02*
D03*
Y267224D02*
D03*
X19095Y253425D02*
D03*
Y267224D02*
D03*
D148*
X436138Y232949D02*
D03*
D149*
X543401Y111927D02*
D03*
X547338Y109368D02*
D03*
X543401Y106809D02*
D03*
X547338Y104250D02*
D03*
X543401Y101691D02*
D03*
D150*
X542968Y120883D02*
D03*
Y92734D02*
D03*
D151*
X478838Y366983D02*
D03*
X483838D02*
D03*
X488838D02*
D03*
D152*
X29119Y-10472D02*
D03*
Y22047D02*
D03*
X225182Y140945D02*
D03*
Y117638D02*
D03*
Y94331D02*
D03*
X328319Y52342D02*
D03*
D153*
X318319Y42342D02*
D03*
X338319D02*
D03*
X318319Y62342D02*
D03*
X338319D02*
D03*
D154*
X519685Y0D02*
D03*
X0D02*
D03*
Y358268D02*
D03*
X519685D02*
D03*
D155*
X144193Y383366D02*
D03*
Y225886D02*
D03*
X85138Y383366D02*
D03*
Y225886D02*
D03*
D156*
X420438Y116850D02*
D03*
D157*
X333563Y180512D02*
D03*
Y168701D02*
D03*
Y156890D02*
D03*
Y145079D02*
D03*
X321752Y180512D02*
D03*
Y168701D02*
D03*
Y156890D02*
D03*
Y145079D02*
D03*
X309941Y180512D02*
D03*
Y168701D02*
D03*
Y156890D02*
D03*
Y145079D02*
D03*
X554036Y306496D02*
D03*
Y251378D02*
D03*
Y223819D02*
D03*
Y58465D02*
D03*
X526477Y223819D02*
D03*
Y168701D02*
D03*
Y141142D02*
D03*
Y86024D02*
D03*
Y58465D02*
D03*
Y30906D02*
D03*
Y-24213D02*
D03*
X498918Y361614D02*
D03*
Y334055D02*
D03*
Y278937D02*
D03*
Y251378D02*
D03*
Y223819D02*
D03*
Y168701D02*
D03*
Y141142D02*
D03*
Y86024D02*
D03*
Y58465D02*
D03*
Y30906D02*
D03*
Y3347D02*
D03*
Y-24213D02*
D03*
X471358Y361614D02*
D03*
Y334055D02*
D03*
Y223819D02*
D03*
Y196260D02*
D03*
Y141142D02*
D03*
Y113583D02*
D03*
Y86024D02*
D03*
Y58465D02*
D03*
Y30906D02*
D03*
Y3347D02*
D03*
Y-24213D02*
D03*
X443799Y361614D02*
D03*
Y334055D02*
D03*
Y306496D02*
D03*
Y278937D02*
D03*
Y196260D02*
D03*
Y141142D02*
D03*
Y113583D02*
D03*
Y58465D02*
D03*
Y30906D02*
D03*
Y3347D02*
D03*
X416240Y361614D02*
D03*
Y196260D02*
D03*
Y58465D02*
D03*
Y30906D02*
D03*
Y3347D02*
D03*
X388681Y223819D02*
D03*
Y196260D02*
D03*
Y58465D02*
D03*
Y30906D02*
D03*
Y3347D02*
D03*
X361122Y334055D02*
D03*
Y196260D02*
D03*
Y-24213D02*
D03*
X333563Y278937D02*
D03*
Y86024D02*
D03*
Y3347D02*
D03*
X306004Y361614D02*
D03*
Y334055D02*
D03*
Y306496D02*
D03*
Y278937D02*
D03*
Y223819D02*
D03*
Y86024D02*
D03*
Y30906D02*
D03*
Y3347D02*
D03*
Y-24213D02*
D03*
X278445Y361614D02*
D03*
Y334055D02*
D03*
Y306496D02*
D03*
Y278937D02*
D03*
Y251378D02*
D03*
Y196260D02*
D03*
Y168701D02*
D03*
Y141142D02*
D03*
Y113583D02*
D03*
Y86024D02*
D03*
Y58465D02*
D03*
Y30906D02*
D03*
X250886Y361614D02*
D03*
Y306496D02*
D03*
Y278937D02*
D03*
Y251378D02*
D03*
Y196260D02*
D03*
Y168701D02*
D03*
Y30906D02*
D03*
Y3347D02*
D03*
X223327Y361614D02*
D03*
Y334055D02*
D03*
Y278937D02*
D03*
Y251378D02*
D03*
Y196260D02*
D03*
Y168701D02*
D03*
Y86024D02*
D03*
Y30906D02*
D03*
Y3347D02*
D03*
X195768Y141142D02*
D03*
Y113583D02*
D03*
Y86024D02*
D03*
Y58465D02*
D03*
Y30906D02*
D03*
Y3347D02*
D03*
Y-24213D02*
D03*
X168209Y113583D02*
D03*
Y86024D02*
D03*
Y58465D02*
D03*
Y3347D02*
D03*
Y-24213D02*
D03*
X140650Y168701D02*
D03*
Y113583D02*
D03*
Y86024D02*
D03*
Y58465D02*
D03*
Y3347D02*
D03*
Y-24213D02*
D03*
X113091Y168701D02*
D03*
Y58465D02*
D03*
X85532Y141142D02*
D03*
Y86024D02*
D03*
Y30906D02*
D03*
Y-24213D02*
D03*
X526800Y264800D02*
D03*
X531200Y268600D02*
D03*
X475400Y328000D02*
D03*
X471900Y263500D02*
D03*
X489227D02*
D03*
X480563D02*
D03*
X497890Y264450D02*
D03*
X232100Y304900D02*
D03*
X322400Y48400D02*
D03*
X313700D02*
D03*
X322200Y56200D02*
D03*
X314000D02*
D03*
X300758Y55416D02*
D03*
X300400Y47800D02*
D03*
X287500Y47500D02*
D03*
X284100Y45400D02*
D03*
X280600D02*
D03*
X276800D02*
D03*
X284500Y55800D02*
D03*
X281100Y53600D02*
D03*
X277000D02*
D03*
X408600Y167300D02*
D03*
X215281Y307317D02*
D03*
X212700Y307300D02*
D03*
X220500Y279900D02*
D03*
X247300Y329700D02*
D03*
X244161Y326673D02*
D03*
X241600Y323700D02*
D03*
X238797Y321309D02*
D03*
X126891Y-24855D02*
D03*
X137391D02*
D03*
Y-21611D02*
D03*
X126891D02*
D03*
X126829Y83993D02*
D03*
X137329D02*
D03*
Y80750D02*
D03*
X126829D02*
D03*
X110951Y82992D02*
D03*
X111177Y-22607D02*
D03*
X132926Y2196D02*
D03*
X132469Y54643D02*
D03*
X134400Y159900D02*
D03*
X119527Y-28100D02*
D03*
X119466Y-25439D02*
D03*
X119240Y80160D02*
D03*
X119300Y77500D02*
D03*
X289100Y221900D02*
D03*
X289231Y227494D02*
D03*
X289300Y216500D02*
D03*
X235536Y321309D02*
D03*
X322168Y282924D02*
D03*
X322135Y273881D02*
D03*
X353530Y278418D02*
D03*
X362573Y278386D02*
D03*
X510259Y296037D02*
D03*
X499226Y285036D02*
D03*
X488224Y296070D02*
D03*
X499258Y307071D02*
D03*
X488224Y302566D02*
D03*
X492762Y307071D02*
D03*
X505754D02*
D03*
X510259Y302533D02*
D03*
Y289541D02*
D03*
X505722Y285036D02*
D03*
X492730D02*
D03*
X488224Y289574D02*
D03*
X468197Y141384D02*
D03*
X459154Y141417D02*
D03*
X474125Y134151D02*
D03*
X474093Y175895D02*
D03*
X332249Y-24241D02*
D03*
X332216Y23409D02*
D03*
X283616Y-6817D02*
D03*
Y-16817D02*
D03*
X204805Y23612D02*
D03*
X222926Y-32D02*
D03*
X248910D02*
D03*
X257571D02*
D03*
X266616Y27943D02*
D03*
Y40935D02*
D03*
Y45266D02*
D03*
Y53927D02*
D03*
X248878Y60216D02*
D03*
X244547D02*
D03*
X240200Y60200D02*
D03*
X213490Y72193D02*
D03*
X233655Y79245D02*
D03*
X264355Y79145D02*
D03*
X287211Y82573D02*
D03*
X279741Y80655D02*
D03*
X275043D02*
D03*
X270300Y80700D02*
D03*
X391600Y96000D02*
D03*
X106319Y7449D02*
D03*
Y10785D02*
D03*
Y14122D02*
D03*
X106024Y119721D02*
D03*
Y116385D02*
D03*
Y113048D02*
D03*
X116683Y146699D02*
D03*
X119783D02*
D03*
X122883D02*
D03*
X125983D02*
D03*
Y157899D02*
D03*
X122883D02*
D03*
X119783D02*
D03*
X116683D02*
D03*
X322739Y97378D02*
D03*
X314458D02*
D03*
X306100Y97300D02*
D03*
X451163Y85341D02*
D03*
X442895D02*
D03*
X434627D02*
D03*
X426300Y85400D02*
D03*
X378400Y182400D02*
D03*
X363300Y130400D02*
D03*
X204300Y250900D02*
D03*
X248400Y228000D02*
D03*
X204400Y216000D02*
D03*
X162600Y172630D02*
D03*
X172200Y178640D02*
D03*
Y185200D02*
D03*
X209400Y161700D02*
D03*
X202100D02*
D03*
X205700Y188800D02*
D03*
X215055Y180689D02*
D03*
Y176963D02*
D03*
Y173237D02*
D03*
Y169511D02*
D03*
X210945D02*
D03*
Y173237D02*
D03*
Y176963D02*
D03*
Y180689D02*
D03*
X262992Y120391D02*
D03*
Y116665D02*
D03*
Y112939D02*
D03*
Y109213D02*
D03*
X247883D02*
D03*
Y112939D02*
D03*
Y116665D02*
D03*
Y120391D02*
D03*
X96365Y146699D02*
D03*
X92639D02*
D03*
X88913D02*
D03*
X85187D02*
D03*
X94282Y56209D02*
D03*
X90556D02*
D03*
X86830D02*
D03*
X83104D02*
D03*
Y41100D02*
D03*
X86830D02*
D03*
X90556D02*
D03*
X94282D02*
D03*
X64195Y22601D02*
D03*
Y19264D02*
D03*
Y15928D02*
D03*
Y12592D02*
D03*
Y9255D02*
D03*
Y5919D02*
D03*
Y2582D02*
D03*
Y-754D02*
D03*
Y-4090D02*
D03*
Y-7427D02*
D03*
Y-10763D02*
D03*
Y-14099D02*
D03*
X63900Y91500D02*
D03*
Y94836D02*
D03*
Y98173D02*
D03*
Y101509D02*
D03*
Y104845D02*
D03*
Y108182D02*
D03*
Y111518D02*
D03*
Y114855D02*
D03*
Y118191D02*
D03*
Y121527D02*
D03*
Y124864D02*
D03*
Y128200D02*
D03*
X114600Y52300D02*
D03*
X117700D02*
D03*
X120800D02*
D03*
X123900D02*
D03*
X270700Y63700D02*
D03*
X276900D02*
D03*
X280000D02*
D03*
X270700Y66600D02*
D03*
X273800D02*
D03*
X276900D02*
D03*
X280000D02*
D03*
X123900Y41100D02*
D03*
X120800D02*
D03*
X117700D02*
D03*
X114600D02*
D03*
X204300Y228300D02*
D03*
X269100Y193600D02*
D03*
X269600Y182800D02*
D03*
X287000Y190100D02*
D03*
X515826Y337712D02*
D03*
X492000Y351600D02*
D03*
X267000Y248905D02*
D03*
Y232300D02*
D03*
Y238300D02*
D03*
Y243100D02*
D03*
X370484Y176620D02*
D03*
X368200Y174452D02*
D03*
X324643Y207636D02*
D03*
X308900Y221400D02*
D03*
X312300Y213687D02*
D03*
X513247Y264450D02*
D03*
X367189Y255444D02*
D03*
X356121Y252100D02*
D03*
Y255250D02*
D03*
Y248850D02*
D03*
X502038Y264450D02*
D03*
X508894D02*
D03*
X367189Y248850D02*
D03*
Y252100D02*
D03*
X351154Y210950D02*
D03*
X527138Y340750D02*
D03*
X532038Y333050D02*
D03*
X535300Y196098D02*
D03*
X513170Y202418D02*
D03*
Y237851D02*
D03*
Y241788D02*
D03*
X561306Y237913D02*
D03*
X497638Y219850D02*
D03*
X497838Y186350D02*
D03*
X490238Y191950D02*
D03*
X490238Y205849D02*
D03*
X336084Y122289D02*
D03*
X338053Y119150D02*
D03*
X291538Y193950D02*
D03*
Y188550D02*
D03*
X373438Y191350D02*
D03*
Y196850D02*
D03*
X357038Y124950D02*
D03*
X286838Y145150D02*
D03*
X289838Y136650D02*
D03*
X295338D02*
D03*
X332038Y210950D02*
D03*
X308367Y235528D02*
D03*
X338243Y235528D02*
D03*
X353650Y218336D02*
D03*
X329538Y218449D02*
D03*
X328343Y231450D02*
D03*
X354643D02*
D03*
X341493D02*
D03*
X424338Y177547D02*
D03*
Y141327D02*
D03*
Y148413D02*
D03*
Y158650D02*
D03*
X412938Y134350D02*
D03*
X412668Y140019D02*
D03*
X396790Y153734D02*
D03*
Y145550D02*
D03*
X400238D02*
D03*
X494580Y120169D02*
D03*
X494638Y110750D02*
D03*
X411738Y178749D02*
D03*
X400026Y134290D02*
D03*
Y139920D02*
D03*
Y159737D02*
D03*
Y153734D02*
D03*
X380531Y274649D02*
D03*
X387031D02*
D03*
X419331D02*
D03*
X425831D02*
D03*
X387031Y277893D02*
D03*
X425831D02*
D03*
X380531D02*
D03*
X419331D02*
D03*
X321531Y288219D02*
D03*
X330531D02*
D03*
X326031D02*
D03*
Y295386D02*
D03*
X321531D02*
D03*
X330531D02*
D03*
X419331Y309886D02*
D03*
X425831D02*
D03*
X387031D02*
D03*
X380531D02*
D03*
X425831Y313129D02*
D03*
X419331D02*
D03*
X380531D02*
D03*
X387031D02*
D03*
X408338Y89450D02*
D03*
X402738Y96050D02*
D03*
X280738Y21650D02*
D03*
X252732Y73438D02*
D03*
X237832Y74938D02*
D03*
X309333Y65519D02*
D03*
X297118Y67238D02*
D03*
X291232D02*
D03*
X275828Y-23758D02*
D03*
X278683Y-25299D02*
D03*
X271732Y-20262D02*
D03*
X272132Y-12662D02*
D03*
X267095Y-23652D02*
D03*
X243666Y-23362D02*
D03*
X232277Y-23962D02*
D03*
X220889Y-23712D02*
D03*
X8138Y170650D02*
D03*
X-31862Y181650D02*
D03*
X5638Y170650D02*
D03*
X-31862Y184150D02*
D03*
M02*
