G04*
G04 #@! TF.GenerationSoftware,Altium Limited,Altium Designer,21.8.1 (53)*
G04*
G04 Layer_Color=16711935*
%FSLAX25Y25*%
%MOIN*%
G70*
G04*
G04 #@! TF.SameCoordinates,C8D47062-8F1F-4A6C-B0F1-C45CC90B983E*
G04*
G04*
G04 #@! TF.FilePolarity,Positive*
G04*
G01*
G75*
%ADD10C,0.00787*%
D10*
X-16341Y-38032D02*
X-15748Y-38099D01*
X-16905Y-37835D02*
X-16341Y-38032D01*
X-17410Y-37517D02*
X-16905Y-37835D01*
X-17832Y-37095D02*
X-17410Y-37517D01*
X-18150Y-36590D02*
X-17832Y-37095D01*
X-18347Y-36026D02*
X-18150Y-36590D01*
X-18414Y-35433D02*
X-18347Y-36026D01*
X-18414Y-35433D02*
Y0D01*
X-18632Y3889D02*
X-18414Y0D01*
X-19285Y7729D02*
X-18632Y3889D01*
X-20363Y11472D02*
X-19285Y7729D01*
X-21854Y15071D02*
X-20363Y11472D01*
X-23738Y18480D02*
X-21854Y15071D01*
X-25992Y21657D02*
X-23738Y18480D01*
X-28588Y24562D02*
X-25992Y21657D01*
X-31492Y27157D02*
X-28588Y24562D01*
X-34669Y29412D02*
X-31492Y27157D01*
X-38078Y31296D02*
X-34669Y29412D01*
X-41677Y32786D02*
X-38078Y31296D01*
X-45420Y33865D02*
X-41677Y32786D01*
X-49260Y34517D02*
X-45420Y33865D01*
X-53150Y34736D02*
X-49260Y34517D01*
X-53743Y34803D02*
X-53150Y34736D01*
X-54306Y35000D02*
X-53743Y34803D01*
X-54812Y35317D02*
X-54306Y35000D01*
X-55234Y35739D02*
X-54812Y35317D01*
X-55551Y36245D02*
X-55234Y35739D01*
X-55749Y36808D02*
X-55551Y36245D01*
X-55815Y37401D02*
X-55749Y36808D01*
X-55815Y37401D02*
Y320866D01*
X-55749Y321459D01*
X-55551Y322023D01*
X-55234Y322528D01*
X-54812Y322950D01*
X-54306Y323268D01*
X-53743Y323465D01*
X-53150Y323532D01*
X-49260Y323750D01*
X-45420Y324403D01*
X-41677Y325481D01*
X-38078Y326972D01*
X-34669Y328856D01*
X-31492Y331110D01*
X-28588Y333706D01*
X-25992Y336610D01*
X-23738Y339787D01*
X-21854Y343196D01*
X-20363Y346795D01*
X-19285Y350538D01*
X-18632Y354378D01*
X-18414Y358268D01*
Y393701D01*
X-18347Y394294D01*
X-18150Y394857D01*
X-17832Y395363D01*
X-17410Y395785D01*
X-16905Y396102D01*
X-16341Y396300D01*
X-15748Y396366D01*
X535433Y396367D01*
X536026Y396300D01*
X536590Y396103D01*
X537095Y395785D01*
X537517Y395363D01*
X537835Y394857D01*
X538032Y394294D01*
X538099Y393701D01*
Y358268D02*
Y393701D01*
Y358268D02*
X538317Y354378D01*
X538970Y350538D01*
X540048Y346795D01*
X541539Y343196D01*
X543423Y339787D01*
X545677Y336610D01*
X548273Y333706D01*
X551177Y331110D01*
X554354Y328856D01*
X557763Y326972D01*
X561362Y325481D01*
X565105Y324403D01*
X568945Y323750D01*
X572835Y323532D01*
X573428Y323465D01*
X573991Y323268D01*
X574497Y322950D01*
X574919Y322528D01*
X575236Y322023D01*
X575434Y321459D01*
X575500Y320866D01*
Y37401D02*
Y320866D01*
X575434Y36808D02*
X575500Y37401D01*
X575236Y36245D02*
X575434Y36808D01*
X574919Y35739D02*
X575236Y36245D01*
X574497Y35317D02*
X574919Y35739D01*
X573991Y35000D02*
X574497Y35317D01*
X573428Y34803D02*
X573991Y35000D01*
X572835Y34736D02*
X573428Y34803D01*
X568945Y34517D02*
X572835Y34736D01*
X565105Y33865D02*
X568945Y34517D01*
X561362Y32786D02*
X565105Y33865D01*
X557763Y31296D02*
X561362Y32786D01*
X554354Y29412D02*
X557763Y31296D01*
X551177Y27157D02*
X554354Y29412D01*
X548273Y24562D02*
X551177Y27157D01*
X545677Y21657D02*
X548273Y24562D01*
X543423Y18480D02*
X545677Y21657D01*
X541539Y15071D02*
X543423Y18480D01*
X540048Y11472D02*
X541539Y15071D01*
X538970Y7729D02*
X540048Y11472D01*
X538317Y3889D02*
X538970Y7729D01*
X538099Y0D02*
X538317Y3889D01*
X538099Y-35433D02*
Y0D01*
X538032Y-36026D02*
X538099Y-35433D01*
X537835Y-36590D02*
X538032Y-36026D01*
X537517Y-37095D02*
X537835Y-36590D01*
X537095Y-37517D02*
X537517Y-37095D01*
X536590Y-37835D02*
X537095Y-37517D01*
X536026Y-38032D02*
X536590Y-37835D01*
X535433Y-38099D02*
X536026Y-38032D01*
X-15748Y-38099D02*
X535433D01*
M02*
